G75*
G70*
%OFA0B0*%
%FSLAX24Y24*%
%IPPOS*%
%LPD*%
%AMOC8*
5,1,8,0,0,1.08239X$1,22.5*
%
%ADD10C,0.0840*%
%ADD11C,0.0867*%
%ADD12C,0.0148*%
%ADD13OC8,0.0358*%
D10*
X000737Y002260D03*
X000737Y003244D03*
X000737Y004244D03*
X000737Y005244D03*
X000737Y006244D03*
X000737Y007244D03*
X000737Y008244D03*
X001737Y011260D03*
X002737Y011260D03*
X003737Y011260D03*
X004737Y011260D03*
X005737Y011260D03*
X006737Y011260D03*
X007737Y011276D03*
X008737Y011276D03*
X009737Y011276D03*
X010737Y011276D03*
X011737Y011276D03*
X012737Y011276D03*
X013737Y008244D03*
X013737Y007244D03*
X013737Y006244D03*
X013737Y005244D03*
X013737Y004244D03*
X013737Y003244D03*
X013737Y002244D03*
X008811Y005032D03*
X007630Y005032D03*
X005662Y005032D03*
D11*
X000807Y000827D03*
X013603Y009634D03*
D12*
X010946Y007764D02*
X011020Y007690D01*
X010774Y007690D01*
X010602Y007862D01*
X010602Y008108D01*
X010774Y008280D01*
X011020Y008280D01*
X011192Y008108D01*
X011192Y007862D01*
X011020Y007690D01*
X010974Y007801D01*
X010820Y007801D01*
X010713Y007908D01*
X010713Y008062D01*
X010820Y008169D01*
X010974Y008169D01*
X011081Y008062D01*
X011081Y007908D01*
X010974Y007801D01*
X010928Y007912D01*
X010866Y007912D01*
X010824Y007954D01*
X010824Y008016D01*
X010866Y008058D01*
X010928Y008058D01*
X010970Y008016D01*
X010970Y007954D01*
X010928Y007912D01*
X010239Y008472D02*
X010313Y008398D01*
X010067Y008398D01*
X009895Y008570D01*
X009895Y008816D01*
X010067Y008988D01*
X010313Y008988D01*
X010485Y008816D01*
X010485Y008570D01*
X010313Y008398D01*
X010267Y008509D01*
X010113Y008509D01*
X010006Y008616D01*
X010006Y008770D01*
X010113Y008877D01*
X010267Y008877D01*
X010374Y008770D01*
X010374Y008616D01*
X010267Y008509D01*
X010221Y008620D01*
X010159Y008620D01*
X010117Y008662D01*
X010117Y008724D01*
X010159Y008766D01*
X010221Y008766D01*
X010263Y008724D01*
X010263Y008662D01*
X010221Y008620D01*
X003944Y008644D02*
X003870Y008570D01*
X003870Y008816D01*
X004042Y008988D01*
X004288Y008988D01*
X004460Y008816D01*
X004460Y008570D01*
X004288Y008398D01*
X004042Y008398D01*
X003870Y008570D01*
X003981Y008616D01*
X003981Y008770D01*
X004088Y008877D01*
X004242Y008877D01*
X004349Y008770D01*
X004349Y008616D01*
X004242Y008509D01*
X004088Y008509D01*
X003981Y008616D01*
X004092Y008662D01*
X004092Y008724D01*
X004134Y008766D01*
X004196Y008766D01*
X004238Y008724D01*
X004238Y008662D01*
X004196Y008620D01*
X004134Y008620D01*
X004092Y008662D01*
X003237Y007936D02*
X003163Y007862D01*
X003163Y008108D01*
X003335Y008280D01*
X003581Y008280D01*
X003753Y008108D01*
X003753Y007862D01*
X003581Y007690D01*
X003335Y007690D01*
X003163Y007862D01*
X003274Y007908D01*
X003274Y008062D01*
X003381Y008169D01*
X003535Y008169D01*
X003642Y008062D01*
X003642Y007908D01*
X003535Y007801D01*
X003381Y007801D01*
X003274Y007908D01*
X003385Y007954D01*
X003385Y008016D01*
X003427Y008058D01*
X003489Y008058D01*
X003531Y008016D01*
X003531Y007954D01*
X003489Y007912D01*
X003427Y007912D01*
X003385Y007954D01*
X003409Y002693D02*
X003335Y002767D01*
X003581Y002767D01*
X003753Y002595D01*
X003753Y002349D01*
X003581Y002177D01*
X003335Y002177D01*
X003163Y002349D01*
X003163Y002595D01*
X003335Y002767D01*
X003381Y002656D01*
X003535Y002656D01*
X003642Y002549D01*
X003642Y002395D01*
X003535Y002288D01*
X003381Y002288D01*
X003274Y002395D01*
X003274Y002549D01*
X003381Y002656D01*
X003427Y002545D01*
X003489Y002545D01*
X003531Y002503D01*
X003531Y002441D01*
X003489Y002399D01*
X003427Y002399D01*
X003385Y002441D01*
X003385Y002503D01*
X003427Y002545D01*
X004116Y001986D02*
X004042Y002060D01*
X004288Y002060D01*
X004460Y001888D01*
X004460Y001642D01*
X004288Y001470D01*
X004042Y001470D01*
X003870Y001642D01*
X003870Y001888D01*
X004042Y002060D01*
X004088Y001949D01*
X004242Y001949D01*
X004349Y001842D01*
X004349Y001688D01*
X004242Y001581D01*
X004088Y001581D01*
X003981Y001688D01*
X003981Y001842D01*
X004088Y001949D01*
X004134Y001838D01*
X004196Y001838D01*
X004238Y001796D01*
X004238Y001734D01*
X004196Y001692D01*
X004134Y001692D01*
X004092Y001734D01*
X004092Y001796D01*
X004134Y001838D01*
X010411Y001814D02*
X010485Y001888D01*
X010485Y001642D01*
X010313Y001470D01*
X010067Y001470D01*
X009895Y001642D01*
X009895Y001888D01*
X010067Y002060D01*
X010313Y002060D01*
X010485Y001888D01*
X010374Y001842D01*
X010374Y001688D01*
X010267Y001581D01*
X010113Y001581D01*
X010006Y001688D01*
X010006Y001842D01*
X010113Y001949D01*
X010267Y001949D01*
X010374Y001842D01*
X010263Y001796D01*
X010263Y001734D01*
X010221Y001692D01*
X010159Y001692D01*
X010117Y001734D01*
X010117Y001796D01*
X010159Y001838D01*
X010221Y001838D01*
X010263Y001796D01*
X011118Y002521D02*
X011192Y002595D01*
X011192Y002349D01*
X011020Y002177D01*
X010774Y002177D01*
X010602Y002349D01*
X010602Y002595D01*
X010774Y002767D01*
X011020Y002767D01*
X011192Y002595D01*
X011081Y002549D01*
X011081Y002395D01*
X010974Y002288D01*
X010820Y002288D01*
X010713Y002395D01*
X010713Y002549D01*
X010820Y002656D01*
X010974Y002656D01*
X011081Y002549D01*
X010970Y002503D01*
X010970Y002441D01*
X010928Y002399D01*
X010866Y002399D01*
X010824Y002441D01*
X010824Y002503D01*
X010866Y002545D01*
X010928Y002545D01*
X010970Y002503D01*
D13*
X005307Y008693D03*
M02*
