%
M48
M72
T01C0.0118
T02C0.0320
T03C0.0394
T04C0.0400
T05C0.0787
%
T01
X5307Y8693
T02
X4165Y8693
X3458Y7985
X3458Y2472
X4165Y1765
X10190Y1765
X10897Y2472
X10897Y7985
X10190Y8693
T03
X9737Y11276
X10737Y11276
X11737Y11276
X12737Y11276
X13737Y8244
X13737Y7244
X13737Y6244
X13737Y5244
X13737Y4244
X13737Y3244
X13737Y2244
X8811Y5032
X6737Y11260
X7737Y11276
X8737Y11276
X5737Y11260
X4737Y11260
X3737Y11260
X2737Y11260
X1737Y11260
X737Y8244
X737Y7244
X737Y6244
X737Y5244
X737Y4244
X737Y3244
X737Y2260
T04
X5662Y5032
X7630Y5032
T05
X807Y827
X13603Y9634
M30
