G75*
G70*
%OFA0B0*%
%FSLAX24Y24*%
%IPPOS*%
%LPD*%
%AMOC8*
5,1,8,0,0,1.08239X$1,22.5*
%
%ADD10C,0.0000*%
%ADD11C,0.0080*%
%ADD12C,0.0030*%
%ADD13C,0.0010*%
%ADD14C,0.0060*%
%ADD15C,0.0050*%
%ADD16R,0.0338X0.0010*%
%ADD17R,0.0492X0.0010*%
%ADD18R,0.0605X0.0010*%
%ADD19R,0.0697X0.0010*%
%ADD20R,0.0779X0.0010*%
%ADD21R,0.0851X0.0010*%
%ADD22R,0.0923X0.0010*%
%ADD23R,0.0984X0.0010*%
%ADD24R,0.1046X0.0010*%
%ADD25R,0.1107X0.0010*%
%ADD26R,0.1148X0.0010*%
%ADD27R,0.1210X0.0010*%
%ADD28R,0.1251X0.0010*%
%ADD29R,0.1292X0.0010*%
%ADD30R,0.1333X0.0010*%
%ADD31R,0.0625X0.0010*%
%ADD32R,0.0646X0.0010*%
%ADD33R,0.0523X0.0010*%
%ADD34R,0.0543X0.0010*%
%ADD35R,0.0482X0.0010*%
%ADD36R,0.0492X0.0010*%
%ADD37R,0.0451X0.0010*%
%ADD38R,0.0461X0.0010*%
%ADD39R,0.0431X0.0010*%
%ADD40R,0.0441X0.0010*%
%ADD41R,0.0410X0.0010*%
%ADD42R,0.0420X0.0010*%
%ADD43R,0.0400X0.0010*%
%ADD44R,0.0379X0.0010*%
%ADD45R,0.0390X0.0010*%
%ADD46R,0.0369X0.0010*%
%ADD47R,0.0379X0.0010*%
%ADD48R,0.0359X0.0010*%
%ADD49R,0.0349X0.0010*%
%ADD50R,0.0349X0.0010*%
%ADD51R,0.0338X0.0010*%
%ADD52R,0.0328X0.0010*%
%ADD53R,0.0318X0.0010*%
%ADD54R,0.0318X0.0010*%
%ADD55R,0.0308X0.0010*%
%ADD56R,0.0308X0.0010*%
%ADD57R,0.0297X0.0010*%
%ADD58R,0.0287X0.0010*%
%ADD59R,0.0287X0.0010*%
%ADD60R,0.0287X0.0010*%
%ADD61R,0.0277X0.0010*%
%ADD62R,0.0277X0.0010*%
%ADD63R,0.0267X0.0010*%
%ADD64R,0.0267X0.0010*%
%ADD65R,0.0256X0.0010*%
%ADD66R,0.0256X0.0010*%
%ADD67R,0.0246X0.0010*%
%ADD68R,0.0246X0.0010*%
%ADD69R,0.0256X0.0010*%
%ADD70R,0.0236X0.0010*%
%ADD71R,0.0092X0.0010*%
%ADD72R,0.0236X0.0010*%
%ADD73R,0.0236X0.0010*%
%ADD74R,0.0533X0.0010*%
%ADD75R,0.0236X0.0010*%
%ADD76R,0.0677X0.0010*%
%ADD77R,0.0748X0.0010*%
%ADD78R,0.0226X0.0010*%
%ADD79R,0.0800X0.0010*%
%ADD80R,0.0851X0.0010*%
%ADD81R,0.0226X0.0010*%
%ADD82R,0.0902X0.0010*%
%ADD83R,0.0954X0.0010*%
%ADD84R,0.0215X0.0010*%
%ADD85R,0.0995X0.0010*%
%ADD86R,0.0215X0.0010*%
%ADD87R,0.1036X0.0010*%
%ADD88R,0.1076X0.0010*%
%ADD89R,0.0226X0.0010*%
%ADD90R,0.1118X0.0010*%
%ADD91R,0.0215X0.0010*%
%ADD92R,0.0533X0.0010*%
%ADD93R,0.0543X0.0010*%
%ADD94R,0.0441X0.0010*%
%ADD95R,0.0205X0.0010*%
%ADD96R,0.0400X0.0010*%
%ADD97R,0.0410X0.0010*%
%ADD98R,0.0205X0.0010*%
%ADD99R,0.0359X0.0010*%
%ADD100R,0.0195X0.0010*%
%ADD101R,0.0195X0.0010*%
%ADD102R,0.0328X0.0010*%
%ADD103R,0.0328X0.0010*%
%ADD104R,0.0185X0.0010*%
%ADD105R,0.0185X0.0010*%
%ADD106R,0.0174X0.0010*%
%ADD107R,0.0164X0.0010*%
%ADD108R,0.0144X0.0010*%
%ADD109R,0.0287X0.0010*%
%ADD110R,0.0154X0.0010*%
%ADD111R,0.0123X0.0010*%
%ADD112R,0.0277X0.0010*%
%ADD113R,0.0103X0.0010*%
%ADD114R,0.0267X0.0010*%
%ADD115R,0.0061X0.0010*%
%ADD116R,0.0072X0.0010*%
%ADD117R,0.0226X0.0010*%
%ADD118R,0.0195X0.0010*%
%ADD119R,0.0185X0.0010*%
%ADD120R,0.0144X0.0010*%
%ADD121R,0.0123X0.0010*%
%ADD122R,0.0533X0.0010*%
%ADD123R,0.0133X0.0010*%
%ADD124R,0.0113X0.0010*%
%ADD125R,0.0574X0.0010*%
%ADD126R,0.0092X0.0010*%
%ADD127R,0.0605X0.0010*%
%ADD128R,0.0092X0.0010*%
%ADD129R,0.0062X0.0010*%
%ADD130R,0.0646X0.0010*%
%ADD131R,0.0707X0.0010*%
%ADD132R,0.0728X0.0010*%
%ADD133R,0.0769X0.0010*%
%ADD134R,0.0789X0.0010*%
%ADD135R,0.0369X0.0010*%
%ADD136R,0.0256X0.0010*%
%ADD137R,0.0205X0.0010*%
%ADD138R,0.0164X0.0010*%
%ADD139R,0.0144X0.0010*%
%ADD140R,0.0082X0.0010*%
%ADD141R,0.0092X0.0010*%
%ADD142R,0.0072X0.0010*%
%ADD143R,0.0103X0.0010*%
%ADD144R,0.0113X0.0010*%
%ADD145R,0.0031X0.0010*%
%ADD146R,0.0133X0.0010*%
%ADD147R,0.0441X0.0010*%
%ADD148R,0.0144X0.0010*%
%ADD149R,0.0133X0.0010*%
%ADD150R,0.0472X0.0010*%
%ADD151R,0.0502X0.0010*%
%ADD152R,0.0533X0.0010*%
%ADD153R,0.0174X0.0010*%
%ADD154R,0.0174X0.0010*%
%ADD155R,0.0154X0.0010*%
%ADD156R,0.0164X0.0010*%
%ADD157R,0.0174X0.0010*%
%ADD158R,0.0020X0.0010*%
%ADD159R,0.0113X0.0010*%
%ADD160R,0.0502X0.0010*%
%ADD161R,0.0513X0.0010*%
%ADD162R,0.0523X0.0010*%
%ADD163R,0.0103X0.0010*%
%ADD164R,0.0113X0.0010*%
%ADD165R,0.0625X0.0010*%
%ADD166R,0.0103X0.0010*%
%ADD167R,0.0154X0.0010*%
%ADD168R,0.0082X0.0010*%
%ADD169R,0.0051X0.0010*%
%ADD170R,0.0595X0.0010*%
%ADD171R,0.0615X0.0010*%
%ADD172R,0.0636X0.0010*%
%ADD173R,0.0656X0.0010*%
%ADD174R,0.0154X0.0010*%
%ADD175R,0.0656X0.0010*%
%ADD176R,0.0185X0.0010*%
%ADD177R,0.0636X0.0010*%
%ADD178R,0.0082X0.0010*%
%ADD179R,0.0574X0.0010*%
%ADD180R,0.0205X0.0010*%
%ADD181R,0.0800X0.0010*%
%ADD182R,0.0769X0.0010*%
%ADD183R,0.0748X0.0010*%
%ADD184R,0.0718X0.0010*%
%ADD185R,0.0687X0.0010*%
%ADD186R,0.0656X0.0010*%
%ADD187R,0.0041X0.0010*%
%ADD188R,0.0584X0.0010*%
%ADD189R,0.0554X0.0010*%
%ADD190R,0.0461X0.0010*%
%ADD191R,0.0349X0.0010*%
%ADD192R,0.0267X0.0010*%
%ADD193R,0.0297X0.0010*%
%ADD194R,0.0482X0.0010*%
%ADD195R,0.0215X0.0010*%
%ADD196R,0.1128X0.0010*%
%ADD197R,0.1087X0.0010*%
%ADD198R,0.1005X0.0010*%
%ADD199R,0.0964X0.0010*%
%ADD200R,0.0923X0.0010*%
%ADD201R,0.0871X0.0010*%
%ADD202R,0.0820X0.0010*%
%ADD203R,0.0759X0.0010*%
%ADD204R,0.0554X0.0010*%
%ADD205R,0.0472X0.0010*%
%ADD206R,0.0359X0.0010*%
%ADD207R,0.0379X0.0010*%
%ADD208R,0.0431X0.0010*%
%ADD209R,0.0451X0.0010*%
%ADD210R,0.0472X0.0010*%
%ADD211R,0.0513X0.0010*%
%ADD212R,0.1353X0.0010*%
%ADD213R,0.1312X0.0010*%
%ADD214R,0.1271X0.0010*%
%ADD215R,0.1220X0.0010*%
%ADD216R,0.1169X0.0010*%
%ADD217R,0.1118X0.0010*%
%ADD218R,0.1066X0.0010*%
%ADD219R,0.0943X0.0010*%
%ADD220R,0.0882X0.0010*%
%ADD221R,0.0810X0.0010*%
%ADD222R,0.0728X0.0010*%
%ADD223C,0.0040*%
D10*
X000150Y000150D02*
X014323Y000150D01*
X014323Y011882D01*
X000150Y011882D01*
X000150Y000150D01*
X000413Y000827D02*
X000415Y000866D01*
X000421Y000905D01*
X000431Y000943D01*
X000444Y000980D01*
X000461Y001015D01*
X000481Y001049D01*
X000505Y001080D01*
X000532Y001109D01*
X000561Y001135D01*
X000593Y001158D01*
X000627Y001178D01*
X000663Y001194D01*
X000700Y001206D01*
X000739Y001215D01*
X000778Y001220D01*
X000817Y001221D01*
X000856Y001218D01*
X000895Y001211D01*
X000932Y001200D01*
X000969Y001186D01*
X001004Y001168D01*
X001037Y001147D01*
X001068Y001122D01*
X001096Y001095D01*
X001121Y001065D01*
X001143Y001032D01*
X001162Y000998D01*
X001177Y000962D01*
X001189Y000924D01*
X001197Y000886D01*
X001201Y000847D01*
X001201Y000807D01*
X001197Y000768D01*
X001189Y000730D01*
X001177Y000692D01*
X001162Y000656D01*
X001143Y000622D01*
X001121Y000589D01*
X001096Y000559D01*
X001068Y000532D01*
X001037Y000507D01*
X001004Y000486D01*
X000969Y000468D01*
X000932Y000454D01*
X000895Y000443D01*
X000856Y000436D01*
X000817Y000433D01*
X000778Y000434D01*
X000739Y000439D01*
X000700Y000448D01*
X000663Y000460D01*
X000627Y000476D01*
X000593Y000496D01*
X000561Y000519D01*
X000532Y000545D01*
X000505Y000574D01*
X000481Y000605D01*
X000461Y000639D01*
X000444Y000674D01*
X000431Y000711D01*
X000421Y000749D01*
X000415Y000788D01*
X000413Y000827D01*
X013209Y009634D02*
X013211Y009673D01*
X013217Y009712D01*
X013227Y009750D01*
X013240Y009787D01*
X013257Y009822D01*
X013277Y009856D01*
X013301Y009887D01*
X013328Y009916D01*
X013357Y009942D01*
X013389Y009965D01*
X013423Y009985D01*
X013459Y010001D01*
X013496Y010013D01*
X013535Y010022D01*
X013574Y010027D01*
X013613Y010028D01*
X013652Y010025D01*
X013691Y010018D01*
X013728Y010007D01*
X013765Y009993D01*
X013800Y009975D01*
X013833Y009954D01*
X013864Y009929D01*
X013892Y009902D01*
X013917Y009872D01*
X013939Y009839D01*
X013958Y009805D01*
X013973Y009769D01*
X013985Y009731D01*
X013993Y009693D01*
X013997Y009654D01*
X013997Y009614D01*
X013993Y009575D01*
X013985Y009537D01*
X013973Y009499D01*
X013958Y009463D01*
X013939Y009429D01*
X013917Y009396D01*
X013892Y009366D01*
X013864Y009339D01*
X013833Y009314D01*
X013800Y009293D01*
X013765Y009275D01*
X013728Y009261D01*
X013691Y009250D01*
X013652Y009243D01*
X013613Y009240D01*
X013574Y009241D01*
X013535Y009246D01*
X013496Y009255D01*
X013459Y009267D01*
X013423Y009283D01*
X013389Y009303D01*
X013357Y009326D01*
X013328Y009352D01*
X013301Y009381D01*
X013277Y009412D01*
X013257Y009446D01*
X013240Y009481D01*
X013227Y009518D01*
X013217Y009556D01*
X013211Y009595D01*
X013209Y009634D01*
D11*
X011781Y008162D02*
X010720Y007102D01*
X009360Y004090D02*
X009360Y003770D01*
X009200Y003770D01*
X009146Y003823D01*
X009146Y003930D01*
X009200Y003983D01*
X009360Y003983D01*
X009007Y003770D02*
X008901Y003770D01*
X008954Y003770D02*
X008954Y004090D01*
X008901Y004090D01*
X008746Y003930D02*
X008692Y003983D01*
X008586Y003983D01*
X008532Y003930D01*
X008532Y003823D01*
X008586Y003770D01*
X008692Y003770D01*
X008746Y003876D02*
X008532Y003876D01*
X008394Y003770D02*
X008287Y003770D01*
X008340Y003770D02*
X008340Y003983D01*
X008287Y003983D01*
X008340Y004090D02*
X008340Y004143D01*
X008132Y003930D02*
X008132Y003770D01*
X008132Y003930D02*
X008079Y003983D01*
X007972Y003983D01*
X007918Y003930D01*
X007918Y004090D02*
X007918Y003770D01*
X007764Y003823D02*
X007764Y003876D01*
X007710Y003930D01*
X007604Y003930D01*
X007550Y003983D01*
X007550Y004036D01*
X007604Y004090D01*
X007710Y004090D01*
X007764Y004036D01*
X007764Y003823D02*
X007710Y003770D01*
X007604Y003770D01*
X007550Y003823D01*
X007027Y003876D02*
X006813Y003876D01*
X006813Y003823D02*
X006813Y003930D01*
X006867Y003983D01*
X006974Y003983D01*
X007027Y003930D01*
X007027Y003876D01*
X006974Y003770D02*
X006867Y003770D01*
X006813Y003823D01*
X006675Y003770D02*
X006621Y003823D01*
X006621Y004036D01*
X006568Y003983D02*
X006675Y003983D01*
X006413Y003930D02*
X006413Y003823D01*
X006360Y003770D01*
X006253Y003770D01*
X006200Y003823D01*
X006200Y003930D01*
X006253Y003983D01*
X006360Y003983D01*
X006413Y003930D01*
X006045Y003930D02*
X006045Y003770D01*
X005938Y003770D02*
X005938Y003930D01*
X005991Y003983D01*
X006045Y003930D01*
X005938Y003930D02*
X005885Y003983D01*
X005831Y003983D01*
X005831Y003770D01*
X005677Y003876D02*
X005463Y003876D01*
X005463Y003823D02*
X005463Y003930D01*
X005516Y003983D01*
X005623Y003983D01*
X005677Y003930D01*
X005677Y003876D01*
X005623Y003770D02*
X005516Y003770D01*
X005463Y003823D01*
X005308Y003770D02*
X005201Y003876D01*
X005255Y003876D02*
X005095Y003876D01*
X005095Y003770D02*
X005095Y004090D01*
X005255Y004090D01*
X005308Y004036D01*
X005308Y003930D01*
X005255Y003876D01*
X003635Y003356D02*
X002574Y002295D01*
X003635Y007102D02*
X002574Y008162D01*
X008746Y003930D02*
X008746Y003876D01*
X010720Y003356D02*
X011781Y002295D01*
D12*
X011959Y001044D02*
X012082Y001044D01*
X012144Y000982D01*
X012144Y000921D01*
X012082Y000859D01*
X012144Y000797D01*
X012144Y000735D01*
X012082Y000674D01*
X011959Y000674D01*
X011897Y000735D01*
X011776Y000674D02*
X011529Y000674D01*
X011529Y001044D01*
X011897Y000982D02*
X011959Y001044D01*
X012021Y000859D02*
X012082Y000859D01*
X008772Y000401D02*
X008525Y000401D01*
X008404Y000401D02*
X008281Y000525D01*
X008342Y000525D02*
X008157Y000525D01*
X008157Y000401D02*
X008157Y000772D01*
X008342Y000772D01*
X008404Y000710D01*
X008404Y000586D01*
X008342Y000525D01*
X008525Y000648D02*
X008649Y000772D01*
X008649Y000401D01*
X006371Y000401D02*
X006124Y000401D01*
X006371Y000648D01*
X006371Y000710D01*
X006309Y000772D01*
X006186Y000772D01*
X006124Y000710D01*
X006002Y000710D02*
X006002Y000586D01*
X005941Y000525D01*
X005756Y000525D01*
X005879Y000525D02*
X006002Y000401D01*
X005756Y000401D02*
X005756Y000772D01*
X005941Y000772D01*
X006002Y000710D01*
X006033Y003155D02*
X006129Y003251D01*
X006129Y003445D01*
X006230Y003300D02*
X006279Y003348D01*
X006376Y003348D01*
X006424Y003300D01*
X006424Y003251D01*
X006230Y003251D01*
X006230Y003203D02*
X006230Y003300D01*
X006230Y003203D02*
X006279Y003155D01*
X006376Y003155D01*
X006525Y003155D02*
X006525Y003348D01*
X006525Y003251D02*
X006622Y003348D01*
X006670Y003348D01*
X006771Y003300D02*
X006819Y003348D01*
X006964Y003348D01*
X007065Y003348D02*
X007114Y003348D01*
X007114Y003155D01*
X007162Y003155D02*
X007065Y003155D01*
X006964Y003203D02*
X006916Y003251D01*
X006819Y003251D01*
X006771Y003300D01*
X006771Y003155D02*
X006916Y003155D01*
X006964Y003203D01*
X007114Y003445D02*
X007114Y003493D01*
X007262Y003300D02*
X007262Y003203D01*
X007310Y003155D01*
X007407Y003155D01*
X007455Y003203D01*
X007455Y003300D01*
X007407Y003348D01*
X007310Y003348D01*
X007262Y003300D01*
X007556Y003348D02*
X007556Y003155D01*
X007556Y003348D02*
X007702Y003348D01*
X007750Y003300D01*
X007750Y003155D01*
X008146Y003155D02*
X008339Y003155D01*
X008242Y003155D02*
X008242Y003445D01*
X008146Y003348D01*
X008440Y003203D02*
X008489Y003203D01*
X008489Y003155D01*
X008440Y003155D01*
X008440Y003203D01*
X008588Y003203D02*
X008781Y003396D01*
X008781Y003203D01*
X008733Y003155D01*
X008636Y003155D01*
X008588Y003203D01*
X008588Y003396D01*
X008636Y003445D01*
X008733Y003445D01*
X008781Y003396D01*
X010716Y003787D02*
X010716Y004157D01*
X010901Y004157D01*
X010963Y004096D01*
X010963Y003972D01*
X010901Y003910D01*
X010716Y003910D01*
X010840Y003910D02*
X010963Y003787D01*
X011084Y003849D02*
X011146Y003787D01*
X011270Y003787D01*
X011331Y003849D01*
X011331Y003972D01*
X011270Y004034D01*
X011208Y004034D01*
X011084Y003972D01*
X011084Y004157D01*
X011331Y004157D01*
X011439Y005322D02*
X011686Y005322D01*
X011562Y005322D02*
X011562Y005693D01*
X011439Y005569D01*
X011317Y005693D02*
X011071Y005693D01*
X011194Y005693D02*
X011194Y005322D01*
X008418Y007358D02*
X008171Y007358D01*
X008356Y007543D01*
X008356Y007173D01*
X008050Y007173D02*
X007926Y007296D01*
X007988Y007296D02*
X008050Y007358D01*
X008050Y007481D01*
X007988Y007543D01*
X007803Y007543D01*
X007803Y007173D01*
X007803Y007296D02*
X007988Y007296D01*
X007318Y006240D02*
X007173Y006240D01*
X007173Y005950D01*
X007173Y006047D02*
X007318Y006047D01*
X007367Y006095D01*
X007367Y006192D01*
X007318Y006240D01*
X007468Y006095D02*
X007516Y006143D01*
X007613Y006143D01*
X007661Y006095D01*
X007661Y006047D01*
X007468Y006047D01*
X007468Y006095D02*
X007468Y005998D01*
X007516Y005950D01*
X007613Y005950D01*
X007763Y005998D02*
X007811Y005950D01*
X007956Y005950D01*
X007763Y005998D02*
X007763Y006095D01*
X007811Y006143D01*
X007956Y006143D01*
X008057Y006143D02*
X008154Y005950D01*
X008251Y006143D01*
X007367Y005950D02*
X007270Y006047D01*
X006777Y006095D02*
X006729Y006047D01*
X006584Y006047D01*
X006681Y006047D02*
X006777Y005950D01*
X006777Y006095D02*
X006777Y006192D01*
X006729Y006240D01*
X006584Y006240D01*
X006584Y005950D01*
X006484Y005950D02*
X006388Y005950D01*
X006436Y005950D02*
X006436Y006240D01*
X006388Y006240D02*
X006484Y006240D01*
X006501Y007173D02*
X006439Y007235D01*
X006501Y007173D02*
X006624Y007173D01*
X006686Y007235D01*
X006686Y007296D01*
X006624Y007358D01*
X006562Y007358D01*
X006624Y007358D02*
X006686Y007420D01*
X006686Y007481D01*
X006624Y007543D01*
X006501Y007543D01*
X006439Y007481D01*
X006317Y007481D02*
X006317Y007358D01*
X006256Y007296D01*
X006071Y007296D01*
X006194Y007296D02*
X006317Y007173D01*
X006071Y007173D02*
X006071Y007543D01*
X006256Y007543D01*
X006317Y007481D01*
X005921Y009051D02*
X005921Y009244D01*
X005921Y009147D02*
X005631Y009147D01*
X005631Y009345D02*
X005631Y009539D01*
X005921Y009539D01*
X005921Y009345D01*
X005776Y009442D02*
X005776Y009539D01*
X005728Y009640D02*
X005679Y009640D01*
X005631Y009688D01*
X005631Y009785D01*
X005679Y009834D01*
X005776Y009785D02*
X005776Y009688D01*
X005728Y009640D01*
X005873Y009640D02*
X005921Y009688D01*
X005921Y009785D01*
X005873Y009834D01*
X005824Y009834D01*
X005776Y009785D01*
X005631Y009935D02*
X005631Y010128D01*
X005921Y010128D01*
X005921Y009935D01*
X005776Y010031D02*
X005776Y010128D01*
X005776Y010229D02*
X005728Y010278D01*
X005728Y010423D01*
X005728Y010326D02*
X005631Y010229D01*
X005776Y010229D02*
X005873Y010229D01*
X005921Y010278D01*
X005921Y010423D01*
X005631Y010423D01*
X004961Y010369D02*
X004961Y010246D01*
X004900Y010184D01*
X004838Y010184D01*
X004776Y010246D01*
X004714Y010184D01*
X004653Y010184D01*
X004591Y010246D01*
X004591Y010369D01*
X004653Y010431D01*
X004776Y010307D02*
X004776Y010246D01*
X004900Y010431D02*
X004961Y010369D01*
X004653Y010062D02*
X004591Y010062D01*
X004591Y010001D01*
X004653Y010001D01*
X004653Y010062D01*
X004653Y009878D02*
X004591Y009817D01*
X004591Y009693D01*
X004653Y009631D01*
X004714Y009631D01*
X004776Y009693D01*
X004776Y009755D01*
X004776Y009693D02*
X004838Y009631D01*
X004900Y009631D01*
X004961Y009693D01*
X004961Y009817D01*
X004900Y009878D01*
X004961Y009510D02*
X004714Y009510D01*
X004591Y009387D01*
X004714Y009263D01*
X004961Y009263D01*
X006423Y010016D02*
X006670Y010016D01*
X006546Y010016D02*
X006546Y010386D01*
X006423Y010263D01*
X006791Y010325D02*
X006853Y010386D01*
X006976Y010386D01*
X007038Y010325D01*
X007038Y010263D01*
X006976Y010201D01*
X007038Y010140D01*
X007038Y010078D01*
X006976Y010016D01*
X006853Y010016D01*
X006791Y010078D01*
X006914Y010201D02*
X006976Y010201D01*
X007423Y010263D02*
X007546Y010386D01*
X007546Y010016D01*
X007423Y010016D02*
X007670Y010016D01*
X007791Y010016D02*
X008038Y010263D01*
X008038Y010325D01*
X007976Y010386D01*
X007853Y010386D01*
X007791Y010325D01*
X007791Y010016D02*
X008038Y010016D01*
X008423Y010016D02*
X008670Y010016D01*
X008791Y010016D02*
X009038Y010016D01*
X008914Y010016D02*
X008914Y010386D01*
X008791Y010263D01*
X008546Y010386D02*
X008546Y010016D01*
X008423Y010263D02*
X008546Y010386D01*
X009423Y010263D02*
X009546Y010386D01*
X009546Y010016D01*
X009423Y010016D02*
X009670Y010016D01*
X009791Y010078D02*
X010038Y010325D01*
X010038Y010078D01*
X009976Y010016D01*
X009853Y010016D01*
X009791Y010078D01*
X009791Y010325D01*
X009853Y010386D01*
X009976Y010386D01*
X010038Y010325D01*
X011962Y009075D02*
X011962Y008705D01*
X012209Y008705D01*
X012330Y008705D02*
X012577Y008952D01*
X012577Y009014D01*
X012516Y009075D01*
X012392Y009075D01*
X012330Y009014D01*
X012330Y008705D02*
X012577Y008705D01*
X005936Y003445D02*
X005936Y003251D01*
X006033Y003155D01*
X002932Y000898D02*
X002685Y000898D01*
X002870Y001083D01*
X002870Y000713D01*
X002563Y000713D02*
X002316Y000713D01*
X002316Y001083D01*
X002327Y009020D02*
X002080Y009020D01*
X002080Y009390D01*
X002448Y009267D02*
X002572Y009390D01*
X002572Y009020D01*
X002695Y009020D02*
X002448Y009020D01*
D13*
X003633Y007057D02*
X003646Y007146D01*
X003646Y007145D02*
X003713Y007138D01*
X003782Y007134D01*
X003850Y007135D01*
X003918Y007139D01*
X003986Y007147D01*
X004053Y007159D01*
X004120Y007174D01*
X004185Y007194D01*
X004249Y007217D01*
X004312Y007243D01*
X004374Y007273D01*
X004433Y007307D01*
X004490Y007344D01*
X004546Y007384D01*
X004599Y007427D01*
X004649Y007473D01*
X004697Y007522D01*
X004742Y007574D01*
X004784Y007628D01*
X004822Y007684D01*
X004858Y007742D01*
X004890Y007802D01*
X004919Y007864D01*
X004944Y007928D01*
X004965Y007993D01*
X004983Y008059D01*
X004997Y008125D01*
X005007Y008193D01*
X005013Y008261D01*
X005016Y008329D01*
X005015Y008397D01*
X005009Y008466D01*
X005000Y008533D01*
X004987Y008600D01*
X004971Y008667D01*
X004950Y008732D01*
X004926Y008796D01*
X004898Y008858D01*
X004867Y008919D01*
X004833Y008978D01*
X004795Y009035D01*
X004754Y009089D01*
X004710Y009141D01*
X004663Y009191D01*
X004613Y009238D01*
X004561Y009282D01*
X004507Y009323D01*
X004450Y009361D01*
X004391Y009395D01*
X004330Y009426D01*
X004268Y009454D01*
X004204Y009478D01*
X004139Y009499D01*
X004072Y009515D01*
X004005Y009528D01*
X003938Y009537D01*
X003869Y009543D01*
X003801Y009544D01*
X003733Y009541D01*
X003665Y009535D01*
X003597Y009525D01*
X003531Y009511D01*
X003465Y009493D01*
X003400Y009472D01*
X003336Y009447D01*
X003274Y009418D01*
X003214Y009386D01*
X003156Y009350D01*
X003100Y009312D01*
X003046Y009270D01*
X002994Y009225D01*
X002945Y009177D01*
X002899Y009127D01*
X002856Y009074D01*
X002816Y009018D01*
X002779Y008961D01*
X002745Y008902D01*
X002715Y008840D01*
X002689Y008777D01*
X002666Y008713D01*
X002646Y008648D01*
X002631Y008581D01*
X002619Y008514D01*
X002611Y008446D01*
X002607Y008378D01*
X002606Y008310D01*
X002610Y008241D01*
X002617Y008174D01*
X002529Y008161D01*
X002528Y008161D01*
X002520Y008231D01*
X002517Y008302D01*
X002516Y008373D01*
X002520Y008444D01*
X002528Y008515D01*
X002540Y008585D01*
X002555Y008654D01*
X002574Y008722D01*
X002597Y008790D01*
X002623Y008855D01*
X002653Y008920D01*
X002687Y008982D01*
X002724Y009043D01*
X002764Y009101D01*
X002808Y009158D01*
X002854Y009211D01*
X002903Y009262D01*
X002955Y009311D01*
X003010Y009356D01*
X003067Y009399D01*
X003126Y009438D01*
X003187Y009474D01*
X003250Y009506D01*
X003315Y009535D01*
X003381Y009561D01*
X003449Y009582D01*
X003517Y009600D01*
X003587Y009614D01*
X003657Y009625D01*
X003728Y009631D01*
X003799Y009634D01*
X003870Y009633D01*
X003941Y009628D01*
X004011Y009618D01*
X004081Y009606D01*
X004150Y009589D01*
X004218Y009568D01*
X004284Y009544D01*
X004350Y009517D01*
X004413Y009485D01*
X004475Y009451D01*
X004535Y009413D01*
X004593Y009371D01*
X004648Y009327D01*
X004701Y009279D01*
X004751Y009229D01*
X004799Y009176D01*
X004843Y009121D01*
X004885Y009063D01*
X004923Y009003D01*
X004957Y008941D01*
X004989Y008878D01*
X005016Y008812D01*
X005040Y008746D01*
X005061Y008678D01*
X005078Y008609D01*
X005090Y008539D01*
X005100Y008469D01*
X005105Y008398D01*
X005106Y008327D01*
X005103Y008256D01*
X005097Y008185D01*
X005086Y008115D01*
X005072Y008045D01*
X005054Y007977D01*
X005033Y007909D01*
X005007Y007843D01*
X004978Y007778D01*
X004946Y007715D01*
X004910Y007654D01*
X004871Y007595D01*
X004828Y007538D01*
X004783Y007483D01*
X004734Y007431D01*
X004683Y007382D01*
X004630Y007336D01*
X004573Y007292D01*
X004515Y007252D01*
X004454Y007215D01*
X004392Y007181D01*
X004327Y007151D01*
X004262Y007125D01*
X004194Y007102D01*
X004126Y007083D01*
X004057Y007068D01*
X003987Y007056D01*
X003916Y007048D01*
X003845Y007044D01*
X003774Y007045D01*
X003703Y007048D01*
X003633Y007056D01*
X003634Y007065D01*
X003705Y007057D01*
X003776Y007053D01*
X003847Y007054D01*
X003919Y007058D01*
X003989Y007065D01*
X004060Y007077D01*
X004129Y007093D01*
X004198Y007113D01*
X004265Y007136D01*
X004331Y007163D01*
X004395Y007193D01*
X004458Y007228D01*
X004518Y007265D01*
X004577Y007306D01*
X004633Y007350D01*
X004686Y007397D01*
X004737Y007447D01*
X004785Y007500D01*
X004830Y007555D01*
X004872Y007613D01*
X004911Y007672D01*
X004946Y007734D01*
X004978Y007798D01*
X005006Y007864D01*
X005030Y007931D01*
X005051Y007999D01*
X005068Y008068D01*
X005081Y008138D01*
X005090Y008209D01*
X005096Y008280D01*
X005097Y008351D01*
X005094Y008422D01*
X005088Y008493D01*
X005077Y008564D01*
X005063Y008634D01*
X005045Y008702D01*
X005023Y008770D01*
X004997Y008837D01*
X004967Y008902D01*
X004934Y008965D01*
X004898Y009026D01*
X004858Y009085D01*
X004815Y009142D01*
X004769Y009197D01*
X004720Y009248D01*
X004669Y009297D01*
X004614Y009343D01*
X004557Y009386D01*
X004498Y009426D01*
X004437Y009462D01*
X004374Y009495D01*
X004309Y009525D01*
X004242Y009551D01*
X004174Y009573D01*
X004106Y009591D01*
X004036Y009605D01*
X003965Y009616D01*
X003894Y009622D01*
X003823Y009625D01*
X003752Y009624D01*
X003681Y009618D01*
X003610Y009609D01*
X003540Y009596D01*
X003471Y009579D01*
X003403Y009558D01*
X003336Y009534D01*
X003270Y009506D01*
X003206Y009474D01*
X003144Y009439D01*
X003085Y009400D01*
X003027Y009358D01*
X002972Y009313D01*
X002919Y009265D01*
X002869Y009214D01*
X002822Y009161D01*
X002778Y009105D01*
X002737Y009046D01*
X002700Y008986D01*
X002665Y008923D01*
X002635Y008859D01*
X002608Y008793D01*
X002585Y008726D01*
X002565Y008657D01*
X002549Y008588D01*
X002537Y008517D01*
X002530Y008447D01*
X002526Y008375D01*
X002525Y008304D01*
X002529Y008233D01*
X002537Y008162D01*
X002546Y008163D01*
X002538Y008234D01*
X002534Y008304D01*
X002535Y008375D01*
X002538Y008446D01*
X002546Y008516D01*
X002558Y008586D01*
X002574Y008655D01*
X002593Y008723D01*
X002616Y008790D01*
X002643Y008855D01*
X002673Y008919D01*
X002707Y008981D01*
X002745Y009042D01*
X002785Y009100D01*
X002829Y009155D01*
X002876Y009208D01*
X002925Y009259D01*
X002978Y009307D01*
X003032Y009351D01*
X003090Y009393D01*
X003149Y009431D01*
X003211Y009466D01*
X003274Y009498D01*
X003339Y009526D01*
X003406Y009550D01*
X003473Y009571D01*
X003542Y009587D01*
X003612Y009600D01*
X003682Y009609D01*
X003752Y009615D01*
X003823Y009616D01*
X003894Y009613D01*
X003964Y009607D01*
X004034Y009596D01*
X004104Y009582D01*
X004172Y009564D01*
X004239Y009542D01*
X004305Y009516D01*
X004370Y009487D01*
X004432Y009455D01*
X004493Y009418D01*
X004552Y009379D01*
X004609Y009336D01*
X004663Y009291D01*
X004714Y009242D01*
X004763Y009191D01*
X004808Y009137D01*
X004851Y009080D01*
X004890Y009021D01*
X004927Y008960D01*
X004959Y008898D01*
X004988Y008833D01*
X005014Y008767D01*
X005036Y008700D01*
X005054Y008632D01*
X005068Y008562D01*
X005079Y008492D01*
X005085Y008422D01*
X005088Y008351D01*
X005087Y008280D01*
X005081Y008210D01*
X005072Y008140D01*
X005059Y008070D01*
X005043Y008001D01*
X005022Y007934D01*
X004998Y007867D01*
X004970Y007802D01*
X004938Y007739D01*
X004903Y007677D01*
X004865Y007618D01*
X004823Y007560D01*
X004779Y007506D01*
X004731Y007453D01*
X004680Y007404D01*
X004627Y007357D01*
X004572Y007313D01*
X004514Y007273D01*
X004453Y007235D01*
X004391Y007201D01*
X004327Y007171D01*
X004262Y007144D01*
X004195Y007121D01*
X004127Y007102D01*
X004058Y007086D01*
X003988Y007074D01*
X003918Y007066D01*
X003847Y007063D01*
X003776Y007062D01*
X003706Y007066D01*
X003635Y007074D01*
X003637Y007083D01*
X003707Y007075D01*
X003778Y007071D01*
X003849Y007072D01*
X003920Y007076D01*
X003991Y007084D01*
X004061Y007096D01*
X004130Y007112D01*
X004198Y007132D01*
X004265Y007155D01*
X004331Y007183D01*
X004395Y007213D01*
X004457Y007248D01*
X004517Y007286D01*
X004575Y007327D01*
X004631Y007371D01*
X004683Y007419D01*
X004734Y007469D01*
X004781Y007522D01*
X004825Y007578D01*
X004866Y007636D01*
X004904Y007696D01*
X004938Y007758D01*
X004969Y007822D01*
X004996Y007888D01*
X005020Y007955D01*
X005039Y008023D01*
X005055Y008093D01*
X005067Y008163D01*
X005075Y008233D01*
X005079Y008304D01*
X005078Y008375D01*
X005074Y008446D01*
X005066Y008517D01*
X005055Y008587D01*
X005039Y008656D01*
X005019Y008725D01*
X004995Y008792D01*
X004968Y008857D01*
X004937Y008921D01*
X004903Y008983D01*
X004865Y009044D01*
X004824Y009102D01*
X004780Y009157D01*
X004732Y009210D01*
X004682Y009260D01*
X004629Y009308D01*
X004574Y009352D01*
X004516Y009393D01*
X004455Y009431D01*
X004393Y009465D01*
X004329Y009496D01*
X004264Y009523D01*
X004197Y009547D01*
X004128Y009567D01*
X004059Y009583D01*
X003989Y009594D01*
X003918Y009602D01*
X003847Y009606D01*
X003776Y009607D01*
X003705Y009603D01*
X003635Y009595D01*
X003565Y009583D01*
X003495Y009567D01*
X003427Y009548D01*
X003360Y009524D01*
X003294Y009497D01*
X003230Y009466D01*
X003168Y009432D01*
X003108Y009394D01*
X003050Y009353D01*
X002994Y009309D01*
X002941Y009262D01*
X002891Y009211D01*
X002843Y009159D01*
X002799Y009103D01*
X002758Y009045D01*
X002720Y008985D01*
X002685Y008923D01*
X002655Y008859D01*
X002627Y008793D01*
X002604Y008726D01*
X002584Y008658D01*
X002568Y008589D01*
X002556Y008519D01*
X002548Y008448D01*
X002544Y008377D01*
X002543Y008306D01*
X002547Y008235D01*
X002555Y008165D01*
X002564Y008166D01*
X002556Y008236D01*
X002552Y008306D01*
X002553Y008377D01*
X002557Y008447D01*
X002565Y008518D01*
X002577Y008587D01*
X002593Y008656D01*
X002612Y008724D01*
X002636Y008790D01*
X002663Y008855D01*
X002693Y008919D01*
X002728Y008981D01*
X002765Y009040D01*
X002806Y009098D01*
X002850Y009153D01*
X002897Y009205D01*
X002947Y009255D01*
X003000Y009302D01*
X003055Y009346D01*
X003113Y009387D01*
X003173Y009424D01*
X003234Y009458D01*
X003298Y009489D01*
X003363Y009516D01*
X003430Y009539D01*
X003498Y009558D01*
X003567Y009574D01*
X003636Y009586D01*
X003706Y009594D01*
X003777Y009598D01*
X003847Y009597D01*
X003918Y009593D01*
X003988Y009586D01*
X004057Y009574D01*
X004126Y009558D01*
X004194Y009538D01*
X004260Y009515D01*
X004326Y009488D01*
X004389Y009457D01*
X004451Y009423D01*
X004511Y009386D01*
X004568Y009345D01*
X004623Y009301D01*
X004676Y009254D01*
X004726Y009204D01*
X004773Y009151D01*
X004817Y009096D01*
X004858Y009039D01*
X004895Y008979D01*
X004929Y008917D01*
X004960Y008854D01*
X004987Y008788D01*
X005010Y008722D01*
X005030Y008654D01*
X005046Y008585D01*
X005058Y008516D01*
X005065Y008446D01*
X005069Y008375D01*
X005070Y008305D01*
X005066Y008234D01*
X005058Y008164D01*
X005046Y008095D01*
X005030Y008026D01*
X005011Y007958D01*
X004988Y007891D01*
X004961Y007826D01*
X004930Y007762D01*
X004896Y007701D01*
X004859Y007641D01*
X004818Y007583D01*
X004774Y007528D01*
X004727Y007475D01*
X004677Y007425D01*
X004625Y007378D01*
X004570Y007334D01*
X004512Y007293D01*
X004453Y007256D01*
X004391Y007221D01*
X004327Y007191D01*
X004262Y007164D01*
X004196Y007140D01*
X004128Y007121D01*
X004059Y007105D01*
X003990Y007093D01*
X003919Y007085D01*
X003849Y007081D01*
X003778Y007080D01*
X003708Y007084D01*
X003638Y007092D01*
X003639Y007101D01*
X003709Y007093D01*
X003779Y007089D01*
X003849Y007090D01*
X003919Y007094D01*
X003988Y007102D01*
X004057Y007114D01*
X004126Y007129D01*
X004193Y007149D01*
X004259Y007172D01*
X004324Y007199D01*
X004387Y007229D01*
X004448Y007263D01*
X004507Y007301D01*
X004564Y007341D01*
X004619Y007385D01*
X004671Y007432D01*
X004721Y007482D01*
X004767Y007534D01*
X004811Y007589D01*
X004851Y007646D01*
X004888Y007705D01*
X004922Y007767D01*
X004953Y007830D01*
X004979Y007894D01*
X005002Y007961D01*
X005022Y008028D01*
X005037Y008096D01*
X005049Y008165D01*
X005057Y008235D01*
X005061Y008305D01*
X005060Y008375D01*
X005057Y008445D01*
X005049Y008514D01*
X005037Y008584D01*
X005021Y008652D01*
X005002Y008719D01*
X004979Y008785D01*
X004952Y008850D01*
X004921Y008913D01*
X004887Y008974D01*
X004850Y009034D01*
X004810Y009091D01*
X004766Y009146D01*
X004719Y009198D01*
X004670Y009247D01*
X004618Y009294D01*
X004563Y009338D01*
X004506Y009378D01*
X004446Y009415D01*
X004385Y009449D01*
X004322Y009480D01*
X004257Y009507D01*
X004191Y009530D01*
X004124Y009549D01*
X004056Y009565D01*
X003986Y009577D01*
X003917Y009585D01*
X003847Y009588D01*
X003777Y009589D01*
X003707Y009585D01*
X003637Y009577D01*
X003568Y009565D01*
X003500Y009550D01*
X003433Y009530D01*
X003366Y009507D01*
X003302Y009481D01*
X003239Y009450D01*
X003177Y009416D01*
X003118Y009379D01*
X003061Y009339D01*
X003006Y009295D01*
X002954Y009249D01*
X002904Y009199D01*
X002857Y009147D01*
X002813Y009092D01*
X002773Y009035D01*
X002735Y008976D01*
X002701Y008915D01*
X002671Y008852D01*
X002644Y008787D01*
X002621Y008721D01*
X002601Y008654D01*
X002586Y008585D01*
X002574Y008516D01*
X002566Y008447D01*
X002562Y008377D01*
X002561Y008307D01*
X002565Y008237D01*
X002573Y008167D01*
X002582Y008168D01*
X002574Y008238D01*
X002570Y008307D01*
X002571Y008377D01*
X002575Y008446D01*
X002583Y008515D01*
X002594Y008584D01*
X002610Y008651D01*
X002629Y008718D01*
X002652Y008784D01*
X002679Y008848D01*
X002709Y008911D01*
X002743Y008971D01*
X002780Y009030D01*
X002821Y009087D01*
X002864Y009141D01*
X002911Y009193D01*
X002960Y009242D01*
X003012Y009288D01*
X003066Y009332D01*
X003123Y009372D01*
X003182Y009409D01*
X003243Y009442D01*
X003305Y009472D01*
X003370Y009499D01*
X003435Y009522D01*
X003502Y009541D01*
X003570Y009556D01*
X003639Y009568D01*
X003708Y009576D01*
X003777Y009580D01*
X003847Y009579D01*
X003916Y009576D01*
X003985Y009568D01*
X004054Y009556D01*
X004122Y009541D01*
X004188Y009521D01*
X004254Y009498D01*
X004318Y009472D01*
X004381Y009441D01*
X004442Y009408D01*
X004501Y009371D01*
X004557Y009330D01*
X004612Y009287D01*
X004664Y009241D01*
X004713Y009192D01*
X004759Y009140D01*
X004802Y009085D01*
X004843Y009029D01*
X004880Y008970D01*
X004913Y008909D01*
X004944Y008846D01*
X004970Y008782D01*
X004993Y008716D01*
X005013Y008650D01*
X005028Y008582D01*
X005040Y008513D01*
X005048Y008444D01*
X005051Y008375D01*
X005052Y008305D01*
X005048Y008236D01*
X005040Y008167D01*
X005028Y008098D01*
X005013Y008030D01*
X004994Y007963D01*
X004971Y007898D01*
X004944Y007833D01*
X004914Y007771D01*
X004881Y007710D01*
X004844Y007651D01*
X004804Y007594D01*
X004760Y007540D01*
X004714Y007488D01*
X004665Y007439D01*
X004613Y007392D01*
X004559Y007349D01*
X004502Y007308D01*
X004443Y007271D01*
X004383Y007237D01*
X004320Y007207D01*
X004256Y007180D01*
X004190Y007157D01*
X004123Y007138D01*
X004056Y007122D01*
X003987Y007111D01*
X003918Y007103D01*
X003849Y007099D01*
X003779Y007098D01*
X003710Y007102D01*
X003640Y007110D01*
X003642Y007119D01*
X003710Y007111D01*
X003779Y007107D01*
X003848Y007108D01*
X003917Y007112D01*
X003986Y007119D01*
X004054Y007131D01*
X004121Y007147D01*
X004187Y007166D01*
X004253Y007189D01*
X004316Y007215D01*
X004378Y007245D01*
X004439Y007279D01*
X004497Y007316D01*
X004553Y007356D01*
X004607Y007399D01*
X004659Y007445D01*
X004708Y007494D01*
X004753Y007546D01*
X004796Y007600D01*
X004836Y007656D01*
X004873Y007714D01*
X004906Y007775D01*
X004936Y007837D01*
X004962Y007901D01*
X004985Y007966D01*
X005004Y008032D01*
X005020Y008100D01*
X005031Y008168D01*
X005039Y008236D01*
X005043Y008305D01*
X005042Y008374D01*
X005039Y008443D01*
X005031Y008512D01*
X005019Y008580D01*
X005004Y008647D01*
X004985Y008714D01*
X004962Y008779D01*
X004935Y008843D01*
X004905Y008905D01*
X004872Y008965D01*
X004835Y009024D01*
X004795Y009080D01*
X004752Y009134D01*
X004706Y009185D01*
X004657Y009234D01*
X004606Y009280D01*
X004552Y009323D01*
X004496Y009363D01*
X004437Y009400D01*
X004377Y009433D01*
X004315Y009463D01*
X004251Y009490D01*
X004186Y009513D01*
X004119Y009532D01*
X004052Y009547D01*
X003984Y009559D01*
X003915Y009567D01*
X003846Y009570D01*
X003777Y009571D01*
X003708Y009567D01*
X003640Y009559D01*
X003572Y009548D01*
X003504Y009532D01*
X003438Y009513D01*
X003373Y009490D01*
X003309Y009464D01*
X003247Y009434D01*
X003186Y009401D01*
X003128Y009364D01*
X003072Y009324D01*
X003018Y009281D01*
X002966Y009236D01*
X002917Y009187D01*
X002871Y009135D01*
X002828Y009081D01*
X002788Y009025D01*
X002751Y008967D01*
X002717Y008906D01*
X002687Y008844D01*
X002661Y008781D01*
X002638Y008715D01*
X002619Y008649D01*
X002603Y008582D01*
X002591Y008514D01*
X002584Y008445D01*
X002580Y008376D01*
X002579Y008307D01*
X002583Y008238D01*
X002591Y008170D01*
X002600Y008171D01*
X002592Y008240D01*
X002588Y008309D01*
X002589Y008378D01*
X002593Y008448D01*
X002601Y008516D01*
X002613Y008585D01*
X002629Y008652D01*
X002648Y008719D01*
X002672Y008784D01*
X002699Y008848D01*
X002729Y008910D01*
X002764Y008970D01*
X002801Y009029D01*
X002842Y009085D01*
X002885Y009138D01*
X002932Y009190D01*
X002982Y009238D01*
X003034Y009284D01*
X003089Y009326D01*
X003146Y009365D01*
X003205Y009401D01*
X003266Y009434D01*
X003329Y009463D01*
X003394Y009489D01*
X003459Y009510D01*
X003526Y009528D01*
X003594Y009543D01*
X003663Y009553D01*
X003732Y009559D01*
X003801Y009562D01*
X003870Y009561D01*
X003939Y009555D01*
X004008Y009546D01*
X004076Y009533D01*
X004143Y009516D01*
X004210Y009495D01*
X004274Y009471D01*
X004338Y009443D01*
X004399Y009411D01*
X004459Y009376D01*
X004517Y009338D01*
X004572Y009296D01*
X004625Y009251D01*
X004676Y009204D01*
X004723Y009153D01*
X004768Y009100D01*
X004810Y009045D01*
X004848Y008987D01*
X004883Y008927D01*
X004915Y008866D01*
X004943Y008802D01*
X004967Y008738D01*
X004988Y008671D01*
X005005Y008604D01*
X005018Y008536D01*
X005027Y008467D01*
X005033Y008398D01*
X005034Y008329D01*
X005031Y008260D01*
X005025Y008191D01*
X005015Y008122D01*
X005000Y008054D01*
X004982Y007987D01*
X004961Y007922D01*
X004935Y007857D01*
X004906Y007794D01*
X004873Y007733D01*
X004837Y007674D01*
X004798Y007617D01*
X004756Y007562D01*
X004710Y007510D01*
X004662Y007460D01*
X004610Y007413D01*
X004557Y007370D01*
X004501Y007329D01*
X004442Y007292D01*
X004382Y007257D01*
X004320Y007227D01*
X004256Y007200D01*
X004191Y007176D01*
X004124Y007157D01*
X004057Y007141D01*
X003988Y007129D01*
X003920Y007121D01*
X003850Y007117D01*
X003781Y007116D01*
X003712Y007120D01*
X003643Y007128D01*
X003644Y007137D01*
X003713Y007129D01*
X003781Y007125D01*
X003850Y007126D01*
X003919Y007130D01*
X003987Y007138D01*
X004055Y007150D01*
X004122Y007165D01*
X004188Y007185D01*
X004253Y007208D01*
X004316Y007235D01*
X004378Y007265D01*
X004438Y007299D01*
X004496Y007336D01*
X004551Y007377D01*
X004605Y007420D01*
X004655Y007467D01*
X004703Y007516D01*
X004749Y007568D01*
X004791Y007622D01*
X004830Y007679D01*
X004866Y007738D01*
X004898Y007798D01*
X004927Y007861D01*
X004952Y007925D01*
X004974Y007990D01*
X004992Y008056D01*
X005006Y008124D01*
X005016Y008192D01*
X005022Y008260D01*
X005025Y008329D01*
X005024Y008398D01*
X005018Y008467D01*
X005009Y008535D01*
X004996Y008602D01*
X004979Y008669D01*
X004959Y008735D01*
X004934Y008799D01*
X004907Y008862D01*
X004875Y008923D01*
X004840Y008982D01*
X004802Y009040D01*
X004761Y009095D01*
X004717Y009147D01*
X004669Y009197D01*
X004619Y009245D01*
X004567Y009289D01*
X004512Y009330D01*
X004454Y009368D01*
X004395Y009403D01*
X004334Y009435D01*
X004271Y009462D01*
X004207Y009487D01*
X004141Y009507D01*
X004074Y009524D01*
X004007Y009537D01*
X003939Y009546D01*
X003870Y009552D01*
X003801Y009553D01*
X003732Y009550D01*
X003664Y009544D01*
X003596Y009534D01*
X003528Y009520D01*
X003462Y009502D01*
X003397Y009480D01*
X003333Y009455D01*
X003270Y009426D01*
X003210Y009394D01*
X003151Y009358D01*
X003094Y009319D01*
X003040Y009277D01*
X002988Y009231D01*
X002939Y009183D01*
X002892Y009133D01*
X002849Y009079D01*
X002808Y009024D01*
X002771Y008966D01*
X002737Y008906D01*
X002707Y008844D01*
X002680Y008781D01*
X002657Y008716D01*
X002637Y008650D01*
X002622Y008583D01*
X002610Y008515D01*
X002602Y008447D01*
X002598Y008378D01*
X002597Y008309D01*
X002601Y008241D01*
X002609Y008172D01*
X002529Y002297D02*
X002618Y002284D01*
X002617Y002284D02*
X002610Y002217D01*
X002606Y002148D01*
X002607Y002080D01*
X002611Y002012D01*
X002619Y001944D01*
X002631Y001877D01*
X002646Y001810D01*
X002666Y001745D01*
X002689Y001681D01*
X002715Y001618D01*
X002745Y001556D01*
X002779Y001497D01*
X002816Y001440D01*
X002856Y001384D01*
X002899Y001331D01*
X002945Y001281D01*
X002994Y001233D01*
X003046Y001188D01*
X003100Y001146D01*
X003156Y001108D01*
X003214Y001072D01*
X003274Y001040D01*
X003336Y001011D01*
X003400Y000986D01*
X003465Y000965D01*
X003531Y000947D01*
X003597Y000933D01*
X003665Y000923D01*
X003733Y000917D01*
X003801Y000914D01*
X003869Y000915D01*
X003938Y000921D01*
X004005Y000930D01*
X004072Y000943D01*
X004139Y000959D01*
X004204Y000980D01*
X004268Y001004D01*
X004330Y001032D01*
X004391Y001063D01*
X004450Y001097D01*
X004507Y001135D01*
X004561Y001176D01*
X004613Y001220D01*
X004663Y001267D01*
X004710Y001317D01*
X004754Y001369D01*
X004795Y001423D01*
X004833Y001480D01*
X004867Y001539D01*
X004898Y001600D01*
X004926Y001662D01*
X004950Y001726D01*
X004971Y001791D01*
X004987Y001858D01*
X005000Y001925D01*
X005009Y001992D01*
X005015Y002061D01*
X005016Y002129D01*
X005013Y002197D01*
X005007Y002265D01*
X004997Y002333D01*
X004983Y002399D01*
X004965Y002465D01*
X004944Y002530D01*
X004919Y002594D01*
X004890Y002656D01*
X004858Y002716D01*
X004822Y002774D01*
X004784Y002830D01*
X004742Y002884D01*
X004697Y002936D01*
X004649Y002985D01*
X004599Y003031D01*
X004546Y003074D01*
X004490Y003114D01*
X004433Y003151D01*
X004374Y003185D01*
X004312Y003215D01*
X004249Y003241D01*
X004185Y003264D01*
X004120Y003284D01*
X004053Y003299D01*
X003986Y003311D01*
X003918Y003319D01*
X003850Y003323D01*
X003782Y003324D01*
X003713Y003320D01*
X003646Y003313D01*
X003633Y003401D01*
X003633Y003402D01*
X003703Y003410D01*
X003774Y003413D01*
X003845Y003414D01*
X003916Y003410D01*
X003987Y003402D01*
X004057Y003390D01*
X004126Y003375D01*
X004194Y003356D01*
X004262Y003333D01*
X004327Y003307D01*
X004392Y003277D01*
X004454Y003243D01*
X004515Y003206D01*
X004573Y003166D01*
X004630Y003122D01*
X004683Y003076D01*
X004734Y003027D01*
X004783Y002975D01*
X004828Y002920D01*
X004871Y002863D01*
X004910Y002804D01*
X004946Y002743D01*
X004978Y002680D01*
X005007Y002615D01*
X005033Y002549D01*
X005054Y002481D01*
X005072Y002413D01*
X005086Y002343D01*
X005097Y002273D01*
X005103Y002202D01*
X005106Y002131D01*
X005105Y002060D01*
X005100Y001989D01*
X005090Y001919D01*
X005078Y001849D01*
X005061Y001780D01*
X005040Y001712D01*
X005016Y001646D01*
X004989Y001580D01*
X004957Y001517D01*
X004923Y001455D01*
X004885Y001395D01*
X004843Y001337D01*
X004799Y001282D01*
X004751Y001229D01*
X004701Y001179D01*
X004648Y001131D01*
X004593Y001087D01*
X004535Y001045D01*
X004475Y001007D01*
X004413Y000973D01*
X004350Y000941D01*
X004284Y000914D01*
X004218Y000890D01*
X004150Y000869D01*
X004081Y000852D01*
X004011Y000840D01*
X003941Y000830D01*
X003870Y000825D01*
X003799Y000824D01*
X003728Y000827D01*
X003657Y000833D01*
X003587Y000844D01*
X003517Y000858D01*
X003449Y000876D01*
X003381Y000897D01*
X003315Y000923D01*
X003250Y000952D01*
X003187Y000984D01*
X003126Y001020D01*
X003067Y001059D01*
X003010Y001102D01*
X002955Y001147D01*
X002903Y001196D01*
X002854Y001247D01*
X002808Y001300D01*
X002764Y001357D01*
X002724Y001415D01*
X002687Y001476D01*
X002653Y001538D01*
X002623Y001603D01*
X002597Y001668D01*
X002574Y001736D01*
X002555Y001804D01*
X002540Y001873D01*
X002528Y001943D01*
X002520Y002014D01*
X002516Y002085D01*
X002517Y002156D01*
X002520Y002227D01*
X002528Y002297D01*
X002537Y002296D01*
X002529Y002225D01*
X002525Y002154D01*
X002526Y002083D01*
X002530Y002011D01*
X002537Y001941D01*
X002549Y001870D01*
X002565Y001801D01*
X002585Y001732D01*
X002608Y001665D01*
X002635Y001599D01*
X002665Y001535D01*
X002700Y001472D01*
X002737Y001412D01*
X002778Y001353D01*
X002822Y001297D01*
X002869Y001244D01*
X002919Y001193D01*
X002972Y001145D01*
X003027Y001100D01*
X003085Y001058D01*
X003144Y001019D01*
X003206Y000984D01*
X003270Y000952D01*
X003336Y000924D01*
X003403Y000900D01*
X003471Y000879D01*
X003540Y000862D01*
X003610Y000849D01*
X003681Y000840D01*
X003752Y000834D01*
X003823Y000833D01*
X003894Y000836D01*
X003965Y000842D01*
X004036Y000853D01*
X004106Y000867D01*
X004174Y000885D01*
X004242Y000907D01*
X004309Y000933D01*
X004374Y000963D01*
X004437Y000996D01*
X004498Y001032D01*
X004557Y001072D01*
X004614Y001115D01*
X004669Y001161D01*
X004720Y001210D01*
X004769Y001261D01*
X004815Y001316D01*
X004858Y001373D01*
X004898Y001432D01*
X004934Y001493D01*
X004967Y001556D01*
X004997Y001621D01*
X005023Y001688D01*
X005045Y001756D01*
X005063Y001824D01*
X005077Y001894D01*
X005088Y001965D01*
X005094Y002036D01*
X005097Y002107D01*
X005096Y002178D01*
X005090Y002249D01*
X005081Y002320D01*
X005068Y002390D01*
X005051Y002459D01*
X005030Y002527D01*
X005006Y002594D01*
X004978Y002660D01*
X004946Y002724D01*
X004911Y002786D01*
X004872Y002845D01*
X004830Y002903D01*
X004785Y002958D01*
X004737Y003011D01*
X004686Y003061D01*
X004633Y003108D01*
X004577Y003152D01*
X004518Y003193D01*
X004458Y003230D01*
X004395Y003265D01*
X004331Y003295D01*
X004265Y003322D01*
X004198Y003345D01*
X004129Y003365D01*
X004060Y003381D01*
X003989Y003393D01*
X003919Y003400D01*
X003847Y003404D01*
X003776Y003405D01*
X003705Y003401D01*
X003634Y003393D01*
X003635Y003384D01*
X003706Y003392D01*
X003776Y003396D01*
X003847Y003395D01*
X003918Y003392D01*
X003988Y003384D01*
X004058Y003372D01*
X004127Y003356D01*
X004195Y003337D01*
X004262Y003314D01*
X004327Y003287D01*
X004391Y003257D01*
X004453Y003223D01*
X004514Y003185D01*
X004572Y003145D01*
X004627Y003101D01*
X004680Y003054D01*
X004731Y003005D01*
X004779Y002952D01*
X004823Y002898D01*
X004865Y002840D01*
X004903Y002781D01*
X004938Y002719D01*
X004970Y002656D01*
X004998Y002591D01*
X005022Y002524D01*
X005043Y002457D01*
X005059Y002388D01*
X005072Y002318D01*
X005081Y002248D01*
X005087Y002178D01*
X005088Y002107D01*
X005085Y002036D01*
X005079Y001966D01*
X005068Y001896D01*
X005054Y001826D01*
X005036Y001758D01*
X005014Y001691D01*
X004988Y001625D01*
X004959Y001560D01*
X004927Y001498D01*
X004890Y001437D01*
X004851Y001378D01*
X004808Y001321D01*
X004763Y001267D01*
X004714Y001216D01*
X004663Y001167D01*
X004609Y001122D01*
X004552Y001079D01*
X004493Y001040D01*
X004432Y001003D01*
X004370Y000971D01*
X004305Y000942D01*
X004239Y000916D01*
X004172Y000894D01*
X004104Y000876D01*
X004034Y000862D01*
X003964Y000851D01*
X003894Y000845D01*
X003823Y000842D01*
X003752Y000843D01*
X003682Y000849D01*
X003612Y000858D01*
X003542Y000871D01*
X003473Y000887D01*
X003406Y000908D01*
X003339Y000932D01*
X003274Y000960D01*
X003211Y000992D01*
X003149Y001027D01*
X003090Y001065D01*
X003032Y001107D01*
X002978Y001151D01*
X002925Y001199D01*
X002876Y001250D01*
X002829Y001303D01*
X002785Y001358D01*
X002745Y001416D01*
X002707Y001477D01*
X002673Y001539D01*
X002643Y001603D01*
X002616Y001668D01*
X002593Y001735D01*
X002574Y001803D01*
X002558Y001872D01*
X002546Y001942D01*
X002538Y002012D01*
X002535Y002083D01*
X002534Y002154D01*
X002538Y002224D01*
X002546Y002295D01*
X002555Y002293D01*
X002547Y002223D01*
X002543Y002152D01*
X002544Y002081D01*
X002548Y002010D01*
X002556Y001939D01*
X002568Y001869D01*
X002584Y001800D01*
X002604Y001732D01*
X002627Y001665D01*
X002655Y001599D01*
X002685Y001535D01*
X002720Y001473D01*
X002758Y001413D01*
X002799Y001355D01*
X002843Y001299D01*
X002891Y001247D01*
X002941Y001196D01*
X002994Y001149D01*
X003050Y001105D01*
X003108Y001064D01*
X003168Y001026D01*
X003230Y000992D01*
X003294Y000961D01*
X003360Y000934D01*
X003427Y000910D01*
X003495Y000891D01*
X003565Y000875D01*
X003635Y000863D01*
X003705Y000855D01*
X003776Y000851D01*
X003847Y000852D01*
X003918Y000856D01*
X003989Y000864D01*
X004059Y000875D01*
X004128Y000891D01*
X004197Y000911D01*
X004264Y000935D01*
X004329Y000962D01*
X004393Y000993D01*
X004455Y001027D01*
X004516Y001065D01*
X004574Y001106D01*
X004629Y001150D01*
X004682Y001198D01*
X004732Y001248D01*
X004780Y001301D01*
X004824Y001356D01*
X004865Y001414D01*
X004903Y001475D01*
X004937Y001537D01*
X004968Y001601D01*
X004995Y001666D01*
X005019Y001733D01*
X005039Y001802D01*
X005055Y001871D01*
X005066Y001941D01*
X005074Y002012D01*
X005078Y002083D01*
X005079Y002154D01*
X005075Y002225D01*
X005067Y002295D01*
X005055Y002365D01*
X005039Y002435D01*
X005020Y002503D01*
X004996Y002570D01*
X004969Y002636D01*
X004938Y002700D01*
X004904Y002762D01*
X004866Y002822D01*
X004825Y002880D01*
X004781Y002936D01*
X004734Y002989D01*
X004683Y003039D01*
X004631Y003087D01*
X004575Y003131D01*
X004517Y003172D01*
X004457Y003210D01*
X004395Y003245D01*
X004331Y003275D01*
X004265Y003303D01*
X004198Y003326D01*
X004130Y003346D01*
X004061Y003362D01*
X003991Y003374D01*
X003920Y003382D01*
X003849Y003386D01*
X003778Y003387D01*
X003707Y003383D01*
X003637Y003375D01*
X003638Y003366D01*
X003708Y003374D01*
X003778Y003378D01*
X003849Y003377D01*
X003919Y003373D01*
X003990Y003365D01*
X004059Y003353D01*
X004128Y003337D01*
X004196Y003318D01*
X004262Y003294D01*
X004327Y003267D01*
X004391Y003237D01*
X004453Y003202D01*
X004512Y003165D01*
X004570Y003124D01*
X004625Y003080D01*
X004677Y003033D01*
X004727Y002983D01*
X004774Y002930D01*
X004818Y002875D01*
X004859Y002817D01*
X004896Y002757D01*
X004930Y002696D01*
X004961Y002632D01*
X004988Y002567D01*
X005011Y002500D01*
X005030Y002432D01*
X005046Y002363D01*
X005058Y002294D01*
X005066Y002224D01*
X005070Y002153D01*
X005069Y002083D01*
X005065Y002012D01*
X005058Y001942D01*
X005046Y001873D01*
X005030Y001804D01*
X005010Y001736D01*
X004987Y001670D01*
X004960Y001604D01*
X004929Y001541D01*
X004895Y001479D01*
X004858Y001419D01*
X004817Y001362D01*
X004773Y001307D01*
X004726Y001254D01*
X004676Y001204D01*
X004623Y001157D01*
X004568Y001113D01*
X004511Y001072D01*
X004451Y001035D01*
X004389Y001001D01*
X004326Y000970D01*
X004260Y000943D01*
X004194Y000920D01*
X004126Y000900D01*
X004057Y000884D01*
X003988Y000872D01*
X003918Y000865D01*
X003847Y000861D01*
X003777Y000860D01*
X003706Y000864D01*
X003636Y000872D01*
X003567Y000884D01*
X003498Y000900D01*
X003430Y000919D01*
X003363Y000942D01*
X003298Y000969D01*
X003234Y001000D01*
X003173Y001034D01*
X003113Y001071D01*
X003055Y001112D01*
X003000Y001156D01*
X002947Y001203D01*
X002897Y001253D01*
X002850Y001305D01*
X002806Y001360D01*
X002765Y001418D01*
X002728Y001477D01*
X002693Y001539D01*
X002663Y001603D01*
X002636Y001668D01*
X002612Y001734D01*
X002593Y001802D01*
X002577Y001871D01*
X002565Y001940D01*
X002557Y002011D01*
X002553Y002081D01*
X002552Y002152D01*
X002556Y002222D01*
X002564Y002292D01*
X002573Y002291D01*
X002565Y002221D01*
X002561Y002151D01*
X002562Y002081D01*
X002566Y002011D01*
X002574Y001942D01*
X002586Y001873D01*
X002601Y001804D01*
X002621Y001737D01*
X002644Y001671D01*
X002671Y001606D01*
X002701Y001543D01*
X002735Y001482D01*
X002773Y001423D01*
X002813Y001366D01*
X002857Y001311D01*
X002904Y001259D01*
X002954Y001209D01*
X003006Y001163D01*
X003061Y001119D01*
X003118Y001079D01*
X003177Y001042D01*
X003239Y001008D01*
X003302Y000977D01*
X003366Y000951D01*
X003433Y000928D01*
X003500Y000908D01*
X003568Y000893D01*
X003637Y000881D01*
X003707Y000873D01*
X003777Y000869D01*
X003847Y000870D01*
X003917Y000873D01*
X003986Y000881D01*
X004056Y000893D01*
X004124Y000909D01*
X004191Y000928D01*
X004257Y000951D01*
X004322Y000978D01*
X004385Y001009D01*
X004446Y001043D01*
X004506Y001080D01*
X004563Y001120D01*
X004618Y001164D01*
X004670Y001211D01*
X004719Y001260D01*
X004766Y001312D01*
X004810Y001367D01*
X004850Y001424D01*
X004887Y001484D01*
X004921Y001545D01*
X004952Y001608D01*
X004979Y001673D01*
X005002Y001739D01*
X005021Y001806D01*
X005037Y001874D01*
X005049Y001944D01*
X005057Y002013D01*
X005060Y002083D01*
X005061Y002153D01*
X005057Y002223D01*
X005049Y002293D01*
X005037Y002362D01*
X005022Y002430D01*
X005002Y002497D01*
X004979Y002564D01*
X004953Y002628D01*
X004922Y002691D01*
X004888Y002753D01*
X004851Y002812D01*
X004811Y002869D01*
X004767Y002924D01*
X004721Y002976D01*
X004671Y003026D01*
X004619Y003073D01*
X004564Y003117D01*
X004507Y003157D01*
X004448Y003195D01*
X004387Y003229D01*
X004324Y003259D01*
X004259Y003286D01*
X004193Y003309D01*
X004126Y003329D01*
X004057Y003344D01*
X003988Y003356D01*
X003919Y003364D01*
X003849Y003368D01*
X003779Y003369D01*
X003709Y003365D01*
X003639Y003357D01*
X003640Y003348D01*
X003710Y003356D01*
X003779Y003360D01*
X003849Y003359D01*
X003918Y003355D01*
X003987Y003347D01*
X004056Y003336D01*
X004123Y003320D01*
X004190Y003301D01*
X004256Y003278D01*
X004320Y003251D01*
X004383Y003221D01*
X004443Y003187D01*
X004502Y003150D01*
X004559Y003109D01*
X004613Y003066D01*
X004665Y003019D01*
X004714Y002970D01*
X004760Y002918D01*
X004804Y002864D01*
X004844Y002807D01*
X004881Y002748D01*
X004914Y002687D01*
X004944Y002625D01*
X004971Y002560D01*
X004994Y002495D01*
X005013Y002428D01*
X005028Y002360D01*
X005040Y002291D01*
X005048Y002222D01*
X005052Y002153D01*
X005051Y002083D01*
X005048Y002014D01*
X005040Y001945D01*
X005028Y001876D01*
X005013Y001808D01*
X004993Y001742D01*
X004970Y001676D01*
X004944Y001612D01*
X004913Y001549D01*
X004880Y001488D01*
X004843Y001429D01*
X004802Y001373D01*
X004759Y001318D01*
X004713Y001266D01*
X004664Y001217D01*
X004612Y001171D01*
X004557Y001128D01*
X004501Y001087D01*
X004442Y001050D01*
X004381Y001017D01*
X004318Y000986D01*
X004254Y000960D01*
X004188Y000937D01*
X004122Y000917D01*
X004054Y000902D01*
X003985Y000890D01*
X003916Y000882D01*
X003847Y000879D01*
X003777Y000878D01*
X003708Y000882D01*
X003639Y000890D01*
X003570Y000902D01*
X003502Y000917D01*
X003435Y000936D01*
X003370Y000959D01*
X003305Y000986D01*
X003243Y001016D01*
X003182Y001049D01*
X003123Y001086D01*
X003066Y001126D01*
X003012Y001170D01*
X002960Y001216D01*
X002911Y001265D01*
X002864Y001317D01*
X002821Y001371D01*
X002780Y001428D01*
X002743Y001487D01*
X002709Y001547D01*
X002679Y001610D01*
X002652Y001674D01*
X002629Y001740D01*
X002610Y001807D01*
X002594Y001874D01*
X002583Y001943D01*
X002575Y002012D01*
X002571Y002081D01*
X002570Y002151D01*
X002574Y002220D01*
X002582Y002290D01*
X002591Y002288D01*
X002583Y002220D01*
X002579Y002151D01*
X002580Y002082D01*
X002584Y002013D01*
X002591Y001944D01*
X002603Y001876D01*
X002619Y001809D01*
X002638Y001743D01*
X002661Y001677D01*
X002687Y001614D01*
X002717Y001552D01*
X002751Y001491D01*
X002788Y001433D01*
X002828Y001377D01*
X002871Y001323D01*
X002917Y001271D01*
X002966Y001222D01*
X003018Y001177D01*
X003072Y001134D01*
X003128Y001094D01*
X003186Y001057D01*
X003247Y001024D01*
X003309Y000994D01*
X003373Y000968D01*
X003438Y000945D01*
X003504Y000926D01*
X003572Y000910D01*
X003640Y000899D01*
X003708Y000891D01*
X003777Y000887D01*
X003846Y000888D01*
X003915Y000891D01*
X003984Y000899D01*
X004052Y000911D01*
X004119Y000926D01*
X004186Y000945D01*
X004251Y000968D01*
X004315Y000995D01*
X004377Y001025D01*
X004437Y001058D01*
X004496Y001095D01*
X004552Y001135D01*
X004606Y001178D01*
X004657Y001224D01*
X004706Y001273D01*
X004752Y001324D01*
X004795Y001378D01*
X004835Y001434D01*
X004872Y001493D01*
X004905Y001553D01*
X004935Y001615D01*
X004962Y001679D01*
X004985Y001744D01*
X005004Y001811D01*
X005019Y001878D01*
X005031Y001946D01*
X005039Y002015D01*
X005042Y002084D01*
X005043Y002153D01*
X005039Y002222D01*
X005031Y002290D01*
X005020Y002358D01*
X005004Y002426D01*
X004985Y002492D01*
X004962Y002557D01*
X004936Y002621D01*
X004906Y002683D01*
X004873Y002744D01*
X004836Y002802D01*
X004796Y002858D01*
X004753Y002912D01*
X004708Y002964D01*
X004659Y003013D01*
X004607Y003059D01*
X004553Y003102D01*
X004497Y003142D01*
X004439Y003179D01*
X004378Y003213D01*
X004316Y003243D01*
X004253Y003269D01*
X004187Y003292D01*
X004121Y003311D01*
X004054Y003327D01*
X003986Y003339D01*
X003917Y003346D01*
X003848Y003350D01*
X003779Y003351D01*
X003710Y003347D01*
X003642Y003339D01*
X003643Y003330D01*
X003712Y003338D01*
X003781Y003342D01*
X003850Y003341D01*
X003920Y003337D01*
X003988Y003329D01*
X004057Y003317D01*
X004124Y003301D01*
X004191Y003282D01*
X004256Y003258D01*
X004320Y003231D01*
X004382Y003201D01*
X004442Y003166D01*
X004501Y003129D01*
X004557Y003088D01*
X004610Y003045D01*
X004662Y002998D01*
X004710Y002948D01*
X004756Y002896D01*
X004798Y002841D01*
X004837Y002784D01*
X004873Y002725D01*
X004906Y002664D01*
X004935Y002601D01*
X004961Y002536D01*
X004982Y002471D01*
X005000Y002404D01*
X005015Y002336D01*
X005025Y002267D01*
X005031Y002198D01*
X005034Y002129D01*
X005033Y002060D01*
X005027Y001991D01*
X005018Y001922D01*
X005005Y001854D01*
X004988Y001787D01*
X004967Y001720D01*
X004943Y001656D01*
X004915Y001592D01*
X004883Y001531D01*
X004848Y001471D01*
X004810Y001413D01*
X004768Y001358D01*
X004723Y001305D01*
X004676Y001254D01*
X004625Y001207D01*
X004572Y001162D01*
X004517Y001120D01*
X004459Y001082D01*
X004399Y001047D01*
X004338Y001015D01*
X004274Y000987D01*
X004210Y000963D01*
X004143Y000942D01*
X004076Y000925D01*
X004008Y000912D01*
X003939Y000903D01*
X003870Y000897D01*
X003801Y000896D01*
X003732Y000899D01*
X003663Y000905D01*
X003594Y000915D01*
X003526Y000930D01*
X003459Y000948D01*
X003394Y000969D01*
X003329Y000995D01*
X003266Y001024D01*
X003205Y001057D01*
X003146Y001093D01*
X003089Y001132D01*
X003034Y001174D01*
X002982Y001220D01*
X002932Y001268D01*
X002885Y001320D01*
X002842Y001373D01*
X002801Y001429D01*
X002764Y001488D01*
X002729Y001548D01*
X002699Y001610D01*
X002672Y001674D01*
X002648Y001739D01*
X002629Y001806D01*
X002613Y001873D01*
X002601Y001942D01*
X002593Y002010D01*
X002589Y002080D01*
X002588Y002149D01*
X002592Y002218D01*
X002600Y002287D01*
X002609Y002286D01*
X002601Y002217D01*
X002597Y002149D01*
X002598Y002080D01*
X002602Y002011D01*
X002610Y001943D01*
X002622Y001875D01*
X002637Y001808D01*
X002657Y001742D01*
X002680Y001677D01*
X002707Y001614D01*
X002737Y001552D01*
X002771Y001492D01*
X002808Y001434D01*
X002849Y001379D01*
X002892Y001325D01*
X002939Y001275D01*
X002988Y001227D01*
X003040Y001181D01*
X003094Y001139D01*
X003151Y001100D01*
X003210Y001064D01*
X003270Y001032D01*
X003333Y001003D01*
X003397Y000978D01*
X003462Y000956D01*
X003528Y000938D01*
X003596Y000924D01*
X003664Y000914D01*
X003732Y000908D01*
X003801Y000905D01*
X003870Y000906D01*
X003939Y000912D01*
X004007Y000921D01*
X004074Y000934D01*
X004141Y000951D01*
X004207Y000971D01*
X004271Y000996D01*
X004334Y001023D01*
X004395Y001055D01*
X004454Y001090D01*
X004512Y001128D01*
X004567Y001169D01*
X004619Y001213D01*
X004669Y001261D01*
X004717Y001311D01*
X004761Y001363D01*
X004802Y001418D01*
X004840Y001476D01*
X004875Y001535D01*
X004907Y001596D01*
X004934Y001659D01*
X004959Y001723D01*
X004979Y001789D01*
X004996Y001856D01*
X005009Y001923D01*
X005018Y001991D01*
X005024Y002060D01*
X005025Y002129D01*
X005022Y002198D01*
X005016Y002266D01*
X005006Y002334D01*
X004992Y002402D01*
X004974Y002468D01*
X004952Y002533D01*
X004927Y002597D01*
X004898Y002660D01*
X004866Y002720D01*
X004830Y002779D01*
X004791Y002836D01*
X004749Y002890D01*
X004703Y002942D01*
X004655Y002991D01*
X004605Y003038D01*
X004551Y003081D01*
X004496Y003122D01*
X004438Y003159D01*
X004378Y003193D01*
X004316Y003223D01*
X004253Y003250D01*
X004188Y003273D01*
X004122Y003293D01*
X004055Y003308D01*
X003987Y003320D01*
X003919Y003328D01*
X003850Y003332D01*
X003781Y003333D01*
X003713Y003329D01*
X003644Y003321D01*
X010722Y003401D02*
X010709Y003312D01*
X010709Y003313D02*
X010642Y003320D01*
X010573Y003324D01*
X010505Y003323D01*
X010437Y003319D01*
X010369Y003311D01*
X010302Y003299D01*
X010235Y003284D01*
X010170Y003264D01*
X010106Y003241D01*
X010043Y003215D01*
X009981Y003185D01*
X009922Y003151D01*
X009865Y003114D01*
X009809Y003074D01*
X009756Y003031D01*
X009706Y002985D01*
X009658Y002936D01*
X009613Y002884D01*
X009571Y002830D01*
X009533Y002774D01*
X009497Y002716D01*
X009465Y002656D01*
X009436Y002594D01*
X009411Y002530D01*
X009390Y002465D01*
X009372Y002399D01*
X009358Y002333D01*
X009348Y002265D01*
X009342Y002197D01*
X009339Y002129D01*
X009340Y002061D01*
X009346Y001992D01*
X009355Y001925D01*
X009368Y001858D01*
X009384Y001791D01*
X009405Y001726D01*
X009429Y001662D01*
X009457Y001600D01*
X009488Y001539D01*
X009522Y001480D01*
X009560Y001423D01*
X009601Y001369D01*
X009645Y001317D01*
X009692Y001267D01*
X009742Y001220D01*
X009794Y001176D01*
X009848Y001135D01*
X009905Y001097D01*
X009964Y001063D01*
X010025Y001032D01*
X010087Y001004D01*
X010151Y000980D01*
X010216Y000959D01*
X010283Y000943D01*
X010350Y000930D01*
X010417Y000921D01*
X010486Y000915D01*
X010554Y000914D01*
X010622Y000917D01*
X010690Y000923D01*
X010758Y000933D01*
X010824Y000947D01*
X010890Y000965D01*
X010955Y000986D01*
X011019Y001011D01*
X011081Y001040D01*
X011141Y001072D01*
X011199Y001108D01*
X011255Y001146D01*
X011309Y001188D01*
X011361Y001233D01*
X011410Y001281D01*
X011456Y001331D01*
X011499Y001384D01*
X011539Y001440D01*
X011576Y001497D01*
X011610Y001556D01*
X011640Y001618D01*
X011666Y001681D01*
X011689Y001745D01*
X011709Y001810D01*
X011724Y001877D01*
X011736Y001944D01*
X011744Y002012D01*
X011748Y002080D01*
X011749Y002148D01*
X011745Y002217D01*
X011738Y002284D01*
X011826Y002297D01*
X011827Y002297D01*
X011835Y002227D01*
X011838Y002156D01*
X011839Y002085D01*
X011835Y002014D01*
X011827Y001943D01*
X011815Y001873D01*
X011800Y001804D01*
X011781Y001736D01*
X011758Y001668D01*
X011732Y001603D01*
X011702Y001538D01*
X011668Y001476D01*
X011631Y001415D01*
X011591Y001357D01*
X011547Y001300D01*
X011501Y001247D01*
X011452Y001196D01*
X011400Y001147D01*
X011345Y001102D01*
X011288Y001059D01*
X011229Y001020D01*
X011168Y000984D01*
X011105Y000952D01*
X011040Y000923D01*
X010974Y000897D01*
X010906Y000876D01*
X010838Y000858D01*
X010768Y000844D01*
X010698Y000833D01*
X010627Y000827D01*
X010556Y000824D01*
X010485Y000825D01*
X010414Y000830D01*
X010344Y000840D01*
X010274Y000852D01*
X010205Y000869D01*
X010137Y000890D01*
X010071Y000914D01*
X010005Y000941D01*
X009942Y000973D01*
X009880Y001007D01*
X009820Y001045D01*
X009762Y001087D01*
X009707Y001131D01*
X009654Y001179D01*
X009604Y001229D01*
X009556Y001282D01*
X009512Y001337D01*
X009470Y001395D01*
X009432Y001455D01*
X009398Y001517D01*
X009366Y001580D01*
X009339Y001646D01*
X009315Y001712D01*
X009294Y001780D01*
X009277Y001849D01*
X009265Y001919D01*
X009255Y001989D01*
X009250Y002060D01*
X009249Y002131D01*
X009252Y002202D01*
X009258Y002273D01*
X009269Y002343D01*
X009283Y002413D01*
X009301Y002481D01*
X009322Y002549D01*
X009348Y002615D01*
X009377Y002680D01*
X009409Y002743D01*
X009445Y002804D01*
X009484Y002863D01*
X009527Y002920D01*
X009572Y002975D01*
X009621Y003027D01*
X009672Y003076D01*
X009725Y003122D01*
X009782Y003166D01*
X009840Y003206D01*
X009901Y003243D01*
X009963Y003277D01*
X010028Y003307D01*
X010093Y003333D01*
X010161Y003356D01*
X010229Y003375D01*
X010298Y003390D01*
X010368Y003402D01*
X010439Y003410D01*
X010510Y003414D01*
X010581Y003413D01*
X010652Y003410D01*
X010722Y003402D01*
X010721Y003393D01*
X010650Y003401D01*
X010579Y003405D01*
X010508Y003404D01*
X010436Y003400D01*
X010366Y003393D01*
X010295Y003381D01*
X010226Y003365D01*
X010157Y003345D01*
X010090Y003322D01*
X010024Y003295D01*
X009960Y003265D01*
X009897Y003230D01*
X009837Y003193D01*
X009778Y003152D01*
X009722Y003108D01*
X009669Y003061D01*
X009618Y003011D01*
X009570Y002958D01*
X009525Y002903D01*
X009483Y002845D01*
X009444Y002786D01*
X009409Y002724D01*
X009377Y002660D01*
X009349Y002594D01*
X009325Y002527D01*
X009304Y002459D01*
X009287Y002390D01*
X009274Y002320D01*
X009265Y002249D01*
X009259Y002178D01*
X009258Y002107D01*
X009261Y002036D01*
X009267Y001965D01*
X009278Y001894D01*
X009292Y001824D01*
X009310Y001756D01*
X009332Y001688D01*
X009358Y001621D01*
X009388Y001556D01*
X009421Y001493D01*
X009457Y001432D01*
X009497Y001373D01*
X009540Y001316D01*
X009586Y001261D01*
X009635Y001210D01*
X009686Y001161D01*
X009741Y001115D01*
X009798Y001072D01*
X009857Y001032D01*
X009918Y000996D01*
X009981Y000963D01*
X010046Y000933D01*
X010113Y000907D01*
X010181Y000885D01*
X010249Y000867D01*
X010319Y000853D01*
X010390Y000842D01*
X010461Y000836D01*
X010532Y000833D01*
X010603Y000834D01*
X010674Y000840D01*
X010745Y000849D01*
X010815Y000862D01*
X010884Y000879D01*
X010952Y000900D01*
X011019Y000924D01*
X011085Y000952D01*
X011149Y000984D01*
X011211Y001019D01*
X011270Y001058D01*
X011328Y001100D01*
X011383Y001145D01*
X011436Y001193D01*
X011486Y001244D01*
X011533Y001297D01*
X011577Y001353D01*
X011618Y001412D01*
X011655Y001472D01*
X011690Y001535D01*
X011720Y001599D01*
X011747Y001665D01*
X011770Y001732D01*
X011790Y001801D01*
X011806Y001870D01*
X011818Y001941D01*
X011825Y002011D01*
X011829Y002083D01*
X011830Y002154D01*
X011826Y002225D01*
X011818Y002296D01*
X011809Y002295D01*
X011817Y002224D01*
X011821Y002154D01*
X011820Y002083D01*
X011817Y002012D01*
X011809Y001942D01*
X011797Y001872D01*
X011781Y001803D01*
X011762Y001735D01*
X011739Y001668D01*
X011712Y001603D01*
X011682Y001539D01*
X011648Y001477D01*
X011610Y001416D01*
X011570Y001358D01*
X011526Y001303D01*
X011479Y001250D01*
X011430Y001199D01*
X011377Y001151D01*
X011323Y001107D01*
X011265Y001065D01*
X011206Y001027D01*
X011144Y000992D01*
X011081Y000960D01*
X011016Y000932D01*
X010949Y000908D01*
X010882Y000887D01*
X010813Y000871D01*
X010743Y000858D01*
X010673Y000849D01*
X010603Y000843D01*
X010532Y000842D01*
X010461Y000845D01*
X010391Y000851D01*
X010321Y000862D01*
X010251Y000876D01*
X010183Y000894D01*
X010116Y000916D01*
X010050Y000942D01*
X009985Y000971D01*
X009923Y001003D01*
X009862Y001040D01*
X009803Y001079D01*
X009746Y001122D01*
X009692Y001167D01*
X009641Y001216D01*
X009592Y001267D01*
X009547Y001321D01*
X009504Y001378D01*
X009465Y001437D01*
X009428Y001498D01*
X009396Y001560D01*
X009367Y001625D01*
X009341Y001691D01*
X009319Y001758D01*
X009301Y001826D01*
X009287Y001896D01*
X009276Y001966D01*
X009270Y002036D01*
X009267Y002107D01*
X009268Y002178D01*
X009274Y002248D01*
X009283Y002318D01*
X009296Y002388D01*
X009312Y002457D01*
X009333Y002524D01*
X009357Y002591D01*
X009385Y002656D01*
X009417Y002719D01*
X009452Y002781D01*
X009490Y002840D01*
X009532Y002898D01*
X009576Y002952D01*
X009624Y003005D01*
X009675Y003054D01*
X009728Y003101D01*
X009783Y003145D01*
X009841Y003185D01*
X009902Y003223D01*
X009964Y003257D01*
X010028Y003287D01*
X010093Y003314D01*
X010160Y003337D01*
X010228Y003356D01*
X010297Y003372D01*
X010367Y003384D01*
X010437Y003392D01*
X010508Y003395D01*
X010579Y003396D01*
X010649Y003392D01*
X010720Y003384D01*
X010718Y003375D01*
X010648Y003383D01*
X010577Y003387D01*
X010506Y003386D01*
X010435Y003382D01*
X010364Y003374D01*
X010294Y003362D01*
X010225Y003346D01*
X010157Y003326D01*
X010090Y003303D01*
X010024Y003275D01*
X009960Y003245D01*
X009898Y003210D01*
X009838Y003172D01*
X009780Y003131D01*
X009724Y003087D01*
X009672Y003039D01*
X009621Y002989D01*
X009574Y002936D01*
X009530Y002880D01*
X009489Y002822D01*
X009451Y002762D01*
X009417Y002700D01*
X009386Y002636D01*
X009359Y002570D01*
X009335Y002503D01*
X009316Y002435D01*
X009300Y002365D01*
X009288Y002295D01*
X009280Y002225D01*
X009276Y002154D01*
X009277Y002083D01*
X009281Y002012D01*
X009289Y001941D01*
X009300Y001871D01*
X009316Y001802D01*
X009336Y001733D01*
X009360Y001666D01*
X009387Y001601D01*
X009418Y001537D01*
X009452Y001475D01*
X009490Y001414D01*
X009531Y001356D01*
X009575Y001301D01*
X009623Y001248D01*
X009673Y001198D01*
X009726Y001150D01*
X009781Y001106D01*
X009839Y001065D01*
X009900Y001027D01*
X009962Y000993D01*
X010026Y000962D01*
X010091Y000935D01*
X010158Y000911D01*
X010227Y000891D01*
X010296Y000875D01*
X010366Y000864D01*
X010437Y000856D01*
X010508Y000852D01*
X010579Y000851D01*
X010650Y000855D01*
X010720Y000863D01*
X010790Y000875D01*
X010860Y000891D01*
X010928Y000910D01*
X010995Y000934D01*
X011061Y000961D01*
X011125Y000992D01*
X011187Y001026D01*
X011247Y001064D01*
X011305Y001105D01*
X011361Y001149D01*
X011414Y001196D01*
X011464Y001247D01*
X011512Y001299D01*
X011556Y001355D01*
X011597Y001413D01*
X011635Y001473D01*
X011670Y001535D01*
X011700Y001599D01*
X011728Y001665D01*
X011751Y001732D01*
X011771Y001800D01*
X011787Y001869D01*
X011799Y001939D01*
X011807Y002010D01*
X011811Y002081D01*
X011812Y002152D01*
X011808Y002223D01*
X011800Y002293D01*
X011791Y002292D01*
X011799Y002222D01*
X011803Y002152D01*
X011802Y002081D01*
X011798Y002011D01*
X011790Y001940D01*
X011778Y001871D01*
X011762Y001802D01*
X011743Y001734D01*
X011719Y001668D01*
X011692Y001603D01*
X011662Y001539D01*
X011627Y001477D01*
X011590Y001418D01*
X011549Y001360D01*
X011505Y001305D01*
X011458Y001253D01*
X011408Y001203D01*
X011355Y001156D01*
X011300Y001112D01*
X011242Y001071D01*
X011182Y001034D01*
X011121Y001000D01*
X011057Y000969D01*
X010992Y000942D01*
X010925Y000919D01*
X010857Y000900D01*
X010788Y000884D01*
X010719Y000872D01*
X010649Y000864D01*
X010578Y000860D01*
X010508Y000861D01*
X010437Y000865D01*
X010367Y000872D01*
X010298Y000884D01*
X010229Y000900D01*
X010161Y000920D01*
X010095Y000943D01*
X010029Y000970D01*
X009966Y001001D01*
X009904Y001035D01*
X009844Y001072D01*
X009787Y001113D01*
X009732Y001157D01*
X009679Y001204D01*
X009629Y001254D01*
X009582Y001307D01*
X009538Y001362D01*
X009497Y001419D01*
X009460Y001479D01*
X009426Y001541D01*
X009395Y001604D01*
X009368Y001670D01*
X009345Y001736D01*
X009325Y001804D01*
X009309Y001873D01*
X009297Y001942D01*
X009290Y002012D01*
X009286Y002083D01*
X009285Y002153D01*
X009289Y002224D01*
X009297Y002294D01*
X009309Y002363D01*
X009325Y002432D01*
X009344Y002500D01*
X009367Y002567D01*
X009394Y002632D01*
X009425Y002696D01*
X009459Y002757D01*
X009496Y002817D01*
X009537Y002875D01*
X009581Y002930D01*
X009628Y002983D01*
X009678Y003033D01*
X009730Y003080D01*
X009785Y003124D01*
X009843Y003165D01*
X009902Y003202D01*
X009964Y003237D01*
X010028Y003267D01*
X010093Y003294D01*
X010159Y003318D01*
X010227Y003337D01*
X010296Y003353D01*
X010365Y003365D01*
X010436Y003373D01*
X010506Y003377D01*
X010577Y003378D01*
X010647Y003374D01*
X010717Y003366D01*
X010716Y003357D01*
X010646Y003365D01*
X010576Y003369D01*
X010506Y003368D01*
X010436Y003364D01*
X010367Y003356D01*
X010298Y003344D01*
X010229Y003329D01*
X010162Y003309D01*
X010096Y003286D01*
X010031Y003259D01*
X009968Y003229D01*
X009907Y003195D01*
X009848Y003157D01*
X009791Y003117D01*
X009736Y003073D01*
X009684Y003026D01*
X009634Y002976D01*
X009588Y002924D01*
X009544Y002869D01*
X009504Y002812D01*
X009467Y002753D01*
X009433Y002691D01*
X009402Y002628D01*
X009376Y002564D01*
X009353Y002497D01*
X009333Y002430D01*
X009318Y002362D01*
X009306Y002293D01*
X009298Y002223D01*
X009294Y002153D01*
X009295Y002083D01*
X009298Y002013D01*
X009306Y001944D01*
X009318Y001874D01*
X009334Y001806D01*
X009353Y001739D01*
X009376Y001673D01*
X009403Y001608D01*
X009434Y001545D01*
X009468Y001484D01*
X009505Y001424D01*
X009545Y001367D01*
X009589Y001312D01*
X009636Y001260D01*
X009685Y001211D01*
X009737Y001164D01*
X009792Y001120D01*
X009849Y001080D01*
X009909Y001043D01*
X009970Y001009D01*
X010033Y000978D01*
X010098Y000951D01*
X010164Y000928D01*
X010231Y000909D01*
X010299Y000893D01*
X010369Y000881D01*
X010438Y000873D01*
X010508Y000870D01*
X010578Y000869D01*
X010648Y000873D01*
X010718Y000881D01*
X010787Y000893D01*
X010855Y000908D01*
X010922Y000928D01*
X010989Y000951D01*
X011053Y000977D01*
X011116Y001008D01*
X011178Y001042D01*
X011237Y001079D01*
X011294Y001119D01*
X011349Y001163D01*
X011401Y001209D01*
X011451Y001259D01*
X011498Y001311D01*
X011542Y001366D01*
X011582Y001423D01*
X011620Y001482D01*
X011654Y001543D01*
X011684Y001606D01*
X011711Y001671D01*
X011734Y001737D01*
X011754Y001804D01*
X011769Y001873D01*
X011781Y001942D01*
X011789Y002011D01*
X011793Y002081D01*
X011794Y002151D01*
X011790Y002221D01*
X011782Y002291D01*
X011773Y002290D01*
X011781Y002220D01*
X011785Y002151D01*
X011784Y002081D01*
X011780Y002012D01*
X011772Y001943D01*
X011761Y001874D01*
X011745Y001807D01*
X011726Y001740D01*
X011703Y001674D01*
X011676Y001610D01*
X011646Y001547D01*
X011612Y001487D01*
X011575Y001428D01*
X011534Y001371D01*
X011491Y001317D01*
X011444Y001265D01*
X011395Y001216D01*
X011343Y001170D01*
X011289Y001126D01*
X011232Y001086D01*
X011173Y001049D01*
X011112Y001016D01*
X011050Y000986D01*
X010985Y000959D01*
X010920Y000936D01*
X010853Y000917D01*
X010785Y000902D01*
X010716Y000890D01*
X010647Y000882D01*
X010578Y000878D01*
X010508Y000879D01*
X010439Y000882D01*
X010370Y000890D01*
X010301Y000902D01*
X010233Y000917D01*
X010167Y000937D01*
X010101Y000960D01*
X010037Y000986D01*
X009974Y001017D01*
X009913Y001050D01*
X009854Y001087D01*
X009798Y001128D01*
X009743Y001171D01*
X009691Y001217D01*
X009642Y001266D01*
X009596Y001318D01*
X009553Y001373D01*
X009512Y001429D01*
X009475Y001488D01*
X009442Y001549D01*
X009411Y001612D01*
X009385Y001676D01*
X009362Y001742D01*
X009342Y001808D01*
X009327Y001876D01*
X009315Y001945D01*
X009307Y002014D01*
X009304Y002083D01*
X009303Y002153D01*
X009307Y002222D01*
X009315Y002291D01*
X009327Y002360D01*
X009342Y002428D01*
X009361Y002495D01*
X009384Y002560D01*
X009411Y002625D01*
X009441Y002687D01*
X009474Y002748D01*
X009511Y002807D01*
X009551Y002864D01*
X009595Y002918D01*
X009641Y002970D01*
X009690Y003019D01*
X009742Y003066D01*
X009796Y003109D01*
X009853Y003150D01*
X009912Y003187D01*
X009972Y003221D01*
X010035Y003251D01*
X010099Y003278D01*
X010165Y003301D01*
X010232Y003320D01*
X010299Y003336D01*
X010368Y003347D01*
X010437Y003355D01*
X010506Y003359D01*
X010576Y003360D01*
X010645Y003356D01*
X010715Y003348D01*
X010713Y003339D01*
X010645Y003347D01*
X010576Y003351D01*
X010507Y003350D01*
X010438Y003346D01*
X010369Y003339D01*
X010301Y003327D01*
X010234Y003311D01*
X010168Y003292D01*
X010102Y003269D01*
X010039Y003243D01*
X009977Y003213D01*
X009916Y003179D01*
X009858Y003142D01*
X009802Y003102D01*
X009748Y003059D01*
X009696Y003013D01*
X009647Y002964D01*
X009602Y002912D01*
X009559Y002858D01*
X009519Y002802D01*
X009482Y002744D01*
X009449Y002683D01*
X009419Y002621D01*
X009393Y002557D01*
X009370Y002492D01*
X009351Y002426D01*
X009335Y002358D01*
X009324Y002290D01*
X009316Y002222D01*
X009312Y002153D01*
X009313Y002084D01*
X009316Y002015D01*
X009324Y001946D01*
X009336Y001878D01*
X009351Y001811D01*
X009370Y001744D01*
X009393Y001679D01*
X009420Y001615D01*
X009450Y001553D01*
X009483Y001493D01*
X009520Y001434D01*
X009560Y001378D01*
X009603Y001324D01*
X009649Y001273D01*
X009698Y001224D01*
X009749Y001178D01*
X009803Y001135D01*
X009859Y001095D01*
X009918Y001058D01*
X009978Y001025D01*
X010040Y000995D01*
X010104Y000968D01*
X010169Y000945D01*
X010236Y000926D01*
X010303Y000911D01*
X010371Y000899D01*
X010440Y000891D01*
X010509Y000888D01*
X010578Y000887D01*
X010647Y000891D01*
X010715Y000899D01*
X010783Y000910D01*
X010851Y000926D01*
X010917Y000945D01*
X010982Y000968D01*
X011046Y000994D01*
X011108Y001024D01*
X011169Y001057D01*
X011227Y001094D01*
X011283Y001134D01*
X011337Y001177D01*
X011389Y001222D01*
X011438Y001271D01*
X011484Y001323D01*
X011527Y001377D01*
X011567Y001433D01*
X011604Y001491D01*
X011638Y001552D01*
X011668Y001614D01*
X011694Y001677D01*
X011717Y001743D01*
X011736Y001809D01*
X011752Y001876D01*
X011764Y001944D01*
X011771Y002013D01*
X011775Y002082D01*
X011776Y002151D01*
X011772Y002220D01*
X011764Y002288D01*
X011755Y002287D01*
X011763Y002218D01*
X011767Y002149D01*
X011766Y002080D01*
X011762Y002010D01*
X011754Y001942D01*
X011742Y001873D01*
X011726Y001806D01*
X011707Y001739D01*
X011683Y001674D01*
X011656Y001610D01*
X011626Y001548D01*
X011591Y001488D01*
X011554Y001429D01*
X011513Y001373D01*
X011470Y001320D01*
X011423Y001268D01*
X011373Y001220D01*
X011321Y001174D01*
X011266Y001132D01*
X011209Y001093D01*
X011150Y001057D01*
X011089Y001024D01*
X011026Y000995D01*
X010961Y000969D01*
X010896Y000948D01*
X010829Y000930D01*
X010761Y000915D01*
X010692Y000905D01*
X010623Y000899D01*
X010554Y000896D01*
X010485Y000897D01*
X010416Y000903D01*
X010347Y000912D01*
X010279Y000925D01*
X010212Y000942D01*
X010145Y000963D01*
X010081Y000987D01*
X010017Y001015D01*
X009956Y001047D01*
X009896Y001082D01*
X009838Y001120D01*
X009783Y001162D01*
X009730Y001207D01*
X009679Y001254D01*
X009632Y001305D01*
X009587Y001358D01*
X009545Y001413D01*
X009507Y001471D01*
X009472Y001531D01*
X009440Y001592D01*
X009412Y001656D01*
X009388Y001720D01*
X009367Y001787D01*
X009350Y001854D01*
X009337Y001922D01*
X009328Y001991D01*
X009322Y002060D01*
X009321Y002129D01*
X009324Y002198D01*
X009330Y002267D01*
X009340Y002336D01*
X009355Y002404D01*
X009373Y002471D01*
X009394Y002536D01*
X009420Y002601D01*
X009449Y002664D01*
X009482Y002725D01*
X009518Y002784D01*
X009557Y002841D01*
X009599Y002896D01*
X009645Y002948D01*
X009693Y002998D01*
X009745Y003045D01*
X009798Y003088D01*
X009854Y003129D01*
X009913Y003166D01*
X009973Y003201D01*
X010035Y003231D01*
X010099Y003258D01*
X010164Y003282D01*
X010231Y003301D01*
X010298Y003317D01*
X010367Y003329D01*
X010435Y003337D01*
X010505Y003341D01*
X010574Y003342D01*
X010643Y003338D01*
X010712Y003330D01*
X010711Y003321D01*
X010642Y003329D01*
X010574Y003333D01*
X010505Y003332D01*
X010436Y003328D01*
X010368Y003320D01*
X010300Y003308D01*
X010233Y003293D01*
X010167Y003273D01*
X010102Y003250D01*
X010039Y003223D01*
X009977Y003193D01*
X009917Y003159D01*
X009859Y003122D01*
X009804Y003081D01*
X009750Y003038D01*
X009700Y002991D01*
X009652Y002942D01*
X009606Y002890D01*
X009564Y002836D01*
X009525Y002779D01*
X009489Y002720D01*
X009457Y002660D01*
X009428Y002597D01*
X009403Y002533D01*
X009381Y002468D01*
X009363Y002402D01*
X009349Y002334D01*
X009339Y002266D01*
X009333Y002198D01*
X009330Y002129D01*
X009331Y002060D01*
X009337Y001991D01*
X009346Y001923D01*
X009359Y001856D01*
X009376Y001789D01*
X009396Y001723D01*
X009421Y001659D01*
X009448Y001596D01*
X009480Y001535D01*
X009515Y001476D01*
X009553Y001418D01*
X009594Y001363D01*
X009638Y001311D01*
X009686Y001261D01*
X009736Y001213D01*
X009788Y001169D01*
X009843Y001128D01*
X009901Y001090D01*
X009960Y001055D01*
X010021Y001023D01*
X010084Y000996D01*
X010148Y000971D01*
X010214Y000951D01*
X010281Y000934D01*
X010348Y000921D01*
X010416Y000912D01*
X010485Y000906D01*
X010554Y000905D01*
X010623Y000908D01*
X010691Y000914D01*
X010759Y000924D01*
X010827Y000938D01*
X010893Y000956D01*
X010958Y000978D01*
X011022Y001003D01*
X011085Y001032D01*
X011145Y001064D01*
X011204Y001100D01*
X011261Y001139D01*
X011315Y001181D01*
X011367Y001227D01*
X011416Y001275D01*
X011463Y001325D01*
X011506Y001379D01*
X011547Y001434D01*
X011584Y001492D01*
X011618Y001552D01*
X011648Y001614D01*
X011675Y001677D01*
X011698Y001742D01*
X011718Y001808D01*
X011733Y001875D01*
X011745Y001943D01*
X011753Y002011D01*
X011757Y002080D01*
X011758Y002149D01*
X011754Y002217D01*
X011746Y002286D01*
X011826Y008161D02*
X011737Y008174D01*
X011738Y008174D02*
X011745Y008241D01*
X011749Y008310D01*
X011748Y008378D01*
X011744Y008446D01*
X011736Y008514D01*
X011724Y008581D01*
X011709Y008648D01*
X011689Y008713D01*
X011666Y008777D01*
X011640Y008840D01*
X011610Y008902D01*
X011576Y008961D01*
X011539Y009018D01*
X011499Y009074D01*
X011456Y009127D01*
X011410Y009177D01*
X011361Y009225D01*
X011309Y009270D01*
X011255Y009312D01*
X011199Y009350D01*
X011141Y009386D01*
X011081Y009418D01*
X011019Y009447D01*
X010955Y009472D01*
X010890Y009493D01*
X010824Y009511D01*
X010758Y009525D01*
X010690Y009535D01*
X010622Y009541D01*
X010554Y009544D01*
X010486Y009543D01*
X010417Y009537D01*
X010350Y009528D01*
X010283Y009515D01*
X010216Y009499D01*
X010151Y009478D01*
X010087Y009454D01*
X010025Y009426D01*
X009964Y009395D01*
X009905Y009361D01*
X009848Y009323D01*
X009794Y009282D01*
X009742Y009238D01*
X009692Y009191D01*
X009645Y009141D01*
X009601Y009089D01*
X009560Y009035D01*
X009522Y008978D01*
X009488Y008919D01*
X009457Y008858D01*
X009429Y008796D01*
X009405Y008732D01*
X009384Y008667D01*
X009368Y008600D01*
X009355Y008533D01*
X009346Y008466D01*
X009340Y008397D01*
X009339Y008329D01*
X009342Y008261D01*
X009348Y008193D01*
X009358Y008125D01*
X009372Y008059D01*
X009390Y007993D01*
X009411Y007928D01*
X009436Y007864D01*
X009465Y007802D01*
X009497Y007742D01*
X009533Y007684D01*
X009571Y007628D01*
X009613Y007574D01*
X009658Y007522D01*
X009706Y007473D01*
X009756Y007427D01*
X009809Y007384D01*
X009865Y007344D01*
X009922Y007307D01*
X009981Y007273D01*
X010043Y007243D01*
X010106Y007217D01*
X010170Y007194D01*
X010235Y007174D01*
X010302Y007159D01*
X010369Y007147D01*
X010437Y007139D01*
X010505Y007135D01*
X010573Y007134D01*
X010642Y007138D01*
X010709Y007145D01*
X010722Y007057D01*
X010722Y007056D01*
X010652Y007048D01*
X010581Y007045D01*
X010510Y007044D01*
X010439Y007048D01*
X010368Y007056D01*
X010298Y007068D01*
X010229Y007083D01*
X010161Y007102D01*
X010093Y007125D01*
X010028Y007151D01*
X009963Y007181D01*
X009901Y007215D01*
X009840Y007252D01*
X009782Y007292D01*
X009725Y007336D01*
X009672Y007382D01*
X009621Y007431D01*
X009572Y007483D01*
X009527Y007538D01*
X009484Y007595D01*
X009445Y007654D01*
X009409Y007715D01*
X009377Y007778D01*
X009348Y007843D01*
X009322Y007909D01*
X009301Y007977D01*
X009283Y008045D01*
X009269Y008115D01*
X009258Y008185D01*
X009252Y008256D01*
X009249Y008327D01*
X009250Y008398D01*
X009255Y008469D01*
X009265Y008539D01*
X009277Y008609D01*
X009294Y008678D01*
X009315Y008746D01*
X009339Y008812D01*
X009366Y008878D01*
X009398Y008941D01*
X009432Y009003D01*
X009470Y009063D01*
X009512Y009121D01*
X009556Y009176D01*
X009604Y009229D01*
X009654Y009279D01*
X009707Y009327D01*
X009762Y009371D01*
X009820Y009413D01*
X009880Y009451D01*
X009942Y009485D01*
X010005Y009517D01*
X010071Y009544D01*
X010137Y009568D01*
X010205Y009589D01*
X010274Y009606D01*
X010344Y009618D01*
X010414Y009628D01*
X010485Y009633D01*
X010556Y009634D01*
X010627Y009631D01*
X010698Y009625D01*
X010768Y009614D01*
X010838Y009600D01*
X010906Y009582D01*
X010974Y009561D01*
X011040Y009535D01*
X011105Y009506D01*
X011168Y009474D01*
X011229Y009438D01*
X011288Y009399D01*
X011345Y009356D01*
X011400Y009311D01*
X011452Y009262D01*
X011501Y009211D01*
X011547Y009158D01*
X011591Y009101D01*
X011631Y009043D01*
X011668Y008982D01*
X011702Y008920D01*
X011732Y008855D01*
X011758Y008790D01*
X011781Y008722D01*
X011800Y008654D01*
X011815Y008585D01*
X011827Y008515D01*
X011835Y008444D01*
X011839Y008373D01*
X011838Y008302D01*
X011835Y008231D01*
X011827Y008161D01*
X011818Y008162D01*
X011826Y008233D01*
X011830Y008304D01*
X011829Y008375D01*
X011825Y008447D01*
X011818Y008517D01*
X011806Y008588D01*
X011790Y008657D01*
X011770Y008726D01*
X011747Y008793D01*
X011720Y008859D01*
X011690Y008923D01*
X011655Y008986D01*
X011618Y009046D01*
X011577Y009105D01*
X011533Y009161D01*
X011486Y009214D01*
X011436Y009265D01*
X011383Y009313D01*
X011328Y009358D01*
X011270Y009400D01*
X011211Y009439D01*
X011149Y009474D01*
X011085Y009506D01*
X011019Y009534D01*
X010952Y009558D01*
X010884Y009579D01*
X010815Y009596D01*
X010745Y009609D01*
X010674Y009618D01*
X010603Y009624D01*
X010532Y009625D01*
X010461Y009622D01*
X010390Y009616D01*
X010319Y009605D01*
X010249Y009591D01*
X010181Y009573D01*
X010113Y009551D01*
X010046Y009525D01*
X009981Y009495D01*
X009918Y009462D01*
X009857Y009426D01*
X009798Y009386D01*
X009741Y009343D01*
X009686Y009297D01*
X009635Y009248D01*
X009586Y009197D01*
X009540Y009142D01*
X009497Y009085D01*
X009457Y009026D01*
X009421Y008965D01*
X009388Y008902D01*
X009358Y008837D01*
X009332Y008770D01*
X009310Y008702D01*
X009292Y008634D01*
X009278Y008564D01*
X009267Y008493D01*
X009261Y008422D01*
X009258Y008351D01*
X009259Y008280D01*
X009265Y008209D01*
X009274Y008138D01*
X009287Y008068D01*
X009304Y007999D01*
X009325Y007931D01*
X009349Y007864D01*
X009377Y007798D01*
X009409Y007734D01*
X009444Y007672D01*
X009483Y007613D01*
X009525Y007555D01*
X009570Y007500D01*
X009618Y007447D01*
X009669Y007397D01*
X009722Y007350D01*
X009778Y007306D01*
X009837Y007265D01*
X009897Y007228D01*
X009960Y007193D01*
X010024Y007163D01*
X010090Y007136D01*
X010157Y007113D01*
X010226Y007093D01*
X010295Y007077D01*
X010366Y007065D01*
X010436Y007058D01*
X010508Y007054D01*
X010579Y007053D01*
X010650Y007057D01*
X010721Y007065D01*
X010720Y007074D01*
X010649Y007066D01*
X010579Y007062D01*
X010508Y007063D01*
X010437Y007066D01*
X010367Y007074D01*
X010297Y007086D01*
X010228Y007102D01*
X010160Y007121D01*
X010093Y007144D01*
X010028Y007171D01*
X009964Y007201D01*
X009902Y007235D01*
X009841Y007273D01*
X009783Y007313D01*
X009728Y007357D01*
X009675Y007404D01*
X009624Y007453D01*
X009576Y007506D01*
X009532Y007560D01*
X009490Y007618D01*
X009452Y007677D01*
X009417Y007739D01*
X009385Y007802D01*
X009357Y007867D01*
X009333Y007934D01*
X009312Y008001D01*
X009296Y008070D01*
X009283Y008140D01*
X009274Y008210D01*
X009268Y008280D01*
X009267Y008351D01*
X009270Y008422D01*
X009276Y008492D01*
X009287Y008562D01*
X009301Y008632D01*
X009319Y008700D01*
X009341Y008767D01*
X009367Y008833D01*
X009396Y008898D01*
X009428Y008960D01*
X009465Y009021D01*
X009504Y009080D01*
X009547Y009137D01*
X009592Y009191D01*
X009641Y009242D01*
X009692Y009291D01*
X009746Y009336D01*
X009803Y009379D01*
X009862Y009418D01*
X009923Y009455D01*
X009985Y009487D01*
X010050Y009516D01*
X010116Y009542D01*
X010183Y009564D01*
X010251Y009582D01*
X010321Y009596D01*
X010391Y009607D01*
X010461Y009613D01*
X010532Y009616D01*
X010603Y009615D01*
X010673Y009609D01*
X010743Y009600D01*
X010813Y009587D01*
X010882Y009571D01*
X010949Y009550D01*
X011016Y009526D01*
X011081Y009498D01*
X011144Y009466D01*
X011206Y009431D01*
X011265Y009393D01*
X011323Y009351D01*
X011377Y009307D01*
X011430Y009259D01*
X011479Y009208D01*
X011526Y009155D01*
X011570Y009100D01*
X011610Y009042D01*
X011648Y008981D01*
X011682Y008919D01*
X011712Y008855D01*
X011739Y008790D01*
X011762Y008723D01*
X011781Y008655D01*
X011797Y008586D01*
X011809Y008516D01*
X011817Y008446D01*
X011820Y008375D01*
X011821Y008304D01*
X011817Y008234D01*
X011809Y008163D01*
X011800Y008165D01*
X011808Y008235D01*
X011812Y008306D01*
X011811Y008377D01*
X011807Y008448D01*
X011799Y008519D01*
X011787Y008589D01*
X011771Y008658D01*
X011751Y008726D01*
X011728Y008793D01*
X011700Y008859D01*
X011670Y008923D01*
X011635Y008985D01*
X011597Y009045D01*
X011556Y009103D01*
X011512Y009159D01*
X011464Y009211D01*
X011414Y009262D01*
X011361Y009309D01*
X011305Y009353D01*
X011247Y009394D01*
X011187Y009432D01*
X011125Y009466D01*
X011061Y009497D01*
X010995Y009524D01*
X010928Y009548D01*
X010860Y009567D01*
X010790Y009583D01*
X010720Y009595D01*
X010650Y009603D01*
X010579Y009607D01*
X010508Y009606D01*
X010437Y009602D01*
X010366Y009594D01*
X010296Y009583D01*
X010227Y009567D01*
X010158Y009547D01*
X010091Y009523D01*
X010026Y009496D01*
X009962Y009465D01*
X009900Y009431D01*
X009839Y009393D01*
X009781Y009352D01*
X009726Y009308D01*
X009673Y009260D01*
X009623Y009210D01*
X009575Y009157D01*
X009531Y009102D01*
X009490Y009044D01*
X009452Y008983D01*
X009418Y008921D01*
X009387Y008857D01*
X009360Y008792D01*
X009336Y008725D01*
X009316Y008656D01*
X009300Y008587D01*
X009289Y008517D01*
X009281Y008446D01*
X009277Y008375D01*
X009276Y008304D01*
X009280Y008233D01*
X009288Y008163D01*
X009300Y008093D01*
X009316Y008023D01*
X009335Y007955D01*
X009359Y007888D01*
X009386Y007822D01*
X009417Y007758D01*
X009451Y007696D01*
X009489Y007636D01*
X009530Y007578D01*
X009574Y007522D01*
X009621Y007469D01*
X009672Y007419D01*
X009724Y007371D01*
X009780Y007327D01*
X009838Y007286D01*
X009898Y007248D01*
X009960Y007213D01*
X010024Y007183D01*
X010090Y007155D01*
X010157Y007132D01*
X010225Y007112D01*
X010294Y007096D01*
X010364Y007084D01*
X010435Y007076D01*
X010506Y007072D01*
X010577Y007071D01*
X010648Y007075D01*
X010718Y007083D01*
X010717Y007092D01*
X010647Y007084D01*
X010577Y007080D01*
X010506Y007081D01*
X010436Y007085D01*
X010365Y007093D01*
X010296Y007105D01*
X010227Y007121D01*
X010159Y007140D01*
X010093Y007164D01*
X010028Y007191D01*
X009964Y007221D01*
X009902Y007256D01*
X009843Y007293D01*
X009785Y007334D01*
X009730Y007378D01*
X009678Y007425D01*
X009628Y007475D01*
X009581Y007528D01*
X009537Y007583D01*
X009496Y007641D01*
X009459Y007701D01*
X009425Y007762D01*
X009394Y007826D01*
X009367Y007891D01*
X009344Y007958D01*
X009325Y008026D01*
X009309Y008095D01*
X009297Y008164D01*
X009289Y008234D01*
X009285Y008305D01*
X009286Y008375D01*
X009290Y008446D01*
X009297Y008516D01*
X009309Y008585D01*
X009325Y008654D01*
X009345Y008722D01*
X009368Y008788D01*
X009395Y008854D01*
X009426Y008917D01*
X009460Y008979D01*
X009497Y009039D01*
X009538Y009096D01*
X009582Y009151D01*
X009629Y009204D01*
X009679Y009254D01*
X009732Y009301D01*
X009787Y009345D01*
X009844Y009386D01*
X009904Y009423D01*
X009966Y009457D01*
X010029Y009488D01*
X010095Y009515D01*
X010161Y009538D01*
X010229Y009558D01*
X010298Y009574D01*
X010367Y009586D01*
X010437Y009593D01*
X010508Y009597D01*
X010578Y009598D01*
X010649Y009594D01*
X010719Y009586D01*
X010788Y009574D01*
X010857Y009558D01*
X010925Y009539D01*
X010992Y009516D01*
X011057Y009489D01*
X011121Y009458D01*
X011182Y009424D01*
X011242Y009387D01*
X011300Y009346D01*
X011355Y009302D01*
X011408Y009255D01*
X011458Y009205D01*
X011505Y009153D01*
X011549Y009098D01*
X011590Y009040D01*
X011627Y008981D01*
X011662Y008919D01*
X011692Y008855D01*
X011719Y008790D01*
X011743Y008724D01*
X011762Y008656D01*
X011778Y008587D01*
X011790Y008518D01*
X011798Y008447D01*
X011802Y008377D01*
X011803Y008306D01*
X011799Y008236D01*
X011791Y008166D01*
X011782Y008167D01*
X011790Y008237D01*
X011794Y008307D01*
X011793Y008377D01*
X011789Y008447D01*
X011781Y008516D01*
X011769Y008585D01*
X011754Y008654D01*
X011734Y008721D01*
X011711Y008787D01*
X011684Y008852D01*
X011654Y008915D01*
X011620Y008976D01*
X011582Y009035D01*
X011542Y009092D01*
X011498Y009147D01*
X011451Y009199D01*
X011401Y009249D01*
X011349Y009295D01*
X011294Y009339D01*
X011237Y009379D01*
X011178Y009416D01*
X011116Y009450D01*
X011053Y009481D01*
X010989Y009507D01*
X010922Y009530D01*
X010855Y009550D01*
X010787Y009565D01*
X010718Y009577D01*
X010648Y009585D01*
X010578Y009589D01*
X010508Y009588D01*
X010438Y009585D01*
X010369Y009577D01*
X010299Y009565D01*
X010231Y009549D01*
X010164Y009530D01*
X010098Y009507D01*
X010033Y009480D01*
X009970Y009449D01*
X009909Y009415D01*
X009849Y009378D01*
X009792Y009338D01*
X009737Y009294D01*
X009685Y009247D01*
X009636Y009198D01*
X009589Y009146D01*
X009545Y009091D01*
X009505Y009034D01*
X009468Y008974D01*
X009434Y008913D01*
X009403Y008850D01*
X009376Y008785D01*
X009353Y008719D01*
X009334Y008652D01*
X009318Y008584D01*
X009306Y008514D01*
X009298Y008445D01*
X009295Y008375D01*
X009294Y008305D01*
X009298Y008235D01*
X009306Y008165D01*
X009318Y008096D01*
X009333Y008028D01*
X009353Y007961D01*
X009376Y007894D01*
X009402Y007830D01*
X009433Y007767D01*
X009467Y007705D01*
X009504Y007646D01*
X009544Y007589D01*
X009588Y007534D01*
X009634Y007482D01*
X009684Y007432D01*
X009736Y007385D01*
X009791Y007341D01*
X009848Y007301D01*
X009907Y007263D01*
X009968Y007229D01*
X010031Y007199D01*
X010096Y007172D01*
X010162Y007149D01*
X010229Y007129D01*
X010298Y007114D01*
X010367Y007102D01*
X010436Y007094D01*
X010506Y007090D01*
X010576Y007089D01*
X010646Y007093D01*
X010716Y007101D01*
X010715Y007110D01*
X010645Y007102D01*
X010576Y007098D01*
X010506Y007099D01*
X010437Y007103D01*
X010368Y007111D01*
X010299Y007122D01*
X010232Y007138D01*
X010165Y007157D01*
X010099Y007180D01*
X010035Y007207D01*
X009972Y007237D01*
X009912Y007271D01*
X009853Y007308D01*
X009796Y007349D01*
X009742Y007392D01*
X009690Y007439D01*
X009641Y007488D01*
X009595Y007540D01*
X009551Y007594D01*
X009511Y007651D01*
X009474Y007710D01*
X009441Y007771D01*
X009411Y007833D01*
X009384Y007898D01*
X009361Y007963D01*
X009342Y008030D01*
X009327Y008098D01*
X009315Y008167D01*
X009307Y008236D01*
X009303Y008305D01*
X009304Y008375D01*
X009307Y008444D01*
X009315Y008513D01*
X009327Y008582D01*
X009342Y008650D01*
X009362Y008716D01*
X009385Y008782D01*
X009411Y008846D01*
X009442Y008909D01*
X009475Y008970D01*
X009512Y009029D01*
X009553Y009085D01*
X009596Y009140D01*
X009642Y009192D01*
X009691Y009241D01*
X009743Y009287D01*
X009798Y009330D01*
X009854Y009371D01*
X009913Y009408D01*
X009974Y009441D01*
X010037Y009472D01*
X010101Y009498D01*
X010167Y009521D01*
X010233Y009541D01*
X010301Y009556D01*
X010370Y009568D01*
X010439Y009576D01*
X010508Y009579D01*
X010578Y009580D01*
X010647Y009576D01*
X010716Y009568D01*
X010785Y009556D01*
X010853Y009541D01*
X010920Y009522D01*
X010985Y009499D01*
X011050Y009472D01*
X011112Y009442D01*
X011173Y009409D01*
X011232Y009372D01*
X011289Y009332D01*
X011343Y009288D01*
X011395Y009242D01*
X011444Y009193D01*
X011491Y009141D01*
X011534Y009087D01*
X011575Y009030D01*
X011612Y008971D01*
X011646Y008911D01*
X011676Y008848D01*
X011703Y008784D01*
X011726Y008718D01*
X011745Y008651D01*
X011761Y008584D01*
X011772Y008515D01*
X011780Y008446D01*
X011784Y008377D01*
X011785Y008307D01*
X011781Y008238D01*
X011773Y008168D01*
X011764Y008170D01*
X011772Y008238D01*
X011776Y008307D01*
X011775Y008376D01*
X011771Y008445D01*
X011764Y008514D01*
X011752Y008582D01*
X011736Y008649D01*
X011717Y008715D01*
X011694Y008781D01*
X011668Y008844D01*
X011638Y008906D01*
X011604Y008967D01*
X011567Y009025D01*
X011527Y009081D01*
X011484Y009135D01*
X011438Y009187D01*
X011389Y009236D01*
X011337Y009281D01*
X011283Y009324D01*
X011227Y009364D01*
X011169Y009401D01*
X011108Y009434D01*
X011046Y009464D01*
X010982Y009490D01*
X010917Y009513D01*
X010851Y009532D01*
X010783Y009548D01*
X010715Y009559D01*
X010647Y009567D01*
X010578Y009571D01*
X010509Y009570D01*
X010440Y009567D01*
X010371Y009559D01*
X010303Y009547D01*
X010236Y009532D01*
X010169Y009513D01*
X010104Y009490D01*
X010040Y009463D01*
X009978Y009433D01*
X009918Y009400D01*
X009859Y009363D01*
X009803Y009323D01*
X009749Y009280D01*
X009698Y009234D01*
X009649Y009185D01*
X009603Y009134D01*
X009560Y009080D01*
X009520Y009024D01*
X009483Y008965D01*
X009450Y008905D01*
X009420Y008843D01*
X009393Y008779D01*
X009370Y008714D01*
X009351Y008647D01*
X009336Y008580D01*
X009324Y008512D01*
X009316Y008443D01*
X009313Y008374D01*
X009312Y008305D01*
X009316Y008236D01*
X009324Y008168D01*
X009335Y008100D01*
X009351Y008032D01*
X009370Y007966D01*
X009393Y007901D01*
X009419Y007837D01*
X009449Y007775D01*
X009482Y007714D01*
X009519Y007656D01*
X009559Y007600D01*
X009602Y007546D01*
X009647Y007494D01*
X009696Y007445D01*
X009748Y007399D01*
X009802Y007356D01*
X009858Y007316D01*
X009916Y007279D01*
X009977Y007245D01*
X010039Y007215D01*
X010102Y007189D01*
X010168Y007166D01*
X010234Y007147D01*
X010301Y007131D01*
X010369Y007119D01*
X010438Y007112D01*
X010507Y007108D01*
X010576Y007107D01*
X010645Y007111D01*
X010713Y007119D01*
X010712Y007128D01*
X010643Y007120D01*
X010574Y007116D01*
X010505Y007117D01*
X010435Y007121D01*
X010367Y007129D01*
X010298Y007141D01*
X010231Y007157D01*
X010164Y007176D01*
X010099Y007200D01*
X010035Y007227D01*
X009973Y007257D01*
X009913Y007292D01*
X009854Y007329D01*
X009798Y007370D01*
X009745Y007413D01*
X009693Y007460D01*
X009645Y007510D01*
X009599Y007562D01*
X009557Y007617D01*
X009518Y007674D01*
X009482Y007733D01*
X009449Y007794D01*
X009420Y007857D01*
X009394Y007922D01*
X009373Y007987D01*
X009355Y008054D01*
X009340Y008122D01*
X009330Y008191D01*
X009324Y008260D01*
X009321Y008329D01*
X009322Y008398D01*
X009328Y008467D01*
X009337Y008536D01*
X009350Y008604D01*
X009367Y008671D01*
X009388Y008738D01*
X009412Y008802D01*
X009440Y008866D01*
X009472Y008927D01*
X009507Y008987D01*
X009545Y009045D01*
X009587Y009100D01*
X009632Y009153D01*
X009679Y009204D01*
X009730Y009251D01*
X009783Y009296D01*
X009838Y009338D01*
X009896Y009376D01*
X009956Y009411D01*
X010017Y009443D01*
X010081Y009471D01*
X010145Y009495D01*
X010212Y009516D01*
X010279Y009533D01*
X010347Y009546D01*
X010416Y009555D01*
X010485Y009561D01*
X010554Y009562D01*
X010623Y009559D01*
X010692Y009553D01*
X010761Y009543D01*
X010829Y009528D01*
X010896Y009510D01*
X010961Y009489D01*
X011026Y009463D01*
X011089Y009434D01*
X011150Y009401D01*
X011209Y009365D01*
X011266Y009326D01*
X011321Y009284D01*
X011373Y009238D01*
X011423Y009190D01*
X011470Y009138D01*
X011513Y009085D01*
X011554Y009029D01*
X011591Y008970D01*
X011626Y008910D01*
X011656Y008848D01*
X011683Y008784D01*
X011707Y008719D01*
X011726Y008652D01*
X011742Y008585D01*
X011754Y008516D01*
X011762Y008448D01*
X011766Y008378D01*
X011767Y008309D01*
X011763Y008240D01*
X011755Y008171D01*
X011746Y008172D01*
X011754Y008241D01*
X011758Y008309D01*
X011757Y008378D01*
X011753Y008447D01*
X011745Y008515D01*
X011733Y008583D01*
X011718Y008650D01*
X011698Y008716D01*
X011675Y008781D01*
X011648Y008844D01*
X011618Y008906D01*
X011584Y008966D01*
X011547Y009024D01*
X011506Y009079D01*
X011463Y009133D01*
X011416Y009183D01*
X011367Y009231D01*
X011315Y009277D01*
X011261Y009319D01*
X011204Y009358D01*
X011145Y009394D01*
X011085Y009426D01*
X011022Y009455D01*
X010958Y009480D01*
X010893Y009502D01*
X010827Y009520D01*
X010759Y009534D01*
X010691Y009544D01*
X010623Y009550D01*
X010554Y009553D01*
X010485Y009552D01*
X010416Y009546D01*
X010348Y009537D01*
X010281Y009524D01*
X010214Y009507D01*
X010148Y009487D01*
X010084Y009462D01*
X010021Y009435D01*
X009960Y009403D01*
X009901Y009368D01*
X009843Y009330D01*
X009788Y009289D01*
X009736Y009245D01*
X009686Y009197D01*
X009638Y009147D01*
X009594Y009095D01*
X009553Y009040D01*
X009515Y008982D01*
X009480Y008923D01*
X009448Y008862D01*
X009421Y008799D01*
X009396Y008735D01*
X009376Y008669D01*
X009359Y008602D01*
X009346Y008535D01*
X009337Y008467D01*
X009331Y008398D01*
X009330Y008329D01*
X009333Y008260D01*
X009339Y008192D01*
X009349Y008124D01*
X009363Y008056D01*
X009381Y007990D01*
X009403Y007925D01*
X009428Y007861D01*
X009457Y007798D01*
X009489Y007738D01*
X009525Y007679D01*
X009564Y007622D01*
X009606Y007568D01*
X009652Y007516D01*
X009700Y007467D01*
X009750Y007420D01*
X009804Y007377D01*
X009859Y007336D01*
X009917Y007299D01*
X009977Y007265D01*
X010039Y007235D01*
X010102Y007208D01*
X010167Y007185D01*
X010233Y007165D01*
X010300Y007150D01*
X010368Y007138D01*
X010436Y007130D01*
X010505Y007126D01*
X010574Y007125D01*
X010642Y007129D01*
X010711Y007137D01*
D14*
X009544Y008339D02*
X009546Y008402D01*
X009552Y008464D01*
X009562Y008526D01*
X009575Y008588D01*
X009593Y008648D01*
X009614Y008707D01*
X009639Y008765D01*
X009668Y008821D01*
X009700Y008875D01*
X009735Y008927D01*
X009773Y008976D01*
X009815Y009024D01*
X009859Y009068D01*
X009907Y009110D01*
X009956Y009148D01*
X010008Y009183D01*
X010062Y009215D01*
X010118Y009244D01*
X010176Y009269D01*
X010235Y009290D01*
X010295Y009308D01*
X010357Y009321D01*
X010419Y009331D01*
X010481Y009337D01*
X010544Y009339D01*
X010607Y009337D01*
X010669Y009331D01*
X010731Y009321D01*
X010793Y009308D01*
X010853Y009290D01*
X010912Y009269D01*
X010970Y009244D01*
X011026Y009215D01*
X011080Y009183D01*
X011132Y009148D01*
X011181Y009110D01*
X011229Y009068D01*
X011273Y009024D01*
X011315Y008976D01*
X011353Y008927D01*
X011388Y008875D01*
X011420Y008821D01*
X011449Y008765D01*
X011474Y008707D01*
X011495Y008648D01*
X011513Y008588D01*
X011526Y008526D01*
X011536Y008464D01*
X011542Y008402D01*
X011544Y008339D01*
X011542Y008276D01*
X011536Y008214D01*
X011526Y008152D01*
X011513Y008090D01*
X011495Y008030D01*
X011474Y007971D01*
X011449Y007913D01*
X011420Y007857D01*
X011388Y007803D01*
X011353Y007751D01*
X011315Y007702D01*
X011273Y007654D01*
X011229Y007610D01*
X011181Y007568D01*
X011132Y007530D01*
X011080Y007495D01*
X011026Y007463D01*
X010970Y007434D01*
X010912Y007409D01*
X010853Y007388D01*
X010793Y007370D01*
X010731Y007357D01*
X010669Y007347D01*
X010607Y007341D01*
X010544Y007339D01*
X010481Y007341D01*
X010419Y007347D01*
X010357Y007357D01*
X010295Y007370D01*
X010235Y007388D01*
X010176Y007409D01*
X010118Y007434D01*
X010062Y007463D01*
X010008Y007495D01*
X009956Y007530D01*
X009907Y007568D01*
X009859Y007610D01*
X009815Y007654D01*
X009773Y007702D01*
X009735Y007751D01*
X009700Y007803D01*
X009668Y007857D01*
X009639Y007913D01*
X009614Y007971D01*
X009593Y008030D01*
X009575Y008090D01*
X009562Y008152D01*
X009552Y008214D01*
X009546Y008276D01*
X009544Y008339D01*
X002811Y008339D02*
X002813Y008402D01*
X002819Y008464D01*
X002829Y008526D01*
X002842Y008588D01*
X002860Y008648D01*
X002881Y008707D01*
X002906Y008765D01*
X002935Y008821D01*
X002967Y008875D01*
X003002Y008927D01*
X003040Y008976D01*
X003082Y009024D01*
X003126Y009068D01*
X003174Y009110D01*
X003223Y009148D01*
X003275Y009183D01*
X003329Y009215D01*
X003385Y009244D01*
X003443Y009269D01*
X003502Y009290D01*
X003562Y009308D01*
X003624Y009321D01*
X003686Y009331D01*
X003748Y009337D01*
X003811Y009339D01*
X003874Y009337D01*
X003936Y009331D01*
X003998Y009321D01*
X004060Y009308D01*
X004120Y009290D01*
X004179Y009269D01*
X004237Y009244D01*
X004293Y009215D01*
X004347Y009183D01*
X004399Y009148D01*
X004448Y009110D01*
X004496Y009068D01*
X004540Y009024D01*
X004582Y008976D01*
X004620Y008927D01*
X004655Y008875D01*
X004687Y008821D01*
X004716Y008765D01*
X004741Y008707D01*
X004762Y008648D01*
X004780Y008588D01*
X004793Y008526D01*
X004803Y008464D01*
X004809Y008402D01*
X004811Y008339D01*
X004809Y008276D01*
X004803Y008214D01*
X004793Y008152D01*
X004780Y008090D01*
X004762Y008030D01*
X004741Y007971D01*
X004716Y007913D01*
X004687Y007857D01*
X004655Y007803D01*
X004620Y007751D01*
X004582Y007702D01*
X004540Y007654D01*
X004496Y007610D01*
X004448Y007568D01*
X004399Y007530D01*
X004347Y007495D01*
X004293Y007463D01*
X004237Y007434D01*
X004179Y007409D01*
X004120Y007388D01*
X004060Y007370D01*
X003998Y007357D01*
X003936Y007347D01*
X003874Y007341D01*
X003811Y007339D01*
X003748Y007341D01*
X003686Y007347D01*
X003624Y007357D01*
X003562Y007370D01*
X003502Y007388D01*
X003443Y007409D01*
X003385Y007434D01*
X003329Y007463D01*
X003275Y007495D01*
X003223Y007530D01*
X003174Y007568D01*
X003126Y007610D01*
X003082Y007654D01*
X003040Y007702D01*
X003002Y007751D01*
X002967Y007803D01*
X002935Y007857D01*
X002906Y007913D01*
X002881Y007971D01*
X002860Y008030D01*
X002842Y008090D01*
X002829Y008152D01*
X002819Y008214D01*
X002813Y008276D01*
X002811Y008339D01*
X002811Y002119D02*
X002813Y002182D01*
X002819Y002244D01*
X002829Y002306D01*
X002842Y002368D01*
X002860Y002428D01*
X002881Y002487D01*
X002906Y002545D01*
X002935Y002601D01*
X002967Y002655D01*
X003002Y002707D01*
X003040Y002756D01*
X003082Y002804D01*
X003126Y002848D01*
X003174Y002890D01*
X003223Y002928D01*
X003275Y002963D01*
X003329Y002995D01*
X003385Y003024D01*
X003443Y003049D01*
X003502Y003070D01*
X003562Y003088D01*
X003624Y003101D01*
X003686Y003111D01*
X003748Y003117D01*
X003811Y003119D01*
X003874Y003117D01*
X003936Y003111D01*
X003998Y003101D01*
X004060Y003088D01*
X004120Y003070D01*
X004179Y003049D01*
X004237Y003024D01*
X004293Y002995D01*
X004347Y002963D01*
X004399Y002928D01*
X004448Y002890D01*
X004496Y002848D01*
X004540Y002804D01*
X004582Y002756D01*
X004620Y002707D01*
X004655Y002655D01*
X004687Y002601D01*
X004716Y002545D01*
X004741Y002487D01*
X004762Y002428D01*
X004780Y002368D01*
X004793Y002306D01*
X004803Y002244D01*
X004809Y002182D01*
X004811Y002119D01*
X004809Y002056D01*
X004803Y001994D01*
X004793Y001932D01*
X004780Y001870D01*
X004762Y001810D01*
X004741Y001751D01*
X004716Y001693D01*
X004687Y001637D01*
X004655Y001583D01*
X004620Y001531D01*
X004582Y001482D01*
X004540Y001434D01*
X004496Y001390D01*
X004448Y001348D01*
X004399Y001310D01*
X004347Y001275D01*
X004293Y001243D01*
X004237Y001214D01*
X004179Y001189D01*
X004120Y001168D01*
X004060Y001150D01*
X003998Y001137D01*
X003936Y001127D01*
X003874Y001121D01*
X003811Y001119D01*
X003748Y001121D01*
X003686Y001127D01*
X003624Y001137D01*
X003562Y001150D01*
X003502Y001168D01*
X003443Y001189D01*
X003385Y001214D01*
X003329Y001243D01*
X003275Y001275D01*
X003223Y001310D01*
X003174Y001348D01*
X003126Y001390D01*
X003082Y001434D01*
X003040Y001482D01*
X003002Y001531D01*
X002967Y001583D01*
X002935Y001637D01*
X002906Y001693D01*
X002881Y001751D01*
X002860Y001810D01*
X002842Y001870D01*
X002829Y001932D01*
X002819Y001994D01*
X002813Y002056D01*
X002811Y002119D01*
X009544Y002119D02*
X009546Y002182D01*
X009552Y002244D01*
X009562Y002306D01*
X009575Y002368D01*
X009593Y002428D01*
X009614Y002487D01*
X009639Y002545D01*
X009668Y002601D01*
X009700Y002655D01*
X009735Y002707D01*
X009773Y002756D01*
X009815Y002804D01*
X009859Y002848D01*
X009907Y002890D01*
X009956Y002928D01*
X010008Y002963D01*
X010062Y002995D01*
X010118Y003024D01*
X010176Y003049D01*
X010235Y003070D01*
X010295Y003088D01*
X010357Y003101D01*
X010419Y003111D01*
X010481Y003117D01*
X010544Y003119D01*
X010607Y003117D01*
X010669Y003111D01*
X010731Y003101D01*
X010793Y003088D01*
X010853Y003070D01*
X010912Y003049D01*
X010970Y003024D01*
X011026Y002995D01*
X011080Y002963D01*
X011132Y002928D01*
X011181Y002890D01*
X011229Y002848D01*
X011273Y002804D01*
X011315Y002756D01*
X011353Y002707D01*
X011388Y002655D01*
X011420Y002601D01*
X011449Y002545D01*
X011474Y002487D01*
X011495Y002428D01*
X011513Y002368D01*
X011526Y002306D01*
X011536Y002244D01*
X011542Y002182D01*
X011544Y002119D01*
X011542Y002056D01*
X011536Y001994D01*
X011526Y001932D01*
X011513Y001870D01*
X011495Y001810D01*
X011474Y001751D01*
X011449Y001693D01*
X011420Y001637D01*
X011388Y001583D01*
X011353Y001531D01*
X011315Y001482D01*
X011273Y001434D01*
X011229Y001390D01*
X011181Y001348D01*
X011132Y001310D01*
X011080Y001275D01*
X011026Y001243D01*
X010970Y001214D01*
X010912Y001189D01*
X010853Y001168D01*
X010793Y001150D01*
X010731Y001137D01*
X010669Y001127D01*
X010607Y001121D01*
X010544Y001119D01*
X010481Y001121D01*
X010419Y001127D01*
X010357Y001137D01*
X010295Y001150D01*
X010235Y001168D01*
X010176Y001189D01*
X010118Y001214D01*
X010062Y001243D01*
X010008Y001275D01*
X009956Y001310D01*
X009907Y001348D01*
X009859Y001390D01*
X009815Y001434D01*
X009773Y001482D01*
X009735Y001531D01*
X009700Y001583D01*
X009668Y001637D01*
X009639Y001693D01*
X009614Y001751D01*
X009593Y001810D01*
X009575Y001870D01*
X009562Y001932D01*
X009552Y001994D01*
X009546Y002056D01*
X009544Y002119D01*
D15*
X009363Y004481D02*
X009363Y005583D01*
X005111Y005583D01*
X005111Y004481D01*
X009363Y004481D01*
X009363Y005583D02*
X009363Y006056D01*
X008591Y006056D01*
X008576Y006056D02*
X008574Y006107D01*
X008569Y006157D01*
X008560Y006207D01*
X008547Y006256D01*
X008531Y006304D01*
X008512Y006351D01*
X008489Y006396D01*
X008463Y006439D01*
X008435Y006481D01*
X008403Y006520D01*
X008368Y006557D01*
X008331Y006592D01*
X008292Y006624D01*
X008250Y006652D01*
X008207Y006678D01*
X008162Y006701D01*
X008115Y006720D01*
X008067Y006736D01*
X008018Y006749D01*
X007968Y006758D01*
X007918Y006763D01*
X007867Y006765D01*
X007867Y006764D02*
X006607Y006764D01*
X006607Y006765D02*
X006556Y006763D01*
X006506Y006758D01*
X006456Y006749D01*
X006407Y006736D01*
X006359Y006720D01*
X006312Y006701D01*
X006267Y006678D01*
X006224Y006652D01*
X006182Y006624D01*
X006143Y006592D01*
X006106Y006557D01*
X006071Y006520D01*
X006039Y006481D01*
X006011Y006439D01*
X005985Y006396D01*
X005962Y006351D01*
X005943Y006304D01*
X005927Y006256D01*
X005914Y006207D01*
X005905Y006157D01*
X005900Y006107D01*
X005898Y006056D01*
X005882Y006056D02*
X005111Y006056D01*
X005111Y005583D01*
D16*
X003801Y005791D03*
X004293Y006632D03*
X003083Y004315D03*
X003575Y003597D03*
D17*
X003570Y003607D03*
X003580Y004602D03*
D18*
X003575Y004151D03*
X003575Y003617D03*
D19*
X003570Y003628D03*
X003560Y006334D03*
D20*
X003570Y003638D03*
D21*
X003575Y003648D03*
D22*
X003570Y003658D03*
D23*
X003570Y003669D03*
D24*
X003570Y003679D03*
X003560Y006263D03*
D25*
X003570Y003689D03*
D26*
X003570Y003699D03*
D27*
X003570Y003710D03*
D28*
X003570Y003720D03*
D29*
X003570Y003730D03*
D30*
X003570Y003740D03*
D31*
X003196Y003751D03*
X004447Y005217D03*
X004447Y005227D03*
X004447Y005237D03*
X004447Y005258D03*
X004447Y005268D03*
X004447Y005278D03*
X004447Y005289D03*
X004447Y005299D03*
X004447Y005319D03*
X004447Y005330D03*
X004447Y005340D03*
X004447Y005350D03*
D32*
X003934Y003751D03*
X003565Y006878D03*
D33*
X003124Y003761D03*
D34*
X004006Y003761D03*
X003565Y006888D03*
D35*
X003083Y003771D03*
D36*
X004052Y003771D03*
X003221Y006232D03*
D37*
X003591Y005586D03*
X004103Y006714D03*
X003939Y004274D03*
X003047Y003781D03*
D38*
X004088Y003781D03*
D39*
X003580Y004130D03*
X003016Y003792D03*
X003180Y006222D03*
X003006Y006703D03*
X003949Y006222D03*
D40*
X004119Y003792D03*
D41*
X002986Y003802D03*
X003560Y005914D03*
D42*
X002981Y006693D03*
X004149Y003802D03*
D43*
X004170Y003812D03*
X002960Y003812D03*
D44*
X002939Y003822D03*
X003134Y004294D03*
X004211Y006673D03*
D45*
X004185Y006683D03*
X003980Y006211D03*
X002955Y006683D03*
X003580Y004581D03*
X004011Y004294D03*
X004195Y003822D03*
D46*
X002914Y003833D03*
X002904Y006662D03*
D47*
X004221Y003833D03*
D48*
X004242Y003843D03*
X003350Y004704D03*
X003114Y004304D03*
X002888Y003843D03*
X002888Y006652D03*
D49*
X003324Y005791D03*
X003591Y005381D03*
X003591Y004919D03*
X004062Y004315D03*
X002873Y003853D03*
X004277Y006642D03*
D50*
X003601Y005401D03*
X002863Y006642D03*
X004267Y003853D03*
D51*
X004283Y003863D03*
X004303Y003874D03*
X002847Y003863D03*
X003596Y005391D03*
X003606Y005412D03*
X004057Y006181D03*
X003073Y006181D03*
X002847Y006632D03*
X002827Y006621D03*
D52*
X002811Y006611D03*
X004318Y006621D03*
X004318Y003884D03*
X002832Y003874D03*
X002811Y003884D03*
D53*
X002796Y003894D03*
X003575Y004571D03*
X004344Y003894D03*
X004354Y006601D03*
X002786Y006601D03*
D54*
X004334Y006611D03*
X003831Y004714D03*
X004108Y004335D03*
X003042Y004335D03*
X002775Y003904D03*
D55*
X002760Y003915D03*
X003580Y004120D03*
X004124Y004345D03*
X004390Y003925D03*
X004359Y003904D03*
X003006Y006150D03*
X002760Y006580D03*
X002770Y006591D03*
X002740Y006570D03*
X004370Y006591D03*
D56*
X004400Y006570D03*
X004103Y006160D03*
X003837Y005781D03*
X003293Y005781D03*
X003027Y006160D03*
X003314Y004714D03*
X003027Y004345D03*
X004380Y003915D03*
D57*
X004406Y003935D03*
X004426Y003945D03*
X004160Y004366D03*
X004139Y004356D03*
X003862Y004725D03*
X003596Y004909D03*
X003288Y004725D03*
X002745Y003925D03*
X002724Y003935D03*
X002991Y006140D03*
X002724Y006560D03*
X004139Y006140D03*
X004416Y006560D03*
X004385Y006580D03*
D58*
X004431Y006550D03*
X004154Y006129D03*
X003857Y005770D03*
X003273Y005770D03*
X002975Y006129D03*
X002955Y006119D03*
X002678Y006529D03*
X002709Y006550D03*
X003878Y004735D03*
X004175Y004376D03*
X004452Y003966D03*
X003006Y004356D03*
X002678Y003966D03*
X002709Y003945D03*
D59*
X002699Y003956D03*
X004452Y006539D03*
D60*
X002688Y006539D03*
X004442Y003956D03*
D61*
X004467Y003976D03*
X004488Y003986D03*
X002970Y004376D03*
X002663Y003976D03*
X003585Y005627D03*
X003872Y005760D03*
X004170Y006119D03*
X002663Y006519D03*
X002622Y006488D03*
D62*
X002632Y006498D03*
X002652Y006509D03*
X004477Y006519D03*
X003268Y004735D03*
X002652Y003986D03*
X004498Y003997D03*
D63*
X004513Y004007D03*
X004565Y004048D03*
X004236Y004417D03*
X003898Y004745D03*
X003252Y004745D03*
X002945Y004397D03*
X002627Y004007D03*
X002637Y003997D03*
X002596Y004028D03*
X003252Y005760D03*
X003560Y005934D03*
X004216Y006088D03*
X004544Y006468D03*
X004503Y006498D03*
X004493Y006509D03*
X002596Y006468D03*
D64*
X002606Y006478D03*
X002606Y004017D03*
X004524Y004017D03*
D65*
X004539Y004028D03*
X004590Y004069D03*
X004221Y004407D03*
X002909Y004417D03*
X002570Y004048D03*
X003237Y005750D03*
X002909Y006088D03*
X002570Y006447D03*
X003893Y005750D03*
X004559Y006457D03*
D66*
X004570Y006447D03*
X004231Y006078D03*
X002898Y006078D03*
X002560Y006437D03*
X002581Y006457D03*
X002898Y004427D03*
X002560Y004058D03*
X002581Y004038D03*
X004252Y004427D03*
X004549Y004038D03*
X004580Y004058D03*
D67*
X004616Y004089D03*
X004626Y004099D03*
X004636Y004110D03*
X004647Y004120D03*
X004288Y004458D03*
X004267Y004438D03*
X003929Y004766D03*
X003939Y004776D03*
X003221Y004766D03*
X002883Y004438D03*
X002524Y004089D03*
X002514Y004099D03*
X002545Y004069D03*
X003919Y005729D03*
X004257Y006058D03*
X004247Y006068D03*
X004595Y006427D03*
X004585Y006437D03*
X004616Y006406D03*
X002883Y006068D03*
X002873Y006058D03*
X002842Y006037D03*
X002524Y006406D03*
X002545Y006427D03*
D68*
X002535Y006416D03*
X003221Y005740D03*
X003908Y005740D03*
X004606Y006416D03*
X004277Y004448D03*
X002873Y004448D03*
X002535Y004079D03*
D69*
X003913Y004755D03*
X004600Y004079D03*
D70*
X004662Y004130D03*
X004682Y004151D03*
X004713Y004181D03*
X004313Y004479D03*
X003575Y004561D03*
X003432Y004981D03*
X003524Y005135D03*
X003770Y005135D03*
X003206Y005729D03*
X002816Y006017D03*
X002499Y006386D03*
X004293Y006027D03*
X004631Y006396D03*
X004662Y006365D03*
X004682Y006345D03*
X002837Y004479D03*
X002499Y004110D03*
X002447Y004161D03*
D71*
X003585Y004110D03*
X003585Y004550D03*
X004016Y004909D03*
X003831Y005032D03*
X003893Y005237D03*
X003893Y005391D03*
X004006Y005586D03*
X003585Y005647D03*
X003565Y005463D03*
X004846Y006099D03*
D72*
X004652Y006375D03*
X004641Y006386D03*
X004283Y006037D03*
X003934Y005719D03*
X003196Y005719D03*
X002827Y006027D03*
X002806Y006006D03*
X002458Y006345D03*
X002478Y006365D03*
X002488Y006375D03*
X002509Y006396D03*
X003216Y004776D03*
X002857Y004458D03*
X002847Y004468D03*
X002488Y004120D03*
X002478Y004130D03*
X002458Y004151D03*
X002437Y004171D03*
X004303Y004468D03*
X004693Y004161D03*
X004703Y004171D03*
D73*
X002468Y004140D03*
X002468Y006355D03*
D74*
X003580Y004140D03*
D75*
X004672Y004140D03*
X004272Y006047D03*
X004672Y006355D03*
X002857Y006047D03*
D76*
X003580Y004653D03*
X003580Y004161D03*
D77*
X003575Y004171D03*
D78*
X003201Y004786D03*
X003191Y004796D03*
X002822Y004489D03*
X002811Y004499D03*
X002791Y004520D03*
X002781Y004530D03*
X002422Y004181D03*
X002412Y004192D03*
X002391Y004212D03*
X003755Y004981D03*
X003949Y004786D03*
X004339Y004499D03*
X004359Y004520D03*
X004370Y004530D03*
X004739Y004212D03*
X004749Y004222D03*
X004759Y004233D03*
X004780Y004253D03*
X004718Y004192D03*
X003939Y005709D03*
X004308Y006017D03*
X004318Y006006D03*
X004708Y006324D03*
X004718Y006314D03*
X004729Y006304D03*
X004749Y006283D03*
X004759Y006273D03*
X003180Y005709D03*
X002442Y006334D03*
X002422Y006314D03*
X002412Y006304D03*
X002391Y006283D03*
X002381Y006273D03*
D79*
X003580Y004181D03*
D80*
X003575Y004192D03*
D81*
X004349Y004509D03*
X004729Y004202D03*
X003765Y005125D03*
X003519Y005125D03*
X004339Y005986D03*
X004739Y006293D03*
X002401Y006293D03*
X002401Y004202D03*
D82*
X003580Y004202D03*
D83*
X003575Y004212D03*
D84*
X004375Y004540D03*
X004795Y004274D03*
X003760Y005114D03*
X004354Y005976D03*
X002775Y005976D03*
X002335Y006222D03*
X002335Y004274D03*
X002386Y004222D03*
D85*
X003575Y004222D03*
D86*
X003175Y004807D03*
X003555Y005422D03*
X003165Y005688D03*
X002765Y005965D03*
X002376Y006263D03*
X002365Y006252D03*
X002355Y006242D03*
X003954Y005699D03*
X003965Y005688D03*
X004365Y005965D03*
X004764Y006263D03*
X004775Y006252D03*
X004785Y006242D03*
X004805Y006222D03*
X003975Y004807D03*
X004805Y004284D03*
X004816Y004294D03*
X002376Y004233D03*
X002365Y004243D03*
X002355Y004253D03*
X002324Y004294D03*
D87*
X003575Y004233D03*
D88*
X003575Y004243D03*
D89*
X003960Y004796D03*
X004329Y004489D03*
X004770Y004243D03*
X003591Y004899D03*
X003170Y005699D03*
X002801Y005996D03*
X002432Y006324D03*
X004329Y005996D03*
X004698Y006334D03*
D90*
X003575Y004253D03*
D91*
X002345Y004263D03*
X002786Y005986D03*
X002345Y006232D03*
X004785Y004263D03*
D92*
X003262Y004263D03*
D93*
X003883Y004263D03*
D94*
X003575Y004591D03*
X003206Y004274D03*
D95*
X002770Y004540D03*
X002329Y004284D03*
X002309Y004315D03*
X003519Y005114D03*
X003990Y004827D03*
X004821Y004304D03*
X003980Y005668D03*
X003591Y005637D03*
X002760Y005955D03*
X002750Y005945D03*
X002329Y006211D03*
X002309Y006181D03*
X003560Y006386D03*
X004370Y005955D03*
X004821Y006201D03*
D96*
X004160Y006693D03*
X003565Y006898D03*
X003145Y006211D03*
X003596Y004930D03*
X003165Y004284D03*
D97*
X003980Y004284D03*
X003591Y005596D03*
D98*
X003160Y004827D03*
X002319Y004304D03*
X002319Y006201D03*
X004811Y006211D03*
X004831Y006181D03*
D99*
X004252Y006652D03*
X004037Y006191D03*
X003093Y006191D03*
X004037Y004304D03*
D100*
X004385Y004550D03*
X004395Y004561D03*
X004826Y004315D03*
X003760Y005104D03*
X003401Y004991D03*
X003155Y004837D03*
X002755Y004561D03*
X003145Y005668D03*
X002745Y005934D03*
X002314Y006191D03*
X003985Y005658D03*
X004375Y005945D03*
X004826Y006191D03*
D101*
X004836Y006170D03*
X004836Y004325D03*
X002304Y004325D03*
X002304Y006170D03*
D102*
X003068Y004325D03*
D103*
X004083Y004325D03*
X003591Y005617D03*
X004083Y006170D03*
X003047Y006170D03*
D104*
X003139Y005658D03*
X002299Y006160D03*
X004001Y004848D03*
X002299Y004335D03*
D105*
X002729Y004930D03*
X002729Y004950D03*
X002729Y004960D03*
X002729Y004971D03*
X002729Y004981D03*
X002729Y004991D03*
X002729Y005012D03*
X002729Y005022D03*
X002729Y005032D03*
X002729Y005043D03*
X002729Y005053D03*
X002729Y005073D03*
X002729Y005084D03*
X002729Y005094D03*
X002729Y005104D03*
X002729Y005114D03*
X002729Y005135D03*
X002729Y005145D03*
X002729Y005155D03*
X002729Y005166D03*
X002729Y005176D03*
X002729Y005196D03*
X002729Y005207D03*
X002729Y005217D03*
X002729Y005227D03*
X002729Y005237D03*
X002729Y005258D03*
X002729Y005268D03*
X002729Y005278D03*
X002729Y005289D03*
X002729Y005299D03*
X002729Y005319D03*
X002729Y005330D03*
X002729Y005340D03*
X002729Y005350D03*
X002729Y005360D03*
X002729Y005381D03*
X002729Y005391D03*
X002729Y005401D03*
X002729Y005412D03*
X002729Y005422D03*
X002729Y005442D03*
X002729Y005453D03*
X003150Y004848D03*
X003519Y005104D03*
X003785Y004991D03*
X004841Y004345D03*
X004841Y004335D03*
X004380Y005934D03*
X004841Y006160D03*
D106*
X004847Y006150D03*
X003996Y005647D03*
X003134Y005647D03*
X002734Y005914D03*
X002294Y006150D03*
X003145Y004858D03*
X002745Y004581D03*
X002294Y004345D03*
X004006Y004858D03*
X004406Y004581D03*
X004847Y004356D03*
D107*
X004011Y004868D03*
X003662Y005176D03*
X003365Y005012D03*
X003396Y005545D03*
X002729Y005904D03*
X002288Y006140D03*
X002729Y004919D03*
X002288Y004356D03*
D108*
X002288Y004366D03*
X002288Y004376D03*
X002729Y004899D03*
X003344Y005032D03*
X003693Y005360D03*
X003796Y005535D03*
X004001Y005627D03*
X004400Y005893D03*
X004852Y006129D03*
X003365Y005524D03*
X002729Y005893D03*
X002288Y006129D03*
X004411Y004602D03*
X004852Y004376D03*
D109*
X002986Y004366D03*
X004462Y006529D03*
D110*
X004846Y006140D03*
X004395Y005904D03*
X004211Y005596D03*
X003780Y005545D03*
X003524Y005094D03*
X003350Y005022D03*
X002724Y004909D03*
X002745Y004591D03*
X003124Y005627D03*
X004211Y004950D03*
X004406Y004591D03*
X004672Y004950D03*
X004672Y004960D03*
X004846Y004366D03*
X004672Y005586D03*
X004672Y005596D03*
D111*
X004216Y005617D03*
X003447Y005186D03*
X003314Y005063D03*
X003334Y005494D03*
X002288Y006109D03*
X002288Y004386D03*
X004852Y004386D03*
D112*
X004190Y004386D03*
X002960Y004386D03*
X002939Y006109D03*
D113*
X003119Y005596D03*
X003273Y005401D03*
X003262Y005381D03*
X003252Y005340D03*
X003252Y005330D03*
X003252Y005207D03*
X003252Y005196D03*
X003262Y005155D03*
X003591Y004889D03*
X003683Y005227D03*
X003693Y005268D03*
X003693Y005278D03*
X003878Y005207D03*
X003878Y005196D03*
X003888Y005217D03*
X003888Y005227D03*
X003888Y005401D03*
X003888Y005412D03*
X003888Y005422D03*
X003878Y005442D03*
X004400Y005873D03*
X004677Y005627D03*
X004852Y004397D03*
X002288Y004397D03*
X002288Y006099D03*
D114*
X002924Y006099D03*
X004206Y006099D03*
X004524Y006488D03*
X004206Y004397D03*
X002924Y004407D03*
D115*
X002288Y004407D03*
X003519Y005073D03*
X003837Y005043D03*
X003119Y005576D03*
X002288Y006088D03*
D116*
X003134Y004919D03*
X004016Y004919D03*
X004211Y004909D03*
X004416Y004643D03*
X004847Y004407D03*
X004211Y005637D03*
D117*
X002801Y004509D03*
D118*
X002765Y004550D03*
X003996Y004837D03*
D119*
X004400Y004571D03*
X003560Y005432D03*
X003416Y005555D03*
X002729Y005432D03*
X002729Y005371D03*
X002729Y005309D03*
X002729Y005248D03*
X002729Y005186D03*
X002729Y005125D03*
X002729Y005063D03*
X002729Y005002D03*
X002729Y004940D03*
X002750Y004571D03*
D120*
X002740Y004602D03*
X004216Y005606D03*
D121*
X004400Y005883D03*
X004852Y006119D03*
X003837Y005504D03*
X003693Y005330D03*
X003673Y005196D03*
X003857Y005176D03*
X003816Y005012D03*
X003519Y005084D03*
X003437Y005196D03*
X003437Y005207D03*
X003437Y005217D03*
X003437Y005278D03*
X003437Y005289D03*
X003447Y005319D03*
X003447Y005330D03*
X003457Y005340D03*
X003324Y005483D03*
X003314Y005473D03*
X003119Y005606D03*
X003283Y005104D03*
X003293Y005094D03*
X003293Y005084D03*
X003303Y005073D03*
X002729Y004889D03*
X002740Y004612D03*
X004216Y004930D03*
D122*
X003580Y004612D03*
D123*
X004016Y004889D03*
X003749Y005084D03*
X003698Y005340D03*
X003698Y005350D03*
X003821Y005514D03*
X003473Y005360D03*
X003452Y005176D03*
X003329Y005043D03*
X003134Y004889D03*
X003350Y005514D03*
X004416Y004612D03*
D124*
X004416Y004622D03*
X004016Y004899D03*
X003821Y005022D03*
X003678Y005207D03*
X003678Y005217D03*
X003698Y005289D03*
X003698Y005299D03*
X003698Y005319D03*
X003872Y005453D03*
X003852Y005483D03*
X003432Y005268D03*
X003432Y005258D03*
X003432Y005237D03*
X003432Y005227D03*
X003257Y005176D03*
X003257Y005166D03*
X003278Y005114D03*
X003257Y005350D03*
X003257Y005360D03*
X003278Y005412D03*
X003278Y005422D03*
X003288Y005442D03*
X003309Y005463D03*
X003134Y004899D03*
X002734Y004622D03*
D125*
X003580Y004622D03*
D126*
X003893Y005248D03*
X003719Y005432D03*
X002724Y005863D03*
X002734Y004632D03*
D127*
X003575Y004632D03*
D128*
X004416Y004632D03*
D129*
X003744Y005073D03*
X004001Y005576D03*
X002740Y004643D03*
D130*
X003575Y004643D03*
D131*
X003575Y004663D03*
D132*
X003575Y004673D03*
D133*
X003575Y004684D03*
D134*
X003575Y004694D03*
D135*
X003796Y004704D03*
X003591Y005606D03*
X004011Y006201D03*
X003560Y006375D03*
X003119Y006201D03*
D136*
X003237Y004755D03*
D137*
X003170Y004817D03*
X003980Y004817D03*
X003150Y005678D03*
X003560Y006908D03*
D138*
X003560Y005945D03*
X003129Y005637D03*
X003755Y005094D03*
X004216Y005094D03*
X004216Y005104D03*
X004216Y005114D03*
X004216Y005135D03*
X004216Y005145D03*
X004216Y005155D03*
X004216Y005166D03*
X004216Y005176D03*
X004216Y005196D03*
X004216Y005207D03*
X004216Y005084D03*
X004216Y005073D03*
X004216Y005053D03*
X004216Y005043D03*
X004216Y005032D03*
X004216Y005022D03*
X004216Y005012D03*
X004216Y004991D03*
X004216Y004981D03*
X004216Y004971D03*
X004216Y004960D03*
X004216Y005360D03*
X004216Y005381D03*
X004216Y005391D03*
X004216Y005401D03*
X004216Y005412D03*
X004216Y005422D03*
X004216Y005442D03*
X004216Y005453D03*
X004216Y005463D03*
X004216Y005473D03*
X004216Y005483D03*
X004216Y005504D03*
X004216Y005514D03*
X004216Y005524D03*
X004216Y005535D03*
X004216Y005545D03*
X004216Y005565D03*
X004216Y005576D03*
X004216Y005586D03*
X004001Y005637D03*
X004390Y005914D03*
X004677Y005576D03*
X003139Y004868D03*
D139*
X003139Y004878D03*
X003673Y005186D03*
X004011Y004878D03*
X004001Y005617D03*
X003119Y005617D03*
D140*
X002729Y004878D03*
X004400Y005863D03*
D141*
X003134Y004909D03*
D142*
X004672Y004909D03*
X004672Y005637D03*
D143*
X004216Y005627D03*
X003898Y005381D03*
X003898Y005360D03*
X003898Y005350D03*
X003898Y005340D03*
X003898Y005330D03*
X003898Y005319D03*
X003898Y005299D03*
X003898Y005289D03*
X003898Y005278D03*
X003898Y005268D03*
X003898Y005258D03*
X003724Y005422D03*
X004216Y004919D03*
D144*
X004672Y004919D03*
X004006Y005596D03*
X003862Y005473D03*
X003862Y005463D03*
X003688Y005258D03*
X003688Y005237D03*
X003442Y005299D03*
X003247Y005299D03*
X003247Y005289D03*
X003247Y005278D03*
X003247Y005268D03*
X003247Y005258D03*
X003247Y005237D03*
X003247Y005227D03*
X003247Y005217D03*
X003268Y005145D03*
X003268Y005135D03*
X003247Y005319D03*
X003268Y005391D03*
X003298Y005453D03*
X002724Y005873D03*
D145*
X003134Y004930D03*
X004016Y004930D03*
D146*
X003565Y005453D03*
X003462Y005350D03*
X003339Y005504D03*
X003319Y005053D03*
X003811Y005524D03*
X004006Y005606D03*
X004672Y005606D03*
X004672Y004930D03*
X002724Y005883D03*
X002283Y006119D03*
D147*
X003596Y004940D03*
D148*
X003478Y005371D03*
X004216Y004940D03*
D149*
X004672Y004940D03*
X004672Y005617D03*
D150*
X003591Y005576D03*
X003591Y004950D03*
D151*
X003596Y004960D03*
X003585Y005565D03*
D152*
X003591Y004971D03*
X002729Y005463D03*
D153*
X003565Y005442D03*
X004672Y005442D03*
X004672Y005453D03*
X004672Y005463D03*
X004672Y005473D03*
X004672Y005483D03*
X004672Y005504D03*
X004672Y005514D03*
X004672Y005524D03*
X004672Y005535D03*
X004672Y005545D03*
X004672Y005565D03*
X004672Y005422D03*
X004672Y005412D03*
X004672Y005401D03*
X004672Y005391D03*
X004672Y005381D03*
X004672Y005360D03*
X004672Y005207D03*
X004672Y005196D03*
X004672Y005176D03*
X004672Y005166D03*
X004672Y005155D03*
X004672Y005145D03*
X004672Y005135D03*
X004672Y005114D03*
X004672Y005104D03*
X004672Y005094D03*
X004672Y005084D03*
X004672Y005073D03*
X004672Y005053D03*
X004672Y005043D03*
X004672Y005032D03*
X004672Y005022D03*
X004672Y005012D03*
X004672Y004991D03*
X004672Y004981D03*
X004672Y004971D03*
D154*
X004385Y005924D03*
X003380Y005002D03*
D155*
X003801Y005002D03*
D156*
X004216Y005002D03*
X004216Y005063D03*
X004216Y005125D03*
X004216Y005186D03*
X004216Y005371D03*
X004216Y005432D03*
X004216Y005494D03*
X004216Y005555D03*
D157*
X004672Y005555D03*
X004672Y005494D03*
X004672Y005432D03*
X004672Y005371D03*
X004672Y005186D03*
X004672Y005125D03*
X004672Y005063D03*
X004672Y005002D03*
D158*
X003837Y005053D03*
D159*
X003698Y005309D03*
X003842Y005494D03*
X003432Y005248D03*
X003257Y005186D03*
X003278Y005125D03*
X003288Y005432D03*
D160*
X003647Y005145D03*
D161*
X003652Y005155D03*
X003560Y005893D03*
D162*
X003647Y005166D03*
X003114Y006734D03*
D163*
X003878Y005432D03*
X003867Y005186D03*
X003262Y005371D03*
D164*
X003247Y005309D03*
X003247Y005248D03*
X003442Y005309D03*
X003688Y005248D03*
X004846Y006109D03*
D165*
X004447Y005309D03*
X004447Y005248D03*
X003565Y005863D03*
D166*
X003898Y005371D03*
X003898Y005309D03*
D167*
X003688Y005371D03*
D168*
X003724Y005442D03*
D169*
X003719Y005453D03*
X002724Y005852D03*
X004846Y006088D03*
D170*
X002729Y005473D03*
D171*
X002729Y005483D03*
X002729Y005586D03*
D172*
X002729Y005494D03*
D173*
X002729Y005504D03*
X002729Y005514D03*
X002729Y005524D03*
X002729Y005535D03*
X002729Y005545D03*
D174*
X003380Y005535D03*
D175*
X002729Y005555D03*
D176*
X002740Y005924D03*
X003755Y005555D03*
D177*
X003560Y006345D03*
X002729Y005576D03*
X002729Y005565D03*
D178*
X003119Y005586D03*
D179*
X002729Y005596D03*
X003980Y006744D03*
D180*
X003970Y005678D03*
D181*
X003560Y005801D03*
D182*
X003565Y005811D03*
D183*
X003565Y005822D03*
D184*
X003560Y005832D03*
D185*
X003565Y005842D03*
D186*
X003560Y005852D03*
D187*
X004400Y005852D03*
D188*
X003565Y005873D03*
X003165Y006744D03*
D189*
X003560Y005883D03*
D190*
X003565Y005904D03*
D191*
X003560Y005924D03*
D192*
X004185Y006109D03*
X004534Y006478D03*
D193*
X004119Y006150D03*
D194*
X003903Y006232D03*
X003073Y006724D03*
D195*
X004795Y006232D03*
D196*
X003560Y006242D03*
D197*
X003560Y006252D03*
D198*
X003560Y006273D03*
X003570Y006826D03*
D199*
X003560Y006283D03*
D200*
X003560Y006293D03*
D201*
X003565Y006304D03*
D202*
X003560Y006314D03*
D203*
X003560Y006324D03*
D204*
X003560Y006355D03*
D205*
X003560Y006365D03*
D206*
X004231Y006662D03*
D207*
X002929Y006673D03*
D208*
X004134Y006703D03*
D209*
X003037Y006714D03*
D210*
X004072Y006724D03*
D211*
X004031Y006734D03*
D212*
X003570Y006755D03*
D213*
X003570Y006765D03*
D214*
X003570Y006775D03*
D215*
X003565Y006785D03*
D216*
X003570Y006796D03*
D217*
X003565Y006806D03*
D218*
X003570Y006816D03*
D219*
X003570Y006837D03*
D220*
X003570Y006847D03*
D221*
X003565Y006857D03*
D222*
X003565Y006867D03*
D223*
X002406Y007971D02*
X002406Y008432D01*
X002099Y008432D02*
X002406Y007971D01*
X002099Y007971D02*
X002099Y008432D01*
X001946Y008432D02*
X001793Y008432D01*
X001869Y008432D02*
X001869Y007971D01*
X001793Y007971D02*
X001946Y007971D01*
X001639Y008125D02*
X001639Y008432D01*
X001332Y008432D02*
X001332Y008125D01*
X001486Y007971D01*
X001639Y008125D01*
X001489Y007432D02*
X001643Y007278D01*
X001643Y006971D01*
X001796Y007048D02*
X002103Y007355D01*
X002103Y007048D01*
X002026Y006971D01*
X001873Y006971D01*
X001796Y007048D01*
X001796Y007355D01*
X001873Y007432D01*
X002026Y007432D01*
X002103Y007355D01*
X001643Y007201D02*
X001336Y007201D01*
X001336Y007278D02*
X001489Y007432D01*
X001336Y007278D02*
X001336Y006971D01*
X001489Y006432D02*
X001643Y006278D01*
X001643Y005971D01*
X001796Y005971D02*
X002103Y005971D01*
X001949Y005971D02*
X001949Y006432D01*
X001796Y006278D01*
X001643Y006201D02*
X001336Y006201D01*
X001336Y006278D02*
X001489Y006432D01*
X001336Y006278D02*
X001336Y005971D01*
X001489Y005432D02*
X001643Y005278D01*
X001643Y004971D01*
X001796Y004971D02*
X002103Y005278D01*
X002103Y005355D01*
X002026Y005432D01*
X001873Y005432D01*
X001796Y005355D01*
X001643Y005201D02*
X001336Y005201D01*
X001336Y005278D02*
X001489Y005432D01*
X001336Y005278D02*
X001336Y004971D01*
X001796Y004971D02*
X002103Y004971D01*
X002026Y004432D02*
X001873Y004432D01*
X001796Y004355D01*
X001643Y004278D02*
X001643Y003971D01*
X001796Y004048D02*
X001873Y003971D01*
X002026Y003971D01*
X002103Y004048D01*
X002103Y004125D01*
X002026Y004201D01*
X001949Y004201D01*
X002026Y004201D02*
X002103Y004278D01*
X002103Y004355D01*
X002026Y004432D01*
X001643Y004278D02*
X001489Y004432D01*
X001336Y004278D01*
X001336Y003971D01*
X001336Y004201D02*
X001643Y004201D01*
X001489Y003432D02*
X001643Y003278D01*
X001643Y002971D01*
X001643Y003201D02*
X001336Y003201D01*
X001336Y003278D02*
X001489Y003432D01*
X001336Y003278D02*
X001336Y002971D01*
X001796Y003201D02*
X002103Y003201D01*
X002026Y002971D02*
X002026Y003432D01*
X001796Y003201D01*
X001796Y002432D02*
X001796Y002201D01*
X001949Y002278D01*
X002026Y002278D01*
X002103Y002201D01*
X002103Y002048D01*
X002026Y001971D01*
X001873Y001971D01*
X001796Y002048D01*
X001643Y001971D02*
X001643Y002278D01*
X001489Y002432D01*
X001336Y002278D01*
X001336Y001971D01*
X001336Y002201D02*
X001643Y002201D01*
X001796Y002432D02*
X002103Y002432D01*
X002066Y009971D02*
X002066Y010432D01*
X002373Y009971D01*
X002373Y010432D01*
X002526Y010432D02*
X002756Y010432D01*
X002833Y010355D01*
X002833Y010048D01*
X002756Y009971D01*
X002526Y009971D01*
X002526Y010432D01*
X001912Y010355D02*
X001836Y010432D01*
X001682Y010432D01*
X001605Y010355D01*
X001605Y010048D01*
X001682Y009971D01*
X001836Y009971D01*
X001912Y010048D01*
X001912Y010201D01*
X001759Y010201D01*
X003336Y010201D02*
X003489Y010278D01*
X003566Y010278D01*
X003643Y010201D01*
X003643Y010048D01*
X003566Y009971D01*
X003412Y009971D01*
X003336Y010048D01*
X003336Y010201D02*
X003336Y010432D01*
X003643Y010432D01*
X003796Y010432D02*
X003796Y010125D01*
X003949Y009971D01*
X004103Y010125D01*
X004103Y010432D01*
X010566Y010355D02*
X010566Y010278D01*
X010643Y010201D01*
X010873Y010201D01*
X010873Y010048D02*
X010873Y010355D01*
X010796Y010432D01*
X010643Y010432D01*
X010566Y010355D01*
X010566Y010048D02*
X010643Y009971D01*
X010796Y009971D01*
X010873Y010048D01*
X011566Y010048D02*
X011566Y010125D01*
X011643Y010201D01*
X011796Y010201D01*
X011873Y010125D01*
X011873Y010048D01*
X011796Y009971D01*
X011643Y009971D01*
X011566Y010048D01*
X011643Y010201D02*
X011566Y010278D01*
X011566Y010355D01*
X011643Y010432D01*
X011796Y010432D01*
X011873Y010355D01*
X011873Y010278D01*
X011796Y010201D01*
X012566Y010048D02*
X012566Y009971D01*
X012566Y010048D02*
X012873Y010355D01*
X012873Y010432D01*
X012566Y010432D01*
X012973Y008432D02*
X012819Y008355D01*
X012666Y008201D01*
X012896Y008201D01*
X012973Y008125D01*
X012973Y008048D01*
X012896Y007971D01*
X012743Y007971D01*
X012666Y008048D01*
X012666Y008201D01*
X012666Y007432D02*
X012666Y007201D01*
X012819Y007278D01*
X012896Y007278D01*
X012973Y007201D01*
X012973Y007048D01*
X012896Y006971D01*
X012743Y006971D01*
X012666Y007048D01*
X012666Y007432D02*
X012973Y007432D01*
X012896Y006432D02*
X012666Y006201D01*
X012973Y006201D01*
X012896Y005971D02*
X012896Y006432D01*
X012896Y005432D02*
X012743Y005432D01*
X012666Y005355D01*
X012819Y005201D02*
X012896Y005201D01*
X012973Y005125D01*
X012973Y005048D01*
X012896Y004971D01*
X012743Y004971D01*
X012666Y005048D01*
X012896Y005201D02*
X012973Y005278D01*
X012973Y005355D01*
X012896Y005432D01*
X012896Y004432D02*
X012743Y004432D01*
X012666Y004355D01*
X012896Y004432D02*
X012973Y004355D01*
X012973Y004278D01*
X012666Y003971D01*
X012973Y003971D01*
X013030Y003432D02*
X013030Y002971D01*
X013183Y002971D02*
X012876Y002971D01*
X012723Y002971D02*
X012416Y003432D01*
X012262Y003432D02*
X011955Y003432D01*
X012109Y003432D02*
X012109Y002971D01*
X012416Y002971D02*
X012723Y003432D01*
X012876Y003278D02*
X013030Y003432D01*
X013030Y002432D02*
X013030Y001971D01*
X013183Y001971D02*
X012876Y001971D01*
X012723Y001971D02*
X012416Y002432D01*
X012262Y002355D02*
X012262Y002201D01*
X012186Y002125D01*
X011955Y002125D01*
X011955Y001971D02*
X011955Y002432D01*
X012186Y002432D01*
X012262Y002355D01*
X012109Y002125D02*
X012262Y001971D01*
X012416Y001971D02*
X012723Y002432D01*
X012876Y002278D02*
X013030Y002432D01*
M02*
