G75*
%MOIN*%
%OFA0B0*%
%FSLAX24Y24*%
%IPPOS*%
%LPD*%
%AMOC8*
5,1,8,0,0,1.08239X$1,22.5*
%
%ADD10C,0.0840*%
%ADD11R,0.0474X0.0631*%
%ADD12C,0.0148*%
%ADD13R,0.0867X0.0710*%
%ADD14OC8,0.0476*%
D10*
X000721Y000780D03*
X000721Y001764D03*
X000721Y002764D03*
X000721Y003764D03*
X000721Y004764D03*
X000721Y005764D03*
X000721Y006764D03*
X000721Y007780D03*
X000721Y008780D03*
X000721Y009780D03*
X000721Y010780D03*
X000721Y011780D03*
X000721Y012780D03*
X006252Y006390D03*
X008221Y006390D03*
X009402Y006390D03*
X014894Y006780D03*
X014894Y007811D03*
X014894Y008811D03*
X014894Y009811D03*
X014894Y010811D03*
X014894Y011811D03*
X014894Y012811D03*
X014894Y005780D03*
X014894Y004780D03*
X014894Y003780D03*
X014894Y002780D03*
X014894Y001780D03*
X014894Y000780D03*
D11*
X011646Y004796D03*
X011272Y005662D03*
X012020Y005662D03*
X012020Y007394D03*
X011272Y007394D03*
X011646Y008260D03*
X004304Y007394D03*
X003556Y007394D03*
X003930Y008260D03*
X004304Y005662D03*
X003556Y005662D03*
X003930Y004796D03*
D12*
X003527Y003441D02*
X003453Y003515D01*
X003699Y003515D01*
X003871Y003343D01*
X003871Y003097D01*
X003699Y002925D01*
X003453Y002925D01*
X003281Y003097D01*
X003281Y003343D01*
X003453Y003515D01*
X003499Y003404D01*
X003653Y003404D01*
X003760Y003297D01*
X003760Y003143D01*
X003653Y003036D01*
X003499Y003036D01*
X003392Y003143D01*
X003392Y003297D01*
X003499Y003404D01*
X003545Y003293D01*
X003607Y003293D01*
X003649Y003251D01*
X003649Y003189D01*
X003607Y003147D01*
X003545Y003147D01*
X003503Y003189D01*
X003503Y003251D01*
X003545Y003293D01*
X004234Y002734D02*
X004160Y002808D01*
X004406Y002808D01*
X004578Y002636D01*
X004578Y002390D01*
X004406Y002218D01*
X004160Y002218D01*
X003988Y002390D01*
X003988Y002636D01*
X004160Y002808D01*
X004206Y002697D01*
X004360Y002697D01*
X004467Y002590D01*
X004467Y002436D01*
X004360Y002329D01*
X004206Y002329D01*
X004099Y002436D01*
X004099Y002590D01*
X004206Y002697D01*
X004252Y002586D01*
X004314Y002586D01*
X004356Y002544D01*
X004356Y002482D01*
X004314Y002440D01*
X004252Y002440D01*
X004210Y002482D01*
X004210Y002544D01*
X004252Y002586D01*
X011514Y002562D02*
X011588Y002636D01*
X011588Y002390D01*
X011416Y002218D01*
X011170Y002218D01*
X010998Y002390D01*
X010998Y002636D01*
X011170Y002808D01*
X011416Y002808D01*
X011588Y002636D01*
X011477Y002590D01*
X011477Y002436D01*
X011370Y002329D01*
X011216Y002329D01*
X011109Y002436D01*
X011109Y002590D01*
X011216Y002697D01*
X011370Y002697D01*
X011477Y002590D01*
X011366Y002544D01*
X011366Y002482D01*
X011324Y002440D01*
X011262Y002440D01*
X011220Y002482D01*
X011220Y002544D01*
X011262Y002586D01*
X011324Y002586D01*
X011366Y002544D01*
X012221Y003269D02*
X012295Y003343D01*
X012295Y003097D01*
X012123Y002925D01*
X011877Y002925D01*
X011705Y003097D01*
X011705Y003343D01*
X011877Y003515D01*
X012123Y003515D01*
X012295Y003343D01*
X012184Y003297D01*
X012184Y003143D01*
X012077Y003036D01*
X011923Y003036D01*
X011816Y003143D01*
X011816Y003297D01*
X011923Y003404D01*
X012077Y003404D01*
X012184Y003297D01*
X012073Y003251D01*
X012073Y003189D01*
X012031Y003147D01*
X011969Y003147D01*
X011927Y003189D01*
X011927Y003251D01*
X011969Y003293D01*
X012031Y003293D01*
X012073Y003251D01*
X012154Y010101D02*
X012228Y010027D01*
X011987Y009984D01*
X011787Y010124D01*
X011744Y010365D01*
X011884Y010565D01*
X012125Y010608D01*
X012325Y010468D01*
X012368Y010227D01*
X012228Y010027D01*
X012163Y010128D01*
X012013Y010101D01*
X011888Y010189D01*
X011861Y010339D01*
X011949Y010464D01*
X012099Y010491D01*
X012224Y010403D01*
X012251Y010253D01*
X012163Y010128D01*
X012099Y010229D01*
X012039Y010219D01*
X011989Y010253D01*
X011979Y010313D01*
X012013Y010363D01*
X012073Y010373D01*
X012123Y010339D01*
X012133Y010279D01*
X012099Y010229D01*
X011334Y010675D02*
X011408Y010601D01*
X011167Y010558D01*
X010967Y010698D01*
X010924Y010939D01*
X011064Y011139D01*
X011305Y011182D01*
X011505Y011042D01*
X011548Y010801D01*
X011408Y010601D01*
X011343Y010702D01*
X011193Y010675D01*
X011068Y010763D01*
X011041Y010913D01*
X011129Y011038D01*
X011279Y011065D01*
X011404Y010977D01*
X011431Y010827D01*
X011343Y010702D01*
X011279Y010803D01*
X011219Y010793D01*
X011169Y010827D01*
X011159Y010887D01*
X011193Y010937D01*
X011253Y010947D01*
X011303Y010913D01*
X011313Y010853D01*
X011279Y010803D01*
X004021Y010895D02*
X003947Y010821D01*
X003904Y011062D01*
X004044Y011262D01*
X004285Y011305D01*
X004485Y011165D01*
X004528Y010924D01*
X004388Y010724D01*
X004147Y010681D01*
X003947Y010821D01*
X004048Y010886D01*
X004021Y011036D01*
X004109Y011161D01*
X004259Y011188D01*
X004384Y011100D01*
X004411Y010950D01*
X004323Y010825D01*
X004173Y010798D01*
X004048Y010886D01*
X004149Y010950D01*
X004139Y011010D01*
X004173Y011060D01*
X004233Y011070D01*
X004283Y011036D01*
X004293Y010976D01*
X004259Y010926D01*
X004199Y010916D01*
X004149Y010950D01*
X003448Y010075D02*
X003374Y010001D01*
X003331Y010242D01*
X003471Y010442D01*
X003712Y010485D01*
X003912Y010345D01*
X003955Y010104D01*
X003815Y009904D01*
X003574Y009861D01*
X003374Y010001D01*
X003475Y010066D01*
X003448Y010216D01*
X003536Y010341D01*
X003686Y010368D01*
X003811Y010280D01*
X003838Y010130D01*
X003750Y010005D01*
X003600Y009978D01*
X003475Y010066D01*
X003576Y010130D01*
X003566Y010190D01*
X003600Y010240D01*
X003660Y010250D01*
X003710Y010216D01*
X003720Y010156D01*
X003686Y010106D01*
X003626Y010096D01*
X003576Y010130D01*
D13*
X007827Y004008D03*
X007827Y002906D03*
D14*
X004678Y008260D03*
M02*
