G75*
G70*
%OFA0B0*%
%FSLAX24Y24*%
%IPPOS*%
%LPD*%
%AMOC8*
5,1,8,0,0,1.08239X$1,22.5*
%
%ADD10C,0.0000*%
%ADD11C,0.0100*%
%ADD12C,0.0080*%
%ADD13R,0.0338X0.0010*%
%ADD14R,0.0492X0.0010*%
%ADD15R,0.0605X0.0010*%
%ADD16R,0.0697X0.0010*%
%ADD17R,0.0779X0.0010*%
%ADD18R,0.0851X0.0010*%
%ADD19R,0.0923X0.0010*%
%ADD20R,0.0984X0.0010*%
%ADD21R,0.1046X0.0010*%
%ADD22R,0.1107X0.0010*%
%ADD23R,0.1148X0.0010*%
%ADD24R,0.1210X0.0010*%
%ADD25R,0.1251X0.0010*%
%ADD26R,0.1292X0.0010*%
%ADD27R,0.1333X0.0010*%
%ADD28R,0.0625X0.0010*%
%ADD29R,0.0646X0.0010*%
%ADD30R,0.0523X0.0010*%
%ADD31R,0.0543X0.0010*%
%ADD32R,0.0482X0.0010*%
%ADD33R,0.0492X0.0010*%
%ADD34R,0.0451X0.0010*%
%ADD35R,0.0461X0.0010*%
%ADD36R,0.0431X0.0010*%
%ADD37R,0.0441X0.0010*%
%ADD38R,0.0410X0.0010*%
%ADD39R,0.0420X0.0010*%
%ADD40R,0.0400X0.0010*%
%ADD41R,0.0379X0.0010*%
%ADD42R,0.0390X0.0010*%
%ADD43R,0.0369X0.0010*%
%ADD44R,0.0379X0.0010*%
%ADD45R,0.0359X0.0010*%
%ADD46R,0.0349X0.0010*%
%ADD47R,0.0349X0.0010*%
%ADD48R,0.0338X0.0010*%
%ADD49R,0.0328X0.0010*%
%ADD50R,0.0318X0.0010*%
%ADD51R,0.0318X0.0010*%
%ADD52R,0.0308X0.0010*%
%ADD53R,0.0308X0.0010*%
%ADD54R,0.0297X0.0010*%
%ADD55R,0.0287X0.0010*%
%ADD56R,0.0287X0.0010*%
%ADD57R,0.0287X0.0010*%
%ADD58R,0.0277X0.0010*%
%ADD59R,0.0277X0.0010*%
%ADD60R,0.0267X0.0010*%
%ADD61R,0.0267X0.0010*%
%ADD62R,0.0256X0.0010*%
%ADD63R,0.0256X0.0010*%
%ADD64R,0.0246X0.0010*%
%ADD65R,0.0246X0.0010*%
%ADD66R,0.0256X0.0010*%
%ADD67R,0.0236X0.0010*%
%ADD68R,0.0092X0.0010*%
%ADD69R,0.0236X0.0010*%
%ADD70R,0.0236X0.0010*%
%ADD71R,0.0533X0.0010*%
%ADD72R,0.0236X0.0010*%
%ADD73R,0.0677X0.0010*%
%ADD74R,0.0748X0.0010*%
%ADD75R,0.0226X0.0010*%
%ADD76R,0.0800X0.0010*%
%ADD77R,0.0851X0.0010*%
%ADD78R,0.0226X0.0010*%
%ADD79R,0.0902X0.0010*%
%ADD80R,0.0954X0.0010*%
%ADD81R,0.0215X0.0010*%
%ADD82R,0.0995X0.0010*%
%ADD83R,0.0215X0.0010*%
%ADD84R,0.1036X0.0010*%
%ADD85R,0.1076X0.0010*%
%ADD86R,0.0226X0.0010*%
%ADD87R,0.1118X0.0010*%
%ADD88R,0.0215X0.0010*%
%ADD89R,0.0533X0.0010*%
%ADD90R,0.0543X0.0010*%
%ADD91R,0.0441X0.0010*%
%ADD92R,0.0205X0.0010*%
%ADD93R,0.0400X0.0010*%
%ADD94R,0.0410X0.0010*%
%ADD95R,0.0205X0.0010*%
%ADD96R,0.0359X0.0010*%
%ADD97R,0.0195X0.0010*%
%ADD98R,0.0195X0.0010*%
%ADD99R,0.0328X0.0010*%
%ADD100R,0.0328X0.0010*%
%ADD101R,0.0185X0.0010*%
%ADD102R,0.0185X0.0010*%
%ADD103R,0.0174X0.0010*%
%ADD104R,0.0164X0.0010*%
%ADD105R,0.0144X0.0010*%
%ADD106R,0.0287X0.0010*%
%ADD107R,0.0154X0.0010*%
%ADD108R,0.0123X0.0010*%
%ADD109R,0.0277X0.0010*%
%ADD110R,0.0103X0.0010*%
%ADD111R,0.0267X0.0010*%
%ADD112R,0.0061X0.0010*%
%ADD113R,0.0072X0.0010*%
%ADD114R,0.0226X0.0010*%
%ADD115R,0.0195X0.0010*%
%ADD116R,0.0185X0.0010*%
%ADD117R,0.0144X0.0010*%
%ADD118R,0.0123X0.0010*%
%ADD119R,0.0533X0.0010*%
%ADD120R,0.0133X0.0010*%
%ADD121R,0.0113X0.0010*%
%ADD122R,0.0574X0.0010*%
%ADD123R,0.0092X0.0010*%
%ADD124R,0.0605X0.0010*%
%ADD125R,0.0092X0.0010*%
%ADD126R,0.0062X0.0010*%
%ADD127R,0.0646X0.0010*%
%ADD128R,0.0707X0.0010*%
%ADD129R,0.0728X0.0010*%
%ADD130R,0.0769X0.0010*%
%ADD131R,0.0789X0.0010*%
%ADD132R,0.0369X0.0010*%
%ADD133R,0.0256X0.0010*%
%ADD134R,0.0205X0.0010*%
%ADD135R,0.0164X0.0010*%
%ADD136R,0.0144X0.0010*%
%ADD137R,0.0082X0.0010*%
%ADD138R,0.0092X0.0010*%
%ADD139R,0.0072X0.0010*%
%ADD140R,0.0103X0.0010*%
%ADD141R,0.0113X0.0010*%
%ADD142R,0.0031X0.0010*%
%ADD143R,0.0133X0.0010*%
%ADD144R,0.0441X0.0010*%
%ADD145R,0.0144X0.0010*%
%ADD146R,0.0133X0.0010*%
%ADD147R,0.0472X0.0010*%
%ADD148R,0.0502X0.0010*%
%ADD149R,0.0533X0.0010*%
%ADD150R,0.0174X0.0010*%
%ADD151R,0.0174X0.0010*%
%ADD152R,0.0154X0.0010*%
%ADD153R,0.0164X0.0010*%
%ADD154R,0.0174X0.0010*%
%ADD155R,0.0020X0.0010*%
%ADD156R,0.0113X0.0010*%
%ADD157R,0.0502X0.0010*%
%ADD158R,0.0513X0.0010*%
%ADD159R,0.0523X0.0010*%
%ADD160R,0.0103X0.0010*%
%ADD161R,0.0113X0.0010*%
%ADD162R,0.0625X0.0010*%
%ADD163R,0.0103X0.0010*%
%ADD164R,0.0154X0.0010*%
%ADD165R,0.0082X0.0010*%
%ADD166R,0.0051X0.0010*%
%ADD167R,0.0595X0.0010*%
%ADD168R,0.0615X0.0010*%
%ADD169R,0.0636X0.0010*%
%ADD170R,0.0656X0.0010*%
%ADD171R,0.0154X0.0010*%
%ADD172R,0.0656X0.0010*%
%ADD173R,0.0185X0.0010*%
%ADD174R,0.0636X0.0010*%
%ADD175R,0.0082X0.0010*%
%ADD176R,0.0574X0.0010*%
%ADD177R,0.0205X0.0010*%
%ADD178R,0.0800X0.0010*%
%ADD179R,0.0769X0.0010*%
%ADD180R,0.0748X0.0010*%
%ADD181R,0.0718X0.0010*%
%ADD182R,0.0687X0.0010*%
%ADD183R,0.0656X0.0010*%
%ADD184R,0.0041X0.0010*%
%ADD185R,0.0584X0.0010*%
%ADD186R,0.0554X0.0010*%
%ADD187R,0.0461X0.0010*%
%ADD188R,0.0349X0.0010*%
%ADD189R,0.0267X0.0010*%
%ADD190R,0.0297X0.0010*%
%ADD191R,0.0482X0.0010*%
%ADD192R,0.0215X0.0010*%
%ADD193R,0.1128X0.0010*%
%ADD194R,0.1087X0.0010*%
%ADD195R,0.1005X0.0010*%
%ADD196R,0.0964X0.0010*%
%ADD197R,0.0923X0.0010*%
%ADD198R,0.0871X0.0010*%
%ADD199R,0.0820X0.0010*%
%ADD200R,0.0759X0.0010*%
%ADD201R,0.0554X0.0010*%
%ADD202R,0.0472X0.0010*%
%ADD203R,0.0359X0.0010*%
%ADD204R,0.0379X0.0010*%
%ADD205R,0.0431X0.0010*%
%ADD206R,0.0451X0.0010*%
%ADD207R,0.0472X0.0010*%
%ADD208R,0.0513X0.0010*%
%ADD209R,0.1353X0.0010*%
%ADD210R,0.1312X0.0010*%
%ADD211R,0.1271X0.0010*%
%ADD212R,0.1220X0.0010*%
%ADD213R,0.1169X0.0010*%
%ADD214R,0.1118X0.0010*%
%ADD215R,0.1066X0.0010*%
%ADD216R,0.0943X0.0010*%
%ADD217R,0.0882X0.0010*%
%ADD218R,0.0810X0.0010*%
%ADD219R,0.0728X0.0010*%
D10*
X000150Y000150D02*
X014323Y000150D01*
X014323Y011882D01*
X000150Y011882D01*
X000150Y000150D01*
X000413Y000827D02*
X000415Y000866D01*
X000421Y000905D01*
X000431Y000943D01*
X000444Y000980D01*
X000461Y001015D01*
X000481Y001049D01*
X000505Y001080D01*
X000532Y001109D01*
X000561Y001135D01*
X000593Y001158D01*
X000627Y001178D01*
X000663Y001194D01*
X000700Y001206D01*
X000739Y001215D01*
X000778Y001220D01*
X000817Y001221D01*
X000856Y001218D01*
X000895Y001211D01*
X000932Y001200D01*
X000969Y001186D01*
X001004Y001168D01*
X001037Y001147D01*
X001068Y001122D01*
X001096Y001095D01*
X001121Y001065D01*
X001143Y001032D01*
X001162Y000998D01*
X001177Y000962D01*
X001189Y000924D01*
X001197Y000886D01*
X001201Y000847D01*
X001201Y000807D01*
X001197Y000768D01*
X001189Y000730D01*
X001177Y000692D01*
X001162Y000656D01*
X001143Y000622D01*
X001121Y000589D01*
X001096Y000559D01*
X001068Y000532D01*
X001037Y000507D01*
X001004Y000486D01*
X000969Y000468D01*
X000932Y000454D01*
X000895Y000443D01*
X000856Y000436D01*
X000817Y000433D01*
X000778Y000434D01*
X000739Y000439D01*
X000700Y000448D01*
X000663Y000460D01*
X000627Y000476D01*
X000593Y000496D01*
X000561Y000519D01*
X000532Y000545D01*
X000505Y000574D01*
X000481Y000605D01*
X000461Y000639D01*
X000444Y000674D01*
X000431Y000711D01*
X000421Y000749D01*
X000415Y000788D01*
X000413Y000827D01*
X013209Y009634D02*
X013211Y009673D01*
X013217Y009712D01*
X013227Y009750D01*
X013240Y009787D01*
X013257Y009822D01*
X013277Y009856D01*
X013301Y009887D01*
X013328Y009916D01*
X013357Y009942D01*
X013389Y009965D01*
X013423Y009985D01*
X013459Y010001D01*
X013496Y010013D01*
X013535Y010022D01*
X013574Y010027D01*
X013613Y010028D01*
X013652Y010025D01*
X013691Y010018D01*
X013728Y010007D01*
X013765Y009993D01*
X013800Y009975D01*
X013833Y009954D01*
X013864Y009929D01*
X013892Y009902D01*
X013917Y009872D01*
X013939Y009839D01*
X013958Y009805D01*
X013973Y009769D01*
X013985Y009731D01*
X013993Y009693D01*
X013997Y009654D01*
X013997Y009614D01*
X013993Y009575D01*
X013985Y009537D01*
X013973Y009499D01*
X013958Y009463D01*
X013939Y009429D01*
X013917Y009396D01*
X013892Y009366D01*
X013864Y009339D01*
X013833Y009314D01*
X013800Y009293D01*
X013765Y009275D01*
X013728Y009261D01*
X013691Y009250D01*
X013652Y009243D01*
X013613Y009240D01*
X013574Y009241D01*
X013535Y009246D01*
X013496Y009255D01*
X013459Y009267D01*
X013423Y009283D01*
X013389Y009303D01*
X013357Y009326D01*
X013328Y009352D01*
X013301Y009381D01*
X013277Y009412D01*
X013257Y009446D01*
X013240Y009481D01*
X013227Y009518D01*
X013217Y009556D01*
X013211Y009595D01*
X013209Y009634D01*
D11*
X009436Y006663D02*
X009336Y006563D01*
X009236Y006663D01*
X009236Y006363D01*
X009068Y006413D02*
X009018Y006463D01*
X008867Y006463D01*
X008867Y006513D02*
X008867Y006363D01*
X009018Y006363D01*
X009068Y006413D01*
X009018Y006563D02*
X008917Y006563D01*
X008867Y006513D01*
X008699Y006513D02*
X008699Y006413D01*
X008649Y006363D01*
X008499Y006363D01*
X008499Y006663D01*
X008499Y006563D02*
X008649Y006563D01*
X008699Y006513D01*
X008331Y006513D02*
X008331Y006413D01*
X008281Y006363D01*
X008181Y006363D01*
X008131Y006463D02*
X008331Y006463D01*
X008331Y006513D02*
X008281Y006563D01*
X008181Y006563D01*
X008131Y006513D01*
X008131Y006463D01*
X007594Y006363D02*
X007494Y006363D01*
X007544Y006363D02*
X007544Y006663D01*
X007594Y006663D02*
X007494Y006663D01*
X007349Y006563D02*
X007199Y006563D01*
X007149Y006513D01*
X007149Y006363D01*
X007349Y006363D02*
X007349Y006563D01*
X006612Y006663D02*
X006512Y006663D01*
X006562Y006663D02*
X006562Y006363D01*
X006612Y006363D02*
X006512Y006363D01*
X006367Y006363D02*
X006367Y006563D01*
X006216Y006563D01*
X006166Y006513D01*
X006166Y006363D01*
X005998Y006413D02*
X005998Y006513D01*
X005948Y006563D01*
X005798Y006563D01*
X005798Y006663D02*
X005798Y006363D01*
X005948Y006363D01*
X005998Y006413D01*
X005630Y006363D02*
X005530Y006363D01*
X005580Y006363D02*
X005580Y006563D01*
X005630Y006563D01*
X005580Y006663D02*
X005580Y006713D01*
X005334Y006563D02*
X005234Y006563D01*
X005184Y006513D01*
X005184Y006363D01*
X005334Y006363D01*
X005384Y006413D01*
X005334Y006463D01*
X005184Y006463D01*
X009436Y006363D02*
X009436Y006663D01*
D12*
X009495Y005903D02*
X009415Y005742D01*
X009335Y005903D01*
X009200Y005863D02*
X009160Y005903D01*
X009080Y005903D01*
X009040Y005863D01*
X009040Y005823D01*
X009200Y005823D01*
X009200Y005863D02*
X009200Y005782D01*
X009160Y005742D01*
X009080Y005742D01*
X008906Y005782D02*
X008866Y005823D01*
X008746Y005823D01*
X008746Y005863D02*
X008746Y005742D01*
X008866Y005742D01*
X008906Y005782D01*
X008866Y005903D02*
X008786Y005903D01*
X008746Y005863D01*
X008611Y005983D02*
X008571Y005983D01*
X008571Y005742D01*
X008611Y005742D02*
X008531Y005742D01*
X008415Y005742D02*
X008335Y005742D01*
X008375Y005742D02*
X008375Y005903D01*
X008415Y005903D01*
X008375Y005983D02*
X008375Y006023D01*
X008218Y005903D02*
X008098Y005903D01*
X008058Y005863D01*
X008058Y005742D01*
X007924Y005782D02*
X007883Y005742D01*
X007763Y005742D01*
X007763Y005702D02*
X007763Y005903D01*
X007883Y005903D01*
X007924Y005863D01*
X007924Y005782D01*
X007843Y005662D02*
X007803Y005662D01*
X007763Y005702D01*
X007334Y005742D02*
X007334Y005983D01*
X007334Y005863D02*
X007174Y005863D01*
X007174Y005983D02*
X007174Y005742D01*
X007040Y005782D02*
X007000Y005742D01*
X006919Y005742D01*
X006879Y005782D01*
X006879Y005863D01*
X006919Y005903D01*
X007000Y005903D01*
X007040Y005863D01*
X007040Y005782D01*
X006745Y005782D02*
X006705Y005742D01*
X006585Y005742D01*
X006585Y005903D01*
X006450Y005903D02*
X006450Y005742D01*
X006450Y005823D02*
X006370Y005903D01*
X006330Y005903D01*
X006745Y005903D02*
X006745Y005782D01*
X005910Y005782D02*
X005870Y005742D01*
X005790Y005742D01*
X005750Y005782D01*
X005615Y005742D02*
X005615Y005903D01*
X005535Y005903D02*
X005495Y005903D01*
X005535Y005903D02*
X005615Y005823D01*
X005750Y005943D02*
X005790Y005983D01*
X005870Y005983D01*
X005910Y005943D01*
X005910Y005782D01*
X005370Y005782D02*
X005370Y005863D01*
X005330Y005903D01*
X005250Y005903D01*
X005210Y005863D01*
X005210Y005823D01*
X005370Y005823D01*
X005370Y005782D02*
X005330Y005742D01*
X005250Y005742D01*
X005075Y005782D02*
X005035Y005823D01*
X004915Y005823D01*
X004915Y005863D02*
X004915Y005742D01*
X005035Y005742D01*
X005075Y005782D01*
X005035Y005903D02*
X004955Y005903D01*
X004915Y005863D01*
X004781Y005903D02*
X004700Y005903D01*
X004741Y005943D02*
X004741Y005782D01*
X004700Y005742D01*
X004584Y005742D02*
X004504Y005742D01*
X004544Y005742D02*
X004544Y005903D01*
X004584Y005903D01*
X004544Y005983D02*
X004544Y006023D01*
X004388Y005863D02*
X004348Y005903D01*
X004268Y005903D01*
X004228Y005863D01*
X004228Y005782D01*
X004268Y005742D01*
X004348Y005742D01*
X004388Y005782D01*
X004388Y005863D01*
X004093Y005903D02*
X004093Y005742D01*
X003933Y005742D02*
X003933Y005863D01*
X003973Y005903D01*
X004093Y005903D01*
X003798Y005863D02*
X003758Y005903D01*
X003638Y005903D01*
X003678Y005823D02*
X003758Y005823D01*
X003798Y005863D01*
X003798Y005742D02*
X003678Y005742D01*
X003638Y005782D01*
X003678Y005823D01*
X008218Y005742D02*
X008218Y005903D01*
X009629Y005863D02*
X009629Y005823D01*
X009790Y005823D01*
X009790Y005863D02*
X009750Y005903D01*
X009670Y005903D01*
X009629Y005863D01*
X009670Y005742D02*
X009750Y005742D01*
X009790Y005782D01*
X009790Y005863D01*
X009924Y005863D02*
X009924Y005943D01*
X009964Y005983D01*
X010084Y005983D01*
X010084Y005742D01*
X010084Y005823D02*
X009964Y005823D01*
X009924Y005863D01*
X010004Y005823D02*
X009924Y005742D01*
X010513Y005742D02*
X010634Y005742D01*
X010674Y005782D01*
X010674Y005903D01*
X010808Y005863D02*
X010848Y005903D01*
X010968Y005903D01*
X010968Y005983D02*
X010968Y005742D01*
X010848Y005742D01*
X010808Y005782D01*
X010808Y005863D01*
X010594Y005662D02*
X010553Y005662D01*
X010513Y005702D01*
X010513Y005903D01*
D13*
X007768Y007622D03*
X007276Y006904D03*
X007050Y009098D03*
X006558Y009939D03*
D14*
X007271Y007909D03*
X007281Y006914D03*
D15*
X007276Y006924D03*
X007276Y007458D03*
D16*
X007281Y006935D03*
X007291Y009641D03*
D17*
X007281Y006945D03*
D18*
X007276Y006955D03*
D19*
X007281Y006966D03*
D20*
X007281Y006976D03*
D21*
X007281Y006986D03*
X007291Y009570D03*
D22*
X007281Y006996D03*
D23*
X007281Y007007D03*
D24*
X007281Y007017D03*
D25*
X007281Y007027D03*
D26*
X007281Y007037D03*
D27*
X007281Y007048D03*
D28*
X007655Y007058D03*
X006405Y008524D03*
X006405Y008534D03*
X006405Y008544D03*
X006405Y008565D03*
X006405Y008575D03*
X006405Y008585D03*
X006405Y008596D03*
X006405Y008606D03*
X006405Y008626D03*
X006405Y008637D03*
X006405Y008647D03*
X006405Y008657D03*
D29*
X007286Y010185D03*
X006917Y007058D03*
D30*
X007727Y007068D03*
D31*
X006845Y007068D03*
X007286Y010195D03*
D32*
X007768Y007078D03*
D33*
X006799Y007078D03*
X007630Y009539D03*
D34*
X007261Y008893D03*
X006748Y010021D03*
X006912Y007581D03*
X007804Y007089D03*
D35*
X006763Y007089D03*
D36*
X007271Y007437D03*
X007835Y007099D03*
X007671Y009529D03*
X007845Y010011D03*
X006902Y009529D03*
D37*
X006733Y007099D03*
D38*
X007866Y007109D03*
X007291Y009221D03*
D39*
X007871Y010000D03*
X006702Y007109D03*
D40*
X006681Y007119D03*
X007891Y007119D03*
D41*
X007912Y007130D03*
X007717Y007601D03*
X006640Y009980D03*
D42*
X006666Y009990D03*
X006871Y009518D03*
X007896Y009990D03*
X007271Y007888D03*
X006840Y007601D03*
X006656Y007130D03*
D43*
X007937Y007140D03*
X007948Y009970D03*
D44*
X006630Y007140D03*
D45*
X006610Y007150D03*
X007502Y008011D03*
X007737Y007611D03*
X007963Y007150D03*
X007963Y009959D03*
D46*
X007527Y009098D03*
X007261Y008688D03*
X007261Y008227D03*
X006789Y007622D03*
X007978Y007160D03*
X006574Y009949D03*
D47*
X007250Y008708D03*
X007989Y009949D03*
X006584Y007160D03*
D48*
X006569Y007171D03*
X006548Y007181D03*
X008004Y007171D03*
X007256Y008698D03*
X007245Y008719D03*
X006794Y009488D03*
X007778Y009488D03*
X008004Y009939D03*
X008024Y009929D03*
D49*
X008040Y009918D03*
X006533Y009929D03*
X006533Y007191D03*
X008019Y007181D03*
X008040Y007191D03*
D50*
X008055Y007201D03*
X007276Y007878D03*
X006507Y007201D03*
X006497Y009908D03*
X008065Y009908D03*
D51*
X006517Y009918D03*
X007020Y008022D03*
X006743Y007642D03*
X007809Y007642D03*
X008076Y007212D03*
D52*
X008091Y007222D03*
X007271Y007427D03*
X006728Y007652D03*
X006461Y007232D03*
X006492Y007212D03*
X007845Y009457D03*
X008091Y009887D03*
X008081Y009898D03*
X008112Y009877D03*
X006481Y009898D03*
D53*
X006451Y009877D03*
X006748Y009467D03*
X007015Y009088D03*
X007558Y009088D03*
X007825Y009467D03*
X007537Y008022D03*
X007825Y007652D03*
X006471Y007222D03*
D54*
X006446Y007242D03*
X006425Y007253D03*
X006692Y007673D03*
X006712Y007663D03*
X006989Y008032D03*
X007256Y008216D03*
X007563Y008032D03*
X008106Y007232D03*
X008127Y007242D03*
X007860Y009447D03*
X008127Y009867D03*
X006712Y009447D03*
X006435Y009867D03*
X006466Y009887D03*
D55*
X006420Y009857D03*
X006697Y009436D03*
X006994Y009078D03*
X007578Y009078D03*
X007876Y009436D03*
X007896Y009426D03*
X008173Y009836D03*
X008142Y009857D03*
X006974Y008042D03*
X006676Y007683D03*
X006399Y007273D03*
X007845Y007663D03*
X008142Y007253D03*
X008173Y007273D03*
D56*
X008153Y007263D03*
X006399Y009846D03*
D57*
X008163Y009846D03*
X006410Y007263D03*
D58*
X006384Y007283D03*
X006364Y007294D03*
X007881Y007683D03*
X008188Y007283D03*
X007266Y008934D03*
X006979Y009067D03*
X006681Y009426D03*
X008188Y009826D03*
X008230Y009795D03*
D59*
X008219Y009805D03*
X008199Y009816D03*
X006374Y009826D03*
X007584Y008042D03*
X008199Y007294D03*
X006353Y007304D03*
D60*
X006338Y007314D03*
X006287Y007355D03*
X006615Y007724D03*
X006953Y008052D03*
X007599Y008052D03*
X007907Y007704D03*
X008255Y007335D03*
X008224Y007314D03*
X008214Y007304D03*
X007599Y009067D03*
X007291Y009242D03*
X006635Y009395D03*
X006348Y009805D03*
X006358Y009816D03*
X006307Y009775D03*
X008255Y009775D03*
D61*
X008245Y009785D03*
X008245Y007324D03*
X006328Y007324D03*
D62*
X006312Y007335D03*
X006261Y007376D03*
X006630Y007714D03*
X007942Y007724D03*
X008281Y007355D03*
X007614Y009057D03*
X007942Y009395D03*
X008281Y009754D03*
X006958Y009057D03*
X006292Y009764D03*
D63*
X006282Y009754D03*
X006620Y009385D03*
X007953Y009385D03*
X008291Y009744D03*
X008271Y009764D03*
X007953Y007734D03*
X008291Y007365D03*
X008271Y007345D03*
X006599Y007734D03*
X006302Y007345D03*
X006271Y007365D03*
D64*
X006235Y007396D03*
X006225Y007406D03*
X006215Y007417D03*
X006205Y007427D03*
X006563Y007765D03*
X006584Y007745D03*
X006922Y008073D03*
X006912Y008083D03*
X007630Y008073D03*
X007968Y007745D03*
X008327Y007396D03*
X008337Y007406D03*
X008306Y007376D03*
X006933Y009037D03*
X006604Y009375D03*
X006594Y009365D03*
X006235Y009713D03*
X006256Y009734D03*
X006266Y009744D03*
X007968Y009375D03*
X007978Y009365D03*
X008009Y009344D03*
X008327Y009713D03*
X008306Y009734D03*
D65*
X008317Y009723D03*
X007630Y009047D03*
X006943Y009047D03*
X006246Y009723D03*
X006574Y007755D03*
X007978Y007755D03*
X008317Y007386D03*
D66*
X006938Y008063D03*
X006251Y007386D03*
D67*
X006189Y007437D03*
X006169Y007458D03*
X006138Y007488D03*
X006538Y007786D03*
X007276Y007868D03*
X007420Y008288D03*
X007327Y008442D03*
X007081Y008442D03*
X007645Y009037D03*
X008035Y009324D03*
X008353Y009693D03*
X006558Y009334D03*
X006189Y009672D03*
X006169Y009652D03*
X006220Y009703D03*
X008014Y007786D03*
X008353Y007417D03*
X008404Y007468D03*
D68*
X007266Y007417D03*
X007266Y007857D03*
X006835Y008216D03*
X007020Y008339D03*
X006958Y008544D03*
X006958Y008698D03*
X006845Y008893D03*
X007266Y008955D03*
X007286Y008770D03*
X006005Y009406D03*
D69*
X006200Y009682D03*
X006210Y009693D03*
X006569Y009344D03*
X006917Y009026D03*
X007655Y009026D03*
X008024Y009334D03*
X008045Y009313D03*
X008394Y009652D03*
X008373Y009672D03*
X008363Y009682D03*
X008342Y009703D03*
X007635Y008083D03*
X007994Y007765D03*
X008004Y007775D03*
X008373Y007437D03*
X008363Y007427D03*
X008394Y007458D03*
X008414Y007478D03*
X006548Y007775D03*
X006158Y007468D03*
X006148Y007478D03*
D70*
X008383Y007447D03*
X008383Y009662D03*
D71*
X007271Y007447D03*
D72*
X006179Y007447D03*
X006579Y009354D03*
X006179Y009662D03*
X007994Y009354D03*
D73*
X007271Y007960D03*
X007271Y007468D03*
D74*
X007276Y007478D03*
D75*
X006902Y008093D03*
X007097Y008288D03*
X007650Y008093D03*
X007661Y008104D03*
X008030Y007796D03*
X008040Y007806D03*
X008060Y007827D03*
X008071Y007837D03*
X008429Y007488D03*
X008440Y007499D03*
X008460Y007519D03*
X007671Y009016D03*
X008409Y009641D03*
X008429Y009621D03*
X008440Y009611D03*
X008460Y009590D03*
X008470Y009580D03*
X006912Y009016D03*
X006543Y009324D03*
X006533Y009313D03*
X006143Y009631D03*
X006133Y009621D03*
X006123Y009611D03*
X006102Y009590D03*
X006092Y009580D03*
X006481Y007837D03*
X006492Y007827D03*
X006512Y007806D03*
X006133Y007499D03*
X006112Y007519D03*
X006102Y007529D03*
X006092Y007540D03*
X006071Y007560D03*
D76*
X007271Y007488D03*
D77*
X007276Y007499D03*
D78*
X006502Y007816D03*
X006123Y007509D03*
X007086Y008432D03*
X007332Y008432D03*
X006512Y009293D03*
X006112Y009600D03*
X008450Y009600D03*
X008450Y007509D03*
D79*
X007271Y007509D03*
D80*
X007276Y007519D03*
D81*
X006476Y007847D03*
X006056Y007581D03*
X007091Y008421D03*
X006497Y009283D03*
X008076Y009283D03*
X008517Y009529D03*
X008517Y007581D03*
X008465Y007529D03*
D82*
X007276Y007529D03*
D83*
X006876Y008114D03*
X007297Y008729D03*
X007686Y008996D03*
X008086Y009272D03*
X008476Y009570D03*
X008486Y009559D03*
X008496Y009549D03*
X006897Y009006D03*
X006886Y008996D03*
X006487Y009272D03*
X006087Y009570D03*
X006076Y009559D03*
X006066Y009549D03*
X006046Y009529D03*
X007676Y008114D03*
X008476Y007540D03*
X008486Y007550D03*
X008496Y007560D03*
X008527Y007601D03*
X006046Y007591D03*
X006035Y007601D03*
D84*
X007276Y007540D03*
D85*
X007276Y007550D03*
D86*
X006892Y008104D03*
X006522Y007796D03*
X006082Y007550D03*
X007261Y008206D03*
X007681Y009006D03*
X008050Y009303D03*
X008419Y009631D03*
X006522Y009303D03*
X006153Y009641D03*
D87*
X007276Y007560D03*
D88*
X008506Y007570D03*
X008065Y009293D03*
X008506Y009539D03*
X006066Y007570D03*
D89*
X007589Y007570D03*
D90*
X006968Y007570D03*
D91*
X007276Y007898D03*
X007645Y007581D03*
D92*
X008081Y007847D03*
X008522Y007591D03*
X008542Y007622D03*
X007332Y008421D03*
X006861Y008134D03*
X006030Y007611D03*
X006871Y008975D03*
X007261Y008944D03*
X008091Y009262D03*
X008101Y009252D03*
X008522Y009518D03*
X008542Y009488D03*
X007291Y009693D03*
X006481Y009262D03*
X006030Y009508D03*
D93*
X006692Y010000D03*
X007286Y010205D03*
X007707Y009518D03*
X007256Y008237D03*
X007686Y007591D03*
D94*
X006871Y007591D03*
X007261Y008903D03*
D95*
X007691Y008134D03*
X008532Y007611D03*
X008532Y009508D03*
X006041Y009518D03*
X006020Y009488D03*
D96*
X006599Y009959D03*
X006815Y009498D03*
X007758Y009498D03*
X006815Y007611D03*
D97*
X006466Y007857D03*
X006456Y007868D03*
X006025Y007622D03*
X007091Y008411D03*
X007450Y008298D03*
X007696Y008145D03*
X008096Y007868D03*
X007707Y008975D03*
X008106Y009242D03*
X008537Y009498D03*
X006866Y008965D03*
X006476Y009252D03*
X006025Y009498D03*
D98*
X006015Y009477D03*
X006015Y007632D03*
X008547Y007632D03*
X008547Y009477D03*
D99*
X007784Y007632D03*
D100*
X006769Y007632D03*
X007261Y008924D03*
X006769Y009477D03*
X007804Y009477D03*
D101*
X007712Y008965D03*
X008552Y009467D03*
X006851Y008155D03*
X008552Y007642D03*
D102*
X008122Y008237D03*
X008122Y008257D03*
X008122Y008268D03*
X008122Y008278D03*
X008122Y008288D03*
X008122Y008298D03*
X008122Y008319D03*
X008122Y008329D03*
X008122Y008339D03*
X008122Y008350D03*
X008122Y008360D03*
X008122Y008380D03*
X008122Y008391D03*
X008122Y008401D03*
X008122Y008411D03*
X008122Y008421D03*
X008122Y008442D03*
X008122Y008452D03*
X008122Y008462D03*
X008122Y008473D03*
X008122Y008483D03*
X008122Y008503D03*
X008122Y008514D03*
X008122Y008524D03*
X008122Y008534D03*
X008122Y008544D03*
X008122Y008565D03*
X008122Y008575D03*
X008122Y008585D03*
X008122Y008596D03*
X008122Y008606D03*
X008122Y008626D03*
X008122Y008637D03*
X008122Y008647D03*
X008122Y008657D03*
X008122Y008667D03*
X008122Y008688D03*
X008122Y008698D03*
X008122Y008708D03*
X008122Y008719D03*
X008122Y008729D03*
X008122Y008749D03*
X008122Y008760D03*
X007702Y008155D03*
X007332Y008411D03*
X007066Y008298D03*
X006010Y007652D03*
X006010Y007642D03*
X006471Y009242D03*
X006010Y009467D03*
D103*
X006005Y009457D03*
X006856Y008955D03*
X006845Y008165D03*
X006446Y007888D03*
X006005Y007663D03*
X007707Y008165D03*
X008106Y007888D03*
X008558Y007652D03*
X007717Y008955D03*
X008117Y009221D03*
X008558Y009457D03*
D104*
X008563Y009447D03*
X008122Y009211D03*
X007455Y008852D03*
X007189Y008483D03*
X007486Y008319D03*
X006840Y008175D03*
X008122Y008227D03*
X008563Y007663D03*
D105*
X008563Y007673D03*
X008563Y007683D03*
X008122Y008206D03*
X007507Y008339D03*
X007158Y008667D03*
X007056Y008842D03*
X006851Y008934D03*
X006451Y009201D03*
X006000Y009436D03*
X007486Y008831D03*
X008122Y009201D03*
X008563Y009436D03*
X006440Y007909D03*
X006000Y007683D03*
D106*
X007866Y007673D03*
X006389Y009836D03*
D107*
X006005Y009447D03*
X006456Y009211D03*
X006640Y008903D03*
X007071Y008852D03*
X007327Y008401D03*
X007502Y008329D03*
X008127Y008216D03*
X008106Y007898D03*
X007727Y008934D03*
X006640Y008257D03*
X006446Y007898D03*
X006179Y008257D03*
X006179Y008268D03*
X006005Y007673D03*
X006179Y008893D03*
X006179Y008903D03*
D108*
X006635Y008924D03*
X007404Y008493D03*
X007537Y008370D03*
X007517Y008801D03*
X008563Y009416D03*
X008563Y007693D03*
X006000Y007693D03*
D109*
X006661Y007693D03*
X007891Y007693D03*
X007912Y009416D03*
D110*
X007732Y008903D03*
X007578Y008708D03*
X007589Y008688D03*
X007599Y008647D03*
X007599Y008637D03*
X007599Y008514D03*
X007599Y008503D03*
X007589Y008462D03*
X007261Y008196D03*
X006974Y008503D03*
X006974Y008514D03*
X006963Y008524D03*
X006963Y008534D03*
X006963Y008708D03*
X006963Y008719D03*
X006963Y008729D03*
X006974Y008749D03*
X007158Y008585D03*
X007158Y008575D03*
X007168Y008534D03*
X006451Y009180D03*
X006174Y008934D03*
X006000Y007704D03*
X008563Y007704D03*
X008563Y009406D03*
D111*
X007927Y009406D03*
X006645Y009406D03*
X006328Y009795D03*
X006645Y007704D03*
X007927Y007714D03*
D112*
X008563Y007714D03*
X007332Y008380D03*
X007015Y008350D03*
X007732Y008883D03*
X008563Y009395D03*
D113*
X007717Y008227D03*
X006835Y008227D03*
X006640Y008216D03*
X006435Y007950D03*
X006005Y007714D03*
X006640Y008944D03*
D114*
X008050Y007816D03*
D115*
X008086Y007857D03*
X006856Y008145D03*
D116*
X006451Y007878D03*
X007291Y008739D03*
X007435Y008862D03*
X008122Y008739D03*
X008122Y008678D03*
X008122Y008616D03*
X008122Y008555D03*
X008122Y008493D03*
X008122Y008432D03*
X008122Y008370D03*
X008122Y008309D03*
X008122Y008247D03*
X008101Y007878D03*
D117*
X008112Y007909D03*
X006635Y008913D03*
D118*
X006451Y009190D03*
X006000Y009426D03*
X007015Y008811D03*
X007158Y008637D03*
X007179Y008503D03*
X006994Y008483D03*
X007035Y008319D03*
X007332Y008391D03*
X007414Y008503D03*
X007414Y008514D03*
X007414Y008524D03*
X007414Y008585D03*
X007414Y008596D03*
X007404Y008626D03*
X007404Y008637D03*
X007394Y008647D03*
X007527Y008790D03*
X007537Y008780D03*
X007732Y008913D03*
X007568Y008411D03*
X007558Y008401D03*
X007558Y008391D03*
X007548Y008380D03*
X008122Y008196D03*
X008112Y007919D03*
X006635Y008237D03*
D119*
X007271Y007919D03*
D120*
X007522Y008350D03*
X007399Y008483D03*
X007379Y008667D03*
X007502Y008821D03*
X007153Y008657D03*
X007153Y008647D03*
X007030Y008821D03*
X007102Y008391D03*
X006835Y008196D03*
X006435Y007919D03*
X007717Y008196D03*
D121*
X007717Y008206D03*
X007573Y008421D03*
X007594Y008473D03*
X007594Y008483D03*
X007420Y008534D03*
X007420Y008544D03*
X007420Y008565D03*
X007420Y008575D03*
X007594Y008657D03*
X007594Y008667D03*
X007573Y008719D03*
X007573Y008729D03*
X007563Y008749D03*
X007543Y008770D03*
X007153Y008626D03*
X007153Y008606D03*
X007153Y008596D03*
X007173Y008524D03*
X007173Y008514D03*
X007030Y008329D03*
X006835Y008206D03*
X006435Y007929D03*
X006979Y008760D03*
X006999Y008790D03*
X008117Y007929D03*
D122*
X007271Y007929D03*
D123*
X006958Y008555D03*
X007132Y008739D03*
X008127Y009170D03*
X008117Y007939D03*
D124*
X007276Y007939D03*
D125*
X006435Y007939D03*
D126*
X007107Y008380D03*
X006851Y008883D03*
X008112Y007950D03*
D127*
X007276Y007950D03*
D128*
X007276Y007970D03*
D129*
X007276Y007981D03*
D130*
X007276Y007991D03*
D131*
X007276Y008001D03*
D132*
X007056Y008011D03*
X007261Y008913D03*
X006840Y009508D03*
X007291Y009682D03*
X007732Y009508D03*
D133*
X007614Y008063D03*
D134*
X007681Y008124D03*
X006871Y008124D03*
X007702Y008985D03*
X007291Y010216D03*
D135*
X007291Y009252D03*
X007722Y008944D03*
X007097Y008401D03*
X006635Y008401D03*
X006635Y008411D03*
X006635Y008421D03*
X006635Y008442D03*
X006635Y008452D03*
X006635Y008462D03*
X006635Y008473D03*
X006635Y008483D03*
X006635Y008503D03*
X006635Y008514D03*
X006635Y008391D03*
X006635Y008380D03*
X006635Y008360D03*
X006635Y008350D03*
X006635Y008339D03*
X006635Y008329D03*
X006635Y008319D03*
X006635Y008298D03*
X006635Y008288D03*
X006635Y008278D03*
X006635Y008268D03*
X006635Y008667D03*
X006635Y008688D03*
X006635Y008698D03*
X006635Y008708D03*
X006635Y008719D03*
X006635Y008729D03*
X006635Y008749D03*
X006635Y008760D03*
X006635Y008770D03*
X006635Y008780D03*
X006635Y008790D03*
X006635Y008811D03*
X006635Y008821D03*
X006635Y008831D03*
X006635Y008842D03*
X006635Y008852D03*
X006635Y008872D03*
X006635Y008883D03*
X006635Y008893D03*
X006851Y008944D03*
X006461Y009221D03*
X006174Y008883D03*
X007712Y008175D03*
D136*
X007712Y008186D03*
X007179Y008493D03*
X006840Y008186D03*
X006851Y008924D03*
X007732Y008924D03*
D137*
X008122Y008186D03*
X006451Y009170D03*
D138*
X007717Y008216D03*
D139*
X006179Y008216D03*
X006179Y008944D03*
D140*
X006635Y008934D03*
X006953Y008688D03*
X006953Y008667D03*
X006953Y008657D03*
X006953Y008647D03*
X006953Y008637D03*
X006953Y008626D03*
X006953Y008606D03*
X006953Y008596D03*
X006953Y008585D03*
X006953Y008575D03*
X006953Y008565D03*
X007127Y008729D03*
X006635Y008227D03*
D141*
X006179Y008227D03*
X006845Y008903D03*
X006989Y008780D03*
X006989Y008770D03*
X007163Y008565D03*
X007163Y008544D03*
X007409Y008606D03*
X007604Y008606D03*
X007604Y008596D03*
X007604Y008585D03*
X007604Y008575D03*
X007604Y008565D03*
X007604Y008544D03*
X007604Y008534D03*
X007604Y008524D03*
X007584Y008452D03*
X007584Y008442D03*
X007604Y008626D03*
X007584Y008698D03*
X007553Y008760D03*
X008127Y009180D03*
D142*
X007717Y008237D03*
X006835Y008237D03*
D143*
X007389Y008657D03*
X007286Y008760D03*
X007512Y008811D03*
X007040Y008831D03*
X006845Y008913D03*
X006179Y008913D03*
X006179Y008237D03*
X007532Y008360D03*
X008127Y009190D03*
X008568Y009426D03*
D144*
X007256Y008247D03*
D145*
X007373Y008678D03*
X006635Y008247D03*
D146*
X006179Y008247D03*
X006179Y008924D03*
D147*
X007261Y008883D03*
X007261Y008257D03*
D148*
X007256Y008268D03*
X007266Y008872D03*
D149*
X007261Y008278D03*
X008122Y008770D03*
D150*
X007286Y008749D03*
X006179Y008749D03*
X006179Y008760D03*
X006179Y008770D03*
X006179Y008780D03*
X006179Y008790D03*
X006179Y008811D03*
X006179Y008821D03*
X006179Y008831D03*
X006179Y008842D03*
X006179Y008852D03*
X006179Y008872D03*
X006179Y008729D03*
X006179Y008719D03*
X006179Y008708D03*
X006179Y008698D03*
X006179Y008688D03*
X006179Y008667D03*
X006179Y008514D03*
X006179Y008503D03*
X006179Y008483D03*
X006179Y008473D03*
X006179Y008462D03*
X006179Y008452D03*
X006179Y008442D03*
X006179Y008421D03*
X006179Y008411D03*
X006179Y008401D03*
X006179Y008391D03*
X006179Y008380D03*
X006179Y008360D03*
X006179Y008350D03*
X006179Y008339D03*
X006179Y008329D03*
X006179Y008319D03*
X006179Y008298D03*
X006179Y008288D03*
X006179Y008278D03*
D151*
X006466Y009231D03*
X007471Y008309D03*
D152*
X007050Y008309D03*
D153*
X006635Y008309D03*
X006635Y008370D03*
X006635Y008432D03*
X006635Y008493D03*
X006635Y008678D03*
X006635Y008739D03*
X006635Y008801D03*
X006635Y008862D03*
D154*
X006179Y008862D03*
X006179Y008801D03*
X006179Y008739D03*
X006179Y008678D03*
X006179Y008493D03*
X006179Y008432D03*
X006179Y008370D03*
X006179Y008309D03*
D155*
X007015Y008360D03*
D156*
X007153Y008616D03*
X007009Y008801D03*
X007420Y008555D03*
X007594Y008493D03*
X007573Y008432D03*
X007563Y008739D03*
D157*
X007204Y008452D03*
D158*
X007199Y008462D03*
X007291Y009201D03*
D159*
X007204Y008473D03*
X007737Y010041D03*
D160*
X007589Y008678D03*
X006974Y008739D03*
X006984Y008493D03*
D161*
X007163Y008555D03*
X007409Y008616D03*
X007604Y008616D03*
X007604Y008555D03*
X006005Y009416D03*
D162*
X006405Y008616D03*
X006405Y008555D03*
X007286Y009170D03*
D163*
X006953Y008678D03*
X006953Y008616D03*
D164*
X007163Y008678D03*
D165*
X007127Y008749D03*
D166*
X007132Y008760D03*
X008127Y009160D03*
X006005Y009395D03*
D167*
X008122Y008780D03*
D168*
X008122Y008790D03*
X008122Y008893D03*
D169*
X008122Y008801D03*
D170*
X008122Y008811D03*
X008122Y008821D03*
X008122Y008831D03*
X008122Y008842D03*
X008122Y008852D03*
D171*
X007471Y008842D03*
D172*
X008122Y008862D03*
D173*
X008112Y009231D03*
X007097Y008862D03*
D174*
X007291Y009652D03*
X008122Y008883D03*
X008122Y008872D03*
D175*
X007732Y008893D03*
D176*
X008122Y008903D03*
X006871Y010052D03*
D177*
X006881Y008985D03*
D178*
X007291Y009108D03*
D179*
X007286Y009119D03*
D180*
X007286Y009129D03*
D181*
X007291Y009139D03*
D182*
X007286Y009149D03*
D183*
X007291Y009160D03*
D184*
X006451Y009160D03*
D185*
X007286Y009180D03*
X007686Y010052D03*
D186*
X007291Y009190D03*
D187*
X007286Y009211D03*
D188*
X007291Y009231D03*
D189*
X006666Y009416D03*
X006317Y009785D03*
D190*
X006733Y009457D03*
D191*
X006948Y009539D03*
X007778Y010031D03*
D192*
X006056Y009539D03*
D193*
X007291Y009549D03*
D194*
X007291Y009559D03*
D195*
X007291Y009580D03*
X007281Y010134D03*
D196*
X007291Y009590D03*
D197*
X007291Y009600D03*
D198*
X007286Y009611D03*
D199*
X007291Y009621D03*
D200*
X007291Y009631D03*
D201*
X007291Y009662D03*
D202*
X007291Y009672D03*
D203*
X006620Y009970D03*
D204*
X007922Y009980D03*
D205*
X006717Y010011D03*
D206*
X007814Y010021D03*
D207*
X006779Y010031D03*
D208*
X006820Y010041D03*
D209*
X007281Y010062D03*
D210*
X007281Y010072D03*
D211*
X007281Y010082D03*
D212*
X007286Y010093D03*
D213*
X007281Y010103D03*
D214*
X007286Y010113D03*
D215*
X007281Y010123D03*
D216*
X007281Y010144D03*
D217*
X007281Y010154D03*
D218*
X007286Y010164D03*
D219*
X007286Y010175D03*
M02*
