%
M48
M72
T01C0.0236
T02C0.0320
T03C0.0394
T04C0.0400
%
T01
X4678Y8260
T02
X3643Y10173
X4216Y10993
X11236Y10870
X12056Y10296
X12000Y3220
X11293Y2513
X4283Y2513
X3576Y3220
T03
X721Y780
X721Y1764
X721Y2764
X721Y3764
X721Y4764
X721Y5764
X721Y6764
X721Y7780
X721Y8780
X721Y9780
X721Y10780
X721Y11780
X721Y12780
X9402Y6390
X14894Y6780
X14894Y7811
X14894Y8811
X14894Y9811
X14894Y10811
X14894Y11811
X14894Y12811
X14894Y5780
X14894Y4780
X14894Y3780
X14894Y2780
X14894Y1780
X14894Y780
T04
X8221Y6390
X6252Y6390
M30
