G75*
%MOIN*%
%OFA0B0*%
%FSLAX24Y24*%
%IPPOS*%
%LPD*%
%AMOC8*
5,1,8,0,0,1.08239X$1,22.5*
%
%ADD10C,0.0030*%
%ADD11C,0.0760*%
%ADD12R,0.0394X0.0551*%
%ADD13C,0.0132*%
%ADD14R,0.0787X0.0630*%
%ADD15C,0.0100*%
%ADD16OC8,0.0396*%
D10*
X006443Y000596D02*
X006636Y000596D01*
X006539Y000596D02*
X006539Y000886D01*
X006443Y000789D01*
X006737Y000837D02*
X006786Y000886D01*
X006882Y000886D01*
X006931Y000837D01*
X006931Y000789D01*
X006737Y000596D01*
X006931Y000596D01*
X007032Y000596D02*
X007225Y000789D01*
X007225Y000837D01*
X007177Y000886D01*
X007080Y000886D01*
X007032Y000837D01*
X007032Y000596D02*
X007225Y000596D01*
X007327Y000644D02*
X007520Y000837D01*
X007520Y000644D01*
X007472Y000596D01*
X007375Y000596D01*
X007327Y000644D01*
X007327Y000837D01*
X007375Y000886D01*
X007472Y000886D01*
X007520Y000837D01*
X007621Y000789D02*
X007718Y000886D01*
X007718Y000596D01*
X007621Y000596D02*
X007815Y000596D01*
X007916Y000741D02*
X008109Y000741D01*
X008061Y000596D02*
X008061Y000886D01*
X007916Y000741D01*
X008210Y000596D02*
X008404Y000886D01*
X008505Y000789D02*
X008602Y000886D01*
X008602Y000596D01*
X008505Y000596D02*
X008699Y000596D01*
X008800Y000596D02*
X008848Y000596D01*
X008848Y000644D01*
X008800Y000644D01*
X008800Y000596D01*
X008947Y000644D02*
X009141Y000837D01*
X009141Y000644D01*
X009092Y000596D01*
X008995Y000596D01*
X008947Y000644D01*
X008947Y000837D01*
X008995Y000886D01*
X009092Y000886D01*
X009141Y000837D01*
D11*
X000721Y000780D03*
X000721Y001764D03*
X000721Y002764D03*
X000721Y003764D03*
X000721Y004764D03*
X000721Y005764D03*
X000721Y006764D03*
X000721Y007780D03*
X000721Y008780D03*
X000721Y009780D03*
X000721Y010780D03*
X000721Y011780D03*
X000721Y012780D03*
X006252Y006390D03*
X008221Y006390D03*
X009402Y006390D03*
X014894Y006780D03*
X014894Y007811D03*
X014894Y008811D03*
X014894Y009811D03*
X014894Y010811D03*
X014894Y011811D03*
X014894Y012811D03*
X014894Y005780D03*
X014894Y004780D03*
X014894Y003780D03*
X014894Y002780D03*
X014894Y001780D03*
X014894Y000780D03*
D12*
X011646Y004796D03*
X011272Y005662D03*
X012020Y005662D03*
X012020Y007394D03*
X011272Y007394D03*
X011646Y008260D03*
X004304Y007394D03*
X003556Y007394D03*
X003930Y008260D03*
X004304Y005662D03*
X003556Y005662D03*
X003930Y004796D03*
D13*
X003533Y003417D02*
X003467Y003483D01*
X003685Y003483D01*
X003839Y003329D01*
X003839Y003111D01*
X003685Y002957D01*
X003467Y002957D01*
X003313Y003111D01*
X003313Y003329D01*
X003467Y003483D01*
X003508Y003384D01*
X003644Y003384D01*
X003740Y003288D01*
X003740Y003152D01*
X003644Y003056D01*
X003508Y003056D01*
X003412Y003152D01*
X003412Y003288D01*
X003508Y003384D01*
X003549Y003285D01*
X003603Y003285D01*
X003641Y003247D01*
X003641Y003193D01*
X003603Y003155D01*
X003549Y003155D01*
X003511Y003193D01*
X003511Y003247D01*
X003549Y003285D01*
X004240Y002710D02*
X004174Y002776D01*
X004392Y002776D01*
X004546Y002622D01*
X004546Y002404D01*
X004392Y002250D01*
X004174Y002250D01*
X004020Y002404D01*
X004020Y002622D01*
X004174Y002776D01*
X004215Y002677D01*
X004351Y002677D01*
X004447Y002581D01*
X004447Y002445D01*
X004351Y002349D01*
X004215Y002349D01*
X004119Y002445D01*
X004119Y002581D01*
X004215Y002677D01*
X004256Y002578D01*
X004310Y002578D01*
X004348Y002540D01*
X004348Y002486D01*
X004310Y002448D01*
X004256Y002448D01*
X004218Y002486D01*
X004218Y002540D01*
X004256Y002578D01*
X011490Y002556D02*
X011556Y002622D01*
X011556Y002404D01*
X011402Y002250D01*
X011184Y002250D01*
X011030Y002404D01*
X011030Y002622D01*
X011184Y002776D01*
X011402Y002776D01*
X011556Y002622D01*
X011457Y002581D01*
X011457Y002445D01*
X011361Y002349D01*
X011225Y002349D01*
X011129Y002445D01*
X011129Y002581D01*
X011225Y002677D01*
X011361Y002677D01*
X011457Y002581D01*
X011358Y002540D01*
X011358Y002486D01*
X011320Y002448D01*
X011266Y002448D01*
X011228Y002486D01*
X011228Y002540D01*
X011266Y002578D01*
X011320Y002578D01*
X011358Y002540D01*
X012197Y003263D02*
X012263Y003329D01*
X012263Y003111D01*
X012109Y002957D01*
X011891Y002957D01*
X011737Y003111D01*
X011737Y003329D01*
X011891Y003483D01*
X012109Y003483D01*
X012263Y003329D01*
X012164Y003288D01*
X012164Y003152D01*
X012068Y003056D01*
X011932Y003056D01*
X011836Y003152D01*
X011836Y003288D01*
X011932Y003384D01*
X012068Y003384D01*
X012164Y003288D01*
X012065Y003247D01*
X012065Y003193D01*
X012027Y003155D01*
X011973Y003155D01*
X011935Y003193D01*
X011935Y003247D01*
X011973Y003285D01*
X012027Y003285D01*
X012065Y003247D01*
X012143Y010122D02*
X012209Y010056D01*
X011994Y010018D01*
X011816Y010143D01*
X011778Y010358D01*
X011903Y010536D01*
X012118Y010574D01*
X012296Y010449D01*
X012334Y010234D01*
X012209Y010056D01*
X012152Y010146D01*
X012018Y010122D01*
X011906Y010200D01*
X011882Y010334D01*
X011960Y010446D01*
X012094Y010470D01*
X012206Y010392D01*
X012230Y010258D01*
X012152Y010146D01*
X012094Y010237D01*
X012041Y010227D01*
X011997Y010258D01*
X011987Y010311D01*
X012018Y010355D01*
X012071Y010365D01*
X012115Y010334D01*
X012125Y010281D01*
X012094Y010237D01*
X011323Y010696D02*
X011389Y010630D01*
X011174Y010592D01*
X010996Y010717D01*
X010958Y010932D01*
X011083Y011110D01*
X011298Y011148D01*
X011476Y011023D01*
X011514Y010808D01*
X011389Y010630D01*
X011332Y010720D01*
X011198Y010696D01*
X011086Y010774D01*
X011062Y010908D01*
X011140Y011020D01*
X011274Y011044D01*
X011386Y010966D01*
X011410Y010832D01*
X011332Y010720D01*
X011274Y010811D01*
X011221Y010801D01*
X011177Y010832D01*
X011167Y010885D01*
X011198Y010929D01*
X011251Y010939D01*
X011295Y010908D01*
X011305Y010855D01*
X011274Y010811D01*
X004042Y010906D02*
X003976Y010840D01*
X003938Y011055D01*
X004063Y011233D01*
X004278Y011271D01*
X004456Y011146D01*
X004494Y010931D01*
X004369Y010753D01*
X004154Y010715D01*
X003976Y010840D01*
X004066Y010897D01*
X004042Y011031D01*
X004120Y011143D01*
X004254Y011167D01*
X004366Y011089D01*
X004390Y010955D01*
X004312Y010843D01*
X004178Y010819D01*
X004066Y010897D01*
X004157Y010955D01*
X004147Y011008D01*
X004178Y011052D01*
X004231Y011062D01*
X004275Y011031D01*
X004285Y010978D01*
X004254Y010934D01*
X004201Y010924D01*
X004157Y010955D01*
X003469Y010086D02*
X003403Y010020D01*
X003365Y010235D01*
X003490Y010413D01*
X003705Y010451D01*
X003883Y010326D01*
X003921Y010111D01*
X003796Y009933D01*
X003581Y009895D01*
X003403Y010020D01*
X003493Y010077D01*
X003469Y010211D01*
X003547Y010323D01*
X003681Y010347D01*
X003793Y010269D01*
X003817Y010135D01*
X003739Y010023D01*
X003605Y009999D01*
X003493Y010077D01*
X003584Y010135D01*
X003574Y010188D01*
X003605Y010232D01*
X003658Y010242D01*
X003702Y010211D01*
X003712Y010158D01*
X003681Y010114D01*
X003628Y010104D01*
X003584Y010135D01*
D14*
X007827Y004008D03*
X007827Y002906D03*
D15*
X007822Y002907D01*
X007223Y003507D01*
X007223Y007343D01*
X011179Y007343D01*
X011272Y007394D01*
X011659Y007439D02*
X011972Y007439D01*
X011972Y007443D02*
X011972Y007346D01*
X011673Y007346D01*
X011673Y007103D01*
X011659Y007103D01*
X011659Y007748D01*
X011612Y007795D01*
X011740Y007795D01*
X011731Y007790D01*
X011703Y007762D01*
X011683Y007728D01*
X011673Y007689D01*
X011673Y007443D01*
X011972Y007443D01*
X011972Y007820D01*
X011946Y007820D01*
X012033Y007906D01*
X012033Y008614D01*
X011922Y008726D01*
X011898Y008726D01*
X011898Y009761D01*
X011905Y009767D01*
X011934Y009747D01*
X012358Y009822D01*
X012605Y010175D01*
X012530Y010599D01*
X012177Y010846D01*
X011781Y010776D01*
X011711Y011172D01*
X011358Y011419D01*
X010934Y011344D01*
X010874Y011258D01*
X004697Y011258D01*
X004691Y011295D01*
X004338Y011542D01*
X003914Y011467D01*
X003667Y011114D01*
X003737Y010718D01*
X003340Y010648D01*
X003093Y010295D01*
X003168Y009871D01*
X003521Y009624D01*
X003945Y009699D01*
X004192Y010052D01*
X004122Y010448D01*
X004519Y010518D01*
X004701Y010778D01*
X010725Y010778D01*
X010762Y010568D01*
X011115Y010321D01*
X011511Y010391D01*
X011562Y010103D01*
X011455Y009996D01*
X011419Y009908D01*
X011419Y008726D01*
X011371Y008726D01*
X011259Y008614D01*
X011259Y007906D01*
X011306Y007859D01*
X010997Y007859D01*
X010885Y007748D01*
X010885Y007583D01*
X005017Y007583D01*
X004929Y007546D01*
X004650Y007267D01*
X004650Y007346D01*
X004352Y007346D01*
X004352Y007443D01*
X004255Y007443D01*
X004255Y007820D01*
X004230Y007820D01*
X004316Y007906D01*
X004316Y008020D01*
X004369Y008020D01*
X004517Y007872D01*
X004838Y007872D01*
X005065Y008100D01*
X005065Y008421D01*
X004838Y008648D01*
X004517Y008648D01*
X004369Y008500D01*
X004316Y008500D01*
X004316Y008614D01*
X004205Y008726D01*
X003654Y008726D01*
X003543Y008614D01*
X003543Y007906D01*
X003590Y007859D01*
X003280Y007859D01*
X003169Y007748D01*
X003169Y007040D01*
X003280Y006929D01*
X003582Y006929D01*
X003986Y006524D01*
X003986Y006085D01*
X003917Y006016D01*
X003917Y005308D01*
X003964Y005261D01*
X003836Y005261D01*
X003844Y005266D01*
X003872Y005294D01*
X003892Y005328D01*
X003902Y005366D01*
X003902Y005613D01*
X003604Y005613D01*
X003604Y005236D01*
X003629Y005236D01*
X003543Y005150D01*
X003543Y004441D01*
X003627Y004358D01*
X003627Y003740D01*
X003361Y003740D01*
X003056Y003435D01*
X003056Y003005D01*
X003361Y002700D01*
X003763Y002700D01*
X003763Y002298D01*
X004068Y001993D01*
X004498Y001993D01*
X004803Y002298D01*
X004803Y002728D01*
X004498Y003033D01*
X004096Y003033D01*
X004096Y003434D01*
X004106Y003459D01*
X004106Y004330D01*
X004205Y004330D01*
X004316Y004441D01*
X004316Y005150D01*
X004270Y005196D01*
X004579Y005196D01*
X004690Y005308D01*
X004690Y006016D01*
X004579Y006127D01*
X004466Y006127D01*
X004466Y006404D01*
X005164Y007103D01*
X006983Y007103D01*
X006983Y003459D01*
X007020Y003371D01*
X007087Y003303D01*
X007244Y003147D01*
X007244Y002512D01*
X007355Y002401D01*
X008299Y002401D01*
X008411Y002512D01*
X008411Y003037D01*
X008625Y003251D01*
X008662Y003339D01*
X008662Y003527D01*
X010925Y005791D01*
X010925Y005710D01*
X011224Y005710D01*
X011224Y005613D01*
X011320Y005613D01*
X011320Y005236D01*
X011346Y005236D01*
X011259Y005150D01*
X011259Y004441D01*
X011371Y004330D01*
X011419Y004330D01*
X011419Y003459D01*
X011455Y003371D01*
X011480Y003346D01*
X011480Y003033D01*
X011077Y003033D01*
X010773Y002728D01*
X010773Y002298D01*
X011077Y001993D01*
X011508Y001993D01*
X011812Y002298D01*
X011812Y002700D01*
X012215Y002700D01*
X012519Y003005D01*
X012519Y003435D01*
X012215Y003740D01*
X011898Y003740D01*
X011898Y004330D01*
X011922Y004330D01*
X012033Y004441D01*
X012033Y005150D01*
X011986Y005196D01*
X012296Y005196D01*
X012407Y005308D01*
X012407Y006016D01*
X012296Y006127D01*
X011895Y006127D01*
X011742Y006280D01*
X011675Y006347D01*
X011586Y006384D01*
X011159Y006384D01*
X011398Y006624D01*
X012306Y006624D01*
X012394Y006660D01*
X014356Y008622D01*
X014411Y008489D01*
X014571Y008328D01*
X014612Y008311D01*
X014571Y008294D01*
X014411Y008134D01*
X014324Y007925D01*
X014324Y007698D01*
X014411Y007489D01*
X014571Y007328D01*
X014650Y007296D01*
X014571Y007263D01*
X014411Y007103D01*
X014324Y006893D01*
X014324Y006667D01*
X014411Y006457D01*
X014571Y006297D01*
X014612Y006280D01*
X014571Y006263D01*
X014411Y006103D01*
X014324Y005893D01*
X014324Y005667D01*
X014411Y005457D01*
X014571Y005297D01*
X014612Y005280D01*
X014571Y005263D01*
X014411Y005103D01*
X014324Y004893D01*
X014324Y004667D01*
X014411Y004457D01*
X014571Y004297D01*
X014612Y004280D01*
X014571Y004263D01*
X014411Y004103D01*
X014324Y003893D01*
X011898Y003893D01*
X011898Y003795D02*
X014324Y003795D01*
X014324Y003893D02*
X014324Y003667D01*
X014411Y003457D01*
X014571Y003297D01*
X014612Y003280D01*
X014571Y003263D01*
X014411Y003103D01*
X014324Y002893D01*
X014324Y002667D01*
X014411Y002457D01*
X014571Y002297D01*
X014612Y002280D01*
X014571Y002263D01*
X014411Y002103D01*
X014324Y001893D01*
X014324Y001667D01*
X014411Y001457D01*
X014571Y001297D01*
X014612Y001280D01*
X014571Y001263D01*
X014411Y001103D01*
X014324Y000893D01*
X014324Y000667D01*
X014352Y000600D01*
X009345Y000600D01*
X009345Y000643D01*
X009345Y000729D01*
X009345Y000922D01*
X009282Y000986D01*
X009225Y001042D01*
X009177Y001091D01*
X009080Y001091D01*
X008996Y001091D01*
X008911Y001091D01*
X008911Y001091D01*
X008911Y001091D01*
X008855Y001035D01*
X008799Y000979D01*
X008748Y001030D01*
X008687Y001091D01*
X008517Y001091D01*
X008497Y001070D01*
X008447Y001103D01*
X008281Y001070D01*
X008235Y001001D01*
X008205Y001031D01*
X008146Y001091D01*
X007976Y001091D01*
X007889Y001004D01*
X007864Y001030D01*
X007803Y001091D01*
X007633Y001091D01*
X007595Y001052D01*
X007556Y001091D01*
X007460Y001091D01*
X007376Y001091D01*
X007290Y001091D01*
X007276Y001076D01*
X007262Y001091D01*
X007165Y001091D01*
X007079Y001091D01*
X006995Y001091D01*
X006981Y001076D01*
X006967Y001091D01*
X006870Y001091D01*
X006785Y001091D01*
X006701Y001091D01*
X006701Y001091D01*
X006662Y001052D01*
X006624Y001091D01*
X006455Y001091D01*
X006383Y001019D01*
X006335Y000971D01*
X006238Y000874D01*
X006238Y000704D01*
X006250Y000692D01*
X006238Y000680D01*
X006238Y000600D01*
X001263Y000600D01*
X001291Y000667D01*
X001291Y000893D01*
X001204Y001103D01*
X001044Y001263D01*
X001022Y001272D01*
X001044Y001281D01*
X001204Y001441D01*
X001291Y001651D01*
X001291Y001878D01*
X001204Y002087D01*
X001044Y002247D01*
X001003Y002264D01*
X001044Y002281D01*
X001204Y002441D01*
X001291Y002651D01*
X001291Y002878D01*
X001204Y003087D01*
X001044Y003247D01*
X001003Y003264D01*
X001044Y003281D01*
X001204Y003441D01*
X001291Y003651D01*
X001291Y003878D01*
X001204Y004087D01*
X001044Y004247D01*
X001003Y004264D01*
X001044Y004281D01*
X001204Y004441D01*
X001291Y004651D01*
X001291Y004878D01*
X001290Y004878D02*
X003543Y004878D01*
X003543Y004780D02*
X001291Y004780D01*
X001291Y004878D02*
X001204Y005087D01*
X001044Y005247D01*
X001003Y005264D01*
X001044Y005281D01*
X001204Y005441D01*
X001291Y005651D01*
X001291Y005878D01*
X001204Y006087D01*
X001044Y006247D01*
X001003Y006264D01*
X001044Y006281D01*
X001204Y006441D01*
X001291Y006651D01*
X003860Y006651D01*
X003958Y006553D02*
X001250Y006553D01*
X001291Y006651D02*
X001291Y006878D01*
X001204Y007087D01*
X001044Y007247D01*
X000933Y007293D01*
X000999Y007327D01*
X001066Y007376D01*
X001125Y007435D01*
X001174Y007502D01*
X001212Y007576D01*
X001238Y007656D01*
X001250Y007731D01*
X000769Y007731D01*
X000769Y007828D01*
X001250Y007828D01*
X001238Y007904D01*
X001212Y007983D01*
X001174Y008058D01*
X001125Y008125D01*
X001066Y008184D01*
X000999Y008233D01*
X000924Y008271D01*
X000897Y008280D01*
X000924Y008289D01*
X000999Y008327D01*
X001066Y008376D01*
X001125Y008435D01*
X001174Y008502D01*
X001212Y008576D01*
X001238Y008656D01*
X001250Y008731D01*
X000769Y008731D01*
X000769Y008251D01*
X000769Y007828D01*
X000672Y007828D01*
X000672Y008731D01*
X000769Y008731D01*
X000769Y008828D01*
X001250Y008828D01*
X001238Y008904D01*
X001212Y008983D01*
X001174Y009058D01*
X001125Y009125D01*
X001066Y009184D01*
X000999Y009233D01*
X000950Y009258D01*
X001044Y009297D01*
X001204Y009457D01*
X001291Y009667D01*
X001291Y009893D01*
X001204Y010103D01*
X001044Y010263D01*
X001003Y010280D01*
X001044Y010297D01*
X001204Y010457D01*
X001291Y010667D01*
X001291Y010893D01*
X001204Y011103D01*
X001044Y011263D01*
X001003Y011280D01*
X001044Y011297D01*
X001204Y011457D01*
X001291Y011667D01*
X001291Y011893D01*
X001204Y012103D01*
X001044Y012263D01*
X001003Y012280D01*
X001044Y012297D01*
X001204Y012457D01*
X001291Y012667D01*
X001291Y012889D01*
X014324Y012889D01*
X014324Y012698D01*
X014411Y012489D01*
X014571Y012328D01*
X014612Y012311D01*
X014571Y012294D01*
X014411Y012134D01*
X014324Y011925D01*
X014324Y011698D01*
X014411Y011489D01*
X014571Y011328D01*
X014612Y011311D01*
X014571Y011294D01*
X014411Y011134D01*
X014324Y010925D01*
X014324Y010698D01*
X014411Y010489D01*
X014571Y010328D01*
X014612Y010311D01*
X014571Y010294D01*
X014411Y010134D01*
X014324Y009925D01*
X014324Y009698D01*
X014345Y009649D01*
X014093Y009397D01*
X014056Y009309D01*
X014056Y009001D01*
X012367Y007311D01*
X012367Y007346D01*
X012069Y007346D01*
X012069Y007443D01*
X011972Y007443D01*
X011972Y007538D02*
X012069Y007538D01*
X012069Y007443D02*
X012069Y007820D01*
X012237Y007820D01*
X012275Y007809D01*
X012309Y007790D01*
X012337Y007762D01*
X012357Y007728D01*
X012367Y007689D01*
X012367Y007443D01*
X012069Y007443D01*
X012069Y007439D02*
X012495Y007439D01*
X012593Y007538D02*
X012367Y007538D01*
X012367Y007636D02*
X012692Y007636D01*
X012790Y007735D02*
X012353Y007735D01*
X012069Y007735D02*
X011972Y007735D01*
X011960Y007833D02*
X012889Y007833D01*
X012987Y007932D02*
X012033Y007932D01*
X012033Y008030D02*
X013086Y008030D01*
X013184Y008129D02*
X012033Y008129D01*
X012033Y008227D02*
X013283Y008227D01*
X013381Y008326D02*
X012033Y008326D01*
X012033Y008424D02*
X013480Y008424D01*
X013578Y008523D02*
X012033Y008523D01*
X012026Y008621D02*
X013677Y008621D01*
X013775Y008720D02*
X011928Y008720D01*
X011898Y008818D02*
X013874Y008818D01*
X013972Y008917D02*
X011898Y008917D01*
X011898Y009015D02*
X014056Y009015D01*
X014056Y009114D02*
X011898Y009114D01*
X011898Y009212D02*
X014056Y009212D01*
X014057Y009311D02*
X011898Y009311D01*
X011898Y009409D02*
X014105Y009409D01*
X014203Y009508D02*
X011898Y009508D01*
X011898Y009606D02*
X014302Y009606D01*
X014324Y009705D02*
X011898Y009705D01*
X011659Y009860D02*
X012018Y010220D01*
X012056Y010296D01*
X012483Y010000D02*
X014356Y010000D01*
X014324Y009902D02*
X012414Y009902D01*
X012251Y009803D02*
X014324Y009803D01*
X014396Y010099D02*
X012552Y010099D01*
X012601Y010197D02*
X014474Y010197D01*
X014574Y010296D02*
X012584Y010296D01*
X012566Y010394D02*
X014506Y010394D01*
X014409Y010493D02*
X012549Y010493D01*
X012531Y010591D02*
X014369Y010591D01*
X014328Y010690D02*
X012400Y010690D01*
X012260Y010788D02*
X014324Y010788D01*
X014324Y010887D02*
X011761Y010887D01*
X011744Y010985D02*
X014349Y010985D01*
X014390Y011084D02*
X011727Y011084D01*
X011697Y011182D02*
X014459Y011182D01*
X014557Y011281D02*
X011556Y011281D01*
X011415Y011379D02*
X014521Y011379D01*
X014422Y011478D02*
X004430Y011478D01*
X004571Y011379D02*
X011131Y011379D01*
X010890Y011281D02*
X004693Y011281D01*
X004226Y011018D02*
X004216Y010993D01*
X004226Y011018D02*
X011022Y011018D01*
X011236Y010870D01*
X010869Y010493D02*
X004373Y010493D01*
X004132Y010394D02*
X011010Y010394D01*
X010758Y010591D02*
X004570Y010591D01*
X004639Y010690D02*
X010741Y010690D01*
X011528Y010296D02*
X004149Y010296D01*
X004166Y010197D02*
X011545Y010197D01*
X011558Y010099D02*
X004184Y010099D01*
X004156Y010000D02*
X011459Y010000D01*
X011419Y009902D02*
X004087Y009902D01*
X004018Y009803D02*
X011419Y009803D01*
X011419Y009705D02*
X003949Y009705D01*
X003406Y009705D02*
X001291Y009705D01*
X001291Y009803D02*
X003266Y009803D01*
X003163Y009902D02*
X001287Y009902D01*
X001246Y010000D02*
X003146Y010000D01*
X003128Y010099D02*
X001206Y010099D01*
X001110Y010197D02*
X003111Y010197D01*
X003094Y010296D02*
X001040Y010296D01*
X001141Y010394D02*
X003163Y010394D01*
X003232Y010493D02*
X001219Y010493D01*
X001259Y010591D02*
X003301Y010591D01*
X003576Y010690D02*
X001291Y010690D01*
X001291Y010788D02*
X003725Y010788D01*
X003707Y010887D02*
X001291Y010887D01*
X001253Y010985D02*
X003690Y010985D01*
X003673Y011084D02*
X001212Y011084D01*
X001125Y011182D02*
X003714Y011182D01*
X003783Y011281D02*
X001004Y011281D01*
X001126Y011379D02*
X003852Y011379D01*
X003973Y011478D02*
X001212Y011478D01*
X001253Y011576D02*
X014375Y011576D01*
X014334Y011675D02*
X001291Y011675D01*
X001291Y011773D02*
X014324Y011773D01*
X014324Y011872D02*
X001291Y011872D01*
X001259Y011970D02*
X014343Y011970D01*
X014384Y012069D02*
X001218Y012069D01*
X001140Y012167D02*
X014444Y012167D01*
X014542Y012266D02*
X001037Y012266D01*
X001111Y012364D02*
X014536Y012364D01*
X014437Y012463D02*
X001206Y012463D01*
X001247Y012561D02*
X014381Y012561D01*
X014340Y012660D02*
X001288Y012660D01*
X001291Y012758D02*
X014324Y012758D01*
X014324Y012857D02*
X001291Y012857D01*
X001266Y009606D02*
X011419Y009606D01*
X011419Y009508D02*
X001225Y009508D01*
X001156Y009409D02*
X011419Y009409D01*
X011419Y009311D02*
X001057Y009311D01*
X001028Y009212D02*
X011419Y009212D01*
X011419Y009114D02*
X001134Y009114D01*
X001196Y009015D02*
X011419Y009015D01*
X011419Y008917D02*
X001234Y008917D01*
X001248Y008720D02*
X003648Y008720D01*
X003550Y008621D02*
X001227Y008621D01*
X001185Y008523D02*
X003543Y008523D01*
X003543Y008424D02*
X001114Y008424D01*
X000996Y008326D02*
X003543Y008326D01*
X003543Y008227D02*
X001007Y008227D01*
X001122Y008129D02*
X003543Y008129D01*
X003543Y008030D02*
X001188Y008030D01*
X001229Y007932D02*
X003543Y007932D01*
X003254Y007833D02*
X001249Y007833D01*
X001231Y007636D02*
X003169Y007636D01*
X003169Y007538D02*
X001192Y007538D01*
X001128Y007439D02*
X003169Y007439D01*
X003169Y007341D02*
X001018Y007341D01*
X001049Y007242D02*
X003169Y007242D01*
X003169Y007144D02*
X001147Y007144D01*
X001221Y007045D02*
X003169Y007045D01*
X003262Y006947D02*
X001262Y006947D01*
X001291Y006848D02*
X003663Y006848D01*
X003761Y006750D02*
X001291Y006750D01*
X001209Y006454D02*
X003986Y006454D01*
X003986Y006356D02*
X001118Y006356D01*
X001020Y006257D02*
X003986Y006257D01*
X003986Y006159D02*
X001132Y006159D01*
X001215Y006060D02*
X003271Y006060D01*
X003267Y006057D02*
X003239Y006030D01*
X003219Y005995D01*
X003209Y005957D01*
X003209Y005710D01*
X003507Y005710D01*
X003507Y005613D01*
X003604Y005613D01*
X003604Y005710D01*
X003902Y005710D01*
X003902Y005957D01*
X003892Y005995D01*
X003872Y006030D01*
X003844Y006057D01*
X003810Y006077D01*
X003772Y006087D01*
X003604Y006087D01*
X003604Y005710D01*
X003507Y005710D01*
X003507Y006087D01*
X003339Y006087D01*
X003301Y006077D01*
X003267Y006057D01*
X003210Y005962D02*
X001256Y005962D01*
X001291Y005863D02*
X003209Y005863D01*
X003209Y005765D02*
X001291Y005765D01*
X001291Y005666D02*
X003507Y005666D01*
X003507Y005613D02*
X003209Y005613D01*
X003209Y005366D01*
X003219Y005328D01*
X003239Y005294D01*
X003267Y005266D01*
X003301Y005246D01*
X003339Y005236D01*
X003507Y005236D01*
X003507Y005613D01*
X003507Y005568D02*
X003604Y005568D01*
X003604Y005666D02*
X003917Y005666D01*
X003917Y005568D02*
X003902Y005568D01*
X003902Y005469D02*
X003917Y005469D01*
X003917Y005371D02*
X003902Y005371D01*
X003850Y005272D02*
X003953Y005272D01*
X003604Y005272D02*
X003507Y005272D01*
X003507Y005371D02*
X003604Y005371D01*
X003604Y005469D02*
X003507Y005469D01*
X003507Y005765D02*
X003604Y005765D01*
X003604Y005863D02*
X003507Y005863D01*
X003507Y005962D02*
X003604Y005962D01*
X003604Y006060D02*
X003507Y006060D01*
X003840Y006060D02*
X003961Y006060D01*
X003917Y005962D02*
X003901Y005962D01*
X003902Y005863D02*
X003917Y005863D01*
X003917Y005765D02*
X003902Y005765D01*
X004226Y005665D02*
X004304Y005662D01*
X004226Y005665D02*
X004226Y006504D01*
X005065Y007343D01*
X007223Y007343D01*
X007463Y007103D02*
X010885Y007103D01*
X010885Y007040D01*
X010997Y006929D01*
X011025Y006929D01*
X008442Y004346D01*
X008411Y004346D01*
X008411Y004402D01*
X008299Y004513D01*
X007463Y004513D01*
X007463Y007103D01*
X007463Y007045D02*
X010885Y007045D01*
X010979Y006947D02*
X008367Y006947D01*
X008334Y006960D02*
X008108Y006960D01*
X007898Y006873D01*
X007738Y006713D01*
X007651Y006503D01*
X007651Y006277D01*
X007738Y006067D01*
X007898Y005907D01*
X008108Y005820D01*
X008334Y005820D01*
X008544Y005907D01*
X008704Y006067D01*
X008791Y006277D01*
X008791Y006503D01*
X008704Y006713D01*
X008544Y006873D01*
X008334Y006960D01*
X008569Y006848D02*
X009133Y006848D01*
X009124Y006843D02*
X009057Y006794D01*
X008998Y006735D01*
X008949Y006668D01*
X008911Y006594D01*
X008885Y006514D01*
X008873Y006439D01*
X009354Y006439D01*
X009354Y006919D01*
X009278Y006907D01*
X009199Y006881D01*
X009124Y006843D01*
X009012Y006750D02*
X008667Y006750D01*
X008730Y006651D02*
X008940Y006651D01*
X008897Y006553D02*
X008770Y006553D01*
X008791Y006454D02*
X008875Y006454D01*
X008873Y006342D02*
X008885Y006266D01*
X008911Y006187D01*
X008949Y006112D01*
X008998Y006045D01*
X009057Y005986D01*
X009124Y005937D01*
X009199Y005899D01*
X009278Y005873D01*
X009354Y005861D01*
X009354Y006342D01*
X009450Y006342D01*
X009450Y005861D01*
X009526Y005873D01*
X009605Y005899D01*
X009680Y005937D01*
X009747Y005986D01*
X009806Y006045D01*
X009855Y006112D01*
X009893Y006187D01*
X009919Y006266D01*
X009931Y006342D01*
X009450Y006342D01*
X009450Y006439D01*
X009354Y006439D01*
X009354Y006342D01*
X008873Y006342D01*
X008791Y006356D02*
X009354Y006356D01*
X009450Y006356D02*
X010452Y006356D01*
X010551Y006454D02*
X009928Y006454D01*
X009931Y006439D02*
X009919Y006514D01*
X009893Y006594D01*
X009855Y006668D01*
X009806Y006735D01*
X009747Y006794D01*
X009680Y006843D01*
X009605Y006881D01*
X009526Y006907D01*
X009450Y006919D01*
X009450Y006439D01*
X009931Y006439D01*
X009906Y006553D02*
X010649Y006553D01*
X010748Y006651D02*
X009864Y006651D01*
X009792Y006750D02*
X010846Y006750D01*
X010945Y006848D02*
X009671Y006848D01*
X009450Y006848D02*
X009354Y006848D01*
X009354Y006750D02*
X009450Y006750D01*
X009450Y006651D02*
X009354Y006651D01*
X009354Y006553D02*
X009450Y006553D01*
X009450Y006454D02*
X009354Y006454D01*
X009354Y006257D02*
X009450Y006257D01*
X009450Y006159D02*
X009354Y006159D01*
X009354Y006060D02*
X009450Y006060D01*
X009450Y005962D02*
X009354Y005962D01*
X009354Y005863D02*
X009450Y005863D01*
X009462Y005863D02*
X009960Y005863D01*
X010058Y005962D02*
X009714Y005962D01*
X009817Y006060D02*
X010157Y006060D01*
X010255Y006159D02*
X009879Y006159D01*
X009916Y006257D02*
X010354Y006257D01*
X010939Y006144D02*
X008422Y003627D01*
X008422Y003387D01*
X007942Y002907D01*
X007827Y002906D01*
X007244Y002908D02*
X004623Y002908D01*
X004525Y003007D02*
X007244Y003007D01*
X007244Y003105D02*
X004096Y003105D01*
X004096Y003204D02*
X007187Y003204D01*
X007089Y003302D02*
X004096Y003302D01*
X004096Y003401D02*
X007007Y003401D01*
X006983Y003499D02*
X004106Y003499D01*
X004106Y003598D02*
X006983Y003598D01*
X006983Y003696D02*
X004106Y003696D01*
X004106Y003795D02*
X006983Y003795D01*
X006983Y003893D02*
X004106Y003893D01*
X004106Y003992D02*
X006983Y003992D01*
X006983Y004090D02*
X004106Y004090D01*
X004106Y004189D02*
X006983Y004189D01*
X006983Y004287D02*
X004106Y004287D01*
X004260Y004386D02*
X006983Y004386D01*
X006983Y004484D02*
X004316Y004484D01*
X004316Y004583D02*
X006983Y004583D01*
X006983Y004681D02*
X004316Y004681D01*
X004316Y004780D02*
X006983Y004780D01*
X006983Y004878D02*
X004316Y004878D01*
X004316Y004977D02*
X006983Y004977D01*
X006983Y005075D02*
X004316Y005075D01*
X004292Y005174D02*
X006983Y005174D01*
X006983Y005272D02*
X004655Y005272D01*
X004690Y005371D02*
X006983Y005371D01*
X006983Y005469D02*
X004690Y005469D01*
X004690Y005568D02*
X006983Y005568D01*
X006983Y005666D02*
X004690Y005666D01*
X004690Y005765D02*
X006983Y005765D01*
X006983Y005863D02*
X006469Y005863D01*
X006366Y005820D02*
X006575Y005907D01*
X006735Y006067D01*
X006822Y006277D01*
X006822Y006503D01*
X006735Y006713D01*
X006575Y006873D01*
X006366Y006960D01*
X006139Y006960D01*
X005930Y006873D01*
X005769Y006713D01*
X005683Y006503D01*
X005683Y006277D01*
X005769Y006067D01*
X005930Y005907D01*
X006139Y005820D01*
X006366Y005820D01*
X006629Y005962D02*
X006983Y005962D01*
X006983Y006060D02*
X006728Y006060D01*
X006773Y006159D02*
X006983Y006159D01*
X006983Y006257D02*
X006814Y006257D01*
X006822Y006356D02*
X006983Y006356D01*
X006983Y006454D02*
X006822Y006454D01*
X006802Y006553D02*
X006983Y006553D01*
X006983Y006651D02*
X006761Y006651D01*
X006699Y006750D02*
X006983Y006750D01*
X006983Y006848D02*
X006600Y006848D01*
X006398Y006947D02*
X006983Y006947D01*
X006983Y007045D02*
X005106Y007045D01*
X005008Y006947D02*
X006107Y006947D01*
X005904Y006848D02*
X004909Y006848D01*
X004811Y006750D02*
X005806Y006750D01*
X005744Y006651D02*
X004712Y006651D01*
X004614Y006553D02*
X005703Y006553D01*
X005683Y006454D02*
X004515Y006454D01*
X004466Y006356D02*
X005683Y006356D01*
X005691Y006257D02*
X004466Y006257D01*
X004466Y006159D02*
X005732Y006159D01*
X005777Y006060D02*
X004646Y006060D01*
X004690Y005962D02*
X005875Y005962D01*
X006036Y005863D02*
X004690Y005863D01*
X004226Y006504D02*
X004226Y006624D01*
X003507Y007343D01*
X003556Y007394D01*
X003942Y007439D02*
X004255Y007439D01*
X004255Y007443D02*
X004255Y007346D01*
X003957Y007346D01*
X003957Y007232D01*
X003942Y007247D01*
X003942Y007748D01*
X003896Y007795D01*
X004024Y007795D01*
X004015Y007790D01*
X003987Y007762D01*
X003967Y007728D01*
X003957Y007689D01*
X003957Y007443D01*
X004255Y007443D01*
X004255Y007538D02*
X004352Y007538D01*
X004352Y007443D02*
X004352Y007820D01*
X004520Y007820D01*
X004558Y007809D01*
X004592Y007790D01*
X004620Y007762D01*
X004640Y007728D01*
X004650Y007689D01*
X004650Y007443D01*
X004352Y007443D01*
X004352Y007439D02*
X004822Y007439D01*
X004724Y007341D02*
X004650Y007341D01*
X004650Y007538D02*
X004921Y007538D01*
X004650Y007636D02*
X010885Y007636D01*
X010885Y007735D02*
X004636Y007735D01*
X004458Y007932D02*
X004316Y007932D01*
X004243Y007833D02*
X010970Y007833D01*
X011259Y007932D02*
X004897Y007932D01*
X004996Y008030D02*
X011259Y008030D01*
X011259Y008129D02*
X005065Y008129D01*
X005065Y008227D02*
X011259Y008227D01*
X011259Y008326D02*
X005065Y008326D01*
X005062Y008424D02*
X011259Y008424D01*
X011259Y008523D02*
X004964Y008523D01*
X004865Y008621D02*
X011266Y008621D01*
X011365Y008720D02*
X004211Y008720D01*
X004310Y008621D02*
X004490Y008621D01*
X004391Y008523D02*
X004316Y008523D01*
X004678Y008260D02*
X003930Y008260D01*
X003942Y007735D02*
X003971Y007735D01*
X003957Y007636D02*
X003942Y007636D01*
X003942Y007538D02*
X003957Y007538D01*
X003942Y007341D02*
X003957Y007341D01*
X003947Y007242D02*
X003957Y007242D01*
X004255Y007242D02*
X004352Y007242D01*
X004352Y007144D02*
X004255Y007144D01*
X004255Y007045D02*
X004352Y007045D01*
X004352Y006969D02*
X004286Y006903D01*
X004220Y006969D01*
X004255Y006969D01*
X004255Y007346D01*
X004352Y007346D01*
X004352Y006969D01*
X004330Y006947D02*
X004242Y006947D01*
X004255Y007341D02*
X004352Y007341D01*
X004352Y007636D02*
X004255Y007636D01*
X004255Y007735D02*
X004352Y007735D01*
X003169Y007735D02*
X000769Y007735D01*
X000769Y007833D02*
X000672Y007833D01*
X000672Y007932D02*
X000769Y007932D01*
X000769Y008030D02*
X000672Y008030D01*
X000672Y008129D02*
X000769Y008129D01*
X000769Y008227D02*
X000672Y008227D01*
X000672Y008326D02*
X000769Y008326D01*
X000769Y008424D02*
X000672Y008424D01*
X000672Y008523D02*
X000769Y008523D01*
X000769Y008621D02*
X000672Y008621D01*
X000672Y008720D02*
X000769Y008720D01*
X000769Y008818D02*
X011419Y008818D01*
X011659Y008302D02*
X011646Y008260D01*
X011659Y008302D02*
X011659Y009860D01*
X011779Y010788D02*
X011851Y010788D01*
X014296Y009261D02*
X014296Y008901D01*
X012258Y006863D01*
X011299Y006863D01*
X008542Y004106D01*
X007942Y004106D01*
X007827Y004008D01*
X007565Y003504D02*
X008182Y003504D01*
X008182Y003486D01*
X008107Y003411D01*
X007658Y003411D01*
X007565Y003504D01*
X007570Y003499D02*
X008182Y003499D01*
X008479Y003105D02*
X011480Y003105D01*
X011480Y003204D02*
X008578Y003204D01*
X008646Y003302D02*
X011480Y003302D01*
X011443Y003401D02*
X008662Y003401D01*
X008662Y003499D02*
X011419Y003499D01*
X011419Y003598D02*
X008732Y003598D01*
X008830Y003696D02*
X011419Y003696D01*
X011419Y003795D02*
X008929Y003795D01*
X009027Y003893D02*
X011419Y003893D01*
X011419Y003992D02*
X009126Y003992D01*
X009224Y004090D02*
X011419Y004090D01*
X011419Y004189D02*
X009323Y004189D01*
X009421Y004287D02*
X011419Y004287D01*
X011315Y004386D02*
X009520Y004386D01*
X009618Y004484D02*
X011259Y004484D01*
X011259Y004583D02*
X009717Y004583D01*
X009815Y004681D02*
X011259Y004681D01*
X011259Y004780D02*
X009914Y004780D01*
X010012Y004878D02*
X011259Y004878D01*
X011259Y004977D02*
X010111Y004977D01*
X010209Y005075D02*
X011259Y005075D01*
X011283Y005174D02*
X010308Y005174D01*
X010406Y005272D02*
X010977Y005272D01*
X010983Y005266D02*
X011017Y005246D01*
X011055Y005236D01*
X011224Y005236D01*
X011224Y005613D01*
X010925Y005613D01*
X010925Y005366D01*
X010935Y005328D01*
X010955Y005294D01*
X010983Y005266D01*
X010925Y005371D02*
X010505Y005371D01*
X010603Y005469D02*
X010925Y005469D01*
X010925Y005568D02*
X010702Y005568D01*
X010800Y005666D02*
X011224Y005666D01*
X011320Y005666D02*
X011633Y005666D01*
X011633Y005710D02*
X011633Y005308D01*
X011680Y005261D01*
X011552Y005261D01*
X011561Y005266D01*
X011589Y005294D01*
X011609Y005328D01*
X011619Y005366D01*
X011619Y005613D01*
X011320Y005613D01*
X011320Y005710D01*
X011619Y005710D01*
X011619Y005725D01*
X011633Y005710D01*
X011619Y005568D02*
X011633Y005568D01*
X011619Y005469D02*
X011633Y005469D01*
X011619Y005371D02*
X011633Y005371D01*
X011669Y005272D02*
X011567Y005272D01*
X011320Y005272D02*
X011224Y005272D01*
X011224Y005371D02*
X011320Y005371D01*
X011320Y005469D02*
X011224Y005469D01*
X011224Y005568D02*
X011320Y005568D01*
X010925Y005765D02*
X010899Y005765D01*
X010939Y006144D02*
X011539Y006144D01*
X012018Y005665D01*
X012020Y005662D01*
X012407Y005666D02*
X014325Y005666D01*
X014324Y005765D02*
X012407Y005765D01*
X012407Y005863D02*
X014324Y005863D01*
X014353Y005962D02*
X012407Y005962D01*
X012363Y006060D02*
X014393Y006060D01*
X014467Y006159D02*
X011863Y006159D01*
X011765Y006257D02*
X014565Y006257D01*
X014513Y006356D02*
X011655Y006356D01*
X011327Y006553D02*
X014372Y006553D01*
X014331Y006651D02*
X012372Y006651D01*
X012483Y006750D02*
X014324Y006750D01*
X014324Y006848D02*
X012582Y006848D01*
X012680Y006947D02*
X014346Y006947D01*
X014387Y007045D02*
X012779Y007045D01*
X012877Y007144D02*
X014452Y007144D01*
X014550Y007242D02*
X012976Y007242D01*
X013074Y007341D02*
X014559Y007341D01*
X014461Y007439D02*
X013173Y007439D01*
X013271Y007538D02*
X014391Y007538D01*
X014350Y007636D02*
X013370Y007636D01*
X013468Y007735D02*
X014324Y007735D01*
X014324Y007833D02*
X013567Y007833D01*
X013665Y007932D02*
X014327Y007932D01*
X014368Y008030D02*
X013764Y008030D01*
X013862Y008129D02*
X014409Y008129D01*
X014504Y008227D02*
X013961Y008227D01*
X014059Y008326D02*
X014578Y008326D01*
X014476Y008424D02*
X014158Y008424D01*
X014256Y008523D02*
X014397Y008523D01*
X014355Y008621D02*
X014356Y008621D01*
X014296Y009261D02*
X014776Y009741D01*
X014894Y009811D01*
X012396Y007341D02*
X012367Y007341D01*
X012069Y007636D02*
X011972Y007636D01*
X011673Y007636D02*
X011659Y007636D01*
X011659Y007538D02*
X011673Y007538D01*
X011659Y007341D02*
X011673Y007341D01*
X011659Y007242D02*
X011673Y007242D01*
X011659Y007144D02*
X011673Y007144D01*
X011659Y007735D02*
X011687Y007735D01*
X011229Y006454D02*
X014414Y006454D01*
X014365Y005568D02*
X012407Y005568D01*
X012407Y005469D02*
X014406Y005469D01*
X014498Y005371D02*
X012407Y005371D01*
X012371Y005272D02*
X014593Y005272D01*
X014482Y005174D02*
X012009Y005174D01*
X012033Y005075D02*
X014400Y005075D01*
X014359Y004977D02*
X012033Y004977D01*
X012033Y004878D02*
X014324Y004878D01*
X014324Y004780D02*
X012033Y004780D01*
X012033Y004681D02*
X014324Y004681D01*
X014359Y004583D02*
X012033Y004583D01*
X012033Y004484D02*
X014400Y004484D01*
X014483Y004386D02*
X011977Y004386D01*
X011898Y004287D02*
X014595Y004287D01*
X014497Y004189D02*
X011898Y004189D01*
X011898Y004090D02*
X014406Y004090D01*
X014365Y003992D02*
X011898Y003992D01*
X012259Y003696D02*
X014324Y003696D01*
X014353Y003598D02*
X012357Y003598D01*
X012456Y003499D02*
X014394Y003499D01*
X014468Y003401D02*
X012519Y003401D01*
X012519Y003302D02*
X014566Y003302D01*
X014512Y003204D02*
X012519Y003204D01*
X012519Y003105D02*
X014413Y003105D01*
X014371Y003007D02*
X012519Y003007D01*
X012423Y002908D02*
X014330Y002908D01*
X014324Y002810D02*
X012324Y002810D01*
X012226Y002711D02*
X014324Y002711D01*
X014347Y002613D02*
X011812Y002613D01*
X011812Y002514D02*
X014388Y002514D01*
X014453Y002416D02*
X011812Y002416D01*
X011812Y002317D02*
X014551Y002317D01*
X014527Y002219D02*
X011733Y002219D01*
X011635Y002120D02*
X014428Y002120D01*
X014377Y002022D02*
X011536Y002022D01*
X011049Y002022D02*
X004527Y002022D01*
X004625Y002120D02*
X010950Y002120D01*
X010852Y002219D02*
X004724Y002219D01*
X004803Y002317D02*
X010773Y002317D01*
X010773Y002416D02*
X008314Y002416D01*
X008411Y002514D02*
X010773Y002514D01*
X010773Y002613D02*
X008411Y002613D01*
X008411Y002711D02*
X010773Y002711D01*
X010854Y002810D02*
X008411Y002810D01*
X008411Y002908D02*
X010952Y002908D01*
X011051Y003007D02*
X008411Y003007D01*
X007244Y002810D02*
X004722Y002810D01*
X004803Y002711D02*
X007244Y002711D01*
X007244Y002613D02*
X004803Y002613D01*
X004803Y002514D02*
X007244Y002514D01*
X007341Y002416D02*
X004803Y002416D01*
X004040Y002022D02*
X001231Y002022D01*
X001272Y001923D02*
X014337Y001923D01*
X014324Y001825D02*
X001291Y001825D01*
X001291Y001726D02*
X014324Y001726D01*
X014341Y001628D02*
X001281Y001628D01*
X001240Y001529D02*
X014381Y001529D01*
X014438Y001431D02*
X001193Y001431D01*
X001094Y001332D02*
X014536Y001332D01*
X014542Y001234D02*
X001073Y001234D01*
X001172Y001135D02*
X014443Y001135D01*
X014384Y001037D02*
X009231Y001037D01*
X009330Y000938D02*
X014343Y000938D01*
X014324Y000840D02*
X009345Y000840D01*
X009345Y000741D02*
X014324Y000741D01*
X014334Y000643D02*
X009345Y000643D01*
X009345Y000729D02*
X009345Y000729D01*
X009080Y001091D02*
X009080Y001091D01*
X008857Y001037D02*
X008741Y001037D01*
X008258Y001037D02*
X008200Y001037D01*
X007922Y001037D02*
X007857Y001037D01*
X007460Y001091D02*
X007460Y001091D01*
X007290Y001091D02*
X007290Y001091D01*
X007290Y001091D01*
X007165Y001091D02*
X007165Y001091D01*
X006995Y001091D02*
X006995Y001091D01*
X006995Y001091D01*
X006870Y001091D02*
X006870Y001091D01*
X006701Y001091D02*
X006701Y001091D01*
X006400Y001037D02*
X001231Y001037D01*
X001272Y000938D02*
X006302Y000938D01*
X006335Y000971D02*
X006335Y000971D01*
X006238Y000840D02*
X001291Y000840D01*
X001291Y000741D02*
X006238Y000741D01*
X006238Y000643D02*
X001281Y000643D01*
X001171Y002120D02*
X003941Y002120D01*
X003843Y002219D02*
X001072Y002219D01*
X001079Y002317D02*
X003763Y002317D01*
X003763Y002416D02*
X001178Y002416D01*
X001234Y002514D02*
X003763Y002514D01*
X003763Y002613D02*
X001275Y002613D01*
X001291Y002711D02*
X003350Y002711D01*
X003251Y002810D02*
X001291Y002810D01*
X001278Y002908D02*
X003153Y002908D01*
X003056Y003007D02*
X001237Y003007D01*
X001186Y003105D02*
X003056Y003105D01*
X003056Y003204D02*
X001087Y003204D01*
X001064Y003302D02*
X003056Y003302D01*
X003056Y003401D02*
X001163Y003401D01*
X001228Y003499D02*
X003120Y003499D01*
X003218Y003598D02*
X001269Y003598D01*
X001291Y003696D02*
X003317Y003696D01*
X003627Y003795D02*
X001291Y003795D01*
X001284Y003893D02*
X003627Y003893D01*
X003627Y003992D02*
X001243Y003992D01*
X001201Y004090D02*
X003627Y004090D01*
X003627Y004189D02*
X001102Y004189D01*
X001049Y004287D02*
X003627Y004287D01*
X003599Y004386D02*
X001148Y004386D01*
X001222Y004484D02*
X003543Y004484D01*
X003543Y004583D02*
X001262Y004583D01*
X001291Y004681D02*
X003543Y004681D01*
X003543Y004977D02*
X001250Y004977D01*
X001209Y005075D02*
X003543Y005075D01*
X003567Y005174D02*
X001117Y005174D01*
X001022Y005272D02*
X003261Y005272D01*
X003209Y005371D02*
X001133Y005371D01*
X001215Y005469D02*
X003209Y005469D01*
X003209Y005568D02*
X001256Y005568D01*
X003866Y004706D02*
X003866Y003507D01*
X003627Y003267D01*
X003576Y003220D01*
X003866Y004706D02*
X003930Y004796D01*
X007463Y004780D02*
X008876Y004780D01*
X008975Y004878D02*
X007463Y004878D01*
X007463Y004977D02*
X009073Y004977D01*
X009172Y005075D02*
X007463Y005075D01*
X007463Y005174D02*
X009270Y005174D01*
X009369Y005272D02*
X007463Y005272D01*
X007463Y005371D02*
X009467Y005371D01*
X009566Y005469D02*
X007463Y005469D01*
X007463Y005568D02*
X009664Y005568D01*
X009763Y005666D02*
X007463Y005666D01*
X007463Y005765D02*
X009861Y005765D01*
X009342Y005863D02*
X008437Y005863D01*
X008598Y005962D02*
X009090Y005962D01*
X008987Y006060D02*
X008696Y006060D01*
X008742Y006159D02*
X008925Y006159D01*
X008888Y006257D02*
X008782Y006257D01*
X008005Y005863D02*
X007463Y005863D01*
X007463Y005962D02*
X007844Y005962D01*
X007745Y006060D02*
X007463Y006060D01*
X007463Y006159D02*
X007700Y006159D01*
X007659Y006257D02*
X007463Y006257D01*
X007463Y006356D02*
X007651Y006356D01*
X007651Y006454D02*
X007463Y006454D01*
X007463Y006553D02*
X007671Y006553D01*
X007712Y006651D02*
X007463Y006651D01*
X007463Y006750D02*
X007774Y006750D01*
X007873Y006848D02*
X007463Y006848D01*
X007463Y006947D02*
X008075Y006947D01*
X007463Y004681D02*
X008778Y004681D01*
X008679Y004583D02*
X007463Y004583D01*
X008328Y004484D02*
X008581Y004484D01*
X008482Y004386D02*
X008411Y004386D01*
X011646Y004796D02*
X011659Y004706D01*
X011659Y003507D01*
X011898Y003267D01*
X012000Y003220D01*
D16*
X004678Y008260D03*
M02*
