G75*
%MOIN*%
%OFA0B0*%
%FSLAX24Y24*%
%IPPOS*%
%LPD*%
%AMOC8*
5,1,8,0,0,1.08239X$1,22.5*
%
%ADD10C,0.0760*%
%ADD11C,0.0132*%
%ADD12C,0.0100*%
%ADD13OC8,0.0396*%
D10*
X000721Y000780D03*
X000721Y001764D03*
X000721Y002764D03*
X000721Y003764D03*
X000721Y004764D03*
X000721Y005764D03*
X000721Y006764D03*
X000721Y007780D03*
X000721Y008780D03*
X000721Y009780D03*
X000721Y010780D03*
X000721Y011780D03*
X000721Y012780D03*
X006252Y006390D03*
X008221Y006390D03*
X009402Y006390D03*
X014894Y006780D03*
X014894Y007811D03*
X014894Y008811D03*
X014894Y009811D03*
X014894Y010811D03*
X014894Y011811D03*
X014894Y012811D03*
X014894Y005780D03*
X014894Y004780D03*
X014894Y003780D03*
X014894Y002780D03*
X014894Y001780D03*
X014894Y000780D03*
D11*
X012197Y003263D02*
X012263Y003329D01*
X012263Y003111D01*
X012109Y002957D01*
X011891Y002957D01*
X011737Y003111D01*
X011737Y003329D01*
X011891Y003483D01*
X012109Y003483D01*
X012263Y003329D01*
X012164Y003288D01*
X012164Y003152D01*
X012068Y003056D01*
X011932Y003056D01*
X011836Y003152D01*
X011836Y003288D01*
X011932Y003384D01*
X012068Y003384D01*
X012164Y003288D01*
X012065Y003247D01*
X012065Y003193D01*
X012027Y003155D01*
X011973Y003155D01*
X011935Y003193D01*
X011935Y003247D01*
X011973Y003285D01*
X012027Y003285D01*
X012065Y003247D01*
X011490Y002556D02*
X011556Y002622D01*
X011556Y002404D01*
X011402Y002250D01*
X011184Y002250D01*
X011030Y002404D01*
X011030Y002622D01*
X011184Y002776D01*
X011402Y002776D01*
X011556Y002622D01*
X011457Y002581D01*
X011457Y002445D01*
X011361Y002349D01*
X011225Y002349D01*
X011129Y002445D01*
X011129Y002581D01*
X011225Y002677D01*
X011361Y002677D01*
X011457Y002581D01*
X011358Y002540D01*
X011358Y002486D01*
X011320Y002448D01*
X011266Y002448D01*
X011228Y002486D01*
X011228Y002540D01*
X011266Y002578D01*
X011320Y002578D01*
X011358Y002540D01*
X004240Y002710D02*
X004174Y002776D01*
X004392Y002776D01*
X004546Y002622D01*
X004546Y002404D01*
X004392Y002250D01*
X004174Y002250D01*
X004020Y002404D01*
X004020Y002622D01*
X004174Y002776D01*
X004215Y002677D01*
X004351Y002677D01*
X004447Y002581D01*
X004447Y002445D01*
X004351Y002349D01*
X004215Y002349D01*
X004119Y002445D01*
X004119Y002581D01*
X004215Y002677D01*
X004256Y002578D01*
X004310Y002578D01*
X004348Y002540D01*
X004348Y002486D01*
X004310Y002448D01*
X004256Y002448D01*
X004218Y002486D01*
X004218Y002540D01*
X004256Y002578D01*
X003533Y003417D02*
X003467Y003483D01*
X003685Y003483D01*
X003839Y003329D01*
X003839Y003111D01*
X003685Y002957D01*
X003467Y002957D01*
X003313Y003111D01*
X003313Y003329D01*
X003467Y003483D01*
X003508Y003384D01*
X003644Y003384D01*
X003740Y003288D01*
X003740Y003152D01*
X003644Y003056D01*
X003508Y003056D01*
X003412Y003152D01*
X003412Y003288D01*
X003508Y003384D01*
X003549Y003285D01*
X003603Y003285D01*
X003641Y003247D01*
X003641Y003193D01*
X003603Y003155D01*
X003549Y003155D01*
X003511Y003193D01*
X003511Y003247D01*
X003549Y003285D01*
X003469Y010086D02*
X003403Y010020D01*
X003365Y010235D01*
X003490Y010413D01*
X003705Y010451D01*
X003883Y010326D01*
X003921Y010111D01*
X003796Y009933D01*
X003581Y009895D01*
X003403Y010020D01*
X003493Y010077D01*
X003469Y010211D01*
X003547Y010323D01*
X003681Y010347D01*
X003793Y010269D01*
X003817Y010135D01*
X003739Y010023D01*
X003605Y009999D01*
X003493Y010077D01*
X003584Y010135D01*
X003574Y010188D01*
X003605Y010232D01*
X003658Y010242D01*
X003702Y010211D01*
X003712Y010158D01*
X003681Y010114D01*
X003628Y010104D01*
X003584Y010135D01*
X004042Y010906D02*
X003976Y010840D01*
X003938Y011055D01*
X004063Y011233D01*
X004278Y011271D01*
X004456Y011146D01*
X004494Y010931D01*
X004369Y010753D01*
X004154Y010715D01*
X003976Y010840D01*
X004066Y010897D01*
X004042Y011031D01*
X004120Y011143D01*
X004254Y011167D01*
X004366Y011089D01*
X004390Y010955D01*
X004312Y010843D01*
X004178Y010819D01*
X004066Y010897D01*
X004157Y010955D01*
X004147Y011008D01*
X004178Y011052D01*
X004231Y011062D01*
X004275Y011031D01*
X004285Y010978D01*
X004254Y010934D01*
X004201Y010924D01*
X004157Y010955D01*
X011323Y010696D02*
X011389Y010630D01*
X011174Y010592D01*
X010996Y010717D01*
X010958Y010932D01*
X011083Y011110D01*
X011298Y011148D01*
X011476Y011023D01*
X011514Y010808D01*
X011389Y010630D01*
X011332Y010720D01*
X011198Y010696D01*
X011086Y010774D01*
X011062Y010908D01*
X011140Y011020D01*
X011274Y011044D01*
X011386Y010966D01*
X011410Y010832D01*
X011332Y010720D01*
X011274Y010811D01*
X011221Y010801D01*
X011177Y010832D01*
X011167Y010885D01*
X011198Y010929D01*
X011251Y010939D01*
X011295Y010908D01*
X011305Y010855D01*
X011274Y010811D01*
X012143Y010122D02*
X012209Y010056D01*
X011994Y010018D01*
X011816Y010143D01*
X011778Y010358D01*
X011903Y010536D01*
X012118Y010574D01*
X012296Y010449D01*
X012334Y010234D01*
X012209Y010056D01*
X012152Y010146D01*
X012018Y010122D01*
X011906Y010200D01*
X011882Y010334D01*
X011960Y010446D01*
X012094Y010470D01*
X012206Y010392D01*
X012230Y010258D01*
X012152Y010146D01*
X012094Y010237D01*
X012041Y010227D01*
X011997Y010258D01*
X011987Y010311D01*
X012018Y010355D01*
X012071Y010365D01*
X012115Y010334D01*
X012125Y010281D01*
X012094Y010237D01*
D12*
X012483Y010000D02*
X014356Y010000D01*
X014324Y009925D02*
X014324Y009698D01*
X014411Y009489D01*
X014571Y009328D01*
X014612Y009311D01*
X014571Y009294D01*
X014411Y009134D01*
X014324Y008925D01*
X014324Y008698D01*
X014411Y008489D01*
X014571Y008328D01*
X014612Y008311D01*
X014571Y008294D01*
X014411Y008134D01*
X014324Y007925D01*
X014324Y007698D01*
X014411Y007489D01*
X014571Y007328D01*
X014650Y007296D01*
X014571Y007263D01*
X014411Y007103D01*
X014324Y006893D01*
X014324Y006667D01*
X014411Y006457D01*
X014571Y006297D01*
X014612Y006280D01*
X014571Y006263D01*
X014411Y006103D01*
X014324Y005893D01*
X014324Y005667D01*
X014411Y005457D01*
X014571Y005297D01*
X014612Y005280D01*
X014571Y005263D01*
X014411Y005103D01*
X014324Y004893D01*
X014324Y004667D01*
X014411Y004457D01*
X014571Y004297D01*
X014612Y004280D01*
X014571Y004263D01*
X014411Y004103D01*
X014324Y003893D01*
X010173Y003893D01*
X010271Y003795D02*
X014324Y003795D01*
X014324Y003893D02*
X014324Y003667D01*
X014411Y003457D01*
X014571Y003297D01*
X014612Y003280D01*
X014571Y003263D01*
X014411Y003103D01*
X014324Y002893D01*
X014324Y002667D01*
X014411Y002457D01*
X014571Y002297D01*
X014612Y002280D01*
X014571Y002263D01*
X014411Y002103D01*
X014324Y001893D01*
X014324Y001667D01*
X014411Y001457D01*
X014571Y001297D01*
X014612Y001280D01*
X014571Y001263D01*
X014411Y001103D01*
X014324Y000893D01*
X014324Y000667D01*
X014352Y000600D01*
X001263Y000600D01*
X001291Y000667D01*
X001291Y000893D01*
X001204Y001103D01*
X001044Y001263D01*
X001022Y001272D01*
X001044Y001281D01*
X001204Y001441D01*
X001291Y001651D01*
X001291Y001878D01*
X001204Y002087D01*
X001044Y002247D01*
X001003Y002264D01*
X001044Y002281D01*
X001204Y002441D01*
X001291Y002651D01*
X001291Y002878D01*
X001204Y003087D01*
X001044Y003247D01*
X001003Y003264D01*
X001044Y003281D01*
X001204Y003441D01*
X001291Y003651D01*
X001291Y003878D01*
X001204Y004087D01*
X001044Y004247D01*
X001003Y004264D01*
X001044Y004281D01*
X001204Y004441D01*
X001291Y004651D01*
X001291Y004878D01*
X001290Y004878D02*
X006337Y004878D01*
X006239Y004780D02*
X001291Y004780D01*
X001291Y004878D02*
X001204Y005087D01*
X001044Y005247D01*
X001003Y005264D01*
X001044Y005281D01*
X001204Y005441D01*
X001291Y005651D01*
X001291Y005878D01*
X001204Y006087D01*
X001044Y006247D01*
X001003Y006264D01*
X001044Y006281D01*
X001204Y006441D01*
X001291Y006651D01*
X005744Y006651D01*
X005769Y006713D02*
X005683Y006503D01*
X005683Y006277D01*
X005769Y006067D01*
X005930Y005907D01*
X006139Y005820D01*
X006366Y005820D01*
X006575Y005907D01*
X006735Y006067D01*
X006822Y006277D01*
X006822Y006503D01*
X006735Y006713D01*
X006654Y006794D01*
X010712Y010852D01*
X010762Y010568D01*
X010939Y010443D01*
X010939Y009480D01*
X008394Y006935D01*
X008334Y006960D01*
X008108Y006960D01*
X007898Y006873D01*
X007738Y006713D01*
X007651Y006503D01*
X007651Y006277D01*
X007676Y006217D01*
X007567Y006108D01*
X007499Y006040D01*
X004492Y003033D01*
X004096Y003033D01*
X004096Y003435D01*
X003791Y003740D01*
X003361Y003740D01*
X003056Y003435D01*
X003056Y003005D01*
X003361Y002700D01*
X003763Y002700D01*
X003763Y002298D01*
X004068Y001993D01*
X004498Y001993D01*
X004803Y002298D01*
X004803Y002666D01*
X007762Y005625D01*
X010773Y002615D01*
X010773Y002298D01*
X011077Y001993D01*
X011508Y001993D01*
X011812Y002298D01*
X011812Y002700D01*
X012215Y002700D01*
X012519Y003005D01*
X012519Y003435D01*
X012215Y003740D01*
X011784Y003740D01*
X011480Y003435D01*
X011480Y003033D01*
X011077Y003033D01*
X011055Y003011D01*
X008245Y005820D01*
X008334Y005820D01*
X008544Y005907D01*
X008704Y006067D01*
X008791Y006277D01*
X008791Y006503D01*
X008747Y006609D01*
X011382Y009245D01*
X011419Y009333D01*
X011419Y010374D01*
X011511Y010391D01*
X011581Y009994D01*
X011934Y009747D01*
X012358Y009822D01*
X012605Y010175D01*
X012530Y010599D01*
X012177Y010846D01*
X011781Y010776D01*
X011711Y011172D01*
X011358Y011419D01*
X011262Y011402D01*
X011398Y011539D01*
X014390Y011539D01*
X014411Y011489D01*
X014571Y011328D01*
X014612Y011311D01*
X014571Y011294D01*
X014411Y011134D01*
X014324Y010925D01*
X014324Y010698D01*
X014411Y010489D01*
X014571Y010328D01*
X014612Y010311D01*
X014571Y010294D01*
X014411Y010134D01*
X014324Y009925D01*
X014324Y009902D02*
X012414Y009902D01*
X012251Y009803D02*
X014324Y009803D01*
X014324Y009705D02*
X011419Y009705D01*
X011419Y009803D02*
X011854Y009803D01*
X011713Y009902D02*
X011419Y009902D01*
X011419Y010000D02*
X011580Y010000D01*
X011563Y010099D02*
X011419Y010099D01*
X011419Y010197D02*
X011545Y010197D01*
X011528Y010296D02*
X011419Y010296D01*
X010939Y010296D02*
X010155Y010296D01*
X010254Y010394D02*
X010939Y010394D01*
X010869Y010493D02*
X010352Y010493D01*
X010451Y010591D02*
X010758Y010591D01*
X010741Y010690D02*
X010549Y010690D01*
X010648Y010788D02*
X010723Y010788D01*
X011179Y010819D02*
X011236Y010870D01*
X011179Y010819D02*
X011179Y009381D01*
X008302Y006504D01*
X008221Y006390D01*
X008182Y006384D01*
X007703Y005904D01*
X007822Y005904D01*
X011179Y002548D01*
X011293Y002513D01*
X011733Y002219D02*
X014527Y002219D01*
X014551Y002317D02*
X011812Y002317D01*
X011812Y002416D02*
X014453Y002416D01*
X014388Y002514D02*
X011812Y002514D01*
X011812Y002613D02*
X014347Y002613D01*
X014324Y002711D02*
X012226Y002711D01*
X012324Y002810D02*
X014324Y002810D01*
X014330Y002908D02*
X012423Y002908D01*
X012519Y003007D02*
X014371Y003007D01*
X014413Y003105D02*
X012519Y003105D01*
X012519Y003204D02*
X014512Y003204D01*
X014566Y003302D02*
X012519Y003302D01*
X012519Y003401D02*
X014468Y003401D01*
X014394Y003499D02*
X012456Y003499D01*
X012357Y003598D02*
X014353Y003598D01*
X014324Y003696D02*
X012259Y003696D01*
X011740Y003696D02*
X010370Y003696D01*
X010468Y003598D02*
X011642Y003598D01*
X011543Y003499D02*
X010567Y003499D01*
X010665Y003401D02*
X011480Y003401D01*
X011480Y003302D02*
X010764Y003302D01*
X010862Y003204D02*
X011480Y003204D01*
X011480Y003105D02*
X010961Y003105D01*
X010578Y002810D02*
X004947Y002810D01*
X005045Y002908D02*
X010480Y002908D01*
X010381Y003007D02*
X005144Y003007D01*
X005242Y003105D02*
X010283Y003105D01*
X010184Y003204D02*
X005341Y003204D01*
X005439Y003302D02*
X010086Y003302D01*
X009987Y003401D02*
X005538Y003401D01*
X005636Y003499D02*
X009889Y003499D01*
X009790Y003598D02*
X005735Y003598D01*
X005833Y003696D02*
X009692Y003696D01*
X009593Y003795D02*
X005932Y003795D01*
X006030Y003893D02*
X009495Y003893D01*
X009396Y003992D02*
X006129Y003992D01*
X006227Y004090D02*
X009298Y004090D01*
X009199Y004189D02*
X006326Y004189D01*
X006424Y004287D02*
X009101Y004287D01*
X009002Y004386D02*
X006523Y004386D01*
X006621Y004484D02*
X008904Y004484D01*
X008805Y004583D02*
X006720Y004583D01*
X006818Y004681D02*
X008707Y004681D01*
X008608Y004780D02*
X006917Y004780D01*
X007015Y004878D02*
X008510Y004878D01*
X008411Y004977D02*
X007114Y004977D01*
X007212Y005075D02*
X008313Y005075D01*
X008214Y005174D02*
X007311Y005174D01*
X007409Y005272D02*
X008116Y005272D01*
X008017Y005371D02*
X007508Y005371D01*
X007606Y005469D02*
X007919Y005469D01*
X007820Y005568D02*
X007705Y005568D01*
X007703Y005904D02*
X004346Y002548D01*
X004283Y002513D01*
X003763Y002514D02*
X001234Y002514D01*
X001275Y002613D02*
X003763Y002613D01*
X003763Y002416D02*
X001178Y002416D01*
X001079Y002317D02*
X003763Y002317D01*
X003843Y002219D02*
X001072Y002219D01*
X001171Y002120D02*
X003941Y002120D01*
X004040Y002022D02*
X001231Y002022D01*
X001272Y001923D02*
X014337Y001923D01*
X014324Y001825D02*
X001291Y001825D01*
X001291Y001726D02*
X014324Y001726D01*
X014341Y001628D02*
X001281Y001628D01*
X001240Y001529D02*
X014381Y001529D01*
X014438Y001431D02*
X001193Y001431D01*
X001094Y001332D02*
X014536Y001332D01*
X014542Y001234D02*
X001073Y001234D01*
X001172Y001135D02*
X014443Y001135D01*
X014384Y001037D02*
X001231Y001037D01*
X001272Y000938D02*
X014343Y000938D01*
X014324Y000840D02*
X001291Y000840D01*
X001291Y000741D02*
X014324Y000741D01*
X014334Y000643D02*
X001281Y000643D01*
X001291Y002711D02*
X003350Y002711D01*
X003251Y002810D02*
X001291Y002810D01*
X001278Y002908D02*
X003153Y002908D01*
X003056Y003007D02*
X001237Y003007D01*
X001186Y003105D02*
X003056Y003105D01*
X003056Y003204D02*
X001087Y003204D01*
X001064Y003302D02*
X003056Y003302D01*
X003056Y003401D02*
X001163Y003401D01*
X001228Y003499D02*
X003120Y003499D01*
X003218Y003598D02*
X001269Y003598D01*
X001291Y003696D02*
X003317Y003696D01*
X003835Y003696D02*
X005155Y003696D01*
X005057Y003598D02*
X003934Y003598D01*
X004032Y003499D02*
X004958Y003499D01*
X004860Y003401D02*
X004096Y003401D01*
X004096Y003302D02*
X004761Y003302D01*
X004663Y003204D02*
X004096Y003204D01*
X004096Y003105D02*
X004564Y003105D01*
X004848Y002711D02*
X010677Y002711D01*
X010773Y002613D02*
X004803Y002613D01*
X004803Y002514D02*
X010773Y002514D01*
X010773Y002416D02*
X004803Y002416D01*
X004803Y002317D02*
X010773Y002317D01*
X010852Y002219D02*
X004724Y002219D01*
X004625Y002120D02*
X010950Y002120D01*
X011049Y002022D02*
X004527Y002022D01*
X005254Y003795D02*
X001291Y003795D01*
X001284Y003893D02*
X005352Y003893D01*
X005451Y003992D02*
X001243Y003992D01*
X001201Y004090D02*
X005549Y004090D01*
X005648Y004189D02*
X001102Y004189D01*
X001049Y004287D02*
X005746Y004287D01*
X005845Y004386D02*
X001148Y004386D01*
X001222Y004484D02*
X005943Y004484D01*
X006042Y004583D02*
X001262Y004583D01*
X001291Y004681D02*
X006140Y004681D01*
X006436Y004977D02*
X001250Y004977D01*
X001209Y005075D02*
X006534Y005075D01*
X006633Y005174D02*
X001117Y005174D01*
X001022Y005272D02*
X006731Y005272D01*
X006830Y005371D02*
X001133Y005371D01*
X001215Y005469D02*
X006928Y005469D01*
X007027Y005568D02*
X001256Y005568D01*
X001291Y005666D02*
X007125Y005666D01*
X007224Y005765D02*
X001291Y005765D01*
X001291Y005863D02*
X006036Y005863D01*
X005875Y005962D02*
X001256Y005962D01*
X001215Y006060D02*
X005777Y006060D01*
X005732Y006159D02*
X001132Y006159D01*
X001020Y006257D02*
X005691Y006257D01*
X005683Y006356D02*
X001118Y006356D01*
X001209Y006454D02*
X005683Y006454D01*
X005703Y006553D02*
X001250Y006553D01*
X001291Y006651D02*
X001291Y006878D01*
X001204Y007087D01*
X001044Y007247D01*
X000933Y007293D01*
X000999Y007327D01*
X001066Y007376D01*
X001125Y007435D01*
X001174Y007502D01*
X001212Y007576D01*
X001238Y007656D01*
X001250Y007731D01*
X000769Y007731D01*
X000769Y007828D01*
X001250Y007828D01*
X001238Y007904D01*
X001212Y007983D01*
X001174Y008058D01*
X001125Y008125D01*
X001066Y008184D01*
X000999Y008233D01*
X000924Y008271D01*
X000897Y008280D01*
X000924Y008289D01*
X000999Y008327D01*
X001066Y008376D01*
X001125Y008435D01*
X001174Y008502D01*
X001212Y008576D01*
X001238Y008656D01*
X001250Y008731D01*
X000769Y008731D01*
X000769Y008251D01*
X000769Y007828D01*
X000672Y007828D01*
X000672Y008731D01*
X000769Y008731D01*
X000769Y008828D01*
X001250Y008828D01*
X001238Y008904D01*
X001212Y008983D01*
X001174Y009058D01*
X001125Y009125D01*
X001066Y009184D01*
X000999Y009233D01*
X000950Y009258D01*
X001044Y009297D01*
X001204Y009457D01*
X001291Y009667D01*
X001291Y009731D01*
X002336Y010776D01*
X003727Y010776D01*
X003737Y010718D01*
X003340Y010648D01*
X003093Y010295D01*
X003168Y009871D01*
X003521Y009624D01*
X003803Y009674D01*
X004438Y009039D01*
X004438Y008569D01*
X004290Y008421D01*
X004290Y008100D01*
X004517Y007872D01*
X004838Y007872D01*
X005065Y008100D01*
X005065Y008421D01*
X004917Y008569D01*
X004917Y009186D01*
X004881Y009274D01*
X004156Y010000D01*
X009181Y010000D01*
X009083Y009902D02*
X004254Y009902D01*
X004156Y010000D02*
X004192Y010052D01*
X004122Y010448D01*
X004519Y010518D01*
X004766Y010871D01*
X004691Y011295D01*
X004338Y011542D01*
X003914Y011467D01*
X003766Y011256D01*
X002189Y011256D01*
X002101Y011219D01*
X002033Y011152D01*
X001094Y010213D01*
X001044Y010263D01*
X001003Y010280D01*
X001044Y010297D01*
X001204Y010457D01*
X001291Y010667D01*
X001291Y010893D01*
X001204Y011103D01*
X001044Y011263D01*
X001003Y011280D01*
X001044Y011297D01*
X001204Y011457D01*
X001291Y011667D01*
X001291Y011893D01*
X001204Y012103D01*
X001044Y012263D01*
X001003Y012280D01*
X001044Y012297D01*
X001204Y012457D01*
X001291Y012667D01*
X001291Y012889D01*
X014324Y012889D01*
X014324Y012698D01*
X014411Y012489D01*
X014571Y012328D01*
X014612Y012311D01*
X014571Y012294D01*
X014411Y012134D01*
X014363Y012018D01*
X011251Y012018D01*
X011163Y011982D01*
X011096Y011914D01*
X006141Y006960D01*
X006139Y006960D01*
X005930Y006873D01*
X005769Y006713D01*
X005806Y006750D02*
X001291Y006750D01*
X001291Y006848D02*
X005904Y006848D01*
X006107Y006947D02*
X001262Y006947D01*
X001221Y007045D02*
X006226Y007045D01*
X006325Y007144D02*
X001147Y007144D01*
X001049Y007242D02*
X006423Y007242D01*
X006522Y007341D02*
X001018Y007341D01*
X001128Y007439D02*
X006620Y007439D01*
X006719Y007538D02*
X001192Y007538D01*
X001231Y007636D02*
X006817Y007636D01*
X006916Y007735D02*
X000769Y007735D01*
X000769Y007833D02*
X000672Y007833D01*
X000672Y007932D02*
X000769Y007932D01*
X000769Y008030D02*
X000672Y008030D01*
X000672Y008129D02*
X000769Y008129D01*
X000769Y008227D02*
X000672Y008227D01*
X000672Y008326D02*
X000769Y008326D01*
X000769Y008424D02*
X000672Y008424D01*
X000672Y008523D02*
X000769Y008523D01*
X000769Y008621D02*
X000672Y008621D01*
X000672Y008720D02*
X000769Y008720D01*
X000769Y008818D02*
X004438Y008818D01*
X004438Y008720D02*
X001248Y008720D01*
X001227Y008621D02*
X004438Y008621D01*
X004391Y008523D02*
X001185Y008523D01*
X001114Y008424D02*
X004293Y008424D01*
X004290Y008326D02*
X000996Y008326D01*
X001007Y008227D02*
X004290Y008227D01*
X004290Y008129D02*
X001122Y008129D01*
X001188Y008030D02*
X004359Y008030D01*
X004458Y007932D02*
X001229Y007932D01*
X001249Y007833D02*
X007014Y007833D01*
X007113Y007932D02*
X004897Y007932D01*
X004996Y008030D02*
X007211Y008030D01*
X007310Y008129D02*
X005065Y008129D01*
X005065Y008227D02*
X007408Y008227D01*
X007507Y008326D02*
X005065Y008326D01*
X005062Y008424D02*
X007605Y008424D01*
X007704Y008523D02*
X004964Y008523D01*
X004917Y008621D02*
X007802Y008621D01*
X007901Y008720D02*
X004917Y008720D01*
X004917Y008818D02*
X007999Y008818D01*
X008098Y008917D02*
X004917Y008917D01*
X004917Y009015D02*
X008196Y009015D01*
X008295Y009114D02*
X004917Y009114D01*
X004907Y009212D02*
X008393Y009212D01*
X008492Y009311D02*
X004845Y009311D01*
X004746Y009409D02*
X008590Y009409D01*
X008689Y009508D02*
X004648Y009508D01*
X004549Y009606D02*
X008787Y009606D01*
X008886Y009705D02*
X004451Y009705D01*
X004352Y009803D02*
X008984Y009803D01*
X009280Y010099D02*
X004184Y010099D01*
X004166Y010197D02*
X009378Y010197D01*
X009477Y010296D02*
X004149Y010296D01*
X004132Y010394D02*
X009575Y010394D01*
X009674Y010493D02*
X004373Y010493D01*
X004570Y010591D02*
X009772Y010591D01*
X009871Y010690D02*
X004639Y010690D01*
X004708Y010788D02*
X009969Y010788D01*
X010068Y010887D02*
X004763Y010887D01*
X004745Y010985D02*
X010166Y010985D01*
X010265Y011084D02*
X004728Y011084D01*
X004711Y011182D02*
X010363Y011182D01*
X010462Y011281D02*
X004693Y011281D01*
X004571Y011379D02*
X010560Y011379D01*
X010659Y011478D02*
X004430Y011478D01*
X003973Y011478D02*
X001212Y011478D01*
X001253Y011576D02*
X010757Y011576D01*
X010856Y011675D02*
X001291Y011675D01*
X001291Y011773D02*
X010954Y011773D01*
X011053Y011872D02*
X001291Y011872D01*
X001259Y011970D02*
X011151Y011970D01*
X011299Y011779D02*
X014776Y011779D01*
X014894Y011811D01*
X014521Y011379D02*
X011415Y011379D01*
X011337Y011478D02*
X014422Y011478D01*
X014557Y011281D02*
X011556Y011281D01*
X011697Y011182D02*
X014459Y011182D01*
X014390Y011084D02*
X011727Y011084D01*
X011744Y010985D02*
X014349Y010985D01*
X014324Y010887D02*
X011761Y010887D01*
X011779Y010788D02*
X011851Y010788D01*
X012260Y010788D02*
X014324Y010788D01*
X014328Y010690D02*
X012400Y010690D01*
X012531Y010591D02*
X014369Y010591D01*
X014409Y010493D02*
X012549Y010493D01*
X012566Y010394D02*
X014506Y010394D01*
X014574Y010296D02*
X012584Y010296D01*
X012601Y010197D02*
X014474Y010197D01*
X014396Y010099D02*
X012552Y010099D01*
X011419Y009606D02*
X014362Y009606D01*
X014403Y009508D02*
X011419Y009508D01*
X011419Y009409D02*
X014491Y009409D01*
X014610Y009311D02*
X011409Y009311D01*
X011349Y009212D02*
X014489Y009212D01*
X014403Y009114D02*
X011251Y009114D01*
X011152Y009015D02*
X014362Y009015D01*
X014324Y008917D02*
X011054Y008917D01*
X010955Y008818D02*
X014324Y008818D01*
X014324Y008720D02*
X010857Y008720D01*
X010758Y008621D02*
X014356Y008621D01*
X014397Y008523D02*
X010660Y008523D01*
X010561Y008424D02*
X014476Y008424D01*
X014578Y008326D02*
X010463Y008326D01*
X010364Y008227D02*
X014504Y008227D01*
X014409Y008129D02*
X010266Y008129D01*
X010167Y008030D02*
X014368Y008030D01*
X014327Y007932D02*
X010069Y007932D01*
X009970Y007833D02*
X014324Y007833D01*
X014324Y007735D02*
X009872Y007735D01*
X009773Y007636D02*
X014350Y007636D01*
X014391Y007538D02*
X009675Y007538D01*
X009576Y007439D02*
X014461Y007439D01*
X014559Y007341D02*
X009478Y007341D01*
X009379Y007242D02*
X014550Y007242D01*
X014452Y007144D02*
X009281Y007144D01*
X009182Y007045D02*
X014387Y007045D01*
X014346Y006947D02*
X009084Y006947D01*
X009133Y006848D02*
X008985Y006848D01*
X009057Y006794D02*
X008998Y006735D01*
X008949Y006668D01*
X008911Y006594D01*
X008885Y006514D01*
X008873Y006439D01*
X009354Y006439D01*
X009354Y006919D01*
X009278Y006907D01*
X009199Y006881D01*
X009124Y006843D01*
X009057Y006794D01*
X009012Y006750D02*
X008887Y006750D01*
X008940Y006651D02*
X008788Y006651D01*
X008770Y006553D02*
X008897Y006553D01*
X008875Y006454D02*
X008791Y006454D01*
X008791Y006356D02*
X009354Y006356D01*
X009354Y006342D02*
X008873Y006342D01*
X008885Y006266D01*
X008911Y006187D01*
X008949Y006112D01*
X008998Y006045D01*
X009057Y005986D01*
X009124Y005937D01*
X009199Y005899D01*
X009278Y005873D01*
X009354Y005861D01*
X009354Y006342D01*
X009450Y006342D01*
X009450Y005861D01*
X009526Y005873D01*
X009605Y005899D01*
X009680Y005937D01*
X009747Y005986D01*
X009806Y006045D01*
X009855Y006112D01*
X009893Y006187D01*
X009919Y006266D01*
X009931Y006342D01*
X009450Y006342D01*
X009450Y006439D01*
X009354Y006439D01*
X009354Y006342D01*
X009354Y006257D02*
X009450Y006257D01*
X009450Y006159D02*
X009354Y006159D01*
X009354Y006060D02*
X009450Y006060D01*
X009450Y005962D02*
X009354Y005962D01*
X009354Y005863D02*
X009450Y005863D01*
X009462Y005863D02*
X014324Y005863D01*
X014324Y005765D02*
X008301Y005765D01*
X008400Y005666D02*
X014325Y005666D01*
X014365Y005568D02*
X008498Y005568D01*
X008597Y005469D02*
X014406Y005469D01*
X014498Y005371D02*
X008695Y005371D01*
X008794Y005272D02*
X014593Y005272D01*
X014482Y005174D02*
X008892Y005174D01*
X008991Y005075D02*
X014400Y005075D01*
X014359Y004977D02*
X009089Y004977D01*
X009188Y004878D02*
X014324Y004878D01*
X014324Y004780D02*
X009286Y004780D01*
X009385Y004681D02*
X014324Y004681D01*
X014359Y004583D02*
X009483Y004583D01*
X009582Y004484D02*
X014400Y004484D01*
X014483Y004386D02*
X009680Y004386D01*
X009779Y004287D02*
X014595Y004287D01*
X014497Y004189D02*
X009877Y004189D01*
X009976Y004090D02*
X014406Y004090D01*
X014365Y003992D02*
X010074Y003992D01*
X009342Y005863D02*
X008437Y005863D01*
X008598Y005962D02*
X009090Y005962D01*
X008987Y006060D02*
X008696Y006060D01*
X008742Y006159D02*
X008925Y006159D01*
X008888Y006257D02*
X008782Y006257D01*
X009354Y006454D02*
X009450Y006454D01*
X009450Y006439D02*
X009450Y006919D01*
X009526Y006907D01*
X009605Y006881D01*
X009680Y006843D01*
X009747Y006794D01*
X009806Y006735D01*
X009855Y006668D01*
X009893Y006594D01*
X009919Y006514D01*
X009931Y006439D01*
X009450Y006439D01*
X009450Y006356D02*
X014513Y006356D01*
X014565Y006257D02*
X009916Y006257D01*
X009879Y006159D02*
X014467Y006159D01*
X014393Y006060D02*
X009817Y006060D01*
X009714Y005962D02*
X014353Y005962D01*
X014414Y006454D02*
X009928Y006454D01*
X009906Y006553D02*
X014372Y006553D01*
X014331Y006651D02*
X009864Y006651D01*
X009792Y006750D02*
X014324Y006750D01*
X014324Y006848D02*
X009671Y006848D01*
X009450Y006848D02*
X009354Y006848D01*
X009354Y006750D02*
X009450Y006750D01*
X009450Y006651D02*
X009354Y006651D01*
X009354Y006553D02*
X009450Y006553D01*
X008701Y007242D02*
X007102Y007242D01*
X007200Y007341D02*
X008800Y007341D01*
X008898Y007439D02*
X007299Y007439D01*
X007397Y007538D02*
X008997Y007538D01*
X009095Y007636D02*
X007496Y007636D01*
X007594Y007735D02*
X009194Y007735D01*
X009292Y007833D02*
X007693Y007833D01*
X007791Y007932D02*
X009391Y007932D01*
X009489Y008030D02*
X007890Y008030D01*
X007988Y008129D02*
X009588Y008129D01*
X009686Y008227D02*
X008087Y008227D01*
X008185Y008326D02*
X009785Y008326D01*
X009883Y008424D02*
X008284Y008424D01*
X008382Y008523D02*
X009982Y008523D01*
X010080Y008621D02*
X008481Y008621D01*
X008579Y008720D02*
X010179Y008720D01*
X010277Y008818D02*
X008678Y008818D01*
X008776Y008917D02*
X010376Y008917D01*
X010474Y009015D02*
X008875Y009015D01*
X008973Y009114D02*
X010573Y009114D01*
X010671Y009212D02*
X009072Y009212D01*
X009170Y009311D02*
X010770Y009311D01*
X010868Y009409D02*
X009269Y009409D01*
X009367Y009508D02*
X010939Y009508D01*
X010939Y009606D02*
X009466Y009606D01*
X009564Y009705D02*
X010939Y009705D01*
X010939Y009803D02*
X009663Y009803D01*
X009761Y009902D02*
X010939Y009902D01*
X010939Y010000D02*
X009860Y010000D01*
X009958Y010099D02*
X010939Y010099D01*
X010939Y010197D02*
X010057Y010197D01*
X011299Y011779D02*
X006264Y006744D01*
X006264Y006504D01*
X006252Y006390D01*
X006629Y005962D02*
X007421Y005962D01*
X007519Y006060D02*
X006728Y006060D01*
X006773Y006159D02*
X007618Y006159D01*
X007659Y006257D02*
X006814Y006257D01*
X006822Y006356D02*
X007651Y006356D01*
X007651Y006454D02*
X006822Y006454D01*
X006802Y006553D02*
X007671Y006553D01*
X007712Y006651D02*
X006761Y006651D01*
X006699Y006750D02*
X007774Y006750D01*
X007873Y006848D02*
X006708Y006848D01*
X006806Y006947D02*
X008075Y006947D01*
X008367Y006947D02*
X008406Y006947D01*
X008504Y007045D02*
X006905Y007045D01*
X007003Y007144D02*
X008603Y007144D01*
X007322Y005863D02*
X006469Y005863D01*
X004678Y008260D02*
X004678Y009139D01*
X003643Y010173D01*
X003232Y010493D02*
X002052Y010493D01*
X002151Y010591D02*
X003301Y010591D01*
X003163Y010394D02*
X001954Y010394D01*
X001855Y010296D02*
X003094Y010296D01*
X003111Y010197D02*
X001757Y010197D01*
X001658Y010099D02*
X003128Y010099D01*
X003146Y010000D02*
X001560Y010000D01*
X001461Y009902D02*
X003163Y009902D01*
X003266Y009803D02*
X001363Y009803D01*
X001291Y009705D02*
X003406Y009705D01*
X003871Y009606D02*
X001266Y009606D01*
X001225Y009508D02*
X003970Y009508D01*
X004068Y009409D02*
X001156Y009409D01*
X001057Y009311D02*
X004167Y009311D01*
X004265Y009212D02*
X001028Y009212D01*
X001134Y009114D02*
X004364Y009114D01*
X004438Y009015D02*
X001196Y009015D01*
X001234Y008917D02*
X004438Y008917D01*
X003576Y010690D02*
X002249Y010690D01*
X002237Y011016D02*
X004193Y011016D01*
X004216Y010993D01*
X003783Y011281D02*
X001004Y011281D01*
X001125Y011182D02*
X002063Y011182D01*
X001965Y011084D02*
X001212Y011084D01*
X001253Y010985D02*
X001866Y010985D01*
X001768Y010887D02*
X001291Y010887D01*
X001291Y010788D02*
X001669Y010788D01*
X001571Y010690D02*
X001291Y010690D01*
X001259Y010591D02*
X001472Y010591D01*
X001374Y010493D02*
X001219Y010493D01*
X001275Y010394D02*
X001141Y010394D01*
X001177Y010296D02*
X001040Y010296D01*
X001000Y009780D02*
X000721Y009780D01*
X001000Y009780D02*
X002237Y011016D01*
X001126Y011379D02*
X003852Y011379D01*
X001288Y012660D02*
X014340Y012660D01*
X014324Y012758D02*
X001291Y012758D01*
X001291Y012857D02*
X014324Y012857D01*
X014381Y012561D02*
X001247Y012561D01*
X001206Y012463D02*
X014437Y012463D01*
X014536Y012364D02*
X001111Y012364D01*
X001037Y012266D02*
X014542Y012266D01*
X014444Y012167D02*
X001140Y012167D01*
X001218Y012069D02*
X014384Y012069D01*
X014428Y002120D02*
X011635Y002120D01*
X011536Y002022D02*
X014377Y002022D01*
D13*
X004678Y008260D03*
M02*
