G75*
%MOIN*%
%OFA0B0*%
%FSLAX24Y24*%
%IPPOS*%
%LPD*%
%AMOC8*
5,1,8,0,0,1.08239X$1,22.5*
%
%ADD10C,0.0760*%
%ADD11R,0.0551X0.0394*%
%ADD12C,0.0132*%
%ADD13R,0.0787X0.0630*%
%ADD14R,0.0630X0.0787*%
%ADD15C,0.0100*%
%ADD16OC8,0.0278*%
%ADD17C,0.0120*%
D10*
X000737Y002260D03*
X000737Y003244D03*
X000737Y004244D03*
X000737Y005244D03*
X000737Y006244D03*
X000737Y007244D03*
X000737Y008244D03*
X001737Y011260D03*
X002737Y011260D03*
X003737Y011260D03*
X004737Y011260D03*
X005737Y011260D03*
X006737Y011260D03*
X007737Y011276D03*
X008737Y011276D03*
X009737Y011276D03*
X010737Y011276D03*
X011737Y011276D03*
X012737Y011276D03*
X013737Y008244D03*
X013737Y007244D03*
X013737Y006244D03*
X013737Y005244D03*
X013737Y004244D03*
X013737Y003244D03*
X013737Y002244D03*
X008811Y005032D03*
X007630Y005032D03*
X005662Y005032D03*
D11*
X010544Y006370D03*
X011410Y005996D03*
X011410Y006744D03*
D12*
X010940Y007788D02*
X011006Y007722D01*
X010788Y007722D01*
X010634Y007876D01*
X010634Y008094D01*
X010788Y008248D01*
X011006Y008248D01*
X011160Y008094D01*
X011160Y007876D01*
X011006Y007722D01*
X010965Y007821D01*
X010829Y007821D01*
X010733Y007917D01*
X010733Y008053D01*
X010829Y008149D01*
X010965Y008149D01*
X011061Y008053D01*
X011061Y007917D01*
X010965Y007821D01*
X010924Y007920D01*
X010870Y007920D01*
X010832Y007958D01*
X010832Y008012D01*
X010870Y008050D01*
X010924Y008050D01*
X010962Y008012D01*
X010962Y007958D01*
X010924Y007920D01*
X010233Y008496D02*
X010299Y008430D01*
X010081Y008430D01*
X009927Y008584D01*
X009927Y008802D01*
X010081Y008956D01*
X010299Y008956D01*
X010453Y008802D01*
X010453Y008584D01*
X010299Y008430D01*
X010258Y008529D01*
X010122Y008529D01*
X010026Y008625D01*
X010026Y008761D01*
X010122Y008857D01*
X010258Y008857D01*
X010354Y008761D01*
X010354Y008625D01*
X010258Y008529D01*
X010217Y008628D01*
X010163Y008628D01*
X010125Y008666D01*
X010125Y008720D01*
X010163Y008758D01*
X010217Y008758D01*
X010255Y008720D01*
X010255Y008666D01*
X010217Y008628D01*
X003968Y008650D02*
X003902Y008584D01*
X003902Y008802D01*
X004056Y008956D01*
X004274Y008956D01*
X004428Y008802D01*
X004428Y008584D01*
X004274Y008430D01*
X004056Y008430D01*
X003902Y008584D01*
X004001Y008625D01*
X004001Y008761D01*
X004097Y008857D01*
X004233Y008857D01*
X004329Y008761D01*
X004329Y008625D01*
X004233Y008529D01*
X004097Y008529D01*
X004001Y008625D01*
X004100Y008666D01*
X004100Y008720D01*
X004138Y008758D01*
X004192Y008758D01*
X004230Y008720D01*
X004230Y008666D01*
X004192Y008628D01*
X004138Y008628D01*
X004100Y008666D01*
X003261Y007942D02*
X003195Y007876D01*
X003195Y008094D01*
X003349Y008248D01*
X003567Y008248D01*
X003721Y008094D01*
X003721Y007876D01*
X003567Y007722D01*
X003349Y007722D01*
X003195Y007876D01*
X003294Y007917D01*
X003294Y008053D01*
X003390Y008149D01*
X003526Y008149D01*
X003622Y008053D01*
X003622Y007917D01*
X003526Y007821D01*
X003390Y007821D01*
X003294Y007917D01*
X003393Y007958D01*
X003393Y008012D01*
X003431Y008050D01*
X003485Y008050D01*
X003523Y008012D01*
X003523Y007958D01*
X003485Y007920D01*
X003431Y007920D01*
X003393Y007958D01*
X003415Y002669D02*
X003349Y002735D01*
X003567Y002735D01*
X003721Y002581D01*
X003721Y002363D01*
X003567Y002209D01*
X003349Y002209D01*
X003195Y002363D01*
X003195Y002581D01*
X003349Y002735D01*
X003390Y002636D01*
X003526Y002636D01*
X003622Y002540D01*
X003622Y002404D01*
X003526Y002308D01*
X003390Y002308D01*
X003294Y002404D01*
X003294Y002540D01*
X003390Y002636D01*
X003431Y002537D01*
X003485Y002537D01*
X003523Y002499D01*
X003523Y002445D01*
X003485Y002407D01*
X003431Y002407D01*
X003393Y002445D01*
X003393Y002499D01*
X003431Y002537D01*
X004122Y001962D02*
X004056Y002028D01*
X004274Y002028D01*
X004428Y001874D01*
X004428Y001656D01*
X004274Y001502D01*
X004056Y001502D01*
X003902Y001656D01*
X003902Y001874D01*
X004056Y002028D01*
X004097Y001929D01*
X004233Y001929D01*
X004329Y001833D01*
X004329Y001697D01*
X004233Y001601D01*
X004097Y001601D01*
X004001Y001697D01*
X004001Y001833D01*
X004097Y001929D01*
X004138Y001830D01*
X004192Y001830D01*
X004230Y001792D01*
X004230Y001738D01*
X004192Y001700D01*
X004138Y001700D01*
X004100Y001738D01*
X004100Y001792D01*
X004138Y001830D01*
X010387Y001808D02*
X010453Y001874D01*
X010453Y001656D01*
X010299Y001502D01*
X010081Y001502D01*
X009927Y001656D01*
X009927Y001874D01*
X010081Y002028D01*
X010299Y002028D01*
X010453Y001874D01*
X010354Y001833D01*
X010354Y001697D01*
X010258Y001601D01*
X010122Y001601D01*
X010026Y001697D01*
X010026Y001833D01*
X010122Y001929D01*
X010258Y001929D01*
X010354Y001833D01*
X010255Y001792D01*
X010255Y001738D01*
X010217Y001700D01*
X010163Y001700D01*
X010125Y001738D01*
X010125Y001792D01*
X010163Y001830D01*
X010217Y001830D01*
X010255Y001792D01*
X011094Y002515D02*
X011160Y002581D01*
X011160Y002363D01*
X011006Y002209D01*
X010788Y002209D01*
X010634Y002363D01*
X010634Y002581D01*
X010788Y002735D01*
X011006Y002735D01*
X011160Y002581D01*
X011061Y002540D01*
X011061Y002404D01*
X010965Y002308D01*
X010829Y002308D01*
X010733Y002404D01*
X010733Y002540D01*
X010829Y002636D01*
X010965Y002636D01*
X011061Y002540D01*
X010962Y002499D01*
X010962Y002445D01*
X010924Y002407D01*
X010870Y002407D01*
X010832Y002445D01*
X010832Y002499D01*
X010870Y002537D01*
X010924Y002537D01*
X010962Y002499D01*
D13*
X008418Y002276D03*
X008418Y001174D03*
X006056Y001174D03*
X006056Y002276D03*
X006370Y007985D03*
X006370Y009087D03*
X008103Y009087D03*
X008103Y007985D03*
D14*
X010426Y004678D03*
X011528Y004678D03*
D15*
X001651Y000995D02*
X001523Y001305D01*
X001285Y001542D01*
X000975Y001671D01*
X000640Y001671D01*
X000600Y001654D01*
X000600Y001700D01*
X000623Y001690D01*
X000850Y001690D01*
X001059Y001777D01*
X001220Y001937D01*
X001306Y002147D01*
X001306Y002374D01*
X001220Y002583D01*
X001059Y002743D01*
X001037Y002752D01*
X001059Y002761D01*
X001220Y002922D01*
X001306Y003131D01*
X001306Y003358D01*
X001220Y003567D01*
X001059Y003728D01*
X001018Y003744D01*
X001059Y003761D01*
X001220Y003922D01*
X001306Y004131D01*
X001306Y004358D01*
X001220Y004567D01*
X001059Y004728D01*
X001018Y004744D01*
X001059Y004761D01*
X001220Y004922D01*
X001306Y005131D01*
X001306Y005358D01*
X001220Y005567D01*
X001059Y005728D01*
X001018Y005744D01*
X001059Y005761D01*
X001220Y005922D01*
X001306Y006131D01*
X001306Y006358D01*
X001220Y006567D01*
X001059Y006728D01*
X001018Y006744D01*
X001059Y006761D01*
X001220Y006922D01*
X001306Y007131D01*
X001306Y007358D01*
X001220Y007567D01*
X001059Y007728D01*
X001018Y007744D01*
X001059Y007761D01*
X001220Y007922D01*
X001306Y008131D01*
X001306Y008358D01*
X001220Y008567D01*
X001059Y008728D01*
X000850Y008814D01*
X000623Y008814D01*
X000600Y008805D01*
X000600Y011432D01*
X001235Y011432D01*
X001220Y011384D01*
X001208Y011309D01*
X001688Y011309D01*
X001688Y011212D01*
X001208Y011212D01*
X001220Y011136D01*
X001245Y011057D01*
X001283Y010982D01*
X001332Y010915D01*
X001391Y010856D01*
X001459Y010807D01*
X001533Y010769D01*
X001613Y010743D01*
X001688Y010731D01*
X001688Y011212D01*
X001785Y011212D01*
X001785Y011309D01*
X002688Y011309D01*
X002688Y011212D01*
X002208Y011212D01*
X001785Y011212D01*
X001785Y010731D01*
X001861Y010743D01*
X001940Y010769D01*
X002014Y010807D01*
X002082Y010856D01*
X002141Y010915D01*
X002190Y010982D01*
X002228Y011057D01*
X002237Y011084D01*
X002245Y011057D01*
X002283Y010982D01*
X002332Y010915D01*
X002391Y010856D01*
X002459Y010807D01*
X002533Y010769D01*
X002613Y010743D01*
X002688Y010731D01*
X002688Y011212D01*
X002785Y011212D01*
X002785Y010731D01*
X002861Y010743D01*
X002940Y010769D01*
X003014Y010807D01*
X003082Y010856D01*
X003141Y010915D01*
X003190Y010982D01*
X003215Y011031D01*
X003254Y010937D01*
X003414Y010777D01*
X003623Y010690D01*
X003850Y010690D01*
X003963Y010737D01*
X004438Y010284D01*
X004438Y009155D01*
X004380Y009212D01*
X003950Y009212D01*
X003645Y008908D01*
X003645Y008505D01*
X003243Y008505D01*
X002938Y008201D01*
X002938Y007805D01*
X002899Y007766D01*
X002863Y007678D01*
X002863Y002543D01*
X002899Y002455D01*
X002938Y002417D01*
X002938Y002257D01*
X003243Y001952D01*
X003645Y001952D01*
X003645Y001550D01*
X003950Y001245D01*
X004031Y001245D01*
X004306Y000970D01*
X004394Y000934D01*
X005472Y000934D01*
X005472Y000780D01*
X005583Y000669D01*
X006528Y000669D01*
X006639Y000780D01*
X006639Y001567D01*
X006528Y001678D01*
X005583Y001678D01*
X005472Y001567D01*
X005472Y001413D01*
X004548Y001413D01*
X004685Y001550D01*
X004685Y001980D01*
X004380Y002285D01*
X003978Y002285D01*
X003978Y002687D01*
X003673Y002992D01*
X003343Y002992D01*
X003343Y007466D01*
X003673Y007466D01*
X003978Y007770D01*
X003978Y008173D01*
X004380Y008173D01*
X004467Y008260D01*
X004474Y008243D01*
X004542Y008175D01*
X004831Y007885D01*
X004831Y003654D01*
X004829Y003647D01*
X004831Y003607D01*
X004831Y003567D01*
X004835Y003560D01*
X004835Y003552D01*
X004853Y003516D01*
X004868Y003479D01*
X004874Y003473D01*
X004877Y003466D01*
X004907Y003440D01*
X004935Y003411D01*
X004943Y003408D01*
X005656Y002781D01*
X005583Y002781D01*
X005472Y002670D01*
X005472Y001882D01*
X005583Y001771D01*
X006528Y001771D01*
X006639Y001882D01*
X006639Y002036D01*
X007834Y002036D01*
X007834Y001882D01*
X007945Y001771D01*
X008890Y001771D01*
X009001Y001882D01*
X009001Y002670D01*
X008890Y002781D01*
X007945Y002781D01*
X007834Y002670D01*
X007834Y002516D01*
X007476Y002516D01*
X007476Y003043D01*
X007834Y003400D01*
X007870Y003488D01*
X007870Y004514D01*
X007953Y004549D01*
X008113Y004709D01*
X008200Y004919D01*
X008200Y005145D01*
X008113Y005355D01*
X007953Y005515D01*
X007870Y005549D01*
X007870Y006491D01*
X008287Y007082D01*
X008306Y007101D01*
X008314Y007120D01*
X008326Y007137D01*
X008332Y007164D01*
X008343Y007189D01*
X008343Y007210D01*
X008347Y007230D01*
X008343Y007257D01*
X008343Y007480D01*
X008575Y007480D01*
X008686Y007591D01*
X008686Y008378D01*
X008575Y008489D01*
X007630Y008489D01*
X007519Y008378D01*
X007519Y007591D01*
X007630Y007480D01*
X007863Y007480D01*
X007863Y007313D01*
X007446Y006722D01*
X007427Y006703D01*
X007419Y006684D01*
X007407Y006667D01*
X007401Y006640D01*
X007391Y006615D01*
X007391Y006594D01*
X007386Y006574D01*
X007391Y006547D01*
X007391Y005549D01*
X007308Y005515D01*
X007147Y005355D01*
X007061Y005145D01*
X007061Y004919D01*
X007147Y004709D01*
X007308Y004549D01*
X007391Y004514D01*
X007391Y003635D01*
X007101Y003345D01*
X007033Y003278D01*
X006997Y003190D01*
X006997Y002516D01*
X006639Y002516D01*
X006639Y002670D01*
X006528Y002781D01*
X006295Y002781D01*
X006295Y002796D01*
X006292Y002803D01*
X006292Y002811D01*
X006274Y002847D01*
X006259Y002884D01*
X006253Y002890D01*
X006250Y002897D01*
X006220Y002923D01*
X006191Y002952D01*
X006184Y002955D01*
X005311Y003723D01*
X005311Y004577D01*
X005339Y004549D01*
X005548Y004462D01*
X005775Y004462D01*
X005985Y004549D01*
X006145Y004709D01*
X006232Y004919D01*
X006232Y005145D01*
X006220Y005174D01*
X007203Y005965D01*
X007215Y005970D01*
X007240Y005995D01*
X007267Y006017D01*
X007273Y006028D01*
X007282Y006038D01*
X007296Y006070D01*
X007312Y006101D01*
X007314Y006114D01*
X007319Y006126D01*
X007319Y006161D01*
X007323Y006195D01*
X007319Y006208D01*
X007319Y009064D01*
X007519Y009259D01*
X007519Y008693D01*
X007630Y008582D01*
X008575Y008582D01*
X008686Y008693D01*
X008686Y008847D01*
X009670Y008847D01*
X009670Y008477D01*
X009975Y008173D01*
X010377Y008173D01*
X010377Y007770D01*
X010682Y007466D01*
X010722Y007466D01*
X010426Y007250D01*
X010408Y007243D01*
X010387Y007223D01*
X010364Y007206D01*
X010354Y007189D01*
X010340Y007176D01*
X010329Y007149D01*
X010314Y007124D01*
X010311Y007105D01*
X010304Y007087D01*
X010304Y007059D01*
X010299Y007030D01*
X010304Y007011D01*
X010304Y006757D01*
X010190Y006757D01*
X010078Y006646D01*
X010078Y006095D01*
X010156Y006017D01*
X009804Y005797D01*
X009778Y005786D01*
X009764Y005772D01*
X009746Y005761D01*
X009730Y005739D01*
X009711Y005719D01*
X009703Y005700D01*
X009691Y005683D01*
X009685Y005656D01*
X009674Y005631D01*
X009674Y005610D01*
X009669Y005591D01*
X009674Y005563D01*
X009674Y002701D01*
X009711Y002613D01*
X010019Y002304D01*
X010038Y002285D01*
X009975Y002285D01*
X009670Y001980D01*
X009670Y001550D01*
X009791Y001429D01*
X009775Y001413D01*
X009001Y001413D01*
X009001Y001567D01*
X008890Y001678D01*
X007945Y001678D01*
X007834Y001567D01*
X007834Y000780D01*
X007945Y000669D01*
X008890Y000669D01*
X009001Y000780D01*
X009001Y000934D01*
X009922Y000934D01*
X010010Y000970D01*
X010078Y001038D01*
X010285Y001245D01*
X010405Y001245D01*
X010710Y001550D01*
X010710Y001952D01*
X011113Y001952D01*
X011417Y002257D01*
X011417Y002687D01*
X011113Y002992D01*
X010682Y002992D01*
X010403Y002712D01*
X010289Y002712D01*
X010154Y002848D01*
X010154Y004094D01*
X010819Y004094D01*
X010930Y004205D01*
X010930Y005150D01*
X010922Y005158D01*
X011524Y005568D01*
X011546Y005577D01*
X011563Y005594D01*
X011584Y005608D01*
X011585Y005610D01*
X011764Y005610D01*
X011875Y005721D01*
X011875Y006272D01*
X011764Y006383D01*
X011056Y006383D01*
X011009Y006336D01*
X011009Y006464D01*
X011014Y006456D01*
X011042Y006428D01*
X011076Y006408D01*
X011115Y006398D01*
X011361Y006398D01*
X011361Y006696D01*
X010984Y006696D01*
X010984Y006671D01*
X010984Y006671D01*
X010898Y006757D01*
X010783Y006757D01*
X010783Y006918D01*
X011095Y007144D01*
X011113Y007151D01*
X011133Y007172D01*
X011156Y007189D01*
X011166Y007205D01*
X011180Y007219D01*
X011191Y007246D01*
X011206Y007270D01*
X011209Y007289D01*
X011217Y007307D01*
X011217Y007336D01*
X011221Y007364D01*
X011217Y007383D01*
X011217Y007570D01*
X011417Y007770D01*
X011417Y008201D01*
X011113Y008505D01*
X010710Y008505D01*
X010710Y008908D01*
X010405Y009212D01*
X010177Y009212D01*
X010115Y009264D01*
X010089Y009290D01*
X010079Y009295D01*
X010070Y009302D01*
X010035Y009313D01*
X010001Y009327D01*
X009990Y009327D01*
X009979Y009330D01*
X009942Y009327D01*
X008686Y009327D01*
X008686Y009481D01*
X008575Y009592D01*
X007863Y009592D01*
X008512Y010222D01*
X008514Y010222D01*
X008547Y010255D01*
X008579Y010287D01*
X008580Y010288D01*
X008868Y010577D01*
X008936Y010644D01*
X008972Y010732D01*
X008972Y010757D01*
X009059Y010793D01*
X009220Y010953D01*
X009237Y010994D01*
X009254Y010953D01*
X009414Y010793D01*
X009623Y010706D01*
X009850Y010706D01*
X010059Y010793D01*
X010220Y010953D01*
X010237Y010994D01*
X010254Y010953D01*
X010414Y010793D01*
X010491Y010761D01*
X010491Y009746D01*
X010529Y009654D01*
X010599Y009584D01*
X012026Y008157D01*
X012026Y005156D01*
X011922Y005261D01*
X011134Y005261D01*
X011023Y005150D01*
X011023Y004205D01*
X011134Y004094D01*
X011922Y004094D01*
X012033Y004205D01*
X012033Y004428D01*
X012089Y004428D01*
X012181Y004466D01*
X012417Y004702D01*
X012488Y004772D01*
X012526Y004864D01*
X012526Y008310D01*
X012488Y008402D01*
X010990Y009899D01*
X010990Y010764D01*
X011059Y010793D01*
X011220Y010953D01*
X011237Y010994D01*
X011254Y010953D01*
X011414Y010793D01*
X011623Y010706D01*
X011850Y010706D01*
X012059Y010793D01*
X012220Y010953D01*
X012237Y010994D01*
X012254Y010953D01*
X012414Y010793D01*
X012623Y010706D01*
X012850Y010706D01*
X013059Y010793D01*
X013220Y010953D01*
X013306Y011163D01*
X013306Y011389D01*
X013289Y011432D01*
X013873Y011432D01*
X013873Y010435D01*
X013771Y010478D01*
X013435Y010478D01*
X013125Y010350D01*
X012888Y010112D01*
X012759Y009802D01*
X012759Y009466D01*
X012888Y009156D01*
X013125Y008919D01*
X013435Y008791D01*
X013566Y008791D01*
X013414Y008728D01*
X013254Y008567D01*
X013167Y008358D01*
X013167Y008131D01*
X013254Y007922D01*
X013414Y007761D01*
X013455Y007744D01*
X013414Y007728D01*
X013254Y007567D01*
X013167Y007358D01*
X013167Y007131D01*
X013254Y006922D01*
X013414Y006761D01*
X013455Y006744D01*
X013414Y006728D01*
X013254Y006567D01*
X013167Y006358D01*
X013167Y006131D01*
X013254Y005922D01*
X013414Y005761D01*
X013455Y005744D01*
X013414Y005728D01*
X013254Y005567D01*
X013167Y005358D01*
X013167Y005131D01*
X013254Y004922D01*
X013414Y004761D01*
X013455Y004744D01*
X013414Y004728D01*
X013254Y004567D01*
X013167Y004358D01*
X013167Y004131D01*
X013254Y003922D01*
X013414Y003761D01*
X013455Y003744D01*
X013414Y003728D01*
X013254Y003567D01*
X013167Y003358D01*
X013167Y003131D01*
X013254Y002922D01*
X013414Y002761D01*
X013455Y002744D01*
X013414Y002728D01*
X013254Y002567D01*
X013167Y002358D01*
X013167Y002131D01*
X013254Y001922D01*
X013414Y001761D01*
X013623Y001675D01*
X013850Y001675D01*
X013873Y001684D01*
X013873Y000600D01*
X001627Y000600D01*
X001651Y000659D01*
X001651Y000995D01*
X001651Y000958D02*
X004336Y000958D01*
X004220Y001056D02*
X001626Y001056D01*
X001585Y001155D02*
X004121Y001155D01*
X003942Y001253D02*
X001544Y001253D01*
X001476Y001352D02*
X003843Y001352D01*
X003745Y001450D02*
X001378Y001450D01*
X001270Y001549D02*
X003646Y001549D01*
X003645Y001647D02*
X001032Y001647D01*
X000983Y001746D02*
X003645Y001746D01*
X003645Y001844D02*
X001126Y001844D01*
X001222Y001943D02*
X003645Y001943D01*
X003978Y002337D02*
X005472Y002337D01*
X005472Y002435D02*
X003978Y002435D01*
X003978Y002534D02*
X005472Y002534D01*
X005472Y002632D02*
X003978Y002632D01*
X003934Y002731D02*
X005533Y002731D01*
X005601Y002829D02*
X003836Y002829D01*
X003737Y002928D02*
X005489Y002928D01*
X005377Y003026D02*
X003343Y003026D01*
X003343Y003125D02*
X005265Y003125D01*
X005153Y003223D02*
X003343Y003223D01*
X003343Y003322D02*
X005041Y003322D01*
X004926Y003420D02*
X003343Y003420D01*
X003343Y003519D02*
X004851Y003519D01*
X004831Y003617D02*
X003343Y003617D01*
X003343Y003716D02*
X004831Y003716D01*
X004831Y003814D02*
X003343Y003814D01*
X003343Y003913D02*
X004831Y003913D01*
X004831Y004011D02*
X003343Y004011D01*
X003343Y004110D02*
X004831Y004110D01*
X004831Y004208D02*
X003343Y004208D01*
X003343Y004307D02*
X004831Y004307D01*
X004831Y004405D02*
X003343Y004405D01*
X003343Y004504D02*
X004831Y004504D01*
X004831Y004602D02*
X003343Y004602D01*
X003343Y004701D02*
X004831Y004701D01*
X004831Y004799D02*
X003343Y004799D01*
X003343Y004898D02*
X004831Y004898D01*
X004831Y004996D02*
X003343Y004996D01*
X003343Y005095D02*
X004831Y005095D01*
X004831Y005193D02*
X003343Y005193D01*
X003343Y005292D02*
X004831Y005292D01*
X004831Y005390D02*
X003343Y005390D01*
X003343Y005489D02*
X004831Y005489D01*
X004831Y005587D02*
X003343Y005587D01*
X003343Y005686D02*
X004831Y005686D01*
X004831Y005784D02*
X003343Y005784D01*
X003343Y005883D02*
X004831Y005883D01*
X004831Y005981D02*
X003343Y005981D01*
X003343Y006080D02*
X004831Y006080D01*
X004831Y006178D02*
X003343Y006178D01*
X003343Y006277D02*
X004831Y006277D01*
X004831Y006375D02*
X003343Y006375D01*
X003343Y006474D02*
X004831Y006474D01*
X004831Y006572D02*
X003343Y006572D01*
X003343Y006671D02*
X004831Y006671D01*
X004831Y006769D02*
X003343Y006769D01*
X003343Y006868D02*
X004831Y006868D01*
X004831Y006966D02*
X003343Y006966D01*
X003343Y007065D02*
X004831Y007065D01*
X004831Y007163D02*
X003343Y007163D01*
X003343Y007262D02*
X004831Y007262D01*
X004831Y007360D02*
X003343Y007360D01*
X003343Y007459D02*
X004831Y007459D01*
X004831Y007557D02*
X003765Y007557D01*
X003863Y007656D02*
X004831Y007656D01*
X004831Y007754D02*
X003962Y007754D01*
X003978Y007853D02*
X004831Y007853D01*
X004766Y007951D02*
X003978Y007951D01*
X003978Y008050D02*
X004667Y008050D01*
X004569Y008148D02*
X003978Y008148D01*
X004454Y008247D02*
X004473Y008247D01*
X004678Y008378D02*
X004678Y010386D01*
X003772Y011252D01*
X003737Y011260D01*
X003226Y011005D02*
X003201Y011005D01*
X003132Y010906D02*
X003285Y010906D01*
X003383Y010808D02*
X003016Y010808D01*
X002785Y010808D02*
X002688Y010808D01*
X002688Y010906D02*
X002785Y010906D01*
X002785Y011005D02*
X002688Y011005D01*
X002688Y011103D02*
X002785Y011103D01*
X002785Y011202D02*
X002688Y011202D01*
X002688Y011300D02*
X001785Y011300D01*
X001688Y011300D02*
X000600Y011300D01*
X000600Y011202D02*
X001209Y011202D01*
X001230Y011103D02*
X000600Y011103D01*
X000600Y011005D02*
X001272Y011005D01*
X001341Y010906D02*
X000600Y010906D01*
X000600Y010808D02*
X001458Y010808D01*
X001688Y010808D02*
X001785Y010808D01*
X001785Y010906D02*
X001688Y010906D01*
X001688Y011005D02*
X001785Y011005D01*
X001785Y011103D02*
X001688Y011103D01*
X001688Y011202D02*
X001785Y011202D01*
X002132Y010906D02*
X002341Y010906D01*
X002272Y011005D02*
X002201Y011005D01*
X002016Y010808D02*
X002458Y010808D01*
X003578Y010709D02*
X000600Y010709D01*
X000600Y010611D02*
X004096Y010611D01*
X003993Y010709D02*
X003895Y010709D01*
X004199Y010512D02*
X000600Y010512D01*
X000600Y010414D02*
X004302Y010414D01*
X004405Y010315D02*
X000600Y010315D01*
X000600Y010217D02*
X004438Y010217D01*
X004438Y010118D02*
X000600Y010118D01*
X000600Y010020D02*
X004438Y010020D01*
X004438Y009921D02*
X000600Y009921D01*
X000600Y009823D02*
X004438Y009823D01*
X004438Y009724D02*
X000600Y009724D01*
X000600Y009626D02*
X004438Y009626D01*
X004438Y009527D02*
X000600Y009527D01*
X000600Y009429D02*
X004438Y009429D01*
X004438Y009330D02*
X000600Y009330D01*
X000600Y009232D02*
X004438Y009232D01*
X004917Y009232D02*
X005271Y009232D01*
X005262Y009223D02*
X005104Y009065D01*
X005068Y008977D01*
X005068Y008919D01*
X004979Y008830D01*
X004979Y008557D01*
X005171Y008364D01*
X005444Y008364D01*
X005636Y008557D01*
X005636Y008830D01*
X005619Y008847D01*
X005787Y008847D01*
X005787Y008693D01*
X005898Y008582D01*
X006839Y008582D01*
X006839Y008489D01*
X005898Y008489D01*
X005787Y008378D01*
X005787Y008224D01*
X005171Y008224D01*
X004917Y008478D01*
X004917Y010341D01*
X004918Y010344D01*
X004917Y010389D01*
X004917Y010434D01*
X004916Y010436D01*
X004916Y010439D01*
X004898Y010480D01*
X004881Y010522D01*
X004879Y010524D01*
X004878Y010527D01*
X004845Y010558D01*
X004813Y010589D01*
X004811Y010591D01*
X004706Y010690D01*
X004850Y010690D01*
X005059Y010777D01*
X005220Y010937D01*
X005237Y010978D01*
X005254Y010937D01*
X005414Y010777D01*
X005623Y010690D01*
X005850Y010690D01*
X006059Y010777D01*
X006220Y010937D01*
X006237Y010978D01*
X006254Y010937D01*
X006414Y010777D01*
X006623Y010690D01*
X006850Y010690D01*
X007059Y010777D01*
X007220Y010937D01*
X007240Y010986D01*
X007254Y010953D01*
X007414Y010793D01*
X007623Y010706D01*
X007850Y010706D01*
X008059Y010793D01*
X008220Y010953D01*
X008237Y010994D01*
X008254Y010953D01*
X008410Y010797D01*
X008210Y010596D01*
X006954Y009378D01*
X006954Y009481D01*
X006843Y009592D01*
X005898Y009592D01*
X005787Y009481D01*
X005787Y009327D01*
X005417Y009327D01*
X005329Y009290D01*
X005262Y009223D01*
X005172Y009133D02*
X004917Y009133D01*
X004917Y009035D02*
X005092Y009035D01*
X005068Y008936D02*
X004917Y008936D01*
X004917Y008838D02*
X004987Y008838D01*
X004979Y008739D02*
X004917Y008739D01*
X004917Y008641D02*
X004979Y008641D01*
X004993Y008542D02*
X004917Y008542D01*
X004951Y008444D02*
X005092Y008444D01*
X005050Y008345D02*
X005787Y008345D01*
X005787Y008247D02*
X005148Y008247D01*
X005071Y007985D02*
X005071Y003615D01*
X006056Y002748D01*
X006056Y002276D01*
X007237Y002276D01*
X007237Y003142D01*
X007630Y003536D01*
X007630Y005032D01*
X007630Y006567D01*
X008103Y007237D01*
X008103Y007985D01*
X007553Y007557D02*
X007319Y007557D01*
X007319Y007459D02*
X007863Y007459D01*
X007863Y007360D02*
X007319Y007360D01*
X007319Y007262D02*
X007827Y007262D01*
X007758Y007163D02*
X007319Y007163D01*
X007319Y007065D02*
X007688Y007065D01*
X007618Y006966D02*
X007319Y006966D01*
X007319Y006868D02*
X007549Y006868D01*
X007479Y006769D02*
X007319Y006769D01*
X007319Y006671D02*
X007410Y006671D01*
X007386Y006572D02*
X007319Y006572D01*
X007319Y006474D02*
X007391Y006474D01*
X007391Y006375D02*
X007319Y006375D01*
X007319Y006277D02*
X007391Y006277D01*
X007391Y006178D02*
X007321Y006178D01*
X007301Y006080D02*
X007391Y006080D01*
X007391Y005981D02*
X007226Y005981D01*
X007100Y005883D02*
X007391Y005883D01*
X007391Y005784D02*
X006978Y005784D01*
X006856Y005686D02*
X007391Y005686D01*
X007391Y005587D02*
X006733Y005587D01*
X006611Y005489D02*
X007281Y005489D01*
X007183Y005390D02*
X006489Y005390D01*
X006367Y005292D02*
X007121Y005292D01*
X007080Y005193D02*
X006244Y005193D01*
X006232Y005095D02*
X007061Y005095D01*
X007061Y004996D02*
X006232Y004996D01*
X006223Y004898D02*
X007069Y004898D01*
X007110Y004799D02*
X006182Y004799D01*
X006136Y004701D02*
X007156Y004701D01*
X007254Y004602D02*
X006038Y004602D01*
X005876Y004504D02*
X007391Y004504D01*
X007391Y004405D02*
X005311Y004405D01*
X005311Y004307D02*
X007391Y004307D01*
X007391Y004208D02*
X005311Y004208D01*
X005311Y004110D02*
X007391Y004110D01*
X007391Y004011D02*
X005311Y004011D01*
X005311Y003913D02*
X007391Y003913D01*
X007391Y003814D02*
X005311Y003814D01*
X005319Y003716D02*
X007391Y003716D01*
X007373Y003617D02*
X005431Y003617D01*
X005543Y003519D02*
X007274Y003519D01*
X007176Y003420D02*
X005655Y003420D01*
X005767Y003322D02*
X007077Y003322D01*
X007011Y003223D02*
X005879Y003223D01*
X005991Y003125D02*
X006997Y003125D01*
X006997Y003026D02*
X006103Y003026D01*
X006215Y002928D02*
X006997Y002928D01*
X006997Y002829D02*
X006283Y002829D01*
X006578Y002731D02*
X006997Y002731D01*
X006997Y002632D02*
X006639Y002632D01*
X006639Y002534D02*
X006997Y002534D01*
X007237Y002276D02*
X008418Y002276D01*
X008963Y001844D02*
X009670Y001844D01*
X009670Y001746D02*
X004685Y001746D01*
X004685Y001844D02*
X005510Y001844D01*
X005472Y001943D02*
X004685Y001943D01*
X004624Y002041D02*
X005472Y002041D01*
X005472Y002140D02*
X004525Y002140D01*
X004427Y002238D02*
X005472Y002238D01*
X005552Y001647D02*
X004685Y001647D01*
X004684Y001549D02*
X005472Y001549D01*
X005472Y001450D02*
X004585Y001450D01*
X004441Y001174D02*
X004166Y001449D01*
X004165Y001765D01*
X004441Y001174D02*
X006056Y001174D01*
X006639Y001155D02*
X007834Y001155D01*
X007834Y001253D02*
X006639Y001253D01*
X006639Y001352D02*
X007834Y001352D01*
X007834Y001450D02*
X006639Y001450D01*
X006639Y001549D02*
X007834Y001549D01*
X007914Y001647D02*
X006559Y001647D01*
X006601Y001844D02*
X007872Y001844D01*
X007834Y001943D02*
X006639Y001943D01*
X007476Y002534D02*
X007834Y002534D01*
X007834Y002632D02*
X007476Y002632D01*
X007476Y002731D02*
X007895Y002731D01*
X007476Y002829D02*
X009674Y002829D01*
X009674Y002731D02*
X008940Y002731D01*
X009001Y002632D02*
X009702Y002632D01*
X009789Y002534D02*
X009001Y002534D01*
X009001Y002435D02*
X009888Y002435D01*
X009986Y002337D02*
X009001Y002337D01*
X009001Y002238D02*
X009928Y002238D01*
X009830Y002140D02*
X009001Y002140D01*
X009001Y002041D02*
X009731Y002041D01*
X009670Y001943D02*
X009001Y001943D01*
X008921Y001647D02*
X009670Y001647D01*
X009671Y001549D02*
X009001Y001549D01*
X009001Y001450D02*
X009770Y001450D01*
X009874Y001174D02*
X010189Y001489D01*
X010190Y001765D01*
X010710Y001746D02*
X013452Y001746D01*
X013331Y001844D02*
X010710Y001844D01*
X010710Y001943D02*
X013245Y001943D01*
X013204Y002041D02*
X011202Y002041D01*
X011300Y002140D02*
X013167Y002140D01*
X013167Y002238D02*
X011399Y002238D01*
X011417Y002337D02*
X013167Y002337D01*
X013199Y002435D02*
X011417Y002435D01*
X011417Y002534D02*
X013240Y002534D01*
X013319Y002632D02*
X011417Y002632D01*
X011374Y002731D02*
X013422Y002731D01*
X013346Y002829D02*
X011275Y002829D01*
X011177Y002928D02*
X013251Y002928D01*
X013210Y003026D02*
X010154Y003026D01*
X010154Y002928D02*
X010618Y002928D01*
X010519Y002829D02*
X010172Y002829D01*
X010271Y002731D02*
X010421Y002731D01*
X010189Y002473D02*
X010897Y002472D01*
X010189Y002473D02*
X009914Y002748D01*
X009914Y005583D01*
X010544Y005977D01*
X010544Y006370D01*
X010544Y007040D01*
X010977Y007355D01*
X010977Y007906D01*
X010897Y007985D01*
X011272Y008345D02*
X011838Y008345D01*
X011936Y008247D02*
X011371Y008247D01*
X011417Y008148D02*
X012026Y008148D01*
X012026Y008050D02*
X011417Y008050D01*
X011417Y007951D02*
X012026Y007951D01*
X012026Y007853D02*
X011417Y007853D01*
X011401Y007754D02*
X012026Y007754D01*
X012026Y007656D02*
X011303Y007656D01*
X011217Y007557D02*
X012026Y007557D01*
X012026Y007459D02*
X011217Y007459D01*
X011220Y007360D02*
X012026Y007360D01*
X012026Y007262D02*
X011201Y007262D01*
X011124Y007163D02*
X012026Y007163D01*
X012026Y007065D02*
X011772Y007065D01*
X011778Y007061D02*
X011743Y007081D01*
X011705Y007091D01*
X011458Y007091D01*
X011458Y006793D01*
X011361Y006793D01*
X011361Y006696D01*
X011458Y006696D01*
X011458Y006398D01*
X011705Y006398D01*
X011743Y006408D01*
X011778Y006428D01*
X011805Y006456D01*
X011825Y006490D01*
X011835Y006528D01*
X011835Y006696D01*
X011458Y006696D01*
X011458Y006793D01*
X011835Y006793D01*
X011835Y006961D01*
X011825Y006999D01*
X011805Y007033D01*
X011778Y007061D01*
X011834Y006966D02*
X012026Y006966D01*
X012026Y006868D02*
X011835Y006868D01*
X011835Y006671D02*
X012026Y006671D01*
X012026Y006769D02*
X011458Y006769D01*
X011361Y006769D02*
X010783Y006769D01*
X010783Y006868D02*
X010984Y006868D01*
X010984Y006793D02*
X011361Y006793D01*
X011361Y007091D01*
X011115Y007091D01*
X011076Y007081D01*
X011042Y007061D01*
X011014Y007033D01*
X010994Y006999D01*
X010984Y006961D01*
X010984Y006793D01*
X010986Y006966D02*
X010850Y006966D01*
X010986Y007065D02*
X011048Y007065D01*
X011361Y007065D02*
X011458Y007065D01*
X011458Y006966D02*
X011361Y006966D01*
X011361Y006868D02*
X011458Y006868D01*
X011458Y006671D02*
X011361Y006671D01*
X011361Y006572D02*
X011458Y006572D01*
X011458Y006474D02*
X011361Y006474D01*
X011048Y006375D02*
X011009Y006375D01*
X010944Y006030D02*
X010944Y005753D01*
X010311Y005323D01*
X010290Y005314D01*
X010272Y005296D01*
X010251Y005282D01*
X010239Y005263D01*
X010237Y005261D01*
X010154Y005261D01*
X010154Y005450D01*
X010654Y005763D01*
X010680Y005774D01*
X010694Y005788D01*
X010711Y005799D01*
X010727Y005821D01*
X010747Y005841D01*
X010755Y005860D01*
X010767Y005876D01*
X010773Y005903D01*
X010783Y005929D01*
X010783Y005949D01*
X010788Y005969D01*
X010786Y005984D01*
X010898Y005984D01*
X010944Y006030D01*
X010944Y005981D02*
X010786Y005981D01*
X010768Y005883D02*
X010944Y005883D01*
X010944Y005784D02*
X010690Y005784D01*
X010845Y005686D02*
X010530Y005686D01*
X010373Y005587D02*
X010700Y005587D01*
X010555Y005489D02*
X010215Y005489D01*
X010154Y005390D02*
X010410Y005390D01*
X010266Y005292D02*
X010154Y005292D01*
X010426Y005111D02*
X010426Y004678D01*
X010426Y005111D02*
X011410Y005780D01*
X011410Y005996D01*
X011556Y005587D02*
X012026Y005587D01*
X012026Y005489D02*
X011408Y005489D01*
X011263Y005390D02*
X012026Y005390D01*
X012026Y005292D02*
X011118Y005292D01*
X011067Y005193D02*
X010974Y005193D01*
X010930Y005095D02*
X011023Y005095D01*
X011023Y004996D02*
X010930Y004996D01*
X010930Y004898D02*
X011023Y004898D01*
X011023Y004799D02*
X010930Y004799D01*
X010930Y004701D02*
X011023Y004701D01*
X011023Y004602D02*
X010930Y004602D01*
X010930Y004504D02*
X011023Y004504D01*
X011023Y004405D02*
X010930Y004405D01*
X010930Y004307D02*
X011023Y004307D01*
X011023Y004208D02*
X010930Y004208D01*
X010835Y004110D02*
X011119Y004110D01*
X011937Y004110D02*
X013176Y004110D01*
X013167Y004208D02*
X012033Y004208D01*
X012033Y004307D02*
X013167Y004307D01*
X013187Y004405D02*
X012033Y004405D01*
X012219Y004504D02*
X013227Y004504D01*
X013289Y004602D02*
X012318Y004602D01*
X012416Y004701D02*
X013387Y004701D01*
X013376Y004799D02*
X012499Y004799D01*
X012526Y004898D02*
X013278Y004898D01*
X013223Y004996D02*
X012526Y004996D01*
X012526Y005095D02*
X013182Y005095D01*
X013167Y005193D02*
X012526Y005193D01*
X012526Y005292D02*
X013167Y005292D01*
X013180Y005390D02*
X012526Y005390D01*
X012526Y005489D02*
X013221Y005489D01*
X013274Y005587D02*
X012526Y005587D01*
X012526Y005686D02*
X013372Y005686D01*
X013391Y005784D02*
X012526Y005784D01*
X012526Y005883D02*
X013293Y005883D01*
X013229Y005981D02*
X012526Y005981D01*
X012526Y006080D02*
X013188Y006080D01*
X013167Y006178D02*
X012526Y006178D01*
X012526Y006277D02*
X013167Y006277D01*
X013174Y006375D02*
X012526Y006375D01*
X012526Y006474D02*
X013215Y006474D01*
X013259Y006572D02*
X012526Y006572D01*
X012526Y006671D02*
X013357Y006671D01*
X013406Y006769D02*
X012526Y006769D01*
X012526Y006868D02*
X013308Y006868D01*
X013235Y006966D02*
X012526Y006966D01*
X012526Y007065D02*
X013194Y007065D01*
X013167Y007163D02*
X012526Y007163D01*
X012526Y007262D02*
X013167Y007262D01*
X013168Y007360D02*
X012526Y007360D01*
X012526Y007459D02*
X013209Y007459D01*
X013249Y007557D02*
X012526Y007557D01*
X012526Y007656D02*
X013342Y007656D01*
X013431Y007754D02*
X012526Y007754D01*
X012526Y007853D02*
X013323Y007853D01*
X013241Y007951D02*
X012526Y007951D01*
X012526Y008050D02*
X013201Y008050D01*
X013167Y008148D02*
X012526Y008148D01*
X012526Y008247D02*
X013167Y008247D01*
X013167Y008345D02*
X012511Y008345D01*
X012446Y008444D02*
X013202Y008444D01*
X013243Y008542D02*
X012347Y008542D01*
X012249Y008641D02*
X013327Y008641D01*
X013442Y008739D02*
X012150Y008739D01*
X012052Y008838D02*
X013321Y008838D01*
X013108Y008936D02*
X011953Y008936D01*
X011855Y009035D02*
X013009Y009035D01*
X012911Y009133D02*
X011756Y009133D01*
X011658Y009232D02*
X012856Y009232D01*
X012815Y009330D02*
X011559Y009330D01*
X011461Y009429D02*
X012775Y009429D01*
X012759Y009527D02*
X011362Y009527D01*
X011264Y009626D02*
X012759Y009626D01*
X012759Y009724D02*
X011165Y009724D01*
X011067Y009823D02*
X012768Y009823D01*
X012808Y009921D02*
X010990Y009921D01*
X010990Y010020D02*
X012849Y010020D01*
X012894Y010118D02*
X010990Y010118D01*
X010990Y010217D02*
X012992Y010217D01*
X013091Y010315D02*
X010990Y010315D01*
X010990Y010414D02*
X013280Y010414D01*
X012857Y010709D02*
X013873Y010709D01*
X013873Y010611D02*
X010990Y010611D01*
X010990Y010709D02*
X011616Y010709D01*
X011857Y010709D02*
X012616Y010709D01*
X012399Y010808D02*
X012074Y010808D01*
X012173Y010906D02*
X012301Y010906D01*
X013074Y010808D02*
X013873Y010808D01*
X013873Y010906D02*
X013173Y010906D01*
X013241Y011005D02*
X013873Y011005D01*
X013873Y011103D02*
X013282Y011103D01*
X013306Y011202D02*
X013873Y011202D01*
X013873Y011300D02*
X013306Y011300D01*
X013302Y011399D02*
X013873Y011399D01*
X013873Y010512D02*
X010990Y010512D01*
X011074Y010808D02*
X011399Y010808D01*
X011301Y010906D02*
X011173Y010906D01*
X010491Y010709D02*
X009857Y010709D01*
X010074Y010808D02*
X010399Y010808D01*
X010301Y010906D02*
X010173Y010906D01*
X010491Y010611D02*
X008903Y010611D01*
X008963Y010709D02*
X009616Y010709D01*
X009399Y010808D02*
X009074Y010808D01*
X009173Y010906D02*
X009301Y010906D01*
X008733Y010780D02*
X008733Y011252D01*
X008737Y011276D01*
X008301Y010906D02*
X008173Y010906D01*
X008074Y010808D02*
X008399Y010808D01*
X008323Y010709D02*
X007857Y010709D01*
X007616Y010709D02*
X006895Y010709D01*
X007090Y010808D02*
X007399Y010808D01*
X007301Y010906D02*
X007188Y010906D01*
X006578Y010709D02*
X005895Y010709D01*
X006090Y010808D02*
X006383Y010808D01*
X006285Y010906D02*
X006188Y010906D01*
X005578Y010709D02*
X004895Y010709D01*
X004790Y010611D02*
X008224Y010611D01*
X008123Y010512D02*
X004885Y010512D01*
X004917Y010414D02*
X008022Y010414D01*
X007920Y010315D02*
X004917Y010315D01*
X004917Y010217D02*
X007819Y010217D01*
X007717Y010118D02*
X004917Y010118D01*
X004917Y010020D02*
X007615Y010020D01*
X007514Y009921D02*
X004917Y009921D01*
X004917Y009823D02*
X007412Y009823D01*
X007311Y009724D02*
X004917Y009724D01*
X004917Y009626D02*
X007209Y009626D01*
X007108Y009527D02*
X006907Y009527D01*
X006954Y009429D02*
X007006Y009429D01*
X007079Y009166D02*
X007079Y006174D01*
X005662Y005032D01*
X005448Y004504D02*
X005311Y004504D01*
X005311Y005487D02*
X005311Y007745D01*
X005787Y007745D01*
X005787Y007591D01*
X005898Y007480D01*
X006839Y007480D01*
X006839Y006288D01*
X005915Y005544D01*
X005775Y005602D01*
X005548Y005602D01*
X005339Y005515D01*
X005311Y005487D01*
X005311Y005489D02*
X005313Y005489D01*
X005311Y005587D02*
X005514Y005587D01*
X005311Y005686D02*
X006091Y005686D01*
X005969Y005587D02*
X005810Y005587D01*
X006214Y005784D02*
X005311Y005784D01*
X005311Y005883D02*
X006336Y005883D01*
X006458Y005981D02*
X005311Y005981D01*
X005311Y006080D02*
X006580Y006080D01*
X006703Y006178D02*
X005311Y006178D01*
X005311Y006277D02*
X006825Y006277D01*
X006839Y006375D02*
X005311Y006375D01*
X005311Y006474D02*
X006839Y006474D01*
X006839Y006572D02*
X005311Y006572D01*
X005311Y006671D02*
X006839Y006671D01*
X006839Y006769D02*
X005311Y006769D01*
X005311Y006868D02*
X006839Y006868D01*
X006839Y006966D02*
X005311Y006966D01*
X005311Y007065D02*
X006839Y007065D01*
X006839Y007163D02*
X005311Y007163D01*
X005311Y007262D02*
X006839Y007262D01*
X006839Y007360D02*
X005311Y007360D01*
X005311Y007459D02*
X006839Y007459D01*
X007319Y007656D02*
X007519Y007656D01*
X007519Y007754D02*
X007319Y007754D01*
X007319Y007853D02*
X007519Y007853D01*
X007519Y007951D02*
X007319Y007951D01*
X007319Y008050D02*
X007519Y008050D01*
X007519Y008148D02*
X007319Y008148D01*
X007319Y008247D02*
X007519Y008247D01*
X007519Y008345D02*
X007319Y008345D01*
X007319Y008444D02*
X007585Y008444D01*
X007572Y008641D02*
X007319Y008641D01*
X007319Y008739D02*
X007519Y008739D01*
X007519Y008838D02*
X007319Y008838D01*
X007319Y008936D02*
X007519Y008936D01*
X007519Y009035D02*
X007319Y009035D01*
X007390Y009133D02*
X007519Y009133D01*
X007519Y009232D02*
X007492Y009232D01*
X007079Y009166D02*
X008378Y010426D01*
X008733Y010780D01*
X008804Y010512D02*
X010491Y010512D01*
X010491Y010414D02*
X008706Y010414D01*
X008607Y010315D02*
X010491Y010315D01*
X010491Y010217D02*
X008507Y010217D01*
X008406Y010118D02*
X010491Y010118D01*
X010491Y010020D02*
X008304Y010020D01*
X008203Y009921D02*
X010491Y009921D01*
X010491Y009823D02*
X008101Y009823D01*
X008000Y009724D02*
X010500Y009724D01*
X010557Y009626D02*
X007898Y009626D01*
X008103Y009087D02*
X009953Y009087D01*
X010189Y008890D01*
X010190Y008693D01*
X009802Y008345D02*
X008686Y008345D01*
X008686Y008247D02*
X009901Y008247D01*
X009704Y008444D02*
X008621Y008444D01*
X008634Y008641D02*
X009670Y008641D01*
X009670Y008739D02*
X008686Y008739D01*
X008686Y008838D02*
X009670Y008838D01*
X009670Y008542D02*
X007319Y008542D01*
X006839Y008542D02*
X005621Y008542D01*
X005636Y008641D02*
X005840Y008641D01*
X005787Y008739D02*
X005636Y008739D01*
X005628Y008838D02*
X005787Y008838D01*
X005465Y009087D02*
X006370Y009087D01*
X005834Y009527D02*
X004917Y009527D01*
X004917Y009429D02*
X005787Y009429D01*
X005787Y009330D02*
X004917Y009330D01*
X005307Y008930D02*
X005465Y009087D01*
X005307Y008930D02*
X005307Y008693D01*
X005523Y008444D02*
X005853Y008444D01*
X006370Y007985D02*
X005071Y007985D01*
X004678Y008378D01*
X005311Y007656D02*
X005787Y007656D01*
X005821Y007557D02*
X005311Y007557D01*
X003645Y008542D02*
X001230Y008542D01*
X001271Y008444D02*
X003181Y008444D01*
X003083Y008345D02*
X001306Y008345D01*
X001306Y008247D02*
X002984Y008247D01*
X002938Y008148D02*
X001306Y008148D01*
X001273Y008050D02*
X002938Y008050D01*
X002938Y007951D02*
X001232Y007951D01*
X001151Y007853D02*
X002938Y007853D01*
X002895Y007754D02*
X001042Y007754D01*
X001131Y007656D02*
X002863Y007656D01*
X002863Y007557D02*
X001224Y007557D01*
X001265Y007459D02*
X002863Y007459D01*
X002863Y007360D02*
X001305Y007360D01*
X001306Y007262D02*
X002863Y007262D01*
X002863Y007163D02*
X001306Y007163D01*
X001279Y007065D02*
X002863Y007065D01*
X002863Y006966D02*
X001238Y006966D01*
X001166Y006868D02*
X002863Y006868D01*
X002863Y006769D02*
X001067Y006769D01*
X001116Y006671D02*
X002863Y006671D01*
X002863Y006572D02*
X001215Y006572D01*
X001258Y006474D02*
X002863Y006474D01*
X002863Y006375D02*
X001299Y006375D01*
X001306Y006277D02*
X002863Y006277D01*
X002863Y006178D02*
X001306Y006178D01*
X001285Y006080D02*
X002863Y006080D01*
X002863Y005981D02*
X001244Y005981D01*
X001181Y005883D02*
X002863Y005883D01*
X002863Y005784D02*
X001082Y005784D01*
X001101Y005686D02*
X002863Y005686D01*
X002863Y005587D02*
X001200Y005587D01*
X001252Y005489D02*
X002863Y005489D01*
X002863Y005390D02*
X001293Y005390D01*
X001306Y005292D02*
X002863Y005292D01*
X002863Y005193D02*
X001306Y005193D01*
X001291Y005095D02*
X002863Y005095D01*
X002863Y004996D02*
X001251Y004996D01*
X001196Y004898D02*
X002863Y004898D01*
X002863Y004799D02*
X001097Y004799D01*
X001086Y004701D02*
X002863Y004701D01*
X002863Y004602D02*
X001185Y004602D01*
X001246Y004504D02*
X002863Y004504D01*
X002863Y004405D02*
X001287Y004405D01*
X001306Y004307D02*
X002863Y004307D01*
X002863Y004208D02*
X001306Y004208D01*
X001298Y004110D02*
X002863Y004110D01*
X002863Y004011D02*
X001257Y004011D01*
X001211Y003913D02*
X002863Y003913D01*
X002863Y003814D02*
X001112Y003814D01*
X001071Y003716D02*
X002863Y003716D01*
X002863Y003617D02*
X001170Y003617D01*
X001240Y003519D02*
X002863Y003519D01*
X002863Y003420D02*
X001281Y003420D01*
X001306Y003322D02*
X002863Y003322D01*
X002863Y003223D02*
X001306Y003223D01*
X001304Y003125D02*
X002863Y003125D01*
X002863Y003026D02*
X001263Y003026D01*
X001222Y002928D02*
X002863Y002928D01*
X002863Y002829D02*
X001127Y002829D01*
X001072Y002731D02*
X002863Y002731D01*
X002863Y002632D02*
X001170Y002632D01*
X001240Y002534D02*
X002867Y002534D01*
X002919Y002435D02*
X001281Y002435D01*
X001306Y002337D02*
X002938Y002337D01*
X002957Y002238D02*
X001306Y002238D01*
X001303Y002140D02*
X003055Y002140D01*
X003154Y002041D02*
X001263Y002041D01*
X001651Y000859D02*
X005472Y000859D01*
X005491Y000761D02*
X001651Y000761D01*
X001651Y000662D02*
X013873Y000662D01*
X013873Y000761D02*
X008982Y000761D01*
X009001Y000859D02*
X013873Y000859D01*
X013873Y000958D02*
X009980Y000958D01*
X010078Y001038D02*
X010078Y001038D01*
X010096Y001056D02*
X013873Y001056D01*
X013873Y001155D02*
X010195Y001155D01*
X010414Y001253D02*
X013873Y001253D01*
X013873Y001352D02*
X010512Y001352D01*
X010611Y001450D02*
X013873Y001450D01*
X013873Y001549D02*
X010709Y001549D01*
X010710Y001647D02*
X013873Y001647D01*
X013169Y003125D02*
X010154Y003125D01*
X010154Y003223D02*
X013167Y003223D01*
X013167Y003322D02*
X010154Y003322D01*
X010154Y003420D02*
X013193Y003420D01*
X013234Y003519D02*
X010154Y003519D01*
X010154Y003617D02*
X013304Y003617D01*
X013402Y003716D02*
X010154Y003716D01*
X010154Y003814D02*
X013361Y003814D01*
X013263Y003913D02*
X010154Y003913D01*
X010154Y004011D02*
X013217Y004011D01*
X012026Y005193D02*
X011989Y005193D01*
X012026Y005686D02*
X011840Y005686D01*
X011875Y005784D02*
X012026Y005784D01*
X012026Y005883D02*
X011875Y005883D01*
X011875Y005981D02*
X012026Y005981D01*
X012026Y006080D02*
X011875Y006080D01*
X011875Y006178D02*
X012026Y006178D01*
X012026Y006277D02*
X011870Y006277D01*
X011772Y006375D02*
X012026Y006375D01*
X012026Y006474D02*
X011816Y006474D01*
X011835Y006572D02*
X012026Y006572D01*
X010712Y007459D02*
X008343Y007459D01*
X008343Y007360D02*
X010577Y007360D01*
X010441Y007262D02*
X008343Y007262D01*
X008332Y007163D02*
X010335Y007163D01*
X010304Y007065D02*
X008275Y007065D01*
X008205Y006966D02*
X010304Y006966D01*
X010304Y006868D02*
X008136Y006868D01*
X008066Y006769D02*
X010304Y006769D01*
X010103Y006671D02*
X007997Y006671D01*
X007927Y006572D02*
X010078Y006572D01*
X010078Y006474D02*
X007870Y006474D01*
X007870Y006375D02*
X010078Y006375D01*
X010078Y006277D02*
X007870Y006277D01*
X007870Y006178D02*
X010078Y006178D01*
X010094Y006080D02*
X007870Y006080D01*
X007870Y005981D02*
X010099Y005981D01*
X009941Y005883D02*
X007870Y005883D01*
X007870Y005784D02*
X009776Y005784D01*
X009693Y005686D02*
X007870Y005686D01*
X007870Y005587D02*
X009670Y005587D01*
X009674Y005489D02*
X009082Y005489D01*
X009089Y005485D02*
X009015Y005523D01*
X008936Y005549D01*
X008860Y005561D01*
X008860Y005080D01*
X009340Y005080D01*
X009328Y005156D01*
X009303Y005235D01*
X009265Y005310D01*
X009216Y005377D01*
X009157Y005436D01*
X009089Y005485D01*
X009203Y005390D02*
X009674Y005390D01*
X009674Y005292D02*
X009274Y005292D01*
X009316Y005193D02*
X009674Y005193D01*
X009674Y005095D02*
X009338Y005095D01*
X009340Y004983D02*
X008860Y004983D01*
X008860Y004503D01*
X008936Y004515D01*
X009015Y004541D01*
X009089Y004579D01*
X009157Y004628D01*
X009216Y004687D01*
X009265Y004754D01*
X009303Y004828D01*
X009328Y004908D01*
X009340Y004983D01*
X009325Y004898D02*
X009674Y004898D01*
X009674Y004996D02*
X008860Y004996D01*
X008860Y004983D02*
X008860Y005080D01*
X008763Y005080D01*
X008763Y004983D01*
X008860Y004983D01*
X008860Y004898D02*
X008763Y004898D01*
X008763Y004983D02*
X008763Y004503D01*
X008687Y004515D01*
X008608Y004541D01*
X008534Y004579D01*
X008466Y004628D01*
X008407Y004687D01*
X008358Y004754D01*
X008320Y004828D01*
X008294Y004908D01*
X008282Y004983D01*
X008763Y004983D01*
X008763Y004996D02*
X008200Y004996D01*
X008191Y004898D02*
X008298Y004898D01*
X008335Y004799D02*
X008151Y004799D01*
X008105Y004701D02*
X008397Y004701D01*
X008501Y004602D02*
X008006Y004602D01*
X007870Y004504D02*
X008758Y004504D01*
X008763Y004504D02*
X008860Y004504D01*
X008865Y004504D02*
X009674Y004504D01*
X009674Y004602D02*
X009122Y004602D01*
X009226Y004701D02*
X009674Y004701D01*
X009674Y004799D02*
X009288Y004799D01*
X008860Y004799D02*
X008763Y004799D01*
X008763Y004701D02*
X008860Y004701D01*
X008860Y004602D02*
X008763Y004602D01*
X008763Y005080D02*
X008282Y005080D01*
X008294Y005156D01*
X008320Y005235D01*
X008358Y005310D01*
X008407Y005377D01*
X008466Y005436D01*
X008534Y005485D01*
X008608Y005523D01*
X008687Y005549D01*
X008763Y005561D01*
X008763Y005080D01*
X008763Y005095D02*
X008860Y005095D01*
X008860Y005193D02*
X008763Y005193D01*
X008763Y005292D02*
X008860Y005292D01*
X008860Y005390D02*
X008763Y005390D01*
X008763Y005489D02*
X008860Y005489D01*
X008541Y005489D02*
X007979Y005489D01*
X008078Y005390D02*
X008420Y005390D01*
X008349Y005292D02*
X008139Y005292D01*
X008180Y005193D02*
X008307Y005193D01*
X008285Y005095D02*
X008200Y005095D01*
X007870Y004405D02*
X009674Y004405D01*
X009674Y004307D02*
X007870Y004307D01*
X007870Y004208D02*
X009674Y004208D01*
X009674Y004110D02*
X007870Y004110D01*
X007870Y004011D02*
X009674Y004011D01*
X009674Y003913D02*
X007870Y003913D01*
X007870Y003814D02*
X009674Y003814D01*
X009674Y003716D02*
X007870Y003716D01*
X007870Y003617D02*
X009674Y003617D01*
X009674Y003519D02*
X007870Y003519D01*
X007842Y003420D02*
X009674Y003420D01*
X009674Y003322D02*
X007755Y003322D01*
X007657Y003223D02*
X009674Y003223D01*
X009674Y003125D02*
X007558Y003125D01*
X007476Y003026D02*
X009674Y003026D01*
X009674Y002928D02*
X007476Y002928D01*
X008418Y001174D02*
X009874Y001174D01*
X007834Y001056D02*
X006639Y001056D01*
X006639Y000958D02*
X007834Y000958D01*
X007834Y000859D02*
X006639Y000859D01*
X006620Y000761D02*
X007854Y000761D01*
X003458Y002472D02*
X003221Y002473D01*
X003103Y002591D01*
X003103Y007630D01*
X003458Y007985D01*
X003645Y008641D02*
X001146Y008641D01*
X001031Y008739D02*
X003645Y008739D01*
X003645Y008838D02*
X000600Y008838D01*
X000600Y008936D02*
X003674Y008936D01*
X003772Y009035D02*
X000600Y009035D01*
X000600Y009133D02*
X003871Y009133D01*
X005090Y010808D02*
X005383Y010808D01*
X005285Y010906D02*
X005188Y010906D01*
X008640Y009527D02*
X010656Y009527D01*
X010754Y009429D02*
X008686Y009429D01*
X008686Y009330D02*
X010853Y009330D01*
X010951Y009232D02*
X010154Y009232D01*
X010484Y009133D02*
X011050Y009133D01*
X011148Y009035D02*
X010583Y009035D01*
X010681Y008936D02*
X011247Y008936D01*
X011345Y008838D02*
X010710Y008838D01*
X010710Y008739D02*
X011444Y008739D01*
X011542Y008641D02*
X010710Y008641D01*
X010710Y008542D02*
X011641Y008542D01*
X011739Y008444D02*
X011174Y008444D01*
X010377Y008148D02*
X008686Y008148D01*
X008686Y008050D02*
X010377Y008050D01*
X010377Y007951D02*
X008686Y007951D01*
X008686Y007853D02*
X010377Y007853D01*
X010393Y007754D02*
X008686Y007754D01*
X008686Y007656D02*
X010492Y007656D01*
X010590Y007557D02*
X008652Y007557D01*
X013828Y008814D02*
X013873Y008833D01*
X013873Y008805D01*
X013850Y008814D01*
X013828Y008814D01*
X001224Y011399D02*
X000600Y011399D01*
D16*
X005307Y008693D03*
D17*
X010741Y009796D02*
X010741Y011272D01*
X010737Y011276D01*
X010741Y009796D02*
X012276Y008260D01*
X012276Y004914D01*
X012040Y004678D01*
X011528Y004678D01*
M02*
