G75*
%MOIN*%
%OFA0B0*%
%FSLAX24Y24*%
%IPPOS*%
%LPD*%
%AMOC8*
5,1,8,0,0,1.08239X$1,22.5*
%
%ADD10C,0.0000*%
%ADD11C,0.0080*%
%ADD12C,0.0030*%
%ADD13C,0.0010*%
%ADD14C,0.0060*%
%ADD15C,0.0050*%
%ADD16C,0.0040*%
%ADD17C,0.0160*%
D10*
X000150Y000150D02*
X015504Y000150D01*
X015504Y013339D01*
X000150Y013339D01*
X000150Y000150D01*
D11*
X002692Y003043D02*
X003753Y004104D01*
X005685Y005226D02*
X005685Y005546D01*
X005845Y005546D01*
X005899Y005493D01*
X005899Y005386D01*
X005845Y005333D01*
X005685Y005333D01*
X005792Y005333D02*
X005899Y005226D01*
X006054Y005280D02*
X006054Y005386D01*
X006107Y005440D01*
X006214Y005440D01*
X006267Y005386D01*
X006267Y005333D01*
X006054Y005333D01*
X006054Y005280D02*
X006107Y005226D01*
X006214Y005226D01*
X006422Y005226D02*
X006422Y005440D01*
X006475Y005440D01*
X006529Y005386D01*
X006582Y005440D01*
X006635Y005386D01*
X006635Y005226D01*
X006529Y005226D02*
X006529Y005386D01*
X006790Y005386D02*
X006790Y005280D01*
X006844Y005226D01*
X006950Y005226D01*
X007004Y005280D01*
X007004Y005386D01*
X006950Y005440D01*
X006844Y005440D01*
X006790Y005386D01*
X007159Y005440D02*
X007265Y005440D01*
X007212Y005493D02*
X007212Y005280D01*
X007265Y005226D01*
X007404Y005280D02*
X007404Y005386D01*
X007457Y005440D01*
X007564Y005440D01*
X007618Y005386D01*
X007618Y005333D01*
X007404Y005333D01*
X007404Y005280D02*
X007457Y005226D01*
X007564Y005226D01*
X008141Y005280D02*
X008194Y005226D01*
X008301Y005226D01*
X008354Y005280D01*
X008354Y005333D01*
X008301Y005386D01*
X008194Y005386D01*
X008141Y005440D01*
X008141Y005493D01*
X008194Y005546D01*
X008301Y005546D01*
X008354Y005493D01*
X008509Y005546D02*
X008509Y005226D01*
X008509Y005386D02*
X008562Y005440D01*
X008669Y005440D01*
X008723Y005386D01*
X008723Y005226D01*
X008877Y005226D02*
X008984Y005226D01*
X008931Y005226D02*
X008931Y005440D01*
X008877Y005440D01*
X008931Y005546D02*
X008931Y005600D01*
X009123Y005386D02*
X009176Y005440D01*
X009283Y005440D01*
X009336Y005386D01*
X009336Y005333D01*
X009123Y005333D01*
X009123Y005280D02*
X009123Y005386D01*
X009123Y005280D02*
X009176Y005226D01*
X009283Y005226D01*
X009491Y005226D02*
X009598Y005226D01*
X009545Y005226D02*
X009545Y005546D01*
X009491Y005546D01*
X009737Y005386D02*
X009790Y005440D01*
X009950Y005440D01*
X009950Y005546D02*
X009950Y005226D01*
X009790Y005226D01*
X009737Y005280D01*
X009737Y005386D01*
X011823Y004104D02*
X012883Y003043D01*
X012035Y009395D02*
X012895Y010624D01*
X003970Y009334D02*
X002742Y010194D01*
D12*
X002242Y010736D02*
X002242Y010927D01*
X002051Y010927D02*
X002051Y010736D01*
X002147Y010641D01*
X002242Y010736D01*
X001952Y010736D02*
X001952Y010689D01*
X001904Y010641D01*
X001809Y010641D01*
X001761Y010689D01*
X001664Y010689D02*
X001664Y010641D01*
X001616Y010641D01*
X001616Y010689D01*
X001664Y010689D01*
X001517Y010689D02*
X001469Y010641D01*
X001374Y010641D01*
X001326Y010689D01*
X001421Y010784D02*
X001469Y010784D01*
X001517Y010736D01*
X001517Y010689D01*
X001469Y010784D02*
X001517Y010832D01*
X001517Y010879D01*
X001469Y010927D01*
X001374Y010927D01*
X001326Y010879D01*
X001761Y010879D02*
X001809Y010927D01*
X001904Y010927D01*
X001952Y010879D01*
X001952Y010832D01*
X001904Y010784D01*
X001952Y010736D01*
X001904Y010784D02*
X001857Y010784D01*
X001807Y009864D02*
X001807Y009673D01*
X001711Y009578D01*
X001616Y009673D01*
X001616Y009864D01*
X001517Y009864D02*
X001326Y009864D01*
X001326Y009721D01*
X001421Y009769D01*
X001469Y009769D01*
X001517Y009721D01*
X001517Y009626D01*
X001469Y009578D01*
X001374Y009578D01*
X001326Y009626D01*
X001374Y008840D02*
X001326Y008792D01*
X001326Y008602D01*
X001374Y008555D01*
X001469Y008555D01*
X001517Y008602D01*
X001517Y008697D01*
X001421Y008697D01*
X001517Y008792D02*
X001469Y008840D01*
X001374Y008840D01*
X001616Y008840D02*
X001616Y008555D01*
X001807Y008555D02*
X001807Y008840D01*
X001906Y008840D02*
X002049Y008840D01*
X002097Y008792D01*
X002097Y008602D01*
X002049Y008555D01*
X001906Y008555D01*
X001906Y008840D01*
X001616Y008840D02*
X001807Y008555D01*
X001807Y007856D02*
X001807Y007571D01*
X001616Y007856D01*
X001616Y007571D01*
X001517Y007618D02*
X001517Y007713D01*
X001421Y007713D01*
X001326Y007618D02*
X001374Y007571D01*
X001469Y007571D01*
X001517Y007618D01*
X001517Y007808D02*
X001469Y007856D01*
X001374Y007856D01*
X001326Y007808D01*
X001326Y007618D01*
X001906Y007571D02*
X002049Y007571D01*
X002097Y007618D01*
X002097Y007808D01*
X002049Y007856D01*
X001906Y007856D01*
X001906Y007571D01*
X002000Y006856D02*
X002000Y006571D01*
X001810Y006856D01*
X001810Y006571D01*
X001711Y006571D02*
X001616Y006571D01*
X001664Y006571D02*
X001664Y006856D01*
X001711Y006856D02*
X001616Y006856D01*
X001517Y006856D02*
X001517Y006666D01*
X001421Y006571D01*
X001326Y006666D01*
X001326Y006856D01*
X001450Y005929D02*
X001326Y005806D01*
X001326Y005559D01*
X001326Y005744D02*
X001573Y005744D01*
X001573Y005806D02*
X001450Y005929D01*
X001573Y005806D02*
X001573Y005559D01*
X001695Y005620D02*
X001942Y005867D01*
X001942Y005620D01*
X001880Y005559D01*
X001756Y005559D01*
X001695Y005620D01*
X001695Y005867D01*
X001756Y005929D01*
X001880Y005929D01*
X001942Y005867D01*
X001818Y004937D02*
X001818Y004567D01*
X001695Y004567D02*
X001942Y004567D01*
X001695Y004813D02*
X001818Y004937D01*
X001573Y004813D02*
X001573Y004567D01*
X001573Y004752D02*
X001326Y004752D01*
X001326Y004813D02*
X001450Y004937D01*
X001573Y004813D01*
X001326Y004813D02*
X001326Y004567D01*
X001450Y003917D02*
X001573Y003794D01*
X001573Y003547D01*
X001695Y003547D02*
X001942Y003794D01*
X001942Y003855D01*
X001880Y003917D01*
X001756Y003917D01*
X001695Y003855D01*
X001573Y003732D02*
X001326Y003732D01*
X001326Y003794D02*
X001326Y003547D01*
X001326Y003794D02*
X001450Y003917D01*
X001695Y003547D02*
X001942Y003547D01*
X001880Y002890D02*
X001756Y002890D01*
X001695Y002828D01*
X001573Y002766D02*
X001573Y002519D01*
X001695Y002581D02*
X001756Y002519D01*
X001880Y002519D01*
X001942Y002581D01*
X001942Y002643D01*
X001880Y002704D01*
X001818Y002704D01*
X001880Y002704D02*
X001942Y002766D01*
X001942Y002828D01*
X001880Y002890D01*
X001573Y002766D02*
X001450Y002890D01*
X001326Y002766D01*
X001326Y002519D01*
X001326Y002704D02*
X001573Y002704D01*
X001450Y001941D02*
X001573Y001817D01*
X001573Y001571D01*
X001573Y001756D02*
X001326Y001756D01*
X001326Y001817D02*
X001450Y001941D01*
X001326Y001817D02*
X001326Y001571D01*
X001695Y001756D02*
X001942Y001756D01*
X001880Y001941D02*
X001695Y001756D01*
X001880Y001571D02*
X001880Y001941D01*
X001942Y000949D02*
X001695Y000949D01*
X001695Y000764D01*
X001818Y000825D01*
X001880Y000825D01*
X001942Y000764D01*
X001942Y000640D01*
X001880Y000578D01*
X001756Y000578D01*
X001695Y000640D01*
X001573Y000578D02*
X001573Y000825D01*
X001450Y000949D01*
X001326Y000825D01*
X001326Y000578D01*
X001326Y000764D02*
X001573Y000764D01*
X006369Y004708D02*
X006466Y004611D01*
X006562Y004708D01*
X006562Y004902D01*
X006664Y004756D02*
X006712Y004805D01*
X006809Y004805D01*
X006857Y004756D01*
X006857Y004708D01*
X006664Y004708D01*
X006664Y004660D02*
X006664Y004756D01*
X006664Y004660D02*
X006712Y004611D01*
X006809Y004611D01*
X006958Y004611D02*
X006958Y004805D01*
X006958Y004708D02*
X007055Y004805D01*
X007103Y004805D01*
X007204Y004756D02*
X007252Y004708D01*
X007349Y004708D01*
X007397Y004660D01*
X007349Y004611D01*
X007204Y004611D01*
X007204Y004756D02*
X007252Y004805D01*
X007397Y004805D01*
X007498Y004805D02*
X007547Y004805D01*
X007547Y004611D01*
X007595Y004611D02*
X007498Y004611D01*
X007695Y004660D02*
X007743Y004611D01*
X007840Y004611D01*
X007888Y004660D01*
X007888Y004756D01*
X007840Y004805D01*
X007743Y004805D01*
X007695Y004756D01*
X007695Y004660D01*
X007547Y004902D02*
X007547Y004950D01*
X007989Y004805D02*
X007989Y004611D01*
X007989Y004805D02*
X008135Y004805D01*
X008183Y004756D01*
X008183Y004611D01*
X008579Y004611D02*
X008772Y004611D01*
X008676Y004611D02*
X008676Y004902D01*
X008579Y004805D01*
X008873Y004660D02*
X008922Y004660D01*
X008922Y004611D01*
X008873Y004611D01*
X008873Y004660D01*
X009021Y004660D02*
X009021Y004853D01*
X009069Y004902D01*
X009166Y004902D01*
X009214Y004853D01*
X009021Y004660D01*
X009069Y004611D01*
X009166Y004611D01*
X009214Y004660D01*
X009214Y004853D01*
X008666Y007131D02*
X008763Y007324D01*
X008569Y007324D02*
X008666Y007131D01*
X008468Y007131D02*
X008323Y007131D01*
X008274Y007179D01*
X008274Y007276D01*
X008323Y007324D01*
X008468Y007324D01*
X008173Y007276D02*
X008173Y007228D01*
X007980Y007228D01*
X007980Y007276D02*
X008028Y007324D01*
X008125Y007324D01*
X008173Y007276D01*
X008125Y007131D02*
X008028Y007131D01*
X007980Y007179D01*
X007980Y007276D01*
X007879Y007276D02*
X007830Y007228D01*
X007685Y007228D01*
X007782Y007228D02*
X007879Y007131D01*
X007879Y007276D02*
X007879Y007373D01*
X007830Y007421D01*
X007685Y007421D01*
X007685Y007131D01*
X007289Y007131D02*
X007193Y007228D01*
X007241Y007228D02*
X007096Y007228D01*
X007096Y007131D02*
X007096Y007421D01*
X007241Y007421D01*
X007289Y007373D01*
X007289Y007276D01*
X007241Y007228D01*
X006996Y007131D02*
X006899Y007131D01*
X006948Y007131D02*
X006948Y007421D01*
X006996Y007421D02*
X006899Y007421D01*
X006369Y004902D02*
X006369Y004708D01*
X013621Y001895D02*
X013868Y001895D01*
X013990Y001895D02*
X014236Y001525D01*
X013990Y001525D02*
X014236Y001895D01*
X013745Y001895D02*
X013745Y001525D01*
X013806Y000872D02*
X013621Y000872D01*
X013621Y000501D01*
X013621Y000625D02*
X013806Y000625D01*
X013868Y000686D01*
X013868Y000810D01*
X013806Y000872D01*
X013990Y000872D02*
X014236Y000501D01*
X013990Y000501D02*
X014236Y000872D01*
X013868Y000501D02*
X013745Y000625D01*
X002582Y011626D02*
X002582Y011911D01*
X002677Y011911D02*
X002486Y011911D01*
X002387Y011911D02*
X002196Y011911D01*
X002196Y011626D01*
X002387Y011626D01*
X002292Y011768D02*
X002196Y011768D01*
X002097Y011721D02*
X002097Y011673D01*
X002049Y011626D01*
X001954Y011626D01*
X001906Y011673D01*
X001954Y011768D02*
X002049Y011768D01*
X002097Y011721D01*
X002097Y011863D02*
X002049Y011911D01*
X001954Y011911D01*
X001906Y011863D01*
X001906Y011816D01*
X001954Y011768D01*
X001807Y011626D02*
X001616Y011626D01*
X001616Y011911D01*
X001807Y011911D01*
X001711Y011768D02*
X001616Y011768D01*
X001517Y011768D02*
X001469Y011721D01*
X001326Y011721D01*
X001326Y011626D02*
X001326Y011911D01*
X001469Y011911D01*
X001517Y011863D01*
X001517Y011768D01*
X001421Y011721D02*
X001517Y011626D01*
D13*
X003977Y009289D02*
X003974Y009379D01*
X004042Y009383D01*
X004110Y009392D01*
X004177Y009404D01*
X004244Y009420D01*
X004309Y009439D01*
X004373Y009463D01*
X004436Y009489D01*
X004497Y009520D01*
X004557Y009554D01*
X004614Y009591D01*
X004669Y009631D01*
X004722Y009675D01*
X004772Y009721D01*
X004819Y009770D01*
X004864Y009822D01*
X004906Y009876D01*
X004944Y009932D01*
X004979Y009991D01*
X005011Y010051D01*
X005040Y010113D01*
X005065Y010177D01*
X005086Y010242D01*
X005103Y010308D01*
X005117Y010375D01*
X005127Y010442D01*
X005133Y010510D01*
X005135Y010579D01*
X005133Y010647D01*
X005128Y010715D01*
X005118Y010783D01*
X005105Y010850D01*
X005088Y010916D01*
X005067Y010981D01*
X005043Y011045D01*
X005015Y011107D01*
X004984Y011168D01*
X004949Y011226D01*
X004911Y011283D01*
X004870Y011337D01*
X004825Y011389D01*
X004778Y011439D01*
X004728Y011486D01*
X004676Y011529D01*
X004621Y011570D01*
X004564Y011608D01*
X004505Y011642D01*
X004444Y011673D01*
X004382Y011700D01*
X004318Y011724D01*
X004252Y011744D01*
X004186Y011760D01*
X004119Y011773D01*
X004051Y011782D01*
X003983Y011787D01*
X003915Y011788D01*
X003847Y011785D01*
X003779Y011778D01*
X003711Y011768D01*
X003644Y011754D01*
X003578Y011736D01*
X003514Y011714D01*
X003450Y011688D01*
X003389Y011659D01*
X003328Y011627D01*
X003270Y011591D01*
X003214Y011552D01*
X003160Y011510D01*
X003109Y011465D01*
X003060Y011417D01*
X003015Y011367D01*
X002972Y011313D01*
X002932Y011258D01*
X002895Y011200D01*
X002862Y011141D01*
X002832Y011079D01*
X002806Y011016D01*
X002783Y010952D01*
X002764Y010886D01*
X002749Y010820D01*
X002737Y010753D01*
X002729Y010685D01*
X002725Y010616D01*
X002726Y010548D01*
X002729Y010480D01*
X002737Y010412D01*
X002749Y010345D01*
X002764Y010278D01*
X002783Y010213D01*
X002698Y010185D01*
X002678Y010253D01*
X002662Y010322D01*
X002649Y010392D01*
X002641Y010462D01*
X002636Y010533D01*
X002635Y010604D01*
X002638Y010675D01*
X002645Y010746D01*
X002656Y010816D01*
X002671Y010885D01*
X002689Y010954D01*
X002711Y011021D01*
X002737Y011087D01*
X002767Y011152D01*
X002800Y011215D01*
X002836Y011276D01*
X002876Y011335D01*
X002918Y011391D01*
X002964Y011446D01*
X003013Y011497D01*
X003064Y011546D01*
X003118Y011592D01*
X003175Y011635D01*
X003234Y011675D01*
X003295Y011711D01*
X003357Y011744D01*
X003422Y011774D01*
X003488Y011800D01*
X003555Y011823D01*
X003624Y011841D01*
X003693Y011856D01*
X003763Y011867D01*
X003834Y011874D01*
X003905Y011878D01*
X003976Y011877D01*
X004047Y011873D01*
X004117Y011864D01*
X004187Y011852D01*
X004256Y011836D01*
X004324Y011817D01*
X004391Y011793D01*
X004457Y011766D01*
X004521Y011735D01*
X004583Y011701D01*
X004643Y011664D01*
X004702Y011623D01*
X004757Y011579D01*
X004811Y011532D01*
X004861Y011483D01*
X004909Y011430D01*
X004954Y011375D01*
X004996Y011318D01*
X005035Y011259D01*
X005070Y011197D01*
X005102Y011134D01*
X005131Y011069D01*
X005155Y011002D01*
X005176Y010934D01*
X005194Y010865D01*
X005207Y010796D01*
X005217Y010725D01*
X005223Y010655D01*
X005225Y010584D01*
X005223Y010513D01*
X005217Y010442D01*
X005208Y010372D01*
X005194Y010302D01*
X005177Y010233D01*
X005156Y010165D01*
X005131Y010099D01*
X005103Y010034D01*
X005071Y009970D01*
X005036Y009909D01*
X004997Y009849D01*
X004955Y009792D01*
X004910Y009737D01*
X004863Y009684D01*
X004812Y009635D01*
X004759Y009588D01*
X004703Y009544D01*
X004645Y009503D01*
X004585Y009466D01*
X004522Y009431D01*
X004458Y009401D01*
X004393Y009373D01*
X004326Y009350D01*
X004258Y009330D01*
X004188Y009314D01*
X004119Y009302D01*
X004048Y009293D01*
X003977Y009289D01*
X003977Y009298D01*
X004048Y009302D01*
X004119Y009311D01*
X004189Y009323D01*
X004258Y009340D01*
X004327Y009360D01*
X004394Y009384D01*
X004460Y009411D01*
X004524Y009442D01*
X004586Y009477D01*
X004646Y009515D01*
X004704Y009556D01*
X004760Y009601D01*
X004813Y009648D01*
X004864Y009699D01*
X004911Y009752D01*
X004956Y009807D01*
X004997Y009865D01*
X005035Y009926D01*
X005070Y009988D01*
X005101Y010052D01*
X005129Y010118D01*
X005153Y010185D01*
X005173Y010253D01*
X005189Y010322D01*
X005202Y010393D01*
X005210Y010463D01*
X005215Y010534D01*
X005216Y010606D01*
X005213Y010677D01*
X005205Y010748D01*
X005194Y010818D01*
X005179Y010888D01*
X005161Y010957D01*
X005138Y011024D01*
X005112Y011090D01*
X005082Y011155D01*
X005048Y011218D01*
X005011Y011279D01*
X004971Y011338D01*
X004928Y011394D01*
X004881Y011448D01*
X004832Y011500D01*
X004780Y011548D01*
X004725Y011594D01*
X004668Y011636D01*
X004608Y011676D01*
X004547Y011712D01*
X004483Y011744D01*
X004418Y011773D01*
X004351Y011798D01*
X004283Y011820D01*
X004214Y011837D01*
X004144Y011851D01*
X004074Y011861D01*
X004003Y011867D01*
X003932Y011869D01*
X003860Y011867D01*
X003789Y011861D01*
X003719Y011852D01*
X003649Y011838D01*
X003580Y011820D01*
X003512Y011799D01*
X003445Y011774D01*
X003380Y011745D01*
X003316Y011713D01*
X003254Y011677D01*
X003195Y011638D01*
X003138Y011596D01*
X003083Y011550D01*
X003030Y011502D01*
X002981Y011451D01*
X002934Y011397D01*
X002891Y011340D01*
X002850Y011282D01*
X002813Y011221D01*
X002780Y011158D01*
X002750Y011093D01*
X002723Y011027D01*
X002700Y010960D01*
X002681Y010891D01*
X002666Y010821D01*
X002655Y010751D01*
X002648Y010680D01*
X002644Y010609D01*
X002645Y010537D01*
X002649Y010466D01*
X002658Y010396D01*
X002670Y010325D01*
X002686Y010256D01*
X002706Y010188D01*
X002715Y010190D01*
X002695Y010258D01*
X002679Y010327D01*
X002667Y010397D01*
X002658Y010467D01*
X002654Y010538D01*
X002653Y010609D01*
X002657Y010679D01*
X002664Y010750D01*
X002675Y010820D01*
X002690Y010889D01*
X002709Y010957D01*
X002732Y011024D01*
X002758Y011090D01*
X002788Y011154D01*
X002821Y011216D01*
X002858Y011277D01*
X002898Y011335D01*
X002941Y011391D01*
X002987Y011445D01*
X003037Y011496D01*
X003089Y011544D01*
X003143Y011589D01*
X003200Y011631D01*
X003259Y011670D01*
X003320Y011705D01*
X003383Y011737D01*
X003448Y011766D01*
X003515Y011791D01*
X003582Y011812D01*
X003651Y011829D01*
X003720Y011843D01*
X003790Y011852D01*
X003861Y011858D01*
X003932Y011860D01*
X004002Y011858D01*
X004073Y011852D01*
X004143Y011842D01*
X004212Y011828D01*
X004281Y011811D01*
X004348Y011790D01*
X004415Y011765D01*
X004479Y011736D01*
X004542Y011704D01*
X004603Y011668D01*
X004662Y011629D01*
X004719Y011587D01*
X004774Y011542D01*
X004825Y011493D01*
X004875Y011442D01*
X004921Y011389D01*
X004964Y011333D01*
X005004Y011274D01*
X005040Y011214D01*
X005074Y011151D01*
X005103Y011087D01*
X005129Y011021D01*
X005152Y010954D01*
X005171Y010886D01*
X005185Y010817D01*
X005196Y010747D01*
X005204Y010676D01*
X005207Y010606D01*
X005206Y010535D01*
X005201Y010464D01*
X005193Y010394D01*
X005181Y010324D01*
X005164Y010255D01*
X005144Y010188D01*
X005120Y010121D01*
X005093Y010056D01*
X005062Y009992D01*
X005028Y009930D01*
X004990Y009870D01*
X004949Y009813D01*
X004904Y009758D01*
X004857Y009705D01*
X004807Y009655D01*
X004754Y009608D01*
X004699Y009564D01*
X004641Y009522D01*
X004581Y009485D01*
X004520Y009450D01*
X004456Y009419D01*
X004391Y009392D01*
X004324Y009368D01*
X004256Y009348D01*
X004187Y009332D01*
X004118Y009320D01*
X004047Y009311D01*
X003977Y009307D01*
X003976Y009316D01*
X004047Y009320D01*
X004118Y009329D01*
X004188Y009341D01*
X004257Y009358D01*
X004325Y009378D01*
X004392Y009402D01*
X004457Y009430D01*
X004521Y009461D01*
X004583Y009496D01*
X004643Y009534D01*
X004701Y009576D01*
X004756Y009621D01*
X004808Y009668D01*
X004858Y009719D01*
X004905Y009772D01*
X004949Y009828D01*
X004990Y009887D01*
X005027Y009947D01*
X005061Y010010D01*
X005091Y010074D01*
X005118Y010140D01*
X005141Y010207D01*
X005160Y010275D01*
X005175Y010345D01*
X005187Y010415D01*
X005194Y010486D01*
X005198Y010556D01*
X005197Y010628D01*
X005193Y010698D01*
X005184Y010769D01*
X005172Y010839D01*
X005156Y010908D01*
X005135Y010976D01*
X005112Y011043D01*
X005084Y011109D01*
X005053Y011172D01*
X005018Y011234D01*
X004980Y011294D01*
X004938Y011352D01*
X004893Y011407D01*
X004846Y011460D01*
X004795Y011510D01*
X004742Y011557D01*
X004686Y011601D01*
X004628Y011642D01*
X004568Y011679D01*
X004505Y011713D01*
X004441Y011744D01*
X004375Y011770D01*
X004308Y011793D01*
X004239Y011813D01*
X004170Y011828D01*
X004100Y011840D01*
X004029Y011847D01*
X003958Y011851D01*
X003887Y011850D01*
X003816Y011846D01*
X003746Y011838D01*
X003676Y011825D01*
X003607Y011809D01*
X003538Y011789D01*
X003471Y011765D01*
X003406Y011738D01*
X003342Y011706D01*
X003280Y011672D01*
X003220Y011634D01*
X003162Y011592D01*
X003107Y011548D01*
X003054Y011500D01*
X003004Y011450D01*
X002957Y011396D01*
X002913Y011341D01*
X002872Y011282D01*
X002835Y011222D01*
X002801Y011160D01*
X002770Y011096D01*
X002743Y011030D01*
X002720Y010963D01*
X002701Y010894D01*
X002685Y010825D01*
X002674Y010755D01*
X002666Y010684D01*
X002662Y010613D01*
X002663Y010542D01*
X002667Y010471D01*
X002675Y010401D01*
X002687Y010331D01*
X002703Y010261D01*
X002723Y010193D01*
X002732Y010196D01*
X002712Y010264D01*
X002696Y010332D01*
X002684Y010402D01*
X002676Y010472D01*
X002672Y010542D01*
X002671Y010613D01*
X002675Y010683D01*
X002683Y010754D01*
X002694Y010823D01*
X002710Y010892D01*
X002729Y010960D01*
X002752Y011027D01*
X002778Y011092D01*
X002809Y011156D01*
X002843Y011218D01*
X002880Y011277D01*
X002920Y011335D01*
X002964Y011391D01*
X003011Y011443D01*
X003061Y011494D01*
X003113Y011541D01*
X003168Y011585D01*
X003225Y011626D01*
X003285Y011664D01*
X003346Y011699D01*
X003410Y011729D01*
X003475Y011757D01*
X003541Y011780D01*
X003609Y011800D01*
X003678Y011816D01*
X003747Y011829D01*
X003817Y011837D01*
X003888Y011841D01*
X003958Y011842D01*
X004029Y011838D01*
X004099Y011831D01*
X004168Y011819D01*
X004237Y011804D01*
X004305Y011785D01*
X004372Y011762D01*
X004437Y011735D01*
X004501Y011705D01*
X004563Y011671D01*
X004623Y011634D01*
X004681Y011594D01*
X004736Y011550D01*
X004789Y011503D01*
X004839Y011454D01*
X004887Y011401D01*
X004931Y011347D01*
X004972Y011289D01*
X005010Y011230D01*
X005045Y011168D01*
X005076Y011105D01*
X005103Y011040D01*
X005127Y010974D01*
X005147Y010906D01*
X005163Y010837D01*
X005175Y010768D01*
X005184Y010698D01*
X005188Y010627D01*
X005189Y010557D01*
X005185Y010486D01*
X005178Y010416D01*
X005167Y010346D01*
X005151Y010278D01*
X005132Y010210D01*
X005110Y010143D01*
X005083Y010077D01*
X005053Y010014D01*
X005019Y009952D01*
X004982Y009892D01*
X004942Y009834D01*
X004898Y009778D01*
X004852Y009725D01*
X004802Y009675D01*
X004750Y009628D01*
X004695Y009583D01*
X004638Y009542D01*
X004578Y009504D01*
X004517Y009469D01*
X004454Y009438D01*
X004389Y009411D01*
X004322Y009387D01*
X004255Y009367D01*
X004186Y009350D01*
X004117Y009338D01*
X004046Y009329D01*
X003976Y009325D01*
X003976Y009334D01*
X004046Y009338D01*
X004115Y009347D01*
X004184Y009359D01*
X004252Y009375D01*
X004319Y009395D01*
X004385Y009419D01*
X004450Y009446D01*
X004513Y009477D01*
X004574Y009512D01*
X004633Y009549D01*
X004690Y009590D01*
X004744Y009634D01*
X004796Y009681D01*
X004845Y009731D01*
X004891Y009784D01*
X004935Y009839D01*
X004975Y009897D01*
X005011Y009956D01*
X005045Y010018D01*
X005075Y010081D01*
X005101Y010146D01*
X005124Y010212D01*
X005143Y010280D01*
X005158Y010348D01*
X005169Y010417D01*
X005176Y010487D01*
X005180Y010557D01*
X005179Y010627D01*
X005175Y010697D01*
X005166Y010766D01*
X005154Y010835D01*
X005138Y010904D01*
X005118Y010971D01*
X005095Y011037D01*
X005068Y011101D01*
X005037Y011164D01*
X005002Y011225D01*
X004965Y011284D01*
X004924Y011341D01*
X004880Y011396D01*
X004833Y011448D01*
X004783Y011497D01*
X004730Y011543D01*
X004675Y011586D01*
X004618Y011627D01*
X004558Y011664D01*
X004497Y011697D01*
X004434Y011727D01*
X004369Y011753D01*
X004303Y011776D01*
X004235Y011795D01*
X004167Y011810D01*
X004098Y011822D01*
X004028Y011829D01*
X003958Y011833D01*
X003888Y011832D01*
X003818Y011828D01*
X003748Y011820D01*
X003679Y011808D01*
X003611Y011792D01*
X003544Y011772D01*
X003478Y011748D01*
X003413Y011721D01*
X003351Y011691D01*
X003289Y011656D01*
X003230Y011619D01*
X003173Y011578D01*
X003119Y011534D01*
X003067Y011487D01*
X003017Y011437D01*
X002971Y011385D01*
X002928Y011330D01*
X002887Y011273D01*
X002850Y011213D01*
X002817Y011152D01*
X002787Y011088D01*
X002760Y011023D01*
X002737Y010957D01*
X002718Y010890D01*
X002703Y010822D01*
X002692Y010752D01*
X002684Y010683D01*
X002680Y010613D01*
X002681Y010543D01*
X002685Y010473D01*
X002693Y010403D01*
X002705Y010334D01*
X002721Y010266D01*
X002741Y010199D01*
X002749Y010202D01*
X002730Y010268D01*
X002714Y010336D01*
X002702Y010405D01*
X002694Y010474D01*
X002690Y010543D01*
X002689Y010613D01*
X002693Y010682D01*
X002700Y010751D01*
X002712Y010820D01*
X002727Y010888D01*
X002746Y010955D01*
X002769Y011020D01*
X002795Y011085D01*
X002825Y011148D01*
X002858Y011209D01*
X002895Y011268D01*
X002935Y011325D01*
X002978Y011379D01*
X003024Y011431D01*
X003073Y011481D01*
X003125Y011527D01*
X003179Y011571D01*
X003235Y011611D01*
X003294Y011649D01*
X003355Y011683D01*
X003417Y011713D01*
X003481Y011740D01*
X003547Y011763D01*
X003614Y011783D01*
X003681Y011799D01*
X003750Y011811D01*
X003819Y011819D01*
X003888Y011823D01*
X003958Y011824D01*
X004027Y011820D01*
X004096Y011813D01*
X004165Y011802D01*
X004233Y011786D01*
X004300Y011768D01*
X004366Y011745D01*
X004430Y011719D01*
X004493Y011689D01*
X004554Y011656D01*
X004613Y011619D01*
X004670Y011579D01*
X004725Y011536D01*
X004777Y011490D01*
X004826Y011441D01*
X004873Y011390D01*
X004917Y011336D01*
X004957Y011279D01*
X004995Y011221D01*
X005029Y011160D01*
X005059Y011098D01*
X005086Y011033D01*
X005110Y010968D01*
X005129Y010901D01*
X005145Y010834D01*
X005158Y010765D01*
X005166Y010696D01*
X005170Y010627D01*
X005171Y010557D01*
X005167Y010488D01*
X005160Y010418D01*
X005149Y010350D01*
X005134Y010282D01*
X005115Y010215D01*
X005093Y010149D01*
X005067Y010085D01*
X005037Y010022D01*
X005004Y009961D01*
X004967Y009902D01*
X004927Y009844D01*
X004884Y009790D01*
X004838Y009738D01*
X004790Y009688D01*
X004738Y009641D01*
X004684Y009597D01*
X004628Y009557D01*
X004569Y009519D01*
X004509Y009485D01*
X004446Y009454D01*
X004382Y009427D01*
X004317Y009404D01*
X004250Y009384D01*
X004182Y009368D01*
X004114Y009356D01*
X004045Y009347D01*
X003975Y009343D01*
X003975Y009352D01*
X004044Y009356D01*
X004113Y009365D01*
X004181Y009377D01*
X004248Y009393D01*
X004314Y009412D01*
X004379Y009436D01*
X004442Y009463D01*
X004504Y009493D01*
X004565Y009527D01*
X004623Y009564D01*
X004679Y009605D01*
X004732Y009648D01*
X004783Y009695D01*
X004832Y009744D01*
X004877Y009796D01*
X004920Y009850D01*
X004960Y009906D01*
X004996Y009965D01*
X005029Y010026D01*
X005058Y010088D01*
X005084Y010152D01*
X005107Y010218D01*
X005125Y010284D01*
X005140Y010352D01*
X005151Y010420D01*
X005158Y010488D01*
X005162Y010557D01*
X005161Y010626D01*
X005157Y010695D01*
X005149Y010764D01*
X005137Y010832D01*
X005121Y010899D01*
X005101Y010965D01*
X005078Y011030D01*
X005051Y011094D01*
X005021Y011156D01*
X004987Y011216D01*
X004950Y011274D01*
X004910Y011330D01*
X004866Y011384D01*
X004820Y011435D01*
X004771Y011484D01*
X004719Y011529D01*
X004665Y011572D01*
X004608Y011612D01*
X004549Y011648D01*
X004489Y011681D01*
X004426Y011711D01*
X004362Y011737D01*
X004297Y011759D01*
X004231Y011778D01*
X004163Y011793D01*
X004095Y011804D01*
X004027Y011811D01*
X003958Y011815D01*
X003889Y011814D01*
X003820Y011810D01*
X003751Y011802D01*
X003683Y011790D01*
X003616Y011774D01*
X003550Y011755D01*
X003485Y011732D01*
X003421Y011705D01*
X003359Y011675D01*
X003299Y011641D01*
X003240Y011604D01*
X003184Y011564D01*
X003130Y011520D01*
X003079Y011474D01*
X003031Y011425D01*
X002985Y011373D01*
X002942Y011319D01*
X002902Y011263D01*
X002866Y011204D01*
X002833Y011143D01*
X002803Y011081D01*
X002777Y011017D01*
X002755Y010952D01*
X002736Y010886D01*
X002721Y010818D01*
X002709Y010750D01*
X002702Y010681D01*
X002698Y010612D01*
X002699Y010543D01*
X002703Y010474D01*
X002711Y010406D01*
X002723Y010338D01*
X002738Y010271D01*
X002758Y010204D01*
X002766Y010207D01*
X002747Y010274D01*
X002731Y010341D01*
X002719Y010410D01*
X002711Y010478D01*
X002708Y010548D01*
X002707Y010617D01*
X002711Y010686D01*
X002719Y010755D01*
X002731Y010823D01*
X002746Y010891D01*
X002766Y010957D01*
X002789Y011023D01*
X002816Y011087D01*
X002846Y011149D01*
X002880Y011210D01*
X002917Y011268D01*
X002957Y011324D01*
X003001Y011378D01*
X003047Y011430D01*
X003097Y011478D01*
X003149Y011524D01*
X003203Y011567D01*
X003260Y011606D01*
X003319Y011643D01*
X003380Y011676D01*
X003443Y011705D01*
X003508Y011731D01*
X003573Y011753D01*
X003640Y011771D01*
X003708Y011786D01*
X003776Y011796D01*
X003845Y011803D01*
X003915Y011806D01*
X003984Y011805D01*
X004053Y011800D01*
X004122Y011791D01*
X004190Y011778D01*
X004257Y011761D01*
X004323Y011741D01*
X004388Y011717D01*
X004452Y011689D01*
X004514Y011658D01*
X004574Y011623D01*
X004631Y011585D01*
X004687Y011543D01*
X004740Y011499D01*
X004791Y011452D01*
X004839Y011401D01*
X004884Y011349D01*
X004925Y011293D01*
X004964Y011236D01*
X004999Y011176D01*
X005031Y011115D01*
X005060Y011051D01*
X005084Y010987D01*
X005105Y010921D01*
X005123Y010854D01*
X005136Y010786D01*
X005146Y010717D01*
X005151Y010648D01*
X005153Y010579D01*
X005151Y010509D01*
X005145Y010440D01*
X005135Y010372D01*
X005121Y010304D01*
X005103Y010237D01*
X005081Y010171D01*
X005056Y010106D01*
X005027Y010043D01*
X004995Y009982D01*
X004959Y009923D01*
X004920Y009865D01*
X004878Y009810D01*
X004833Y009758D01*
X004785Y009708D01*
X004734Y009661D01*
X004680Y009617D01*
X004624Y009576D01*
X004566Y009538D01*
X004506Y009504D01*
X004444Y009473D01*
X004380Y009446D01*
X004315Y009422D01*
X004248Y009402D01*
X004181Y009386D01*
X004113Y009374D01*
X004044Y009365D01*
X003975Y009361D01*
X003975Y009370D01*
X004043Y009374D01*
X004112Y009383D01*
X004179Y009395D01*
X004246Y009411D01*
X004312Y009431D01*
X004377Y009454D01*
X004440Y009481D01*
X004502Y009512D01*
X004561Y009546D01*
X004619Y009583D01*
X004675Y009624D01*
X004728Y009668D01*
X004778Y009715D01*
X004826Y009764D01*
X004871Y009816D01*
X004913Y009871D01*
X004952Y009927D01*
X004987Y009986D01*
X005019Y010047D01*
X005048Y010110D01*
X005073Y010174D01*
X005094Y010239D01*
X005112Y010306D01*
X005126Y010373D01*
X005136Y010441D01*
X005142Y010510D01*
X005144Y010579D01*
X005142Y010647D01*
X005137Y010716D01*
X005127Y010784D01*
X005114Y010852D01*
X005097Y010918D01*
X005076Y010984D01*
X005051Y011048D01*
X005023Y011111D01*
X004992Y011172D01*
X004957Y011231D01*
X004918Y011288D01*
X004877Y011343D01*
X004832Y011395D01*
X004785Y011445D01*
X004734Y011492D01*
X004682Y011536D01*
X004626Y011577D01*
X004569Y011615D01*
X004509Y011650D01*
X004448Y011681D01*
X004385Y011709D01*
X004320Y011732D01*
X004255Y011753D01*
X004188Y011769D01*
X004120Y011782D01*
X004052Y011791D01*
X003983Y011796D01*
X003915Y011797D01*
X003846Y011794D01*
X003777Y011787D01*
X003709Y011777D01*
X003642Y011762D01*
X003576Y011744D01*
X003511Y011722D01*
X003447Y011697D01*
X003384Y011668D01*
X003324Y011635D01*
X003265Y011599D01*
X003209Y011560D01*
X003155Y011517D01*
X003103Y011472D01*
X003054Y011423D01*
X003008Y011372D01*
X002964Y011319D01*
X002924Y011263D01*
X002887Y011205D01*
X002854Y011145D01*
X002824Y011083D01*
X002797Y011020D01*
X002774Y010955D01*
X002755Y010889D01*
X002740Y010822D01*
X002728Y010754D01*
X002720Y010685D01*
X002716Y010617D01*
X002717Y010548D01*
X002720Y010479D01*
X002728Y010411D01*
X002740Y010343D01*
X002755Y010276D01*
X002775Y010210D01*
X002648Y003045D02*
X002737Y003032D01*
X002736Y003032D02*
X002729Y002965D01*
X002725Y002896D01*
X002726Y002828D01*
X002730Y002760D01*
X002738Y002692D01*
X002750Y002625D01*
X002765Y002558D01*
X002785Y002493D01*
X002808Y002429D01*
X002834Y002366D01*
X002864Y002304D01*
X002898Y002245D01*
X002935Y002188D01*
X002975Y002132D01*
X003018Y002079D01*
X003064Y002029D01*
X003113Y001981D01*
X003165Y001936D01*
X003219Y001894D01*
X003275Y001856D01*
X003333Y001820D01*
X003393Y001788D01*
X003455Y001759D01*
X003519Y001734D01*
X003584Y001713D01*
X003650Y001695D01*
X003716Y001681D01*
X003784Y001671D01*
X003852Y001665D01*
X003920Y001662D01*
X003988Y001663D01*
X004057Y001669D01*
X004124Y001678D01*
X004191Y001691D01*
X004258Y001707D01*
X004323Y001728D01*
X004387Y001752D01*
X004449Y001780D01*
X004510Y001811D01*
X004569Y001845D01*
X004626Y001883D01*
X004680Y001924D01*
X004732Y001968D01*
X004782Y002015D01*
X004829Y002065D01*
X004873Y002117D01*
X004914Y002171D01*
X004952Y002228D01*
X004986Y002287D01*
X005017Y002348D01*
X005045Y002410D01*
X005069Y002474D01*
X005090Y002539D01*
X005106Y002606D01*
X005119Y002673D01*
X005128Y002740D01*
X005134Y002809D01*
X005135Y002877D01*
X005132Y002945D01*
X005126Y003013D01*
X005116Y003081D01*
X005102Y003147D01*
X005084Y003213D01*
X005063Y003278D01*
X005038Y003342D01*
X005009Y003404D01*
X004977Y003464D01*
X004941Y003522D01*
X004903Y003578D01*
X004861Y003632D01*
X004816Y003684D01*
X004768Y003733D01*
X004718Y003779D01*
X004665Y003822D01*
X004609Y003862D01*
X004552Y003899D01*
X004493Y003933D01*
X004431Y003963D01*
X004368Y003989D01*
X004304Y004012D01*
X004239Y004032D01*
X004172Y004047D01*
X004105Y004059D01*
X004037Y004067D01*
X003969Y004071D01*
X003901Y004072D01*
X003832Y004068D01*
X003765Y004061D01*
X003752Y004149D01*
X003752Y004150D01*
X003822Y004158D01*
X003893Y004161D01*
X003964Y004162D01*
X004035Y004158D01*
X004106Y004150D01*
X004176Y004138D01*
X004245Y004123D01*
X004313Y004104D01*
X004381Y004081D01*
X004446Y004055D01*
X004511Y004025D01*
X004573Y003991D01*
X004634Y003954D01*
X004692Y003914D01*
X004749Y003870D01*
X004802Y003824D01*
X004853Y003775D01*
X004902Y003723D01*
X004947Y003668D01*
X004990Y003611D01*
X005029Y003552D01*
X005065Y003491D01*
X005097Y003428D01*
X005126Y003363D01*
X005152Y003297D01*
X005173Y003229D01*
X005191Y003161D01*
X005205Y003091D01*
X005216Y003021D01*
X005222Y002950D01*
X005225Y002879D01*
X005224Y002808D01*
X005219Y002737D01*
X005209Y002667D01*
X005197Y002597D01*
X005180Y002528D01*
X005159Y002460D01*
X005135Y002394D01*
X005108Y002328D01*
X005076Y002265D01*
X005042Y002203D01*
X005004Y002143D01*
X004962Y002085D01*
X004918Y002030D01*
X004870Y001977D01*
X004820Y001927D01*
X004767Y001879D01*
X004712Y001835D01*
X004654Y001793D01*
X004594Y001755D01*
X004532Y001721D01*
X004469Y001689D01*
X004403Y001662D01*
X004337Y001638D01*
X004269Y001617D01*
X004200Y001600D01*
X004130Y001588D01*
X004060Y001578D01*
X003989Y001573D01*
X003918Y001572D01*
X003847Y001575D01*
X003776Y001581D01*
X003706Y001592D01*
X003636Y001606D01*
X003568Y001624D01*
X003500Y001645D01*
X003434Y001671D01*
X003369Y001700D01*
X003306Y001732D01*
X003245Y001768D01*
X003186Y001807D01*
X003129Y001850D01*
X003074Y001895D01*
X003022Y001944D01*
X002973Y001995D01*
X002927Y002048D01*
X002883Y002105D01*
X002843Y002163D01*
X002806Y002224D01*
X002772Y002286D01*
X002742Y002351D01*
X002716Y002416D01*
X002693Y002484D01*
X002674Y002552D01*
X002659Y002621D01*
X002647Y002691D01*
X002639Y002762D01*
X002635Y002833D01*
X002636Y002904D01*
X002639Y002975D01*
X002647Y003045D01*
X002656Y003044D01*
X002648Y002973D01*
X002644Y002902D01*
X002645Y002831D01*
X002649Y002759D01*
X002656Y002689D01*
X002668Y002618D01*
X002684Y002549D01*
X002704Y002480D01*
X002727Y002413D01*
X002754Y002347D01*
X002784Y002283D01*
X002819Y002220D01*
X002856Y002160D01*
X002897Y002101D01*
X002941Y002045D01*
X002988Y001992D01*
X003038Y001941D01*
X003091Y001893D01*
X003146Y001848D01*
X003204Y001806D01*
X003263Y001767D01*
X003325Y001732D01*
X003389Y001700D01*
X003455Y001672D01*
X003522Y001648D01*
X003590Y001627D01*
X003659Y001610D01*
X003729Y001597D01*
X003800Y001588D01*
X003871Y001582D01*
X003942Y001581D01*
X004013Y001584D01*
X004084Y001590D01*
X004155Y001601D01*
X004225Y001615D01*
X004293Y001633D01*
X004361Y001655D01*
X004428Y001681D01*
X004493Y001711D01*
X004556Y001744D01*
X004617Y001780D01*
X004676Y001820D01*
X004733Y001863D01*
X004788Y001909D01*
X004839Y001958D01*
X004888Y002009D01*
X004934Y002064D01*
X004977Y002121D01*
X005017Y002180D01*
X005053Y002241D01*
X005086Y002304D01*
X005116Y002369D01*
X005142Y002436D01*
X005164Y002504D01*
X005182Y002572D01*
X005196Y002642D01*
X005207Y002713D01*
X005213Y002784D01*
X005216Y002855D01*
X005215Y002926D01*
X005209Y002997D01*
X005200Y003068D01*
X005187Y003138D01*
X005170Y003207D01*
X005149Y003275D01*
X005125Y003342D01*
X005097Y003408D01*
X005065Y003472D01*
X005030Y003534D01*
X004991Y003593D01*
X004949Y003651D01*
X004904Y003706D01*
X004856Y003759D01*
X004805Y003809D01*
X004752Y003856D01*
X004696Y003900D01*
X004637Y003941D01*
X004577Y003978D01*
X004514Y004013D01*
X004450Y004043D01*
X004384Y004070D01*
X004317Y004093D01*
X004248Y004113D01*
X004179Y004129D01*
X004108Y004141D01*
X004038Y004148D01*
X003966Y004152D01*
X003895Y004153D01*
X003824Y004149D01*
X003753Y004141D01*
X003754Y004132D01*
X003825Y004140D01*
X003895Y004144D01*
X003966Y004143D01*
X004037Y004140D01*
X004107Y004132D01*
X004177Y004120D01*
X004246Y004104D01*
X004314Y004085D01*
X004381Y004062D01*
X004446Y004035D01*
X004510Y004005D01*
X004572Y003971D01*
X004633Y003933D01*
X004691Y003893D01*
X004746Y003849D01*
X004799Y003802D01*
X004850Y003753D01*
X004898Y003700D01*
X004942Y003646D01*
X004984Y003588D01*
X005022Y003529D01*
X005057Y003467D01*
X005089Y003404D01*
X005117Y003339D01*
X005141Y003272D01*
X005162Y003205D01*
X005178Y003136D01*
X005191Y003066D01*
X005200Y002996D01*
X005206Y002926D01*
X005207Y002855D01*
X005204Y002784D01*
X005198Y002714D01*
X005187Y002644D01*
X005173Y002574D01*
X005155Y002506D01*
X005133Y002439D01*
X005107Y002373D01*
X005078Y002308D01*
X005046Y002246D01*
X005009Y002185D01*
X004970Y002126D01*
X004927Y002069D01*
X004882Y002015D01*
X004833Y001964D01*
X004782Y001915D01*
X004728Y001870D01*
X004671Y001827D01*
X004612Y001788D01*
X004551Y001751D01*
X004489Y001719D01*
X004424Y001690D01*
X004358Y001664D01*
X004291Y001642D01*
X004223Y001624D01*
X004153Y001610D01*
X004083Y001599D01*
X004013Y001593D01*
X003942Y001590D01*
X003871Y001591D01*
X003801Y001597D01*
X003731Y001606D01*
X003661Y001619D01*
X003592Y001635D01*
X003525Y001656D01*
X003458Y001680D01*
X003393Y001708D01*
X003330Y001740D01*
X003268Y001775D01*
X003209Y001813D01*
X003151Y001855D01*
X003097Y001899D01*
X003044Y001947D01*
X002995Y001998D01*
X002948Y002051D01*
X002904Y002106D01*
X002864Y002164D01*
X002826Y002225D01*
X002792Y002287D01*
X002762Y002351D01*
X002735Y002416D01*
X002712Y002483D01*
X002693Y002551D01*
X002677Y002620D01*
X002665Y002690D01*
X002657Y002760D01*
X002654Y002831D01*
X002653Y002902D01*
X002657Y002972D01*
X002665Y003043D01*
X002674Y003041D01*
X002666Y002971D01*
X002662Y002900D01*
X002663Y002829D01*
X002667Y002758D01*
X002675Y002687D01*
X002687Y002617D01*
X002703Y002548D01*
X002723Y002480D01*
X002746Y002413D01*
X002774Y002347D01*
X002804Y002283D01*
X002839Y002221D01*
X002877Y002161D01*
X002918Y002103D01*
X002962Y002047D01*
X003010Y001995D01*
X003060Y001944D01*
X003113Y001897D01*
X003169Y001853D01*
X003227Y001812D01*
X003287Y001774D01*
X003349Y001740D01*
X003413Y001709D01*
X003479Y001682D01*
X003546Y001658D01*
X003614Y001639D01*
X003684Y001623D01*
X003754Y001611D01*
X003824Y001603D01*
X003895Y001599D01*
X003966Y001600D01*
X004037Y001604D01*
X004108Y001612D01*
X004178Y001623D01*
X004247Y001639D01*
X004316Y001659D01*
X004383Y001683D01*
X004448Y001710D01*
X004512Y001741D01*
X004574Y001775D01*
X004635Y001813D01*
X004693Y001854D01*
X004748Y001898D01*
X004801Y001946D01*
X004851Y001996D01*
X004899Y002049D01*
X004943Y002104D01*
X004984Y002162D01*
X005022Y002223D01*
X005056Y002285D01*
X005087Y002349D01*
X005114Y002414D01*
X005138Y002481D01*
X005158Y002550D01*
X005174Y002619D01*
X005185Y002689D01*
X005193Y002760D01*
X005197Y002831D01*
X005198Y002902D01*
X005194Y002973D01*
X005186Y003043D01*
X005174Y003113D01*
X005158Y003183D01*
X005139Y003251D01*
X005115Y003318D01*
X005088Y003384D01*
X005057Y003448D01*
X005023Y003510D01*
X004985Y003570D01*
X004944Y003628D01*
X004900Y003684D01*
X004853Y003737D01*
X004802Y003787D01*
X004750Y003835D01*
X004694Y003879D01*
X004636Y003920D01*
X004576Y003958D01*
X004514Y003993D01*
X004450Y004023D01*
X004384Y004051D01*
X004317Y004074D01*
X004249Y004094D01*
X004180Y004110D01*
X004110Y004122D01*
X004039Y004130D01*
X003968Y004134D01*
X003897Y004135D01*
X003826Y004131D01*
X003756Y004123D01*
X003757Y004114D01*
X003827Y004122D01*
X003897Y004126D01*
X003968Y004125D01*
X004038Y004121D01*
X004109Y004113D01*
X004178Y004101D01*
X004247Y004085D01*
X004315Y004066D01*
X004381Y004042D01*
X004446Y004015D01*
X004510Y003985D01*
X004572Y003950D01*
X004631Y003913D01*
X004689Y003872D01*
X004744Y003828D01*
X004796Y003781D01*
X004846Y003731D01*
X004893Y003678D01*
X004937Y003623D01*
X004978Y003565D01*
X005015Y003505D01*
X005049Y003444D01*
X005080Y003380D01*
X005107Y003315D01*
X005130Y003248D01*
X005149Y003180D01*
X005165Y003111D01*
X005177Y003042D01*
X005185Y002972D01*
X005189Y002901D01*
X005188Y002831D01*
X005184Y002760D01*
X005177Y002690D01*
X005165Y002621D01*
X005149Y002552D01*
X005129Y002484D01*
X005106Y002418D01*
X005079Y002352D01*
X005048Y002289D01*
X005014Y002227D01*
X004977Y002167D01*
X004936Y002110D01*
X004892Y002055D01*
X004845Y002002D01*
X004795Y001952D01*
X004742Y001905D01*
X004687Y001861D01*
X004630Y001820D01*
X004570Y001783D01*
X004508Y001749D01*
X004445Y001718D01*
X004379Y001691D01*
X004313Y001668D01*
X004245Y001648D01*
X004176Y001632D01*
X004107Y001620D01*
X004037Y001613D01*
X003966Y001609D01*
X003896Y001608D01*
X003825Y001612D01*
X003755Y001620D01*
X003686Y001632D01*
X003617Y001648D01*
X003549Y001667D01*
X003482Y001690D01*
X003417Y001717D01*
X003353Y001748D01*
X003292Y001782D01*
X003232Y001819D01*
X003174Y001860D01*
X003119Y001904D01*
X003066Y001951D01*
X003016Y002001D01*
X002969Y002053D01*
X002925Y002108D01*
X002884Y002166D01*
X002847Y002225D01*
X002812Y002287D01*
X002782Y002351D01*
X002755Y002416D01*
X002731Y002482D01*
X002712Y002550D01*
X002696Y002619D01*
X002684Y002688D01*
X002676Y002759D01*
X002672Y002829D01*
X002671Y002900D01*
X002675Y002970D01*
X002683Y003040D01*
X002692Y003039D01*
X002684Y002969D01*
X002680Y002899D01*
X002681Y002829D01*
X002685Y002759D01*
X002693Y002690D01*
X002705Y002621D01*
X002720Y002552D01*
X002740Y002485D01*
X002763Y002419D01*
X002790Y002354D01*
X002820Y002291D01*
X002854Y002230D01*
X002892Y002171D01*
X002932Y002114D01*
X002976Y002059D01*
X003023Y002007D01*
X003073Y001957D01*
X003125Y001911D01*
X003180Y001867D01*
X003237Y001827D01*
X003296Y001790D01*
X003358Y001756D01*
X003421Y001725D01*
X003485Y001699D01*
X003552Y001676D01*
X003619Y001656D01*
X003687Y001641D01*
X003756Y001629D01*
X003826Y001621D01*
X003896Y001617D01*
X003966Y001618D01*
X004036Y001621D01*
X004105Y001629D01*
X004175Y001641D01*
X004243Y001657D01*
X004310Y001676D01*
X004376Y001699D01*
X004441Y001726D01*
X004504Y001757D01*
X004565Y001791D01*
X004625Y001828D01*
X004682Y001868D01*
X004737Y001912D01*
X004789Y001959D01*
X004838Y002008D01*
X004885Y002060D01*
X004929Y002115D01*
X004969Y002172D01*
X005006Y002232D01*
X005040Y002293D01*
X005071Y002356D01*
X005098Y002421D01*
X005121Y002487D01*
X005140Y002554D01*
X005156Y002622D01*
X005168Y002692D01*
X005176Y002761D01*
X005179Y002831D01*
X005180Y002901D01*
X005176Y002971D01*
X005168Y003041D01*
X005156Y003110D01*
X005141Y003178D01*
X005121Y003245D01*
X005098Y003312D01*
X005072Y003376D01*
X005041Y003439D01*
X005007Y003501D01*
X004970Y003560D01*
X004930Y003617D01*
X004886Y003672D01*
X004840Y003724D01*
X004790Y003774D01*
X004738Y003821D01*
X004683Y003865D01*
X004626Y003905D01*
X004567Y003943D01*
X004506Y003977D01*
X004443Y004007D01*
X004378Y004034D01*
X004312Y004057D01*
X004245Y004077D01*
X004176Y004092D01*
X004107Y004104D01*
X004038Y004112D01*
X003968Y004116D01*
X003898Y004117D01*
X003828Y004113D01*
X003758Y004105D01*
X003759Y004096D01*
X003829Y004104D01*
X003898Y004108D01*
X003968Y004107D01*
X004037Y004103D01*
X004106Y004095D01*
X004175Y004084D01*
X004242Y004068D01*
X004309Y004049D01*
X004375Y004026D01*
X004439Y003999D01*
X004502Y003969D01*
X004562Y003935D01*
X004621Y003898D01*
X004678Y003857D01*
X004732Y003814D01*
X004784Y003767D01*
X004833Y003718D01*
X004879Y003666D01*
X004923Y003612D01*
X004963Y003555D01*
X005000Y003496D01*
X005033Y003435D01*
X005063Y003373D01*
X005090Y003308D01*
X005113Y003243D01*
X005132Y003176D01*
X005147Y003108D01*
X005159Y003039D01*
X005167Y002970D01*
X005171Y002901D01*
X005170Y002831D01*
X005167Y002762D01*
X005159Y002693D01*
X005147Y002624D01*
X005132Y002556D01*
X005112Y002490D01*
X005089Y002424D01*
X005063Y002360D01*
X005032Y002297D01*
X004999Y002236D01*
X004962Y002177D01*
X004921Y002121D01*
X004878Y002066D01*
X004832Y002014D01*
X004783Y001965D01*
X004731Y001919D01*
X004676Y001876D01*
X004620Y001835D01*
X004561Y001798D01*
X004500Y001765D01*
X004437Y001734D01*
X004373Y001708D01*
X004307Y001685D01*
X004241Y001665D01*
X004173Y001650D01*
X004104Y001638D01*
X004035Y001630D01*
X003966Y001627D01*
X003896Y001626D01*
X003827Y001630D01*
X003758Y001638D01*
X003689Y001650D01*
X003621Y001665D01*
X003554Y001684D01*
X003489Y001707D01*
X003424Y001734D01*
X003362Y001764D01*
X003301Y001797D01*
X003242Y001834D01*
X003185Y001874D01*
X003131Y001918D01*
X003079Y001964D01*
X003030Y002013D01*
X002983Y002065D01*
X002940Y002119D01*
X002899Y002176D01*
X002862Y002235D01*
X002828Y002295D01*
X002798Y002358D01*
X002771Y002422D01*
X002748Y002488D01*
X002729Y002555D01*
X002713Y002622D01*
X002702Y002691D01*
X002694Y002760D01*
X002690Y002829D01*
X002689Y002899D01*
X002693Y002968D01*
X002701Y003038D01*
X002710Y003036D01*
X002702Y002968D01*
X002698Y002899D01*
X002699Y002830D01*
X002703Y002761D01*
X002710Y002692D01*
X002722Y002624D01*
X002738Y002557D01*
X002757Y002491D01*
X002780Y002425D01*
X002806Y002362D01*
X002836Y002300D01*
X002870Y002239D01*
X002907Y002181D01*
X002947Y002125D01*
X002990Y002071D01*
X003036Y002019D01*
X003085Y001970D01*
X003137Y001925D01*
X003191Y001882D01*
X003247Y001842D01*
X003305Y001805D01*
X003366Y001772D01*
X003428Y001742D01*
X003492Y001716D01*
X003557Y001693D01*
X003623Y001674D01*
X003691Y001658D01*
X003759Y001647D01*
X003827Y001639D01*
X003896Y001635D01*
X003965Y001636D01*
X004034Y001639D01*
X004103Y001647D01*
X004171Y001659D01*
X004238Y001674D01*
X004305Y001693D01*
X004370Y001716D01*
X004434Y001743D01*
X004496Y001773D01*
X004556Y001806D01*
X004615Y001843D01*
X004671Y001883D01*
X004725Y001926D01*
X004776Y001972D01*
X004825Y002021D01*
X004871Y002072D01*
X004914Y002126D01*
X004954Y002182D01*
X004991Y002241D01*
X005024Y002301D01*
X005054Y002363D01*
X005081Y002427D01*
X005104Y002492D01*
X005123Y002559D01*
X005138Y002626D01*
X005150Y002694D01*
X005158Y002763D01*
X005161Y002832D01*
X005162Y002901D01*
X005158Y002970D01*
X005150Y003038D01*
X005139Y003106D01*
X005123Y003174D01*
X005104Y003240D01*
X005081Y003305D01*
X005055Y003369D01*
X005025Y003431D01*
X004992Y003492D01*
X004955Y003550D01*
X004915Y003606D01*
X004872Y003660D01*
X004827Y003712D01*
X004778Y003761D01*
X004726Y003807D01*
X004672Y003850D01*
X004616Y003890D01*
X004558Y003927D01*
X004497Y003961D01*
X004435Y003991D01*
X004372Y004017D01*
X004306Y004040D01*
X004240Y004059D01*
X004173Y004075D01*
X004105Y004087D01*
X004036Y004094D01*
X003967Y004098D01*
X003898Y004099D01*
X003829Y004095D01*
X003761Y004087D01*
X003762Y004078D01*
X003831Y004086D01*
X003900Y004090D01*
X003969Y004089D01*
X004039Y004085D01*
X004107Y004077D01*
X004176Y004065D01*
X004243Y004049D01*
X004310Y004030D01*
X004375Y004006D01*
X004439Y003979D01*
X004501Y003949D01*
X004561Y003914D01*
X004620Y003877D01*
X004676Y003836D01*
X004729Y003793D01*
X004781Y003746D01*
X004829Y003696D01*
X004875Y003644D01*
X004917Y003589D01*
X004956Y003532D01*
X004992Y003473D01*
X005025Y003412D01*
X005054Y003349D01*
X005080Y003284D01*
X005101Y003219D01*
X005119Y003152D01*
X005134Y003084D01*
X005144Y003015D01*
X005150Y002946D01*
X005153Y002877D01*
X005152Y002808D01*
X005146Y002739D01*
X005137Y002670D01*
X005124Y002602D01*
X005107Y002535D01*
X005086Y002468D01*
X005062Y002404D01*
X005034Y002340D01*
X005002Y002279D01*
X004967Y002219D01*
X004929Y002161D01*
X004887Y002106D01*
X004842Y002053D01*
X004795Y002002D01*
X004744Y001955D01*
X004691Y001910D01*
X004636Y001868D01*
X004578Y001830D01*
X004518Y001795D01*
X004457Y001763D01*
X004393Y001735D01*
X004329Y001711D01*
X004262Y001690D01*
X004195Y001673D01*
X004127Y001660D01*
X004058Y001651D01*
X003989Y001645D01*
X003920Y001644D01*
X003851Y001647D01*
X003782Y001653D01*
X003713Y001663D01*
X003645Y001678D01*
X003578Y001696D01*
X003513Y001717D01*
X003448Y001743D01*
X003385Y001772D01*
X003324Y001805D01*
X003265Y001841D01*
X003208Y001880D01*
X003153Y001922D01*
X003101Y001968D01*
X003051Y002016D01*
X003004Y002068D01*
X002961Y002121D01*
X002920Y002177D01*
X002883Y002236D01*
X002848Y002296D01*
X002818Y002358D01*
X002791Y002422D01*
X002767Y002487D01*
X002748Y002554D01*
X002732Y002621D01*
X002720Y002690D01*
X002712Y002758D01*
X002708Y002828D01*
X002707Y002897D01*
X002711Y002966D01*
X002719Y003035D01*
X002728Y003034D01*
X002720Y002965D01*
X002716Y002897D01*
X002717Y002828D01*
X002721Y002759D01*
X002729Y002691D01*
X002741Y002623D01*
X002756Y002556D01*
X002776Y002490D01*
X002799Y002425D01*
X002826Y002362D01*
X002856Y002300D01*
X002890Y002240D01*
X002927Y002182D01*
X002968Y002127D01*
X003011Y002073D01*
X003058Y002023D01*
X003107Y001975D01*
X003159Y001929D01*
X003213Y001887D01*
X003270Y001848D01*
X003329Y001812D01*
X003389Y001780D01*
X003452Y001751D01*
X003516Y001726D01*
X003581Y001704D01*
X003647Y001686D01*
X003715Y001672D01*
X003783Y001662D01*
X003851Y001656D01*
X003920Y001653D01*
X003989Y001654D01*
X004058Y001660D01*
X004126Y001669D01*
X004193Y001682D01*
X004260Y001699D01*
X004326Y001719D01*
X004390Y001744D01*
X004453Y001771D01*
X004514Y001803D01*
X004573Y001838D01*
X004631Y001876D01*
X004686Y001917D01*
X004738Y001961D01*
X004788Y002009D01*
X004836Y002059D01*
X004880Y002111D01*
X004921Y002166D01*
X004959Y002224D01*
X004994Y002283D01*
X005026Y002344D01*
X005053Y002407D01*
X005078Y002471D01*
X005098Y002537D01*
X005115Y002604D01*
X005128Y002671D01*
X005137Y002739D01*
X005143Y002808D01*
X005144Y002877D01*
X005141Y002946D01*
X005135Y003014D01*
X005125Y003082D01*
X005111Y003150D01*
X005093Y003216D01*
X005071Y003281D01*
X005046Y003345D01*
X005017Y003408D01*
X004985Y003468D01*
X004949Y003527D01*
X004910Y003584D01*
X004868Y003638D01*
X004822Y003690D01*
X004774Y003739D01*
X004724Y003786D01*
X004670Y003829D01*
X004615Y003870D01*
X004557Y003907D01*
X004497Y003941D01*
X004435Y003971D01*
X004372Y003998D01*
X004307Y004021D01*
X004241Y004041D01*
X004174Y004056D01*
X004106Y004068D01*
X004038Y004076D01*
X003969Y004080D01*
X003900Y004081D01*
X003832Y004077D01*
X003763Y004069D01*
X011824Y004149D02*
X011811Y004060D01*
X011811Y004061D02*
X011744Y004068D01*
X011675Y004072D01*
X011607Y004071D01*
X011539Y004067D01*
X011471Y004059D01*
X011404Y004047D01*
X011337Y004032D01*
X011272Y004012D01*
X011208Y003989D01*
X011145Y003963D01*
X011083Y003933D01*
X011024Y003899D01*
X010967Y003862D01*
X010911Y003822D01*
X010858Y003779D01*
X010808Y003733D01*
X010760Y003684D01*
X010715Y003632D01*
X010673Y003578D01*
X010635Y003522D01*
X010599Y003464D01*
X010567Y003404D01*
X010538Y003342D01*
X010513Y003278D01*
X010492Y003213D01*
X010474Y003147D01*
X010460Y003081D01*
X010450Y003013D01*
X010444Y002945D01*
X010441Y002877D01*
X010442Y002809D01*
X010448Y002740D01*
X010457Y002673D01*
X010470Y002606D01*
X010486Y002539D01*
X010507Y002474D01*
X010531Y002410D01*
X010559Y002348D01*
X010590Y002287D01*
X010624Y002228D01*
X010662Y002171D01*
X010703Y002117D01*
X010747Y002065D01*
X010794Y002015D01*
X010844Y001968D01*
X010896Y001924D01*
X010950Y001883D01*
X011007Y001845D01*
X011066Y001811D01*
X011127Y001780D01*
X011189Y001752D01*
X011253Y001728D01*
X011318Y001707D01*
X011385Y001691D01*
X011452Y001678D01*
X011519Y001669D01*
X011588Y001663D01*
X011656Y001662D01*
X011724Y001665D01*
X011792Y001671D01*
X011860Y001681D01*
X011926Y001695D01*
X011992Y001713D01*
X012057Y001734D01*
X012121Y001759D01*
X012183Y001788D01*
X012243Y001820D01*
X012301Y001856D01*
X012357Y001894D01*
X012411Y001936D01*
X012463Y001981D01*
X012512Y002029D01*
X012558Y002079D01*
X012601Y002132D01*
X012641Y002188D01*
X012678Y002245D01*
X012712Y002304D01*
X012742Y002366D01*
X012768Y002429D01*
X012791Y002493D01*
X012811Y002558D01*
X012826Y002625D01*
X012838Y002692D01*
X012846Y002760D01*
X012850Y002828D01*
X012851Y002896D01*
X012847Y002965D01*
X012840Y003032D01*
X012928Y003045D01*
X012929Y003045D01*
X012937Y002975D01*
X012940Y002904D01*
X012941Y002833D01*
X012937Y002762D01*
X012929Y002691D01*
X012917Y002621D01*
X012902Y002552D01*
X012883Y002484D01*
X012860Y002416D01*
X012834Y002351D01*
X012804Y002286D01*
X012770Y002224D01*
X012733Y002163D01*
X012693Y002105D01*
X012649Y002048D01*
X012603Y001995D01*
X012554Y001944D01*
X012502Y001895D01*
X012447Y001850D01*
X012390Y001807D01*
X012331Y001768D01*
X012270Y001732D01*
X012207Y001700D01*
X012142Y001671D01*
X012076Y001645D01*
X012008Y001624D01*
X011940Y001606D01*
X011870Y001592D01*
X011800Y001581D01*
X011729Y001575D01*
X011658Y001572D01*
X011587Y001573D01*
X011516Y001578D01*
X011446Y001588D01*
X011376Y001600D01*
X011307Y001617D01*
X011239Y001638D01*
X011173Y001662D01*
X011107Y001689D01*
X011044Y001721D01*
X010982Y001755D01*
X010922Y001793D01*
X010864Y001835D01*
X010809Y001879D01*
X010756Y001927D01*
X010706Y001977D01*
X010658Y002030D01*
X010614Y002085D01*
X010572Y002143D01*
X010534Y002203D01*
X010500Y002265D01*
X010468Y002328D01*
X010441Y002394D01*
X010417Y002460D01*
X010396Y002528D01*
X010379Y002597D01*
X010367Y002667D01*
X010357Y002737D01*
X010352Y002808D01*
X010351Y002879D01*
X010354Y002950D01*
X010360Y003021D01*
X010371Y003091D01*
X010385Y003161D01*
X010403Y003229D01*
X010424Y003297D01*
X010450Y003363D01*
X010479Y003428D01*
X010511Y003491D01*
X010547Y003552D01*
X010586Y003611D01*
X010629Y003668D01*
X010674Y003723D01*
X010723Y003775D01*
X010774Y003824D01*
X010827Y003870D01*
X010884Y003914D01*
X010942Y003954D01*
X011003Y003991D01*
X011065Y004025D01*
X011130Y004055D01*
X011195Y004081D01*
X011263Y004104D01*
X011331Y004123D01*
X011400Y004138D01*
X011470Y004150D01*
X011541Y004158D01*
X011612Y004162D01*
X011683Y004161D01*
X011754Y004158D01*
X011824Y004150D01*
X011823Y004141D01*
X011752Y004149D01*
X011681Y004153D01*
X011610Y004152D01*
X011538Y004148D01*
X011468Y004141D01*
X011397Y004129D01*
X011328Y004113D01*
X011259Y004093D01*
X011192Y004070D01*
X011126Y004043D01*
X011062Y004013D01*
X010999Y003978D01*
X010939Y003941D01*
X010880Y003900D01*
X010824Y003856D01*
X010771Y003809D01*
X010720Y003759D01*
X010672Y003706D01*
X010627Y003651D01*
X010585Y003593D01*
X010546Y003534D01*
X010511Y003472D01*
X010479Y003408D01*
X010451Y003342D01*
X010427Y003275D01*
X010406Y003207D01*
X010389Y003138D01*
X010376Y003068D01*
X010367Y002997D01*
X010361Y002926D01*
X010360Y002855D01*
X010363Y002784D01*
X010369Y002713D01*
X010380Y002642D01*
X010394Y002572D01*
X010412Y002504D01*
X010434Y002436D01*
X010460Y002369D01*
X010490Y002304D01*
X010523Y002241D01*
X010559Y002180D01*
X010599Y002121D01*
X010642Y002064D01*
X010688Y002009D01*
X010737Y001958D01*
X010788Y001909D01*
X010843Y001863D01*
X010900Y001820D01*
X010959Y001780D01*
X011020Y001744D01*
X011083Y001711D01*
X011148Y001681D01*
X011215Y001655D01*
X011283Y001633D01*
X011351Y001615D01*
X011421Y001601D01*
X011492Y001590D01*
X011563Y001584D01*
X011634Y001581D01*
X011705Y001582D01*
X011776Y001588D01*
X011847Y001597D01*
X011917Y001610D01*
X011986Y001627D01*
X012054Y001648D01*
X012121Y001672D01*
X012187Y001700D01*
X012251Y001732D01*
X012313Y001767D01*
X012372Y001806D01*
X012430Y001848D01*
X012485Y001893D01*
X012538Y001941D01*
X012588Y001992D01*
X012635Y002045D01*
X012679Y002101D01*
X012720Y002160D01*
X012757Y002220D01*
X012792Y002283D01*
X012822Y002347D01*
X012849Y002413D01*
X012872Y002480D01*
X012892Y002549D01*
X012908Y002618D01*
X012920Y002689D01*
X012927Y002759D01*
X012931Y002831D01*
X012932Y002902D01*
X012928Y002973D01*
X012920Y003044D01*
X012911Y003043D01*
X012919Y002972D01*
X012923Y002902D01*
X012922Y002831D01*
X012919Y002760D01*
X012911Y002690D01*
X012899Y002620D01*
X012883Y002551D01*
X012864Y002483D01*
X012841Y002416D01*
X012814Y002351D01*
X012784Y002287D01*
X012750Y002225D01*
X012712Y002164D01*
X012672Y002106D01*
X012628Y002051D01*
X012581Y001998D01*
X012532Y001947D01*
X012479Y001899D01*
X012425Y001855D01*
X012367Y001813D01*
X012308Y001775D01*
X012246Y001740D01*
X012183Y001708D01*
X012118Y001680D01*
X012051Y001656D01*
X011984Y001635D01*
X011915Y001619D01*
X011845Y001606D01*
X011775Y001597D01*
X011705Y001591D01*
X011634Y001590D01*
X011563Y001593D01*
X011493Y001599D01*
X011423Y001610D01*
X011353Y001624D01*
X011285Y001642D01*
X011218Y001664D01*
X011152Y001690D01*
X011087Y001719D01*
X011025Y001751D01*
X010964Y001788D01*
X010905Y001827D01*
X010848Y001870D01*
X010794Y001915D01*
X010743Y001964D01*
X010694Y002015D01*
X010649Y002069D01*
X010606Y002126D01*
X010567Y002185D01*
X010530Y002246D01*
X010498Y002308D01*
X010469Y002373D01*
X010443Y002439D01*
X010421Y002506D01*
X010403Y002574D01*
X010389Y002644D01*
X010378Y002714D01*
X010372Y002784D01*
X010369Y002855D01*
X010370Y002926D01*
X010376Y002996D01*
X010385Y003066D01*
X010398Y003136D01*
X010414Y003205D01*
X010435Y003272D01*
X010459Y003339D01*
X010487Y003404D01*
X010519Y003467D01*
X010554Y003529D01*
X010592Y003588D01*
X010634Y003646D01*
X010678Y003700D01*
X010726Y003753D01*
X010777Y003802D01*
X010830Y003849D01*
X010885Y003893D01*
X010943Y003933D01*
X011004Y003971D01*
X011066Y004005D01*
X011130Y004035D01*
X011195Y004062D01*
X011262Y004085D01*
X011330Y004104D01*
X011399Y004120D01*
X011469Y004132D01*
X011539Y004140D01*
X011610Y004143D01*
X011681Y004144D01*
X011751Y004140D01*
X011822Y004132D01*
X011820Y004123D01*
X011750Y004131D01*
X011679Y004135D01*
X011608Y004134D01*
X011537Y004130D01*
X011466Y004122D01*
X011396Y004110D01*
X011327Y004094D01*
X011259Y004074D01*
X011192Y004051D01*
X011126Y004023D01*
X011062Y003993D01*
X011000Y003958D01*
X010940Y003920D01*
X010882Y003879D01*
X010826Y003835D01*
X010774Y003787D01*
X010723Y003737D01*
X010676Y003684D01*
X010632Y003628D01*
X010591Y003570D01*
X010553Y003510D01*
X010519Y003448D01*
X010488Y003384D01*
X010461Y003318D01*
X010437Y003251D01*
X010418Y003183D01*
X010402Y003113D01*
X010390Y003043D01*
X010382Y002973D01*
X010378Y002902D01*
X010379Y002831D01*
X010383Y002760D01*
X010391Y002689D01*
X010402Y002619D01*
X010418Y002550D01*
X010438Y002481D01*
X010462Y002414D01*
X010489Y002349D01*
X010520Y002285D01*
X010554Y002223D01*
X010592Y002162D01*
X010633Y002104D01*
X010677Y002049D01*
X010725Y001996D01*
X010775Y001946D01*
X010828Y001898D01*
X010883Y001854D01*
X010941Y001813D01*
X011002Y001775D01*
X011064Y001741D01*
X011128Y001710D01*
X011193Y001683D01*
X011260Y001659D01*
X011329Y001639D01*
X011398Y001623D01*
X011468Y001612D01*
X011539Y001604D01*
X011610Y001600D01*
X011681Y001599D01*
X011752Y001603D01*
X011822Y001611D01*
X011892Y001623D01*
X011962Y001639D01*
X012030Y001658D01*
X012097Y001682D01*
X012163Y001709D01*
X012227Y001740D01*
X012289Y001774D01*
X012349Y001812D01*
X012407Y001853D01*
X012463Y001897D01*
X012516Y001944D01*
X012566Y001995D01*
X012614Y002047D01*
X012658Y002103D01*
X012699Y002161D01*
X012737Y002221D01*
X012772Y002283D01*
X012802Y002347D01*
X012830Y002413D01*
X012853Y002480D01*
X012873Y002548D01*
X012889Y002617D01*
X012901Y002687D01*
X012909Y002758D01*
X012913Y002829D01*
X012914Y002900D01*
X012910Y002971D01*
X012902Y003041D01*
X012893Y003040D01*
X012901Y002970D01*
X012905Y002900D01*
X012904Y002829D01*
X012900Y002759D01*
X012892Y002688D01*
X012880Y002619D01*
X012864Y002550D01*
X012845Y002482D01*
X012821Y002416D01*
X012794Y002351D01*
X012764Y002287D01*
X012729Y002225D01*
X012692Y002166D01*
X012651Y002108D01*
X012607Y002053D01*
X012560Y002001D01*
X012510Y001951D01*
X012457Y001904D01*
X012402Y001860D01*
X012344Y001819D01*
X012284Y001782D01*
X012223Y001748D01*
X012159Y001717D01*
X012094Y001690D01*
X012027Y001667D01*
X011959Y001648D01*
X011890Y001632D01*
X011821Y001620D01*
X011751Y001612D01*
X011680Y001608D01*
X011610Y001609D01*
X011539Y001613D01*
X011469Y001620D01*
X011400Y001632D01*
X011331Y001648D01*
X011263Y001668D01*
X011197Y001691D01*
X011131Y001718D01*
X011068Y001749D01*
X011006Y001783D01*
X010946Y001820D01*
X010889Y001861D01*
X010834Y001905D01*
X010781Y001952D01*
X010731Y002002D01*
X010684Y002055D01*
X010640Y002110D01*
X010599Y002167D01*
X010562Y002227D01*
X010528Y002289D01*
X010497Y002352D01*
X010470Y002418D01*
X010447Y002484D01*
X010427Y002552D01*
X010411Y002621D01*
X010399Y002690D01*
X010392Y002760D01*
X010388Y002831D01*
X010387Y002901D01*
X010391Y002972D01*
X010399Y003042D01*
X010411Y003111D01*
X010427Y003180D01*
X010446Y003248D01*
X010469Y003315D01*
X010496Y003380D01*
X010527Y003444D01*
X010561Y003505D01*
X010598Y003565D01*
X010639Y003623D01*
X010683Y003678D01*
X010730Y003731D01*
X010780Y003781D01*
X010832Y003828D01*
X010887Y003872D01*
X010945Y003913D01*
X011004Y003950D01*
X011066Y003985D01*
X011130Y004015D01*
X011195Y004042D01*
X011261Y004066D01*
X011329Y004085D01*
X011398Y004101D01*
X011467Y004113D01*
X011538Y004121D01*
X011608Y004125D01*
X011679Y004126D01*
X011749Y004122D01*
X011819Y004114D01*
X011818Y004105D01*
X011748Y004113D01*
X011678Y004117D01*
X011608Y004116D01*
X011538Y004112D01*
X011469Y004104D01*
X011400Y004092D01*
X011331Y004077D01*
X011264Y004057D01*
X011198Y004034D01*
X011133Y004007D01*
X011070Y003977D01*
X011009Y003943D01*
X010950Y003905D01*
X010893Y003865D01*
X010838Y003821D01*
X010786Y003774D01*
X010736Y003724D01*
X010690Y003672D01*
X010646Y003617D01*
X010606Y003560D01*
X010569Y003501D01*
X010535Y003439D01*
X010504Y003376D01*
X010478Y003312D01*
X010455Y003245D01*
X010435Y003178D01*
X010420Y003110D01*
X010408Y003041D01*
X010400Y002971D01*
X010396Y002901D01*
X010397Y002831D01*
X010400Y002761D01*
X010408Y002692D01*
X010420Y002622D01*
X010436Y002554D01*
X010455Y002487D01*
X010478Y002421D01*
X010505Y002356D01*
X010536Y002293D01*
X010570Y002232D01*
X010607Y002172D01*
X010647Y002115D01*
X010691Y002060D01*
X010738Y002008D01*
X010787Y001959D01*
X010839Y001912D01*
X010894Y001868D01*
X010951Y001828D01*
X011011Y001791D01*
X011072Y001757D01*
X011135Y001726D01*
X011200Y001699D01*
X011266Y001676D01*
X011333Y001657D01*
X011401Y001641D01*
X011471Y001629D01*
X011540Y001621D01*
X011610Y001618D01*
X011680Y001617D01*
X011750Y001621D01*
X011820Y001629D01*
X011889Y001641D01*
X011957Y001656D01*
X012024Y001676D01*
X012091Y001699D01*
X012155Y001725D01*
X012218Y001756D01*
X012280Y001790D01*
X012339Y001827D01*
X012396Y001867D01*
X012451Y001911D01*
X012503Y001957D01*
X012553Y002007D01*
X012600Y002059D01*
X012644Y002114D01*
X012684Y002171D01*
X012722Y002230D01*
X012756Y002291D01*
X012786Y002354D01*
X012813Y002419D01*
X012836Y002485D01*
X012856Y002552D01*
X012871Y002621D01*
X012883Y002690D01*
X012891Y002759D01*
X012895Y002829D01*
X012896Y002899D01*
X012892Y002969D01*
X012884Y003039D01*
X012875Y003038D01*
X012883Y002968D01*
X012887Y002899D01*
X012886Y002829D01*
X012882Y002760D01*
X012874Y002691D01*
X012863Y002622D01*
X012847Y002555D01*
X012828Y002488D01*
X012805Y002422D01*
X012778Y002358D01*
X012748Y002295D01*
X012714Y002235D01*
X012677Y002176D01*
X012636Y002119D01*
X012593Y002065D01*
X012546Y002013D01*
X012497Y001964D01*
X012445Y001918D01*
X012391Y001874D01*
X012334Y001834D01*
X012275Y001797D01*
X012214Y001764D01*
X012152Y001734D01*
X012087Y001707D01*
X012022Y001684D01*
X011955Y001665D01*
X011887Y001650D01*
X011818Y001638D01*
X011749Y001630D01*
X011680Y001626D01*
X011610Y001627D01*
X011541Y001630D01*
X011472Y001638D01*
X011403Y001650D01*
X011335Y001665D01*
X011269Y001685D01*
X011203Y001708D01*
X011139Y001734D01*
X011076Y001765D01*
X011015Y001798D01*
X010956Y001835D01*
X010900Y001876D01*
X010845Y001919D01*
X010793Y001965D01*
X010744Y002014D01*
X010698Y002066D01*
X010655Y002121D01*
X010614Y002177D01*
X010577Y002236D01*
X010544Y002297D01*
X010513Y002360D01*
X010487Y002424D01*
X010464Y002490D01*
X010444Y002556D01*
X010429Y002624D01*
X010417Y002693D01*
X010409Y002762D01*
X010406Y002831D01*
X010405Y002901D01*
X010409Y002970D01*
X010417Y003039D01*
X010429Y003108D01*
X010444Y003176D01*
X010463Y003243D01*
X010486Y003308D01*
X010513Y003373D01*
X010543Y003435D01*
X010576Y003496D01*
X010613Y003555D01*
X010653Y003612D01*
X010697Y003666D01*
X010743Y003718D01*
X010792Y003767D01*
X010844Y003814D01*
X010898Y003857D01*
X010955Y003898D01*
X011014Y003935D01*
X011074Y003969D01*
X011137Y003999D01*
X011201Y004026D01*
X011267Y004049D01*
X011334Y004068D01*
X011401Y004084D01*
X011470Y004095D01*
X011539Y004103D01*
X011608Y004107D01*
X011678Y004108D01*
X011747Y004104D01*
X011817Y004096D01*
X011815Y004087D01*
X011747Y004095D01*
X011678Y004099D01*
X011609Y004098D01*
X011540Y004094D01*
X011471Y004087D01*
X011403Y004075D01*
X011336Y004059D01*
X011270Y004040D01*
X011204Y004017D01*
X011141Y003991D01*
X011079Y003961D01*
X011018Y003927D01*
X010960Y003890D01*
X010904Y003850D01*
X010850Y003807D01*
X010798Y003761D01*
X010749Y003712D01*
X010704Y003660D01*
X010661Y003606D01*
X010621Y003550D01*
X010584Y003492D01*
X010551Y003431D01*
X010521Y003369D01*
X010495Y003305D01*
X010472Y003240D01*
X010453Y003174D01*
X010437Y003106D01*
X010426Y003038D01*
X010418Y002970D01*
X010414Y002901D01*
X010415Y002832D01*
X010418Y002763D01*
X010426Y002694D01*
X010438Y002626D01*
X010453Y002559D01*
X010472Y002492D01*
X010495Y002427D01*
X010522Y002363D01*
X010552Y002301D01*
X010585Y002241D01*
X010622Y002182D01*
X010662Y002126D01*
X010705Y002072D01*
X010751Y002021D01*
X010800Y001972D01*
X010851Y001926D01*
X010905Y001883D01*
X010961Y001843D01*
X011020Y001806D01*
X011080Y001773D01*
X011142Y001743D01*
X011206Y001716D01*
X011271Y001693D01*
X011338Y001674D01*
X011405Y001659D01*
X011473Y001647D01*
X011542Y001639D01*
X011611Y001636D01*
X011680Y001635D01*
X011749Y001639D01*
X011817Y001647D01*
X011885Y001658D01*
X011953Y001674D01*
X012019Y001693D01*
X012084Y001716D01*
X012148Y001742D01*
X012210Y001772D01*
X012271Y001805D01*
X012329Y001842D01*
X012385Y001882D01*
X012439Y001925D01*
X012491Y001970D01*
X012540Y002019D01*
X012586Y002071D01*
X012629Y002125D01*
X012669Y002181D01*
X012706Y002239D01*
X012740Y002300D01*
X012770Y002362D01*
X012796Y002425D01*
X012819Y002491D01*
X012838Y002557D01*
X012854Y002624D01*
X012866Y002692D01*
X012873Y002761D01*
X012877Y002830D01*
X012878Y002899D01*
X012874Y002968D01*
X012866Y003036D01*
X012857Y003035D01*
X012865Y002966D01*
X012869Y002897D01*
X012868Y002828D01*
X012864Y002758D01*
X012856Y002690D01*
X012844Y002621D01*
X012828Y002554D01*
X012809Y002487D01*
X012785Y002422D01*
X012758Y002358D01*
X012728Y002296D01*
X012693Y002236D01*
X012656Y002177D01*
X012615Y002121D01*
X012572Y002068D01*
X012525Y002016D01*
X012475Y001968D01*
X012423Y001922D01*
X012368Y001880D01*
X012311Y001841D01*
X012252Y001805D01*
X012191Y001772D01*
X012128Y001743D01*
X012063Y001717D01*
X011998Y001696D01*
X011931Y001678D01*
X011863Y001663D01*
X011794Y001653D01*
X011725Y001647D01*
X011656Y001644D01*
X011587Y001645D01*
X011518Y001651D01*
X011449Y001660D01*
X011381Y001673D01*
X011314Y001690D01*
X011247Y001711D01*
X011183Y001735D01*
X011119Y001763D01*
X011058Y001795D01*
X010998Y001830D01*
X010940Y001868D01*
X010885Y001910D01*
X010832Y001955D01*
X010781Y002002D01*
X010734Y002053D01*
X010689Y002106D01*
X010647Y002161D01*
X010609Y002219D01*
X010574Y002279D01*
X010542Y002340D01*
X010514Y002404D01*
X010490Y002468D01*
X010469Y002535D01*
X010452Y002602D01*
X010439Y002670D01*
X010430Y002739D01*
X010424Y002808D01*
X010423Y002877D01*
X010426Y002946D01*
X010432Y003015D01*
X010442Y003084D01*
X010457Y003152D01*
X010475Y003219D01*
X010496Y003284D01*
X010522Y003349D01*
X010551Y003412D01*
X010584Y003473D01*
X010620Y003532D01*
X010659Y003589D01*
X010701Y003644D01*
X010747Y003696D01*
X010795Y003746D01*
X010847Y003793D01*
X010900Y003836D01*
X010956Y003877D01*
X011015Y003914D01*
X011075Y003949D01*
X011137Y003979D01*
X011201Y004006D01*
X011266Y004030D01*
X011333Y004049D01*
X011400Y004065D01*
X011469Y004077D01*
X011537Y004085D01*
X011607Y004089D01*
X011676Y004090D01*
X011745Y004086D01*
X011814Y004078D01*
X011813Y004069D01*
X011744Y004077D01*
X011676Y004081D01*
X011607Y004080D01*
X011538Y004076D01*
X011470Y004068D01*
X011402Y004056D01*
X011335Y004041D01*
X011269Y004021D01*
X011204Y003998D01*
X011141Y003971D01*
X011079Y003941D01*
X011019Y003907D01*
X010961Y003870D01*
X010906Y003829D01*
X010852Y003786D01*
X010802Y003739D01*
X010754Y003690D01*
X010708Y003638D01*
X010666Y003584D01*
X010627Y003527D01*
X010591Y003468D01*
X010559Y003408D01*
X010530Y003345D01*
X010505Y003281D01*
X010483Y003216D01*
X010465Y003150D01*
X010451Y003082D01*
X010441Y003014D01*
X010435Y002946D01*
X010432Y002877D01*
X010433Y002808D01*
X010439Y002739D01*
X010448Y002671D01*
X010461Y002604D01*
X010478Y002537D01*
X010498Y002471D01*
X010523Y002407D01*
X010550Y002344D01*
X010582Y002283D01*
X010617Y002224D01*
X010655Y002166D01*
X010696Y002111D01*
X010740Y002059D01*
X010788Y002009D01*
X010838Y001961D01*
X010890Y001917D01*
X010945Y001876D01*
X011003Y001838D01*
X011062Y001803D01*
X011123Y001771D01*
X011186Y001744D01*
X011250Y001719D01*
X011316Y001699D01*
X011383Y001682D01*
X011450Y001669D01*
X011518Y001660D01*
X011587Y001654D01*
X011656Y001653D01*
X011725Y001656D01*
X011793Y001662D01*
X011861Y001672D01*
X011929Y001686D01*
X011995Y001704D01*
X012060Y001726D01*
X012124Y001751D01*
X012187Y001780D01*
X012247Y001812D01*
X012306Y001848D01*
X012363Y001887D01*
X012417Y001929D01*
X012469Y001975D01*
X012518Y002023D01*
X012565Y002073D01*
X012608Y002127D01*
X012649Y002182D01*
X012686Y002240D01*
X012720Y002300D01*
X012750Y002362D01*
X012777Y002425D01*
X012800Y002490D01*
X012820Y002556D01*
X012835Y002623D01*
X012847Y002691D01*
X012855Y002759D01*
X012859Y002828D01*
X012860Y002897D01*
X012856Y002965D01*
X012848Y003034D01*
X012940Y010630D02*
X012850Y010627D01*
X012846Y010695D01*
X012837Y010763D01*
X012825Y010830D01*
X012809Y010897D01*
X012790Y010962D01*
X012766Y011026D01*
X012740Y011089D01*
X012709Y011150D01*
X012675Y011210D01*
X012638Y011267D01*
X012598Y011322D01*
X012554Y011375D01*
X012508Y011425D01*
X012459Y011472D01*
X012407Y011517D01*
X012353Y011559D01*
X012297Y011597D01*
X012238Y011632D01*
X012178Y011664D01*
X012116Y011693D01*
X012052Y011718D01*
X011987Y011739D01*
X011921Y011756D01*
X011854Y011770D01*
X011787Y011780D01*
X011719Y011786D01*
X011650Y011788D01*
X011582Y011786D01*
X011514Y011781D01*
X011446Y011771D01*
X011379Y011758D01*
X011313Y011741D01*
X011248Y011720D01*
X011184Y011696D01*
X011122Y011668D01*
X011061Y011637D01*
X011003Y011602D01*
X010946Y011564D01*
X010892Y011523D01*
X010840Y011478D01*
X010790Y011431D01*
X010743Y011381D01*
X010700Y011329D01*
X010659Y011274D01*
X010621Y011217D01*
X010587Y011158D01*
X010556Y011097D01*
X010529Y011035D01*
X010505Y010971D01*
X010485Y010905D01*
X010469Y010839D01*
X010456Y010772D01*
X010447Y010704D01*
X010442Y010636D01*
X010441Y010568D01*
X010444Y010500D01*
X010451Y010432D01*
X010461Y010364D01*
X010475Y010297D01*
X010493Y010231D01*
X010515Y010167D01*
X010541Y010103D01*
X010570Y010042D01*
X010602Y009981D01*
X010638Y009923D01*
X010677Y009867D01*
X010719Y009813D01*
X010764Y009762D01*
X010812Y009713D01*
X010862Y009668D01*
X010916Y009625D01*
X010971Y009585D01*
X011029Y009548D01*
X011088Y009515D01*
X011150Y009485D01*
X011213Y009459D01*
X011277Y009436D01*
X011343Y009417D01*
X011409Y009402D01*
X011476Y009390D01*
X011544Y009382D01*
X011613Y009378D01*
X011681Y009379D01*
X011749Y009382D01*
X011817Y009390D01*
X011884Y009402D01*
X011951Y009417D01*
X012016Y009436D01*
X012044Y009351D01*
X011976Y009331D01*
X011907Y009315D01*
X011837Y009302D01*
X011767Y009294D01*
X011696Y009289D01*
X011625Y009288D01*
X011554Y009291D01*
X011483Y009298D01*
X011413Y009309D01*
X011344Y009324D01*
X011275Y009342D01*
X011208Y009364D01*
X011142Y009390D01*
X011077Y009420D01*
X011014Y009453D01*
X010953Y009489D01*
X010894Y009529D01*
X010838Y009571D01*
X010783Y009617D01*
X010732Y009666D01*
X010683Y009717D01*
X010637Y009771D01*
X010594Y009828D01*
X010554Y009887D01*
X010518Y009948D01*
X010485Y010010D01*
X010455Y010075D01*
X010429Y010141D01*
X010406Y010208D01*
X010388Y010277D01*
X010373Y010346D01*
X010362Y010416D01*
X010355Y010487D01*
X010351Y010558D01*
X010352Y010629D01*
X010356Y010700D01*
X010365Y010770D01*
X010377Y010840D01*
X010393Y010909D01*
X010412Y010977D01*
X010436Y011044D01*
X010463Y011110D01*
X010494Y011174D01*
X010528Y011236D01*
X010565Y011296D01*
X010606Y011355D01*
X010650Y011410D01*
X010697Y011464D01*
X010746Y011514D01*
X010799Y011562D01*
X010854Y011607D01*
X010911Y011649D01*
X010970Y011688D01*
X011032Y011723D01*
X011095Y011755D01*
X011160Y011784D01*
X011227Y011808D01*
X011295Y011829D01*
X011364Y011847D01*
X011433Y011860D01*
X011504Y011870D01*
X011574Y011876D01*
X011645Y011878D01*
X011716Y011876D01*
X011787Y011870D01*
X011857Y011861D01*
X011927Y011847D01*
X011996Y011830D01*
X012064Y011809D01*
X012130Y011784D01*
X012195Y011756D01*
X012259Y011724D01*
X012320Y011689D01*
X012380Y011650D01*
X012437Y011608D01*
X012492Y011563D01*
X012545Y011516D01*
X012594Y011465D01*
X012641Y011412D01*
X012685Y011356D01*
X012726Y011298D01*
X012763Y011238D01*
X012798Y011175D01*
X012828Y011111D01*
X012856Y011046D01*
X012879Y010979D01*
X012899Y010911D01*
X012915Y010841D01*
X012927Y010772D01*
X012936Y010701D01*
X012940Y010630D01*
X012931Y010630D01*
X012927Y010701D01*
X012918Y010772D01*
X012906Y010842D01*
X012889Y010911D01*
X012869Y010980D01*
X012845Y011047D01*
X012818Y011113D01*
X012787Y011177D01*
X012752Y011239D01*
X012714Y011299D01*
X012673Y011357D01*
X012628Y011413D01*
X012581Y011466D01*
X012530Y011517D01*
X012477Y011564D01*
X012422Y011609D01*
X012364Y011650D01*
X012303Y011688D01*
X012241Y011723D01*
X012177Y011754D01*
X012111Y011782D01*
X012044Y011806D01*
X011976Y011826D01*
X011907Y011842D01*
X011836Y011855D01*
X011766Y011863D01*
X011695Y011868D01*
X011623Y011869D01*
X011552Y011866D01*
X011481Y011858D01*
X011411Y011847D01*
X011341Y011832D01*
X011272Y011814D01*
X011205Y011791D01*
X011139Y011765D01*
X011074Y011735D01*
X011011Y011701D01*
X010950Y011664D01*
X010891Y011624D01*
X010835Y011581D01*
X010781Y011534D01*
X010729Y011485D01*
X010681Y011433D01*
X010635Y011378D01*
X010593Y011321D01*
X010553Y011261D01*
X010517Y011200D01*
X010485Y011136D01*
X010456Y011071D01*
X010431Y011004D01*
X010409Y010936D01*
X010392Y010867D01*
X010378Y010797D01*
X010368Y010727D01*
X010362Y010656D01*
X010360Y010585D01*
X010362Y010513D01*
X010368Y010442D01*
X010377Y010372D01*
X010391Y010302D01*
X010409Y010233D01*
X010430Y010165D01*
X010455Y010098D01*
X010484Y010033D01*
X010516Y009969D01*
X010552Y009907D01*
X010591Y009848D01*
X010633Y009791D01*
X010679Y009736D01*
X010727Y009683D01*
X010778Y009634D01*
X010832Y009587D01*
X010889Y009544D01*
X010947Y009503D01*
X011008Y009466D01*
X011071Y009433D01*
X011136Y009403D01*
X011202Y009376D01*
X011269Y009353D01*
X011338Y009334D01*
X011408Y009319D01*
X011478Y009308D01*
X011549Y009301D01*
X011620Y009297D01*
X011692Y009298D01*
X011763Y009302D01*
X011833Y009311D01*
X011904Y009323D01*
X011973Y009339D01*
X012041Y009359D01*
X012039Y009368D01*
X011971Y009348D01*
X011902Y009332D01*
X011832Y009320D01*
X011762Y009311D01*
X011691Y009307D01*
X011620Y009306D01*
X011550Y009310D01*
X011479Y009317D01*
X011409Y009328D01*
X011340Y009343D01*
X011272Y009362D01*
X011205Y009385D01*
X011139Y009411D01*
X011075Y009441D01*
X011013Y009474D01*
X010952Y009511D01*
X010894Y009551D01*
X010838Y009594D01*
X010784Y009640D01*
X010733Y009690D01*
X010685Y009742D01*
X010640Y009796D01*
X010598Y009853D01*
X010559Y009912D01*
X010524Y009973D01*
X010492Y010036D01*
X010463Y010101D01*
X010438Y010168D01*
X010417Y010235D01*
X010400Y010304D01*
X010386Y010373D01*
X010377Y010443D01*
X010371Y010514D01*
X010369Y010585D01*
X010371Y010655D01*
X010377Y010726D01*
X010387Y010796D01*
X010401Y010865D01*
X010418Y010934D01*
X010439Y011001D01*
X010464Y011068D01*
X010493Y011132D01*
X010525Y011195D01*
X010561Y011256D01*
X010600Y011315D01*
X010642Y011372D01*
X010687Y011427D01*
X010736Y011478D01*
X010787Y011528D01*
X010840Y011574D01*
X010896Y011617D01*
X010955Y011657D01*
X011015Y011693D01*
X011078Y011727D01*
X011142Y011756D01*
X011208Y011782D01*
X011275Y011805D01*
X011343Y011824D01*
X011412Y011838D01*
X011482Y011849D01*
X011553Y011857D01*
X011623Y011860D01*
X011694Y011859D01*
X011765Y011854D01*
X011835Y011846D01*
X011905Y011834D01*
X011974Y011817D01*
X012041Y011797D01*
X012108Y011773D01*
X012173Y011746D01*
X012237Y011715D01*
X012299Y011681D01*
X012359Y011643D01*
X012416Y011602D01*
X012471Y011557D01*
X012524Y011510D01*
X012574Y011460D01*
X012621Y011407D01*
X012665Y011352D01*
X012707Y011294D01*
X012744Y011234D01*
X012779Y011173D01*
X012810Y011109D01*
X012837Y011044D01*
X012861Y010977D01*
X012881Y010909D01*
X012897Y010840D01*
X012909Y010771D01*
X012918Y010700D01*
X012922Y010630D01*
X012913Y010629D01*
X012909Y010700D01*
X012900Y010771D01*
X012888Y010841D01*
X012871Y010910D01*
X012851Y010978D01*
X012827Y011045D01*
X012799Y011110D01*
X012768Y011174D01*
X012733Y011236D01*
X012695Y011296D01*
X012653Y011354D01*
X012608Y011409D01*
X012561Y011461D01*
X012510Y011511D01*
X012457Y011558D01*
X012401Y011602D01*
X012342Y011643D01*
X012282Y011680D01*
X012219Y011714D01*
X012155Y011744D01*
X012089Y011771D01*
X012022Y011794D01*
X011954Y011813D01*
X011884Y011828D01*
X011814Y011840D01*
X011743Y011847D01*
X011673Y011851D01*
X011601Y011850D01*
X011531Y011846D01*
X011460Y011837D01*
X011390Y011825D01*
X011321Y011809D01*
X011253Y011788D01*
X011186Y011765D01*
X011120Y011737D01*
X011057Y011706D01*
X010995Y011671D01*
X010935Y011633D01*
X010877Y011591D01*
X010822Y011546D01*
X010769Y011499D01*
X010719Y011448D01*
X010672Y011395D01*
X010628Y011339D01*
X010587Y011281D01*
X010550Y011221D01*
X010516Y011158D01*
X010485Y011094D01*
X010459Y011028D01*
X010436Y010961D01*
X010416Y010892D01*
X010401Y010823D01*
X010389Y010753D01*
X010382Y010682D01*
X010378Y010611D01*
X010379Y010540D01*
X010383Y010469D01*
X010391Y010399D01*
X010404Y010329D01*
X010420Y010260D01*
X010440Y010191D01*
X010464Y010124D01*
X010491Y010059D01*
X010523Y009995D01*
X010557Y009933D01*
X010595Y009873D01*
X010637Y009815D01*
X010681Y009760D01*
X010729Y009707D01*
X010779Y009657D01*
X010833Y009610D01*
X010888Y009566D01*
X010947Y009525D01*
X011007Y009488D01*
X011069Y009454D01*
X011133Y009423D01*
X011199Y009396D01*
X011266Y009373D01*
X011335Y009354D01*
X011404Y009338D01*
X011474Y009327D01*
X011545Y009319D01*
X011616Y009315D01*
X011687Y009316D01*
X011758Y009320D01*
X011828Y009328D01*
X011898Y009340D01*
X011968Y009356D01*
X012036Y009376D01*
X012033Y009385D01*
X011965Y009365D01*
X011897Y009349D01*
X011827Y009337D01*
X011757Y009329D01*
X011687Y009325D01*
X011616Y009324D01*
X011546Y009328D01*
X011475Y009336D01*
X011406Y009347D01*
X011337Y009363D01*
X011269Y009382D01*
X011202Y009405D01*
X011137Y009431D01*
X011073Y009462D01*
X011011Y009496D01*
X010952Y009533D01*
X010894Y009573D01*
X010838Y009617D01*
X010786Y009664D01*
X010735Y009714D01*
X010688Y009766D01*
X010644Y009821D01*
X010603Y009878D01*
X010565Y009938D01*
X010530Y009999D01*
X010500Y010063D01*
X010472Y010128D01*
X010449Y010194D01*
X010429Y010262D01*
X010413Y010331D01*
X010400Y010400D01*
X010392Y010470D01*
X010388Y010541D01*
X010387Y010611D01*
X010391Y010682D01*
X010398Y010752D01*
X010410Y010821D01*
X010425Y010890D01*
X010444Y010958D01*
X010467Y011025D01*
X010494Y011090D01*
X010524Y011154D01*
X010558Y011216D01*
X010595Y011276D01*
X010635Y011334D01*
X010679Y011389D01*
X010726Y011442D01*
X010775Y011492D01*
X010828Y011540D01*
X010882Y011584D01*
X010940Y011625D01*
X010999Y011663D01*
X011061Y011698D01*
X011124Y011729D01*
X011189Y011756D01*
X011255Y011780D01*
X011323Y011800D01*
X011392Y011816D01*
X011461Y011828D01*
X011531Y011837D01*
X011602Y011841D01*
X011672Y011842D01*
X011743Y011838D01*
X011813Y011831D01*
X011883Y011820D01*
X011951Y011804D01*
X012019Y011785D01*
X012086Y011763D01*
X012152Y011736D01*
X012215Y011706D01*
X012277Y011672D01*
X012337Y011635D01*
X012395Y011595D01*
X012451Y011551D01*
X012504Y011505D01*
X012554Y011455D01*
X012601Y011403D01*
X012646Y011348D01*
X012687Y011291D01*
X012725Y011231D01*
X012760Y011170D01*
X012791Y011107D01*
X012818Y011042D01*
X012842Y010975D01*
X012862Y010908D01*
X012879Y010839D01*
X012891Y010770D01*
X012900Y010699D01*
X012904Y010629D01*
X012895Y010629D01*
X012891Y010699D01*
X012882Y010768D01*
X012870Y010837D01*
X012854Y010905D01*
X012834Y010972D01*
X012810Y011038D01*
X012783Y011103D01*
X012752Y011166D01*
X012717Y011227D01*
X012680Y011286D01*
X012639Y011343D01*
X012595Y011397D01*
X012548Y011449D01*
X012498Y011498D01*
X012445Y011544D01*
X012390Y011588D01*
X012332Y011628D01*
X012273Y011664D01*
X012211Y011698D01*
X012148Y011728D01*
X012083Y011754D01*
X012017Y011777D01*
X011949Y011796D01*
X011881Y011811D01*
X011812Y011822D01*
X011742Y011829D01*
X011672Y011833D01*
X011602Y011832D01*
X011532Y011828D01*
X011463Y011819D01*
X011394Y011807D01*
X011325Y011791D01*
X011258Y011771D01*
X011192Y011748D01*
X011128Y011721D01*
X011065Y011690D01*
X011004Y011655D01*
X010945Y011618D01*
X010888Y011577D01*
X010833Y011533D01*
X010781Y011486D01*
X010732Y011436D01*
X010686Y011383D01*
X010643Y011328D01*
X010602Y011271D01*
X010565Y011211D01*
X010532Y011150D01*
X010502Y011087D01*
X010476Y011022D01*
X010453Y010956D01*
X010434Y010888D01*
X010419Y010820D01*
X010407Y010751D01*
X010400Y010681D01*
X010396Y010611D01*
X010397Y010541D01*
X010401Y010471D01*
X010409Y010401D01*
X010421Y010332D01*
X010437Y010264D01*
X010457Y010197D01*
X010481Y010131D01*
X010508Y010066D01*
X010538Y010004D01*
X010573Y009942D01*
X010610Y009883D01*
X010651Y009826D01*
X010695Y009772D01*
X010742Y009720D01*
X010792Y009670D01*
X010844Y009624D01*
X010899Y009581D01*
X010956Y009540D01*
X011016Y009503D01*
X011077Y009470D01*
X011141Y009440D01*
X011206Y009413D01*
X011272Y009390D01*
X011339Y009371D01*
X011407Y009356D01*
X011477Y009345D01*
X011546Y009337D01*
X011616Y009333D01*
X011686Y009334D01*
X011756Y009338D01*
X011826Y009346D01*
X011895Y009358D01*
X011963Y009374D01*
X012030Y009394D01*
X012027Y009402D01*
X011961Y009383D01*
X011893Y009367D01*
X011824Y009355D01*
X011755Y009347D01*
X011686Y009343D01*
X011616Y009342D01*
X011547Y009346D01*
X011478Y009353D01*
X011409Y009365D01*
X011341Y009380D01*
X011274Y009399D01*
X011209Y009422D01*
X011144Y009448D01*
X011081Y009478D01*
X011020Y009511D01*
X010961Y009548D01*
X010904Y009588D01*
X010850Y009631D01*
X010798Y009677D01*
X010748Y009726D01*
X010702Y009778D01*
X010658Y009832D01*
X010618Y009888D01*
X010580Y009947D01*
X010546Y010008D01*
X010516Y010070D01*
X010489Y010134D01*
X010466Y010200D01*
X010446Y010267D01*
X010430Y010334D01*
X010418Y010403D01*
X010410Y010472D01*
X010406Y010541D01*
X010405Y010611D01*
X010409Y010680D01*
X010416Y010749D01*
X010427Y010818D01*
X010443Y010886D01*
X010461Y010953D01*
X010484Y011019D01*
X010510Y011083D01*
X010540Y011146D01*
X010573Y011207D01*
X010610Y011266D01*
X010650Y011323D01*
X010693Y011378D01*
X010739Y011430D01*
X010788Y011479D01*
X010839Y011526D01*
X010893Y011570D01*
X010950Y011610D01*
X011008Y011648D01*
X011069Y011682D01*
X011131Y011712D01*
X011196Y011739D01*
X011261Y011763D01*
X011328Y011782D01*
X011395Y011798D01*
X011464Y011811D01*
X011533Y011819D01*
X011602Y011823D01*
X011672Y011824D01*
X011741Y011820D01*
X011811Y011813D01*
X011879Y011802D01*
X011947Y011787D01*
X012014Y011768D01*
X012080Y011746D01*
X012144Y011720D01*
X012207Y011690D01*
X012268Y011657D01*
X012327Y011620D01*
X012385Y011580D01*
X012439Y011537D01*
X012491Y011491D01*
X012541Y011443D01*
X012588Y011391D01*
X012632Y011337D01*
X012672Y011281D01*
X012710Y011222D01*
X012744Y011162D01*
X012775Y011099D01*
X012802Y011035D01*
X012825Y010970D01*
X012845Y010903D01*
X012861Y010835D01*
X012873Y010767D01*
X012882Y010698D01*
X012886Y010628D01*
X012877Y010628D01*
X012873Y010697D01*
X012864Y010766D01*
X012852Y010834D01*
X012836Y010901D01*
X012817Y010967D01*
X012793Y011032D01*
X012766Y011095D01*
X012736Y011157D01*
X012702Y011218D01*
X012665Y011276D01*
X012624Y011332D01*
X012581Y011385D01*
X012534Y011436D01*
X012485Y011485D01*
X012433Y011530D01*
X012379Y011573D01*
X012323Y011613D01*
X012264Y011649D01*
X012203Y011682D01*
X012141Y011711D01*
X012077Y011737D01*
X012011Y011760D01*
X011945Y011778D01*
X011877Y011793D01*
X011809Y011804D01*
X011741Y011811D01*
X011672Y011815D01*
X011603Y011814D01*
X011534Y011810D01*
X011465Y011802D01*
X011397Y011790D01*
X011330Y011774D01*
X011264Y011754D01*
X011199Y011731D01*
X011135Y011704D01*
X011073Y011674D01*
X011013Y011640D01*
X010955Y011603D01*
X010899Y011563D01*
X010845Y011519D01*
X010794Y011473D01*
X010745Y011424D01*
X010700Y011372D01*
X010657Y011318D01*
X010617Y011261D01*
X010581Y011202D01*
X010548Y011142D01*
X010518Y011079D01*
X010492Y011015D01*
X010470Y010950D01*
X010451Y010884D01*
X010436Y010816D01*
X010425Y010748D01*
X010418Y010680D01*
X010414Y010611D01*
X010415Y010542D01*
X010419Y010473D01*
X010427Y010404D01*
X010439Y010336D01*
X010455Y010269D01*
X010474Y010203D01*
X010497Y010138D01*
X010524Y010074D01*
X010554Y010012D01*
X010588Y009952D01*
X010625Y009893D01*
X010665Y009837D01*
X010709Y009783D01*
X010755Y009732D01*
X010804Y009684D01*
X010856Y009638D01*
X010910Y009595D01*
X010966Y009555D01*
X011025Y009519D01*
X011086Y009486D01*
X011148Y009456D01*
X011212Y009430D01*
X011277Y009408D01*
X011343Y009389D01*
X011411Y009374D01*
X011479Y009362D01*
X011548Y009355D01*
X011617Y009351D01*
X011686Y009352D01*
X011755Y009356D01*
X011823Y009364D01*
X011891Y009376D01*
X011958Y009391D01*
X012025Y009411D01*
X012022Y009419D01*
X011955Y009400D01*
X011888Y009384D01*
X011819Y009372D01*
X011751Y009364D01*
X011681Y009361D01*
X011612Y009360D01*
X011543Y009364D01*
X011474Y009372D01*
X011406Y009384D01*
X011338Y009399D01*
X011272Y009419D01*
X011206Y009442D01*
X011142Y009469D01*
X011080Y009499D01*
X011019Y009533D01*
X010961Y009570D01*
X010905Y009610D01*
X010851Y009654D01*
X010799Y009700D01*
X010751Y009750D01*
X010705Y009802D01*
X010662Y009856D01*
X010623Y009913D01*
X010586Y009972D01*
X010553Y010033D01*
X010524Y010096D01*
X010498Y010161D01*
X010476Y010226D01*
X010458Y010293D01*
X010443Y010361D01*
X010433Y010429D01*
X010426Y010498D01*
X010423Y010568D01*
X010424Y010637D01*
X010429Y010706D01*
X010438Y010775D01*
X010451Y010843D01*
X010468Y010910D01*
X010488Y010976D01*
X010512Y011041D01*
X010540Y011105D01*
X010571Y011167D01*
X010606Y011227D01*
X010644Y011284D01*
X010686Y011340D01*
X010730Y011393D01*
X010777Y011444D01*
X010828Y011492D01*
X010880Y011537D01*
X010936Y011578D01*
X010993Y011617D01*
X011053Y011652D01*
X011114Y011684D01*
X011178Y011713D01*
X011242Y011737D01*
X011308Y011758D01*
X011375Y011776D01*
X011443Y011789D01*
X011512Y011799D01*
X011581Y011804D01*
X011650Y011806D01*
X011720Y011804D01*
X011789Y011798D01*
X011857Y011788D01*
X011925Y011774D01*
X011992Y011756D01*
X012058Y011734D01*
X012123Y011709D01*
X012186Y011680D01*
X012247Y011648D01*
X012306Y011612D01*
X012364Y011573D01*
X012419Y011531D01*
X012471Y011486D01*
X012521Y011438D01*
X012568Y011387D01*
X012612Y011333D01*
X012653Y011277D01*
X012691Y011219D01*
X012725Y011159D01*
X012756Y011097D01*
X012783Y011033D01*
X012807Y010968D01*
X012827Y010901D01*
X012843Y010834D01*
X012855Y010766D01*
X012864Y010697D01*
X012868Y010628D01*
X012859Y010628D01*
X012855Y010696D01*
X012846Y010765D01*
X012834Y010832D01*
X012818Y010899D01*
X012798Y010965D01*
X012775Y011030D01*
X012748Y011093D01*
X012717Y011155D01*
X012683Y011214D01*
X012646Y011272D01*
X012605Y011328D01*
X012561Y011381D01*
X012514Y011431D01*
X012465Y011479D01*
X012413Y011524D01*
X012358Y011566D01*
X012302Y011605D01*
X012243Y011640D01*
X012182Y011672D01*
X012119Y011701D01*
X012055Y011726D01*
X011990Y011747D01*
X011923Y011765D01*
X011856Y011779D01*
X011788Y011789D01*
X011719Y011795D01*
X011650Y011797D01*
X011582Y011795D01*
X011513Y011790D01*
X011445Y011780D01*
X011377Y011767D01*
X011311Y011750D01*
X011245Y011729D01*
X011181Y011704D01*
X011118Y011676D01*
X011057Y011645D01*
X010998Y011610D01*
X010941Y011571D01*
X010886Y011530D01*
X010834Y011485D01*
X010784Y011438D01*
X010737Y011387D01*
X010693Y011335D01*
X010652Y011279D01*
X010614Y011222D01*
X010579Y011162D01*
X010548Y011101D01*
X010520Y011038D01*
X010497Y010973D01*
X010476Y010908D01*
X010460Y010841D01*
X010447Y010773D01*
X010438Y010705D01*
X010433Y010636D01*
X010432Y010568D01*
X010435Y010499D01*
X010442Y010430D01*
X010452Y010362D01*
X010467Y010295D01*
X010485Y010229D01*
X010507Y010164D01*
X010532Y010100D01*
X010561Y010037D01*
X010594Y009977D01*
X010630Y009918D01*
X010669Y009862D01*
X010712Y009808D01*
X010757Y009756D01*
X010806Y009707D01*
X010857Y009661D01*
X010910Y009617D01*
X010966Y009577D01*
X011024Y009540D01*
X011084Y009507D01*
X011146Y009477D01*
X011209Y009450D01*
X011274Y009427D01*
X011340Y009408D01*
X011407Y009393D01*
X011475Y009381D01*
X011544Y009373D01*
X011612Y009369D01*
X011681Y009370D01*
X011750Y009373D01*
X011818Y009381D01*
X011886Y009393D01*
X011953Y009408D01*
X012019Y009428D01*
D14*
X010646Y010583D02*
X010648Y010646D01*
X010654Y010708D01*
X010664Y010770D01*
X010677Y010832D01*
X010695Y010892D01*
X010716Y010951D01*
X010741Y011009D01*
X010770Y011065D01*
X010802Y011119D01*
X010837Y011171D01*
X010875Y011220D01*
X010917Y011268D01*
X010961Y011312D01*
X011009Y011354D01*
X011058Y011392D01*
X011110Y011427D01*
X011164Y011459D01*
X011220Y011488D01*
X011278Y011513D01*
X011337Y011534D01*
X011397Y011552D01*
X011459Y011565D01*
X011521Y011575D01*
X011583Y011581D01*
X011646Y011583D01*
X011709Y011581D01*
X011771Y011575D01*
X011833Y011565D01*
X011895Y011552D01*
X011955Y011534D01*
X012014Y011513D01*
X012072Y011488D01*
X012128Y011459D01*
X012182Y011427D01*
X012234Y011392D01*
X012283Y011354D01*
X012331Y011312D01*
X012375Y011268D01*
X012417Y011220D01*
X012455Y011171D01*
X012490Y011119D01*
X012522Y011065D01*
X012551Y011009D01*
X012576Y010951D01*
X012597Y010892D01*
X012615Y010832D01*
X012628Y010770D01*
X012638Y010708D01*
X012644Y010646D01*
X012646Y010583D01*
X012644Y010520D01*
X012638Y010458D01*
X012628Y010396D01*
X012615Y010334D01*
X012597Y010274D01*
X012576Y010215D01*
X012551Y010157D01*
X012522Y010101D01*
X012490Y010047D01*
X012455Y009995D01*
X012417Y009946D01*
X012375Y009898D01*
X012331Y009854D01*
X012283Y009812D01*
X012234Y009774D01*
X012182Y009739D01*
X012128Y009707D01*
X012072Y009678D01*
X012014Y009653D01*
X011955Y009632D01*
X011895Y009614D01*
X011833Y009601D01*
X011771Y009591D01*
X011709Y009585D01*
X011646Y009583D01*
X011583Y009585D01*
X011521Y009591D01*
X011459Y009601D01*
X011397Y009614D01*
X011337Y009632D01*
X011278Y009653D01*
X011220Y009678D01*
X011164Y009707D01*
X011110Y009739D01*
X011058Y009774D01*
X011009Y009812D01*
X010961Y009854D01*
X010917Y009898D01*
X010875Y009946D01*
X010837Y009995D01*
X010802Y010047D01*
X010770Y010101D01*
X010741Y010157D01*
X010716Y010215D01*
X010695Y010274D01*
X010677Y010334D01*
X010664Y010396D01*
X010654Y010458D01*
X010648Y010520D01*
X010646Y010583D01*
X002930Y010583D02*
X002932Y010646D01*
X002938Y010708D01*
X002948Y010770D01*
X002961Y010832D01*
X002979Y010892D01*
X003000Y010951D01*
X003025Y011009D01*
X003054Y011065D01*
X003086Y011119D01*
X003121Y011171D01*
X003159Y011220D01*
X003201Y011268D01*
X003245Y011312D01*
X003293Y011354D01*
X003342Y011392D01*
X003394Y011427D01*
X003448Y011459D01*
X003504Y011488D01*
X003562Y011513D01*
X003621Y011534D01*
X003681Y011552D01*
X003743Y011565D01*
X003805Y011575D01*
X003867Y011581D01*
X003930Y011583D01*
X003993Y011581D01*
X004055Y011575D01*
X004117Y011565D01*
X004179Y011552D01*
X004239Y011534D01*
X004298Y011513D01*
X004356Y011488D01*
X004412Y011459D01*
X004466Y011427D01*
X004518Y011392D01*
X004567Y011354D01*
X004615Y011312D01*
X004659Y011268D01*
X004701Y011220D01*
X004739Y011171D01*
X004774Y011119D01*
X004806Y011065D01*
X004835Y011009D01*
X004860Y010951D01*
X004881Y010892D01*
X004899Y010832D01*
X004912Y010770D01*
X004922Y010708D01*
X004928Y010646D01*
X004930Y010583D01*
X004928Y010520D01*
X004922Y010458D01*
X004912Y010396D01*
X004899Y010334D01*
X004881Y010274D01*
X004860Y010215D01*
X004835Y010157D01*
X004806Y010101D01*
X004774Y010047D01*
X004739Y009995D01*
X004701Y009946D01*
X004659Y009898D01*
X004615Y009854D01*
X004567Y009812D01*
X004518Y009774D01*
X004466Y009739D01*
X004412Y009707D01*
X004356Y009678D01*
X004298Y009653D01*
X004239Y009632D01*
X004179Y009614D01*
X004117Y009601D01*
X004055Y009591D01*
X003993Y009585D01*
X003930Y009583D01*
X003867Y009585D01*
X003805Y009591D01*
X003743Y009601D01*
X003681Y009614D01*
X003621Y009632D01*
X003562Y009653D01*
X003504Y009678D01*
X003448Y009707D01*
X003394Y009739D01*
X003342Y009774D01*
X003293Y009812D01*
X003245Y009854D01*
X003201Y009898D01*
X003159Y009946D01*
X003121Y009995D01*
X003086Y010047D01*
X003054Y010101D01*
X003025Y010157D01*
X003000Y010215D01*
X002979Y010274D01*
X002961Y010334D01*
X002948Y010396D01*
X002938Y010458D01*
X002932Y010520D01*
X002930Y010583D01*
X002930Y002867D02*
X002932Y002930D01*
X002938Y002992D01*
X002948Y003054D01*
X002961Y003116D01*
X002979Y003176D01*
X003000Y003235D01*
X003025Y003293D01*
X003054Y003349D01*
X003086Y003403D01*
X003121Y003455D01*
X003159Y003504D01*
X003201Y003552D01*
X003245Y003596D01*
X003293Y003638D01*
X003342Y003676D01*
X003394Y003711D01*
X003448Y003743D01*
X003504Y003772D01*
X003562Y003797D01*
X003621Y003818D01*
X003681Y003836D01*
X003743Y003849D01*
X003805Y003859D01*
X003867Y003865D01*
X003930Y003867D01*
X003993Y003865D01*
X004055Y003859D01*
X004117Y003849D01*
X004179Y003836D01*
X004239Y003818D01*
X004298Y003797D01*
X004356Y003772D01*
X004412Y003743D01*
X004466Y003711D01*
X004518Y003676D01*
X004567Y003638D01*
X004615Y003596D01*
X004659Y003552D01*
X004701Y003504D01*
X004739Y003455D01*
X004774Y003403D01*
X004806Y003349D01*
X004835Y003293D01*
X004860Y003235D01*
X004881Y003176D01*
X004899Y003116D01*
X004912Y003054D01*
X004922Y002992D01*
X004928Y002930D01*
X004930Y002867D01*
X004928Y002804D01*
X004922Y002742D01*
X004912Y002680D01*
X004899Y002618D01*
X004881Y002558D01*
X004860Y002499D01*
X004835Y002441D01*
X004806Y002385D01*
X004774Y002331D01*
X004739Y002279D01*
X004701Y002230D01*
X004659Y002182D01*
X004615Y002138D01*
X004567Y002096D01*
X004518Y002058D01*
X004466Y002023D01*
X004412Y001991D01*
X004356Y001962D01*
X004298Y001937D01*
X004239Y001916D01*
X004179Y001898D01*
X004117Y001885D01*
X004055Y001875D01*
X003993Y001869D01*
X003930Y001867D01*
X003867Y001869D01*
X003805Y001875D01*
X003743Y001885D01*
X003681Y001898D01*
X003621Y001916D01*
X003562Y001937D01*
X003504Y001962D01*
X003448Y001991D01*
X003394Y002023D01*
X003342Y002058D01*
X003293Y002096D01*
X003245Y002138D01*
X003201Y002182D01*
X003159Y002230D01*
X003121Y002279D01*
X003086Y002331D01*
X003054Y002385D01*
X003025Y002441D01*
X003000Y002499D01*
X002979Y002558D01*
X002961Y002618D01*
X002948Y002680D01*
X002938Y002742D01*
X002932Y002804D01*
X002930Y002867D01*
X010646Y002867D02*
X010648Y002930D01*
X010654Y002992D01*
X010664Y003054D01*
X010677Y003116D01*
X010695Y003176D01*
X010716Y003235D01*
X010741Y003293D01*
X010770Y003349D01*
X010802Y003403D01*
X010837Y003455D01*
X010875Y003504D01*
X010917Y003552D01*
X010961Y003596D01*
X011009Y003638D01*
X011058Y003676D01*
X011110Y003711D01*
X011164Y003743D01*
X011220Y003772D01*
X011278Y003797D01*
X011337Y003818D01*
X011397Y003836D01*
X011459Y003849D01*
X011521Y003859D01*
X011583Y003865D01*
X011646Y003867D01*
X011709Y003865D01*
X011771Y003859D01*
X011833Y003849D01*
X011895Y003836D01*
X011955Y003818D01*
X012014Y003797D01*
X012072Y003772D01*
X012128Y003743D01*
X012182Y003711D01*
X012234Y003676D01*
X012283Y003638D01*
X012331Y003596D01*
X012375Y003552D01*
X012417Y003504D01*
X012455Y003455D01*
X012490Y003403D01*
X012522Y003349D01*
X012551Y003293D01*
X012576Y003235D01*
X012597Y003176D01*
X012615Y003116D01*
X012628Y003054D01*
X012638Y002992D01*
X012644Y002930D01*
X012646Y002867D01*
X012644Y002804D01*
X012638Y002742D01*
X012628Y002680D01*
X012615Y002618D01*
X012597Y002558D01*
X012576Y002499D01*
X012551Y002441D01*
X012522Y002385D01*
X012490Y002331D01*
X012455Y002279D01*
X012417Y002230D01*
X012375Y002182D01*
X012331Y002138D01*
X012283Y002096D01*
X012234Y002058D01*
X012182Y002023D01*
X012128Y001991D01*
X012072Y001962D01*
X012014Y001937D01*
X011955Y001916D01*
X011895Y001898D01*
X011833Y001885D01*
X011771Y001875D01*
X011709Y001869D01*
X011646Y001867D01*
X011583Y001869D01*
X011521Y001875D01*
X011459Y001885D01*
X011397Y001898D01*
X011337Y001916D01*
X011278Y001937D01*
X011220Y001962D01*
X011164Y001991D01*
X011110Y002023D01*
X011058Y002058D01*
X011009Y002096D01*
X010961Y002138D01*
X010917Y002182D01*
X010875Y002230D01*
X010837Y002279D01*
X010802Y002331D01*
X010770Y002385D01*
X010741Y002441D01*
X010716Y002499D01*
X010695Y002558D01*
X010677Y002618D01*
X010664Y002680D01*
X010654Y002742D01*
X010648Y002804D01*
X010646Y002867D01*
D15*
X009953Y005839D02*
X009953Y006941D01*
X005701Y006941D01*
X005701Y005839D01*
X009953Y005839D01*
X009953Y006941D02*
X009953Y007414D01*
X009181Y007414D01*
X009166Y007414D02*
X009164Y007465D01*
X009159Y007515D01*
X009150Y007565D01*
X009137Y007614D01*
X009121Y007662D01*
X009102Y007709D01*
X009079Y007754D01*
X009053Y007797D01*
X009025Y007839D01*
X008993Y007878D01*
X008958Y007915D01*
X008921Y007950D01*
X008882Y007982D01*
X008840Y008010D01*
X008797Y008036D01*
X008752Y008059D01*
X008705Y008078D01*
X008657Y008094D01*
X008608Y008107D01*
X008558Y008116D01*
X008508Y008121D01*
X008457Y008123D01*
X008457Y008122D02*
X007197Y008122D01*
X007197Y008123D02*
X007146Y008121D01*
X007096Y008116D01*
X007046Y008107D01*
X006997Y008094D01*
X006949Y008078D01*
X006902Y008059D01*
X006857Y008036D01*
X006814Y008010D01*
X006772Y007982D01*
X006733Y007950D01*
X006696Y007915D01*
X006661Y007878D01*
X006629Y007839D01*
X006601Y007797D01*
X006575Y007754D01*
X006552Y007709D01*
X006533Y007662D01*
X006517Y007614D01*
X006504Y007565D01*
X006495Y007515D01*
X006490Y007465D01*
X006488Y007414D01*
X006473Y007414D02*
X005701Y007414D01*
X005701Y006941D01*
D16*
X002022Y012576D02*
X001869Y012576D01*
X001792Y012652D01*
X001638Y012576D02*
X001331Y012576D01*
X001485Y012576D02*
X001485Y013036D01*
X001331Y012882D01*
X001792Y012959D02*
X001869Y013036D01*
X002022Y013036D01*
X002099Y012959D01*
X002099Y012882D01*
X002022Y012806D01*
X002099Y012729D01*
X002099Y012652D01*
X002022Y012576D01*
X002022Y012806D02*
X001945Y012806D01*
X013442Y012839D02*
X013596Y012993D01*
X013596Y012532D01*
X013749Y012532D02*
X013442Y012532D01*
X013903Y012532D02*
X014209Y012839D01*
X014209Y012916D01*
X014133Y012993D01*
X013979Y012993D01*
X013903Y012916D01*
X013903Y012532D02*
X014209Y012532D01*
X014056Y011969D02*
X014056Y011509D01*
X013903Y011509D02*
X014209Y011509D01*
X013903Y011816D02*
X014056Y011969D01*
X013596Y011969D02*
X013596Y011509D01*
X013749Y011509D02*
X013442Y011509D01*
X013442Y011816D02*
X013596Y011969D01*
X013596Y010985D02*
X013596Y010524D01*
X013749Y010524D02*
X013442Y010524D01*
X013442Y010831D02*
X013596Y010985D01*
X013903Y010908D02*
X013979Y010985D01*
X014133Y010985D01*
X014209Y010908D01*
X013903Y010601D01*
X013979Y010524D01*
X014133Y010524D01*
X014209Y010601D01*
X014209Y010908D01*
X013903Y010908D02*
X013903Y010601D01*
X013979Y010000D02*
X013903Y009924D01*
X013903Y009847D01*
X013979Y009770D01*
X014209Y009770D01*
X014209Y009617D02*
X014209Y009924D01*
X014133Y010000D01*
X013979Y010000D01*
X013903Y009617D02*
X013979Y009540D01*
X014133Y009540D01*
X014209Y009617D01*
X014133Y008977D02*
X013979Y008977D01*
X013903Y008900D01*
X013903Y008823D01*
X013979Y008747D01*
X014133Y008747D01*
X014209Y008670D01*
X014209Y008593D01*
X014133Y008516D01*
X013979Y008516D01*
X013903Y008593D01*
X013903Y008670D01*
X013979Y008747D01*
X014133Y008747D02*
X014209Y008823D01*
X014209Y008900D01*
X014133Y008977D01*
X014209Y007993D02*
X013903Y007993D01*
X014209Y007993D02*
X014209Y007916D01*
X013903Y007609D01*
X013903Y007532D01*
X014209Y006969D02*
X014056Y006892D01*
X013903Y006739D01*
X014133Y006739D01*
X014209Y006662D01*
X014209Y006585D01*
X014133Y006509D01*
X013979Y006509D01*
X013903Y006585D01*
X013903Y006739D01*
X013903Y005985D02*
X013903Y005755D01*
X014056Y005831D01*
X014133Y005831D01*
X014209Y005755D01*
X014209Y005601D01*
X014133Y005524D01*
X013979Y005524D01*
X013903Y005601D01*
X013903Y005985D02*
X014209Y005985D01*
X014133Y005000D02*
X013903Y004770D01*
X014209Y004770D01*
X014133Y004540D02*
X014133Y005000D01*
X014133Y003977D02*
X013979Y003977D01*
X013903Y003900D01*
X014056Y003747D02*
X014133Y003747D01*
X014209Y003670D01*
X014209Y003593D01*
X014133Y003516D01*
X013979Y003516D01*
X013903Y003593D01*
X014133Y003747D02*
X014209Y003823D01*
X014209Y003900D01*
X014133Y003977D01*
X014133Y002993D02*
X013979Y002993D01*
X013903Y002916D01*
X014133Y002993D02*
X014209Y002916D01*
X014209Y002839D01*
X013903Y002532D01*
X014209Y002532D01*
D17*
X014244Y003394D02*
X013890Y003394D01*
X013890Y005402D02*
X014244Y005402D01*
X014244Y006386D02*
X013890Y006386D01*
X013890Y009418D02*
X014244Y009418D01*
X014166Y010363D02*
X013496Y010363D01*
X013496Y011386D02*
X014166Y011386D01*
X002040Y012449D02*
X001370Y012449D01*
M02*
