G75*
G70*
%OFA0B0*%
%FSLAX24Y24*%
%IPPOS*%
%LPD*%
%AMOC8*
5,1,8,0,0,1.08239X$1,22.5*
%
%ADD10C,0.0760*%
%ADD11C,0.0132*%
%ADD12C,0.0100*%
%ADD13OC8,0.0278*%
D10*
X000737Y002260D03*
X000737Y003244D03*
X000737Y004244D03*
X000737Y005244D03*
X000737Y006244D03*
X000737Y007244D03*
X000737Y008244D03*
X001737Y011260D03*
X002737Y011260D03*
X003737Y011260D03*
X004737Y011260D03*
X005737Y011260D03*
X006737Y011260D03*
X007737Y011276D03*
X008737Y011276D03*
X009737Y011276D03*
X010737Y011276D03*
X011737Y011276D03*
X012737Y011276D03*
X013737Y008244D03*
X013737Y007244D03*
X013737Y006244D03*
X013737Y005244D03*
X013737Y004244D03*
X013737Y003244D03*
X013737Y002244D03*
X008811Y005032D03*
X007630Y005032D03*
X005662Y005032D03*
D11*
X003415Y002669D02*
X003349Y002735D01*
X003567Y002735D01*
X003721Y002581D01*
X003721Y002363D01*
X003567Y002209D01*
X003349Y002209D01*
X003195Y002363D01*
X003195Y002581D01*
X003349Y002735D01*
X003390Y002636D01*
X003526Y002636D01*
X003622Y002540D01*
X003622Y002404D01*
X003526Y002308D01*
X003390Y002308D01*
X003294Y002404D01*
X003294Y002540D01*
X003390Y002636D01*
X003431Y002537D01*
X003485Y002537D01*
X003523Y002499D01*
X003523Y002445D01*
X003485Y002407D01*
X003431Y002407D01*
X003393Y002445D01*
X003393Y002499D01*
X003431Y002537D01*
X004122Y001962D02*
X004056Y002028D01*
X004274Y002028D01*
X004428Y001874D01*
X004428Y001656D01*
X004274Y001502D01*
X004056Y001502D01*
X003902Y001656D01*
X003902Y001874D01*
X004056Y002028D01*
X004097Y001929D01*
X004233Y001929D01*
X004329Y001833D01*
X004329Y001697D01*
X004233Y001601D01*
X004097Y001601D01*
X004001Y001697D01*
X004001Y001833D01*
X004097Y001929D01*
X004138Y001830D01*
X004192Y001830D01*
X004230Y001792D01*
X004230Y001738D01*
X004192Y001700D01*
X004138Y001700D01*
X004100Y001738D01*
X004100Y001792D01*
X004138Y001830D01*
X010387Y001808D02*
X010453Y001874D01*
X010453Y001656D01*
X010299Y001502D01*
X010081Y001502D01*
X009927Y001656D01*
X009927Y001874D01*
X010081Y002028D01*
X010299Y002028D01*
X010453Y001874D01*
X010354Y001833D01*
X010354Y001697D01*
X010258Y001601D01*
X010122Y001601D01*
X010026Y001697D01*
X010026Y001833D01*
X010122Y001929D01*
X010258Y001929D01*
X010354Y001833D01*
X010255Y001792D01*
X010255Y001738D01*
X010217Y001700D01*
X010163Y001700D01*
X010125Y001738D01*
X010125Y001792D01*
X010163Y001830D01*
X010217Y001830D01*
X010255Y001792D01*
X011094Y002515D02*
X011160Y002581D01*
X011160Y002363D01*
X011006Y002209D01*
X010788Y002209D01*
X010634Y002363D01*
X010634Y002581D01*
X010788Y002735D01*
X011006Y002735D01*
X011160Y002581D01*
X011061Y002540D01*
X011061Y002404D01*
X010965Y002308D01*
X010829Y002308D01*
X010733Y002404D01*
X010733Y002540D01*
X010829Y002636D01*
X010965Y002636D01*
X011061Y002540D01*
X010962Y002499D01*
X010962Y002445D01*
X010924Y002407D01*
X010870Y002407D01*
X010832Y002445D01*
X010832Y002499D01*
X010870Y002537D01*
X010924Y002537D01*
X010962Y002499D01*
X010940Y007788D02*
X011006Y007722D01*
X010788Y007722D01*
X010634Y007876D01*
X010634Y008094D01*
X010788Y008248D01*
X011006Y008248D01*
X011160Y008094D01*
X011160Y007876D01*
X011006Y007722D01*
X010965Y007821D01*
X010829Y007821D01*
X010733Y007917D01*
X010733Y008053D01*
X010829Y008149D01*
X010965Y008149D01*
X011061Y008053D01*
X011061Y007917D01*
X010965Y007821D01*
X010924Y007920D01*
X010870Y007920D01*
X010832Y007958D01*
X010832Y008012D01*
X010870Y008050D01*
X010924Y008050D01*
X010962Y008012D01*
X010962Y007958D01*
X010924Y007920D01*
X010233Y008496D02*
X010299Y008430D01*
X010081Y008430D01*
X009927Y008584D01*
X009927Y008802D01*
X010081Y008956D01*
X010299Y008956D01*
X010453Y008802D01*
X010453Y008584D01*
X010299Y008430D01*
X010258Y008529D01*
X010122Y008529D01*
X010026Y008625D01*
X010026Y008761D01*
X010122Y008857D01*
X010258Y008857D01*
X010354Y008761D01*
X010354Y008625D01*
X010258Y008529D01*
X010217Y008628D01*
X010163Y008628D01*
X010125Y008666D01*
X010125Y008720D01*
X010163Y008758D01*
X010217Y008758D01*
X010255Y008720D01*
X010255Y008666D01*
X010217Y008628D01*
X003968Y008650D02*
X003902Y008584D01*
X003902Y008802D01*
X004056Y008956D01*
X004274Y008956D01*
X004428Y008802D01*
X004428Y008584D01*
X004274Y008430D01*
X004056Y008430D01*
X003902Y008584D01*
X004001Y008625D01*
X004001Y008761D01*
X004097Y008857D01*
X004233Y008857D01*
X004329Y008761D01*
X004329Y008625D01*
X004233Y008529D01*
X004097Y008529D01*
X004001Y008625D01*
X004100Y008666D01*
X004100Y008720D01*
X004138Y008758D01*
X004192Y008758D01*
X004230Y008720D01*
X004230Y008666D01*
X004192Y008628D01*
X004138Y008628D01*
X004100Y008666D01*
X003261Y007942D02*
X003195Y007876D01*
X003195Y008094D01*
X003349Y008248D01*
X003567Y008248D01*
X003721Y008094D01*
X003721Y007876D01*
X003567Y007722D01*
X003349Y007722D01*
X003195Y007876D01*
X003294Y007917D01*
X003294Y008053D01*
X003390Y008149D01*
X003526Y008149D01*
X003622Y008053D01*
X003622Y007917D01*
X003526Y007821D01*
X003390Y007821D01*
X003294Y007917D01*
X003393Y007958D01*
X003393Y008012D01*
X003431Y008050D01*
X003485Y008050D01*
X003523Y008012D01*
X003523Y007958D01*
X003485Y007920D01*
X003431Y007920D01*
X003393Y007958D01*
D12*
X001523Y001305D02*
X001651Y000995D01*
X001651Y000659D01*
X001627Y000600D01*
X013873Y000600D01*
X013873Y001684D01*
X013850Y001675D01*
X013623Y001675D01*
X013414Y001761D01*
X013254Y001922D01*
X013167Y002131D01*
X013167Y002358D01*
X013254Y002567D01*
X013414Y002728D01*
X013455Y002744D01*
X013414Y002761D01*
X013254Y002922D01*
X013167Y003131D01*
X013167Y003358D01*
X013254Y003567D01*
X013414Y003728D01*
X013455Y003744D01*
X013414Y003761D01*
X013254Y003922D01*
X013167Y004131D01*
X013167Y004358D01*
X013254Y004567D01*
X013414Y004728D01*
X013455Y004744D01*
X013414Y004761D01*
X013254Y004922D01*
X013167Y005131D01*
X013167Y005358D01*
X013254Y005567D01*
X013414Y005728D01*
X013455Y005744D01*
X013414Y005761D01*
X013254Y005922D01*
X013167Y006131D01*
X013167Y006358D01*
X013254Y006567D01*
X013414Y006728D01*
X013455Y006744D01*
X013414Y006761D01*
X013254Y006922D01*
X013167Y007131D01*
X013167Y007358D01*
X013254Y007567D01*
X013414Y007728D01*
X013455Y007744D01*
X013414Y007761D01*
X013254Y007922D01*
X013167Y008131D01*
X013167Y008358D01*
X013254Y008567D01*
X013414Y008728D01*
X013566Y008791D01*
X013435Y008791D01*
X013125Y008919D01*
X012888Y009156D01*
X012759Y009466D01*
X012759Y009802D01*
X012888Y010112D01*
X013125Y010350D01*
X013435Y010478D01*
X013771Y010478D01*
X013873Y010435D01*
X013873Y011432D01*
X013289Y011432D01*
X013306Y011389D01*
X013306Y011163D01*
X013220Y010953D01*
X013059Y010793D01*
X012850Y010706D01*
X012623Y010706D01*
X012414Y010793D01*
X012254Y010953D01*
X012237Y010994D01*
X012220Y010953D01*
X012059Y010793D01*
X011850Y010706D01*
X011623Y010706D01*
X011414Y010793D01*
X011254Y010953D01*
X011237Y010994D01*
X011220Y010953D01*
X011059Y010793D01*
X010850Y010706D01*
X010623Y010706D01*
X010414Y010793D01*
X010254Y010953D01*
X010237Y010994D01*
X010220Y010953D01*
X010059Y010793D01*
X009850Y010706D01*
X009623Y010706D01*
X009414Y010793D01*
X009254Y010953D01*
X009237Y010994D01*
X009220Y010953D01*
X009059Y010793D01*
X008850Y010706D01*
X008623Y010706D01*
X008414Y010793D01*
X008254Y010953D01*
X008237Y010994D01*
X008220Y010953D01*
X008059Y010793D01*
X007850Y010706D01*
X007623Y010706D01*
X007414Y010793D01*
X007254Y010953D01*
X007240Y010986D01*
X007220Y010937D01*
X007059Y010777D01*
X006850Y010690D01*
X006623Y010690D01*
X006414Y010777D01*
X006254Y010937D01*
X006237Y010978D01*
X006220Y010937D01*
X006059Y010777D01*
X005850Y010690D01*
X005623Y010690D01*
X005414Y010777D01*
X005254Y010937D01*
X005237Y010978D01*
X005220Y010937D01*
X005059Y010777D01*
X004850Y010690D01*
X004623Y010690D01*
X004414Y010777D01*
X004254Y010937D01*
X004237Y010978D01*
X004220Y010937D01*
X004059Y010777D01*
X003850Y010690D01*
X003623Y010690D01*
X003414Y010777D01*
X003254Y010937D01*
X003215Y011031D01*
X003190Y010982D01*
X003141Y010915D01*
X003082Y010856D01*
X003014Y010807D01*
X002940Y010769D01*
X002861Y010743D01*
X002785Y010731D01*
X002785Y011212D01*
X002688Y011212D01*
X002208Y011212D01*
X001785Y011212D01*
X001785Y011309D01*
X002688Y011309D01*
X002688Y011212D01*
X002688Y010731D01*
X002613Y010743D01*
X002533Y010769D01*
X002459Y010807D01*
X002391Y010856D01*
X002332Y010915D01*
X002283Y010982D01*
X002245Y011057D01*
X002237Y011084D01*
X002228Y011057D01*
X002190Y010982D01*
X002141Y010915D01*
X002082Y010856D01*
X002014Y010807D01*
X001940Y010769D01*
X001861Y010743D01*
X001785Y010731D01*
X001785Y011212D01*
X001688Y011212D01*
X001208Y011212D01*
X001220Y011136D01*
X001245Y011057D01*
X001283Y010982D01*
X001332Y010915D01*
X001391Y010856D01*
X001459Y010807D01*
X001533Y010769D01*
X001613Y010743D01*
X001688Y010731D01*
X001688Y011212D01*
X001688Y011309D01*
X001208Y011309D01*
X001220Y011384D01*
X001235Y011432D01*
X000600Y011432D01*
X000600Y008805D01*
X000623Y008814D01*
X000850Y008814D01*
X001059Y008728D01*
X001220Y008567D01*
X001306Y008358D01*
X001306Y008131D01*
X001220Y007922D01*
X001059Y007761D01*
X001018Y007744D01*
X001059Y007728D01*
X001220Y007567D01*
X001306Y007358D01*
X001306Y007131D01*
X001220Y006922D01*
X001059Y006761D01*
X001018Y006744D01*
X001059Y006728D01*
X001220Y006567D01*
X001306Y006358D01*
X001306Y006131D01*
X001220Y005922D01*
X001059Y005761D01*
X001018Y005744D01*
X001059Y005728D01*
X001220Y005567D01*
X001306Y005358D01*
X001306Y005131D01*
X001220Y004922D01*
X001059Y004761D01*
X001018Y004744D01*
X001059Y004728D01*
X001220Y004567D01*
X001306Y004358D01*
X001306Y004131D01*
X001220Y003922D01*
X001059Y003761D01*
X001018Y003744D01*
X001059Y003728D01*
X001220Y003567D01*
X001306Y003358D01*
X001306Y003131D01*
X001220Y002922D01*
X001059Y002761D01*
X001037Y002752D01*
X001059Y002743D01*
X001220Y002583D01*
X001306Y002374D01*
X001306Y002147D01*
X001220Y001937D01*
X001059Y001777D01*
X000850Y001690D01*
X000623Y001690D01*
X000600Y001700D01*
X000600Y001654D01*
X000640Y001671D01*
X000975Y001671D01*
X001285Y001542D01*
X001523Y001305D01*
X001544Y001253D02*
X003942Y001253D01*
X003950Y001245D02*
X004380Y001245D01*
X004685Y001550D01*
X004685Y001980D01*
X004380Y002285D01*
X003978Y002285D01*
X003978Y002687D01*
X003673Y002992D01*
X003243Y002992D01*
X002938Y002687D01*
X002938Y002257D01*
X003243Y001952D01*
X003645Y001952D01*
X003645Y001550D01*
X003950Y001245D01*
X003843Y001352D02*
X001476Y001352D01*
X001378Y001450D02*
X003745Y001450D01*
X003646Y001549D02*
X001270Y001549D01*
X001032Y001647D02*
X003645Y001647D01*
X003645Y001746D02*
X000983Y001746D01*
X001126Y001844D02*
X003645Y001844D01*
X003645Y001943D02*
X001222Y001943D01*
X001263Y002041D02*
X003154Y002041D01*
X003055Y002140D02*
X001303Y002140D01*
X001306Y002238D02*
X002957Y002238D01*
X002938Y002337D02*
X001306Y002337D01*
X001281Y002435D02*
X002938Y002435D01*
X002938Y002534D02*
X001240Y002534D01*
X001170Y002632D02*
X002938Y002632D01*
X002982Y002731D02*
X001072Y002731D01*
X001127Y002829D02*
X003080Y002829D01*
X003179Y002928D02*
X001222Y002928D01*
X001263Y003026D02*
X013210Y003026D01*
X013251Y002928D02*
X011177Y002928D01*
X011113Y002992D02*
X010682Y002992D01*
X010377Y002687D01*
X010377Y002285D01*
X009975Y002285D01*
X009670Y001980D01*
X009670Y001550D01*
X009975Y001245D01*
X010405Y001245D01*
X010710Y001550D01*
X010710Y001952D01*
X011113Y001952D01*
X011417Y002257D01*
X011417Y002687D01*
X011113Y002992D01*
X011275Y002829D02*
X013346Y002829D01*
X013422Y002731D02*
X011374Y002731D01*
X011417Y002632D02*
X013319Y002632D01*
X013240Y002534D02*
X011417Y002534D01*
X011417Y002435D02*
X013199Y002435D01*
X013167Y002337D02*
X011417Y002337D01*
X011399Y002238D02*
X013167Y002238D01*
X013167Y002140D02*
X011300Y002140D01*
X011202Y002041D02*
X013204Y002041D01*
X013245Y001943D02*
X010710Y001943D01*
X010710Y001844D02*
X013331Y001844D01*
X013452Y001746D02*
X010710Y001746D01*
X010710Y001647D02*
X013873Y001647D01*
X013873Y001549D02*
X010709Y001549D01*
X010611Y001450D02*
X013873Y001450D01*
X013873Y001352D02*
X010512Y001352D01*
X010414Y001253D02*
X013873Y001253D01*
X013873Y001155D02*
X001585Y001155D01*
X001626Y001056D02*
X013873Y001056D01*
X013873Y000958D02*
X001651Y000958D01*
X001651Y000859D02*
X013873Y000859D01*
X013873Y000761D02*
X001651Y000761D01*
X001651Y000662D02*
X013873Y000662D01*
X013169Y003125D02*
X001304Y003125D01*
X001306Y003223D02*
X013167Y003223D01*
X013167Y003322D02*
X001306Y003322D01*
X001281Y003420D02*
X013193Y003420D01*
X013234Y003519D02*
X001240Y003519D01*
X001170Y003617D02*
X013304Y003617D01*
X013402Y003716D02*
X001071Y003716D01*
X001112Y003814D02*
X013361Y003814D01*
X013263Y003913D02*
X001211Y003913D01*
X001257Y004011D02*
X013217Y004011D01*
X013176Y004110D02*
X001298Y004110D01*
X001306Y004208D02*
X013167Y004208D01*
X013167Y004307D02*
X001306Y004307D01*
X001287Y004405D02*
X013187Y004405D01*
X013227Y004504D02*
X008865Y004504D01*
X008860Y004504D02*
X008763Y004504D01*
X008763Y004503D02*
X008763Y004983D01*
X008860Y004983D01*
X008860Y004503D01*
X008936Y004515D01*
X009015Y004541D01*
X009089Y004579D01*
X009157Y004628D01*
X009216Y004687D01*
X009265Y004754D01*
X009303Y004828D01*
X009328Y004908D01*
X009340Y004983D01*
X008860Y004983D01*
X008860Y005080D01*
X009340Y005080D01*
X009328Y005156D01*
X009303Y005235D01*
X009265Y005310D01*
X009216Y005377D01*
X009157Y005436D01*
X009089Y005485D01*
X009015Y005523D01*
X008936Y005549D01*
X008860Y005561D01*
X008860Y005080D01*
X008763Y005080D01*
X008763Y004983D01*
X008282Y004983D01*
X008294Y004908D01*
X008320Y004828D01*
X008358Y004754D01*
X008407Y004687D01*
X008466Y004628D01*
X008534Y004579D01*
X008608Y004541D01*
X008687Y004515D01*
X008763Y004503D01*
X008758Y004504D02*
X007844Y004504D01*
X007744Y004462D02*
X007953Y004549D01*
X008113Y004709D01*
X008200Y004919D01*
X008200Y005145D01*
X008113Y005355D01*
X007953Y005515D01*
X007744Y005602D01*
X007517Y005602D01*
X007308Y005515D01*
X007147Y005355D01*
X007061Y005145D01*
X007061Y004919D01*
X007147Y004709D01*
X007308Y004549D01*
X007517Y004462D01*
X007744Y004462D01*
X008006Y004602D02*
X008501Y004602D01*
X008397Y004701D02*
X008105Y004701D01*
X008151Y004799D02*
X008335Y004799D01*
X008298Y004898D02*
X008191Y004898D01*
X008200Y004996D02*
X008763Y004996D01*
X008763Y005080D02*
X008282Y005080D01*
X008294Y005156D01*
X008320Y005235D01*
X008358Y005310D01*
X008407Y005377D01*
X008466Y005436D01*
X008534Y005485D01*
X008608Y005523D01*
X008687Y005549D01*
X008763Y005561D01*
X008763Y005080D01*
X008763Y005095D02*
X008860Y005095D01*
X008860Y005193D02*
X008763Y005193D01*
X008763Y005292D02*
X008860Y005292D01*
X008860Y005390D02*
X008763Y005390D01*
X008763Y005489D02*
X008860Y005489D01*
X009082Y005489D02*
X013221Y005489D01*
X013180Y005390D02*
X009203Y005390D01*
X009274Y005292D02*
X013167Y005292D01*
X013167Y005193D02*
X009316Y005193D01*
X009338Y005095D02*
X013182Y005095D01*
X013223Y004996D02*
X008860Y004996D01*
X008860Y004898D02*
X008763Y004898D01*
X008763Y004799D02*
X008860Y004799D01*
X008860Y004701D02*
X008763Y004701D01*
X008763Y004602D02*
X008860Y004602D01*
X009122Y004602D02*
X013289Y004602D01*
X013387Y004701D02*
X009226Y004701D01*
X009288Y004799D02*
X013376Y004799D01*
X013278Y004898D02*
X009325Y004898D01*
X008541Y005489D02*
X007979Y005489D01*
X008078Y005390D02*
X008420Y005390D01*
X008349Y005292D02*
X008139Y005292D01*
X008180Y005193D02*
X008307Y005193D01*
X008285Y005095D02*
X008200Y005095D01*
X007778Y005587D02*
X013274Y005587D01*
X013372Y005686D02*
X001101Y005686D01*
X001082Y005784D02*
X013391Y005784D01*
X013293Y005883D02*
X001181Y005883D01*
X001244Y005981D02*
X013229Y005981D01*
X013188Y006080D02*
X001285Y006080D01*
X001306Y006178D02*
X013167Y006178D01*
X013167Y006277D02*
X001306Y006277D01*
X001299Y006375D02*
X013174Y006375D01*
X013215Y006474D02*
X001258Y006474D01*
X001215Y006572D02*
X013259Y006572D01*
X013357Y006671D02*
X001116Y006671D01*
X001067Y006769D02*
X013406Y006769D01*
X013308Y006868D02*
X001166Y006868D01*
X001238Y006966D02*
X013235Y006966D01*
X013194Y007065D02*
X001279Y007065D01*
X001306Y007163D02*
X013167Y007163D01*
X013167Y007262D02*
X001306Y007262D01*
X001305Y007360D02*
X013168Y007360D01*
X013209Y007459D02*
X001265Y007459D01*
X001224Y007557D02*
X003151Y007557D01*
X003243Y007466D02*
X002938Y007770D01*
X002938Y008201D01*
X003243Y008505D01*
X003645Y008505D01*
X003645Y008908D01*
X003950Y009212D01*
X004380Y009212D01*
X004659Y008933D01*
X005082Y008933D01*
X005171Y009022D01*
X005444Y009022D01*
X005636Y008830D01*
X005636Y008557D01*
X005500Y008421D01*
X009726Y008421D01*
X009670Y008477D01*
X009670Y008908D01*
X009975Y009212D01*
X010405Y009212D01*
X010710Y008908D01*
X010710Y008505D01*
X011113Y008505D01*
X011417Y008201D01*
X011417Y007770D01*
X011113Y007466D01*
X010682Y007466D01*
X010377Y007770D01*
X010377Y007942D01*
X003978Y007942D01*
X003978Y007770D01*
X003673Y007466D01*
X003243Y007466D01*
X003052Y007656D02*
X001131Y007656D01*
X001042Y007754D02*
X002954Y007754D01*
X002938Y007853D02*
X001151Y007853D01*
X001232Y007951D02*
X002938Y007951D01*
X002938Y008050D02*
X001273Y008050D01*
X001306Y008148D02*
X002938Y008148D01*
X002984Y008247D02*
X001306Y008247D01*
X001306Y008345D02*
X003083Y008345D01*
X003181Y008444D02*
X001271Y008444D01*
X001230Y008542D02*
X003645Y008542D01*
X003645Y008641D02*
X001146Y008641D01*
X001031Y008739D02*
X003645Y008739D01*
X003645Y008838D02*
X000600Y008838D01*
X000600Y008936D02*
X003674Y008936D01*
X003772Y009035D02*
X000600Y009035D01*
X000600Y009133D02*
X003871Y009133D01*
X004165Y008693D02*
X004244Y008693D01*
X005307Y008693D01*
X005082Y008454D02*
X005115Y008421D01*
X004629Y008421D01*
X004661Y008454D01*
X005082Y008454D01*
X005092Y008444D02*
X004651Y008444D01*
X004656Y008936D02*
X005085Y008936D01*
X005530Y008936D02*
X009699Y008936D01*
X009670Y008838D02*
X005628Y008838D01*
X005636Y008739D02*
X009670Y008739D01*
X009670Y008641D02*
X005636Y008641D01*
X005621Y008542D02*
X009670Y008542D01*
X009704Y008444D02*
X005523Y008444D01*
X004558Y009035D02*
X009797Y009035D01*
X009896Y009133D02*
X004459Y009133D01*
X003654Y008181D02*
X003458Y007985D01*
X003654Y008181D02*
X010662Y008181D01*
X010897Y007985D01*
X011272Y008345D02*
X013167Y008345D01*
X013167Y008247D02*
X011371Y008247D01*
X011417Y008148D02*
X013167Y008148D01*
X013201Y008050D02*
X011417Y008050D01*
X011417Y007951D02*
X013241Y007951D01*
X013323Y007853D02*
X011417Y007853D01*
X011401Y007754D02*
X013431Y007754D01*
X013342Y007656D02*
X011303Y007656D01*
X011204Y007557D02*
X013249Y007557D01*
X013202Y008444D02*
X011174Y008444D01*
X010710Y008542D02*
X013243Y008542D01*
X013327Y008641D02*
X010710Y008641D01*
X010710Y008739D02*
X013442Y008739D01*
X013321Y008838D02*
X010710Y008838D01*
X010681Y008936D02*
X013108Y008936D01*
X013009Y009035D02*
X010583Y009035D01*
X010484Y009133D02*
X012911Y009133D01*
X012856Y009232D02*
X000600Y009232D01*
X000600Y009330D02*
X012815Y009330D01*
X012775Y009429D02*
X000600Y009429D01*
X000600Y009527D02*
X012759Y009527D01*
X012759Y009626D02*
X000600Y009626D01*
X000600Y009724D02*
X012759Y009724D01*
X012768Y009823D02*
X000600Y009823D01*
X000600Y009921D02*
X012808Y009921D01*
X012849Y010020D02*
X000600Y010020D01*
X000600Y010118D02*
X012894Y010118D01*
X012992Y010217D02*
X000600Y010217D01*
X000600Y010315D02*
X013091Y010315D01*
X013280Y010414D02*
X000600Y010414D01*
X000600Y010512D02*
X013873Y010512D01*
X013873Y010611D02*
X000600Y010611D01*
X000600Y010709D02*
X003578Y010709D01*
X003383Y010808D02*
X003016Y010808D01*
X003132Y010906D02*
X003285Y010906D01*
X003226Y011005D02*
X003201Y011005D01*
X002785Y011005D02*
X002688Y011005D01*
X002688Y011103D02*
X002785Y011103D01*
X002785Y011202D02*
X002688Y011202D01*
X002737Y011260D02*
X002670Y011292D01*
X002688Y011300D02*
X001785Y011300D01*
X001688Y011300D02*
X000600Y011300D01*
X000600Y011202D02*
X001209Y011202D01*
X001230Y011103D02*
X000600Y011103D01*
X000600Y011005D02*
X001272Y011005D01*
X001341Y010906D02*
X000600Y010906D01*
X000600Y010808D02*
X001458Y010808D01*
X001688Y010808D02*
X001785Y010808D01*
X001785Y010906D02*
X001688Y010906D01*
X001688Y011005D02*
X001785Y011005D01*
X001785Y011103D02*
X001688Y011103D01*
X001688Y011202D02*
X001785Y011202D01*
X002132Y010906D02*
X002341Y010906D01*
X002272Y011005D02*
X002201Y011005D01*
X002016Y010808D02*
X002458Y010808D01*
X002688Y010808D02*
X002785Y010808D01*
X002785Y010906D02*
X002688Y010906D01*
X003895Y010709D02*
X004578Y010709D01*
X004383Y010808D02*
X004090Y010808D01*
X004188Y010906D02*
X004285Y010906D01*
X004895Y010709D02*
X005578Y010709D01*
X005383Y010808D02*
X005090Y010808D01*
X005188Y010906D02*
X005285Y010906D01*
X005895Y010709D02*
X006578Y010709D01*
X006383Y010808D02*
X006090Y010808D01*
X006188Y010906D02*
X006285Y010906D01*
X006895Y010709D02*
X007616Y010709D01*
X007399Y010808D02*
X007090Y010808D01*
X007188Y010906D02*
X007301Y010906D01*
X007857Y010709D02*
X008616Y010709D01*
X008399Y010808D02*
X008074Y010808D01*
X008173Y010906D02*
X008301Y010906D01*
X008857Y010709D02*
X009616Y010709D01*
X009399Y010808D02*
X009074Y010808D01*
X009173Y010906D02*
X009301Y010906D01*
X009857Y010709D02*
X010616Y010709D01*
X010399Y010808D02*
X010074Y010808D01*
X010173Y010906D02*
X010301Y010906D01*
X010857Y010709D02*
X011616Y010709D01*
X011857Y010709D02*
X012616Y010709D01*
X012857Y010709D02*
X013873Y010709D01*
X013873Y010808D02*
X013074Y010808D01*
X013173Y010906D02*
X013873Y010906D01*
X013873Y011005D02*
X013241Y011005D01*
X013282Y011103D02*
X013873Y011103D01*
X013873Y011202D02*
X013306Y011202D01*
X013306Y011300D02*
X013873Y011300D01*
X013873Y011399D02*
X013302Y011399D01*
X012399Y010808D02*
X012074Y010808D01*
X012173Y010906D02*
X012301Y010906D01*
X011399Y010808D02*
X011074Y010808D01*
X011173Y010906D02*
X011301Y010906D01*
X013828Y008814D02*
X013873Y008833D01*
X013873Y008805D01*
X013850Y008814D01*
X013828Y008814D01*
X010590Y007557D02*
X003765Y007557D01*
X003863Y007656D02*
X010492Y007656D01*
X010393Y007754D02*
X003962Y007754D01*
X003978Y007853D02*
X010377Y007853D01*
X007482Y005587D02*
X005810Y005587D01*
X005775Y005602D02*
X005985Y005515D01*
X006145Y005355D01*
X006232Y005145D01*
X006232Y004919D01*
X006145Y004709D01*
X005985Y004549D01*
X005775Y004462D01*
X005548Y004462D01*
X005339Y004549D01*
X005179Y004709D01*
X005092Y004919D01*
X005092Y005145D01*
X005179Y005355D01*
X005339Y005515D01*
X005548Y005602D01*
X005775Y005602D01*
X005514Y005587D02*
X001200Y005587D01*
X001252Y005489D02*
X005313Y005489D01*
X005214Y005390D02*
X001293Y005390D01*
X001306Y005292D02*
X005153Y005292D01*
X005112Y005193D02*
X001306Y005193D01*
X001291Y005095D02*
X005092Y005095D01*
X005092Y004996D02*
X001251Y004996D01*
X001196Y004898D02*
X005101Y004898D01*
X005141Y004799D02*
X001097Y004799D01*
X001086Y004701D02*
X005187Y004701D01*
X005286Y004602D02*
X001185Y004602D01*
X001246Y004504D02*
X005448Y004504D01*
X005876Y004504D02*
X007416Y004504D01*
X007254Y004602D02*
X006038Y004602D01*
X006136Y004701D02*
X007156Y004701D01*
X007110Y004799D02*
X006182Y004799D01*
X006223Y004898D02*
X007069Y004898D01*
X007061Y004996D02*
X006232Y004996D01*
X006232Y005095D02*
X007061Y005095D01*
X007080Y005193D02*
X006212Y005193D01*
X006171Y005292D02*
X007121Y005292D01*
X007183Y005390D02*
X006109Y005390D01*
X006011Y005489D02*
X007281Y005489D01*
X010519Y002829D02*
X003836Y002829D01*
X003934Y002731D02*
X010421Y002731D01*
X010377Y002632D02*
X003978Y002632D01*
X003978Y002534D02*
X010377Y002534D01*
X010377Y002435D02*
X003978Y002435D01*
X003978Y002337D02*
X010377Y002337D01*
X009928Y002238D02*
X004427Y002238D01*
X004525Y002140D02*
X009830Y002140D01*
X009731Y002041D02*
X004624Y002041D01*
X004685Y001943D02*
X009670Y001943D01*
X009670Y001844D02*
X004685Y001844D01*
X004685Y001746D02*
X009670Y001746D01*
X009670Y001647D02*
X004685Y001647D01*
X004684Y001549D02*
X009671Y001549D01*
X009770Y001450D02*
X004585Y001450D01*
X004487Y001352D02*
X009868Y001352D01*
X009967Y001253D02*
X004388Y001253D01*
X003737Y002928D02*
X010618Y002928D01*
X001224Y011399D02*
X000600Y011399D01*
D13*
X005307Y008693D03*
M02*
