G75*
G70*
%OFA0B0*%
%FSLAX24Y24*%
%IPPOS*%
%LPD*%
%AMOC8*
5,1,8,0,0,1.08239X$1,22.5*
%
%ADD10C,0.0840*%
%ADD11OC8,0.0840*%
%ADD12C,0.0867*%
%ADD13OC8,0.0740*%
%ADD14C,0.1970*%
%ADD15C,0.0680*%
%ADD16C,0.1380*%
%ADD17R,0.0671X0.0680*%
%ADD18OC8,0.0780*%
%ADD19C,0.0780*%
D10*
X002075Y007205D03*
X002075Y008189D03*
X002075Y009189D03*
X002075Y010189D03*
X002075Y011189D03*
X002075Y012189D03*
X002075Y013189D03*
X003075Y016205D03*
X004075Y016205D03*
X005075Y016205D03*
X006075Y016205D03*
X007075Y016205D03*
X008075Y016205D03*
X009075Y016221D03*
X010075Y016221D03*
X011075Y016221D03*
X012075Y016221D03*
X013075Y016221D03*
X014075Y016221D03*
X015075Y013189D03*
X015075Y012189D03*
X015075Y011189D03*
X015075Y010189D03*
X015075Y009189D03*
X015075Y008189D03*
X015075Y007189D03*
D11*
X009075Y006185D03*
X008075Y006185D03*
X008075Y005185D03*
X008075Y004185D03*
X009075Y004185D03*
X009075Y005185D03*
D12*
X002146Y005772D03*
X014941Y014579D03*
D13*
X017989Y014315D03*
X017989Y013315D03*
X017989Y012315D03*
X017989Y011315D03*
X017989Y010315D03*
X017989Y009315D03*
X017989Y007315D03*
X017989Y006315D03*
X017989Y005315D03*
X017989Y004315D03*
X017989Y003315D03*
X017989Y002315D03*
X017989Y015315D03*
X017989Y016315D03*
X036989Y015915D03*
X036989Y016915D03*
X036989Y017915D03*
X036989Y018915D03*
X036989Y019915D03*
X036989Y014915D03*
X036989Y013915D03*
X036989Y012915D03*
X036989Y011915D03*
X036989Y010915D03*
X036989Y009315D03*
X036989Y008315D03*
X036989Y007315D03*
X036989Y006315D03*
X036989Y005315D03*
X036989Y004315D03*
X036989Y003315D03*
X036989Y002315D03*
D14*
X005579Y021449D03*
X003256Y021449D03*
X004398Y019599D03*
D15*
X010161Y019229D02*
X010761Y019229D01*
X010761Y020229D02*
X010161Y020229D01*
X010161Y021229D02*
X010761Y021229D01*
D16*
X016361Y020229D03*
D17*
X008772Y020248D03*
X007394Y020248D03*
D18*
X007524Y022197D03*
X007524Y018260D03*
D19*
X008524Y018260D03*
X008524Y022197D03*
M02*
