G75*
G70*
%OFA0B0*%
%FSLAX24Y24*%
%IPPOS*%
%LPD*%
%AMOC8*
5,1,8,0,0,1.08239X$1,22.5*
%
%ADD10C,0.0100*%
%ADD11C,0.0080*%
%ADD12C,0.0000*%
%ADD13R,0.0338X0.0010*%
%ADD14R,0.0492X0.0010*%
%ADD15R,0.0605X0.0010*%
%ADD16R,0.0697X0.0010*%
%ADD17R,0.0779X0.0010*%
%ADD18R,0.0851X0.0010*%
%ADD19R,0.0923X0.0010*%
%ADD20R,0.0984X0.0010*%
%ADD21R,0.1046X0.0010*%
%ADD22R,0.1107X0.0010*%
%ADD23R,0.1148X0.0010*%
%ADD24R,0.1210X0.0010*%
%ADD25R,0.1251X0.0010*%
%ADD26R,0.1292X0.0010*%
%ADD27R,0.1333X0.0010*%
%ADD28R,0.0625X0.0010*%
%ADD29R,0.0646X0.0010*%
%ADD30R,0.0523X0.0010*%
%ADD31R,0.0543X0.0010*%
%ADD32R,0.0482X0.0010*%
%ADD33R,0.0492X0.0010*%
%ADD34R,0.0451X0.0010*%
%ADD35R,0.0461X0.0010*%
%ADD36R,0.0431X0.0010*%
%ADD37R,0.0441X0.0010*%
%ADD38R,0.0410X0.0010*%
%ADD39R,0.0420X0.0010*%
%ADD40R,0.0400X0.0010*%
%ADD41R,0.0379X0.0010*%
%ADD42R,0.0390X0.0010*%
%ADD43R,0.0369X0.0010*%
%ADD44R,0.0379X0.0010*%
%ADD45R,0.0359X0.0010*%
%ADD46R,0.0349X0.0010*%
%ADD47R,0.0349X0.0010*%
%ADD48R,0.0338X0.0010*%
%ADD49R,0.0328X0.0010*%
%ADD50R,0.0318X0.0010*%
%ADD51R,0.0318X0.0010*%
%ADD52R,0.0308X0.0010*%
%ADD53R,0.0308X0.0010*%
%ADD54R,0.0297X0.0010*%
%ADD55R,0.0287X0.0010*%
%ADD56R,0.0287X0.0010*%
%ADD57R,0.0287X0.0010*%
%ADD58R,0.0277X0.0010*%
%ADD59R,0.0277X0.0010*%
%ADD60R,0.0267X0.0010*%
%ADD61R,0.0267X0.0010*%
%ADD62R,0.0256X0.0010*%
%ADD63R,0.0256X0.0010*%
%ADD64R,0.0246X0.0010*%
%ADD65R,0.0246X0.0010*%
%ADD66R,0.0256X0.0010*%
%ADD67R,0.0236X0.0010*%
%ADD68R,0.0092X0.0010*%
%ADD69R,0.0236X0.0010*%
%ADD70R,0.0236X0.0010*%
%ADD71R,0.0533X0.0010*%
%ADD72R,0.0236X0.0010*%
%ADD73R,0.0677X0.0010*%
%ADD74R,0.0748X0.0010*%
%ADD75R,0.0226X0.0010*%
%ADD76R,0.0800X0.0010*%
%ADD77R,0.0851X0.0010*%
%ADD78R,0.0226X0.0010*%
%ADD79R,0.0902X0.0010*%
%ADD80R,0.0954X0.0010*%
%ADD81R,0.0215X0.0010*%
%ADD82R,0.0995X0.0010*%
%ADD83R,0.0215X0.0010*%
%ADD84R,0.1036X0.0010*%
%ADD85R,0.1076X0.0010*%
%ADD86R,0.0226X0.0010*%
%ADD87R,0.1118X0.0010*%
%ADD88R,0.0215X0.0010*%
%ADD89R,0.0533X0.0010*%
%ADD90R,0.0543X0.0010*%
%ADD91R,0.0441X0.0010*%
%ADD92R,0.0205X0.0010*%
%ADD93R,0.0400X0.0010*%
%ADD94R,0.0410X0.0010*%
%ADD95R,0.0205X0.0010*%
%ADD96R,0.0359X0.0010*%
%ADD97R,0.0195X0.0010*%
%ADD98R,0.0195X0.0010*%
%ADD99R,0.0328X0.0010*%
%ADD100R,0.0328X0.0010*%
%ADD101R,0.0185X0.0010*%
%ADD102R,0.0185X0.0010*%
%ADD103R,0.0174X0.0010*%
%ADD104R,0.0164X0.0010*%
%ADD105R,0.0144X0.0010*%
%ADD106R,0.0287X0.0010*%
%ADD107R,0.0154X0.0010*%
%ADD108R,0.0123X0.0010*%
%ADD109R,0.0277X0.0010*%
%ADD110R,0.0103X0.0010*%
%ADD111R,0.0267X0.0010*%
%ADD112R,0.0061X0.0010*%
%ADD113R,0.0072X0.0010*%
%ADD114R,0.0226X0.0010*%
%ADD115R,0.0195X0.0010*%
%ADD116R,0.0185X0.0010*%
%ADD117R,0.0144X0.0010*%
%ADD118R,0.0123X0.0010*%
%ADD119R,0.0533X0.0010*%
%ADD120R,0.0133X0.0010*%
%ADD121R,0.0113X0.0010*%
%ADD122R,0.0574X0.0010*%
%ADD123R,0.0092X0.0010*%
%ADD124R,0.0605X0.0010*%
%ADD125R,0.0092X0.0010*%
%ADD126R,0.0062X0.0010*%
%ADD127R,0.0646X0.0010*%
%ADD128R,0.0707X0.0010*%
%ADD129R,0.0728X0.0010*%
%ADD130R,0.0769X0.0010*%
%ADD131R,0.0789X0.0010*%
%ADD132R,0.0369X0.0010*%
%ADD133R,0.0256X0.0010*%
%ADD134R,0.0205X0.0010*%
%ADD135R,0.0164X0.0010*%
%ADD136R,0.0144X0.0010*%
%ADD137R,0.0082X0.0010*%
%ADD138R,0.0092X0.0010*%
%ADD139R,0.0072X0.0010*%
%ADD140R,0.0103X0.0010*%
%ADD141R,0.0113X0.0010*%
%ADD142R,0.0031X0.0010*%
%ADD143R,0.0133X0.0010*%
%ADD144R,0.0441X0.0010*%
%ADD145R,0.0144X0.0010*%
%ADD146R,0.0133X0.0010*%
%ADD147R,0.0472X0.0010*%
%ADD148R,0.0502X0.0010*%
%ADD149R,0.0533X0.0010*%
%ADD150R,0.0174X0.0010*%
%ADD151R,0.0174X0.0010*%
%ADD152R,0.0154X0.0010*%
%ADD153R,0.0164X0.0010*%
%ADD154R,0.0174X0.0010*%
%ADD155R,0.0020X0.0010*%
%ADD156R,0.0113X0.0010*%
%ADD157R,0.0502X0.0010*%
%ADD158R,0.0513X0.0010*%
%ADD159R,0.0523X0.0010*%
%ADD160R,0.0103X0.0010*%
%ADD161R,0.0113X0.0010*%
%ADD162R,0.0625X0.0010*%
%ADD163R,0.0103X0.0010*%
%ADD164R,0.0154X0.0010*%
%ADD165R,0.0082X0.0010*%
%ADD166R,0.0051X0.0010*%
%ADD167R,0.0595X0.0010*%
%ADD168R,0.0615X0.0010*%
%ADD169R,0.0636X0.0010*%
%ADD170R,0.0656X0.0010*%
%ADD171R,0.0154X0.0010*%
%ADD172R,0.0656X0.0010*%
%ADD173R,0.0185X0.0010*%
%ADD174R,0.0636X0.0010*%
%ADD175R,0.0082X0.0010*%
%ADD176R,0.0574X0.0010*%
%ADD177R,0.0205X0.0010*%
%ADD178R,0.0800X0.0010*%
%ADD179R,0.0769X0.0010*%
%ADD180R,0.0748X0.0010*%
%ADD181R,0.0718X0.0010*%
%ADD182R,0.0687X0.0010*%
%ADD183R,0.0656X0.0010*%
%ADD184R,0.0041X0.0010*%
%ADD185R,0.0584X0.0010*%
%ADD186R,0.0554X0.0010*%
%ADD187R,0.0461X0.0010*%
%ADD188R,0.0349X0.0010*%
%ADD189R,0.0267X0.0010*%
%ADD190R,0.0297X0.0010*%
%ADD191R,0.0482X0.0010*%
%ADD192R,0.0215X0.0010*%
%ADD193R,0.1128X0.0010*%
%ADD194R,0.1087X0.0010*%
%ADD195R,0.1005X0.0010*%
%ADD196R,0.0964X0.0010*%
%ADD197R,0.0923X0.0010*%
%ADD198R,0.0871X0.0010*%
%ADD199R,0.0820X0.0010*%
%ADD200R,0.0759X0.0010*%
%ADD201R,0.0554X0.0010*%
%ADD202R,0.0472X0.0010*%
%ADD203R,0.0359X0.0010*%
%ADD204R,0.0379X0.0010*%
%ADD205R,0.0431X0.0010*%
%ADD206R,0.0451X0.0010*%
%ADD207R,0.0472X0.0010*%
%ADD208R,0.0513X0.0010*%
%ADD209R,0.1353X0.0010*%
%ADD210R,0.1312X0.0010*%
%ADD211R,0.1271X0.0010*%
%ADD212R,0.1220X0.0010*%
%ADD213R,0.1169X0.0010*%
%ADD214R,0.1118X0.0010*%
%ADD215R,0.1066X0.0010*%
%ADD216R,0.0943X0.0010*%
%ADD217R,0.0882X0.0010*%
%ADD218R,0.0810X0.0010*%
%ADD219R,0.0728X0.0010*%
D10*
X000150Y003300D02*
X000150Y023772D01*
X014717Y023772D01*
X017079Y026922D01*
X038260Y026922D01*
X038260Y000150D01*
X017079Y000150D01*
X014717Y003300D01*
X000150Y003300D01*
X025420Y012623D02*
X025571Y012623D01*
X025621Y012673D01*
X025571Y012723D01*
X025420Y012723D01*
X025420Y012773D02*
X025420Y012623D01*
X025420Y012773D02*
X025471Y012823D01*
X025571Y012823D01*
X025816Y012823D02*
X025816Y012623D01*
X025866Y012623D02*
X025766Y012623D01*
X025816Y012823D02*
X025866Y012823D01*
X025816Y012923D02*
X025816Y012973D01*
X026034Y012923D02*
X026034Y012623D01*
X026184Y012623D01*
X026234Y012673D01*
X026234Y012773D01*
X026184Y012823D01*
X026034Y012823D01*
X026403Y012773D02*
X026403Y012623D01*
X026403Y012773D02*
X026453Y012823D01*
X026603Y012823D01*
X026603Y012623D01*
X026748Y012623D02*
X026848Y012623D01*
X026798Y012623D02*
X026798Y012923D01*
X026848Y012923D02*
X026748Y012923D01*
X027385Y012773D02*
X027385Y012623D01*
X027385Y012773D02*
X027435Y012823D01*
X027585Y012823D01*
X027585Y012623D01*
X027730Y012623D02*
X027831Y012623D01*
X027780Y012623D02*
X027780Y012923D01*
X027730Y012923D02*
X027831Y012923D01*
X028367Y012773D02*
X028367Y012723D01*
X028567Y012723D01*
X028567Y012773D02*
X028517Y012823D01*
X028417Y012823D01*
X028367Y012773D01*
X028417Y012623D02*
X028517Y012623D01*
X028567Y012673D01*
X028567Y012773D01*
X028735Y012823D02*
X028885Y012823D01*
X028935Y012773D01*
X028935Y012673D01*
X028885Y012623D01*
X028735Y012623D01*
X028735Y012923D01*
X029104Y012773D02*
X029104Y012623D01*
X029254Y012623D01*
X029304Y012673D01*
X029254Y012723D01*
X029104Y012723D01*
X029104Y012773D02*
X029154Y012823D01*
X029254Y012823D01*
X029472Y012923D02*
X029472Y012623D01*
X029672Y012623D02*
X029672Y012923D01*
X029572Y012823D01*
X029472Y012923D01*
D11*
X028847Y012242D02*
X028807Y012242D01*
X028807Y012002D01*
X028847Y012002D02*
X028767Y012002D01*
X028651Y012002D02*
X028571Y012002D01*
X028611Y012002D02*
X028611Y012162D01*
X028651Y012162D01*
X028611Y012242D02*
X028611Y012283D01*
X028454Y012162D02*
X028334Y012162D01*
X028294Y012122D01*
X028294Y012002D01*
X028160Y012042D02*
X028120Y012002D01*
X028000Y012002D01*
X028000Y011962D02*
X028000Y012162D01*
X028120Y012162D01*
X028160Y012122D01*
X028160Y012042D01*
X028080Y011922D02*
X028040Y011922D01*
X028000Y011962D01*
X027570Y012002D02*
X027570Y012242D01*
X027570Y012122D02*
X027410Y012122D01*
X027410Y012242D02*
X027410Y012002D01*
X027276Y012042D02*
X027236Y012002D01*
X027156Y012002D01*
X027116Y012042D01*
X027116Y012122D01*
X027156Y012162D01*
X027236Y012162D01*
X027276Y012122D01*
X027276Y012042D01*
X026981Y012042D02*
X026941Y012002D01*
X026821Y012002D01*
X026821Y012162D01*
X026686Y012162D02*
X026686Y012002D01*
X026686Y012082D02*
X026606Y012162D01*
X026566Y012162D01*
X026981Y012162D02*
X026981Y012042D01*
X026146Y012042D02*
X026106Y012002D01*
X026026Y012002D01*
X025986Y012042D01*
X025852Y012002D02*
X025852Y012162D01*
X025852Y012082D02*
X025772Y012162D01*
X025732Y012162D01*
X025606Y012122D02*
X025566Y012162D01*
X025486Y012162D01*
X025446Y012122D01*
X025446Y012082D01*
X025606Y012082D01*
X025606Y012042D02*
X025606Y012122D01*
X025606Y012042D02*
X025566Y012002D01*
X025486Y012002D01*
X025311Y012042D02*
X025271Y012082D01*
X025151Y012082D01*
X025151Y012122D02*
X025151Y012002D01*
X025271Y012002D01*
X025311Y012042D01*
X025271Y012162D02*
X025191Y012162D01*
X025151Y012122D01*
X025017Y012162D02*
X024937Y012162D01*
X024977Y012202D02*
X024977Y012042D01*
X024937Y012002D01*
X024820Y012002D02*
X024740Y012002D01*
X024780Y012002D02*
X024780Y012162D01*
X024820Y012162D01*
X024780Y012242D02*
X024780Y012283D01*
X024624Y012122D02*
X024624Y012042D01*
X024584Y012002D01*
X024504Y012002D01*
X024464Y012042D01*
X024464Y012122D01*
X024504Y012162D01*
X024584Y012162D01*
X024624Y012122D01*
X024329Y012162D02*
X024209Y012162D01*
X024169Y012122D01*
X024169Y012002D01*
X024035Y012002D02*
X023914Y012002D01*
X023874Y012042D01*
X023914Y012082D01*
X023995Y012082D01*
X024035Y012122D01*
X023995Y012162D01*
X023874Y012162D01*
X024329Y012162D02*
X024329Y012002D01*
X025986Y012202D02*
X026026Y012242D01*
X026106Y012242D01*
X026146Y012202D01*
X026146Y012042D01*
X028454Y012002D02*
X028454Y012162D01*
X028982Y012122D02*
X028982Y012002D01*
X029102Y012002D01*
X029142Y012042D01*
X029102Y012082D01*
X028982Y012082D01*
X028982Y012122D02*
X029022Y012162D01*
X029102Y012162D01*
X029276Y012122D02*
X029276Y012082D01*
X029437Y012082D01*
X029437Y012042D02*
X029437Y012122D01*
X029397Y012162D01*
X029316Y012162D01*
X029276Y012122D01*
X029316Y012002D02*
X029397Y012002D01*
X029437Y012042D01*
X029571Y012162D02*
X029651Y012002D01*
X029731Y012162D01*
X029866Y012122D02*
X029866Y012082D01*
X030026Y012082D01*
X030026Y012042D02*
X030026Y012122D01*
X029986Y012162D01*
X029906Y012162D01*
X029866Y012122D01*
X029906Y012002D02*
X029986Y012002D01*
X030026Y012042D01*
X030160Y012002D02*
X030240Y012082D01*
X030200Y012082D02*
X030321Y012082D01*
X030321Y012002D02*
X030321Y012242D01*
X030200Y012242D01*
X030160Y012202D01*
X030160Y012122D01*
X030200Y012082D01*
X030750Y012002D02*
X030870Y012002D01*
X030910Y012042D01*
X030910Y012162D01*
X031044Y012122D02*
X031084Y012162D01*
X031204Y012162D01*
X031204Y012242D02*
X031204Y012002D01*
X031084Y012002D01*
X031044Y012042D01*
X031044Y012122D01*
X030830Y011922D02*
X030790Y011922D01*
X030750Y011962D01*
X030750Y012162D01*
D12*
X037989Y001915D02*
X037989Y027315D01*
X016989Y027315D01*
X016989Y001315D01*
X017989Y001315D01*
X018989Y000315D01*
X031889Y000315D01*
X032889Y001315D01*
X037389Y001315D01*
X037989Y001915D01*
X014547Y014579D02*
X014549Y014618D01*
X014555Y014657D01*
X014565Y014695D01*
X014578Y014732D01*
X014595Y014767D01*
X014615Y014801D01*
X014639Y014832D01*
X014666Y014861D01*
X014695Y014887D01*
X014727Y014910D01*
X014761Y014930D01*
X014797Y014946D01*
X014834Y014958D01*
X014873Y014967D01*
X014912Y014972D01*
X014951Y014973D01*
X014990Y014970D01*
X015029Y014963D01*
X015066Y014952D01*
X015103Y014938D01*
X015138Y014920D01*
X015171Y014899D01*
X015202Y014874D01*
X015230Y014847D01*
X015255Y014817D01*
X015277Y014784D01*
X015296Y014750D01*
X015311Y014714D01*
X015323Y014676D01*
X015331Y014638D01*
X015335Y014599D01*
X015335Y014559D01*
X015331Y014520D01*
X015323Y014482D01*
X015311Y014444D01*
X015296Y014408D01*
X015277Y014374D01*
X015255Y014341D01*
X015230Y014311D01*
X015202Y014284D01*
X015171Y014259D01*
X015138Y014238D01*
X015103Y014220D01*
X015066Y014206D01*
X015029Y014195D01*
X014990Y014188D01*
X014951Y014185D01*
X014912Y014186D01*
X014873Y014191D01*
X014834Y014200D01*
X014797Y014212D01*
X014761Y014228D01*
X014727Y014248D01*
X014695Y014271D01*
X014666Y014297D01*
X014639Y014326D01*
X014615Y014357D01*
X014595Y014391D01*
X014578Y014426D01*
X014565Y014463D01*
X014555Y014501D01*
X014549Y014540D01*
X014547Y014579D01*
X015711Y020229D02*
X015713Y020279D01*
X015719Y020329D01*
X015729Y020379D01*
X015742Y020427D01*
X015759Y020475D01*
X015780Y020521D01*
X015804Y020565D01*
X015832Y020607D01*
X015863Y020647D01*
X015897Y020684D01*
X015934Y020719D01*
X015973Y020750D01*
X016014Y020779D01*
X016058Y020804D01*
X016104Y020826D01*
X016151Y020844D01*
X016199Y020858D01*
X016248Y020869D01*
X016298Y020876D01*
X016348Y020879D01*
X016399Y020878D01*
X016449Y020873D01*
X016499Y020864D01*
X016547Y020852D01*
X016595Y020835D01*
X016641Y020815D01*
X016686Y020792D01*
X016729Y020765D01*
X016769Y020735D01*
X016807Y020702D01*
X016842Y020666D01*
X016875Y020627D01*
X016904Y020586D01*
X016930Y020543D01*
X016953Y020498D01*
X016972Y020451D01*
X016987Y020403D01*
X016999Y020354D01*
X017007Y020304D01*
X017011Y020254D01*
X017011Y020204D01*
X017007Y020154D01*
X016999Y020104D01*
X016987Y020055D01*
X016972Y020007D01*
X016953Y019960D01*
X016930Y019915D01*
X016904Y019872D01*
X016875Y019831D01*
X016842Y019792D01*
X016807Y019756D01*
X016769Y019723D01*
X016729Y019693D01*
X016686Y019666D01*
X016641Y019643D01*
X016595Y019623D01*
X016547Y019606D01*
X016499Y019594D01*
X016449Y019585D01*
X016399Y019580D01*
X016348Y019579D01*
X016298Y019582D01*
X016248Y019589D01*
X016199Y019600D01*
X016151Y019614D01*
X016104Y019632D01*
X016058Y019654D01*
X016014Y019679D01*
X015973Y019708D01*
X015934Y019739D01*
X015897Y019774D01*
X015863Y019811D01*
X015832Y019851D01*
X015804Y019893D01*
X015780Y019937D01*
X015759Y019983D01*
X015742Y020031D01*
X015729Y020079D01*
X015719Y020129D01*
X015713Y020179D01*
X015711Y020229D01*
X001752Y005772D02*
X001754Y005811D01*
X001760Y005850D01*
X001770Y005888D01*
X001783Y005925D01*
X001800Y005960D01*
X001820Y005994D01*
X001844Y006025D01*
X001871Y006054D01*
X001900Y006080D01*
X001932Y006103D01*
X001966Y006123D01*
X002002Y006139D01*
X002039Y006151D01*
X002078Y006160D01*
X002117Y006165D01*
X002156Y006166D01*
X002195Y006163D01*
X002234Y006156D01*
X002271Y006145D01*
X002308Y006131D01*
X002343Y006113D01*
X002376Y006092D01*
X002407Y006067D01*
X002435Y006040D01*
X002460Y006010D01*
X002482Y005977D01*
X002501Y005943D01*
X002516Y005907D01*
X002528Y005869D01*
X002536Y005831D01*
X002540Y005792D01*
X002540Y005752D01*
X002536Y005713D01*
X002528Y005675D01*
X002516Y005637D01*
X002501Y005601D01*
X002482Y005567D01*
X002460Y005534D01*
X002435Y005504D01*
X002407Y005477D01*
X002376Y005452D01*
X002343Y005431D01*
X002308Y005413D01*
X002271Y005399D01*
X002234Y005388D01*
X002195Y005381D01*
X002156Y005378D01*
X002117Y005379D01*
X002078Y005384D01*
X002039Y005393D01*
X002002Y005405D01*
X001966Y005421D01*
X001932Y005441D01*
X001900Y005464D01*
X001871Y005490D01*
X001844Y005519D01*
X001820Y005550D01*
X001800Y005584D01*
X001783Y005619D01*
X001770Y005656D01*
X001760Y005694D01*
X001754Y005733D01*
X001752Y005772D01*
D13*
X026795Y016199D03*
X027287Y015358D03*
X028004Y013882D03*
X027512Y013164D03*
D14*
X027517Y013174D03*
X027507Y014169D03*
D15*
X027512Y013717D03*
X027512Y013184D03*
D16*
X027517Y013195D03*
X027528Y015901D03*
D17*
X027517Y013205D03*
D18*
X027512Y013215D03*
D19*
X027517Y013225D03*
D20*
X027517Y013236D03*
D21*
X027517Y013246D03*
X027528Y015830D03*
D22*
X027517Y013256D03*
D23*
X027517Y013266D03*
D24*
X027517Y013277D03*
D25*
X027517Y013287D03*
D26*
X027517Y013297D03*
D27*
X027517Y013307D03*
D28*
X027892Y013318D03*
X026641Y014784D03*
X026641Y014794D03*
X026641Y014804D03*
X026641Y014825D03*
X026641Y014835D03*
X026641Y014845D03*
X026641Y014856D03*
X026641Y014866D03*
X026641Y014886D03*
X026641Y014897D03*
X026641Y014907D03*
X026641Y014917D03*
D29*
X027153Y013318D03*
X027522Y016445D03*
D30*
X027963Y013328D03*
D31*
X027082Y013328D03*
X027522Y016455D03*
D32*
X028004Y013338D03*
D33*
X027035Y013338D03*
X027866Y015799D03*
D34*
X027497Y015153D03*
X026984Y016281D03*
X027148Y013841D03*
X028040Y013348D03*
D35*
X027000Y013348D03*
D36*
X027507Y013697D03*
X028071Y013359D03*
X027907Y015788D03*
X028081Y016270D03*
X027138Y015788D03*
D37*
X026969Y013359D03*
D38*
X028102Y013369D03*
X027528Y015481D03*
D39*
X028107Y016260D03*
X026938Y013369D03*
D40*
X026918Y013379D03*
X028127Y013379D03*
D41*
X028148Y013389D03*
X027953Y013861D03*
X026877Y016240D03*
D42*
X026902Y016250D03*
X027107Y015778D03*
X028133Y016250D03*
X027507Y014148D03*
X027077Y013861D03*
X026892Y013389D03*
D43*
X028174Y013400D03*
X028184Y016229D03*
D44*
X026866Y013400D03*
D45*
X026846Y013410D03*
X027974Y013871D03*
X028199Y013410D03*
X027738Y014271D03*
X028199Y016219D03*
D46*
X027763Y015358D03*
X027497Y014948D03*
X027497Y014486D03*
X027025Y013882D03*
X028215Y013420D03*
X026810Y016209D03*
D47*
X028225Y016209D03*
X027487Y014968D03*
X026820Y013420D03*
D48*
X026805Y013430D03*
X026784Y013441D03*
X028240Y013430D03*
X027492Y014958D03*
X027481Y014979D03*
X027030Y015747D03*
X028015Y015747D03*
X028240Y016199D03*
X028261Y016188D03*
D49*
X028276Y016178D03*
X026769Y016188D03*
X026769Y013451D03*
X028256Y013441D03*
X028276Y013451D03*
D50*
X028291Y013461D03*
X027512Y014138D03*
X026743Y013461D03*
X026733Y016168D03*
X028302Y016168D03*
D51*
X026754Y016178D03*
X027256Y014281D03*
X026979Y013902D03*
X028045Y013902D03*
X028312Y013471D03*
D52*
X028327Y013482D03*
X027507Y013687D03*
X026964Y013912D03*
X026697Y013492D03*
X026728Y013471D03*
X028081Y015717D03*
X028327Y016147D03*
X028317Y016158D03*
X028348Y016137D03*
X026718Y016158D03*
D53*
X026687Y016137D03*
X026984Y015727D03*
X027251Y015348D03*
X027794Y015348D03*
X028061Y015727D03*
X027774Y014281D03*
X028061Y013912D03*
X026707Y013482D03*
D54*
X026682Y013502D03*
X026661Y013512D03*
X026928Y013933D03*
X026948Y013923D03*
X027225Y014292D03*
X027492Y014476D03*
X027799Y014292D03*
X028343Y013492D03*
X028363Y013502D03*
X028097Y015706D03*
X028363Y016127D03*
X026948Y015706D03*
X026672Y016127D03*
X026702Y016147D03*
D55*
X026656Y016117D03*
X026933Y015696D03*
X027230Y015337D03*
X027815Y015337D03*
X028112Y015696D03*
X028133Y015686D03*
X028409Y016096D03*
X028379Y016117D03*
X027210Y014302D03*
X026912Y013943D03*
X026636Y013533D03*
X028081Y013923D03*
X028379Y013512D03*
X028409Y013533D03*
D56*
X028389Y013523D03*
X026636Y016106D03*
D57*
X028399Y016106D03*
X026646Y013523D03*
D58*
X026620Y013543D03*
X026600Y013553D03*
X028117Y013943D03*
X028425Y013543D03*
X027502Y015194D03*
X027215Y015327D03*
X026918Y015686D03*
X028425Y016086D03*
X028466Y016055D03*
D59*
X028455Y016065D03*
X028435Y016076D03*
X026610Y016086D03*
X027820Y014302D03*
X028435Y013553D03*
X026590Y013564D03*
D60*
X026574Y013574D03*
X026523Y013615D03*
X026851Y013984D03*
X027189Y014312D03*
X027835Y014312D03*
X028143Y013964D03*
X028461Y013574D03*
X028450Y013564D03*
X028491Y013594D03*
X027835Y015327D03*
X027528Y015501D03*
X026871Y015655D03*
X026584Y016065D03*
X026595Y016076D03*
X026543Y016035D03*
X028491Y016035D03*
D61*
X028481Y016045D03*
X028481Y013584D03*
X026564Y013584D03*
D62*
X026548Y013594D03*
X026497Y013635D03*
X026866Y013974D03*
X028179Y013984D03*
X028517Y013615D03*
X027851Y015317D03*
X028179Y015655D03*
X028517Y016014D03*
X027194Y015317D03*
X026528Y016024D03*
D63*
X026518Y016014D03*
X026856Y015645D03*
X028189Y015645D03*
X028527Y016004D03*
X028507Y016024D03*
X028189Y013994D03*
X028527Y013625D03*
X028507Y013605D03*
X026836Y013994D03*
X026538Y013605D03*
X026507Y013625D03*
D64*
X026472Y013656D03*
X026461Y013666D03*
X026451Y013676D03*
X026441Y013687D03*
X026800Y014025D03*
X026820Y014005D03*
X027148Y014343D03*
X027159Y014333D03*
X027866Y014333D03*
X028204Y014005D03*
X028563Y013656D03*
X028573Y013666D03*
X028543Y013635D03*
X027169Y015296D03*
X026830Y015624D03*
X026841Y015635D03*
X026492Y015994D03*
X026502Y016004D03*
X026472Y015973D03*
X028204Y015635D03*
X028215Y015624D03*
X028245Y015604D03*
X028563Y015973D03*
X028543Y015994D03*
D65*
X028553Y015983D03*
X027866Y015307D03*
X027179Y015307D03*
X026482Y015983D03*
X026810Y014015D03*
X028215Y014015D03*
X028553Y013646D03*
D66*
X027174Y014322D03*
X026487Y013646D03*
D67*
X026425Y013697D03*
X026405Y013717D03*
X026374Y013748D03*
X026774Y014046D03*
X027512Y014128D03*
X027656Y014548D03*
X027563Y014702D03*
X027317Y014702D03*
X027881Y015296D03*
X028271Y015583D03*
X028589Y015953D03*
X026795Y015594D03*
X026456Y015963D03*
X026425Y015932D03*
X026405Y015912D03*
X028250Y014046D03*
X028589Y013676D03*
X028640Y013728D03*
D68*
X027502Y013676D03*
X027502Y014117D03*
X027256Y014599D03*
X027194Y014804D03*
X027194Y014958D03*
X027082Y015153D03*
X027502Y015214D03*
X027522Y015030D03*
X027071Y014476D03*
X026241Y015665D03*
D69*
X026436Y015942D03*
X026446Y015953D03*
X026805Y015604D03*
X027153Y015286D03*
X027892Y015286D03*
X028281Y015573D03*
X028261Y015594D03*
X028609Y015932D03*
X028599Y015942D03*
X028579Y015963D03*
X028630Y015912D03*
X027871Y014343D03*
X028230Y014025D03*
X028240Y014035D03*
X028599Y013687D03*
X028609Y013697D03*
X028630Y013717D03*
X028650Y013738D03*
X026784Y014035D03*
X026395Y013728D03*
X026384Y013738D03*
D70*
X028620Y013707D03*
X028620Y015922D03*
D71*
X027507Y013707D03*
D72*
X026415Y013707D03*
X026815Y015614D03*
X026415Y015922D03*
X028230Y015614D03*
D73*
X027507Y014220D03*
X027507Y013728D03*
D74*
X027512Y013738D03*
D75*
X027138Y014353D03*
X027333Y014548D03*
X027886Y014353D03*
X027897Y014363D03*
X028266Y014056D03*
X028276Y014066D03*
X028297Y014087D03*
X028307Y014097D03*
X028666Y013748D03*
X028676Y013758D03*
X028696Y013779D03*
X027907Y015276D03*
X027148Y015276D03*
X026769Y015573D03*
X026779Y015583D03*
X026379Y015891D03*
X026369Y015881D03*
X026359Y015871D03*
X026338Y015850D03*
X026328Y015840D03*
X026718Y014097D03*
X026728Y014087D03*
X026748Y014066D03*
X026369Y013758D03*
X026349Y013779D03*
X026338Y013789D03*
X026328Y013799D03*
X026308Y013820D03*
X028696Y015850D03*
X028707Y015840D03*
X028676Y015871D03*
X028666Y015881D03*
X028645Y015901D03*
D76*
X027507Y013748D03*
D77*
X027512Y013758D03*
D78*
X026738Y014076D03*
X026359Y013769D03*
X027323Y014691D03*
X027569Y014691D03*
X026748Y015553D03*
X026349Y015860D03*
X028686Y015860D03*
X028686Y013769D03*
D79*
X027507Y013769D03*
D80*
X027512Y013779D03*
D81*
X026713Y014107D03*
X026292Y013841D03*
X027328Y014681D03*
X026733Y015542D03*
X028312Y015542D03*
X028753Y015788D03*
X028753Y013841D03*
X028702Y013789D03*
D82*
X027512Y013789D03*
D83*
X027112Y014374D03*
X027533Y014989D03*
X027922Y015255D03*
X028322Y015532D03*
X028712Y015830D03*
X028722Y015819D03*
X028732Y015809D03*
X027133Y015266D03*
X027123Y015255D03*
X026723Y015532D03*
X026323Y015830D03*
X026313Y015819D03*
X026302Y015809D03*
X026282Y015788D03*
X027912Y014374D03*
X028712Y013799D03*
X028722Y013810D03*
X028732Y013820D03*
X028763Y013861D03*
X026282Y013851D03*
X026272Y013861D03*
D84*
X027512Y013799D03*
D85*
X027512Y013810D03*
D86*
X027128Y014363D03*
X027497Y014466D03*
X026759Y014056D03*
X026318Y013810D03*
X027917Y015266D03*
X028286Y015563D03*
X028655Y015891D03*
X026759Y015563D03*
X026390Y015901D03*
D87*
X027512Y013820D03*
D88*
X026302Y013830D03*
X028743Y013830D03*
X028302Y015553D03*
X028743Y015799D03*
D89*
X027825Y013830D03*
D90*
X027205Y013830D03*
D91*
X027512Y014158D03*
X027881Y013841D03*
D92*
X028317Y014107D03*
X028758Y013851D03*
X028778Y013882D03*
X027569Y014681D03*
X027097Y014394D03*
X026267Y013871D03*
X027107Y015235D03*
X027497Y015204D03*
X026718Y015522D03*
X026267Y015768D03*
X027528Y015953D03*
X028327Y015522D03*
X028338Y015512D03*
X028758Y015778D03*
X028778Y015747D03*
D93*
X027943Y015778D03*
X027522Y016465D03*
X026928Y016260D03*
X027492Y014497D03*
X027922Y013851D03*
D94*
X027107Y013851D03*
X027497Y015163D03*
D95*
X027927Y014394D03*
X028768Y013871D03*
X028768Y015768D03*
X026277Y015778D03*
X026256Y015747D03*
D96*
X026836Y016219D03*
X027051Y015758D03*
X027994Y015758D03*
X027051Y013871D03*
D97*
X026702Y014117D03*
X026692Y014128D03*
X026261Y013882D03*
X027328Y014671D03*
X027687Y014558D03*
X027933Y014404D03*
X028332Y014128D03*
X027943Y015235D03*
X028343Y015501D03*
X028773Y015758D03*
X027102Y015225D03*
X026713Y015512D03*
X026261Y015758D03*
D98*
X026251Y015737D03*
X028784Y015737D03*
X028784Y013892D03*
X026251Y013892D03*
D99*
X028020Y013892D03*
D100*
X027005Y013892D03*
X027497Y015184D03*
X027005Y015737D03*
X028040Y015737D03*
D101*
X027948Y015225D03*
X028789Y015727D03*
X027087Y014415D03*
X028789Y013902D03*
D102*
X027938Y014415D03*
X028358Y014497D03*
X028358Y014517D03*
X028358Y014527D03*
X028358Y014538D03*
X028358Y014548D03*
X028358Y014558D03*
X028358Y014579D03*
X028358Y014589D03*
X028358Y014599D03*
X028358Y014609D03*
X028358Y014620D03*
X028358Y014640D03*
X028358Y014650D03*
X028358Y014661D03*
X028358Y014671D03*
X028358Y014681D03*
X028358Y014702D03*
X028358Y014712D03*
X028358Y014722D03*
X028358Y014732D03*
X028358Y014743D03*
X028358Y014763D03*
X028358Y014773D03*
X028358Y014784D03*
X028358Y014794D03*
X028358Y014804D03*
X028358Y014825D03*
X028358Y014835D03*
X028358Y014845D03*
X028358Y014856D03*
X028358Y014866D03*
X028358Y014886D03*
X028358Y014897D03*
X028358Y014907D03*
X028358Y014917D03*
X028358Y014927D03*
X028358Y014948D03*
X028358Y014958D03*
X028358Y014968D03*
X028358Y014979D03*
X028358Y014989D03*
X028358Y015009D03*
X028358Y015020D03*
X027569Y014671D03*
X027302Y014558D03*
X026246Y013912D03*
X026246Y013902D03*
X026707Y015501D03*
X026246Y015727D03*
D103*
X026241Y015717D03*
X027092Y015214D03*
X027953Y015214D03*
X028353Y015481D03*
X028794Y015717D03*
X027943Y014425D03*
X028343Y014148D03*
X028794Y013912D03*
X027082Y014425D03*
X026682Y014148D03*
X026241Y013923D03*
D104*
X027077Y014435D03*
X027425Y014743D03*
X027722Y014579D03*
X028358Y014486D03*
X028799Y013923D03*
X027692Y015112D03*
X028358Y015471D03*
X028799Y015706D03*
D105*
X028799Y015696D03*
X028358Y015460D03*
X027722Y015091D03*
X027394Y014927D03*
X027292Y015102D03*
X027087Y015194D03*
X026687Y015460D03*
X026236Y015696D03*
X027743Y014599D03*
X028358Y014466D03*
X028799Y013943D03*
X028799Y013933D03*
X026677Y014169D03*
X026236Y013943D03*
D106*
X028102Y013933D03*
X026625Y016096D03*
D107*
X026241Y015706D03*
X026692Y015471D03*
X026877Y015163D03*
X027307Y015112D03*
X027564Y014661D03*
X027738Y014589D03*
X028363Y014476D03*
X028343Y014158D03*
X027963Y015194D03*
X026877Y014517D03*
X026415Y014517D03*
X026415Y014527D03*
X026682Y014158D03*
X026241Y013933D03*
X026415Y015153D03*
X026415Y015163D03*
D108*
X026871Y015184D03*
X027640Y014753D03*
X027774Y014630D03*
X027753Y015061D03*
X028799Y015676D03*
X028799Y013953D03*
X026236Y013953D03*
D109*
X026897Y013953D03*
X028127Y013953D03*
X028148Y015676D03*
D110*
X028799Y015665D03*
X027968Y015163D03*
X027815Y014968D03*
X027825Y014948D03*
X027835Y014907D03*
X027835Y014897D03*
X027835Y014773D03*
X027835Y014763D03*
X027825Y014722D03*
X027497Y014456D03*
X027405Y014794D03*
X027394Y014835D03*
X027394Y014845D03*
X027210Y014773D03*
X027210Y014763D03*
X027200Y014784D03*
X027200Y014794D03*
X027200Y014968D03*
X027200Y014979D03*
X027200Y014989D03*
X027210Y015009D03*
X026687Y015440D03*
X026410Y015194D03*
X026236Y013964D03*
X028799Y013964D03*
D111*
X028163Y013974D03*
X026882Y013964D03*
X026882Y015665D03*
X026564Y016055D03*
X028163Y015665D03*
D112*
X028799Y015655D03*
X027968Y015143D03*
X027569Y014640D03*
X027251Y014609D03*
X028799Y013974D03*
D113*
X027953Y014486D03*
X027071Y014486D03*
X026877Y014476D03*
X026672Y014210D03*
X026241Y013974D03*
X026877Y015204D03*
D114*
X028286Y014076D03*
D115*
X028322Y014117D03*
X027092Y014404D03*
D116*
X026687Y014138D03*
X027528Y014999D03*
X027671Y015122D03*
X028358Y014999D03*
X028358Y014938D03*
X028358Y014876D03*
X028358Y014814D03*
X028358Y014753D03*
X028358Y014691D03*
X028358Y014630D03*
X028358Y014568D03*
X028358Y014507D03*
X028338Y014138D03*
D117*
X028348Y014169D03*
X026871Y015173D03*
D118*
X026687Y015450D03*
X026236Y015686D03*
X027251Y015071D03*
X027394Y014897D03*
X027415Y014763D03*
X027230Y014743D03*
X027271Y014579D03*
X027569Y014650D03*
X027651Y014763D03*
X027651Y014773D03*
X027651Y014784D03*
X027651Y014845D03*
X027651Y014856D03*
X027640Y014886D03*
X027640Y014897D03*
X027630Y014907D03*
X027763Y015050D03*
X027774Y015040D03*
X027968Y015173D03*
X027804Y014671D03*
X027794Y014661D03*
X027794Y014650D03*
X027784Y014640D03*
X028358Y014456D03*
X028348Y014179D03*
X026871Y014497D03*
D119*
X027507Y014179D03*
D120*
X027071Y014456D03*
X027338Y014650D03*
X027389Y014907D03*
X027389Y014917D03*
X027266Y015081D03*
X027615Y014927D03*
X027635Y014743D03*
X027758Y014609D03*
X027953Y014456D03*
X027738Y015081D03*
X026672Y014179D03*
D121*
X026672Y014189D03*
X027071Y014466D03*
X027266Y014589D03*
X027410Y014773D03*
X027410Y014784D03*
X027389Y014856D03*
X027389Y014866D03*
X027389Y014886D03*
X027215Y015020D03*
X027235Y015050D03*
X027656Y014835D03*
X027656Y014825D03*
X027656Y014804D03*
X027656Y014794D03*
X027830Y014743D03*
X027830Y014732D03*
X027810Y014681D03*
X027830Y014917D03*
X027830Y014927D03*
X027810Y014979D03*
X027810Y014989D03*
X027799Y015009D03*
X027779Y015030D03*
X027953Y014466D03*
X028353Y014189D03*
D122*
X027507Y014189D03*
D123*
X027194Y014814D03*
X027369Y014999D03*
X028363Y015430D03*
X028353Y014199D03*
D124*
X027512Y014199D03*
D125*
X026672Y014199D03*
D126*
X027343Y014640D03*
X027087Y015143D03*
X028348Y014210D03*
D127*
X027512Y014210D03*
D128*
X027512Y014230D03*
D129*
X027512Y014240D03*
D130*
X027512Y014251D03*
D131*
X027512Y014261D03*
D132*
X027292Y014271D03*
X027497Y015173D03*
X027076Y015768D03*
X027528Y015942D03*
X027968Y015768D03*
D133*
X027851Y014322D03*
D134*
X027917Y014384D03*
X027107Y014384D03*
X027938Y015245D03*
X027528Y016475D03*
D135*
X027528Y015512D03*
X027958Y015204D03*
X027333Y014661D03*
X027948Y014435D03*
X026871Y014527D03*
X026871Y014538D03*
X026871Y014548D03*
X026871Y014558D03*
X026871Y014579D03*
X026871Y014589D03*
X026871Y014599D03*
X026871Y014609D03*
X026871Y014620D03*
X026871Y014640D03*
X026871Y014650D03*
X026871Y014661D03*
X026871Y014671D03*
X026871Y014681D03*
X026871Y014702D03*
X026871Y014712D03*
X026871Y014722D03*
X026871Y014732D03*
X026871Y014743D03*
X026871Y014763D03*
X026871Y014773D03*
X026871Y014927D03*
X026871Y014948D03*
X026871Y014958D03*
X026871Y014968D03*
X026871Y014979D03*
X026871Y014989D03*
X026871Y015009D03*
X026871Y015020D03*
X026871Y015030D03*
X026871Y015040D03*
X026871Y015050D03*
X026871Y015071D03*
X026871Y015081D03*
X026871Y015091D03*
X026871Y015102D03*
X026871Y015112D03*
X026871Y015132D03*
X026871Y015143D03*
X026871Y015153D03*
X027087Y015204D03*
X026697Y015481D03*
X026410Y015143D03*
D136*
X027087Y015184D03*
X027415Y014753D03*
X027968Y015184D03*
X027948Y014445D03*
X027077Y014445D03*
D137*
X028358Y014445D03*
X026687Y015430D03*
D138*
X027953Y014476D03*
D139*
X026415Y014476D03*
X026415Y015204D03*
D140*
X026871Y015194D03*
X027189Y014948D03*
X027189Y014927D03*
X027189Y014917D03*
X027189Y014907D03*
X027189Y014897D03*
X027189Y014886D03*
X027189Y014866D03*
X027189Y014856D03*
X027189Y014845D03*
X027189Y014835D03*
X027189Y014825D03*
X027364Y014989D03*
X026871Y014486D03*
D141*
X026415Y014486D03*
X027082Y015163D03*
X027225Y015040D03*
X027225Y015030D03*
X027399Y014825D03*
X027399Y014804D03*
X027646Y014866D03*
X027840Y014866D03*
X027840Y014856D03*
X027840Y014845D03*
X027840Y014835D03*
X027840Y014825D03*
X027840Y014804D03*
X027840Y014794D03*
X027840Y014784D03*
X027820Y014712D03*
X027820Y014702D03*
X027840Y014886D03*
X027820Y014958D03*
X027789Y015020D03*
X028363Y015440D03*
D142*
X027953Y014497D03*
X027071Y014497D03*
D143*
X027522Y015020D03*
X027625Y014917D03*
X027748Y015071D03*
X028363Y015450D03*
X028804Y015686D03*
X027769Y014620D03*
X027276Y015091D03*
X027082Y015173D03*
X026415Y015173D03*
X026415Y014497D03*
D144*
X027492Y014507D03*
D145*
X027610Y014938D03*
X026871Y014507D03*
D146*
X026415Y014507D03*
X026415Y015184D03*
D147*
X027497Y015143D03*
X027497Y014517D03*
D148*
X027492Y014527D03*
X027502Y015132D03*
D149*
X027497Y014538D03*
X028358Y015030D03*
D150*
X027522Y015009D03*
X026415Y015009D03*
X026415Y015020D03*
X026415Y015030D03*
X026415Y015040D03*
X026415Y015050D03*
X026415Y015071D03*
X026415Y015081D03*
X026415Y015091D03*
X026415Y015102D03*
X026415Y015112D03*
X026415Y015132D03*
X026415Y014989D03*
X026415Y014979D03*
X026415Y014968D03*
X026415Y014958D03*
X026415Y014948D03*
X026415Y014927D03*
X026415Y014773D03*
X026415Y014763D03*
X026415Y014743D03*
X026415Y014732D03*
X026415Y014722D03*
X026415Y014712D03*
X026415Y014702D03*
X026415Y014681D03*
X026415Y014671D03*
X026415Y014661D03*
X026415Y014650D03*
X026415Y014640D03*
X026415Y014620D03*
X026415Y014609D03*
X026415Y014599D03*
X026415Y014589D03*
X026415Y014579D03*
X026415Y014558D03*
X026415Y014548D03*
X026415Y014538D03*
D151*
X026702Y015491D03*
X027707Y014568D03*
D152*
X027287Y014568D03*
D153*
X026871Y014568D03*
X026871Y014630D03*
X026871Y014691D03*
X026871Y014753D03*
X026871Y014938D03*
X026871Y014999D03*
X026871Y015061D03*
X026871Y015122D03*
D154*
X026415Y015122D03*
X026415Y015061D03*
X026415Y014999D03*
X026415Y014938D03*
X026415Y014753D03*
X026415Y014691D03*
X026415Y014630D03*
X026415Y014568D03*
D155*
X027251Y014620D03*
D156*
X027389Y014876D03*
X027246Y015061D03*
X027656Y014814D03*
X027830Y014753D03*
X027810Y014691D03*
X027799Y014999D03*
D157*
X027440Y014712D03*
D158*
X027435Y014722D03*
X027528Y015460D03*
D159*
X027440Y014732D03*
X027974Y016301D03*
D160*
X027825Y014938D03*
X027210Y014999D03*
X027220Y014753D03*
D161*
X027399Y014814D03*
X027646Y014876D03*
X027840Y014876D03*
X027840Y014814D03*
X026241Y015676D03*
D162*
X026641Y014876D03*
X026641Y014814D03*
X027522Y015430D03*
D163*
X027189Y014938D03*
X027189Y014876D03*
D164*
X027399Y014938D03*
D165*
X027364Y015009D03*
D166*
X027369Y015020D03*
X028363Y015419D03*
X026241Y015655D03*
D167*
X028358Y015040D03*
D168*
X028358Y015050D03*
X028358Y015153D03*
D169*
X028358Y015061D03*
D170*
X028358Y015071D03*
X028358Y015081D03*
X028358Y015091D03*
X028358Y015102D03*
X028358Y015112D03*
D171*
X027707Y015102D03*
D172*
X028358Y015122D03*
D173*
X028348Y015491D03*
X027333Y015122D03*
D174*
X028358Y015132D03*
X028358Y015143D03*
X027528Y015912D03*
D175*
X027968Y015153D03*
D176*
X028358Y015163D03*
X027107Y016311D03*
D177*
X027118Y015245D03*
D178*
X027528Y015368D03*
D179*
X027522Y015378D03*
D180*
X027522Y015389D03*
D181*
X027528Y015399D03*
D182*
X027522Y015409D03*
D183*
X027528Y015419D03*
D184*
X026687Y015419D03*
D185*
X027522Y015440D03*
X027922Y016311D03*
D186*
X027528Y015450D03*
D187*
X027522Y015471D03*
D188*
X027528Y015491D03*
D189*
X026902Y015676D03*
X026554Y016045D03*
D190*
X026969Y015717D03*
D191*
X027184Y015799D03*
X028015Y016291D03*
D192*
X026292Y015799D03*
D193*
X027528Y015809D03*
D194*
X027528Y015819D03*
D195*
X027528Y015840D03*
X027517Y016393D03*
D196*
X027528Y015850D03*
D197*
X027528Y015860D03*
D198*
X027522Y015871D03*
D199*
X027528Y015881D03*
D200*
X027528Y015891D03*
D201*
X027528Y015922D03*
D202*
X027528Y015932D03*
D203*
X026856Y016229D03*
D204*
X028158Y016240D03*
D205*
X026953Y016270D03*
D206*
X028051Y016281D03*
D207*
X027015Y016291D03*
D208*
X027056Y016301D03*
D209*
X027517Y016322D03*
D210*
X027517Y016332D03*
D211*
X027517Y016342D03*
D212*
X027522Y016352D03*
D213*
X027517Y016363D03*
D214*
X027522Y016373D03*
D215*
X027517Y016383D03*
D216*
X027517Y016404D03*
D217*
X027517Y016414D03*
D218*
X027522Y016424D03*
D219*
X027522Y016434D03*
M02*
