G75*
G70*
%OFA0B0*%
%FSLAX24Y24*%
%IPPOS*%
%LPD*%
%AMOC8*
5,1,8,0,0,1.08239X$1,22.5*
%
%ADD10C,0.0760*%
%ADD11OC8,0.0760*%
%ADD12OC8,0.0660*%
%ADD13C,0.1890*%
%ADD14C,0.0600*%
%ADD15R,0.0591X0.0600*%
%ADD16OC8,0.0700*%
%ADD17C,0.0700*%
%ADD18C,0.0100*%
%ADD19C,0.0400*%
D10*
X002075Y007205D03*
X002075Y008189D03*
X002075Y009189D03*
X002075Y010189D03*
X002075Y011189D03*
X002075Y012189D03*
X002075Y013189D03*
X003075Y016205D03*
X004075Y016205D03*
X005075Y016205D03*
X006075Y016205D03*
X007075Y016205D03*
X008075Y016205D03*
X009075Y016221D03*
X010075Y016221D03*
X011075Y016221D03*
X012075Y016221D03*
X013075Y016221D03*
X014075Y016221D03*
X015075Y013189D03*
X015075Y012189D03*
X015075Y011189D03*
X015075Y010189D03*
X015075Y009189D03*
X015075Y008189D03*
X015075Y007189D03*
D11*
X009075Y006185D03*
X008075Y006185D03*
X008075Y005185D03*
X008075Y004185D03*
X009075Y004185D03*
X009075Y005185D03*
D12*
X017989Y005315D03*
X017989Y006315D03*
X017989Y007315D03*
X017989Y009315D03*
X017989Y010315D03*
X017989Y011315D03*
X017989Y012315D03*
X017989Y013315D03*
X017989Y014315D03*
X017989Y015315D03*
X017989Y016315D03*
X017989Y004315D03*
X017989Y003315D03*
X017989Y002315D03*
X036989Y002315D03*
X036989Y003315D03*
X036989Y004315D03*
X036989Y005315D03*
X036989Y006315D03*
X036989Y007315D03*
X036989Y008315D03*
X036989Y009315D03*
X036989Y010915D03*
X036989Y011915D03*
X036989Y012915D03*
X036989Y013915D03*
X036989Y014915D03*
X036989Y015915D03*
X036989Y016915D03*
X036989Y017915D03*
X036989Y018915D03*
X036989Y019915D03*
D13*
X005579Y021449D03*
X003256Y021449D03*
X004398Y019599D03*
D14*
X010161Y019229D02*
X010761Y019229D01*
X010761Y020229D02*
X010161Y020229D01*
X010161Y021229D02*
X010761Y021229D01*
D15*
X008772Y020248D03*
X007394Y020248D03*
D16*
X007524Y022197D03*
X007524Y018260D03*
D17*
X008524Y018260D03*
X008524Y022197D03*
D18*
X000650Y023272D02*
X000650Y003800D01*
X007655Y003800D01*
X007505Y003949D01*
X007505Y004421D01*
X007769Y004685D01*
X007505Y004949D01*
X007505Y005421D01*
X007769Y005685D01*
X007505Y005949D01*
X007505Y006421D01*
X007839Y006755D01*
X008311Y006755D01*
X008575Y006491D01*
X008839Y006755D01*
X009311Y006755D01*
X009645Y006421D01*
X009645Y005949D01*
X009381Y005685D01*
X009645Y005421D01*
X009645Y004949D01*
X009353Y004657D01*
X009605Y004405D01*
X009605Y004234D01*
X009124Y004234D01*
X009124Y004137D01*
X009605Y004137D01*
X009605Y003966D01*
X009439Y003800D01*
X014654Y003800D01*
X014689Y003809D01*
X014752Y003800D01*
X014816Y003800D01*
X014850Y003786D01*
X014886Y003781D01*
X014941Y003748D01*
X015000Y003723D01*
X015026Y003698D01*
X015057Y003679D01*
X015096Y003628D01*
X015141Y003583D01*
X015155Y003549D01*
X017329Y000650D01*
X037760Y000650D01*
X037760Y026422D01*
X017329Y026422D01*
X015155Y023522D01*
X015141Y023489D01*
X015096Y023444D01*
X015057Y023392D01*
X015026Y023374D01*
X015000Y023348D01*
X014941Y023324D01*
X014886Y023291D01*
X014850Y023286D01*
X014816Y023272D01*
X014752Y023272D01*
X014689Y023263D01*
X014654Y023272D01*
X000650Y023272D01*
X000650Y023199D02*
X037760Y023199D01*
X037760Y023101D02*
X000650Y023101D01*
X000650Y023002D02*
X037760Y023002D01*
X037760Y022904D02*
X000650Y022904D01*
X000650Y022805D02*
X037760Y022805D01*
X037760Y022707D02*
X008705Y022707D01*
X008631Y022737D02*
X008417Y022737D01*
X008218Y022655D01*
X008066Y022503D01*
X008024Y022401D01*
X008024Y022404D01*
X007731Y022697D01*
X007554Y022697D01*
X007554Y022227D01*
X007494Y022227D01*
X007494Y022167D01*
X007554Y022167D01*
X007554Y021697D01*
X007731Y021697D01*
X008024Y021990D01*
X008024Y021994D01*
X008066Y021891D01*
X008218Y021740D01*
X008284Y021712D01*
X008284Y020980D01*
X008321Y020892D01*
X008475Y020738D01*
X008398Y020738D01*
X008287Y020627D01*
X008287Y019870D01*
X008398Y019759D01*
X009146Y019759D01*
X009257Y019870D01*
X009257Y020375D01*
X009790Y020907D01*
X009884Y020814D01*
X010064Y020739D01*
X010858Y020739D01*
X011038Y020814D01*
X011176Y020951D01*
X011251Y021131D01*
X011251Y021326D01*
X011176Y021506D01*
X011038Y021644D01*
X010858Y021719D01*
X010064Y021719D01*
X009884Y021644D01*
X009746Y021506D01*
X009738Y021488D01*
X009660Y021456D01*
X009592Y021388D01*
X009012Y020808D01*
X009012Y020828D01*
X008975Y020916D01*
X008764Y021127D01*
X008764Y021712D01*
X008830Y021740D01*
X008982Y021891D01*
X009064Y022090D01*
X009064Y022305D01*
X008982Y022503D01*
X008830Y022655D01*
X008631Y022737D01*
X008877Y022608D02*
X037760Y022608D01*
X037760Y022510D02*
X008975Y022510D01*
X009020Y022411D02*
X037760Y022411D01*
X037760Y022313D02*
X009060Y022313D01*
X009064Y022214D02*
X037760Y022214D01*
X037760Y022116D02*
X009064Y022116D01*
X009034Y022017D02*
X037760Y022017D01*
X037760Y021919D02*
X008993Y021919D01*
X008910Y021820D02*
X037760Y021820D01*
X037760Y021722D02*
X008786Y021722D01*
X008764Y021623D02*
X009863Y021623D01*
X009764Y021525D02*
X008764Y021525D01*
X008764Y021426D02*
X009630Y021426D01*
X009592Y021388D02*
X009592Y021388D01*
X009532Y021328D02*
X008764Y021328D01*
X008764Y021229D02*
X009433Y021229D01*
X009335Y021131D02*
X008764Y021131D01*
X008859Y021032D02*
X009236Y021032D01*
X009138Y020934D02*
X008957Y020934D01*
X009009Y020835D02*
X009039Y020835D01*
X008772Y020780D02*
X008524Y021028D01*
X008524Y022197D01*
X008138Y021820D02*
X007854Y021820D01*
X007952Y021919D02*
X008055Y021919D01*
X008262Y021722D02*
X007755Y021722D01*
X007554Y021722D02*
X007494Y021722D01*
X007494Y021697D02*
X007494Y022167D01*
X007024Y022167D01*
X007024Y021990D01*
X007317Y021697D01*
X007494Y021697D01*
X007494Y021820D02*
X007554Y021820D01*
X007554Y021919D02*
X007494Y021919D01*
X007494Y022017D02*
X007554Y022017D01*
X007554Y022116D02*
X007494Y022116D01*
X007494Y022214D02*
X006419Y022214D01*
X006487Y022146D02*
X006276Y022357D01*
X006017Y022507D01*
X005729Y022584D01*
X005430Y022584D01*
X005141Y022507D01*
X004882Y022357D01*
X004671Y022146D01*
X004522Y021887D01*
X004444Y021599D01*
X004444Y021300D01*
X004522Y021011D01*
X004671Y020753D01*
X004809Y020615D01*
X004702Y020653D01*
X004582Y020680D01*
X004460Y020694D01*
X004448Y020694D01*
X004448Y019649D01*
X004348Y019649D01*
X004348Y020694D01*
X004337Y020694D01*
X004214Y020680D01*
X004094Y020653D01*
X003978Y020612D01*
X003938Y020593D01*
X003987Y020632D01*
X004074Y020718D01*
X004151Y020815D01*
X004216Y020919D01*
X004269Y021030D01*
X004310Y021146D01*
X004337Y021266D01*
X004351Y021388D01*
X004351Y021399D01*
X003306Y021399D01*
X003306Y020354D01*
X003318Y020354D01*
X003440Y020368D01*
X003560Y020395D01*
X003676Y020436D01*
X003716Y020455D01*
X003667Y020416D01*
X003580Y020330D01*
X003504Y020233D01*
X003438Y020129D01*
X003385Y020018D01*
X003344Y019902D01*
X003317Y019783D01*
X003303Y019660D01*
X003303Y019649D01*
X004348Y019649D01*
X004348Y019549D01*
X003303Y019549D01*
X003303Y019537D01*
X003317Y019415D01*
X003344Y019295D01*
X003385Y019179D01*
X003438Y019068D01*
X003504Y018964D01*
X003580Y018868D01*
X003667Y018781D01*
X003763Y018704D01*
X003868Y018639D01*
X003978Y018586D01*
X004094Y018545D01*
X004214Y018518D01*
X004337Y018504D01*
X004348Y018504D01*
X004348Y019549D01*
X004448Y019549D01*
X004448Y019649D01*
X005493Y019649D01*
X005493Y019660D01*
X005479Y019783D01*
X005452Y019902D01*
X005411Y020018D01*
X005358Y020129D01*
X005292Y020233D01*
X005216Y020330D01*
X005158Y020387D01*
X005430Y020315D01*
X005729Y020315D01*
X005857Y020349D01*
X006158Y020047D01*
X006268Y019938D01*
X006411Y019878D01*
X006909Y019878D01*
X006909Y019870D01*
X007020Y019759D01*
X007768Y019759D01*
X007879Y019870D01*
X007879Y020627D01*
X007768Y020738D01*
X007020Y020738D01*
X006940Y020658D01*
X006650Y020658D01*
X006512Y020796D01*
X006636Y021011D01*
X006714Y021300D01*
X006714Y021599D01*
X006636Y021887D01*
X006487Y022146D01*
X006505Y022116D02*
X007024Y022116D01*
X007024Y022017D02*
X006561Y022017D01*
X006618Y021919D02*
X007096Y021919D01*
X007194Y021820D02*
X006654Y021820D01*
X006681Y021722D02*
X007293Y021722D01*
X007494Y022227D02*
X007024Y022227D01*
X007024Y022404D01*
X007317Y022697D01*
X007494Y022697D01*
X007494Y022227D01*
X007494Y022313D02*
X007554Y022313D01*
X007554Y022411D02*
X007494Y022411D01*
X007494Y022510D02*
X007554Y022510D01*
X007554Y022608D02*
X007494Y022608D01*
X007228Y022608D02*
X000650Y022608D01*
X000650Y022510D02*
X002982Y022510D01*
X002953Y022503D02*
X002837Y022462D01*
X002726Y022409D01*
X002622Y022344D01*
X002526Y022267D01*
X002439Y022180D01*
X002362Y022084D01*
X002297Y021980D01*
X002243Y021869D01*
X002203Y021753D01*
X002175Y021633D01*
X002161Y021511D01*
X002161Y021499D01*
X003206Y021499D01*
X003206Y021399D01*
X002161Y021399D01*
X002161Y021388D01*
X002175Y021266D01*
X002203Y021146D01*
X002243Y021030D01*
X002297Y020919D01*
X002362Y020815D01*
X002439Y020718D01*
X002526Y020632D01*
X002622Y020555D01*
X002726Y020489D01*
X002837Y020436D01*
X002953Y020395D01*
X003073Y020368D01*
X003195Y020354D01*
X003206Y020354D01*
X003206Y021399D01*
X003306Y021399D01*
X003306Y021499D01*
X003206Y021499D01*
X003206Y022544D01*
X003195Y022544D01*
X003073Y022530D01*
X002953Y022503D01*
X002730Y022411D02*
X000650Y022411D01*
X000650Y022313D02*
X002583Y022313D01*
X002473Y022214D02*
X000650Y022214D01*
X000650Y022116D02*
X002387Y022116D01*
X002320Y022017D02*
X000650Y022017D01*
X000650Y021919D02*
X002267Y021919D01*
X002226Y021820D02*
X000650Y021820D01*
X000650Y021722D02*
X002195Y021722D01*
X002174Y021623D02*
X000650Y021623D01*
X000650Y021525D02*
X002163Y021525D01*
X002168Y021328D02*
X000650Y021328D01*
X000650Y021426D02*
X003206Y021426D01*
X003206Y021328D02*
X003306Y021328D01*
X003306Y021426D02*
X004444Y021426D01*
X004444Y021328D02*
X004344Y021328D01*
X004329Y021229D02*
X004463Y021229D01*
X004490Y021131D02*
X004305Y021131D01*
X004270Y021032D02*
X004516Y021032D01*
X004567Y020934D02*
X004223Y020934D01*
X004163Y020835D02*
X004624Y020835D01*
X004687Y020737D02*
X004088Y020737D01*
X004053Y020638D02*
X003994Y020638D01*
X004348Y020638D02*
X004448Y020638D01*
X004448Y020540D02*
X004348Y020540D01*
X004348Y020441D02*
X004448Y020441D01*
X004448Y020343D02*
X004348Y020343D01*
X004348Y020244D02*
X004448Y020244D01*
X004448Y020146D02*
X004348Y020146D01*
X004348Y020047D02*
X004448Y020047D01*
X004448Y019949D02*
X004348Y019949D01*
X004348Y019850D02*
X004448Y019850D01*
X004448Y019752D02*
X004348Y019752D01*
X004348Y019653D02*
X004448Y019653D01*
X004448Y019555D02*
X009794Y019555D01*
X009746Y019506D02*
X009671Y019326D01*
X009671Y019131D01*
X009746Y018951D01*
X009795Y018902D01*
X009393Y018500D01*
X009009Y018500D01*
X008982Y018566D01*
X008830Y018718D01*
X008631Y018800D01*
X008417Y018800D01*
X008218Y018718D01*
X008066Y018566D01*
X008024Y018464D01*
X008024Y018467D01*
X007731Y018760D01*
X007554Y018760D01*
X007554Y018290D01*
X007494Y018290D01*
X007494Y018230D01*
X007554Y018230D01*
X007554Y017760D01*
X007731Y017760D01*
X008024Y018053D01*
X008024Y018057D01*
X008066Y017954D01*
X008218Y017803D01*
X008417Y017720D01*
X008631Y017720D01*
X008830Y017803D01*
X008982Y017954D01*
X009009Y018020D01*
X009540Y018020D01*
X009628Y018057D01*
X010310Y018739D01*
X010858Y018739D01*
X011038Y018814D01*
X011176Y018951D01*
X011251Y019131D01*
X011251Y019326D01*
X011176Y019506D01*
X011038Y019644D01*
X010858Y019719D01*
X010064Y019719D01*
X009884Y019644D01*
X009746Y019506D01*
X009725Y019456D02*
X005484Y019456D01*
X005479Y019415D02*
X005493Y019537D01*
X005493Y019549D01*
X004448Y019549D01*
X004448Y018504D01*
X004460Y018504D01*
X004582Y018518D01*
X004702Y018545D01*
X004818Y018586D01*
X004928Y018639D01*
X005033Y018704D01*
X005129Y018781D01*
X005216Y018868D01*
X005292Y018964D01*
X005358Y019068D01*
X005411Y019179D01*
X005452Y019295D01*
X005479Y019415D01*
X005466Y019358D02*
X009684Y019358D01*
X009671Y019259D02*
X005439Y019259D01*
X005402Y019161D02*
X009671Y019161D01*
X009700Y019062D02*
X005354Y019062D01*
X005292Y018964D02*
X009741Y018964D01*
X009758Y018865D02*
X005213Y018865D01*
X005110Y018767D02*
X008336Y018767D01*
X008168Y018668D02*
X007823Y018668D01*
X007922Y018570D02*
X008070Y018570D01*
X008027Y018471D02*
X008020Y018471D01*
X007554Y018471D02*
X007494Y018471D01*
X007494Y018373D02*
X007554Y018373D01*
X007494Y018290D02*
X007494Y018760D01*
X007317Y018760D01*
X007024Y018467D01*
X007024Y018290D01*
X007494Y018290D01*
X007494Y018274D02*
X000650Y018274D01*
X000650Y018176D02*
X007024Y018176D01*
X007024Y018230D02*
X007024Y018053D01*
X007317Y017760D01*
X007494Y017760D01*
X007494Y018230D01*
X007024Y018230D01*
X007024Y018373D02*
X000650Y018373D01*
X000650Y018471D02*
X007028Y018471D01*
X007126Y018570D02*
X004772Y018570D01*
X004975Y018668D02*
X007225Y018668D01*
X007494Y018668D02*
X007554Y018668D01*
X007554Y018570D02*
X007494Y018570D01*
X007494Y018176D02*
X007554Y018176D01*
X007554Y018077D02*
X007494Y018077D01*
X007494Y017979D02*
X007554Y017979D01*
X007554Y017880D02*
X007494Y017880D01*
X007494Y017782D02*
X007554Y017782D01*
X007752Y017782D02*
X008269Y017782D01*
X008141Y017880D02*
X007851Y017880D01*
X007949Y017979D02*
X008056Y017979D01*
X008524Y018260D02*
X009493Y018260D01*
X010461Y019229D01*
X011016Y019653D02*
X015423Y019653D01*
X015366Y019752D02*
X005483Y019752D01*
X005493Y019653D02*
X009906Y019653D01*
X009988Y019812D02*
X010056Y019790D01*
X010126Y019779D01*
X010411Y019779D01*
X010411Y020179D01*
X009713Y020179D01*
X009722Y020123D01*
X009744Y020056D01*
X009776Y019993D01*
X009818Y019936D01*
X009868Y019885D01*
X009925Y019844D01*
X009988Y019812D01*
X009917Y019850D02*
X009237Y019850D01*
X009257Y019949D02*
X009808Y019949D01*
X009749Y020047D02*
X009257Y020047D01*
X009257Y020146D02*
X009719Y020146D01*
X009713Y020279D02*
X010411Y020279D01*
X010411Y020679D01*
X010126Y020679D01*
X010056Y020668D01*
X009988Y020646D01*
X009925Y020614D01*
X009868Y020572D01*
X009818Y020522D01*
X009776Y020465D01*
X009744Y020401D01*
X009722Y020334D01*
X009713Y020279D01*
X009725Y020343D02*
X009257Y020343D01*
X009257Y020244D02*
X010411Y020244D01*
X010411Y020279D02*
X010411Y020179D01*
X010511Y020179D01*
X010511Y020279D01*
X010411Y020279D01*
X010411Y020343D02*
X010511Y020343D01*
X010511Y020279D02*
X010511Y020679D01*
X010796Y020679D01*
X010866Y020668D01*
X010934Y020646D01*
X010997Y020614D01*
X011054Y020572D01*
X011104Y020522D01*
X011146Y020465D01*
X011178Y020401D01*
X011200Y020334D01*
X011209Y020279D01*
X010511Y020279D01*
X010511Y020244D02*
X015261Y020244D01*
X015261Y020146D02*
X011203Y020146D01*
X011200Y020123D02*
X011178Y020056D01*
X011146Y019993D01*
X011104Y019936D01*
X011054Y019885D01*
X010997Y019844D01*
X010934Y019812D01*
X010866Y019790D01*
X010796Y019779D01*
X010511Y019779D01*
X010511Y020179D01*
X011209Y020179D01*
X011200Y020123D01*
X011173Y020047D02*
X015271Y020047D01*
X015261Y020084D02*
X015336Y019804D01*
X015481Y019553D01*
X015686Y019349D01*
X015936Y019204D01*
X016216Y019129D01*
X016506Y019129D01*
X016786Y019204D01*
X017036Y019349D01*
X017241Y019553D01*
X017386Y019804D01*
X017461Y020084D01*
X017461Y020374D01*
X017386Y020653D01*
X017241Y020904D01*
X017036Y021109D01*
X016786Y021254D01*
X016506Y021329D01*
X016216Y021329D01*
X015936Y021254D01*
X015686Y021109D01*
X015481Y020904D01*
X015336Y020653D01*
X015261Y020374D01*
X015261Y020084D01*
X015297Y019949D02*
X011114Y019949D01*
X011005Y019850D02*
X015324Y019850D01*
X015480Y019555D02*
X011128Y019555D01*
X011197Y019456D02*
X015578Y019456D01*
X015677Y019358D02*
X011238Y019358D01*
X011251Y019259D02*
X015841Y019259D01*
X016097Y019161D02*
X011251Y019161D01*
X011222Y019062D02*
X036469Y019062D01*
X036469Y019131D02*
X036469Y018700D01*
X036754Y018415D01*
X036469Y018131D01*
X036469Y017700D01*
X036773Y017396D01*
X037204Y017396D01*
X037508Y017700D01*
X037508Y018131D01*
X037224Y018415D01*
X037508Y018700D01*
X037508Y019131D01*
X037224Y019415D01*
X037508Y019700D01*
X037508Y020131D01*
X037204Y020435D01*
X036773Y020435D01*
X036469Y020131D01*
X036469Y019700D01*
X036754Y019415D01*
X036469Y019131D01*
X036499Y019161D02*
X016625Y019161D01*
X016881Y019259D02*
X036597Y019259D01*
X036696Y019358D02*
X017045Y019358D01*
X017144Y019456D02*
X036713Y019456D01*
X036614Y019555D02*
X017242Y019555D01*
X017299Y019653D02*
X036516Y019653D01*
X036469Y019752D02*
X017356Y019752D01*
X017398Y019850D02*
X036469Y019850D01*
X036469Y019949D02*
X017425Y019949D01*
X017451Y020047D02*
X036469Y020047D01*
X036484Y020146D02*
X017461Y020146D01*
X017461Y020244D02*
X036582Y020244D01*
X036681Y020343D02*
X017461Y020343D01*
X017443Y020441D02*
X037760Y020441D01*
X037760Y020343D02*
X037296Y020343D01*
X037395Y020244D02*
X037760Y020244D01*
X037760Y020146D02*
X037493Y020146D01*
X037508Y020047D02*
X037760Y020047D01*
X037760Y019949D02*
X037508Y019949D01*
X037508Y019850D02*
X037760Y019850D01*
X037760Y019752D02*
X037508Y019752D01*
X037461Y019653D02*
X037760Y019653D01*
X037760Y019555D02*
X037363Y019555D01*
X037264Y019456D02*
X037760Y019456D01*
X037760Y019358D02*
X037281Y019358D01*
X037380Y019259D02*
X037760Y019259D01*
X037760Y019161D02*
X037478Y019161D01*
X037508Y019062D02*
X037760Y019062D01*
X037760Y018964D02*
X037508Y018964D01*
X037508Y018865D02*
X037760Y018865D01*
X037760Y018767D02*
X037508Y018767D01*
X037476Y018668D02*
X037760Y018668D01*
X037760Y018570D02*
X037378Y018570D01*
X037279Y018471D02*
X037760Y018471D01*
X037760Y018373D02*
X037266Y018373D01*
X037365Y018274D02*
X037760Y018274D01*
X037760Y018176D02*
X037463Y018176D01*
X037508Y018077D02*
X037760Y018077D01*
X037760Y017979D02*
X037508Y017979D01*
X037508Y017880D02*
X037760Y017880D01*
X037760Y017782D02*
X037508Y017782D01*
X037491Y017683D02*
X037760Y017683D01*
X037760Y017585D02*
X037393Y017585D01*
X037294Y017486D02*
X037760Y017486D01*
X037760Y017388D02*
X037195Y017388D01*
X037187Y017395D02*
X037037Y017395D01*
X037037Y016964D01*
X036940Y016964D01*
X036940Y017395D01*
X036790Y017395D01*
X036509Y017114D01*
X036509Y016964D01*
X036940Y016964D01*
X036940Y016867D01*
X036509Y016867D01*
X036509Y016717D01*
X036790Y016435D01*
X036940Y016435D01*
X036940Y016867D01*
X037037Y016867D01*
X037037Y016964D01*
X037469Y016964D01*
X037469Y017114D01*
X037187Y017395D01*
X037037Y017388D02*
X036940Y017388D01*
X036940Y017289D02*
X037037Y017289D01*
X037037Y017191D02*
X036940Y017191D01*
X036940Y017092D02*
X037037Y017092D01*
X037037Y016994D02*
X036940Y016994D01*
X036940Y016895D02*
X000650Y016895D01*
X000650Y016797D02*
X017735Y016797D01*
X017773Y016835D02*
X017469Y016531D01*
X017469Y016100D01*
X017754Y015815D01*
X017469Y015531D01*
X017469Y015100D01*
X017754Y014815D01*
X017469Y014531D01*
X015785Y014531D01*
X015785Y014433D02*
X017469Y014433D01*
X017469Y014531D02*
X017469Y014100D01*
X017754Y013815D01*
X017469Y013531D01*
X017469Y013100D01*
X017754Y012815D01*
X017469Y012531D01*
X017469Y012100D01*
X017773Y011796D01*
X018204Y011796D01*
X018484Y012076D01*
X019047Y012076D01*
X019792Y011525D01*
X019792Y010142D01*
X019116Y009563D01*
X018476Y009563D01*
X018204Y009835D01*
X017773Y009835D01*
X017469Y009531D01*
X017469Y009100D01*
X017773Y008796D01*
X018204Y008796D01*
X018492Y009083D01*
X019196Y009083D01*
X019234Y009081D01*
X019243Y009083D01*
X019253Y009083D01*
X019288Y009098D01*
X019325Y009110D01*
X019332Y009116D01*
X019341Y009120D01*
X019368Y009147D01*
X020159Y009825D01*
X020168Y009829D01*
X020195Y009856D01*
X020224Y009881D01*
X020228Y009889D01*
X020235Y009896D01*
X020250Y009932D01*
X020267Y009966D01*
X020268Y009975D01*
X020272Y009984D01*
X020272Y010023D01*
X020275Y010061D01*
X020272Y010070D01*
X020272Y011617D01*
X020276Y011634D01*
X020272Y011664D01*
X020272Y011694D01*
X020265Y011711D01*
X020262Y011729D01*
X020247Y011754D01*
X020235Y011782D01*
X020222Y011795D01*
X020213Y011811D01*
X020189Y011828D01*
X020168Y011849D01*
X020151Y011856D01*
X019283Y012498D01*
X019262Y012519D01*
X019245Y012526D01*
X019231Y012537D01*
X019202Y012544D01*
X019174Y012555D01*
X019156Y012555D01*
X019138Y012560D01*
X019108Y012555D01*
X018484Y012555D01*
X018224Y012815D01*
X018508Y013100D01*
X018508Y013531D01*
X018224Y013815D01*
X018508Y014100D01*
X018508Y014531D01*
X036638Y014531D01*
X036736Y014433D02*
X018508Y014433D01*
X018508Y014531D02*
X018224Y014815D01*
X018508Y015100D01*
X018508Y015531D01*
X018224Y015815D01*
X018508Y016100D01*
X018508Y016531D01*
X018204Y016835D01*
X017773Y016835D01*
X017636Y016698D02*
X014404Y016698D01*
X014398Y016704D02*
X014189Y016791D01*
X013962Y016791D01*
X013752Y016704D01*
X013592Y016544D01*
X013575Y016503D01*
X013558Y016544D01*
X013398Y016704D01*
X013189Y016791D01*
X012962Y016791D01*
X012752Y016704D01*
X012592Y016544D01*
X012575Y016503D01*
X012558Y016544D01*
X012398Y016704D01*
X012189Y016791D01*
X011962Y016791D01*
X011752Y016704D01*
X011592Y016544D01*
X011575Y016503D01*
X011558Y016544D01*
X011398Y016704D01*
X011189Y016791D01*
X010962Y016791D01*
X010752Y016704D01*
X010592Y016544D01*
X010575Y016503D01*
X010558Y016544D01*
X010398Y016704D01*
X010189Y016791D01*
X009962Y016791D01*
X009752Y016704D01*
X009592Y016544D01*
X009575Y016503D01*
X009558Y016544D01*
X009398Y016704D01*
X009189Y016791D01*
X008962Y016791D01*
X008752Y016704D01*
X008592Y016544D01*
X008572Y016495D01*
X008558Y016528D01*
X008398Y016688D01*
X008189Y016775D01*
X007962Y016775D01*
X007752Y016688D01*
X007592Y016528D01*
X007575Y016487D01*
X007558Y016528D01*
X007398Y016688D01*
X007189Y016775D01*
X006962Y016775D01*
X006752Y016688D01*
X006592Y016528D01*
X006575Y016487D01*
X006558Y016528D01*
X006398Y016688D01*
X006189Y016775D01*
X005962Y016775D01*
X005752Y016688D01*
X005592Y016528D01*
X005575Y016487D01*
X005558Y016528D01*
X005398Y016688D01*
X005189Y016775D01*
X004962Y016775D01*
X004752Y016688D01*
X004592Y016528D01*
X004553Y016434D01*
X004528Y016483D01*
X004479Y016550D01*
X004420Y016609D01*
X004353Y016658D01*
X004279Y016696D01*
X004199Y016722D01*
X004124Y016734D01*
X004124Y016254D01*
X004027Y016254D01*
X004027Y016734D01*
X003951Y016722D01*
X003872Y016696D01*
X003797Y016658D01*
X003730Y016609D01*
X003671Y016550D01*
X003622Y016483D01*
X003584Y016409D01*
X003575Y016381D01*
X003566Y016409D01*
X003528Y016483D01*
X003479Y016550D01*
X003420Y016609D01*
X003353Y016658D01*
X003279Y016696D01*
X003199Y016722D01*
X003124Y016734D01*
X003124Y016254D01*
X003027Y016254D01*
X003027Y016734D01*
X002951Y016722D01*
X002872Y016696D01*
X002797Y016658D01*
X002730Y016609D01*
X002671Y016550D01*
X002622Y016483D01*
X002584Y016409D01*
X002558Y016329D01*
X002546Y016254D01*
X003027Y016254D01*
X003027Y016157D01*
X002546Y016157D01*
X002558Y016081D01*
X002584Y016002D01*
X002622Y015927D01*
X002671Y015860D01*
X002730Y015801D01*
X002797Y015752D01*
X002872Y015714D01*
X002951Y015688D01*
X003027Y015676D01*
X003027Y016157D01*
X003124Y016157D01*
X003124Y016254D01*
X004027Y016254D01*
X004027Y016157D01*
X003546Y016157D01*
X003124Y016157D01*
X003124Y015676D01*
X003199Y015688D01*
X003279Y015714D01*
X003353Y015752D01*
X003420Y015801D01*
X003479Y015860D01*
X003528Y015927D01*
X003566Y016002D01*
X003575Y016029D01*
X003584Y016002D01*
X003622Y015927D01*
X003671Y015860D01*
X003730Y015801D01*
X003797Y015752D01*
X003872Y015714D01*
X003951Y015688D01*
X004027Y015676D01*
X004027Y016157D01*
X004124Y016157D01*
X004124Y015676D01*
X004199Y015688D01*
X004279Y015714D01*
X004353Y015752D01*
X004420Y015801D01*
X004479Y015860D01*
X004528Y015927D01*
X004553Y015976D01*
X004592Y015882D01*
X004752Y015722D01*
X004962Y015635D01*
X005189Y015635D01*
X005398Y015722D01*
X005558Y015882D01*
X005575Y015923D01*
X005592Y015882D01*
X005752Y015722D01*
X005962Y015635D01*
X006189Y015635D01*
X006398Y015722D01*
X006558Y015882D01*
X006575Y015923D01*
X006592Y015882D01*
X006752Y015722D01*
X006962Y015635D01*
X007189Y015635D01*
X007398Y015722D01*
X007558Y015882D01*
X007575Y015923D01*
X007592Y015882D01*
X007752Y015722D01*
X007962Y015635D01*
X008189Y015635D01*
X008398Y015722D01*
X008558Y015882D01*
X008578Y015931D01*
X008592Y015898D01*
X008752Y015738D01*
X008962Y015651D01*
X009189Y015651D01*
X009398Y015738D01*
X009558Y015898D01*
X009575Y015939D01*
X009592Y015898D01*
X009752Y015738D01*
X009962Y015651D01*
X010189Y015651D01*
X010398Y015738D01*
X010558Y015898D01*
X010575Y015939D01*
X010592Y015898D01*
X010752Y015738D01*
X010962Y015651D01*
X011189Y015651D01*
X011398Y015738D01*
X011558Y015898D01*
X011575Y015939D01*
X011592Y015898D01*
X011752Y015738D01*
X011962Y015651D01*
X012189Y015651D01*
X012398Y015738D01*
X012558Y015898D01*
X012575Y015939D01*
X012592Y015898D01*
X012752Y015738D01*
X012962Y015651D01*
X013189Y015651D01*
X013398Y015738D01*
X013558Y015898D01*
X013575Y015939D01*
X013592Y015898D01*
X013752Y015738D01*
X013962Y015651D01*
X014189Y015651D01*
X014398Y015738D01*
X014558Y015898D01*
X014645Y016108D01*
X014645Y016334D01*
X014558Y016544D01*
X014398Y016704D01*
X014502Y016600D02*
X017538Y016600D01*
X017469Y016501D02*
X014576Y016501D01*
X014617Y016403D02*
X017469Y016403D01*
X017469Y016304D02*
X014645Y016304D01*
X014645Y016206D02*
X017469Y016206D01*
X017469Y016107D02*
X014645Y016107D01*
X014604Y016009D02*
X017560Y016009D01*
X017659Y015910D02*
X014563Y015910D01*
X014472Y015812D02*
X017750Y015812D01*
X017651Y015713D02*
X014338Y015713D01*
X014523Y015319D02*
X000650Y015319D01*
X000650Y015221D02*
X014390Y015221D01*
X014463Y015294D02*
X014226Y015057D01*
X014098Y014747D01*
X014098Y014411D01*
X014226Y014101D01*
X014463Y013864D01*
X014774Y013735D01*
X014905Y013735D01*
X014752Y013672D01*
X014592Y013512D01*
X014505Y013303D01*
X014505Y013076D01*
X014592Y012867D01*
X014752Y012706D01*
X014793Y012689D01*
X014752Y012672D01*
X014592Y012512D01*
X014505Y012303D01*
X014505Y012076D01*
X014592Y011867D01*
X014752Y011706D01*
X014793Y011689D01*
X014752Y011672D01*
X014592Y011512D01*
X014505Y011303D01*
X014505Y011076D01*
X014592Y010867D01*
X014752Y010706D01*
X014793Y010689D01*
X014793Y010690D02*
X002357Y010690D01*
X002357Y010689D02*
X002398Y010706D01*
X002558Y010867D01*
X002645Y011076D01*
X002645Y011303D01*
X002558Y011512D01*
X002398Y011672D01*
X002357Y011689D01*
X002398Y011706D01*
X002558Y011867D01*
X002645Y012076D01*
X002645Y012303D01*
X002558Y012512D01*
X002398Y012672D01*
X002357Y012689D01*
X002398Y012706D01*
X002558Y012867D01*
X002645Y013076D01*
X002645Y013303D01*
X002558Y013512D01*
X002398Y013672D01*
X002189Y013759D01*
X001962Y013759D01*
X001752Y013672D01*
X001592Y013512D01*
X001505Y013303D01*
X001505Y013076D01*
X001592Y012867D01*
X001752Y012706D01*
X001793Y012689D01*
X001752Y012672D01*
X001592Y012512D01*
X001505Y012303D01*
X001505Y012076D01*
X001592Y011867D01*
X001752Y011706D01*
X001793Y011689D01*
X001752Y011672D01*
X001592Y011512D01*
X001505Y011303D01*
X001505Y011076D01*
X001592Y010867D01*
X001752Y010706D01*
X001793Y010689D01*
X001793Y010690D02*
X000650Y010690D01*
X000650Y010788D02*
X001671Y010788D01*
X001584Y010887D02*
X000650Y010887D01*
X000650Y010985D02*
X001543Y010985D01*
X001505Y011084D02*
X000650Y011084D01*
X000650Y011182D02*
X001505Y011182D01*
X001505Y011281D02*
X000650Y011281D01*
X000650Y011379D02*
X001537Y011379D01*
X001578Y011478D02*
X000650Y011478D01*
X000650Y011576D02*
X001656Y011576D01*
X001758Y011675D02*
X000650Y011675D01*
X000650Y011773D02*
X001686Y011773D01*
X001590Y011872D02*
X000650Y011872D01*
X000650Y011970D02*
X001549Y011970D01*
X001509Y012069D02*
X000650Y012069D01*
X000650Y012167D02*
X001505Y012167D01*
X001505Y012266D02*
X000650Y012266D01*
X000650Y012364D02*
X001531Y012364D01*
X001572Y012463D02*
X000650Y012463D01*
X000650Y012561D02*
X001641Y012561D01*
X001740Y012660D02*
X000650Y012660D01*
X000650Y012758D02*
X001701Y012758D01*
X001602Y012857D02*
X000650Y012857D01*
X000650Y012955D02*
X001556Y012955D01*
X001515Y013054D02*
X000650Y013054D01*
X000650Y013152D02*
X001505Y013152D01*
X001505Y013251D02*
X000650Y013251D01*
X000650Y013349D02*
X001525Y013349D01*
X001565Y013448D02*
X000650Y013448D01*
X000650Y013546D02*
X001626Y013546D01*
X001725Y013645D02*
X000650Y013645D01*
X000650Y013743D02*
X001923Y013743D01*
X002227Y013743D02*
X014755Y013743D01*
X014725Y013645D02*
X002426Y013645D01*
X002524Y013546D02*
X014626Y013546D01*
X014565Y013448D02*
X002585Y013448D01*
X002626Y013349D02*
X014525Y013349D01*
X014505Y013251D02*
X002645Y013251D01*
X002645Y013152D02*
X014505Y013152D01*
X014515Y013054D02*
X002636Y013054D01*
X002595Y012955D02*
X014556Y012955D01*
X014602Y012857D02*
X002548Y012857D01*
X002450Y012758D02*
X014701Y012758D01*
X014740Y012660D02*
X002411Y012660D01*
X002509Y012561D02*
X014641Y012561D01*
X014572Y012463D02*
X002579Y012463D01*
X002620Y012364D02*
X014531Y012364D01*
X014505Y012266D02*
X002645Y012266D01*
X002645Y012167D02*
X014505Y012167D01*
X014509Y012069D02*
X002642Y012069D01*
X002601Y011970D02*
X014549Y011970D01*
X014590Y011872D02*
X002560Y011872D01*
X002465Y011773D02*
X014686Y011773D01*
X014758Y011675D02*
X002393Y011675D01*
X002494Y011576D02*
X014656Y011576D01*
X014578Y011478D02*
X002573Y011478D01*
X002613Y011379D02*
X014537Y011379D01*
X014505Y011281D02*
X002645Y011281D01*
X002645Y011182D02*
X014505Y011182D01*
X014505Y011084D02*
X002645Y011084D01*
X002607Y010985D02*
X014543Y010985D01*
X014584Y010887D02*
X002566Y010887D01*
X002480Y010788D02*
X014671Y010788D01*
X014752Y010672D02*
X014592Y010512D01*
X014505Y010303D01*
X014505Y010076D01*
X014592Y009867D01*
X014752Y009706D01*
X014793Y009689D01*
X014752Y009672D01*
X014592Y009512D01*
X014505Y009303D01*
X014505Y009076D01*
X014592Y008867D01*
X014752Y008706D01*
X014793Y008689D01*
X014752Y008672D01*
X014592Y008512D01*
X014505Y008303D01*
X014505Y008076D01*
X014592Y007867D01*
X014752Y007706D01*
X014793Y007689D01*
X014752Y007672D01*
X014592Y007512D01*
X014505Y007303D01*
X014505Y007076D01*
X014592Y006867D01*
X014752Y006706D01*
X014962Y006620D01*
X015189Y006620D01*
X015398Y006706D01*
X015558Y006867D01*
X015645Y007076D01*
X015645Y007303D01*
X015558Y007512D01*
X015398Y007672D01*
X015357Y007689D01*
X015398Y007706D01*
X015558Y007867D01*
X015645Y008076D01*
X015645Y008303D01*
X015558Y008512D01*
X015398Y008672D01*
X015357Y008689D01*
X015398Y008706D01*
X015558Y008867D01*
X015645Y009076D01*
X015645Y009303D01*
X015558Y009512D01*
X015398Y009672D01*
X015357Y009689D01*
X015398Y009706D01*
X015558Y009867D01*
X015645Y010076D01*
X015645Y010303D01*
X015558Y010512D01*
X015398Y010672D01*
X015357Y010689D01*
X015398Y010706D01*
X015558Y010867D01*
X015645Y011076D01*
X015645Y011303D01*
X015558Y011512D01*
X015398Y011672D01*
X015357Y011689D01*
X015398Y011706D01*
X015558Y011867D01*
X015645Y012076D01*
X015645Y012303D01*
X015558Y012512D01*
X015398Y012672D01*
X015357Y012689D01*
X015398Y012706D01*
X015558Y012867D01*
X015645Y013076D01*
X015645Y013303D01*
X015558Y013512D01*
X015398Y013672D01*
X015189Y013759D01*
X015166Y013759D01*
X015419Y013864D01*
X015657Y014101D01*
X015785Y014411D01*
X015785Y014747D01*
X015657Y015057D01*
X015419Y015294D01*
X015109Y015423D01*
X014774Y015423D01*
X014463Y015294D01*
X014291Y015122D02*
X000650Y015122D01*
X000650Y015024D02*
X014212Y015024D01*
X014171Y014925D02*
X000650Y014925D01*
X000650Y014827D02*
X014131Y014827D01*
X014098Y014728D02*
X000650Y014728D01*
X000650Y014630D02*
X014098Y014630D01*
X014098Y014531D02*
X000650Y014531D01*
X000650Y014433D02*
X014098Y014433D01*
X014130Y014334D02*
X000650Y014334D01*
X000650Y014236D02*
X014170Y014236D01*
X014211Y014137D02*
X000650Y014137D01*
X000650Y014039D02*
X014289Y014039D01*
X014387Y013940D02*
X000650Y013940D01*
X000650Y013842D02*
X014517Y013842D01*
X015227Y013743D02*
X017681Y013743D01*
X017727Y013842D02*
X015365Y013842D01*
X015495Y013940D02*
X017629Y013940D01*
X017530Y014039D02*
X015594Y014039D01*
X015671Y014137D02*
X017469Y014137D01*
X017469Y014236D02*
X015712Y014236D01*
X015753Y014334D02*
X017469Y014334D01*
X017568Y014630D02*
X015785Y014630D01*
X015785Y014728D02*
X017666Y014728D01*
X017742Y014827D02*
X015752Y014827D01*
X015711Y014925D02*
X017644Y014925D01*
X017545Y015024D02*
X015670Y015024D01*
X015592Y015122D02*
X017469Y015122D01*
X017469Y015221D02*
X015493Y015221D01*
X015360Y015319D02*
X017469Y015319D01*
X017469Y015418D02*
X015122Y015418D01*
X014761Y015418D02*
X000650Y015418D01*
X000650Y015516D02*
X017469Y015516D01*
X017553Y015615D02*
X000650Y015615D01*
X000650Y015713D02*
X002875Y015713D01*
X003027Y015713D02*
X003124Y015713D01*
X003124Y015812D02*
X003027Y015812D01*
X003027Y015910D02*
X003124Y015910D01*
X003124Y016009D02*
X003027Y016009D01*
X003027Y016107D02*
X003124Y016107D01*
X003124Y016206D02*
X004027Y016206D01*
X004027Y016304D02*
X004124Y016304D01*
X004124Y016403D02*
X004027Y016403D01*
X004027Y016501D02*
X004124Y016501D01*
X004124Y016600D02*
X004027Y016600D01*
X004027Y016698D02*
X004124Y016698D01*
X004273Y016698D02*
X004776Y016698D01*
X004664Y016600D02*
X004430Y016600D01*
X004515Y016501D02*
X004581Y016501D01*
X003877Y016698D02*
X003273Y016698D01*
X003124Y016698D02*
X003027Y016698D01*
X003027Y016600D02*
X003124Y016600D01*
X003124Y016501D02*
X003027Y016501D01*
X003027Y016403D02*
X003124Y016403D01*
X003124Y016304D02*
X003027Y016304D01*
X003027Y016206D02*
X000650Y016206D01*
X000650Y016304D02*
X002554Y016304D01*
X002582Y016403D02*
X000650Y016403D01*
X000650Y016501D02*
X002635Y016501D01*
X002720Y016600D02*
X000650Y016600D01*
X000650Y016698D02*
X002877Y016698D01*
X003430Y016600D02*
X003720Y016600D01*
X003635Y016501D02*
X003515Y016501D01*
X003568Y016403D02*
X003582Y016403D01*
X003569Y016009D02*
X003582Y016009D01*
X003634Y015910D02*
X003516Y015910D01*
X003431Y015812D02*
X003719Y015812D01*
X003875Y015713D02*
X003276Y015713D01*
X002719Y015812D02*
X000650Y015812D01*
X000650Y015910D02*
X002634Y015910D01*
X002582Y016009D02*
X000650Y016009D01*
X000650Y016107D02*
X002554Y016107D01*
X004027Y016107D02*
X004124Y016107D01*
X004124Y016009D02*
X004027Y016009D01*
X004027Y015910D02*
X004124Y015910D01*
X004124Y015812D02*
X004027Y015812D01*
X004027Y015713D02*
X004124Y015713D01*
X004276Y015713D02*
X004774Y015713D01*
X004663Y015812D02*
X004431Y015812D01*
X004516Y015910D02*
X004581Y015910D01*
X005376Y015713D02*
X005774Y015713D01*
X005663Y015812D02*
X005487Y015812D01*
X005570Y015910D02*
X005581Y015910D01*
X005569Y016501D02*
X005581Y016501D01*
X005664Y016600D02*
X005487Y016600D01*
X005374Y016698D02*
X005776Y016698D01*
X006374Y016698D02*
X006776Y016698D01*
X006664Y016600D02*
X006487Y016600D01*
X006569Y016501D02*
X006581Y016501D01*
X006570Y015910D02*
X006581Y015910D01*
X006663Y015812D02*
X006487Y015812D01*
X006376Y015713D02*
X006774Y015713D01*
X007376Y015713D02*
X007774Y015713D01*
X007663Y015812D02*
X007487Y015812D01*
X007570Y015910D02*
X007581Y015910D01*
X007569Y016501D02*
X007581Y016501D01*
X007664Y016600D02*
X007487Y016600D01*
X007374Y016698D02*
X007776Y016698D01*
X008374Y016698D02*
X008747Y016698D01*
X008648Y016600D02*
X008487Y016600D01*
X008569Y016501D02*
X008575Y016501D01*
X008570Y015910D02*
X008587Y015910D01*
X008679Y015812D02*
X008487Y015812D01*
X008376Y015713D02*
X008812Y015713D01*
X009338Y015713D02*
X009812Y015713D01*
X009679Y015812D02*
X009472Y015812D01*
X009563Y015910D02*
X009587Y015910D01*
X009648Y016600D02*
X009502Y016600D01*
X009404Y016698D02*
X009747Y016698D01*
X010404Y016698D02*
X010747Y016698D01*
X010648Y016600D02*
X010502Y016600D01*
X010563Y015910D02*
X010587Y015910D01*
X010679Y015812D02*
X010472Y015812D01*
X010338Y015713D02*
X010812Y015713D01*
X011338Y015713D02*
X011812Y015713D01*
X011679Y015812D02*
X011472Y015812D01*
X011563Y015910D02*
X011587Y015910D01*
X011648Y016600D02*
X011502Y016600D01*
X011404Y016698D02*
X011747Y016698D01*
X012404Y016698D02*
X012747Y016698D01*
X012648Y016600D02*
X012502Y016600D01*
X012563Y015910D02*
X012587Y015910D01*
X012679Y015812D02*
X012472Y015812D01*
X012338Y015713D02*
X012812Y015713D01*
X013338Y015713D02*
X013812Y015713D01*
X013679Y015812D02*
X013472Y015812D01*
X013563Y015910D02*
X013587Y015910D01*
X013648Y016600D02*
X013502Y016600D01*
X013404Y016698D02*
X013747Y016698D01*
X011090Y018865D02*
X036469Y018865D01*
X036469Y018767D02*
X010925Y018767D01*
X011181Y018964D02*
X036469Y018964D01*
X036501Y018668D02*
X010239Y018668D01*
X010141Y018570D02*
X036599Y018570D01*
X036698Y018471D02*
X010042Y018471D01*
X009944Y018373D02*
X036711Y018373D01*
X036612Y018274D02*
X009845Y018274D01*
X009747Y018176D02*
X036514Y018176D01*
X036469Y018077D02*
X009648Y018077D01*
X009463Y018570D02*
X008978Y018570D01*
X008880Y018668D02*
X009561Y018668D01*
X009660Y018767D02*
X008712Y018767D01*
X008992Y017979D02*
X036469Y017979D01*
X036469Y017880D02*
X008907Y017880D01*
X008779Y017782D02*
X036469Y017782D01*
X036486Y017683D02*
X000650Y017683D01*
X000650Y017585D02*
X036584Y017585D01*
X036683Y017486D02*
X000650Y017486D01*
X000650Y017388D02*
X036782Y017388D01*
X036683Y017289D02*
X000650Y017289D01*
X000650Y017191D02*
X036585Y017191D01*
X036509Y017092D02*
X000650Y017092D01*
X000650Y016994D02*
X036509Y016994D01*
X036509Y016797D02*
X018242Y016797D01*
X018341Y016698D02*
X036527Y016698D01*
X036626Y016600D02*
X018439Y016600D01*
X018508Y016501D02*
X036724Y016501D01*
X036773Y016435D02*
X036469Y016131D01*
X036469Y015700D01*
X036754Y015415D01*
X036469Y015131D01*
X036469Y014700D01*
X036754Y014415D01*
X036469Y014131D01*
X036469Y013700D01*
X036754Y013415D01*
X036469Y013131D01*
X036469Y012700D01*
X036754Y012415D01*
X036469Y012131D01*
X036469Y011700D01*
X036754Y011415D01*
X036469Y011131D01*
X036469Y010700D01*
X036773Y010396D01*
X037204Y010396D01*
X037508Y010700D01*
X037508Y011131D01*
X037224Y011415D01*
X037508Y011700D01*
X037508Y012131D01*
X037224Y012415D01*
X037508Y012700D01*
X037508Y013131D01*
X037224Y013415D01*
X037508Y013700D01*
X037508Y014131D01*
X037224Y014415D01*
X037508Y014700D01*
X037508Y015131D01*
X037224Y015415D01*
X037508Y015700D01*
X037508Y016131D01*
X037204Y016435D01*
X036773Y016435D01*
X036741Y016403D02*
X018508Y016403D01*
X018508Y016304D02*
X036642Y016304D01*
X036544Y016206D02*
X018508Y016206D01*
X018508Y016107D02*
X036469Y016107D01*
X036469Y016009D02*
X018417Y016009D01*
X018318Y015910D02*
X036469Y015910D01*
X036469Y015812D02*
X018227Y015812D01*
X018326Y015713D02*
X036469Y015713D01*
X036554Y015615D02*
X018424Y015615D01*
X018508Y015516D02*
X036653Y015516D01*
X036751Y015418D02*
X018508Y015418D01*
X018508Y015319D02*
X036657Y015319D01*
X036559Y015221D02*
X018508Y015221D01*
X018508Y015122D02*
X036469Y015122D01*
X036469Y015024D02*
X018432Y015024D01*
X018333Y014925D02*
X036469Y014925D01*
X036469Y014827D02*
X018235Y014827D01*
X018311Y014728D02*
X036469Y014728D01*
X036539Y014630D02*
X018409Y014630D01*
X018508Y014334D02*
X036672Y014334D01*
X036574Y014236D02*
X018508Y014236D01*
X018508Y014137D02*
X036475Y014137D01*
X036469Y014039D02*
X018447Y014039D01*
X018348Y013940D02*
X036469Y013940D01*
X036469Y013842D02*
X018250Y013842D01*
X018296Y013743D02*
X036469Y013743D01*
X036524Y013645D02*
X018394Y013645D01*
X018493Y013546D02*
X036623Y013546D01*
X036721Y013448D02*
X018508Y013448D01*
X018508Y013349D02*
X036687Y013349D01*
X036589Y013251D02*
X018508Y013251D01*
X018508Y013152D02*
X036490Y013152D01*
X036469Y013054D02*
X018462Y013054D01*
X018363Y012955D02*
X036469Y012955D01*
X036469Y012857D02*
X018265Y012857D01*
X018281Y012758D02*
X036469Y012758D01*
X036509Y012660D02*
X018379Y012660D01*
X018478Y012561D02*
X036608Y012561D01*
X036706Y012463D02*
X019331Y012463D01*
X019464Y012364D02*
X036702Y012364D01*
X036604Y012266D02*
X019597Y012266D01*
X019730Y012167D02*
X036505Y012167D01*
X036469Y012069D02*
X019864Y012069D01*
X019997Y011970D02*
X036469Y011970D01*
X036469Y011872D02*
X020130Y011872D01*
X020239Y011773D02*
X036469Y011773D01*
X036494Y011675D02*
X020272Y011675D01*
X020272Y011576D02*
X036593Y011576D01*
X036691Y011478D02*
X020272Y011478D01*
X020272Y011379D02*
X036717Y011379D01*
X036619Y011281D02*
X020272Y011281D01*
X020272Y011182D02*
X036520Y011182D01*
X036469Y011084D02*
X020272Y011084D01*
X020272Y010985D02*
X036469Y010985D01*
X036469Y010887D02*
X020272Y010887D01*
X020272Y010788D02*
X036469Y010788D01*
X036479Y010690D02*
X020272Y010690D01*
X020272Y010591D02*
X036578Y010591D01*
X036676Y010493D02*
X020272Y010493D01*
X020272Y010394D02*
X037760Y010394D01*
X037760Y010296D02*
X020272Y010296D01*
X020272Y010197D02*
X037760Y010197D01*
X037760Y010099D02*
X020272Y010099D01*
X020272Y010000D02*
X037760Y010000D01*
X037760Y009902D02*
X020237Y009902D01*
X020133Y009803D02*
X036741Y009803D01*
X036773Y009835D02*
X036469Y009531D01*
X036469Y009100D01*
X036754Y008815D01*
X036469Y008531D01*
X036469Y008100D01*
X036754Y007815D01*
X036469Y007531D01*
X036469Y007100D01*
X036754Y006815D01*
X036469Y006531D01*
X036469Y006100D01*
X036754Y005815D01*
X036469Y005531D01*
X036469Y005100D01*
X036754Y004815D01*
X036469Y004531D01*
X036469Y004100D01*
X036754Y003815D01*
X036469Y003531D01*
X036469Y003100D01*
X036754Y002815D01*
X036469Y002531D01*
X036469Y002100D01*
X036773Y001796D01*
X037204Y001796D01*
X037508Y002100D01*
X037508Y002531D01*
X037224Y002815D01*
X037508Y003100D01*
X037508Y003531D01*
X037224Y003815D01*
X037508Y004100D01*
X037508Y004531D01*
X037224Y004815D01*
X037508Y005100D01*
X037508Y005531D01*
X037224Y005815D01*
X037508Y006100D01*
X037508Y006531D01*
X037224Y006815D01*
X037508Y007100D01*
X037508Y007531D01*
X037224Y007815D01*
X037508Y008100D01*
X037508Y008531D01*
X037224Y008815D01*
X037508Y009100D01*
X037508Y009531D01*
X037204Y009835D01*
X036773Y009835D01*
X036643Y009705D02*
X020018Y009705D01*
X019903Y009606D02*
X036544Y009606D01*
X036469Y009508D02*
X019789Y009508D01*
X019674Y009409D02*
X036469Y009409D01*
X036469Y009311D02*
X019559Y009311D01*
X019444Y009212D02*
X036469Y009212D01*
X036469Y009114D02*
X019329Y009114D01*
X019205Y009323D02*
X017996Y009323D01*
X017989Y009315D01*
X017469Y009311D02*
X015642Y009311D01*
X015645Y009212D02*
X017469Y009212D01*
X017469Y009114D02*
X015645Y009114D01*
X015620Y009015D02*
X017554Y009015D01*
X017652Y008917D02*
X015579Y008917D01*
X015510Y008818D02*
X017751Y008818D01*
X018226Y008818D02*
X036751Y008818D01*
X036658Y008720D02*
X015411Y008720D01*
X015449Y008621D02*
X036559Y008621D01*
X036469Y008523D02*
X015548Y008523D01*
X015595Y008424D02*
X036469Y008424D01*
X036469Y008326D02*
X015636Y008326D01*
X015645Y008227D02*
X036469Y008227D01*
X036469Y008129D02*
X015645Y008129D01*
X015626Y008030D02*
X036539Y008030D01*
X036637Y007932D02*
X015585Y007932D01*
X015525Y007833D02*
X017771Y007833D01*
X017773Y007835D02*
X017469Y007531D01*
X017469Y007100D01*
X017754Y006815D01*
X017469Y006531D01*
X017469Y006100D01*
X017754Y005815D01*
X017469Y005531D01*
X017469Y005100D01*
X017754Y004815D01*
X017469Y004531D01*
X017469Y004100D01*
X017754Y003815D01*
X017469Y003531D01*
X017469Y003100D01*
X017754Y002815D01*
X017469Y002531D01*
X017469Y002100D01*
X017773Y001796D01*
X018204Y001796D01*
X018508Y002100D01*
X018508Y002531D01*
X018224Y002815D01*
X018508Y003100D01*
X018508Y003531D01*
X018224Y003815D01*
X018508Y004100D01*
X018508Y004531D01*
X018224Y004815D01*
X018508Y005100D01*
X018508Y005531D01*
X018224Y005815D01*
X018508Y006100D01*
X018508Y006531D01*
X018224Y006815D01*
X018508Y007100D01*
X018508Y007531D01*
X018204Y007835D01*
X017773Y007835D01*
X017673Y007735D02*
X015426Y007735D01*
X015434Y007636D02*
X017574Y007636D01*
X017476Y007538D02*
X015533Y007538D01*
X015588Y007439D02*
X017469Y007439D01*
X017469Y007341D02*
X015629Y007341D01*
X015645Y007242D02*
X017469Y007242D01*
X017469Y007144D02*
X015645Y007144D01*
X015632Y007045D02*
X017524Y007045D01*
X017622Y006947D02*
X015591Y006947D01*
X015540Y006848D02*
X017721Y006848D01*
X017688Y006750D02*
X015441Y006750D01*
X015264Y006651D02*
X017589Y006651D01*
X017491Y006553D02*
X009514Y006553D01*
X009415Y006651D02*
X014886Y006651D01*
X014709Y006750D02*
X009317Y006750D01*
X009612Y006454D02*
X017469Y006454D01*
X017469Y006356D02*
X009645Y006356D01*
X009645Y006257D02*
X017469Y006257D01*
X017469Y006159D02*
X009645Y006159D01*
X009645Y006060D02*
X017509Y006060D01*
X017607Y005962D02*
X009645Y005962D01*
X009559Y005863D02*
X017706Y005863D01*
X017703Y005765D02*
X009460Y005765D01*
X009400Y005666D02*
X017604Y005666D01*
X017506Y005568D02*
X009499Y005568D01*
X009597Y005469D02*
X017469Y005469D01*
X017469Y005371D02*
X009645Y005371D01*
X009645Y005272D02*
X017469Y005272D01*
X017469Y005174D02*
X009645Y005174D01*
X009645Y005075D02*
X017494Y005075D01*
X017592Y004977D02*
X009645Y004977D01*
X009574Y004878D02*
X017691Y004878D01*
X017718Y004780D02*
X009475Y004780D01*
X009377Y004681D02*
X017619Y004681D01*
X017521Y004583D02*
X009428Y004583D01*
X009526Y004484D02*
X017469Y004484D01*
X017469Y004386D02*
X009605Y004386D01*
X009605Y004287D02*
X017469Y004287D01*
X017469Y004189D02*
X009124Y004189D01*
X009605Y004090D02*
X017479Y004090D01*
X017577Y003992D02*
X009605Y003992D01*
X009532Y003893D02*
X017676Y003893D01*
X017733Y003795D02*
X014829Y003795D01*
X015029Y003696D02*
X017634Y003696D01*
X017536Y003598D02*
X015126Y003598D01*
X015192Y003499D02*
X017469Y003499D01*
X017469Y003401D02*
X015266Y003401D01*
X015340Y003302D02*
X017469Y003302D01*
X017469Y003204D02*
X015414Y003204D01*
X015488Y003105D02*
X017469Y003105D01*
X017562Y003007D02*
X015562Y003007D01*
X015636Y002908D02*
X017661Y002908D01*
X017748Y002810D02*
X015710Y002810D01*
X015783Y002711D02*
X017649Y002711D01*
X017551Y002613D02*
X015857Y002613D01*
X015931Y002514D02*
X017469Y002514D01*
X017469Y002416D02*
X016005Y002416D01*
X016079Y002317D02*
X017469Y002317D01*
X017469Y002219D02*
X016153Y002219D01*
X016227Y002120D02*
X017469Y002120D01*
X017547Y002022D02*
X016301Y002022D01*
X016374Y001923D02*
X017646Y001923D01*
X017744Y001825D02*
X016448Y001825D01*
X016522Y001726D02*
X037760Y001726D01*
X037760Y001628D02*
X016596Y001628D01*
X016670Y001529D02*
X037760Y001529D01*
X037760Y001431D02*
X016744Y001431D01*
X016818Y001332D02*
X037760Y001332D01*
X037760Y001234D02*
X016892Y001234D01*
X016965Y001135D02*
X037760Y001135D01*
X037760Y001037D02*
X017039Y001037D01*
X017113Y000938D02*
X037760Y000938D01*
X037760Y000840D02*
X017187Y000840D01*
X017261Y000741D02*
X037760Y000741D01*
X037760Y001825D02*
X037233Y001825D01*
X037331Y001923D02*
X037760Y001923D01*
X037760Y002022D02*
X037430Y002022D01*
X037508Y002120D02*
X037760Y002120D01*
X037760Y002219D02*
X037508Y002219D01*
X037508Y002317D02*
X037760Y002317D01*
X037760Y002416D02*
X037508Y002416D01*
X037508Y002514D02*
X037760Y002514D01*
X037760Y002613D02*
X037426Y002613D01*
X037328Y002711D02*
X037760Y002711D01*
X037760Y002810D02*
X037229Y002810D01*
X037316Y002908D02*
X037760Y002908D01*
X037760Y003007D02*
X037415Y003007D01*
X037508Y003105D02*
X037760Y003105D01*
X037760Y003204D02*
X037508Y003204D01*
X037508Y003302D02*
X037760Y003302D01*
X037760Y003401D02*
X037508Y003401D01*
X037508Y003499D02*
X037760Y003499D01*
X037760Y003598D02*
X037441Y003598D01*
X037343Y003696D02*
X037760Y003696D01*
X037760Y003795D02*
X037244Y003795D01*
X037301Y003893D02*
X037760Y003893D01*
X037760Y003992D02*
X037400Y003992D01*
X037498Y004090D02*
X037760Y004090D01*
X037760Y004189D02*
X037508Y004189D01*
X037508Y004287D02*
X037760Y004287D01*
X037760Y004386D02*
X037508Y004386D01*
X037508Y004484D02*
X037760Y004484D01*
X037760Y004583D02*
X037456Y004583D01*
X037358Y004681D02*
X037760Y004681D01*
X037760Y004780D02*
X037259Y004780D01*
X037286Y004878D02*
X037760Y004878D01*
X037760Y004977D02*
X037385Y004977D01*
X037483Y005075D02*
X037760Y005075D01*
X037760Y005174D02*
X037508Y005174D01*
X037508Y005272D02*
X037760Y005272D01*
X037760Y005371D02*
X037508Y005371D01*
X037508Y005469D02*
X037760Y005469D01*
X037760Y005568D02*
X037471Y005568D01*
X037373Y005666D02*
X037760Y005666D01*
X037760Y005765D02*
X037274Y005765D01*
X037271Y005863D02*
X037760Y005863D01*
X037760Y005962D02*
X037370Y005962D01*
X037468Y006060D02*
X037760Y006060D01*
X037760Y006159D02*
X037508Y006159D01*
X037508Y006257D02*
X037760Y006257D01*
X037760Y006356D02*
X037508Y006356D01*
X037508Y006454D02*
X037760Y006454D01*
X037760Y006553D02*
X037486Y006553D01*
X037388Y006651D02*
X037760Y006651D01*
X037760Y006750D02*
X037289Y006750D01*
X037256Y006848D02*
X037760Y006848D01*
X037760Y006947D02*
X037355Y006947D01*
X037453Y007045D02*
X037760Y007045D01*
X037760Y007144D02*
X037508Y007144D01*
X037508Y007242D02*
X037760Y007242D01*
X037760Y007341D02*
X037508Y007341D01*
X037508Y007439D02*
X037760Y007439D01*
X037760Y007538D02*
X037501Y007538D01*
X037403Y007636D02*
X037760Y007636D01*
X037760Y007735D02*
X037304Y007735D01*
X037241Y007833D02*
X037760Y007833D01*
X037760Y007932D02*
X037340Y007932D01*
X037438Y008030D02*
X037760Y008030D01*
X037760Y008129D02*
X037508Y008129D01*
X037508Y008227D02*
X037760Y008227D01*
X037760Y008326D02*
X037508Y008326D01*
X037508Y008424D02*
X037760Y008424D01*
X037760Y008523D02*
X037508Y008523D01*
X037418Y008621D02*
X037760Y008621D01*
X037760Y008720D02*
X037319Y008720D01*
X037226Y008818D02*
X037760Y008818D01*
X037760Y008917D02*
X037325Y008917D01*
X037423Y009015D02*
X037760Y009015D01*
X037760Y009114D02*
X037508Y009114D01*
X037508Y009212D02*
X037760Y009212D01*
X037760Y009311D02*
X037508Y009311D01*
X037508Y009409D02*
X037760Y009409D01*
X037760Y009508D02*
X037508Y009508D01*
X037433Y009606D02*
X037760Y009606D01*
X037760Y009705D02*
X037334Y009705D01*
X037236Y009803D02*
X037760Y009803D01*
X037760Y010493D02*
X037301Y010493D01*
X037399Y010591D02*
X037760Y010591D01*
X037760Y010690D02*
X037498Y010690D01*
X037508Y010788D02*
X037760Y010788D01*
X037760Y010887D02*
X037508Y010887D01*
X037508Y010985D02*
X037760Y010985D01*
X037760Y011084D02*
X037508Y011084D01*
X037457Y011182D02*
X037760Y011182D01*
X037760Y011281D02*
X037358Y011281D01*
X037260Y011379D02*
X037760Y011379D01*
X037760Y011478D02*
X037286Y011478D01*
X037384Y011576D02*
X037760Y011576D01*
X037760Y011675D02*
X037483Y011675D01*
X037508Y011773D02*
X037760Y011773D01*
X037760Y011872D02*
X037508Y011872D01*
X037508Y011970D02*
X037760Y011970D01*
X037760Y012069D02*
X037508Y012069D01*
X037472Y012167D02*
X037760Y012167D01*
X037760Y012266D02*
X037373Y012266D01*
X037275Y012364D02*
X037760Y012364D01*
X037760Y012463D02*
X037271Y012463D01*
X037369Y012561D02*
X037760Y012561D01*
X037760Y012660D02*
X037468Y012660D01*
X037508Y012758D02*
X037760Y012758D01*
X037760Y012857D02*
X037508Y012857D01*
X037508Y012955D02*
X037760Y012955D01*
X037760Y013054D02*
X037508Y013054D01*
X037487Y013152D02*
X037760Y013152D01*
X037760Y013251D02*
X037388Y013251D01*
X037290Y013349D02*
X037760Y013349D01*
X037760Y013448D02*
X037256Y013448D01*
X037354Y013546D02*
X037760Y013546D01*
X037760Y013645D02*
X037453Y013645D01*
X037508Y013743D02*
X037760Y013743D01*
X037760Y013842D02*
X037508Y013842D01*
X037508Y013940D02*
X037760Y013940D01*
X037760Y014039D02*
X037508Y014039D01*
X037502Y014137D02*
X037760Y014137D01*
X037760Y014236D02*
X037403Y014236D01*
X037305Y014334D02*
X037760Y014334D01*
X037760Y014433D02*
X037241Y014433D01*
X037339Y014531D02*
X037760Y014531D01*
X037760Y014630D02*
X037438Y014630D01*
X037508Y014728D02*
X037760Y014728D01*
X037760Y014827D02*
X037508Y014827D01*
X037508Y014925D02*
X037760Y014925D01*
X037760Y015024D02*
X037508Y015024D01*
X037508Y015122D02*
X037760Y015122D01*
X037760Y015221D02*
X037418Y015221D01*
X037320Y015319D02*
X037760Y015319D01*
X037760Y015418D02*
X037226Y015418D01*
X037324Y015516D02*
X037760Y015516D01*
X037760Y015615D02*
X037423Y015615D01*
X037508Y015713D02*
X037760Y015713D01*
X037760Y015812D02*
X037508Y015812D01*
X037508Y015910D02*
X037760Y015910D01*
X037760Y016009D02*
X037508Y016009D01*
X037508Y016107D02*
X037760Y016107D01*
X037760Y016206D02*
X037433Y016206D01*
X037335Y016304D02*
X037760Y016304D01*
X037760Y016403D02*
X037236Y016403D01*
X037187Y016435D02*
X037469Y016717D01*
X037469Y016867D01*
X037037Y016867D01*
X037037Y016435D01*
X037187Y016435D01*
X037253Y016501D02*
X037760Y016501D01*
X037760Y016600D02*
X037352Y016600D01*
X037450Y016698D02*
X037760Y016698D01*
X037760Y016797D02*
X037469Y016797D01*
X037469Y016994D02*
X037760Y016994D01*
X037760Y017092D02*
X037469Y017092D01*
X037392Y017191D02*
X037760Y017191D01*
X037760Y017289D02*
X037294Y017289D01*
X037037Y016895D02*
X037760Y016895D01*
X037037Y016797D02*
X036940Y016797D01*
X036940Y016698D02*
X037037Y016698D01*
X037037Y016600D02*
X036940Y016600D01*
X036940Y016501D02*
X037037Y016501D01*
X037760Y020540D02*
X017417Y020540D01*
X017390Y020638D02*
X037760Y020638D01*
X037760Y020737D02*
X017338Y020737D01*
X017281Y020835D02*
X037760Y020835D01*
X037760Y020934D02*
X017212Y020934D01*
X017113Y021032D02*
X037760Y021032D01*
X037760Y021131D02*
X016999Y021131D01*
X016828Y021229D02*
X037760Y021229D01*
X037760Y021328D02*
X016510Y021328D01*
X016212Y021328D02*
X011250Y021328D01*
X011251Y021229D02*
X015894Y021229D01*
X015723Y021131D02*
X011250Y021131D01*
X011210Y021032D02*
X015609Y021032D01*
X015510Y020934D02*
X011158Y020934D01*
X011060Y020835D02*
X015441Y020835D01*
X015384Y020737D02*
X009619Y020737D01*
X009717Y020835D02*
X009862Y020835D01*
X009973Y020638D02*
X009520Y020638D01*
X009422Y020540D02*
X009835Y020540D01*
X009764Y020441D02*
X009323Y020441D01*
X008792Y020248D02*
X009796Y021252D01*
X010437Y021252D01*
X010461Y021229D01*
X011059Y021623D02*
X037760Y021623D01*
X037760Y021525D02*
X011158Y021525D01*
X011209Y021426D02*
X037760Y021426D01*
X037760Y023298D02*
X014897Y023298D01*
X015060Y023396D02*
X037760Y023396D01*
X037760Y023495D02*
X015143Y023495D01*
X015208Y023593D02*
X037760Y023593D01*
X037760Y023692D02*
X015282Y023692D01*
X015355Y023790D02*
X037760Y023790D01*
X037760Y023889D02*
X015429Y023889D01*
X015503Y023987D02*
X037760Y023987D01*
X037760Y024086D02*
X015577Y024086D01*
X015651Y024184D02*
X037760Y024184D01*
X037760Y024283D02*
X015725Y024283D01*
X015799Y024381D02*
X037760Y024381D01*
X037760Y024480D02*
X015873Y024480D01*
X015946Y024578D02*
X037760Y024578D01*
X037760Y024677D02*
X016020Y024677D01*
X016094Y024775D02*
X037760Y024775D01*
X037760Y024874D02*
X016168Y024874D01*
X016242Y024972D02*
X037760Y024972D01*
X037760Y025071D02*
X016316Y025071D01*
X016390Y025169D02*
X037760Y025169D01*
X037760Y025268D02*
X016464Y025268D01*
X016537Y025366D02*
X037760Y025366D01*
X037760Y025465D02*
X016611Y025465D01*
X016685Y025563D02*
X037760Y025563D01*
X037760Y025662D02*
X016759Y025662D01*
X016833Y025760D02*
X037760Y025760D01*
X037760Y025859D02*
X016907Y025859D01*
X016981Y025957D02*
X037760Y025957D01*
X037760Y026056D02*
X017055Y026056D01*
X017128Y026154D02*
X037760Y026154D01*
X037760Y026253D02*
X017202Y026253D01*
X017276Y026351D02*
X037760Y026351D01*
X020032Y011646D02*
X019126Y012315D01*
X017989Y012315D01*
X018378Y011970D02*
X019190Y011970D01*
X019057Y012069D02*
X018477Y012069D01*
X018280Y011872D02*
X019323Y011872D01*
X019457Y011773D02*
X018210Y011773D01*
X018187Y011795D02*
X018037Y011795D01*
X018037Y011364D01*
X017940Y011364D01*
X017940Y011795D01*
X017790Y011795D01*
X017509Y011514D01*
X017509Y011364D01*
X017940Y011364D01*
X017940Y011267D01*
X017509Y011267D01*
X017509Y011117D01*
X017790Y010835D01*
X017940Y010835D01*
X017940Y011267D01*
X018037Y011267D01*
X018037Y011364D01*
X018469Y011364D01*
X018469Y011514D01*
X018187Y011795D01*
X018037Y011773D02*
X017940Y011773D01*
X017940Y011675D02*
X018037Y011675D01*
X018037Y011576D02*
X017940Y011576D01*
X017940Y011478D02*
X018037Y011478D01*
X018037Y011379D02*
X017940Y011379D01*
X017940Y011281D02*
X015645Y011281D01*
X015645Y011182D02*
X017509Y011182D01*
X017542Y011084D02*
X015645Y011084D01*
X015607Y010985D02*
X017640Y010985D01*
X017739Y010887D02*
X015566Y010887D01*
X015480Y010788D02*
X017782Y010788D01*
X017790Y010795D02*
X017509Y010514D01*
X017509Y010364D01*
X017940Y010364D01*
X017940Y010795D01*
X017790Y010795D01*
X017684Y010690D02*
X015357Y010690D01*
X015479Y010591D02*
X017585Y010591D01*
X017509Y010493D02*
X015566Y010493D01*
X015607Y010394D02*
X017509Y010394D01*
X017509Y010267D02*
X017509Y010117D01*
X017790Y009835D01*
X017940Y009835D01*
X017940Y010267D01*
X017509Y010267D01*
X017509Y010197D02*
X015645Y010197D01*
X015645Y010099D02*
X017527Y010099D01*
X017625Y010000D02*
X015613Y010000D01*
X015573Y009902D02*
X017724Y009902D01*
X017741Y009803D02*
X015495Y009803D01*
X015394Y009705D02*
X017643Y009705D01*
X017544Y009606D02*
X015464Y009606D01*
X015560Y009508D02*
X017469Y009508D01*
X017469Y009409D02*
X015601Y009409D01*
X014757Y009705D02*
X002394Y009705D01*
X002398Y009706D02*
X002558Y009867D01*
X002645Y010076D01*
X002645Y010303D01*
X002558Y010512D01*
X002398Y010672D01*
X002357Y010689D01*
X002479Y010591D02*
X014671Y010591D01*
X014752Y010672D02*
X014793Y010689D01*
X014584Y010493D02*
X002566Y010493D01*
X002607Y010394D02*
X014543Y010394D01*
X014505Y010296D02*
X002645Y010296D01*
X002645Y010197D02*
X014505Y010197D01*
X014505Y010099D02*
X002645Y010099D01*
X002613Y010000D02*
X014537Y010000D01*
X014578Y009902D02*
X002573Y009902D01*
X002495Y009803D02*
X014656Y009803D01*
X014686Y009606D02*
X002464Y009606D01*
X002398Y009672D02*
X002357Y009689D01*
X002398Y009706D01*
X002398Y009672D02*
X002558Y009512D01*
X002645Y009303D01*
X002645Y009076D01*
X002558Y008867D01*
X002398Y008706D01*
X002357Y008689D01*
X002398Y008672D01*
X002558Y008512D01*
X002645Y008303D01*
X002645Y008076D01*
X002558Y007867D01*
X002398Y007706D01*
X002376Y007697D01*
X002398Y007688D01*
X002558Y007528D01*
X002645Y007318D01*
X002645Y007092D01*
X002558Y006882D01*
X002398Y006722D01*
X002189Y006635D01*
X001962Y006635D01*
X001752Y006722D01*
X001592Y006882D01*
X001505Y007092D01*
X001505Y007318D01*
X001592Y007528D01*
X001752Y007688D01*
X001774Y007697D01*
X001752Y007706D01*
X001592Y007867D01*
X001505Y008076D01*
X001505Y008303D01*
X001592Y008512D01*
X001752Y008672D01*
X001793Y008689D01*
X001752Y008706D01*
X001592Y008867D01*
X001505Y009076D01*
X001505Y009303D01*
X001592Y009512D01*
X001752Y009672D01*
X001793Y009689D01*
X001752Y009706D01*
X001592Y009867D01*
X001505Y010076D01*
X001505Y010303D01*
X001592Y010512D01*
X001752Y010672D01*
X001793Y010689D01*
X001671Y010591D02*
X000650Y010591D01*
X000650Y010493D02*
X001584Y010493D01*
X001543Y010394D02*
X000650Y010394D01*
X000650Y010296D02*
X001505Y010296D01*
X001505Y010197D02*
X000650Y010197D01*
X000650Y010099D02*
X001505Y010099D01*
X001537Y010000D02*
X000650Y010000D01*
X000650Y009902D02*
X001578Y009902D01*
X001656Y009803D02*
X000650Y009803D01*
X000650Y009705D02*
X001757Y009705D01*
X001686Y009606D02*
X000650Y009606D01*
X000650Y009508D02*
X001590Y009508D01*
X001549Y009409D02*
X000650Y009409D01*
X000650Y009311D02*
X001509Y009311D01*
X001505Y009212D02*
X000650Y009212D01*
X000650Y009114D02*
X001505Y009114D01*
X001531Y009015D02*
X000650Y009015D01*
X000650Y008917D02*
X001572Y008917D01*
X001641Y008818D02*
X000650Y008818D01*
X000650Y008720D02*
X001739Y008720D01*
X001701Y008621D02*
X000650Y008621D01*
X000650Y008523D02*
X001603Y008523D01*
X001556Y008424D02*
X000650Y008424D01*
X000650Y008326D02*
X001515Y008326D01*
X001505Y008227D02*
X000650Y008227D01*
X000650Y008129D02*
X001505Y008129D01*
X001524Y008030D02*
X000650Y008030D01*
X000650Y007932D02*
X001565Y007932D01*
X001626Y007833D02*
X000650Y007833D01*
X000650Y007735D02*
X001724Y007735D01*
X001700Y007636D02*
X000650Y007636D01*
X000650Y007538D02*
X001602Y007538D01*
X001555Y007439D02*
X000650Y007439D01*
X000650Y007341D02*
X001515Y007341D01*
X001505Y007242D02*
X000650Y007242D01*
X000650Y007144D02*
X001505Y007144D01*
X001525Y007045D02*
X000650Y007045D01*
X000650Y006947D02*
X001566Y006947D01*
X001627Y006848D02*
X000650Y006848D01*
X000650Y006750D02*
X001725Y006750D01*
X001826Y006553D02*
X000650Y006553D01*
X000650Y006651D02*
X001924Y006651D01*
X001978Y006616D02*
X001668Y006487D01*
X001431Y006250D01*
X001302Y005940D01*
X001302Y005604D01*
X001431Y005294D01*
X001668Y005057D01*
X001978Y004928D01*
X002314Y004928D01*
X002624Y005057D01*
X002861Y005294D01*
X002990Y005604D01*
X002990Y005940D01*
X002861Y006250D01*
X002624Y006487D01*
X002314Y006616D01*
X001978Y006616D01*
X002226Y006651D02*
X007735Y006651D01*
X007637Y006553D02*
X002467Y006553D01*
X002425Y006750D02*
X007834Y006750D01*
X007538Y006454D02*
X002657Y006454D01*
X002756Y006356D02*
X007505Y006356D01*
X007505Y006257D02*
X002854Y006257D01*
X002899Y006159D02*
X007505Y006159D01*
X007505Y006060D02*
X002940Y006060D01*
X002981Y005962D02*
X007505Y005962D01*
X007592Y005863D02*
X002990Y005863D01*
X002990Y005765D02*
X007690Y005765D01*
X007750Y005666D02*
X002990Y005666D01*
X002975Y005568D02*
X007652Y005568D01*
X007553Y005469D02*
X002934Y005469D01*
X002893Y005371D02*
X007505Y005371D01*
X007505Y005272D02*
X002839Y005272D01*
X002741Y005174D02*
X007505Y005174D01*
X007505Y005075D02*
X002642Y005075D01*
X002430Y004977D02*
X007505Y004977D01*
X007577Y004878D02*
X000650Y004878D01*
X000650Y004780D02*
X007675Y004780D01*
X007765Y004681D02*
X000650Y004681D01*
X000650Y004583D02*
X007667Y004583D01*
X007568Y004484D02*
X000650Y004484D01*
X000650Y004386D02*
X007505Y004386D01*
X007505Y004287D02*
X000650Y004287D01*
X000650Y004189D02*
X007505Y004189D01*
X007505Y004090D02*
X000650Y004090D01*
X000650Y003992D02*
X007505Y003992D01*
X007562Y003893D02*
X000650Y003893D01*
X000650Y004977D02*
X001862Y004977D01*
X001650Y005075D02*
X000650Y005075D01*
X000650Y005174D02*
X001551Y005174D01*
X001453Y005272D02*
X000650Y005272D01*
X000650Y005371D02*
X001399Y005371D01*
X001358Y005469D02*
X000650Y005469D01*
X000650Y005568D02*
X001318Y005568D01*
X001302Y005666D02*
X000650Y005666D01*
X000650Y005765D02*
X001302Y005765D01*
X001302Y005863D02*
X000650Y005863D01*
X000650Y005962D02*
X001311Y005962D01*
X001352Y006060D02*
X000650Y006060D01*
X000650Y006159D02*
X001393Y006159D01*
X001438Y006257D02*
X000650Y006257D01*
X000650Y006356D02*
X001536Y006356D01*
X001635Y006454D02*
X000650Y006454D01*
X002524Y006848D02*
X014611Y006848D01*
X014559Y006947D02*
X002585Y006947D01*
X002626Y007045D02*
X014518Y007045D01*
X014505Y007144D02*
X002645Y007144D01*
X002645Y007242D02*
X014505Y007242D01*
X014521Y007341D02*
X002636Y007341D01*
X002595Y007439D02*
X014562Y007439D01*
X014618Y007538D02*
X002549Y007538D01*
X002450Y007636D02*
X014716Y007636D01*
X014724Y007735D02*
X002426Y007735D01*
X002525Y007833D02*
X014626Y007833D01*
X014565Y007932D02*
X002585Y007932D01*
X002626Y008030D02*
X014524Y008030D01*
X014505Y008129D02*
X002645Y008129D01*
X002645Y008227D02*
X014505Y008227D01*
X014515Y008326D02*
X002636Y008326D01*
X002595Y008424D02*
X014556Y008424D01*
X014603Y008523D02*
X002548Y008523D01*
X002449Y008621D02*
X014701Y008621D01*
X014739Y008720D02*
X002411Y008720D01*
X002510Y008818D02*
X014641Y008818D01*
X014572Y008917D02*
X002579Y008917D01*
X002620Y009015D02*
X014531Y009015D01*
X014505Y009114D02*
X002645Y009114D01*
X002645Y009212D02*
X014505Y009212D01*
X014509Y009311D02*
X002642Y009311D01*
X002601Y009409D02*
X014549Y009409D01*
X014590Y009508D02*
X002560Y009508D01*
X008317Y006750D02*
X008834Y006750D01*
X008735Y006651D02*
X008415Y006651D01*
X008514Y006553D02*
X008637Y006553D01*
X008575Y005880D02*
X008769Y005685D01*
X008575Y005491D01*
X008381Y005685D01*
X008575Y005880D01*
X008559Y005863D02*
X008592Y005863D01*
X008690Y005765D02*
X008460Y005765D01*
X008400Y005666D02*
X008750Y005666D01*
X008652Y005568D02*
X008499Y005568D01*
X008575Y004880D02*
X008798Y004657D01*
X008603Y004463D01*
X008381Y004685D01*
X008575Y004880D01*
X008574Y004878D02*
X008577Y004878D01*
X008675Y004780D02*
X008475Y004780D01*
X008385Y004681D02*
X008774Y004681D01*
X008723Y004583D02*
X008484Y004583D01*
X008582Y004484D02*
X008624Y004484D01*
X008603Y003908D02*
X008711Y003800D01*
X008495Y003800D01*
X008603Y003908D01*
X008589Y003893D02*
X008618Y003893D01*
X015645Y010296D02*
X017940Y010296D01*
X017940Y010267D02*
X017940Y010364D01*
X018037Y010364D01*
X018037Y010795D01*
X018187Y010795D01*
X018469Y010514D01*
X018469Y010364D01*
X018037Y010364D01*
X018037Y010267D01*
X018469Y010267D01*
X018469Y010117D01*
X018187Y009835D01*
X018037Y009835D01*
X018037Y010267D01*
X017940Y010267D01*
X017940Y010197D02*
X018037Y010197D01*
X018037Y010099D02*
X017940Y010099D01*
X017940Y010000D02*
X018037Y010000D01*
X018037Y009902D02*
X017940Y009902D01*
X018236Y009803D02*
X019396Y009803D01*
X019282Y009705D02*
X018334Y009705D01*
X018433Y009606D02*
X019167Y009606D01*
X019205Y009323D02*
X020032Y010032D01*
X020032Y011646D01*
X019792Y011478D02*
X018469Y011478D01*
X018469Y011379D02*
X019792Y011379D01*
X019792Y011281D02*
X018037Y011281D01*
X018037Y011267D02*
X018469Y011267D01*
X018469Y011117D01*
X018187Y010835D01*
X018037Y010835D01*
X018037Y011267D01*
X018037Y011182D02*
X017940Y011182D01*
X017940Y011084D02*
X018037Y011084D01*
X018037Y010985D02*
X017940Y010985D01*
X017940Y010887D02*
X018037Y010887D01*
X018037Y010788D02*
X017940Y010788D01*
X017940Y010690D02*
X018037Y010690D01*
X018037Y010591D02*
X017940Y010591D01*
X017940Y010493D02*
X018037Y010493D01*
X018037Y010394D02*
X017940Y010394D01*
X018037Y010296D02*
X019792Y010296D01*
X019792Y010394D02*
X018469Y010394D01*
X018469Y010493D02*
X019792Y010493D01*
X019792Y010591D02*
X018392Y010591D01*
X018293Y010690D02*
X019792Y010690D01*
X019792Y010788D02*
X018195Y010788D01*
X018239Y010887D02*
X019792Y010887D01*
X019792Y010985D02*
X018337Y010985D01*
X018436Y011084D02*
X019792Y011084D01*
X019792Y011182D02*
X018469Y011182D01*
X018407Y011576D02*
X019723Y011576D01*
X019590Y011675D02*
X018308Y011675D01*
X017767Y011773D02*
X015465Y011773D01*
X015393Y011675D02*
X017669Y011675D01*
X017570Y011576D02*
X015494Y011576D01*
X015573Y011478D02*
X017509Y011478D01*
X017509Y011379D02*
X015613Y011379D01*
X015560Y011872D02*
X017697Y011872D01*
X017599Y011970D02*
X015601Y011970D01*
X015642Y012069D02*
X017500Y012069D01*
X017469Y012167D02*
X015645Y012167D01*
X015645Y012266D02*
X017469Y012266D01*
X017469Y012364D02*
X015620Y012364D01*
X015579Y012463D02*
X017469Y012463D01*
X017499Y012561D02*
X015509Y012561D01*
X015411Y012660D02*
X017598Y012660D01*
X017696Y012758D02*
X015450Y012758D01*
X015548Y012857D02*
X017712Y012857D01*
X017614Y012955D02*
X015595Y012955D01*
X015636Y013054D02*
X017515Y013054D01*
X017469Y013152D02*
X015645Y013152D01*
X015645Y013251D02*
X017469Y013251D01*
X017469Y013349D02*
X015626Y013349D01*
X015585Y013448D02*
X017469Y013448D01*
X017484Y013546D02*
X015524Y013546D01*
X015426Y013645D02*
X017583Y013645D01*
X018469Y010197D02*
X019792Y010197D01*
X019741Y010099D02*
X018451Y010099D01*
X018352Y010000D02*
X019626Y010000D01*
X019511Y009902D02*
X018254Y009902D01*
X018423Y009015D02*
X036554Y009015D01*
X036652Y008917D02*
X018325Y008917D01*
X018206Y007833D02*
X036736Y007833D01*
X036673Y007735D02*
X018304Y007735D01*
X018403Y007636D02*
X036574Y007636D01*
X036476Y007538D02*
X018501Y007538D01*
X018508Y007439D02*
X036469Y007439D01*
X036469Y007341D02*
X018508Y007341D01*
X018508Y007242D02*
X036469Y007242D01*
X036469Y007144D02*
X018508Y007144D01*
X018453Y007045D02*
X036524Y007045D01*
X036622Y006947D02*
X018355Y006947D01*
X018256Y006848D02*
X036721Y006848D01*
X036688Y006750D02*
X018289Y006750D01*
X018388Y006651D02*
X036589Y006651D01*
X036491Y006553D02*
X018486Y006553D01*
X018508Y006454D02*
X036469Y006454D01*
X036469Y006356D02*
X018508Y006356D01*
X018508Y006257D02*
X036469Y006257D01*
X036469Y006159D02*
X018508Y006159D01*
X018468Y006060D02*
X036509Y006060D01*
X036607Y005962D02*
X018370Y005962D01*
X018271Y005863D02*
X036706Y005863D01*
X036703Y005765D02*
X018274Y005765D01*
X018373Y005666D02*
X036604Y005666D01*
X036506Y005568D02*
X018471Y005568D01*
X018508Y005469D02*
X036469Y005469D01*
X036469Y005371D02*
X018508Y005371D01*
X018508Y005272D02*
X036469Y005272D01*
X036469Y005174D02*
X018508Y005174D01*
X018483Y005075D02*
X036494Y005075D01*
X036592Y004977D02*
X018385Y004977D01*
X018286Y004878D02*
X036691Y004878D01*
X036718Y004780D02*
X018259Y004780D01*
X018358Y004681D02*
X036619Y004681D01*
X036521Y004583D02*
X018456Y004583D01*
X018508Y004484D02*
X036469Y004484D01*
X036469Y004386D02*
X018508Y004386D01*
X018508Y004287D02*
X036469Y004287D01*
X036469Y004189D02*
X018508Y004189D01*
X018498Y004090D02*
X036479Y004090D01*
X036577Y003992D02*
X018400Y003992D01*
X018301Y003893D02*
X036676Y003893D01*
X036733Y003795D02*
X018244Y003795D01*
X018343Y003696D02*
X036634Y003696D01*
X036536Y003598D02*
X018441Y003598D01*
X018508Y003499D02*
X036469Y003499D01*
X036469Y003401D02*
X018508Y003401D01*
X018508Y003302D02*
X036469Y003302D01*
X036469Y003204D02*
X018508Y003204D01*
X018508Y003105D02*
X036469Y003105D01*
X036562Y003007D02*
X018415Y003007D01*
X018316Y002908D02*
X036661Y002908D01*
X036748Y002810D02*
X018229Y002810D01*
X018328Y002711D02*
X036649Y002711D01*
X036551Y002613D02*
X018426Y002613D01*
X018508Y002514D02*
X036469Y002514D01*
X036469Y002416D02*
X018508Y002416D01*
X018508Y002317D02*
X036469Y002317D01*
X036469Y002219D02*
X018508Y002219D01*
X018508Y002120D02*
X036469Y002120D01*
X036547Y002022D02*
X018430Y002022D01*
X018331Y001923D02*
X036646Y001923D01*
X036744Y001825D02*
X018233Y001825D01*
X007296Y017782D02*
X000650Y017782D01*
X000650Y017880D02*
X007197Y017880D01*
X007099Y017979D02*
X000650Y017979D01*
X000650Y018077D02*
X007024Y018077D01*
X006929Y019850D02*
X005464Y019850D01*
X005436Y019949D02*
X006257Y019949D01*
X006158Y020047D02*
X005397Y020047D01*
X005348Y020146D02*
X006060Y020146D01*
X005961Y020244D02*
X005284Y020244D01*
X005325Y020343D02*
X005203Y020343D01*
X004786Y020638D02*
X004743Y020638D01*
X004444Y021525D02*
X004350Y021525D01*
X004351Y021511D02*
X004337Y021633D01*
X004310Y021753D01*
X004269Y021869D01*
X004216Y021980D01*
X004151Y022084D01*
X004074Y022180D01*
X003987Y022267D01*
X003891Y022344D01*
X003787Y022409D01*
X003676Y022462D01*
X003560Y022503D01*
X003440Y022530D01*
X003318Y022544D01*
X003306Y022544D01*
X003306Y021499D01*
X004351Y021499D01*
X004351Y021511D01*
X004339Y021623D02*
X004451Y021623D01*
X004477Y021722D02*
X004317Y021722D01*
X004287Y021820D02*
X004504Y021820D01*
X004540Y021919D02*
X004246Y021919D01*
X004193Y022017D02*
X004597Y022017D01*
X004654Y022116D02*
X004125Y022116D01*
X004040Y022214D02*
X004739Y022214D01*
X004838Y022313D02*
X003930Y022313D01*
X003782Y022411D02*
X004976Y022411D01*
X005152Y022510D02*
X003531Y022510D01*
X003306Y022510D02*
X003206Y022510D01*
X003206Y022411D02*
X003306Y022411D01*
X003306Y022313D02*
X003206Y022313D01*
X003206Y022214D02*
X003306Y022214D01*
X003306Y022116D02*
X003206Y022116D01*
X003206Y022017D02*
X003306Y022017D01*
X003306Y021919D02*
X003206Y021919D01*
X003206Y021820D02*
X003306Y021820D01*
X003306Y021722D02*
X003206Y021722D01*
X003206Y021623D02*
X003306Y021623D01*
X003306Y021525D02*
X003206Y021525D01*
X003206Y021229D02*
X003306Y021229D01*
X003306Y021131D02*
X003206Y021131D01*
X003206Y021032D02*
X003306Y021032D01*
X003306Y020934D02*
X003206Y020934D01*
X003206Y020835D02*
X003306Y020835D01*
X003306Y020737D02*
X003206Y020737D01*
X003206Y020638D02*
X003306Y020638D01*
X003306Y020540D02*
X003206Y020540D01*
X003206Y020441D02*
X003306Y020441D01*
X003512Y020244D02*
X000650Y020244D01*
X000650Y020146D02*
X003448Y020146D01*
X003399Y020047D02*
X000650Y020047D01*
X000650Y019949D02*
X003360Y019949D01*
X003332Y019850D02*
X000650Y019850D01*
X000650Y019752D02*
X003313Y019752D01*
X003303Y019653D02*
X000650Y019653D01*
X000650Y019555D02*
X004348Y019555D01*
X004348Y019456D02*
X004448Y019456D01*
X004448Y019358D02*
X004348Y019358D01*
X004348Y019259D02*
X004448Y019259D01*
X004448Y019161D02*
X004348Y019161D01*
X004348Y019062D02*
X004448Y019062D01*
X004448Y018964D02*
X004348Y018964D01*
X004348Y018865D02*
X004448Y018865D01*
X004448Y018767D02*
X004348Y018767D01*
X004348Y018668D02*
X004448Y018668D01*
X004448Y018570D02*
X004348Y018570D01*
X004025Y018570D02*
X000650Y018570D01*
X000650Y018668D02*
X003821Y018668D01*
X003686Y018767D02*
X000650Y018767D01*
X000650Y018865D02*
X003583Y018865D01*
X003504Y018964D02*
X000650Y018964D01*
X000650Y019062D02*
X003442Y019062D01*
X003394Y019161D02*
X000650Y019161D01*
X000650Y019259D02*
X003357Y019259D01*
X003330Y019358D02*
X000650Y019358D01*
X000650Y019456D02*
X003312Y019456D01*
X003593Y020343D02*
X000650Y020343D01*
X000650Y020441D02*
X002826Y020441D01*
X002646Y020540D02*
X000650Y020540D01*
X000650Y020638D02*
X002519Y020638D01*
X002424Y020737D02*
X000650Y020737D01*
X000650Y020835D02*
X002349Y020835D01*
X002289Y020934D02*
X000650Y020934D01*
X000650Y021032D02*
X002242Y021032D01*
X002208Y021131D02*
X000650Y021131D01*
X000650Y021229D02*
X002184Y021229D01*
X003686Y020441D02*
X003698Y020441D01*
X005833Y020343D02*
X005863Y020343D01*
X006535Y020835D02*
X008378Y020835D01*
X008397Y020737D02*
X007770Y020737D01*
X007868Y020638D02*
X008298Y020638D01*
X008287Y020540D02*
X007879Y020540D01*
X007879Y020441D02*
X008287Y020441D01*
X008287Y020343D02*
X007879Y020343D01*
X007879Y020244D02*
X008287Y020244D01*
X008287Y020146D02*
X007879Y020146D01*
X007879Y020047D02*
X008287Y020047D01*
X008287Y019949D02*
X007879Y019949D01*
X007859Y019850D02*
X008307Y019850D01*
X008772Y020248D02*
X008792Y020248D01*
X008772Y020248D02*
X008772Y020780D01*
X008304Y020934D02*
X006592Y020934D01*
X006642Y021032D02*
X008284Y021032D01*
X008284Y021131D02*
X006668Y021131D01*
X006695Y021229D02*
X008284Y021229D01*
X008284Y021328D02*
X006714Y021328D01*
X006714Y021426D02*
X008284Y021426D01*
X008284Y021525D02*
X006714Y021525D01*
X006707Y021623D02*
X008284Y021623D01*
X008028Y022411D02*
X008017Y022411D01*
X008073Y022510D02*
X007919Y022510D01*
X007820Y022608D02*
X008171Y022608D01*
X008343Y022707D02*
X000650Y022707D01*
X006006Y022510D02*
X007129Y022510D01*
X007031Y022411D02*
X006182Y022411D01*
X006320Y022313D02*
X007024Y022313D01*
X007019Y020737D02*
X006571Y020737D01*
X010411Y020638D02*
X010511Y020638D01*
X010511Y020540D02*
X010411Y020540D01*
X010411Y020441D02*
X010511Y020441D01*
X010511Y020146D02*
X010411Y020146D01*
X010411Y020047D02*
X010511Y020047D01*
X010511Y019949D02*
X010411Y019949D01*
X010411Y019850D02*
X010511Y019850D01*
X011197Y020343D02*
X015261Y020343D01*
X015279Y020441D02*
X011158Y020441D01*
X011087Y020540D02*
X015306Y020540D01*
X015332Y020638D02*
X010949Y020638D01*
D19*
X007394Y020248D02*
X007374Y020268D01*
X006489Y020268D01*
X005579Y021178D01*
X005579Y021449D01*
M02*
