%
M48
M72
T01C0.0320
T02C0.0394
T03C0.0400
T04C0.0787
T05C0.1181
T06C0.1300
%
T01
X7524Y18260
X8524Y18260
X8524Y22197
X7524Y22197
T02
X7075Y16205
X8075Y16205
X9075Y16221
X10075Y16221
X11075Y16221
X12075Y16221
X13075Y16221
X14075Y16221
X17989Y16315
X17989Y15315
X17989Y14315
X17989Y13315
X17989Y12315
X17989Y11315
X17989Y10315
X17989Y9315
X17989Y7315
X17989Y6315
X17989Y5315
X17989Y4315
X17989Y3315
X17989Y2315
X15075Y7189
X15075Y8189
X15075Y9189
X15075Y10189
X15075Y11189
X15075Y12189
X15075Y13189
X6075Y16205
X5075Y16205
X4075Y16205
X3075Y16205
X2075Y13189
X2075Y12189
X2075Y11189
X2075Y10189
X2075Y9189
X2075Y8189
X2075Y7205
X8075Y6185
X9075Y6185
X9075Y5185
X9075Y4185
X8075Y4185
X8075Y5185
X36989Y5315
X36989Y6315
X36989Y7315
X36989Y8315
X36989Y9315
X36989Y10915
X36989Y11915
X36989Y12915
X36989Y13915
X36989Y14915
X36989Y15915
X36989Y16915
X36989Y17915
X36989Y18915
X36989Y19915
X36989Y4315
X36989Y3315
X36989Y2315
T03
X10461Y19229
X10461Y20229
X10461Y21229
T04
X2146Y5772
X14941Y14579
T05
X5579Y21449
X3256Y21449
X4398Y19599
T06
X16361Y20229
M30
