%
M48
M72
T01C0.0118
T02C0.0400
T03C0.0787
%
T01
X6038Y4733
X6058Y5166
X7081Y4733
X8932Y4733
X10034Y4772
X9876Y6386
X9404Y7213
X9404Y8040
X9089Y8315
X9207Y8748
X9640Y9772
X9561Y10402
X10073Y11071
X10664Y10756
X11058Y10363
X11845Y9772
X11372Y9378
X10349Y8355
X10467Y7489
X11254Y8040
X12947Y9378
X12947Y11504
X13774Y12213
X13105Y12804
X13380Y13158
X11215Y13276
X10900Y13040
X10664Y11859
X11097Y11504
X10113Y11741
X9207Y12804
X9522Y13079
X9601Y13591
X8538Y13827
X8380Y14378
X7829Y14811
X7317Y15481
X6609Y14260
X6372Y13591
X6333Y12646
X5467Y11780
X5113Y11780
X4849Y11559
X4286Y11189
X3459Y11189
X2554Y11229
X2199Y11386
X2160Y10363
X3026Y9457
X4247Y8552
X4995Y9457
X4719Y10363
X5113Y10756
X5743Y10914
X6569Y10914
X7317Y12292
X7829Y12252
X8420Y12646
X7554Y13079
X7317Y13670
X5034Y13906
X4849Y13197
X5113Y12961
X4561Y14851
X4837Y15087
X3656Y14851
X3617Y16150
X3184Y16583
X2554Y16150
X2550Y15107
X3184Y12489
X4758Y16662
X6144Y16890
X6451Y17567
X6967Y17158
X7077Y18150
X6845Y18473
X7951Y19103
X8959Y17882
X9636Y17996
X9798Y17607
X9640Y16819
X9837Y16386
X9266Y16886
X9601Y15441
X9601Y14811
X11136Y16197
X11506Y16197
X12121Y16260
X12475Y16150
X13341Y16150
X13707Y16209
X13794Y17067
X14050Y17489
X12002Y18985
X11215Y18512
X10983Y19300
X9798Y18473
X11294Y17331
X7987Y10993
X7869Y10402
X6924Y9221
X5861Y8276
X5861Y7611
X6648Y7646
X5310Y8237
X8774Y10796
X4758Y18433
X2160Y18867
T02
X2487Y19772
X3487Y19772
X4487Y19772
X5487Y19772
X6487Y19772
X7487Y19772
X8487Y19772
X9487Y19772
X10487Y19772
X11487Y19772
X12487Y19772
X13487Y19772
X14487Y16756
X14487Y15756
X14487Y14756
X14487Y13756
X14487Y12756
X14487Y11756
X14487Y10756
X8487Y9752
X8487Y8752
X8487Y7752
X7487Y7752
X7487Y8752
X7487Y9752
X1487Y10756
X1487Y11756
X1487Y12756
X1487Y13756
X1487Y14756
X1487Y15756
X1487Y16756
T03
X1558Y9339
X14353Y18146
M30
