G75*
%MOIN*%
%OFA0B0*%
%FSLAX24Y24*%
%IPPOS*%
%LPD*%
%AMOC8*
5,1,8,0,0,1.08239X$1,22.5*
%
%ADD10C,0.0100*%
%ADD11C,0.0000*%
%ADD12C,0.0020*%
%ADD13C,0.0010*%
%ADD14C,0.0140*%
%ADD15C,0.0030*%
%ADD16C,0.0050*%
%ADD17C,0.0160*%
D10*
X004837Y005166D02*
X005601Y004402D01*
X005601Y000150D01*
X010372Y000150D01*
X010372Y004402D01*
X011136Y005166D01*
X011136Y007229D01*
X015073Y008748D01*
X015073Y020363D01*
X000900Y020363D01*
X000900Y008748D01*
X004837Y007229D01*
X004837Y005166D01*
D11*
X001164Y009339D02*
X001166Y009378D01*
X001172Y009417D01*
X001182Y009455D01*
X001195Y009492D01*
X001212Y009527D01*
X001232Y009561D01*
X001256Y009592D01*
X001283Y009621D01*
X001312Y009647D01*
X001344Y009670D01*
X001378Y009690D01*
X001414Y009706D01*
X001451Y009718D01*
X001490Y009727D01*
X001529Y009732D01*
X001568Y009733D01*
X001607Y009730D01*
X001646Y009723D01*
X001683Y009712D01*
X001720Y009698D01*
X001755Y009680D01*
X001788Y009659D01*
X001819Y009634D01*
X001847Y009607D01*
X001872Y009577D01*
X001894Y009544D01*
X001913Y009510D01*
X001928Y009474D01*
X001940Y009436D01*
X001948Y009398D01*
X001952Y009359D01*
X001952Y009319D01*
X001948Y009280D01*
X001940Y009242D01*
X001928Y009204D01*
X001913Y009168D01*
X001894Y009134D01*
X001872Y009101D01*
X001847Y009071D01*
X001819Y009044D01*
X001788Y009019D01*
X001755Y008998D01*
X001720Y008980D01*
X001683Y008966D01*
X001646Y008955D01*
X001607Y008948D01*
X001568Y008945D01*
X001529Y008946D01*
X001490Y008951D01*
X001451Y008960D01*
X001414Y008972D01*
X001378Y008988D01*
X001344Y009008D01*
X001312Y009031D01*
X001283Y009057D01*
X001256Y009086D01*
X001232Y009117D01*
X001212Y009151D01*
X001195Y009186D01*
X001182Y009223D01*
X001172Y009261D01*
X001166Y009300D01*
X001164Y009339D01*
X013959Y018146D02*
X013961Y018185D01*
X013967Y018224D01*
X013977Y018262D01*
X013990Y018299D01*
X014007Y018334D01*
X014027Y018368D01*
X014051Y018399D01*
X014078Y018428D01*
X014107Y018454D01*
X014139Y018477D01*
X014173Y018497D01*
X014209Y018513D01*
X014246Y018525D01*
X014285Y018534D01*
X014324Y018539D01*
X014363Y018540D01*
X014402Y018537D01*
X014441Y018530D01*
X014478Y018519D01*
X014515Y018505D01*
X014550Y018487D01*
X014583Y018466D01*
X014614Y018441D01*
X014642Y018414D01*
X014667Y018384D01*
X014689Y018351D01*
X014708Y018317D01*
X014723Y018281D01*
X014735Y018243D01*
X014743Y018205D01*
X014747Y018166D01*
X014747Y018126D01*
X014743Y018087D01*
X014735Y018049D01*
X014723Y018011D01*
X014708Y017975D01*
X014689Y017941D01*
X014667Y017908D01*
X014642Y017878D01*
X014614Y017851D01*
X014583Y017826D01*
X014550Y017805D01*
X014515Y017787D01*
X014478Y017773D01*
X014441Y017762D01*
X014402Y017755D01*
X014363Y017752D01*
X014324Y017753D01*
X014285Y017758D01*
X014246Y017767D01*
X014209Y017779D01*
X014173Y017795D01*
X014139Y017815D01*
X014107Y017838D01*
X014078Y017864D01*
X014051Y017893D01*
X014027Y017924D01*
X014007Y017958D01*
X013990Y017993D01*
X013977Y018030D01*
X013967Y018068D01*
X013961Y018107D01*
X013959Y018146D01*
D12*
X013440Y017778D02*
X013377Y017842D01*
X013186Y017842D01*
X013186Y017652D01*
X013250Y017588D01*
X013313Y017652D01*
X013313Y017842D01*
X013440Y017778D02*
X013440Y017652D01*
X013440Y017406D02*
X013186Y017406D01*
X013186Y017343D02*
X013186Y017469D01*
X013186Y017228D02*
X013186Y017038D01*
X013250Y016974D01*
X013377Y016974D01*
X013440Y017038D01*
X013440Y017228D01*
X013440Y017343D02*
X013440Y017406D01*
X013567Y017406D02*
X013630Y017406D01*
X013567Y017228D02*
X013186Y017228D01*
X013186Y016860D02*
X013377Y016860D01*
X013440Y016796D01*
X013440Y016606D01*
X013186Y016606D01*
X013186Y016487D02*
X013186Y016360D01*
X013186Y016424D02*
X013567Y016424D01*
X013567Y016487D02*
X013567Y016360D01*
X013377Y015877D02*
X013186Y015877D01*
X013377Y015877D02*
X013440Y015814D01*
X013440Y015624D01*
X013186Y015624D01*
X013186Y015505D02*
X013186Y015378D01*
X013186Y015442D02*
X013567Y015442D01*
X013567Y015505D02*
X013567Y015378D01*
X013377Y014895D02*
X013313Y014895D01*
X013313Y014642D01*
X013250Y014642D02*
X013377Y014642D01*
X013440Y014705D01*
X013440Y014832D01*
X013377Y014895D01*
X013186Y014832D02*
X013186Y014705D01*
X013250Y014642D01*
X013186Y014527D02*
X013186Y014337D01*
X013250Y014273D01*
X013377Y014273D01*
X013440Y014337D01*
X013440Y014527D01*
X013567Y014527D02*
X013186Y014527D01*
X013186Y014159D02*
X013186Y013968D01*
X013250Y013905D01*
X013313Y013968D01*
X013313Y014159D01*
X013377Y014159D02*
X013186Y014159D01*
X013377Y014159D02*
X013440Y014095D01*
X013440Y013968D01*
X013567Y013790D02*
X013186Y013790D01*
X013186Y013537D02*
X013567Y013537D01*
X013440Y013663D01*
X013567Y013790D01*
D13*
X011775Y016379D02*
X011545Y016379D01*
X011545Y016494D01*
X011583Y016532D01*
X011660Y016532D01*
X011698Y016494D01*
X011698Y016379D01*
X011698Y016600D02*
X011583Y016600D01*
X011545Y016638D01*
X011545Y016753D01*
X011507Y016753D02*
X011468Y016715D01*
X011468Y016677D01*
X011507Y016753D02*
X011698Y016753D01*
D14*
X011681Y017006D02*
X011681Y017216D01*
X011751Y017286D01*
X011891Y017286D01*
X011961Y017216D01*
X011961Y017006D01*
X011540Y017006D01*
X011681Y017146D02*
X011540Y017286D01*
X011540Y017521D02*
X011961Y017521D01*
X011751Y017521D02*
X011751Y017801D01*
X011961Y017801D02*
X011540Y017801D01*
X011611Y018037D02*
X011540Y018107D01*
X011540Y018247D01*
X011611Y018317D01*
X011891Y018317D02*
X011961Y018247D01*
X011961Y018107D01*
X011891Y018037D01*
X011611Y018037D01*
D15*
X012409Y017848D02*
X012723Y017848D01*
X012723Y018004D02*
X012566Y017848D01*
X012566Y017701D02*
X012566Y017466D01*
X012488Y017387D01*
X012409Y017466D01*
X012409Y017701D01*
X012644Y017701D01*
X012723Y017622D01*
X012723Y017466D01*
X012723Y017237D02*
X012723Y017080D01*
X012801Y017159D02*
X012488Y017159D01*
X012409Y017237D01*
X012488Y016933D02*
X012566Y016855D01*
X012566Y016698D01*
X012644Y016620D01*
X012723Y016698D01*
X012723Y016933D01*
X012488Y016933D02*
X012409Y016855D01*
X012409Y016620D01*
X012409Y016159D02*
X012880Y016473D01*
X012644Y016013D02*
X012488Y016013D01*
X012409Y015934D01*
X012409Y015777D01*
X012488Y015699D01*
X012644Y015699D01*
X012723Y015777D01*
X012723Y015934D01*
X012644Y016013D01*
X012409Y015549D02*
X012409Y015392D01*
X012409Y015470D02*
X012723Y015470D01*
X012723Y015392D01*
X012880Y015470D02*
X012958Y015470D01*
X012644Y015015D02*
X012409Y015015D01*
X012409Y015162D02*
X012409Y015240D01*
X012488Y015240D01*
X012488Y015162D01*
X012409Y015162D01*
X012644Y015015D02*
X012723Y014937D01*
X012723Y014780D01*
X012644Y014702D01*
X012644Y014555D02*
X012409Y014555D01*
X012409Y014320D01*
X012488Y014241D01*
X012566Y014320D01*
X012566Y014555D01*
X012644Y014555D02*
X012723Y014476D01*
X012723Y014320D01*
X012723Y014091D02*
X012723Y013934D01*
X012801Y014013D02*
X012488Y014013D01*
X012409Y014091D01*
X012880Y013787D02*
X012409Y013474D01*
X012409Y013013D02*
X012880Y013327D01*
X012723Y012862D02*
X012644Y012862D01*
X012644Y012783D01*
X012723Y012783D01*
X012723Y012862D01*
X012488Y012862D02*
X012409Y012862D01*
X012409Y012783D01*
X012488Y012783D01*
X012488Y012862D01*
X012488Y012636D02*
X012409Y012558D01*
X012409Y012323D01*
X012409Y012173D02*
X012488Y012094D01*
X012801Y012094D01*
X012723Y012016D02*
X012723Y012173D01*
X012723Y012323D02*
X012723Y012558D01*
X012644Y012636D01*
X012488Y012636D01*
X012723Y012323D02*
X012252Y012323D01*
X012409Y011866D02*
X012488Y011787D01*
X012801Y011787D01*
X012723Y011709D02*
X012723Y011866D01*
X012644Y011562D02*
X012409Y011562D01*
X012644Y011562D02*
X012723Y011484D01*
X012723Y011327D01*
X012644Y011249D01*
X012409Y011249D02*
X012880Y011249D01*
X012880Y014702D02*
X012409Y014702D01*
X012723Y018004D02*
X012723Y018083D01*
X012723Y018231D02*
X012723Y018388D01*
X012801Y018310D02*
X012488Y018310D01*
X012409Y018388D01*
D16*
X010664Y019063D02*
X005310Y019063D01*
X005310Y011788D01*
X010664Y011788D01*
X010664Y019063D01*
D17*
X006438Y012419D02*
X006131Y012419D01*
X006131Y012112D01*
X006438Y012112D01*
X006438Y012419D01*
M02*
