G75*
%MOIN*%
%OFA0B0*%
%FSLAX24Y24*%
%IPPOS*%
%LPD*%
%AMOC8*
5,1,8,0,0,1.08239X$1,22.5*
%
%ADD10C,0.0867*%
%ADD11OC8,0.0820*%
%ADD12R,0.0789X0.0434*%
%ADD13C,0.0820*%
%ADD14R,0.0513X0.0513*%
%ADD15OC8,0.0358*%
D10*
X001558Y009339D03*
X014353Y018146D03*
D11*
X008487Y009752D03*
X008487Y008752D03*
X008487Y007752D03*
X007487Y007752D03*
X007487Y008752D03*
X007487Y009752D03*
D12*
X005467Y014496D03*
X005467Y015087D03*
X005467Y015678D03*
X005467Y016268D03*
X005467Y016859D03*
X005467Y017449D03*
X005467Y018040D03*
X005467Y018630D03*
X010498Y018630D03*
X010498Y018040D03*
X010498Y017449D03*
X010498Y016859D03*
X010498Y016268D03*
X010498Y015678D03*
X010498Y015087D03*
X010498Y014496D03*
D13*
X014487Y014756D03*
X014487Y013756D03*
X014487Y012756D03*
X014487Y011756D03*
X014487Y010756D03*
X014487Y015756D03*
X014487Y016756D03*
X013487Y019772D03*
X012487Y019772D03*
X011487Y019772D03*
X010487Y019772D03*
X009487Y019772D03*
X008487Y019772D03*
X007487Y019772D03*
X006487Y019772D03*
X005487Y019772D03*
X004487Y019772D03*
X003487Y019772D03*
X002487Y019772D03*
X001487Y016756D03*
X001487Y015756D03*
X001487Y014756D03*
X001487Y013756D03*
X001487Y012756D03*
X001487Y011756D03*
X001487Y010756D03*
D14*
X006483Y004418D03*
X007476Y004418D03*
X008480Y004418D03*
X009483Y004418D03*
D15*
X006038Y004733D03*
X006058Y005166D03*
X007081Y004733D03*
X008932Y004733D03*
X010034Y004772D03*
X009876Y006386D03*
X009404Y007213D03*
X009404Y008040D03*
X009089Y008315D03*
X009207Y008748D03*
X009640Y009772D03*
X009561Y010402D03*
X010073Y011071D03*
X010664Y010756D03*
X011058Y010363D03*
X011845Y009772D03*
X011372Y009378D03*
X010349Y008355D03*
X010467Y007489D03*
X011254Y008040D03*
X012947Y009378D03*
X012947Y011504D03*
X013774Y012213D03*
X013105Y012804D03*
X013380Y013158D03*
X011215Y013276D03*
X010900Y013040D03*
X010664Y011859D03*
X011097Y011504D03*
X010113Y011741D03*
X009207Y012804D03*
X009522Y013079D03*
X009601Y013591D03*
X008538Y013827D03*
X008380Y014378D03*
X007829Y014811D03*
X007317Y015481D03*
X006609Y014260D03*
X006372Y013591D03*
X006333Y012646D03*
X005467Y011780D03*
X005113Y011780D03*
X004849Y011559D03*
X004286Y011189D03*
X003459Y011189D03*
X002554Y011229D03*
X002199Y011386D03*
X002160Y010363D03*
X003026Y009457D03*
X004247Y008552D03*
X004995Y009457D03*
X004719Y010363D03*
X005113Y010756D03*
X005743Y010914D03*
X006569Y010914D03*
X007317Y012292D03*
X007829Y012252D03*
X008420Y012646D03*
X007554Y013079D03*
X007317Y013670D03*
X005034Y013906D03*
X004849Y013197D03*
X005113Y012961D03*
X004561Y014851D03*
X004837Y015087D03*
X003656Y014851D03*
X003617Y016150D03*
X003184Y016583D03*
X002554Y016150D03*
X002550Y015107D03*
X003184Y012489D03*
X004758Y016662D03*
X006144Y016890D03*
X006451Y017567D03*
X007006Y017158D03*
X006845Y018473D03*
X007353Y018701D03*
X007951Y019103D03*
X008880Y017882D03*
X009636Y017996D03*
X009798Y017607D03*
X009640Y016819D03*
X009837Y016386D03*
X009266Y016886D03*
X009601Y015441D03*
X009601Y014811D03*
X011136Y016197D03*
X011506Y016197D03*
X012121Y016260D03*
X012475Y016150D03*
X013341Y016150D03*
X013707Y016209D03*
X013794Y017067D03*
X014050Y017489D03*
X012002Y018985D03*
X011215Y018512D03*
X010983Y019300D03*
X009798Y018473D03*
X011294Y017331D03*
X007987Y010993D03*
X007869Y010402D03*
X006924Y009221D03*
X005861Y008276D03*
X005861Y007611D03*
X006648Y007646D03*
X005310Y008237D03*
X008774Y010796D03*
X004758Y018433D03*
X002160Y018867D03*
M02*
