G75*
%MOIN*%
%OFA0B0*%
%FSLAX24Y24*%
%IPPOS*%
%LPD*%
%AMOC8*
5,1,8,0,0,1.08239X$1,22.5*
%
%ADD10C,0.0030*%
%ADD11R,0.0197X0.0591*%
%ADD12R,0.0591X0.0197*%
%ADD13R,0.0630X0.0709*%
%ADD14R,0.0709X0.0630*%
%ADD15R,0.0709X0.0394*%
%ADD16R,0.0630X0.0710*%
%ADD17R,0.0217X0.0472*%
%ADD18R,0.0630X0.0551*%
%ADD19OC8,0.0740*%
%ADD20R,0.0710X0.0630*%
%ADD21R,0.0472X0.0551*%
%ADD22R,0.0394X0.0787*%
%ADD23C,0.0740*%
%ADD24R,0.0591X0.2953*%
%ADD25R,0.0394X0.2559*%
%ADD26C,0.0100*%
%ADD27OC8,0.0278*%
D10*
X001073Y017404D02*
X001073Y017651D01*
X001319Y017404D01*
X001381Y017404D01*
X001443Y017466D01*
X001443Y017590D01*
X001381Y017651D01*
X001443Y017773D02*
X001073Y018020D01*
X001134Y018141D02*
X001073Y018203D01*
X001073Y018326D01*
X001134Y018388D01*
X001196Y018388D01*
X001258Y018326D01*
X001258Y018203D01*
X001196Y018141D01*
X001134Y018141D01*
X001258Y018203D02*
X001319Y018141D01*
X001381Y018141D01*
X001443Y018203D01*
X001443Y018326D01*
X001381Y018388D01*
X001319Y018388D01*
X001258Y018326D01*
X001381Y018509D02*
X001134Y018509D01*
X001073Y018571D01*
X001073Y018695D01*
X001134Y018756D01*
X001381Y018509D01*
X001443Y018571D01*
X001443Y018695D01*
X001381Y018756D01*
X001134Y018756D01*
X001258Y018878D02*
X001258Y019125D01*
X001443Y018939D01*
X001073Y018939D01*
X001073Y019246D02*
X001073Y019493D01*
X001073Y019369D02*
X001443Y019369D01*
X001319Y019493D01*
X001381Y019614D02*
X001134Y019614D01*
X001073Y019676D01*
X001073Y019799D01*
X001134Y019861D01*
X001381Y019614D01*
X001443Y019676D01*
X001443Y019799D01*
X001381Y019861D01*
X001134Y019861D01*
X001073Y019983D02*
X001073Y020229D01*
X001319Y019983D01*
X001381Y019983D01*
X001443Y020044D01*
X001443Y020168D01*
X001381Y020229D01*
D11*
X006412Y016150D03*
X006727Y016150D03*
X007042Y016150D03*
X007357Y016150D03*
X007672Y016150D03*
X007987Y016150D03*
X008302Y016150D03*
X008617Y016150D03*
X008932Y016150D03*
X009247Y016150D03*
X009561Y016150D03*
X009561Y011583D03*
X009247Y011583D03*
X008932Y011583D03*
X008617Y011583D03*
X008302Y011583D03*
X007987Y011583D03*
X007672Y011583D03*
X007357Y011583D03*
X007042Y011583D03*
X006727Y011583D03*
X006412Y011583D03*
D12*
X005703Y012292D03*
X005703Y012607D03*
X005703Y012922D03*
X005703Y013237D03*
X005703Y013552D03*
X005703Y013867D03*
X005703Y014181D03*
X005703Y014496D03*
X005703Y014811D03*
X005703Y015126D03*
X005703Y015441D03*
X010270Y015441D03*
X010270Y015126D03*
X010270Y014811D03*
X010270Y014496D03*
X010270Y014181D03*
X010270Y013867D03*
X010270Y013552D03*
X010270Y013237D03*
X010270Y012922D03*
X010270Y012607D03*
X010270Y012292D03*
D13*
X011845Y012213D03*
X012947Y012213D03*
X012947Y010776D03*
X011845Y010776D03*
X011853Y015209D03*
X012955Y015209D03*
X004270Y015441D03*
X004270Y014260D03*
X003168Y014260D03*
X003168Y015441D03*
X003168Y013079D03*
X004270Y013079D03*
X004270Y011898D03*
X003168Y011898D03*
D14*
X005624Y010008D03*
X005624Y008906D03*
X006806Y006544D03*
X006806Y005441D03*
X007987Y005441D03*
X007987Y006544D03*
X009168Y006544D03*
X009168Y005441D03*
X010349Y008906D03*
X010349Y010008D03*
X011924Y017252D03*
X011924Y018355D03*
X004050Y018355D03*
X004050Y017252D03*
D15*
X010349Y006937D03*
X010349Y005835D03*
D16*
G36*
X003417Y008919D02*
X004008Y008703D01*
X003765Y008037D01*
X003174Y008253D01*
X003417Y008919D01*
G37*
G36*
X002365Y009302D02*
X002956Y009086D01*
X002713Y008420D01*
X002122Y008636D01*
X002365Y009302D01*
G37*
D17*
X003451Y009581D03*
X003825Y009581D03*
X004199Y009581D03*
X004199Y010604D03*
X003451Y010604D03*
D18*
X005624Y006937D03*
X005624Y005835D03*
D19*
X007487Y007752D03*
X007487Y008752D03*
X007487Y009752D03*
X008487Y009752D03*
X008487Y008752D03*
X008487Y007752D03*
D20*
X013105Y017244D03*
X013105Y018363D03*
X002869Y018363D03*
X002869Y017244D03*
D21*
X012081Y014300D03*
X012711Y014300D03*
X012711Y013433D03*
X012081Y013433D03*
D22*
G36*
X014133Y008699D02*
X013764Y008564D01*
X013495Y009301D01*
X013864Y009436D01*
X014133Y008699D01*
G37*
G36*
X012321Y008039D02*
X011952Y007904D01*
X011683Y008641D01*
X012052Y008776D01*
X012321Y008039D01*
G37*
D23*
X014487Y010756D03*
X014487Y011756D03*
X014487Y012756D03*
X014487Y013756D03*
X014487Y014756D03*
X014487Y015756D03*
X014487Y016756D03*
X013487Y019772D03*
X012487Y019772D03*
X011487Y019772D03*
X010487Y019772D03*
X009487Y019772D03*
X008487Y019772D03*
X007487Y019772D03*
X006487Y019772D03*
X005487Y019772D03*
X004487Y019772D03*
X003487Y019772D03*
X002487Y019772D03*
X001487Y016756D03*
X001487Y015756D03*
X001487Y014756D03*
X001487Y013756D03*
X001487Y012756D03*
X001487Y011756D03*
X001487Y010756D03*
D24*
X006609Y002040D03*
X009365Y002040D03*
D25*
X008380Y002237D03*
X007593Y002237D03*
D26*
X005337Y005373D02*
X005337Y005409D01*
X005574Y005409D01*
X005574Y005785D01*
X005674Y005785D01*
X005674Y005409D01*
X005836Y005409D01*
X005729Y005302D01*
X005729Y005030D01*
X005921Y004837D01*
X006194Y004837D01*
X006362Y005005D01*
X006393Y004987D01*
X006431Y004976D01*
X006756Y004976D01*
X006756Y005391D01*
X006856Y005391D01*
X006856Y005491D01*
X007310Y005491D01*
X007310Y005776D01*
X007304Y005799D01*
X007374Y005829D01*
X007571Y006025D01*
X007585Y006039D01*
X008420Y006039D01*
X008531Y006150D01*
X008531Y006937D01*
X008420Y007048D01*
X007554Y007048D01*
X007443Y006937D01*
X007443Y006783D01*
X007427Y006783D01*
X007350Y006751D01*
X007350Y006937D01*
X007238Y007048D01*
X006494Y007048D01*
X006494Y007335D01*
X006512Y007317D01*
X006784Y007317D01*
X006957Y007490D01*
X007255Y007193D01*
X007719Y007193D01*
X008015Y007489D01*
X008271Y007232D01*
X008437Y007232D01*
X008437Y007702D01*
X008537Y007702D01*
X008537Y007802D01*
X009007Y007802D01*
X009007Y007968D01*
X008750Y008224D01*
X009008Y008482D01*
X009071Y008420D01*
X009343Y008420D01*
X009400Y008477D01*
X009400Y008386D01*
X009408Y008369D01*
X009268Y008369D01*
X009075Y008176D01*
X009075Y007904D01*
X009164Y007815D01*
X009164Y007438D01*
X009075Y007349D01*
X009075Y007077D01*
X009104Y007048D01*
X008735Y007048D01*
X008624Y006937D01*
X008624Y006150D01*
X008735Y006039D01*
X009601Y006039D01*
X009680Y006118D01*
X009740Y006057D01*
X009805Y006057D01*
X009805Y005560D01*
X009888Y005477D01*
X009712Y005301D01*
X009712Y005835D01*
X009601Y005946D01*
X008735Y005946D01*
X008624Y005835D01*
X008624Y005681D01*
X008569Y005681D01*
X008531Y005665D01*
X008531Y005835D01*
X008420Y005946D01*
X007554Y005946D01*
X007443Y005835D01*
X007443Y005048D01*
X007518Y004972D01*
X007306Y004972D01*
X007262Y005017D01*
X007280Y005034D01*
X007300Y005068D01*
X007310Y005107D01*
X007310Y005391D01*
X006856Y005391D01*
X006856Y004976D01*
X006860Y004976D01*
X006752Y004869D01*
X006752Y004689D01*
X006021Y004689D01*
X005884Y004826D01*
X005337Y005373D01*
X005337Y005394D02*
X005821Y005394D01*
X005729Y005296D02*
X005414Y005296D01*
X005513Y005197D02*
X005729Y005197D01*
X005729Y005099D02*
X005611Y005099D01*
X005710Y005000D02*
X005758Y005000D01*
X005808Y004902D02*
X005857Y004902D01*
X005907Y004803D02*
X006752Y004803D01*
X006752Y004705D02*
X006005Y004705D01*
X006038Y004733D02*
X006038Y004197D01*
X006609Y003626D01*
X006609Y002040D01*
X007593Y002237D02*
X007593Y004418D01*
X007593Y004616D01*
X007476Y004733D01*
X007081Y004733D01*
X007279Y005000D02*
X007490Y005000D01*
X007443Y005099D02*
X007308Y005099D01*
X007310Y005197D02*
X007443Y005197D01*
X007443Y005296D02*
X007310Y005296D01*
X007443Y005394D02*
X006856Y005394D01*
X006856Y005296D02*
X006756Y005296D01*
X006756Y005197D02*
X006856Y005197D01*
X006856Y005099D02*
X006756Y005099D01*
X006756Y005000D02*
X006856Y005000D01*
X006785Y004902D02*
X006259Y004902D01*
X006357Y005000D02*
X006370Y005000D01*
X006254Y005284D02*
X006254Y005835D01*
X006451Y006032D01*
X007239Y006032D01*
X007435Y006229D01*
X007435Y006504D01*
X007475Y006544D01*
X007987Y006544D01*
X008531Y006576D02*
X008624Y006576D01*
X008624Y006478D02*
X008531Y006478D01*
X008531Y006379D02*
X008624Y006379D01*
X008624Y006281D02*
X008531Y006281D01*
X008531Y006182D02*
X008624Y006182D01*
X008690Y006084D02*
X008464Y006084D01*
X008479Y005887D02*
X008675Y005887D01*
X008624Y005788D02*
X008531Y005788D01*
X008531Y005690D02*
X008624Y005690D01*
X008617Y005441D02*
X008617Y004733D01*
X008932Y004733D01*
X008617Y004733D02*
X008380Y004496D01*
X008380Y002237D01*
X009365Y002040D02*
X009365Y004615D01*
X009876Y004615D01*
X010034Y004772D01*
X010267Y005004D02*
X010180Y005091D01*
X010538Y005448D01*
X010636Y005448D01*
X010636Y005373D01*
X010267Y005004D01*
X010188Y005099D02*
X010362Y005099D01*
X010286Y005197D02*
X010461Y005197D01*
X010385Y005296D02*
X010559Y005296D01*
X010483Y005394D02*
X010636Y005394D01*
X010349Y005599D02*
X009365Y004615D01*
X009260Y004849D02*
X009260Y004869D01*
X009193Y004937D01*
X009348Y004937D01*
X009260Y004849D01*
X009228Y004902D02*
X009313Y004902D01*
X009168Y005441D02*
X008617Y005441D01*
X008377Y004937D02*
X008377Y004832D01*
X008245Y004700D01*
X008245Y004700D01*
X008234Y004689D01*
X008196Y004689D01*
X008226Y004764D01*
X008226Y004937D01*
X008377Y004937D01*
X008377Y004902D02*
X008226Y004902D01*
X008226Y004803D02*
X008348Y004803D01*
X008250Y004705D02*
X008202Y004705D01*
X007987Y004811D02*
X007593Y004418D01*
X007692Y004856D02*
X007680Y004868D01*
X007612Y004936D01*
X007611Y004937D01*
X007747Y004937D01*
X007747Y004911D01*
X007692Y004856D01*
X007646Y004902D02*
X007738Y004902D01*
X007987Y004811D02*
X007987Y005441D01*
X007443Y005493D02*
X007310Y005493D01*
X007310Y005591D02*
X007443Y005591D01*
X007443Y005690D02*
X007310Y005690D01*
X007307Y005788D02*
X007443Y005788D01*
X007433Y005887D02*
X007494Y005887D01*
X007531Y005985D02*
X009805Y005985D01*
X009805Y005887D02*
X009660Y005887D01*
X009712Y005788D02*
X009805Y005788D01*
X009805Y005690D02*
X009712Y005690D01*
X009712Y005591D02*
X009805Y005591D01*
X009872Y005493D02*
X009712Y005493D01*
X009712Y005394D02*
X009805Y005394D01*
X010349Y005599D02*
X010349Y005835D01*
X010177Y006222D02*
X010205Y006250D01*
X010205Y006522D01*
X010177Y006551D01*
X010636Y006551D01*
X010636Y006222D01*
X010177Y006222D01*
X010205Y006281D02*
X010636Y006281D01*
X010636Y006379D02*
X010205Y006379D01*
X010205Y006478D02*
X010636Y006478D01*
X010349Y006937D02*
X009798Y006937D01*
X009798Y008276D01*
X009640Y008433D01*
X009640Y009772D01*
X009880Y009540D02*
X009916Y009504D01*
X010739Y009504D01*
X010739Y009367D01*
X010723Y009371D01*
X010399Y009371D01*
X010399Y008956D01*
X010299Y008956D01*
X010299Y009371D01*
X009975Y009371D01*
X009937Y009361D01*
X009902Y009341D01*
X009880Y009318D01*
X009880Y009540D01*
X009880Y009531D02*
X009888Y009531D01*
X009880Y009433D02*
X010739Y009433D01*
X010399Y009334D02*
X010299Y009334D01*
X010299Y009236D02*
X010399Y009236D01*
X010399Y009137D02*
X010299Y009137D01*
X010299Y009039D02*
X010399Y009039D01*
X010349Y008906D02*
X010349Y008355D01*
X010399Y008441D02*
X010723Y008441D01*
X010727Y008442D01*
X010657Y008372D01*
X010621Y008284D01*
X010621Y007982D01*
X010457Y007817D01*
X010331Y007817D01*
X010138Y007625D01*
X010138Y007352D01*
X010167Y007324D01*
X010037Y007324D01*
X010037Y008324D01*
X010001Y008412D01*
X009971Y008442D01*
X009975Y008441D01*
X010299Y008441D01*
X010299Y008856D01*
X010399Y008856D01*
X010399Y008441D01*
X010399Y008448D02*
X010299Y008448D01*
X010299Y008546D02*
X010399Y008546D01*
X010399Y008645D02*
X010299Y008645D01*
X010299Y008743D02*
X010399Y008743D01*
X010399Y008842D02*
X010299Y008842D01*
X010027Y008349D02*
X010648Y008349D01*
X010621Y008251D02*
X010037Y008251D01*
X010037Y008152D02*
X010621Y008152D01*
X010621Y008054D02*
X010037Y008054D01*
X010037Y007955D02*
X010595Y007955D01*
X010496Y007857D02*
X010037Y007857D01*
X010037Y007758D02*
X010272Y007758D01*
X010173Y007660D02*
X010037Y007660D01*
X010037Y007561D02*
X010138Y007561D01*
X010138Y007463D02*
X010037Y007463D01*
X010037Y007364D02*
X010138Y007364D01*
X010467Y007489D02*
X010861Y007882D01*
X010861Y008237D01*
X010979Y008355D01*
X010979Y010284D01*
X011058Y010363D01*
X011282Y010122D02*
X011605Y010122D01*
X011605Y010024D02*
X011219Y010024D01*
X011219Y010059D02*
X011219Y009689D01*
X011236Y009707D01*
X011509Y009707D01*
X011516Y009700D01*
X011516Y009908D01*
X011605Y009997D01*
X011605Y010232D01*
X011451Y010232D01*
X011386Y010297D01*
X011386Y010226D01*
X011219Y010059D01*
X011219Y009925D02*
X011533Y009925D01*
X011516Y009827D02*
X011219Y009827D01*
X011219Y009728D02*
X011516Y009728D01*
X011372Y009378D02*
X011254Y009260D01*
X011254Y008040D01*
X011494Y008265D02*
X011494Y009050D01*
X011509Y009050D01*
X011701Y009242D01*
X011701Y009451D01*
X011709Y009443D01*
X011981Y009443D01*
X012174Y009636D01*
X012174Y009908D01*
X012085Y009997D01*
X012085Y010232D01*
X012238Y010232D01*
X012350Y010343D01*
X012350Y011209D01*
X012238Y011320D01*
X011451Y011320D01*
X011340Y011209D01*
X011340Y010545D01*
X011194Y010691D01*
X010993Y010691D01*
X010993Y010892D01*
X010904Y010982D01*
X010904Y011233D01*
X010961Y011176D01*
X011233Y011176D01*
X011426Y011368D01*
X011426Y011641D01*
X011337Y011730D01*
X011337Y012035D01*
X011340Y012038D01*
X011340Y011780D01*
X011451Y011669D01*
X012238Y011669D01*
X012350Y011780D01*
X012350Y012646D01*
X012314Y012682D01*
X012535Y012682D01*
X012512Y012659D01*
X012493Y012625D01*
X012482Y012587D01*
X012482Y012263D01*
X012897Y012263D01*
X012897Y012163D01*
X012482Y012163D01*
X012482Y011839D01*
X012493Y011801D01*
X012512Y011767D01*
X012540Y011739D01*
X012574Y011719D01*
X012613Y011709D01*
X012687Y011709D01*
X012618Y011641D01*
X012618Y011368D01*
X012667Y011320D01*
X012554Y011320D01*
X012443Y011209D01*
X012443Y010343D01*
X012554Y010232D01*
X012708Y010232D01*
X012708Y009604D01*
X012618Y009515D01*
X012618Y009242D01*
X012708Y009153D01*
X012708Y009094D01*
X012744Y009006D01*
X012930Y008821D01*
X013018Y008784D01*
X013481Y008784D01*
X013518Y008684D01*
X012402Y008253D01*
X012344Y008413D01*
X012064Y008311D01*
X012030Y008402D01*
X011939Y008369D01*
X011770Y008834D01*
X011612Y008777D01*
X011580Y008754D01*
X011554Y008724D01*
X011538Y008688D01*
X011531Y008649D01*
X011534Y008610D01*
X011659Y008267D01*
X011939Y008369D01*
X011973Y008278D01*
X011692Y008176D01*
X011755Y008003D01*
X011583Y007937D01*
X011583Y008176D01*
X011494Y008265D01*
X011508Y008251D02*
X011898Y008251D01*
X011886Y008349D02*
X011947Y008349D01*
X012030Y008402D02*
X011861Y008867D01*
X012019Y008925D01*
X012058Y008928D01*
X012097Y008921D01*
X012133Y008905D01*
X012163Y008879D01*
X012186Y008847D01*
X012311Y008504D01*
X012030Y008402D01*
X012014Y008448D02*
X011911Y008448D01*
X011875Y008546D02*
X011978Y008546D01*
X011942Y008645D02*
X011839Y008645D01*
X011803Y008743D02*
X011906Y008743D01*
X011870Y008842D02*
X011494Y008842D01*
X011494Y008940D02*
X012810Y008940D01*
X012731Y009039D02*
X011494Y009039D01*
X011596Y009137D02*
X012708Y009137D01*
X012625Y009236D02*
X011695Y009236D01*
X011701Y009334D02*
X012618Y009334D01*
X012618Y009433D02*
X011701Y009433D01*
X011845Y009772D02*
X011845Y010776D01*
X012085Y010221D02*
X012708Y010221D01*
X012708Y010122D02*
X012085Y010122D01*
X012085Y010024D02*
X012708Y010024D01*
X012708Y009925D02*
X012157Y009925D01*
X012174Y009827D02*
X012708Y009827D01*
X012708Y009728D02*
X012174Y009728D01*
X012168Y009630D02*
X012708Y009630D01*
X012635Y009531D02*
X012069Y009531D01*
X012188Y008842D02*
X012909Y008842D01*
X013065Y009024D02*
X012947Y009142D01*
X012947Y009378D01*
X012947Y010776D01*
X012947Y011504D01*
X013208Y011709D02*
X013282Y011709D01*
X013320Y011719D01*
X013354Y011739D01*
X013382Y011767D01*
X013402Y011801D01*
X013412Y011839D01*
X013412Y012163D01*
X012997Y012163D01*
X012997Y012263D01*
X012897Y012263D01*
X012897Y012717D01*
X012762Y012717D01*
X012764Y012718D01*
X012914Y012869D01*
X012951Y012957D01*
X012951Y012968D01*
X013026Y012968D01*
X013066Y013008D01*
X013244Y012829D01*
X013517Y012829D01*
X013535Y012847D01*
X013535Y012438D01*
X013445Y012349D01*
X013445Y012077D01*
X013638Y011884D01*
X013910Y011884D01*
X013950Y011924D01*
X013927Y011868D01*
X013927Y011645D01*
X014012Y011439D01*
X014170Y011282D01*
X014231Y011256D01*
X014170Y011231D01*
X014012Y011073D01*
X013927Y010868D01*
X013927Y010645D01*
X014012Y010439D01*
X014170Y010282D01*
X014375Y010197D01*
X014573Y010197D01*
X014573Y009091D01*
X014239Y008962D01*
X014016Y009576D01*
X013874Y009642D01*
X013356Y009454D01*
X013289Y009311D01*
X013307Y009264D01*
X013276Y009264D01*
X013276Y009515D01*
X013187Y009604D01*
X013187Y010232D01*
X013341Y010232D01*
X013452Y010343D01*
X013452Y011209D01*
X013341Y011320D01*
X013228Y011320D01*
X013276Y011368D01*
X013276Y011641D01*
X013208Y011709D01*
X013218Y011698D02*
X013927Y011698D01*
X013927Y011797D02*
X013400Y011797D01*
X013412Y011895D02*
X013627Y011895D01*
X013528Y011994D02*
X013412Y011994D01*
X013412Y012092D02*
X013445Y012092D01*
X013445Y012191D02*
X012997Y012191D01*
X012947Y012213D02*
X012947Y012646D01*
X013105Y012804D01*
X013105Y014181D01*
X012987Y014300D01*
X012711Y014300D01*
X012711Y014626D01*
X012951Y014859D01*
X012955Y015209D01*
X012518Y015209D01*
X012396Y015331D01*
X012396Y015815D01*
X012243Y015973D01*
X011869Y015973D01*
X011766Y016056D01*
X011766Y016398D01*
X011687Y016473D01*
X011215Y016473D01*
X011136Y016398D01*
X011136Y016197D01*
X011178Y016229D02*
X009810Y016229D01*
X009810Y016150D02*
X009810Y016465D01*
X009800Y016503D01*
X009796Y016510D01*
X009969Y016683D01*
X009969Y016837D01*
X010184Y017091D01*
X011068Y017091D01*
X011158Y017002D01*
X011380Y017002D01*
X011380Y016859D01*
X011491Y016748D01*
X011684Y016748D01*
X011684Y016693D01*
X011720Y016605D01*
X011788Y016537D01*
X011860Y016465D01*
X011792Y016396D01*
X011792Y016377D01*
X011643Y016526D01*
X011370Y016526D01*
X011178Y016333D01*
X011178Y016061D01*
X011179Y016059D01*
X011170Y016050D01*
X011141Y016025D01*
X011136Y016017D01*
X011130Y016010D01*
X011115Y015974D01*
X011098Y015940D01*
X011097Y015931D01*
X011093Y015922D01*
X011093Y015883D01*
X011090Y015845D01*
X011093Y015836D01*
X011093Y015366D01*
X010755Y015366D01*
X010755Y015618D01*
X010644Y015730D01*
X009896Y015730D01*
X009837Y015670D01*
X009762Y015745D01*
X009780Y015763D01*
X009800Y015797D01*
X009810Y015835D01*
X009810Y016150D01*
X009561Y016150D01*
X009561Y016490D01*
X009561Y016490D01*
X009561Y016150D01*
X009561Y016150D01*
X009561Y016189D01*
X009837Y016386D01*
X009810Y016426D02*
X011270Y016426D01*
X011178Y016328D02*
X009810Y016328D01*
X009810Y016150D02*
X009561Y016150D01*
X009561Y016150D01*
X009561Y016229D02*
X009561Y016229D01*
X009561Y016328D02*
X009561Y016328D01*
X009561Y016426D02*
X009561Y016426D01*
X009811Y016525D02*
X011369Y016525D01*
X011644Y016525D02*
X011800Y016525D01*
X011822Y016426D02*
X011742Y016426D01*
X011713Y016623D02*
X009909Y016623D01*
X009969Y016722D02*
X011684Y016722D01*
X011418Y016820D02*
X009969Y016820D01*
X010038Y016919D02*
X011380Y016919D01*
X011143Y017017D02*
X010122Y017017D01*
X010073Y017331D02*
X009640Y016819D01*
X009604Y017148D02*
X009517Y017148D01*
X009544Y017176D01*
X009581Y017264D01*
X009581Y017359D01*
X009661Y017278D01*
X009714Y017278D01*
X009604Y017148D01*
X009560Y017214D02*
X009660Y017214D01*
X009627Y017313D02*
X009581Y017313D01*
X009341Y017311D02*
X009341Y018327D01*
X009483Y018540D01*
X009483Y019772D01*
X009487Y019772D01*
X009887Y019381D02*
X010086Y019381D01*
X010012Y019455D02*
X010170Y019298D01*
X010250Y019264D01*
X009787Y018802D01*
X009722Y018802D01*
X009722Y019264D01*
X009804Y019298D01*
X009961Y019455D01*
X009987Y019516D01*
X010012Y019455D01*
X010002Y019480D02*
X009971Y019480D01*
X009768Y019283D02*
X010205Y019283D01*
X010170Y019184D02*
X009722Y019184D01*
X009722Y019086D02*
X010072Y019086D01*
X009973Y018987D02*
X009722Y018987D01*
X009722Y018889D02*
X009875Y018889D01*
X009798Y018473D02*
X010506Y019181D01*
X010506Y019772D01*
X010487Y019772D01*
X010983Y019300D02*
X011491Y019772D01*
X011487Y019772D01*
X011887Y019381D02*
X011902Y019381D01*
X011961Y019455D02*
X011987Y019516D01*
X012002Y019480D01*
X011799Y019278D01*
X011777Y019224D01*
X011674Y019121D01*
X011674Y018859D01*
X011491Y018859D01*
X011412Y018780D01*
X011351Y018841D01*
X011079Y018841D01*
X010886Y018648D01*
X010886Y018522D01*
X010486Y018122D01*
X010212Y018122D01*
X010197Y018137D01*
X010196Y018138D01*
X010163Y018171D01*
X010130Y018204D01*
X010129Y018204D01*
X010128Y018205D01*
X010085Y018222D01*
X010042Y018240D01*
X010041Y018240D01*
X010040Y018241D01*
X010030Y018241D01*
X010127Y018337D01*
X010127Y018463D01*
X010642Y018978D01*
X010710Y019046D01*
X010728Y019090D01*
X010847Y018971D01*
X011119Y018971D01*
X011312Y019163D01*
X011312Y019239D01*
X011375Y019212D01*
X011598Y019212D01*
X011804Y019298D01*
X011961Y019455D01*
X011971Y019480D02*
X012001Y019480D01*
X011804Y019283D02*
X011768Y019283D01*
X011737Y019184D02*
X011312Y019184D01*
X011234Y019086D02*
X011674Y019086D01*
X011674Y018987D02*
X011135Y018987D01*
X011028Y018790D02*
X010454Y018790D01*
X010356Y018692D02*
X010930Y018692D01*
X010886Y018593D02*
X010257Y018593D01*
X010159Y018495D02*
X010858Y018495D01*
X010760Y018396D02*
X010127Y018396D01*
X010088Y018298D02*
X010661Y018298D01*
X010563Y018199D02*
X010135Y018199D01*
X009995Y018000D02*
X009636Y017996D01*
X009995Y018000D02*
X010113Y017882D01*
X010585Y017882D01*
X011215Y018512D01*
X011402Y018790D02*
X011422Y018790D01*
X011674Y018889D02*
X010553Y018889D01*
X010651Y018987D02*
X010830Y018987D01*
X010732Y019086D02*
X010726Y019086D01*
X011225Y018183D02*
X011351Y018183D01*
X011380Y018212D01*
X011380Y017978D01*
X011355Y017967D01*
X011287Y017900D01*
X011234Y017846D01*
X010888Y017846D01*
X011225Y018183D01*
X011143Y018101D02*
X011380Y018101D01*
X011367Y018199D02*
X011380Y018199D01*
X011380Y018002D02*
X011044Y018002D01*
X010946Y017904D02*
X011291Y017904D01*
X011491Y017764D02*
X012357Y017764D01*
X012475Y017646D01*
X012475Y016150D01*
X012724Y015934D02*
X013092Y015934D01*
X013012Y016014D02*
X013205Y015821D01*
X013219Y015821D01*
X013219Y015713D01*
X013005Y015713D01*
X013005Y015259D01*
X012905Y015259D01*
X012905Y015159D01*
X012490Y015159D01*
X012490Y014835D01*
X012500Y014797D01*
X012520Y014763D01*
X012548Y014735D01*
X012565Y014725D01*
X012455Y014725D01*
X012440Y014721D01*
X012396Y014765D01*
X012346Y014765D01*
X012358Y014776D01*
X012358Y015642D01*
X012246Y015753D01*
X011573Y015753D01*
X011573Y015764D01*
X011628Y015811D01*
X011634Y015814D01*
X011664Y015842D01*
X011695Y015869D01*
X011698Y015875D01*
X011703Y015880D01*
X011719Y015918D01*
X011738Y015955D01*
X011738Y015961D01*
X011741Y015967D01*
X011835Y016061D01*
X011835Y016081D01*
X011984Y015931D01*
X012228Y015931D01*
X012339Y015821D01*
X012611Y015821D01*
X012804Y016014D01*
X012804Y016286D01*
X012715Y016375D01*
X012715Y016783D01*
X012730Y016779D01*
X013055Y016779D01*
X013055Y017194D01*
X013155Y017194D01*
X013155Y016779D01*
X013479Y016779D01*
X013518Y016789D01*
X013552Y016809D01*
X013570Y016826D01*
X013658Y016739D01*
X013731Y016739D01*
X013731Y016538D01*
X013571Y016538D01*
X013495Y016461D01*
X013477Y016479D01*
X013205Y016479D01*
X013012Y016286D01*
X013012Y016014D01*
X013012Y016032D02*
X012804Y016032D01*
X012804Y016131D02*
X013012Y016131D01*
X013012Y016229D02*
X012804Y016229D01*
X012762Y016328D02*
X013054Y016328D01*
X013152Y016426D02*
X012715Y016426D01*
X012715Y016525D02*
X013558Y016525D01*
X013731Y016623D02*
X012715Y016623D01*
X012715Y016722D02*
X013731Y016722D01*
X013576Y016820D02*
X013563Y016820D01*
X013794Y017067D02*
X013971Y016902D01*
X013971Y015874D01*
X014089Y015756D01*
X014487Y015756D01*
X014109Y015343D02*
X014017Y015343D01*
X014017Y015434D02*
X014170Y015282D01*
X014231Y015256D01*
X014170Y015231D01*
X014017Y015078D01*
X014017Y015434D01*
X014017Y015244D02*
X014202Y015244D01*
X014084Y015146D02*
X014017Y015146D01*
X013778Y015933D02*
X013778Y016138D01*
X013707Y016209D01*
X013459Y016028D02*
X013459Y013276D01*
X013380Y013158D01*
X013137Y013380D02*
X013137Y013788D01*
X013028Y013897D01*
X013039Y013904D01*
X013067Y013932D01*
X013087Y013966D01*
X013097Y014004D01*
X013097Y014250D01*
X012761Y014250D01*
X012761Y014350D01*
X012661Y014350D01*
X012661Y014705D01*
X012761Y014705D01*
X012761Y014350D01*
X013097Y014350D01*
X013097Y014595D01*
X013087Y014633D01*
X013067Y014667D01*
X013039Y014695D01*
X013023Y014705D01*
X013219Y014705D01*
X013219Y013462D01*
X013137Y013380D01*
X013137Y013471D02*
X013219Y013471D01*
X013219Y013570D02*
X013137Y013570D01*
X013137Y013668D02*
X013219Y013668D01*
X013219Y013767D02*
X013137Y013767D01*
X013059Y013865D02*
X013219Y013865D01*
X013219Y013964D02*
X013086Y013964D01*
X013097Y014062D02*
X013219Y014062D01*
X013219Y014161D02*
X013097Y014161D01*
X013219Y014259D02*
X012761Y014259D01*
X012761Y014250D02*
X012761Y013899D01*
X012661Y013899D01*
X012661Y014250D01*
X012761Y014250D01*
X012711Y014300D02*
X012672Y014260D01*
X012672Y014063D01*
X012475Y013867D01*
X012278Y013867D01*
X012081Y013670D01*
X012081Y013433D01*
X012131Y013483D02*
X012031Y013483D01*
X012031Y013834D01*
X012131Y013834D01*
X012131Y013483D01*
X012131Y013570D02*
X012031Y013570D01*
X012031Y013668D02*
X012131Y013668D01*
X012131Y013767D02*
X012031Y013767D01*
X011765Y013836D02*
X011753Y013829D01*
X011725Y013801D01*
X011705Y013767D01*
X011695Y013729D01*
X011695Y013659D01*
X011662Y013692D01*
X011628Y013725D01*
X011595Y013759D01*
X011595Y013759D01*
X011594Y013759D01*
X011551Y013777D01*
X011507Y013795D01*
X011506Y013795D01*
X011459Y013795D01*
X011411Y013795D01*
X011160Y013794D01*
X011655Y014021D01*
X011655Y013945D01*
X011765Y013836D01*
X011735Y013865D02*
X011315Y013865D01*
X011411Y013795D02*
X011411Y013795D01*
X011506Y013795D02*
X011506Y013795D01*
X011576Y013767D02*
X011705Y013767D01*
X011662Y013692D02*
X011662Y013692D01*
X011685Y013668D02*
X011695Y013668D01*
X011569Y013445D02*
X011459Y013556D01*
X010270Y013552D01*
X010270Y013237D02*
X010715Y013237D01*
X010715Y013313D01*
X010886Y013314D01*
X010886Y013140D01*
X010975Y013051D01*
X010975Y012595D01*
X010828Y012743D01*
X010760Y012810D01*
X010755Y012812D01*
X010755Y013099D01*
X010715Y013138D01*
X010715Y013237D01*
X010270Y013237D01*
X010270Y013237D01*
X009825Y013237D01*
X009825Y013335D01*
X009817Y013342D01*
X009737Y013262D01*
X009465Y013262D01*
X009447Y013280D01*
X009447Y013029D01*
X009526Y012950D01*
X009634Y013057D01*
X009701Y013125D01*
X009789Y013161D01*
X009825Y013161D01*
X009825Y013237D01*
X010270Y013237D01*
X010270Y013237D01*
X010703Y013237D01*
X010900Y013040D01*
X010949Y013077D02*
X010755Y013077D01*
X010755Y012979D02*
X010975Y012979D01*
X010975Y012880D02*
X010755Y012880D01*
X010789Y012782D02*
X010975Y012782D01*
X010975Y012683D02*
X010887Y012683D01*
X010624Y012607D02*
X011097Y012134D01*
X011215Y012252D01*
X011215Y013276D01*
X010886Y013274D02*
X010715Y013274D01*
X010715Y013176D02*
X010886Y013176D01*
X010624Y012607D02*
X010270Y012607D01*
X010270Y012922D02*
X009837Y012922D01*
X009325Y012410D01*
X009089Y012410D01*
X008892Y012646D01*
X008932Y012685D01*
X008932Y013867D01*
X009168Y014103D01*
X009168Y015717D01*
X009247Y015796D01*
X009247Y016150D01*
X008932Y016150D02*
X008932Y015796D01*
X008892Y015756D01*
X008892Y014181D01*
X008538Y013827D01*
X008295Y014050D02*
X008209Y013963D01*
X008209Y013691D01*
X008402Y013498D01*
X008674Y013498D01*
X008692Y013516D01*
X008692Y012886D01*
X008645Y012886D01*
X008556Y012975D01*
X008284Y012975D01*
X008091Y012782D01*
X008091Y012510D01*
X008219Y012381D01*
X008219Y012194D01*
X008166Y012141D01*
X008158Y012133D01*
X008158Y012389D01*
X008069Y012478D01*
X008069Y014225D01*
X008244Y014050D01*
X008295Y014050D01*
X008231Y014062D02*
X008069Y014062D01*
X008069Y013964D02*
X008209Y013964D01*
X008209Y013865D02*
X008069Y013865D01*
X008069Y013767D02*
X008209Y013767D01*
X008232Y013668D02*
X008069Y013668D01*
X008069Y013570D02*
X008330Y013570D01*
X008069Y013471D02*
X008692Y013471D01*
X008692Y013373D02*
X008069Y013373D01*
X008069Y013274D02*
X008692Y013274D01*
X008692Y013176D02*
X008069Y013176D01*
X008069Y013077D02*
X008692Y013077D01*
X008692Y012979D02*
X008069Y012979D01*
X008069Y012880D02*
X008189Y012880D01*
X008091Y012782D02*
X008069Y012782D01*
X008069Y012683D02*
X008091Y012683D01*
X008091Y012585D02*
X008069Y012585D01*
X008069Y012486D02*
X008115Y012486D01*
X008158Y012388D02*
X008213Y012388D01*
X008219Y012289D02*
X008158Y012289D01*
X008158Y012191D02*
X008216Y012191D01*
X008459Y012095D02*
X008302Y011937D01*
X008302Y011583D01*
X008302Y011229D01*
X008380Y011150D01*
X008380Y010599D01*
X008498Y010481D01*
X008498Y009772D01*
X008487Y009752D01*
X008860Y009334D02*
X008928Y009334D01*
X008928Y009402D02*
X008778Y009252D01*
X008928Y009103D01*
X008928Y009402D01*
X008928Y009236D02*
X008795Y009236D01*
X008893Y009137D02*
X008928Y009137D01*
X009168Y008788D02*
X009168Y011150D01*
X009247Y011229D01*
X009247Y011583D01*
X009561Y011583D02*
X009561Y010402D01*
X009801Y010627D02*
X009801Y010878D01*
X009834Y010846D01*
X009834Y010595D01*
X009801Y010627D01*
X009814Y010615D02*
X009834Y010615D01*
X009834Y010713D02*
X009801Y010713D01*
X009801Y010812D02*
X009834Y010812D01*
X010073Y011071D02*
X010073Y010008D01*
X010349Y010008D01*
X010313Y010513D02*
X010442Y010513D01*
X010335Y010620D01*
X010335Y010868D01*
X010313Y010846D01*
X010313Y010513D01*
X010313Y010516D02*
X010439Y010516D01*
X010340Y010615D02*
X010313Y010615D01*
X010313Y010713D02*
X010335Y010713D01*
X010335Y010812D02*
X010313Y010812D01*
X010402Y010960D02*
X010402Y011207D01*
X010209Y011400D01*
X009937Y011400D01*
X009850Y011313D01*
X009850Y011539D01*
X009976Y011412D01*
X010249Y011412D01*
X010424Y011587D01*
X010424Y010982D01*
X010402Y010960D01*
X010402Y011009D02*
X010424Y011009D01*
X010424Y011107D02*
X010402Y011107D01*
X010402Y011206D02*
X010424Y011206D01*
X010424Y011304D02*
X010305Y011304D01*
X010424Y011403D02*
X009850Y011403D01*
X009850Y011501D02*
X009887Y011501D01*
X010113Y011741D02*
X010113Y012252D01*
X010152Y012292D01*
X010270Y012292D01*
X009873Y012027D02*
X009873Y011966D01*
X009850Y011943D01*
X009850Y011957D01*
X009738Y012068D01*
X008699Y012068D01*
X008699Y012406D01*
X008780Y012406D01*
X008881Y012284D01*
X008886Y012274D01*
X008912Y012248D01*
X008935Y012220D01*
X008945Y012215D01*
X008953Y012207D01*
X008987Y012192D01*
X009020Y012175D01*
X009031Y012174D01*
X009041Y012170D01*
X009078Y012170D01*
X009115Y012167D01*
X009126Y012170D01*
X009373Y012170D01*
X009461Y012207D01*
X009785Y012531D01*
X009785Y012115D01*
X009873Y012027D01*
X009873Y011994D02*
X009813Y011994D01*
X009808Y012092D02*
X008699Y012092D01*
X008699Y012191D02*
X008991Y012191D01*
X008877Y012289D02*
X008699Y012289D01*
X008699Y012388D02*
X008795Y012388D01*
X008892Y012646D02*
X008459Y012646D01*
X008420Y012646D01*
X008459Y012646D02*
X008459Y012095D01*
X008932Y011583D02*
X008932Y011229D01*
X008774Y011071D01*
X008774Y010796D01*
X008738Y010467D02*
X008910Y010467D01*
X008928Y010485D01*
X008928Y010103D01*
X008738Y010292D01*
X008738Y010467D01*
X008738Y010418D02*
X008928Y010418D01*
X008928Y010319D02*
X008738Y010319D01*
X008810Y010221D02*
X008928Y010221D01*
X008928Y010122D02*
X008908Y010122D01*
X009408Y010091D02*
X009425Y010073D01*
X009476Y010073D01*
X009408Y010004D01*
X009408Y010091D01*
X009408Y010024D02*
X009427Y010024D01*
X009725Y010101D02*
X009805Y010180D01*
X009805Y010072D01*
X009776Y010101D01*
X009725Y010101D01*
X009747Y010122D02*
X009805Y010122D01*
X009880Y009334D02*
X009896Y009334D01*
X009207Y008748D02*
X009168Y008788D01*
X009043Y008448D02*
X008974Y008448D01*
X008875Y008349D02*
X009248Y008349D01*
X009150Y008251D02*
X008777Y008251D01*
X008822Y008152D02*
X009075Y008152D01*
X009075Y008054D02*
X008921Y008054D01*
X009007Y007955D02*
X009075Y007955D01*
X009122Y007857D02*
X009007Y007857D01*
X009007Y007702D02*
X008537Y007702D01*
X008537Y007232D01*
X008702Y007232D01*
X009007Y007537D01*
X009007Y007702D01*
X009007Y007660D02*
X009164Y007660D01*
X009164Y007758D02*
X008537Y007758D01*
X008526Y007752D02*
X009089Y008315D01*
X009371Y008448D02*
X009400Y008448D01*
X009404Y008040D02*
X009404Y007213D01*
X009075Y007167D02*
X006494Y007167D01*
X006494Y007069D02*
X009083Y007069D01*
X009075Y007266D02*
X008735Y007266D01*
X008834Y007364D02*
X009090Y007364D01*
X009164Y007463D02*
X008932Y007463D01*
X009007Y007561D02*
X009164Y007561D01*
X008657Y006970D02*
X008498Y006970D01*
X008531Y006872D02*
X008624Y006872D01*
X008624Y006773D02*
X008531Y006773D01*
X008531Y006675D02*
X008624Y006675D01*
X009168Y006544D02*
X009719Y006544D01*
X009876Y006386D01*
X009714Y006084D02*
X009645Y006084D01*
X008537Y007266D02*
X008437Y007266D01*
X008437Y007364D02*
X008537Y007364D01*
X008537Y007463D02*
X008437Y007463D01*
X008437Y007561D02*
X008537Y007561D01*
X008537Y007660D02*
X008437Y007660D01*
X008487Y007752D02*
X007987Y008252D01*
X007987Y010048D01*
X008184Y010244D01*
X008184Y010638D01*
X008105Y010717D01*
X007869Y010717D01*
X007672Y010914D01*
X007672Y011583D01*
X007672Y011977D01*
X007554Y012095D01*
X007554Y013079D01*
X007557Y013077D02*
X007589Y013077D01*
X007589Y012979D02*
X007557Y012979D01*
X007557Y012880D02*
X007589Y012880D01*
X007589Y012782D02*
X007557Y012782D01*
X007557Y012683D02*
X007589Y012683D01*
X007589Y012585D02*
X007557Y012585D01*
X007557Y012517D02*
X007557Y013444D01*
X007589Y013477D01*
X007589Y012485D01*
X007557Y012517D01*
X007588Y012486D02*
X007589Y012486D01*
X007829Y012252D02*
X007829Y014811D01*
X007589Y014586D02*
X007557Y014618D01*
X007557Y014055D01*
X007521Y013967D01*
X007503Y013949D01*
X007589Y013863D01*
X007589Y014586D01*
X007589Y014555D02*
X007557Y014555D01*
X007557Y014456D02*
X007589Y014456D01*
X007589Y014358D02*
X007557Y014358D01*
X007557Y014259D02*
X007589Y014259D01*
X007589Y014161D02*
X007557Y014161D01*
X007557Y014062D02*
X007589Y014062D01*
X007589Y013964D02*
X007517Y013964D01*
X007587Y013865D02*
X007589Y013865D01*
X007317Y013670D02*
X007317Y012292D01*
X007076Y012068D02*
X006882Y012068D01*
X006989Y012175D01*
X006989Y012156D01*
X007076Y012068D01*
X007052Y012092D02*
X006906Y012092D01*
X006845Y012370D02*
X006412Y011937D01*
X006412Y011583D01*
X006727Y011583D02*
X006727Y011229D01*
X006648Y011150D01*
X006648Y010993D01*
X006569Y010914D01*
X006963Y010717D02*
X006530Y010284D01*
X006530Y007764D01*
X006648Y007646D01*
X006831Y007364D02*
X007083Y007364D01*
X007182Y007266D02*
X006494Y007266D01*
X006930Y007463D02*
X006985Y007463D01*
X006927Y007832D02*
X006784Y007975D01*
X006770Y007975D01*
X006770Y008910D01*
X006787Y008892D01*
X006927Y008892D01*
X006927Y008521D01*
X007195Y008252D01*
X006927Y007984D01*
X006927Y007832D01*
X006927Y007857D02*
X006902Y007857D01*
X006927Y007955D02*
X006804Y007955D01*
X006770Y008054D02*
X006996Y008054D01*
X007095Y008152D02*
X006770Y008152D01*
X006770Y008251D02*
X007193Y008251D01*
X007098Y008349D02*
X006770Y008349D01*
X006770Y008448D02*
X007000Y008448D01*
X006927Y008546D02*
X006770Y008546D01*
X006770Y008645D02*
X006927Y008645D01*
X006927Y008743D02*
X006770Y008743D01*
X006770Y008842D02*
X006927Y008842D01*
X006924Y009221D02*
X006806Y009339D01*
X006806Y010205D01*
X007239Y010638D01*
X007239Y011071D01*
X007278Y011111D01*
X007278Y011150D01*
X007357Y011229D01*
X007357Y011583D01*
X007042Y011583D02*
X007042Y011229D01*
X006963Y011150D01*
X006963Y010717D01*
X007357Y010418D02*
X007540Y010418D01*
X007540Y010412D02*
X007540Y010538D01*
X007732Y010731D01*
X007783Y010731D01*
X007658Y010856D01*
X007658Y011129D01*
X007667Y011138D01*
X007579Y011138D01*
X007560Y011093D01*
X007509Y011042D01*
X007481Y010975D01*
X007478Y010972D01*
X007478Y010590D01*
X007442Y010502D01*
X007045Y010106D01*
X007045Y010103D01*
X007255Y010312D01*
X007440Y010312D01*
X007540Y010412D01*
X007540Y010516D02*
X007448Y010516D01*
X007478Y010615D02*
X007616Y010615D01*
X007715Y010713D02*
X007478Y010713D01*
X007478Y010812D02*
X007702Y010812D01*
X007658Y010910D02*
X007478Y010910D01*
X007495Y011009D02*
X007658Y011009D01*
X007658Y011107D02*
X007566Y011107D01*
X007987Y010993D02*
X007987Y011583D01*
X007588Y012028D02*
X007554Y012063D01*
X007546Y012056D01*
X007574Y012028D01*
X007588Y012028D01*
X006845Y012370D02*
X006845Y013630D01*
X007317Y014103D01*
X007317Y015481D01*
X007078Y015255D02*
X007078Y014202D01*
X006709Y013834D01*
X006652Y013776D01*
X006509Y013920D01*
X006383Y013920D01*
X006300Y014002D01*
X006300Y014002D01*
X006233Y014070D01*
X006188Y014088D01*
X006188Y014988D01*
X006148Y015028D01*
X006148Y015126D01*
X005703Y015126D01*
X005258Y015126D01*
X005258Y015051D01*
X005212Y015051D01*
X005166Y015097D01*
X005166Y015223D01*
X004973Y015416D01*
X004701Y015416D01*
X004676Y015391D01*
X004320Y015391D01*
X004320Y015074D01*
X004233Y014987D01*
X004233Y014715D01*
X004320Y014627D01*
X004320Y014310D01*
X004735Y014310D01*
X004735Y014399D01*
X004833Y014318D01*
X004859Y014293D01*
X004870Y014288D01*
X004880Y014281D01*
X004914Y014270D01*
X004947Y014257D01*
X004959Y014257D01*
X004971Y014253D01*
X005006Y014257D01*
X005046Y014257D01*
X005024Y014235D01*
X004898Y014235D01*
X004735Y014072D01*
X004735Y014210D01*
X004320Y014210D01*
X004320Y013756D01*
X004605Y013756D01*
X004643Y013766D01*
X004677Y013786D01*
X004705Y013814D01*
X004705Y013770D01*
X004898Y013577D01*
X004949Y013577D01*
X004883Y013526D01*
X004713Y013526D01*
X004708Y013521D01*
X004705Y013526D01*
X004677Y013553D01*
X004643Y013573D01*
X004605Y013583D01*
X004320Y013583D01*
X004320Y013129D01*
X004520Y013129D01*
X004520Y013061D01*
X004552Y013029D01*
X004320Y013029D01*
X004320Y012575D01*
X004605Y012575D01*
X004643Y012585D01*
X004677Y012605D01*
X004705Y012633D01*
X004725Y012667D01*
X004735Y012705D01*
X004735Y012868D01*
X004784Y012868D01*
X004784Y012825D01*
X004976Y012632D01*
X005249Y012632D01*
X005258Y012641D01*
X005258Y012607D01*
X005703Y012607D01*
X005703Y012607D01*
X006294Y012607D01*
X006333Y012646D01*
X006408Y012682D02*
X006148Y012682D01*
X006148Y012607D01*
X005703Y012607D01*
X005258Y012607D01*
X005258Y012509D01*
X005218Y012469D01*
X005218Y012115D01*
X005224Y012109D01*
X004976Y012109D01*
X004784Y011916D01*
X004784Y011888D01*
X004775Y011888D01*
X004775Y012331D01*
X004664Y012442D01*
X003877Y012442D01*
X003765Y012331D01*
X003765Y011465D01*
X003877Y011354D01*
X003985Y011354D01*
X003957Y011326D01*
X003957Y011053D01*
X003996Y011014D01*
X003901Y010919D01*
X003901Y010290D01*
X004012Y010178D01*
X004086Y010178D01*
X004071Y010172D01*
X004004Y010105D01*
X003967Y010017D01*
X003967Y009963D01*
X003953Y009967D01*
X003829Y009967D01*
X003829Y009585D01*
X003820Y009585D01*
X003820Y009967D01*
X003697Y009967D01*
X003681Y009963D01*
X003637Y010007D01*
X003264Y010007D01*
X003153Y009895D01*
X003153Y009786D01*
X002890Y009786D01*
X002697Y009593D01*
X002697Y009321D01*
X002743Y009275D01*
X002603Y008891D01*
X002509Y008925D01*
X002665Y009353D01*
X002401Y009449D01*
X002401Y009507D01*
X002273Y009817D01*
X002056Y010034D01*
X002296Y010034D01*
X002489Y010226D01*
X002489Y010499D01*
X002400Y010588D01*
X002400Y010854D01*
X002403Y010857D01*
X002420Y010900D01*
X002690Y010900D01*
X002882Y011093D01*
X002882Y011365D01*
X002854Y011394D01*
X003118Y011394D01*
X003118Y011848D01*
X003218Y011848D01*
X003218Y011948D01*
X003633Y011948D01*
X003633Y012272D01*
X003623Y012310D01*
X003603Y012344D01*
X003575Y012372D01*
X003541Y012392D01*
X003512Y012400D01*
X003512Y012535D01*
X003561Y012535D01*
X003672Y012646D01*
X003672Y013512D01*
X003561Y013623D01*
X003423Y013623D01*
X003423Y013716D01*
X003561Y013716D01*
X003672Y013827D01*
X003672Y014522D01*
X003792Y014522D01*
X003805Y014535D01*
X003805Y014310D01*
X004220Y014310D01*
X004220Y014210D01*
X004320Y014210D01*
X004320Y014310D01*
X004220Y014310D01*
X004220Y014765D01*
X003985Y014765D01*
X003985Y014937D01*
X004220Y014937D01*
X004220Y015391D01*
X004320Y015391D01*
X004320Y015491D01*
X004735Y015491D01*
X004735Y015815D01*
X004725Y015854D01*
X004705Y015888D01*
X004677Y015916D01*
X004643Y015935D01*
X004605Y015946D01*
X004320Y015946D01*
X004320Y015491D01*
X004220Y015491D01*
X004220Y015946D01*
X003948Y015946D01*
X003938Y015971D01*
X003920Y015989D01*
X003945Y016014D01*
X003945Y016286D01*
X003753Y016479D01*
X003512Y016479D01*
X003512Y016719D01*
X003362Y016869D01*
X003363Y016871D01*
X003373Y016909D01*
X003373Y017194D01*
X002919Y017194D01*
X002919Y017294D01*
X003373Y017294D01*
X003373Y017578D01*
X003363Y017617D01*
X003344Y017651D01*
X003316Y017679D01*
X003281Y017698D01*
X003243Y017709D01*
X002919Y017709D01*
X002919Y017294D01*
X002819Y017294D01*
X002819Y017709D01*
X002494Y017709D01*
X002456Y017698D01*
X002422Y017679D01*
X002400Y017657D01*
X002400Y017894D01*
X002435Y017859D01*
X003302Y017859D01*
X003413Y017970D01*
X003413Y018115D01*
X003506Y018115D01*
X003506Y017961D01*
X003617Y017850D01*
X004483Y017850D01*
X004519Y017886D01*
X004519Y017721D01*
X004483Y017757D01*
X003617Y017757D01*
X003506Y017646D01*
X003506Y016859D01*
X003617Y016748D01*
X004430Y016748D01*
X004430Y016526D01*
X004622Y016333D01*
X004895Y016333D01*
X004912Y016351D01*
X004912Y016024D01*
X004949Y015935D01*
X005016Y015868D01*
X005070Y015814D01*
X005070Y015394D01*
X005106Y015306D01*
X005174Y015238D01*
X005258Y015203D01*
X005258Y015126D01*
X005703Y015126D01*
X005703Y015126D01*
X005703Y015126D01*
X006148Y015126D01*
X006148Y015225D01*
X006188Y015264D01*
X006188Y015287D01*
X006369Y015106D01*
X006369Y014485D01*
X006280Y014396D01*
X006280Y014124D01*
X006473Y013931D01*
X006745Y013931D01*
X006938Y014124D01*
X006938Y014396D01*
X006848Y014485D01*
X006848Y015253D01*
X006812Y015341D01*
X006745Y015408D01*
X006448Y015705D01*
X006510Y015705D01*
X006550Y015665D01*
X007037Y015665D01*
X006989Y015617D01*
X006989Y015345D01*
X007078Y015255D01*
X007078Y015244D02*
X006848Y015244D01*
X006848Y015146D02*
X007078Y015146D01*
X007078Y015047D02*
X006848Y015047D01*
X006848Y014949D02*
X007078Y014949D01*
X007078Y014850D02*
X006848Y014850D01*
X006848Y014752D02*
X007078Y014752D01*
X007078Y014653D02*
X006848Y014653D01*
X006848Y014555D02*
X007078Y014555D01*
X007078Y014456D02*
X006878Y014456D01*
X006938Y014358D02*
X007078Y014358D01*
X007078Y014259D02*
X006938Y014259D01*
X006938Y014161D02*
X007036Y014161D01*
X006938Y014062D02*
X006876Y014062D01*
X006839Y013964D02*
X006777Y013964D01*
X006741Y013865D02*
X006563Y013865D01*
X006440Y013964D02*
X006339Y013964D01*
X006342Y014062D02*
X006240Y014062D01*
X006280Y014161D02*
X006188Y014161D01*
X006188Y014259D02*
X006280Y014259D01*
X006280Y014358D02*
X006188Y014358D01*
X006188Y014456D02*
X006340Y014456D01*
X006369Y014555D02*
X006188Y014555D01*
X006188Y014653D02*
X006369Y014653D01*
X006369Y014752D02*
X006188Y014752D01*
X006188Y014850D02*
X006369Y014850D01*
X006369Y014949D02*
X006188Y014949D01*
X006148Y015047D02*
X006369Y015047D01*
X006329Y015146D02*
X006148Y015146D01*
X006168Y015244D02*
X006231Y015244D01*
X006609Y015205D02*
X006609Y014260D01*
X006097Y013867D02*
X005703Y013867D01*
X005703Y014181D02*
X005310Y014181D01*
X005034Y013906D01*
X004824Y014161D02*
X004735Y014161D01*
X004735Y014358D02*
X004785Y014358D01*
X004941Y014259D02*
X004320Y014259D01*
X004320Y014161D02*
X004220Y014161D01*
X004220Y014210D02*
X004220Y013756D01*
X003935Y013756D01*
X003897Y013766D01*
X003863Y013786D01*
X003835Y013814D01*
X003815Y013848D01*
X003805Y013886D01*
X003805Y014210D01*
X004220Y014210D01*
X004220Y014259D02*
X003672Y014259D01*
X003672Y014161D02*
X003805Y014161D01*
X003805Y014062D02*
X003672Y014062D01*
X003672Y013964D02*
X003805Y013964D01*
X003811Y013865D02*
X003672Y013865D01*
X003612Y013767D02*
X003896Y013767D01*
X003935Y013583D02*
X003897Y013573D01*
X003863Y013553D01*
X003835Y013526D01*
X003815Y013491D01*
X003805Y013453D01*
X003805Y013129D01*
X004220Y013129D01*
X004220Y013029D01*
X004320Y013029D01*
X004320Y013129D01*
X004220Y013129D01*
X004220Y013583D01*
X003935Y013583D01*
X003891Y013570D02*
X003615Y013570D01*
X003672Y013471D02*
X003810Y013471D01*
X003805Y013373D02*
X003672Y013373D01*
X003672Y013274D02*
X003805Y013274D01*
X003805Y013176D02*
X003672Y013176D01*
X003672Y013077D02*
X004220Y013077D01*
X004220Y013029D02*
X003805Y013029D01*
X003805Y012705D01*
X003815Y012667D01*
X003835Y012633D01*
X003863Y012605D01*
X003897Y012585D01*
X003935Y012575D01*
X004220Y012575D01*
X004220Y013029D01*
X004220Y012979D02*
X004320Y012979D01*
X004320Y013077D02*
X004520Y013077D01*
X004404Y013079D02*
X004270Y013079D01*
X004220Y013176D02*
X004320Y013176D01*
X004320Y013274D02*
X004220Y013274D01*
X004220Y013373D02*
X004320Y013373D01*
X004320Y013471D02*
X004220Y013471D01*
X004220Y013570D02*
X004320Y013570D01*
X004320Y013767D02*
X004220Y013767D01*
X004220Y013865D02*
X004320Y013865D01*
X004320Y013964D02*
X004220Y013964D01*
X004220Y014062D02*
X004320Y014062D01*
X004320Y014358D02*
X004220Y014358D01*
X004220Y014456D02*
X004320Y014456D01*
X004320Y014555D02*
X004220Y014555D01*
X004220Y014653D02*
X004294Y014653D01*
X004233Y014752D02*
X004220Y014752D01*
X004233Y014850D02*
X003985Y014850D01*
X004220Y014949D02*
X004233Y014949D01*
X004220Y015047D02*
X004293Y015047D01*
X004320Y015146D02*
X004220Y015146D01*
X004220Y015244D02*
X004320Y015244D01*
X004320Y015343D02*
X004220Y015343D01*
X004320Y015441D02*
X005070Y015441D01*
X005070Y015540D02*
X004735Y015540D01*
X004735Y015638D02*
X005070Y015638D01*
X005070Y015737D02*
X004735Y015737D01*
X004730Y015835D02*
X005049Y015835D01*
X004950Y015934D02*
X004646Y015934D01*
X004912Y016032D02*
X003945Y016032D01*
X003945Y016131D02*
X004912Y016131D01*
X004912Y016229D02*
X003945Y016229D01*
X003904Y016328D02*
X004912Y016328D01*
X005152Y016544D02*
X005152Y016071D01*
X005310Y015914D01*
X005310Y015441D01*
X005703Y015441D01*
X005786Y015730D02*
X005549Y015730D01*
X005549Y015961D01*
X005513Y016050D01*
X005392Y016171D01*
X005392Y016591D01*
X005355Y016680D01*
X005288Y016747D01*
X005237Y016798D01*
X005170Y016865D01*
X005082Y016902D01*
X004984Y016902D01*
X004895Y016991D01*
X004622Y016991D01*
X004594Y016962D01*
X004594Y017013D01*
X004649Y017013D01*
X004737Y017049D01*
X004962Y017274D01*
X004998Y017362D01*
X004998Y018208D01*
X005087Y018297D01*
X005087Y018570D01*
X004895Y018762D01*
X004622Y018762D01*
X004594Y018734D01*
X004594Y018748D01*
X004483Y018859D01*
X003617Y018859D01*
X003506Y018748D01*
X003506Y018594D01*
X003413Y018594D01*
X003413Y018757D01*
X003302Y018868D01*
X002489Y018868D01*
X002489Y019003D01*
X002296Y019195D01*
X002024Y019195D01*
X001831Y019003D01*
X001831Y018730D01*
X001920Y018641D01*
X001920Y017114D01*
X001804Y017231D01*
X001598Y017316D01*
X001582Y017316D01*
X001648Y017381D01*
X001648Y017505D01*
X001648Y017590D01*
X001648Y017674D01*
X001648Y017674D01*
X001648Y017674D01*
X001633Y017689D01*
X001660Y017730D01*
X001627Y017896D01*
X001506Y017977D01*
X001586Y018056D01*
X001648Y018118D01*
X001648Y018241D01*
X001648Y018325D01*
X001648Y018411D01*
X001648Y018411D01*
X001610Y018449D01*
X001648Y018486D01*
X001648Y018610D01*
X001648Y018725D01*
X001648Y018779D01*
X001648Y018779D01*
X001648Y018779D01*
X001610Y018817D01*
X001648Y018855D01*
X001648Y019024D01*
X001544Y019127D01*
X001528Y019144D01*
X001507Y019165D01*
X001528Y019165D01*
X001648Y019285D01*
X001648Y019454D01*
X001579Y019523D01*
X001586Y019529D01*
X001648Y019591D01*
X001648Y019715D01*
X001648Y019799D01*
X001648Y019863D01*
X001975Y019863D01*
X001968Y019822D01*
X002437Y019822D01*
X002437Y019722D01*
X002537Y019722D01*
X002537Y019822D01*
X003437Y019822D01*
X003437Y019722D01*
X003537Y019722D01*
X003537Y019253D01*
X003608Y019265D01*
X003686Y019290D01*
X003759Y019327D01*
X003825Y019375D01*
X003883Y019433D01*
X003931Y019500D01*
X003966Y019567D01*
X004012Y019455D01*
X004170Y019298D01*
X004375Y019212D01*
X004598Y019212D01*
X004804Y019298D01*
X004961Y019455D01*
X004987Y019516D01*
X005012Y019455D01*
X005170Y019298D01*
X005375Y019212D01*
X005598Y019212D01*
X005804Y019298D01*
X005961Y019455D01*
X005987Y019516D01*
X006012Y019455D01*
X006170Y019298D01*
X006251Y019264D01*
X006251Y018808D01*
X006248Y018805D01*
X006211Y018717D01*
X006211Y017793D01*
X006122Y017704D01*
X006122Y017431D01*
X006315Y017239D01*
X006487Y017239D01*
X006487Y016595D01*
X006412Y016595D01*
X006412Y016150D01*
X006412Y016150D01*
X006412Y016595D01*
X006314Y016595D01*
X006473Y016754D01*
X006473Y017026D01*
X006280Y017219D01*
X006008Y017219D01*
X005815Y017026D01*
X005815Y016877D01*
X005810Y016872D01*
X005807Y016863D01*
X005800Y016855D01*
X005789Y016819D01*
X005774Y016783D01*
X005774Y016774D01*
X005771Y016764D01*
X005775Y016726D01*
X005778Y015795D01*
X005778Y015748D01*
X005779Y015747D01*
X005786Y015730D01*
X005783Y015737D02*
X005549Y015737D01*
X005549Y015835D02*
X005778Y015835D01*
X005779Y015747D02*
X005779Y015747D01*
X005778Y015934D02*
X005549Y015934D01*
X005520Y016032D02*
X005777Y016032D01*
X005777Y016131D02*
X005432Y016131D01*
X005392Y016229D02*
X005777Y016229D01*
X005776Y016328D02*
X005392Y016328D01*
X005392Y016426D02*
X005776Y016426D01*
X005775Y016525D02*
X005392Y016525D01*
X005379Y016623D02*
X005775Y016623D01*
X005775Y016722D02*
X005313Y016722D01*
X005215Y016820D02*
X005789Y016820D01*
X005815Y016919D02*
X004966Y016919D01*
X004803Y017116D02*
X005905Y017116D01*
X005815Y017017D02*
X004660Y017017D01*
X004601Y017252D02*
X004758Y017410D01*
X004758Y018433D01*
X004965Y018692D02*
X006211Y018692D01*
X006211Y018593D02*
X005064Y018593D01*
X005087Y018495D02*
X006211Y018495D01*
X006211Y018396D02*
X005087Y018396D01*
X005087Y018298D02*
X006211Y018298D01*
X006211Y018199D02*
X004998Y018199D01*
X004998Y018101D02*
X006211Y018101D01*
X006211Y018002D02*
X004998Y018002D01*
X004998Y017904D02*
X006211Y017904D01*
X006211Y017805D02*
X004998Y017805D01*
X004998Y017707D02*
X006126Y017707D01*
X006122Y017608D02*
X004998Y017608D01*
X004998Y017510D02*
X006122Y017510D01*
X006142Y017411D02*
X004998Y017411D01*
X004978Y017313D02*
X006241Y017313D01*
X006285Y017214D02*
X006487Y017214D01*
X006487Y017116D02*
X006384Y017116D01*
X006473Y017017D02*
X006487Y017017D01*
X006473Y016919D02*
X006487Y016919D01*
X006473Y016820D02*
X006487Y016820D01*
X006487Y016722D02*
X006441Y016722D01*
X006487Y016623D02*
X006342Y016623D01*
X006412Y016525D02*
X006412Y016525D01*
X006412Y016426D02*
X006412Y016426D01*
X006412Y016328D02*
X006412Y016328D01*
X006412Y016229D02*
X006412Y016229D01*
X006727Y016150D02*
X006727Y018170D01*
X006845Y018300D01*
X006845Y018473D01*
X006845Y019063D01*
X007475Y019772D01*
X007487Y019772D01*
X007987Y019516D02*
X008012Y019455D01*
X008036Y019432D01*
X007938Y019432D01*
X007961Y019455D01*
X007987Y019516D01*
X007971Y019480D02*
X008002Y019480D01*
X008258Y019261D02*
X008310Y019239D01*
X008326Y019223D01*
X008356Y019191D01*
X008360Y019190D01*
X008363Y019187D01*
X008403Y019170D01*
X008956Y018920D01*
X008956Y018211D01*
X008823Y018211D01*
X008734Y018122D01*
X008065Y018122D01*
X007979Y018086D01*
X008116Y018224D01*
X008150Y018257D01*
X008150Y018258D01*
X008151Y018258D01*
X008169Y018302D01*
X008187Y018345D01*
X008187Y018346D01*
X008187Y018346D01*
X008187Y018393D01*
X008190Y018876D01*
X008280Y018967D01*
X008280Y019239D01*
X008258Y019261D01*
X008280Y019184D02*
X008369Y019184D01*
X008280Y019086D02*
X008590Y019086D01*
X008808Y018987D02*
X008280Y018987D01*
X008202Y018889D02*
X008956Y018889D01*
X008956Y018790D02*
X008189Y018790D01*
X008189Y018692D02*
X008956Y018692D01*
X008956Y018593D02*
X008188Y018593D01*
X008188Y018495D02*
X008956Y018495D01*
X008956Y018396D02*
X008187Y018396D01*
X008167Y018298D02*
X008956Y018298D01*
X008811Y018199D02*
X008092Y018199D01*
X008014Y018101D02*
X007993Y018101D01*
X008113Y017882D02*
X008959Y017882D01*
X008734Y017643D02*
X008823Y017553D01*
X008891Y017553D01*
X008446Y017102D01*
X008413Y017069D01*
X008413Y017069D01*
X008412Y017068D01*
X008395Y017024D01*
X008377Y016981D01*
X008377Y016980D01*
X008377Y016980D01*
X008377Y016933D01*
X008377Y016635D01*
X008226Y016635D01*
X008226Y017643D01*
X008734Y017643D01*
X008768Y017608D02*
X008226Y017608D01*
X008226Y017510D02*
X008848Y017510D01*
X008751Y017411D02*
X008226Y017411D01*
X008226Y017313D02*
X008654Y017313D01*
X008557Y017214D02*
X008226Y017214D01*
X008226Y017116D02*
X008460Y017116D01*
X008392Y017017D02*
X008226Y017017D01*
X008226Y016919D02*
X008377Y016919D01*
X008377Y016820D02*
X008226Y016820D01*
X008226Y016722D02*
X008377Y016722D01*
X008617Y016933D02*
X008617Y016150D01*
X008302Y016150D02*
X008302Y015796D01*
X008380Y015717D01*
X008380Y014378D01*
X008141Y014604D02*
X008069Y014532D01*
X008069Y014586D01*
X008141Y014658D01*
X008141Y014604D01*
X008136Y014653D02*
X008141Y014653D01*
X008092Y014555D02*
X008069Y014555D01*
X008069Y014161D02*
X008133Y014161D01*
X008620Y014604D02*
X008652Y014571D01*
X008652Y015665D01*
X008620Y015665D01*
X008620Y014604D01*
X008620Y014653D02*
X008652Y014653D01*
X008652Y014752D02*
X008620Y014752D01*
X008620Y014850D02*
X008652Y014850D01*
X008652Y014949D02*
X008620Y014949D01*
X008620Y015047D02*
X008652Y015047D01*
X008652Y015146D02*
X008620Y015146D01*
X008620Y015244D02*
X008652Y015244D01*
X008652Y015343D02*
X008620Y015343D01*
X008620Y015441D02*
X008652Y015441D01*
X008652Y015540D02*
X008620Y015540D01*
X008620Y015638D02*
X008652Y015638D01*
X008141Y015618D02*
X008141Y014965D01*
X007965Y015140D01*
X007693Y015140D01*
X007557Y015004D01*
X007557Y015255D01*
X007646Y015345D01*
X007646Y015617D01*
X007598Y015665D01*
X007849Y015665D01*
X008096Y015665D01*
X008098Y015660D01*
X008141Y015618D01*
X008120Y015638D02*
X007625Y015638D01*
X007646Y015540D02*
X008141Y015540D01*
X008141Y015441D02*
X007646Y015441D01*
X007644Y015343D02*
X008141Y015343D01*
X008141Y015244D02*
X007557Y015244D01*
X007557Y015146D02*
X008141Y015146D01*
X008141Y015047D02*
X008058Y015047D01*
X007600Y015047D02*
X007557Y015047D01*
X006990Y015343D02*
X006810Y015343D01*
X006712Y015441D02*
X006989Y015441D01*
X006989Y015540D02*
X006613Y015540D01*
X006515Y015638D02*
X007010Y015638D01*
X007042Y016150D02*
X007042Y016737D01*
X006967Y016811D01*
X006967Y017158D01*
X007193Y017397D02*
X007103Y017487D01*
X006967Y017487D01*
X006967Y017821D01*
X007054Y017821D01*
X007156Y017712D01*
X007157Y017707D01*
X007188Y017677D01*
X007192Y017672D01*
X007193Y017397D01*
X007193Y017411D02*
X007179Y017411D01*
X007193Y017510D02*
X006967Y017510D01*
X006967Y017608D02*
X007192Y017608D01*
X007158Y017707D02*
X006967Y017707D01*
X006967Y017805D02*
X007069Y017805D01*
X007361Y017843D02*
X007432Y017772D01*
X007435Y016583D01*
X007357Y016504D01*
X007357Y016150D01*
X007672Y016150D02*
X007672Y016504D01*
X007711Y016544D01*
X007711Y018158D01*
X007947Y018394D01*
X007951Y019103D01*
X007710Y018879D02*
X007708Y018494D01*
X007508Y018294D01*
X007471Y018206D01*
X007471Y018077D01*
X007406Y018147D01*
X007406Y018286D01*
X007213Y018479D01*
X007174Y018479D01*
X007174Y018609D01*
X007085Y018698D01*
X007085Y018972D01*
X007319Y019236D01*
X007375Y019212D01*
X007598Y019212D01*
X007622Y019222D01*
X007622Y018967D01*
X007710Y018879D01*
X007700Y018889D02*
X007085Y018889D01*
X007085Y018790D02*
X007710Y018790D01*
X007709Y018692D02*
X007091Y018692D01*
X007174Y018593D02*
X007709Y018593D01*
X007708Y018495D02*
X007174Y018495D01*
X007296Y018396D02*
X007610Y018396D01*
X007512Y018298D02*
X007394Y018298D01*
X007406Y018199D02*
X007471Y018199D01*
X007471Y018101D02*
X007449Y018101D01*
X007361Y017843D02*
X007077Y018150D01*
X006491Y018709D02*
X006451Y018670D01*
X006451Y017567D01*
X006003Y017214D02*
X004902Y017214D01*
X004601Y017252D02*
X004050Y017252D01*
X003506Y017214D02*
X002919Y017214D01*
X002919Y017194D02*
X002919Y016783D01*
X002855Y016719D01*
X002855Y016447D01*
X002944Y016358D01*
X002944Y015985D01*
X002854Y015985D01*
X002882Y016014D01*
X002882Y016286D01*
X002690Y016479D01*
X002417Y016479D01*
X002400Y016461D01*
X002400Y016831D01*
X002422Y016809D01*
X002456Y016789D01*
X002494Y016779D01*
X002819Y016779D01*
X002819Y017194D01*
X002919Y017194D01*
X002869Y017244D02*
X002444Y017244D01*
X002357Y017331D01*
X002357Y018709D01*
X002514Y018906D01*
X002514Y019744D01*
X002487Y019772D01*
X002537Y019775D02*
X003437Y019775D01*
X003437Y019722D02*
X002968Y019722D01*
X002537Y019722D01*
X002537Y019253D01*
X002608Y019265D01*
X002686Y019290D01*
X002759Y019327D01*
X002825Y019375D01*
X002883Y019433D01*
X002931Y019500D01*
X002969Y019572D01*
X002987Y019628D01*
X003005Y019572D01*
X003042Y019500D01*
X003090Y019433D01*
X003148Y019375D01*
X003214Y019327D01*
X003287Y019290D01*
X003365Y019265D01*
X003437Y019253D01*
X003437Y019722D01*
X003437Y019677D02*
X003537Y019677D01*
X003537Y019578D02*
X003437Y019578D01*
X003437Y019480D02*
X003537Y019480D01*
X003537Y019381D02*
X003437Y019381D01*
X003437Y019283D02*
X003537Y019283D01*
X003664Y019283D02*
X004205Y019283D01*
X004086Y019381D02*
X003831Y019381D01*
X003917Y019480D02*
X004002Y019480D01*
X003548Y018790D02*
X003380Y018790D01*
X003413Y018692D02*
X003506Y018692D01*
X003506Y018101D02*
X003413Y018101D01*
X003413Y018002D02*
X003506Y018002D01*
X003563Y017904D02*
X003347Y017904D01*
X003250Y017707D02*
X003566Y017707D01*
X003506Y017608D02*
X003365Y017608D01*
X003373Y017510D02*
X003506Y017510D01*
X003506Y017411D02*
X003373Y017411D01*
X003373Y017313D02*
X003506Y017313D01*
X003506Y017116D02*
X003373Y017116D01*
X003373Y017017D02*
X003506Y017017D01*
X003506Y016919D02*
X003373Y016919D01*
X003411Y016820D02*
X003544Y016820D01*
X003510Y016722D02*
X004430Y016722D01*
X004430Y016623D02*
X003512Y016623D01*
X003512Y016525D02*
X004430Y016525D01*
X004529Y016426D02*
X003805Y016426D01*
X003617Y016150D02*
X003617Y015953D01*
X003735Y015835D01*
X003735Y015284D01*
X003656Y015166D01*
X003656Y014851D01*
X003672Y014456D02*
X003805Y014456D01*
X003805Y014358D02*
X003672Y014358D01*
X003184Y014300D02*
X003168Y014260D01*
X003184Y014260D01*
X003184Y013079D01*
X003168Y013079D01*
X003184Y013040D01*
X003184Y012489D01*
X003512Y012486D02*
X005236Y012486D01*
X005218Y012388D02*
X004718Y012388D01*
X004775Y012289D02*
X005218Y012289D01*
X005218Y012191D02*
X004775Y012191D01*
X004775Y012092D02*
X004960Y012092D01*
X004861Y011994D02*
X004775Y011994D01*
X004775Y011895D02*
X004784Y011895D01*
X004849Y011559D02*
X004719Y011386D01*
X004719Y010363D01*
X004955Y010008D02*
X004916Y009969D01*
X004207Y009969D01*
X004207Y009615D01*
X004199Y009581D01*
X004207Y009575D01*
X004207Y009260D01*
X004247Y009221D01*
X004247Y009103D01*
X004247Y008552D01*
X004486Y008777D02*
X004575Y008688D01*
X004575Y008415D01*
X004383Y008223D01*
X004110Y008223D01*
X004056Y008278D01*
X003988Y008092D01*
X004930Y007729D01*
X004937Y007729D01*
X005023Y007693D01*
X005081Y007671D01*
X005070Y007697D01*
X005070Y008011D01*
X004981Y008100D01*
X004981Y008373D01*
X005100Y008492D01*
X005080Y008512D01*
X005080Y008666D01*
X004947Y008666D01*
X004859Y008703D01*
X004791Y008770D01*
X004755Y008858D01*
X004755Y009232D01*
X004666Y009321D01*
X004666Y009593D01*
X004802Y009729D01*
X004497Y009729D01*
X004497Y009266D01*
X004486Y009255D01*
X004486Y008777D01*
X004520Y008743D02*
X004818Y008743D01*
X004762Y008842D02*
X004486Y008842D01*
X004486Y008940D02*
X004755Y008940D01*
X004755Y009039D02*
X004486Y009039D01*
X004486Y009137D02*
X004755Y009137D01*
X004751Y009236D02*
X004486Y009236D01*
X004497Y009334D02*
X004666Y009334D01*
X004666Y009433D02*
X004497Y009433D01*
X004497Y009531D02*
X004666Y009531D01*
X004702Y009630D02*
X004497Y009630D01*
X004497Y009728D02*
X004801Y009728D01*
X004955Y010008D02*
X005624Y010008D01*
X005743Y010008D01*
X005743Y010914D01*
X005703Y010914D01*
X005703Y011780D01*
X005467Y011780D01*
X005703Y011780D02*
X005703Y012292D01*
X005703Y012607D02*
X005703Y012607D01*
X006148Y012607D01*
X006148Y012509D01*
X006188Y012469D01*
X006188Y012328D01*
X006408Y012549D01*
X006408Y012682D01*
X006408Y012585D02*
X006148Y012585D01*
X006171Y012486D02*
X006346Y012486D01*
X006248Y012388D02*
X006188Y012388D01*
X006569Y012922D02*
X005703Y012922D01*
X005703Y013237D02*
X005310Y013237D01*
X005113Y013079D01*
X005113Y012961D01*
X004925Y012683D02*
X004729Y012683D01*
X004735Y012782D02*
X004827Y012782D01*
X004642Y012585D02*
X005258Y012585D01*
X004849Y013197D02*
X005310Y013552D01*
X005703Y013552D01*
X006097Y013867D02*
X006372Y013591D01*
X006605Y013359D02*
X006509Y013262D01*
X006236Y013262D01*
X006188Y013310D01*
X006188Y013161D01*
X006605Y013161D01*
X006605Y013359D01*
X006605Y013274D02*
X006521Y013274D01*
X006605Y013176D02*
X006188Y013176D01*
X006188Y013274D02*
X006224Y013274D01*
X006569Y012922D02*
X006648Y012843D01*
X006648Y012449D01*
X006097Y011898D01*
X006097Y011229D01*
X006136Y011111D01*
X006136Y010678D01*
X006254Y010559D01*
X006254Y006583D01*
X006294Y006544D01*
X006806Y006544D01*
X007350Y006773D02*
X007402Y006773D01*
X007443Y006872D02*
X007350Y006872D01*
X007317Y006970D02*
X007476Y006970D01*
X007792Y007266D02*
X008238Y007266D01*
X008139Y007364D02*
X007890Y007364D01*
X007989Y007463D02*
X008041Y007463D01*
X008015Y008016D02*
X007778Y008252D01*
X007987Y008461D01*
X008223Y008224D01*
X008015Y008016D01*
X007977Y008054D02*
X008053Y008054D01*
X008151Y008152D02*
X007878Y008152D01*
X007780Y008251D02*
X008197Y008251D01*
X008098Y008349D02*
X007875Y008349D01*
X007974Y008448D02*
X008000Y008448D01*
X007987Y009044D02*
X007778Y009252D01*
X007987Y009461D01*
X008195Y009252D01*
X007987Y009044D01*
X008080Y009137D02*
X007893Y009137D01*
X007795Y009236D02*
X008178Y009236D01*
X008113Y009334D02*
X007860Y009334D01*
X007959Y009433D02*
X008015Y009433D01*
X007987Y010044D02*
X007958Y010073D01*
X008005Y010073D01*
X008197Y010266D01*
X008197Y010443D01*
X008245Y010396D01*
X008259Y010381D01*
X008259Y010312D01*
X008255Y010312D01*
X007987Y010044D01*
X008054Y010122D02*
X008065Y010122D01*
X008152Y010221D02*
X008163Y010221D01*
X008197Y010319D02*
X008259Y010319D01*
X008222Y010418D02*
X008197Y010418D01*
X008141Y010595D02*
X008072Y010664D01*
X008123Y010664D01*
X008141Y010681D01*
X008141Y010595D01*
X008141Y010615D02*
X008121Y010615D01*
X007869Y010402D02*
X007475Y010008D01*
X007475Y009772D01*
X007487Y009752D01*
X007065Y010122D02*
X007062Y010122D01*
X007160Y010221D02*
X007163Y010221D01*
X007259Y010319D02*
X007447Y010319D01*
X006015Y009504D02*
X005323Y009504D01*
X005323Y009411D01*
X006015Y009411D01*
X006015Y009504D01*
X006015Y009433D02*
X005323Y009433D01*
X004995Y009457D02*
X004995Y008906D01*
X005624Y008906D01*
X005080Y008645D02*
X004575Y008645D01*
X004575Y008546D02*
X005080Y008546D01*
X005056Y008448D02*
X004575Y008448D01*
X004509Y008349D02*
X004981Y008349D01*
X004981Y008251D02*
X004411Y008251D01*
X004343Y007955D02*
X005070Y007955D01*
X005070Y007857D02*
X004599Y007857D01*
X004854Y007758D02*
X005070Y007758D01*
X005310Y007744D02*
X005479Y007575D01*
X005624Y007426D01*
X005624Y006937D01*
X005337Y006472D02*
X006018Y006472D01*
X006034Y006488D01*
X006051Y006447D01*
X006090Y006408D01*
X006158Y006340D01*
X006246Y006304D01*
X006261Y006304D01*
X006261Y006181D01*
X006248Y006168D01*
X006089Y006009D01*
X006089Y006130D01*
X006079Y006169D01*
X006059Y006203D01*
X006032Y006231D01*
X005997Y006250D01*
X005959Y006261D01*
X005674Y006261D01*
X005674Y005885D01*
X005574Y005885D01*
X005574Y006261D01*
X005337Y006261D01*
X005337Y006472D01*
X005337Y006379D02*
X006119Y006379D01*
X006039Y006478D02*
X006024Y006478D01*
X006071Y006182D02*
X006261Y006182D01*
X006261Y006281D02*
X005337Y006281D01*
X005574Y006182D02*
X005674Y006182D01*
X005674Y006084D02*
X005574Y006084D01*
X005574Y005985D02*
X005674Y005985D01*
X005674Y005887D02*
X005574Y005887D01*
X005574Y005690D02*
X005674Y005690D01*
X005674Y005591D02*
X005574Y005591D01*
X005574Y005493D02*
X005674Y005493D01*
X006058Y005166D02*
X006254Y005284D01*
X006164Y006084D02*
X006089Y006084D01*
X005312Y007403D02*
X005307Y007403D01*
X005303Y007412D01*
X005308Y007407D01*
X005312Y007403D01*
X005310Y007744D02*
X005310Y008237D01*
X005027Y008054D02*
X004088Y008054D01*
X004010Y008152D02*
X004981Y008152D01*
X005549Y008011D02*
X005549Y007844D01*
X005589Y007804D01*
X005621Y007836D01*
X005621Y008051D01*
X005605Y008067D01*
X005549Y008011D01*
X005549Y007955D02*
X005621Y007955D01*
X005621Y007857D02*
X005549Y007857D01*
X005592Y008054D02*
X005618Y008054D01*
X005861Y008276D02*
X005861Y007611D01*
X004247Y009103D02*
X003695Y009103D01*
X003459Y009339D01*
X003459Y009575D01*
X003451Y009581D01*
X003820Y009630D02*
X003829Y009630D01*
X003820Y009728D02*
X003829Y009728D01*
X003820Y009827D02*
X003829Y009827D01*
X003820Y009925D02*
X003829Y009925D01*
X003970Y010024D02*
X002066Y010024D01*
X001980Y010077D02*
X001725Y010183D01*
X001400Y010183D01*
X001400Y010197D01*
X001598Y010197D01*
X001804Y010282D01*
X001831Y010309D01*
X001831Y010226D01*
X001980Y010077D01*
X001935Y010122D02*
X001871Y010122D01*
X001837Y010221D02*
X001656Y010221D01*
X002160Y010363D02*
X002160Y010953D01*
X002199Y010993D01*
X002199Y011386D01*
X001960Y011161D02*
X001960Y011092D01*
X001957Y011089D01*
X001953Y011081D01*
X001804Y011231D01*
X001742Y011256D01*
X001804Y011282D01*
X001870Y011348D01*
X001870Y011250D01*
X001960Y011161D01*
X001960Y011107D02*
X001927Y011107D01*
X001915Y011206D02*
X001829Y011206D01*
X001826Y011304D02*
X001870Y011304D01*
X002046Y011698D02*
X002046Y011868D01*
X001961Y012073D01*
X001804Y012231D01*
X001742Y012256D01*
X001804Y012282D01*
X001920Y012398D01*
X001920Y012294D01*
X001918Y012287D01*
X001920Y012246D01*
X001920Y012205D01*
X001923Y012199D01*
X001923Y012192D01*
X001941Y012155D01*
X001957Y012117D01*
X001961Y012112D01*
X001964Y012106D01*
X001995Y012078D01*
X002024Y012049D01*
X002030Y012047D01*
X002314Y011791D01*
X002314Y011715D01*
X002063Y011715D01*
X002046Y011698D01*
X002046Y011797D02*
X002308Y011797D01*
X002198Y011895D02*
X002035Y011895D01*
X001994Y011994D02*
X002089Y011994D01*
X001979Y012092D02*
X001942Y012092D01*
X001924Y012191D02*
X001844Y012191D01*
X001811Y012289D02*
X001919Y012289D01*
X001910Y012388D02*
X001920Y012388D01*
X002160Y012252D02*
X002160Y018867D01*
X002406Y019086D02*
X006251Y019086D01*
X006251Y019184D02*
X002307Y019184D01*
X002310Y019283D02*
X001646Y019283D01*
X001648Y019381D02*
X002142Y019381D01*
X002148Y019375D02*
X002214Y019327D01*
X002287Y019290D01*
X002365Y019265D01*
X002437Y019253D01*
X002437Y019722D01*
X001968Y019722D01*
X001979Y019650D01*
X002005Y019572D01*
X002042Y019500D01*
X002090Y019433D01*
X002148Y019375D01*
X002056Y019480D02*
X001622Y019480D01*
X001635Y019578D02*
X002003Y019578D01*
X001975Y019677D02*
X001648Y019677D01*
X001648Y019715D02*
X001648Y019715D01*
X001648Y019775D02*
X002437Y019775D01*
X002437Y019677D02*
X002537Y019677D01*
X002537Y019578D02*
X002437Y019578D01*
X002437Y019480D02*
X002537Y019480D01*
X002537Y019381D02*
X002437Y019381D01*
X002437Y019283D02*
X002537Y019283D01*
X002664Y019283D02*
X003310Y019283D01*
X003142Y019381D02*
X002831Y019381D01*
X002917Y019480D02*
X003056Y019480D01*
X003003Y019578D02*
X002970Y019578D01*
X002489Y018987D02*
X006251Y018987D01*
X006251Y018889D02*
X002489Y018889D01*
X002869Y018363D02*
X002869Y018355D01*
X004050Y018355D01*
X004552Y018790D02*
X006242Y018790D01*
X006491Y018709D02*
X006491Y019772D01*
X006487Y019772D01*
X006086Y019381D02*
X005887Y019381D01*
X005971Y019480D02*
X006002Y019480D01*
X006205Y019283D02*
X005768Y019283D01*
X005205Y019283D02*
X004768Y019283D01*
X004887Y019381D02*
X005086Y019381D01*
X005002Y019480D02*
X004971Y019480D01*
X004519Y017805D02*
X002400Y017805D01*
X002400Y017707D02*
X002487Y017707D01*
X002819Y017707D02*
X002919Y017707D01*
X002919Y017608D02*
X002819Y017608D01*
X002819Y017510D02*
X002919Y017510D01*
X002919Y017411D02*
X002819Y017411D01*
X002819Y017313D02*
X002919Y017313D01*
X002819Y017294D02*
X002400Y017294D01*
X002400Y017194D01*
X002819Y017194D01*
X002819Y017294D01*
X002819Y017214D02*
X002400Y017214D01*
X002400Y016820D02*
X002410Y016820D01*
X002400Y016722D02*
X002857Y016722D01*
X002855Y016623D02*
X002400Y016623D01*
X002400Y016525D02*
X002855Y016525D01*
X002875Y016426D02*
X002742Y016426D01*
X002841Y016328D02*
X002944Y016328D01*
X002944Y016229D02*
X002882Y016229D01*
X002882Y016131D02*
X002944Y016131D01*
X002944Y016032D02*
X002882Y016032D01*
X002554Y016150D02*
X002554Y015237D01*
X002550Y015107D01*
X002805Y014897D02*
X002686Y014778D01*
X002413Y014778D01*
X002400Y014792D01*
X002400Y012359D01*
X002683Y012104D01*
X002689Y012101D01*
X002703Y012088D01*
X002703Y012272D01*
X002713Y012310D01*
X002733Y012344D01*
X002761Y012372D01*
X002795Y012392D01*
X002833Y012402D01*
X002855Y012402D01*
X002855Y012535D01*
X002774Y012535D01*
X002663Y012646D01*
X002663Y013512D01*
X002774Y013623D01*
X002944Y013623D01*
X002944Y013716D01*
X002774Y013716D01*
X002663Y013827D01*
X002663Y014693D01*
X002774Y014804D01*
X002944Y014804D01*
X002944Y014897D01*
X002805Y014897D01*
X002758Y014850D02*
X002944Y014850D01*
X002722Y014752D02*
X002400Y014752D01*
X002400Y014653D02*
X002663Y014653D01*
X002663Y014555D02*
X002400Y014555D01*
X002400Y014456D02*
X002663Y014456D01*
X002663Y014358D02*
X002400Y014358D01*
X002400Y014259D02*
X002663Y014259D01*
X002663Y014161D02*
X002400Y014161D01*
X002400Y014062D02*
X002663Y014062D01*
X002663Y013964D02*
X002400Y013964D01*
X002400Y013865D02*
X002663Y013865D01*
X002724Y013767D02*
X002400Y013767D01*
X002400Y013668D02*
X002944Y013668D01*
X002721Y013570D02*
X002400Y013570D01*
X002400Y013471D02*
X002663Y013471D01*
X002663Y013373D02*
X002400Y013373D01*
X002400Y013274D02*
X002663Y013274D01*
X002663Y013176D02*
X002400Y013176D01*
X002400Y013077D02*
X002663Y013077D01*
X002663Y012979D02*
X002400Y012979D01*
X002400Y012880D02*
X002663Y012880D01*
X002663Y012782D02*
X002400Y012782D01*
X002400Y012683D02*
X002663Y012683D01*
X002725Y012585D02*
X002400Y012585D01*
X002400Y012486D02*
X002855Y012486D01*
X002787Y012388D02*
X002400Y012388D01*
X002477Y012289D02*
X002707Y012289D01*
X002703Y012191D02*
X002587Y012191D01*
X002698Y012092D02*
X002703Y012092D01*
X002554Y011898D02*
X002160Y012252D01*
X002554Y011898D02*
X002554Y011229D01*
X002700Y010910D02*
X003153Y010910D01*
X003153Y010919D02*
X003153Y010290D01*
X003264Y010178D01*
X003637Y010178D01*
X003749Y010290D01*
X003749Y010919D01*
X003701Y010967D01*
X003788Y011053D01*
X003788Y011326D01*
X003624Y011490D01*
X003633Y011524D01*
X003633Y011848D01*
X003218Y011848D01*
X003218Y011413D01*
X003130Y011326D01*
X003130Y011053D01*
X003208Y010975D01*
X003153Y010919D01*
X003175Y011009D02*
X002799Y011009D01*
X002882Y011107D02*
X003130Y011107D01*
X003130Y011206D02*
X002882Y011206D01*
X002882Y011304D02*
X003130Y011304D01*
X003118Y011403D02*
X003207Y011403D01*
X003218Y011501D02*
X003118Y011501D01*
X003118Y011600D02*
X003218Y011600D01*
X003218Y011698D02*
X003118Y011698D01*
X003118Y011797D02*
X003218Y011797D01*
X003218Y011895D02*
X003765Y011895D01*
X003765Y011797D02*
X003633Y011797D01*
X003633Y011698D02*
X003765Y011698D01*
X003765Y011600D02*
X003633Y011600D01*
X003627Y011501D02*
X003765Y011501D01*
X003711Y011403D02*
X003828Y011403D01*
X003788Y011304D02*
X003957Y011304D01*
X003957Y011206D02*
X003788Y011206D01*
X003788Y011107D02*
X003957Y011107D01*
X003990Y011009D02*
X003743Y011009D01*
X003749Y010910D02*
X003901Y010910D01*
X003901Y010812D02*
X003749Y010812D01*
X003749Y010713D02*
X003901Y010713D01*
X003901Y010615D02*
X003749Y010615D01*
X003749Y010516D02*
X003901Y010516D01*
X003901Y010418D02*
X003749Y010418D01*
X003749Y010319D02*
X003901Y010319D01*
X003969Y010221D02*
X003680Y010221D01*
X003451Y010604D02*
X003459Y010638D01*
X003459Y011189D01*
X003153Y010812D02*
X002400Y010812D01*
X002400Y010713D02*
X003153Y010713D01*
X003153Y010615D02*
X002400Y010615D01*
X002471Y010516D02*
X003153Y010516D01*
X003153Y010418D02*
X002489Y010418D01*
X002489Y010319D02*
X003153Y010319D01*
X003221Y010221D02*
X002483Y010221D01*
X002385Y010122D02*
X004021Y010122D01*
X003182Y009925D02*
X002164Y009925D01*
X002263Y009827D02*
X003153Y009827D01*
X002832Y009728D02*
X002310Y009728D01*
X002350Y009630D02*
X002734Y009630D01*
X002697Y009531D02*
X002391Y009531D01*
X002445Y009433D02*
X002697Y009433D01*
X002697Y009334D02*
X002658Y009334D01*
X002622Y009236D02*
X002729Y009236D01*
X002693Y009137D02*
X002587Y009137D01*
X002551Y009039D02*
X002657Y009039D01*
X002621Y008940D02*
X002515Y008940D01*
X002603Y008891D02*
X002569Y008797D01*
X002959Y008655D01*
X002906Y008510D01*
X003046Y008456D01*
X003190Y008852D01*
X003076Y008975D01*
X002993Y008749D01*
X002603Y008891D01*
X002585Y008842D02*
X002739Y008842D01*
X002717Y008743D02*
X003151Y008743D01*
X003115Y008645D02*
X002955Y008645D01*
X002919Y008546D02*
X003079Y008546D01*
X003027Y008842D02*
X003187Y008842D01*
X003108Y008940D02*
X003063Y008940D01*
X003065Y009339D02*
X003577Y008788D01*
X003577Y008512D01*
X003591Y008478D01*
X004046Y008251D02*
X004082Y008251D01*
X003065Y009339D02*
X003026Y009378D01*
X003026Y009457D01*
X004286Y011189D02*
X004286Y011898D01*
X004270Y011898D01*
X003765Y011994D02*
X003633Y011994D01*
X003633Y012092D02*
X003765Y012092D01*
X003765Y012191D02*
X003633Y012191D01*
X003628Y012289D02*
X003765Y012289D01*
X003822Y012388D02*
X003548Y012388D01*
X003611Y012585D02*
X003898Y012585D01*
X003811Y012683D02*
X003672Y012683D01*
X003672Y012782D02*
X003805Y012782D01*
X003805Y012880D02*
X003672Y012880D01*
X003672Y012979D02*
X003805Y012979D01*
X004220Y012880D02*
X004320Y012880D01*
X004320Y012782D02*
X004220Y012782D01*
X004220Y012683D02*
X004320Y012683D01*
X004320Y012585D02*
X004220Y012585D01*
X004649Y013570D02*
X004940Y013570D01*
X004807Y013668D02*
X003423Y013668D01*
X003184Y014300D02*
X003184Y015441D01*
X003168Y015441D01*
X003184Y015481D01*
X003184Y016583D01*
X002919Y016820D02*
X002819Y016820D01*
X002819Y016919D02*
X002919Y016919D01*
X002919Y017017D02*
X002819Y017017D01*
X002819Y017116D02*
X002919Y017116D01*
X001920Y017116D02*
X001919Y017116D01*
X001920Y017214D02*
X001820Y017214D01*
X001920Y017313D02*
X001606Y017313D01*
X001648Y017411D02*
X001920Y017411D01*
X001920Y017510D02*
X001648Y017510D01*
X001648Y017505D02*
X001648Y017505D01*
X001648Y017608D02*
X001920Y017608D01*
X001920Y017707D02*
X001645Y017707D01*
X001645Y017805D02*
X001920Y017805D01*
X001920Y017904D02*
X001615Y017904D01*
X001532Y018002D02*
X001920Y018002D01*
X001920Y018101D02*
X001630Y018101D01*
X001648Y018199D02*
X001920Y018199D01*
X001920Y018298D02*
X001648Y018298D01*
X001648Y018241D02*
X001648Y018241D01*
X001648Y018396D02*
X001920Y018396D01*
X001920Y018495D02*
X001648Y018495D01*
X001648Y018411D02*
X001648Y018411D01*
X001648Y018593D02*
X001920Y018593D01*
X001870Y018692D02*
X001648Y018692D01*
X001648Y018610D02*
X001648Y018610D01*
X001637Y018790D02*
X001831Y018790D01*
X001831Y018889D02*
X001648Y018889D01*
X001648Y018987D02*
X001831Y018987D01*
X001914Y019086D02*
X001586Y019086D01*
X001528Y019144D02*
X001528Y019144D01*
X001547Y019184D02*
X002013Y019184D01*
X001920Y016398D02*
X001920Y016114D01*
X001804Y016231D01*
X001742Y016256D01*
X001804Y016282D01*
X001920Y016398D01*
X001920Y016328D02*
X001850Y016328D01*
X001805Y016229D02*
X001920Y016229D01*
X001920Y016131D02*
X001904Y016131D01*
X001920Y015398D02*
X001920Y015114D01*
X001804Y015231D01*
X001742Y015256D01*
X001804Y015282D01*
X001920Y015398D01*
X001920Y015343D02*
X001865Y015343D01*
X001920Y015244D02*
X001771Y015244D01*
X001889Y015146D02*
X001920Y015146D01*
X001920Y014398D02*
X001804Y014282D01*
X001742Y014256D01*
X001804Y014231D01*
X001920Y014114D01*
X001920Y014398D01*
X001920Y014358D02*
X001880Y014358D01*
X001920Y014259D02*
X001749Y014259D01*
X001874Y014161D02*
X001920Y014161D01*
X001920Y013398D02*
X001920Y013114D01*
X001804Y013231D01*
X001742Y013256D01*
X001804Y013282D01*
X001920Y013398D01*
X001920Y013373D02*
X001895Y013373D01*
X001920Y013274D02*
X001786Y013274D01*
X001859Y013176D02*
X001920Y013176D01*
X004220Y015540D02*
X004320Y015540D01*
X004320Y015638D02*
X004220Y015638D01*
X004220Y015737D02*
X004320Y015737D01*
X004320Y015835D02*
X004220Y015835D01*
X004220Y015934D02*
X004320Y015934D01*
X004758Y016662D02*
X005034Y016662D01*
X005152Y016544D01*
X006014Y016737D02*
X006018Y015796D01*
X006609Y015205D01*
X005703Y014811D02*
X005113Y014811D01*
X004837Y015087D01*
X005145Y015244D02*
X005168Y015244D01*
X005166Y015146D02*
X005258Y015146D01*
X005091Y015343D02*
X005046Y015343D01*
X004561Y014851D02*
X004995Y014496D01*
X005703Y014496D01*
X004708Y013767D02*
X004644Y013767D01*
X005113Y011780D02*
X005113Y010756D01*
X005106Y010427D02*
X005080Y010402D01*
X005080Y010248D01*
X005048Y010248D01*
X005048Y010427D01*
X005106Y010427D01*
X005096Y010418D02*
X005048Y010418D01*
X005048Y010319D02*
X005080Y010319D01*
X005334Y010513D02*
X005441Y010620D01*
X005441Y010750D01*
X005503Y010689D01*
X005503Y010513D01*
X005334Y010513D01*
X005338Y010516D02*
X005503Y010516D01*
X005503Y010615D02*
X005436Y010615D01*
X005441Y010713D02*
X005478Y010713D01*
X005414Y010920D02*
X005352Y010982D01*
X005352Y011451D01*
X005463Y011451D01*
X005463Y011100D01*
X005414Y011050D01*
X005414Y010920D01*
X005414Y011009D02*
X005352Y011009D01*
X005352Y011107D02*
X005463Y011107D01*
X005463Y011206D02*
X005352Y011206D01*
X005352Y011304D02*
X005463Y011304D01*
X005463Y011403D02*
X005352Y011403D01*
X007557Y013176D02*
X007589Y013176D01*
X007589Y013274D02*
X007557Y013274D01*
X007557Y013373D02*
X007589Y013373D01*
X007584Y013471D02*
X007589Y013471D01*
X009207Y013788D02*
X009207Y012804D01*
X009447Y013077D02*
X009654Y013077D01*
X009640Y013079D02*
X009758Y013237D01*
X010270Y013237D01*
X009825Y013274D02*
X009749Y013274D01*
X009825Y013176D02*
X009447Y013176D01*
X009447Y013274D02*
X009453Y013274D01*
X009522Y013079D02*
X009640Y013079D01*
X009555Y012979D02*
X009497Y012979D01*
X009601Y013591D02*
X009680Y013670D01*
X009680Y013945D01*
X009916Y014181D01*
X010270Y014181D01*
X010270Y013867D02*
X010743Y013867D01*
X011687Y014300D01*
X012081Y014300D01*
X012081Y014630D01*
X011853Y014859D01*
X011853Y015209D01*
X011372Y014752D02*
X010755Y014752D01*
X010755Y014850D02*
X011348Y014850D01*
X011348Y014887D02*
X011348Y014776D01*
X011459Y014665D01*
X011666Y014665D01*
X011655Y014654D01*
X011655Y014539D01*
X011640Y014539D01*
X011636Y014538D01*
X011631Y014537D01*
X011592Y014519D01*
X011552Y014503D01*
X011548Y014500D01*
X010755Y014136D01*
X010755Y014887D01*
X011285Y014887D01*
X011348Y014887D01*
X011333Y015126D02*
X010270Y015126D01*
X009916Y015126D01*
X009601Y015441D01*
X009408Y015170D02*
X009408Y015083D01*
X009451Y015126D01*
X009408Y015170D01*
X009408Y015146D02*
X009431Y015146D01*
X009601Y014811D02*
X010270Y014811D01*
X010270Y014496D02*
X009876Y014496D01*
X009443Y014063D01*
X009443Y014024D01*
X009207Y013788D01*
X009408Y014367D02*
X009408Y014540D01*
X009465Y014483D01*
X009523Y014483D01*
X009408Y014367D01*
X009408Y014456D02*
X009497Y014456D01*
X009770Y015737D02*
X011093Y015737D01*
X011093Y015835D02*
X009810Y015835D01*
X009810Y015934D02*
X011097Y015934D01*
X011149Y016032D02*
X009810Y016032D01*
X009810Y016131D02*
X011178Y016131D01*
X011333Y015874D02*
X011502Y016020D01*
X011506Y016197D01*
X011806Y016032D02*
X011884Y016032D01*
X011982Y015934D02*
X011727Y015934D01*
X011656Y015835D02*
X012325Y015835D01*
X012263Y015737D02*
X013219Y015737D01*
X013191Y015835D02*
X012625Y015835D01*
X012620Y015713D02*
X012582Y015703D01*
X012548Y015683D01*
X012520Y015655D01*
X012500Y015621D01*
X012490Y015583D01*
X012490Y015259D01*
X012905Y015259D01*
X012905Y015713D01*
X012620Y015713D01*
X012510Y015638D02*
X012358Y015638D01*
X012358Y015540D02*
X012490Y015540D01*
X012490Y015441D02*
X012358Y015441D01*
X012358Y015343D02*
X012490Y015343D01*
X012358Y015244D02*
X012905Y015244D01*
X012947Y015217D02*
X012955Y015209D01*
X012947Y015217D02*
X012947Y016662D01*
X013105Y016819D01*
X013105Y017244D01*
X013155Y017294D02*
X013055Y017294D01*
X013055Y017709D01*
X012730Y017709D01*
X012711Y017703D01*
X012678Y017782D01*
X012611Y017849D01*
X012493Y017967D01*
X012468Y017978D01*
X012468Y018115D01*
X012560Y018115D01*
X012560Y017970D01*
X012671Y017859D01*
X013416Y017859D01*
X013416Y017709D01*
X013155Y017709D01*
X013155Y017294D01*
X013155Y017313D02*
X013055Y017313D01*
X013055Y017411D02*
X013155Y017411D01*
X013155Y017510D02*
X013055Y017510D01*
X013055Y017608D02*
X013155Y017608D01*
X013155Y017707D02*
X013055Y017707D01*
X012723Y017707D02*
X012709Y017707D01*
X012655Y017805D02*
X013416Y017805D01*
X013656Y017595D02*
X013656Y018788D01*
X013498Y018945D01*
X013498Y019772D01*
X013487Y019772D01*
X013887Y019381D02*
X014573Y019381D01*
X014573Y019283D02*
X013768Y019283D01*
X013738Y019270D02*
X013804Y019298D01*
X013961Y019455D01*
X014046Y019661D01*
X014046Y019863D01*
X014573Y019863D01*
X014573Y018968D01*
X014521Y018990D01*
X014185Y018990D01*
X013884Y018865D01*
X013859Y018924D01*
X013738Y019045D01*
X013738Y019270D01*
X013738Y019184D02*
X014573Y019184D01*
X014573Y019086D02*
X013738Y019086D01*
X013796Y018987D02*
X014179Y018987D01*
X013941Y018889D02*
X013874Y018889D01*
X013971Y019480D02*
X014573Y019480D01*
X014573Y019578D02*
X014012Y019578D01*
X014046Y019677D02*
X014573Y019677D01*
X014573Y019775D02*
X014046Y019775D01*
X014527Y018987D02*
X014573Y018987D01*
X013271Y018868D02*
X012671Y018868D01*
X012560Y018757D01*
X012560Y018594D01*
X012468Y018594D01*
X012468Y018748D01*
X012357Y018859D01*
X012331Y018859D01*
X012331Y019121D01*
X012326Y019126D01*
X012412Y019212D01*
X012598Y019212D01*
X012804Y019298D01*
X012961Y019455D01*
X012987Y019516D01*
X013012Y019455D01*
X013170Y019298D01*
X013259Y019261D01*
X013259Y018898D01*
X013271Y018868D01*
X013262Y018889D02*
X012331Y018889D01*
X012331Y018987D02*
X013259Y018987D01*
X013259Y019086D02*
X012331Y019086D01*
X012384Y019184D02*
X013259Y019184D01*
X013205Y019283D02*
X012768Y019283D01*
X012887Y019381D02*
X013086Y019381D01*
X013002Y019480D02*
X012971Y019480D01*
X012475Y019615D02*
X012475Y019772D01*
X012487Y019772D01*
X012475Y019615D02*
X012002Y019142D01*
X012002Y018985D01*
X012426Y018790D02*
X012593Y018790D01*
X012560Y018692D02*
X012468Y018692D01*
X012468Y018101D02*
X012560Y018101D01*
X012560Y018002D02*
X012468Y018002D01*
X012556Y017904D02*
X012626Y017904D01*
X013105Y018355D02*
X013105Y018363D01*
X013105Y018355D02*
X011924Y018355D01*
X011491Y017764D02*
X011333Y017607D01*
X009798Y017607D01*
X010073Y017331D02*
X011294Y017331D01*
X011924Y017252D02*
X011924Y016741D01*
X012121Y016544D01*
X012121Y016260D01*
X011333Y015874D02*
X011333Y015126D01*
X011093Y015441D02*
X010755Y015441D01*
X010755Y015540D02*
X011093Y015540D01*
X011093Y015638D02*
X010735Y015638D01*
X010755Y014653D02*
X011655Y014653D01*
X011655Y014555D02*
X010755Y014555D01*
X010755Y014456D02*
X011454Y014456D01*
X011239Y014358D02*
X010755Y014358D01*
X010755Y014259D02*
X011024Y014259D01*
X010809Y014161D02*
X010755Y014161D01*
X011530Y013964D02*
X011655Y013964D01*
X011569Y013445D02*
X011569Y012922D01*
X011845Y012646D01*
X011845Y012213D01*
X011845Y012646D02*
X012239Y012922D01*
X012628Y012922D01*
X012711Y013004D01*
X012711Y013433D01*
X012661Y013964D02*
X012761Y013964D01*
X012761Y014062D02*
X012661Y014062D01*
X012661Y014161D02*
X012761Y014161D01*
X012761Y014358D02*
X012661Y014358D01*
X012661Y014456D02*
X012761Y014456D01*
X012761Y014555D02*
X012661Y014555D01*
X012661Y014653D02*
X012761Y014653D01*
X012905Y014725D02*
X012905Y015159D01*
X013005Y015159D01*
X013005Y014715D01*
X012967Y014725D01*
X012905Y014725D01*
X012905Y014752D02*
X013005Y014752D01*
X013005Y014850D02*
X012905Y014850D01*
X012905Y014949D02*
X013005Y014949D01*
X013005Y015047D02*
X012905Y015047D01*
X012905Y015146D02*
X013005Y015146D01*
X013005Y015343D02*
X012905Y015343D01*
X012905Y015441D02*
X013005Y015441D01*
X013005Y015540D02*
X012905Y015540D01*
X012905Y015638D02*
X013005Y015638D01*
X013459Y016028D02*
X013341Y016150D01*
X013778Y015933D02*
X013774Y012213D01*
X014103Y012191D02*
X014129Y012191D01*
X014103Y012164D02*
X014170Y012231D01*
X014231Y012256D01*
X014170Y012282D01*
X014103Y012348D01*
X014103Y012164D01*
X014103Y012289D02*
X014162Y012289D01*
X013938Y011895D02*
X013921Y011895D01*
X013946Y011600D02*
X013276Y011600D01*
X013276Y011501D02*
X013986Y011501D01*
X014049Y011403D02*
X013276Y011403D01*
X013357Y011304D02*
X014147Y011304D01*
X014144Y011206D02*
X013452Y011206D01*
X013452Y011107D02*
X014046Y011107D01*
X013985Y011009D02*
X013452Y011009D01*
X013452Y010910D02*
X013945Y010910D01*
X013927Y010812D02*
X013452Y010812D01*
X013452Y010713D02*
X013927Y010713D01*
X013939Y010615D02*
X013452Y010615D01*
X013452Y010516D02*
X013980Y010516D01*
X014034Y010418D02*
X013452Y010418D01*
X013428Y010319D02*
X014132Y010319D01*
X014317Y010221D02*
X013187Y010221D01*
X013187Y010122D02*
X014573Y010122D01*
X014573Y010024D02*
X013187Y010024D01*
X013187Y009925D02*
X014573Y009925D01*
X014573Y009827D02*
X013187Y009827D01*
X013187Y009728D02*
X014573Y009728D01*
X014573Y009630D02*
X013900Y009630D01*
X013840Y009630D02*
X013187Y009630D01*
X013259Y009531D02*
X013569Y009531D01*
X013346Y009433D02*
X013276Y009433D01*
X013276Y009334D02*
X013300Y009334D01*
X013065Y009024D02*
X013813Y009024D01*
X013814Y009000D01*
X014104Y009334D02*
X014573Y009334D01*
X014573Y009236D02*
X014140Y009236D01*
X014176Y009137D02*
X014573Y009137D01*
X014437Y009039D02*
X014212Y009039D01*
X014068Y009433D02*
X014573Y009433D01*
X014573Y009531D02*
X014032Y009531D01*
X013496Y008743D02*
X012224Y008743D01*
X012260Y008645D02*
X013416Y008645D01*
X013161Y008546D02*
X012296Y008546D01*
X012156Y008448D02*
X012906Y008448D01*
X012651Y008349D02*
X012367Y008349D01*
X012169Y008349D02*
X012050Y008349D01*
X011701Y008152D02*
X011583Y008152D01*
X011583Y008054D02*
X011737Y008054D01*
X011630Y007955D02*
X011583Y007955D01*
X011629Y008349D02*
X011494Y008349D01*
X011494Y008448D02*
X011593Y008448D01*
X011557Y008546D02*
X011494Y008546D01*
X011494Y008645D02*
X011531Y008645D01*
X011494Y008743D02*
X011571Y008743D01*
X011069Y007760D02*
X011084Y007745D01*
X011048Y007731D01*
X011064Y007746D01*
X011069Y007760D01*
X011069Y007758D02*
X011071Y007758D01*
X011381Y010221D02*
X011605Y010221D01*
X011340Y010615D02*
X011270Y010615D01*
X011340Y010713D02*
X010993Y010713D01*
X010993Y010812D02*
X011340Y010812D01*
X011340Y010910D02*
X010975Y010910D01*
X010904Y011009D02*
X011340Y011009D01*
X011340Y011107D02*
X010904Y011107D01*
X010904Y011206D02*
X010930Y011206D01*
X011263Y011206D02*
X011340Y011206D01*
X011362Y011304D02*
X011436Y011304D01*
X011426Y011403D02*
X012618Y011403D01*
X012618Y011501D02*
X011426Y011501D01*
X011426Y011600D02*
X012618Y011600D01*
X012676Y011698D02*
X012268Y011698D01*
X012350Y011797D02*
X012495Y011797D01*
X012482Y011895D02*
X012350Y011895D01*
X012350Y011994D02*
X012482Y011994D01*
X012482Y012092D02*
X012350Y012092D01*
X012350Y012191D02*
X012897Y012191D01*
X012897Y012289D02*
X012997Y012289D01*
X012997Y012263D02*
X012997Y012717D01*
X013282Y012717D01*
X013320Y012707D01*
X013354Y012687D01*
X013382Y012659D01*
X013402Y012625D01*
X013412Y012587D01*
X013412Y012263D01*
X012997Y012263D01*
X012997Y012388D02*
X012897Y012388D01*
X012897Y012486D02*
X012997Y012486D01*
X012997Y012585D02*
X012897Y012585D01*
X012897Y012683D02*
X012997Y012683D01*
X012828Y012782D02*
X013535Y012782D01*
X013535Y012683D02*
X013358Y012683D01*
X013412Y012585D02*
X013535Y012585D01*
X013535Y012486D02*
X013412Y012486D01*
X013412Y012388D02*
X013484Y012388D01*
X013445Y012289D02*
X013412Y012289D01*
X013193Y012880D02*
X012919Y012880D01*
X013037Y012979D02*
X013094Y012979D01*
X012482Y012585D02*
X012350Y012585D01*
X012350Y012486D02*
X012482Y012486D01*
X012482Y012388D02*
X012350Y012388D01*
X012350Y012289D02*
X012482Y012289D01*
X012314Y012682D02*
X012314Y012682D01*
X011944Y013008D02*
X011872Y012958D01*
X011821Y013009D01*
X011825Y013008D01*
X011944Y013008D01*
X011902Y012979D02*
X011851Y012979D01*
X011097Y012134D02*
X011097Y011504D01*
X011337Y011797D02*
X011340Y011797D01*
X011337Y011895D02*
X011340Y011895D01*
X011337Y011994D02*
X011340Y011994D01*
X011368Y011698D02*
X011422Y011698D01*
X010664Y011859D02*
X010664Y010756D01*
X010424Y011501D02*
X010338Y011501D01*
X009785Y012191D02*
X009423Y012191D01*
X009544Y012289D02*
X009785Y012289D01*
X009785Y012388D02*
X009642Y012388D01*
X009741Y012486D02*
X009785Y012486D01*
X012254Y011304D02*
X012538Y011304D01*
X012443Y011206D02*
X012350Y011206D01*
X012350Y011107D02*
X012443Y011107D01*
X012443Y011009D02*
X012350Y011009D01*
X012350Y010910D02*
X012443Y010910D01*
X012443Y010812D02*
X012350Y010812D01*
X012350Y010713D02*
X012443Y010713D01*
X012443Y010615D02*
X012350Y010615D01*
X012350Y010516D02*
X012443Y010516D01*
X012443Y010418D02*
X012350Y010418D01*
X012326Y010319D02*
X012466Y010319D01*
X014015Y013076D02*
X014015Y013436D01*
X014170Y013282D01*
X014231Y013256D01*
X014170Y013231D01*
X014015Y013076D01*
X014015Y013077D02*
X014016Y013077D01*
X014015Y013176D02*
X014114Y013176D01*
X014188Y013274D02*
X014015Y013274D01*
X014015Y013373D02*
X014079Y013373D01*
X014016Y014077D02*
X014016Y014435D01*
X014170Y014282D01*
X014231Y014256D01*
X014170Y014231D01*
X014016Y014077D01*
X014016Y014161D02*
X014099Y014161D01*
X014016Y014259D02*
X014224Y014259D01*
X014094Y014358D02*
X014016Y014358D01*
X013219Y014358D02*
X013097Y014358D01*
X013097Y014456D02*
X013219Y014456D01*
X013219Y014555D02*
X013097Y014555D01*
X013075Y014653D02*
X013219Y014653D01*
X012531Y014752D02*
X012409Y014752D01*
X012358Y014850D02*
X012490Y014850D01*
X012490Y014949D02*
X012358Y014949D01*
X012358Y015047D02*
X012490Y015047D01*
X012490Y015146D02*
X012358Y015146D01*
X013055Y016820D02*
X013155Y016820D01*
X013155Y016919D02*
X013055Y016919D01*
X013055Y017017D02*
X013155Y017017D01*
X013155Y017116D02*
X013055Y017116D01*
X013656Y017595D02*
X013762Y017489D01*
X014050Y017489D01*
X014319Y017293D02*
X014328Y017302D01*
X014342Y017302D01*
X014319Y017293D01*
X014554Y017316D02*
X014573Y017324D01*
X014573Y017316D01*
X014554Y017316D01*
X014211Y016265D02*
X014231Y016256D01*
X014211Y016248D01*
X014211Y016265D01*
X009341Y017311D02*
X009266Y017237D01*
X009266Y016886D01*
X009052Y016635D02*
X008856Y016635D01*
X008856Y016835D01*
X008937Y016917D01*
X008937Y016750D01*
X009052Y016635D01*
X008966Y016722D02*
X008856Y016722D01*
X008856Y016820D02*
X008937Y016820D01*
X008617Y016933D02*
X009195Y017520D01*
X009195Y019075D01*
X008498Y019390D01*
X008498Y019772D01*
X008487Y019772D01*
X008987Y019516D02*
X009012Y019455D01*
X009074Y019393D01*
X008954Y019448D01*
X008961Y019455D01*
X008987Y019516D01*
X008971Y019480D02*
X009002Y019480D01*
X008113Y017882D02*
X007987Y017756D01*
X007987Y016150D01*
X006144Y016890D02*
X006014Y016737D01*
X007098Y018987D02*
X007622Y018987D01*
X007622Y019086D02*
X007186Y019086D01*
X007273Y019184D02*
X007622Y019184D01*
X008487Y007752D02*
X008526Y007752D01*
D27*
X009089Y008315D03*
X009404Y008040D03*
X009207Y008748D03*
X009640Y009772D03*
X009561Y010402D03*
X010073Y011071D03*
X010664Y010756D03*
X011058Y010363D03*
X011845Y009772D03*
X011372Y009378D03*
X010349Y008355D03*
X010467Y007489D03*
X011254Y008040D03*
X009876Y006386D03*
X009404Y007213D03*
X010034Y004772D03*
X008932Y004733D03*
X007081Y004733D03*
X006038Y004733D03*
X006058Y005166D03*
X005861Y007611D03*
X005861Y008276D03*
X005310Y008237D03*
X004247Y008552D03*
X004995Y009457D03*
X004719Y010363D03*
X005113Y010756D03*
X005743Y010914D03*
X005467Y011780D03*
X005113Y011780D03*
X004849Y011559D03*
X004286Y011189D03*
X003459Y011189D03*
X002554Y011229D03*
X002199Y011386D03*
X002160Y010363D03*
X003026Y009457D03*
X003184Y012489D03*
X004849Y013197D03*
X005113Y012961D03*
X005034Y013906D03*
X004561Y014851D03*
X004837Y015087D03*
X003656Y014851D03*
X003617Y016150D03*
X003184Y016583D03*
X002554Y016150D03*
X002550Y015107D03*
X004758Y016662D03*
X006144Y016890D03*
X006451Y017567D03*
X006967Y017158D03*
X007077Y018150D03*
X006845Y018473D03*
X007951Y019103D03*
X008959Y017882D03*
X009636Y017996D03*
X009798Y017607D03*
X009640Y016819D03*
X009837Y016386D03*
X009266Y016886D03*
X009601Y015441D03*
X009601Y014811D03*
X009601Y013591D03*
X009522Y013079D03*
X009207Y012804D03*
X008420Y012646D03*
X007829Y012252D03*
X007317Y012292D03*
X007554Y013079D03*
X007317Y013670D03*
X006609Y014260D03*
X006372Y013591D03*
X006333Y012646D03*
X006569Y010914D03*
X007869Y010402D03*
X007987Y010993D03*
X008774Y010796D03*
X010113Y011741D03*
X010664Y011859D03*
X011097Y011504D03*
X010900Y013040D03*
X011215Y013276D03*
X012947Y011504D03*
X013774Y012213D03*
X013105Y012804D03*
X013380Y013158D03*
X013341Y016150D03*
X013707Y016209D03*
X013794Y017067D03*
X014050Y017489D03*
X012475Y016150D03*
X012121Y016260D03*
X011506Y016197D03*
X011136Y016197D03*
X011294Y017331D03*
X011215Y018512D03*
X010983Y019300D03*
X012002Y018985D03*
X009798Y018473D03*
X007317Y015481D03*
X007829Y014811D03*
X008380Y014378D03*
X008538Y013827D03*
X006924Y009221D03*
X006648Y007646D03*
X012947Y009378D03*
X004758Y018433D03*
X002160Y018867D03*
M02*
