G75*
%MOIN*%
%OFA0B0*%
%FSLAX24Y24*%
%IPPOS*%
%LPD*%
%AMOC8*
5,1,8,0,0,1.08239X$1,22.5*
%
%ADD10C,0.0100*%
%ADD11C,0.0000*%
%ADD12C,0.0030*%
%ADD13C,0.0040*%
%ADD14C,0.0020*%
%ADD15C,0.0039*%
%ADD16C,0.0080*%
%ADD17C,0.0004*%
%ADD18R,0.0079X0.0079*%
%ADD19R,0.0059X0.0098*%
%ADD20C,0.0050*%
%ADD21R,0.0079X0.0079*%
%ADD22R,0.0098X0.0059*%
%ADD23R,0.0005X0.0005*%
%ADD24R,0.0005X0.0005*%
%ADD25R,0.0005X0.0005*%
%ADD26R,0.0005X0.0005*%
%ADD27R,0.0240X0.0005*%
%ADD28R,0.0312X0.0005*%
%ADD29R,0.0404X0.0005*%
%ADD30R,0.0005X0.0005*%
%ADD31R,0.0444X0.0005*%
%ADD32R,0.0506X0.0005*%
%ADD33R,0.0557X0.0005*%
%ADD34R,0.0608X0.0005*%
%ADD35R,0.0015X0.0005*%
%ADD36R,0.0015X0.0005*%
%ADD37R,0.0679X0.0005*%
%ADD38R,0.0710X0.0005*%
%ADD39R,0.0751X0.0005*%
%ADD40R,0.0771X0.0005*%
%ADD41R,0.0812X0.0005*%
%ADD42R,0.0833X0.0005*%
%ADD43R,0.0863X0.0005*%
%ADD44R,0.0015X0.0005*%
%ADD45R,0.0015X0.0005*%
%ADD46R,0.0914X0.0005*%
%ADD47R,0.0935X0.0005*%
%ADD48R,0.0005X0.0005*%
%ADD49R,0.0965X0.0005*%
%ADD50R,0.0986X0.0005*%
%ADD51R,0.1016X0.0005*%
%ADD52R,0.1037X0.0005*%
%ADD53R,0.1083X0.0005*%
%ADD54R,0.0010X0.0005*%
%ADD55R,0.1119X0.0005*%
%ADD56R,0.1129X0.0005*%
%ADD57R,0.1159X0.0005*%
%ADD58R,0.1170X0.0005*%
%ADD59R,0.1200X0.0005*%
%ADD60R,0.1211X0.0005*%
%ADD61R,0.1231X0.0005*%
%ADD62R,0.1272X0.0005*%
%ADD63R,0.1282X0.0005*%
%ADD64R,0.1303X0.0005*%
%ADD65R,0.1318X0.0005*%
%ADD66R,0.1333X0.0005*%
%ADD67R,0.1343X0.0005*%
%ADD68R,0.1364X0.0005*%
%ADD69R,0.1394X0.0005*%
%ADD70R,0.1405X0.0005*%
%ADD71R,0.1425X0.0005*%
%ADD72R,0.1435X0.0005*%
%ADD73R,0.1456X0.0005*%
%ADD74R,0.1466X0.0005*%
%ADD75R,0.1497X0.0005*%
%ADD76R,0.0015X0.0005*%
%ADD77R,0.0015X0.0005*%
%ADD78R,0.1522X0.0005*%
%ADD79R,0.1537X0.0005*%
%ADD80R,0.1553X0.0005*%
%ADD81R,0.1558X0.0005*%
%ADD82R,0.1578X0.0005*%
%ADD83R,0.1583X0.0005*%
%ADD84R,0.1599X0.0005*%
%ADD85R,0.1614X0.0005*%
%ADD86R,0.1629X0.0005*%
%ADD87R,0.1645X0.0005*%
%ADD88R,0.1650X0.0005*%
%ADD89R,0.1665X0.0005*%
%ADD90R,0.1675X0.0005*%
%ADD91R,0.1691X0.0005*%
%ADD92R,0.1711X0.0005*%
%ADD93R,0.1721X0.0005*%
%ADD94R,0.1732X0.0005*%
%ADD95R,0.1742X0.0005*%
%ADD96R,0.1757X0.0005*%
%ADD97R,0.1762X0.0005*%
%ADD98R,0.1793X0.0005*%
%ADD99R,0.1808X0.0005*%
%ADD100R,0.1813X0.0005*%
%ADD101R,0.1824X0.0005*%
%ADD102R,0.1834X0.0005*%
%ADD103R,0.1839X0.0005*%
%ADD104R,0.1844X0.0005*%
%ADD105R,0.1859X0.0005*%
%ADD106R,0.1875X0.0005*%
%ADD107R,0.1885X0.0005*%
%ADD108R,0.1895X0.0005*%
%ADD109R,0.1900X0.0005*%
%ADD110R,0.1910X0.0005*%
%ADD111R,0.1921X0.0005*%
%ADD112R,0.1931X0.0005*%
%ADD113R,0.1951X0.0005*%
%ADD114R,0.1956X0.0005*%
%ADD115R,0.1967X0.0005*%
%ADD116R,0.1972X0.0005*%
%ADD117R,0.1982X0.0005*%
%ADD118R,0.1992X0.0005*%
%ADD119R,0.1895X0.0005*%
%ADD120R,0.0107X0.0005*%
%ADD121R,0.0010X0.0005*%
%ADD122R,0.0107X0.0005*%
%ADD123R,0.1793X0.0005*%
%ADD124R,0.0102X0.0005*%
%ADD125R,0.0107X0.0005*%
%ADD126R,0.1788X0.0005*%
%ADD127R,0.0097X0.0005*%
%ADD128R,0.0107X0.0005*%
%ADD129R,0.0102X0.0005*%
%ADD130R,0.1798X0.0005*%
%ADD131R,0.1803X0.0005*%
%ADD132R,0.0112X0.0005*%
%ADD133R,0.0010X0.0005*%
%ADD134R,0.0102X0.0005*%
%ADD135R,0.0097X0.0005*%
%ADD136R,0.1803X0.0005*%
%ADD137R,0.0102X0.0005*%
%ADD138R,0.1808X0.0005*%
%ADD139R,0.0097X0.0005*%
%ADD140R,0.1803X0.0005*%
%ADD141R,0.0097X0.0005*%
%ADD142R,0.0097X0.0005*%
%ADD143R,0.1813X0.0005*%
%ADD144R,0.0092X0.0005*%
%ADD145R,0.0526X0.0005*%
%ADD146R,0.0587X0.0005*%
%ADD147R,0.0501X0.0005*%
%ADD148R,0.0547X0.0005*%
%ADD149R,0.0628X0.0005*%
%ADD150R,0.0506X0.0005*%
%ADD151R,0.0097X0.0005*%
%ADD152R,0.0516X0.0005*%
%ADD153R,0.0567X0.0005*%
%ADD154R,0.0470X0.0005*%
%ADD155R,0.0521X0.0005*%
%ADD156R,0.0567X0.0005*%
%ADD157R,0.0485X0.0005*%
%ADD158R,0.0501X0.0005*%
%ADD159R,0.0547X0.0005*%
%ADD160R,0.0465X0.0005*%
%ADD161R,0.0092X0.0005*%
%ADD162R,0.0485X0.0005*%
%ADD163R,0.0455X0.0005*%
%ADD164R,0.0092X0.0005*%
%ADD165R,0.0495X0.0005*%
%ADD166R,0.0455X0.0005*%
%ADD167R,0.0087X0.0005*%
%ADD168R,0.0485X0.0005*%
%ADD169R,0.0434X0.0005*%
%ADD170R,0.0092X0.0005*%
%ADD171R,0.0475X0.0005*%
%ADD172R,0.0506X0.0005*%
%ADD173R,0.0444X0.0005*%
%ADD174R,0.0087X0.0005*%
%ADD175R,0.0465X0.0005*%
%ADD176R,0.0485X0.0005*%
%ADD177R,0.0429X0.0005*%
%ADD178R,0.0092X0.0005*%
%ADD179R,0.0465X0.0005*%
%ADD180R,0.0424X0.0005*%
%ADD181R,0.0087X0.0005*%
%ADD182R,0.0414X0.0005*%
%ADD183R,0.0092X0.0005*%
%ADD184R,0.0414X0.0005*%
%ADD185R,0.0449X0.0005*%
%ADD186R,0.0409X0.0005*%
%ADD187R,0.0087X0.0005*%
%ADD188R,0.0449X0.0005*%
%ADD189R,0.0444X0.0005*%
%ADD190R,0.0414X0.0005*%
%ADD191R,0.0439X0.0005*%
%ADD192R,0.0404X0.0005*%
%ADD193R,0.0398X0.0005*%
%ADD194R,0.0439X0.0005*%
%ADD195R,0.0434X0.0005*%
%ADD196R,0.0444X0.0005*%
%ADD197R,0.0393X0.0005*%
%ADD198R,0.0429X0.0005*%
%ADD199R,0.0429X0.0005*%
%ADD200R,0.0393X0.0005*%
%ADD201R,0.0383X0.0005*%
%ADD202R,0.0424X0.0005*%
%ADD203R,0.0465X0.0005*%
%ADD204R,0.0383X0.0005*%
%ADD205R,0.0388X0.0005*%
%ADD206R,0.0087X0.0005*%
%ADD207R,0.0419X0.0005*%
%ADD208R,0.0383X0.0005*%
%ADD209R,0.0424X0.0005*%
%ADD210R,0.0383X0.0005*%
%ADD211R,0.0010X0.0005*%
%ADD212R,0.0082X0.0005*%
%ADD213R,0.0424X0.0005*%
%ADD214R,0.0495X0.0005*%
%ADD215R,0.0388X0.0005*%
%ADD216R,0.0087X0.0005*%
%ADD217R,0.0082X0.0005*%
%ADD218R,0.0526X0.0005*%
%ADD219R,0.0404X0.0005*%
%ADD220R,0.0434X0.0005*%
%ADD221R,0.0536X0.0005*%
%ADD222R,0.0404X0.0005*%
%ADD223R,0.0567X0.0005*%
%ADD224R,0.0404X0.0005*%
%ADD225R,0.0419X0.0005*%
%ADD226R,0.0628X0.0005*%
%ADD227R,0.0429X0.0005*%
%ADD228R,0.1640X0.0005*%
%ADD229R,0.1624X0.0005*%
%ADD230R,0.1609X0.0005*%
%ADD231R,0.1599X0.0005*%
%ADD232R,0.1583X0.0005*%
%ADD233R,0.0082X0.0005*%
%ADD234R,0.1578X0.0005*%
%ADD235R,0.1563X0.0005*%
%ADD236R,0.1543X0.0005*%
%ADD237R,0.1548X0.0005*%
%ADD238R,0.1517X0.0005*%
%ADD239R,0.1507X0.0005*%
%ADD240R,0.1497X0.0005*%
%ADD241R,0.0077X0.0005*%
%ADD242R,0.1481X0.0005*%
%ADD243R,0.1476X0.0005*%
%ADD244R,0.0082X0.0005*%
%ADD245R,0.1461X0.0005*%
%ADD246R,0.0010X0.0005*%
%ADD247R,0.1430X0.0005*%
%ADD248R,0.1415X0.0005*%
%ADD249R,0.1405X0.0005*%
%ADD250R,0.1389X0.0005*%
%ADD251R,0.0082X0.0005*%
%ADD252R,0.1374X0.0005*%
%ADD253R,0.1359X0.0005*%
%ADD254R,0.1354X0.0005*%
%ADD255R,0.1354X0.0005*%
%ADD256R,0.1359X0.0005*%
%ADD257R,0.1364X0.0005*%
%ADD258R,0.1374X0.0005*%
%ADD259R,0.1379X0.0005*%
%ADD260R,0.1394X0.0005*%
%ADD261R,0.1384X0.0005*%
%ADD262R,0.1389X0.0005*%
%ADD263R,0.1405X0.0005*%
%ADD264R,0.1405X0.0005*%
%ADD265R,0.1415X0.0005*%
%ADD266R,0.1410X0.0005*%
%ADD267R,0.1425X0.0005*%
%ADD268R,0.1435X0.0005*%
%ADD269R,0.1440X0.0005*%
%ADD270R,0.1440X0.0005*%
%ADD271R,0.1446X0.0005*%
%ADD272R,0.0444X0.0005*%
%ADD273R,0.0439X0.0005*%
%ADD274R,0.0373X0.0005*%
%ADD275R,0.0261X0.0005*%
%ADD276R,0.0148X0.0005*%
%ADD277R,0.0439X0.0005*%
%ADD278R,0.0439X0.0005*%
%ADD279R,0.0444X0.0005*%
%ADD280R,0.0439X0.0005*%
%ADD281R,0.0450X0.0005*%
%ADD282R,0.0455X0.0005*%
%ADD283R,0.0077X0.0005*%
%ADD284R,0.0450X0.0005*%
%ADD285R,0.0077X0.0005*%
%ADD286R,0.0449X0.0005*%
%ADD287R,0.0434X0.0005*%
%ADD288R,0.0429X0.0005*%
%ADD289R,0.0424X0.0005*%
%ADD290R,0.0434X0.0005*%
%ADD291R,0.0424X0.0005*%
%ADD292R,0.0419X0.0005*%
%ADD293R,0.0419X0.0005*%
%ADD294R,0.0414X0.0005*%
%ADD295R,0.0414X0.0005*%
%ADD296R,0.0409X0.0005*%
%ADD297R,0.0409X0.0005*%
%ADD298R,0.0082X0.0005*%
%ADD299R,0.0010X0.0005*%
%ADD300R,0.0398X0.0005*%
%ADD301R,0.0393X0.0005*%
%ADD302R,0.0404X0.0005*%
%ADD303R,0.0077X0.0005*%
%ADD304R,0.0398X0.0005*%
%ADD305R,0.0388X0.0005*%
%ADD306R,0.0388X0.0005*%
%ADD307R,0.0388X0.0005*%
%ADD308R,0.0383X0.0005*%
%ADD309R,0.0378X0.0005*%
%ADD310R,0.0378X0.0005*%
%ADD311R,0.0373X0.0005*%
%ADD312R,0.0363X0.0005*%
%ADD313R,0.0373X0.0005*%
%ADD314R,0.0363X0.0005*%
%ADD315R,0.0368X0.0005*%
%ADD316R,0.0363X0.0005*%
%ADD317R,0.0358X0.0005*%
%ADD318R,0.0358X0.0005*%
%ADD319R,0.0352X0.0005*%
%ADD320R,0.0358X0.0005*%
%ADD321R,0.0352X0.0005*%
%ADD322R,0.0363X0.0005*%
%ADD323R,0.0347X0.0005*%
%ADD324R,0.0347X0.0005*%
%ADD325R,0.0342X0.0005*%
%ADD326R,0.0347X0.0005*%
%ADD327R,0.0337X0.0005*%
%ADD328R,0.0337X0.0005*%
%ADD329R,0.0337X0.0005*%
%ADD330R,0.0342X0.0005*%
%ADD331R,0.0332X0.0005*%
%ADD332R,0.0327X0.0005*%
%ADD333R,0.0332X0.0005*%
%ADD334R,0.0322X0.0005*%
%ADD335R,0.0322X0.0005*%
%ADD336R,0.0322X0.0005*%
%ADD337R,0.0317X0.0005*%
%ADD338R,0.0306X0.0005*%
%ADD339R,0.0312X0.0005*%
%ADD340R,0.0301X0.0005*%
%ADD341R,0.0306X0.0005*%
%ADD342R,0.0301X0.0005*%
%ADD343R,0.0301X0.0005*%
%ADD344R,0.0291X0.0005*%
%ADD345R,0.0306X0.0005*%
%ADD346R,0.0301X0.0005*%
%ADD347R,0.0296X0.0005*%
%ADD348R,0.0291X0.0005*%
%ADD349R,0.0291X0.0005*%
%ADD350R,0.0286X0.0005*%
%ADD351R,0.0296X0.0005*%
%ADD352R,0.0291X0.0005*%
%ADD353R,0.0281X0.0005*%
%ADD354R,0.0281X0.0005*%
%ADD355R,0.0276X0.0005*%
%ADD356R,0.0276X0.0005*%
%ADD357R,0.0271X0.0005*%
%ADD358R,0.0261X0.0005*%
%ADD359R,0.0271X0.0005*%
%ADD360R,0.0266X0.0005*%
%ADD361R,0.0260X0.0005*%
%ADD362R,0.0245X0.0005*%
%ADD363R,0.0250X0.0005*%
%ADD364R,0.0250X0.0005*%
%ADD365R,0.0240X0.0005*%
%ADD366R,0.0240X0.0005*%
%ADD367R,0.0225X0.0005*%
%ADD368R,0.0235X0.0005*%
%ADD369R,0.0220X0.0005*%
%ADD370R,0.0230X0.0005*%
%ADD371R,0.0220X0.0005*%
%ADD372R,0.0225X0.0005*%
%ADD373R,0.0215X0.0005*%
%ADD374R,0.0220X0.0005*%
%ADD375R,0.0209X0.0005*%
%ADD376R,0.0209X0.0005*%
%ADD377R,0.0199X0.0005*%
%ADD378R,0.0209X0.0005*%
%ADD379R,0.0199X0.0005*%
%ADD380R,0.0184X0.0005*%
%ADD381R,0.0194X0.0005*%
%ADD382R,0.0179X0.0005*%
%ADD383R,0.0189X0.0005*%
%ADD384R,0.0174X0.0005*%
%ADD385R,0.0102X0.0005*%
%ADD386R,0.0158X0.0005*%
%ADD387R,0.0179X0.0005*%
%ADD388R,0.0163X0.0005*%
%ADD389R,0.0169X0.0005*%
%ADD390R,0.0148X0.0005*%
%ADD391R,0.0107X0.0005*%
%ADD392R,0.0169X0.0005*%
%ADD393R,0.0148X0.0005*%
%ADD394R,0.0128X0.0005*%
%ADD395R,0.0143X0.0005*%
%ADD396R,0.0128X0.0005*%
%ADD397R,0.0138X0.0005*%
%ADD398R,0.0117X0.0005*%
%ADD399R,0.0117X0.0005*%
%ADD400R,0.0077X0.0005*%
%ADD401R,0.0056X0.0005*%
%ADD402R,0.0107X0.0005*%
%ADD403R,0.0036X0.0005*%
%ADD404R,0.0046X0.0005*%
%ADD405R,0.0112X0.0005*%
%ADD406R,0.0112X0.0005*%
%ADD407R,0.0112X0.0005*%
%ADD408R,0.0118X0.0005*%
%ADD409R,0.0128X0.0005*%
%ADD410R,0.0117X0.0005*%
%ADD411R,0.0123X0.0005*%
%ADD412R,0.0123X0.0005*%
%ADD413R,0.0128X0.0005*%
%ADD414R,0.0123X0.0005*%
%ADD415R,0.0123X0.0005*%
%ADD416R,0.0128X0.0005*%
%ADD417R,0.0133X0.0005*%
%ADD418R,0.0133X0.0005*%
%ADD419R,0.0133X0.0005*%
%ADD420R,0.0138X0.0005*%
%ADD421R,0.0133X0.0005*%
%ADD422R,0.0138X0.0005*%
%ADD423R,0.0148X0.0005*%
%ADD424R,0.0153X0.0005*%
%ADD425R,0.0158X0.0005*%
%ADD426R,0.0158X0.0005*%
%ADD427R,0.0169X0.0005*%
%ADD428R,0.0169X0.0005*%
%ADD429R,0.0174X0.0005*%
%ADD430R,0.0189X0.0005*%
%ADD431R,0.0184X0.0005*%
%ADD432R,0.0189X0.0005*%
%ADD433R,0.0199X0.0005*%
%ADD434R,0.0209X0.0005*%
%ADD435R,0.0220X0.0005*%
%ADD436R,0.0230X0.0005*%
%ADD437R,0.0230X0.0005*%
%ADD438R,0.0261X0.0005*%
%ADD439R,0.0271X0.0005*%
%ADD440R,0.0894X0.0005*%
%ADD441R,0.0843X0.0005*%
%ADD442R,0.0781X0.0005*%
%ADD443R,0.0720X0.0005*%
%ADD444R,0.0669X0.0005*%
%ADD445R,0.0639X0.0005*%
%ADD446R,0.0598X0.0005*%
%ADD447R,0.0567X0.0005*%
D10*
X004837Y005166D02*
X005601Y004402D01*
X005601Y000150D01*
X010372Y000150D01*
X010372Y004402D01*
X011136Y005166D01*
X011136Y007229D01*
X015073Y008748D01*
X015073Y020363D01*
X000900Y020363D01*
X000900Y008748D01*
X004837Y007229D01*
X004837Y005166D01*
X006301Y012292D02*
X006303Y012312D01*
X006308Y012332D01*
X006318Y012350D01*
X006330Y012367D01*
X006345Y012381D01*
X006363Y012391D01*
X006382Y012399D01*
X006402Y012403D01*
X006422Y012403D01*
X006442Y012399D01*
X006461Y012391D01*
X006479Y012381D01*
X006494Y012367D01*
X006506Y012350D01*
X006516Y012332D01*
X006521Y012312D01*
X006523Y012292D01*
X006521Y012272D01*
X006516Y012252D01*
X006506Y012234D01*
X006494Y012217D01*
X006479Y012203D01*
X006461Y012193D01*
X006442Y012185D01*
X006422Y012181D01*
X006402Y012181D01*
X006382Y012185D01*
X006363Y012193D01*
X006345Y012203D01*
X006330Y012217D01*
X006318Y012234D01*
X006308Y012252D01*
X006303Y012272D01*
X006301Y012292D01*
D11*
X001164Y009339D02*
X001166Y009378D01*
X001172Y009417D01*
X001182Y009455D01*
X001195Y009492D01*
X001212Y009527D01*
X001232Y009561D01*
X001256Y009592D01*
X001283Y009621D01*
X001312Y009647D01*
X001344Y009670D01*
X001378Y009690D01*
X001414Y009706D01*
X001451Y009718D01*
X001490Y009727D01*
X001529Y009732D01*
X001568Y009733D01*
X001607Y009730D01*
X001646Y009723D01*
X001683Y009712D01*
X001720Y009698D01*
X001755Y009680D01*
X001788Y009659D01*
X001819Y009634D01*
X001847Y009607D01*
X001872Y009577D01*
X001894Y009544D01*
X001913Y009510D01*
X001928Y009474D01*
X001940Y009436D01*
X001948Y009398D01*
X001952Y009359D01*
X001952Y009319D01*
X001948Y009280D01*
X001940Y009242D01*
X001928Y009204D01*
X001913Y009168D01*
X001894Y009134D01*
X001872Y009101D01*
X001847Y009071D01*
X001819Y009044D01*
X001788Y009019D01*
X001755Y008998D01*
X001720Y008980D01*
X001683Y008966D01*
X001646Y008955D01*
X001607Y008948D01*
X001568Y008945D01*
X001529Y008946D01*
X001490Y008951D01*
X001451Y008960D01*
X001414Y008972D01*
X001378Y008988D01*
X001344Y009008D01*
X001312Y009031D01*
X001283Y009057D01*
X001256Y009086D01*
X001232Y009117D01*
X001212Y009151D01*
X001195Y009186D01*
X001182Y009223D01*
X001172Y009261D01*
X001166Y009300D01*
X001164Y009339D01*
X013959Y018146D02*
X013961Y018185D01*
X013967Y018224D01*
X013977Y018262D01*
X013990Y018299D01*
X014007Y018334D01*
X014027Y018368D01*
X014051Y018399D01*
X014078Y018428D01*
X014107Y018454D01*
X014139Y018477D01*
X014173Y018497D01*
X014209Y018513D01*
X014246Y018525D01*
X014285Y018534D01*
X014324Y018539D01*
X014363Y018540D01*
X014402Y018537D01*
X014441Y018530D01*
X014478Y018519D01*
X014515Y018505D01*
X014550Y018487D01*
X014583Y018466D01*
X014614Y018441D01*
X014642Y018414D01*
X014667Y018384D01*
X014689Y018351D01*
X014708Y018317D01*
X014723Y018281D01*
X014735Y018243D01*
X014743Y018205D01*
X014747Y018166D01*
X014747Y018126D01*
X014743Y018087D01*
X014735Y018049D01*
X014723Y018011D01*
X014708Y017975D01*
X014689Y017941D01*
X014667Y017908D01*
X014642Y017878D01*
X014614Y017851D01*
X014583Y017826D01*
X014550Y017805D01*
X014515Y017787D01*
X014478Y017773D01*
X014441Y017762D01*
X014402Y017755D01*
X014363Y017752D01*
X014324Y017753D01*
X014285Y017758D01*
X014246Y017767D01*
X014209Y017779D01*
X014173Y017795D01*
X014139Y017815D01*
X014107Y017838D01*
X014078Y017864D01*
X014051Y017893D01*
X014027Y017924D01*
X014007Y017958D01*
X013990Y017993D01*
X013977Y018030D01*
X013967Y018068D01*
X013961Y018107D01*
X013959Y018146D01*
D12*
X013370Y018639D02*
X013370Y018701D01*
X013616Y018948D01*
X013616Y019009D01*
X013370Y019009D01*
X012593Y018948D02*
X012593Y018886D01*
X012531Y018824D01*
X012408Y018824D01*
X012346Y018886D01*
X012346Y018948D01*
X012408Y019009D01*
X012531Y019009D01*
X012593Y018948D01*
X012531Y018824D02*
X012593Y018762D01*
X012593Y018701D01*
X012531Y018639D01*
X012408Y018639D01*
X012346Y018701D01*
X012346Y018762D01*
X012408Y018824D01*
X011569Y018824D02*
X011384Y018824D01*
X011322Y018886D01*
X011322Y018948D01*
X011384Y019009D01*
X011507Y019009D01*
X011569Y018948D01*
X011569Y018701D01*
X011507Y018639D01*
X011384Y018639D01*
X011322Y018701D01*
X010742Y018701D02*
X010681Y018639D01*
X010557Y018639D01*
X010496Y018701D01*
X010742Y018948D01*
X010742Y018701D01*
X010496Y018701D02*
X010496Y018948D01*
X010557Y019009D01*
X010681Y019009D01*
X010742Y018948D01*
X010374Y018639D02*
X010127Y018639D01*
X010251Y018639D02*
X010251Y019009D01*
X010127Y018886D01*
X009758Y018639D02*
X009511Y018639D01*
X009390Y018639D02*
X009143Y018639D01*
X009266Y018639D02*
X009266Y019009D01*
X009143Y018886D01*
X009511Y018886D02*
X009635Y019009D01*
X009635Y018639D01*
X008774Y018639D02*
X008527Y018639D01*
X008774Y018886D01*
X008774Y018948D01*
X008712Y019009D01*
X008589Y019009D01*
X008527Y018948D01*
X008282Y019009D02*
X008282Y018639D01*
X008159Y018639D02*
X008406Y018639D01*
X008159Y018886D02*
X008282Y019009D01*
X007711Y018948D02*
X007711Y018886D01*
X007649Y018824D01*
X007711Y018762D01*
X007711Y018701D01*
X007649Y018639D01*
X007526Y018639D01*
X007464Y018701D01*
X007343Y018639D02*
X007096Y018639D01*
X007219Y018639D02*
X007219Y019009D01*
X007096Y018886D01*
X006826Y019049D02*
X006632Y019049D01*
X006729Y019049D02*
X006729Y018758D01*
X006531Y018807D02*
X006483Y018758D01*
X006386Y018758D01*
X006338Y018807D01*
X006386Y018904D02*
X006338Y018952D01*
X006338Y019000D01*
X006386Y019049D01*
X006483Y019049D01*
X006531Y019000D01*
X006483Y018904D02*
X006531Y018855D01*
X006531Y018807D01*
X006483Y018904D02*
X006386Y018904D01*
X006236Y018904D02*
X006236Y019000D01*
X006188Y019049D01*
X006043Y019049D01*
X006043Y018758D01*
X006043Y018855D02*
X006188Y018855D01*
X006236Y018904D01*
X006140Y018855D02*
X006236Y018758D01*
X005841Y018855D02*
X005841Y019049D01*
X005648Y019049D02*
X005648Y018855D01*
X005745Y018758D01*
X005841Y018855D01*
X005547Y018855D02*
X005547Y018807D01*
X005498Y018758D01*
X005402Y018758D01*
X005353Y018807D01*
X005254Y018807D02*
X005254Y018758D01*
X005206Y018758D01*
X005206Y018807D01*
X005254Y018807D01*
X005105Y018807D02*
X005056Y018758D01*
X004960Y018758D01*
X004911Y018807D01*
X005008Y018904D02*
X005056Y018904D01*
X005105Y018855D01*
X005105Y018807D01*
X005056Y018904D02*
X005105Y018952D01*
X005105Y019000D01*
X005056Y019049D01*
X004960Y019049D01*
X004911Y019000D01*
X004660Y019049D02*
X004660Y018855D01*
X004564Y018758D01*
X004467Y018855D01*
X004467Y019049D01*
X004366Y019049D02*
X004172Y019049D01*
X004172Y018904D01*
X004269Y018952D01*
X004317Y018952D01*
X004366Y018904D01*
X004366Y018807D01*
X004317Y018758D01*
X004221Y018758D01*
X004172Y018807D01*
X003420Y018740D02*
X003358Y018678D01*
X003173Y018678D01*
X003173Y019049D01*
X003358Y019049D01*
X003420Y018987D01*
X003420Y018740D01*
X003051Y018678D02*
X003051Y019049D01*
X002804Y019049D02*
X003051Y018678D01*
X002804Y018678D02*
X002804Y019049D01*
X002683Y018987D02*
X002621Y019049D01*
X002498Y019049D01*
X002436Y018987D01*
X002436Y018740D01*
X002498Y018678D01*
X002621Y018678D01*
X002683Y018740D01*
X002683Y018864D01*
X002560Y018864D01*
X002554Y016890D02*
X002554Y016519D01*
X002615Y016519D02*
X002492Y016519D01*
X002371Y016643D02*
X002371Y016890D01*
X002492Y016890D02*
X002615Y016890D01*
X002738Y016890D02*
X002984Y016519D01*
X002984Y016890D01*
X002738Y016890D02*
X002738Y016519D01*
X002371Y016643D02*
X002247Y016519D01*
X002124Y016643D01*
X002124Y016890D01*
X002247Y015957D02*
X002371Y015833D01*
X002371Y015586D01*
X002492Y015648D02*
X002492Y015895D01*
X002554Y015957D01*
X002677Y015957D01*
X002739Y015895D01*
X002492Y015648D01*
X002554Y015586D01*
X002677Y015586D01*
X002739Y015648D01*
X002739Y015895D01*
X002371Y015771D02*
X002124Y015771D01*
X002124Y015833D02*
X002247Y015957D01*
X002124Y015833D02*
X002124Y015586D01*
X002247Y014964D02*
X002371Y014841D01*
X002371Y014594D01*
X002492Y014594D02*
X002739Y014594D01*
X002615Y014594D02*
X002615Y014964D01*
X002492Y014841D01*
X002371Y014779D02*
X002124Y014779D01*
X002124Y014841D02*
X002247Y014964D01*
X002124Y014841D02*
X002124Y014594D01*
X002247Y013945D02*
X002124Y013821D01*
X002124Y013574D01*
X002124Y013760D02*
X002371Y013760D01*
X002371Y013821D02*
X002371Y013574D01*
X002492Y013574D02*
X002739Y013821D01*
X002739Y013883D01*
X002677Y013945D01*
X002554Y013945D01*
X002492Y013883D01*
X002371Y013821D02*
X002247Y013945D01*
X002492Y013574D02*
X002739Y013574D01*
X002677Y012917D02*
X002554Y012917D01*
X002492Y012855D01*
X002371Y012794D02*
X002371Y012547D01*
X002492Y012609D02*
X002554Y012547D01*
X002677Y012547D01*
X002739Y012609D01*
X002739Y012670D01*
X002677Y012732D01*
X002615Y012732D01*
X002677Y012732D02*
X002739Y012794D01*
X002739Y012855D01*
X002677Y012917D01*
X002371Y012794D02*
X002247Y012917D01*
X002124Y012794D01*
X002124Y012547D01*
X002124Y012732D02*
X002371Y012732D01*
X002235Y011968D02*
X002359Y011845D01*
X002359Y011598D01*
X002359Y011783D02*
X002112Y011783D01*
X002112Y011845D02*
X002235Y011968D01*
X002112Y011845D02*
X002112Y011598D01*
X002480Y011783D02*
X002727Y011783D01*
X002665Y011598D02*
X002665Y011968D01*
X002480Y011783D01*
X002492Y010976D02*
X002492Y010791D01*
X002615Y010853D01*
X002677Y010853D01*
X002739Y010791D01*
X002739Y010668D01*
X002677Y010606D01*
X002554Y010606D01*
X002492Y010668D01*
X002371Y010606D02*
X002371Y010853D01*
X002247Y010976D01*
X002124Y010853D01*
X002124Y010606D01*
X002124Y010791D02*
X002371Y010791D01*
X002492Y010976D02*
X002739Y010976D01*
X004084Y008139D02*
X004005Y008102D01*
X003921Y007871D01*
X003958Y007791D01*
X004074Y007749D01*
X004153Y007786D01*
X004237Y008018D01*
X004200Y008097D01*
X004084Y008139D01*
X004372Y008035D02*
X004246Y007687D01*
X004478Y007602D02*
X004372Y008035D01*
X004604Y007950D02*
X004478Y007602D01*
X006408Y007937D02*
X006408Y008060D01*
X006408Y007998D02*
X006779Y007998D01*
X006779Y007937D02*
X006779Y008060D01*
X006717Y008182D02*
X006779Y008244D01*
X006779Y008367D01*
X006717Y008429D01*
X006717Y008551D02*
X006779Y008612D01*
X006779Y008736D01*
X006717Y008797D01*
X006655Y008797D01*
X006594Y008736D01*
X006594Y008612D01*
X006532Y008551D01*
X006470Y008551D01*
X006408Y008612D01*
X006408Y008736D01*
X006470Y008797D01*
X006408Y008919D02*
X006408Y009104D01*
X006470Y009166D01*
X006594Y009166D01*
X006655Y009104D01*
X006655Y008919D01*
X006779Y008919D02*
X006408Y008919D01*
X006470Y008429D02*
X006408Y008367D01*
X006408Y008244D01*
X006470Y008182D01*
X006717Y008182D01*
X013237Y010450D02*
X013237Y010820D01*
X013423Y010820D01*
X013484Y010759D01*
X013484Y010635D01*
X013423Y010573D01*
X013237Y010573D01*
X013361Y010573D02*
X013484Y010450D01*
X013606Y010450D02*
X013853Y010820D01*
X013606Y010820D02*
X013853Y010450D01*
X014374Y010011D02*
X014567Y010011D01*
X014616Y010060D01*
X014422Y010060D02*
X014422Y009963D01*
X014471Y009862D02*
X014422Y009813D01*
X014422Y009717D01*
X014471Y009668D01*
X014567Y009668D01*
X014616Y009717D01*
X014616Y009813D01*
X014519Y009862D02*
X014519Y009668D01*
X014567Y009567D02*
X014519Y009519D01*
X014519Y009422D01*
X014471Y009374D01*
X014422Y009422D01*
X014422Y009567D01*
X014567Y009567D02*
X014616Y009519D01*
X014616Y009374D01*
X014519Y009272D02*
X014519Y009079D01*
X014567Y009079D02*
X014471Y009079D01*
X014422Y009127D01*
X014422Y009224D01*
X014471Y009272D01*
X014519Y009272D01*
X014616Y009224D02*
X014616Y009127D01*
X014567Y009079D01*
X014616Y008978D02*
X014519Y008881D01*
X014519Y008929D02*
X014519Y008784D01*
X014616Y008784D02*
X014325Y008784D01*
X014325Y008929D01*
X014374Y008978D01*
X014471Y008978D01*
X014519Y008929D01*
X014519Y009862D02*
X014471Y009862D01*
X013853Y011474D02*
X013606Y011844D01*
X013484Y011844D02*
X013237Y011844D01*
X013361Y011844D02*
X013361Y011474D01*
X013606Y011474D02*
X013853Y011844D01*
X007649Y018824D02*
X007587Y018824D01*
X007464Y018948D02*
X007526Y019009D01*
X007649Y019009D01*
X007711Y018948D01*
X005547Y018952D02*
X005498Y018904D01*
X005547Y018855D01*
X005498Y018904D02*
X005450Y018904D01*
X005547Y018952D02*
X005547Y019000D01*
X005498Y019049D01*
X005402Y019049D01*
X005353Y019000D01*
D13*
X007286Y018481D02*
X007363Y018558D01*
X007516Y018404D01*
X007593Y018481D01*
X010239Y018363D02*
X010316Y018439D01*
X010469Y018286D01*
X010546Y018363D01*
X013113Y016630D02*
X013190Y016707D01*
X013343Y016554D01*
X013420Y016630D01*
X013519Y016648D02*
X013749Y016648D01*
X013826Y016571D01*
X013826Y016495D01*
X013749Y016418D01*
X013595Y016418D01*
X013519Y016495D01*
X013519Y016648D01*
X013672Y016802D01*
X013826Y016878D01*
X013826Y015855D02*
X013519Y015855D01*
X013519Y015625D01*
X013672Y015701D01*
X013749Y015701D01*
X013826Y015625D01*
X013826Y015471D01*
X013749Y015394D01*
X013595Y015394D01*
X013519Y015471D01*
X013343Y015569D02*
X013420Y015646D01*
X013343Y015569D02*
X013190Y015723D01*
X013113Y015646D01*
X013749Y014871D02*
X013519Y014640D01*
X013826Y014640D01*
X013749Y014410D02*
X013749Y014871D01*
X013749Y013847D02*
X013826Y013770D01*
X013826Y013693D01*
X013749Y013617D01*
X013826Y013540D01*
X013826Y013463D01*
X013749Y013387D01*
X013595Y013387D01*
X013519Y013463D01*
X013343Y013562D02*
X013420Y013638D01*
X013343Y013562D02*
X013190Y013715D01*
X013113Y013638D01*
X013519Y013770D02*
X013595Y013847D01*
X013749Y013847D01*
X013749Y013617D02*
X013672Y013617D01*
X013595Y012902D02*
X013519Y012825D01*
X013595Y012902D02*
X013749Y012902D01*
X013826Y012825D01*
X013826Y012749D01*
X013519Y012442D01*
X013826Y012442D01*
D14*
X013720Y017290D02*
X013756Y017327D01*
X013756Y017400D01*
X013720Y017437D01*
X013683Y017437D01*
X013646Y017400D01*
X013646Y017327D01*
X013609Y017290D01*
X013573Y017290D01*
X013536Y017327D01*
X013536Y017400D01*
X013573Y017437D01*
X013573Y017511D02*
X013756Y017511D01*
X013756Y017658D02*
X013573Y017658D01*
X013536Y017621D01*
X013536Y017548D01*
X013573Y017511D01*
X013756Y017732D02*
X013756Y017879D01*
X013756Y017805D02*
X013536Y017805D01*
X013536Y017953D02*
X013683Y017953D01*
X013756Y018026D01*
X013683Y018100D01*
X013536Y018100D01*
X013646Y018100D02*
X013646Y017953D01*
X013756Y018174D02*
X013756Y018321D01*
X013756Y018247D02*
X013536Y018247D01*
X013573Y018395D02*
X013536Y018431D01*
X013536Y018505D01*
X013573Y018542D01*
X013646Y018505D02*
X013646Y018431D01*
X013609Y018395D01*
X013573Y018395D01*
X013646Y018505D02*
X013683Y018542D01*
X013720Y018542D01*
X013756Y018505D01*
X013756Y018431D01*
X013720Y018395D01*
X002335Y018450D02*
X002298Y018413D01*
X002335Y018450D02*
X002335Y018523D01*
X002298Y018560D01*
X002262Y018560D01*
X002225Y018523D01*
X002225Y018486D01*
X002225Y018523D02*
X002188Y018560D01*
X002151Y018560D01*
X002115Y018523D01*
X002115Y018450D01*
X002151Y018413D01*
X002115Y018265D02*
X002335Y018265D01*
X002335Y018192D02*
X002335Y018339D01*
X002188Y018192D02*
X002115Y018265D01*
X002335Y018118D02*
X002335Y017971D01*
X002115Y017971D01*
D15*
X008998Y018670D02*
X009117Y018552D01*
X010337Y018552D01*
X010416Y018473D01*
X010495Y018552D01*
X011558Y018552D01*
X011676Y018670D01*
X011676Y018709D01*
X008998Y018709D02*
X008998Y018670D01*
X011986Y008900D02*
X013466Y009438D01*
X013830Y008440D01*
X012350Y007901D01*
X011986Y008900D01*
X012613Y008670D02*
X012615Y008704D01*
X012621Y008738D01*
X012631Y008771D01*
X012644Y008802D01*
X012662Y008832D01*
X012682Y008860D01*
X012706Y008885D01*
X012732Y008907D01*
X012760Y008925D01*
X012791Y008941D01*
X012823Y008953D01*
X012857Y008961D01*
X012891Y008965D01*
X012925Y008965D01*
X012959Y008961D01*
X012993Y008953D01*
X013025Y008941D01*
X013055Y008925D01*
X013084Y008907D01*
X013110Y008885D01*
X013134Y008860D01*
X013154Y008832D01*
X013172Y008802D01*
X013185Y008771D01*
X013195Y008738D01*
X013201Y008704D01*
X013203Y008670D01*
X013201Y008636D01*
X013195Y008602D01*
X013185Y008569D01*
X013172Y008538D01*
X013154Y008508D01*
X013134Y008480D01*
X013110Y008455D01*
X013084Y008433D01*
X013056Y008415D01*
X013025Y008399D01*
X012993Y008387D01*
X012959Y008379D01*
X012925Y008375D01*
X012891Y008375D01*
X012857Y008379D01*
X012823Y008387D01*
X012791Y008399D01*
X012760Y008415D01*
X012732Y008433D01*
X012706Y008455D01*
X012682Y008480D01*
X012662Y008508D01*
X012644Y008538D01*
X012631Y008569D01*
X012621Y008602D01*
X012615Y008636D01*
X012613Y008670D01*
D16*
X014237Y010256D02*
X013987Y010506D01*
X013987Y011006D01*
X014237Y011256D01*
X013987Y011506D01*
X013987Y012006D01*
X014237Y012256D01*
X013987Y012506D01*
X013987Y013006D01*
X014237Y013256D01*
X013987Y013506D01*
X013987Y014006D01*
X014237Y014256D01*
X013987Y014506D01*
X013987Y015006D01*
X014237Y015256D01*
X013987Y015506D01*
X013987Y016006D01*
X014237Y016256D01*
X013987Y016506D01*
X013987Y017006D01*
X014237Y017256D01*
X014737Y017256D01*
X014987Y017006D01*
X014987Y016506D01*
X014737Y016256D01*
X014987Y016006D01*
X014987Y015506D01*
X014737Y015256D01*
X014987Y015006D01*
X014987Y014506D01*
X014737Y014256D01*
X014987Y014006D01*
X014987Y013506D01*
X014737Y013256D01*
X014987Y013006D01*
X014987Y012506D01*
X014737Y012256D01*
X014987Y012006D01*
X014987Y011506D01*
X014737Y011256D01*
X014987Y011006D01*
X014987Y010506D01*
X014737Y010256D01*
X014237Y010256D01*
X010649Y006636D02*
X010649Y006136D01*
X010049Y006136D02*
X010049Y006636D01*
X008987Y007502D02*
X008987Y008002D01*
X008737Y008252D01*
X007237Y008252D01*
X006987Y008002D01*
X006987Y007502D01*
X007237Y007252D01*
X008737Y007252D01*
X008987Y007502D01*
X008737Y008252D02*
X008987Y008502D01*
X008987Y009002D01*
X008737Y009252D01*
X007237Y009252D01*
X006987Y009002D01*
X006987Y008502D01*
X007237Y008252D01*
X007237Y009252D02*
X006987Y009502D01*
X006987Y010002D01*
X007237Y010252D01*
X008737Y010252D01*
X008987Y010002D01*
X008987Y009502D01*
X008737Y009252D01*
X006855Y009502D02*
X006855Y010002D01*
X006254Y011977D02*
X009719Y011977D01*
X009876Y012134D01*
X009876Y015599D01*
X009719Y015756D01*
X006254Y015756D01*
X006097Y015599D01*
X006097Y012134D01*
X006254Y011977D01*
X004385Y010262D02*
X004385Y009923D01*
X003930Y010412D02*
X003719Y010412D01*
X003265Y010262D02*
X003265Y009923D01*
X001987Y010506D02*
X001987Y011006D01*
X001737Y011256D01*
X001987Y011506D01*
X001987Y012006D01*
X001737Y012256D01*
X001987Y012506D01*
X001987Y013006D01*
X001737Y013256D01*
X001987Y013506D01*
X001987Y014006D01*
X001737Y014256D01*
X001987Y014506D01*
X001987Y015006D01*
X001737Y015256D01*
X001987Y015506D01*
X001987Y016006D01*
X001737Y016256D01*
X001987Y016506D01*
X001987Y017006D01*
X001737Y017256D01*
X001237Y017256D01*
X000987Y017006D01*
X000987Y016506D01*
X001237Y016256D01*
X000987Y016006D01*
X000987Y015506D01*
X001237Y015256D01*
X000987Y015006D01*
X000987Y014506D01*
X001237Y014256D01*
X000987Y014006D01*
X000987Y013506D01*
X001237Y013256D01*
X000987Y013006D01*
X000987Y012506D01*
X001237Y012256D01*
X000987Y012006D01*
X000987Y011506D01*
X001237Y011256D01*
X000987Y011006D01*
X000987Y010506D01*
X001237Y010256D01*
X001737Y010256D01*
X001987Y010506D01*
X005152Y007213D02*
X005152Y006780D01*
X005152Y007213D02*
X005310Y007370D01*
X005939Y007370D01*
X006097Y007213D01*
X006097Y006780D01*
X006097Y005993D02*
X006097Y005402D01*
X005152Y005402D01*
X005152Y005993D01*
X005237Y019272D02*
X005737Y019272D01*
X005987Y019522D01*
X006237Y019272D01*
X006737Y019272D01*
X006987Y019522D01*
X007237Y019272D01*
X007737Y019272D01*
X007987Y019522D01*
X008237Y019272D01*
X008737Y019272D01*
X008987Y019522D01*
X009237Y019272D01*
X009737Y019272D01*
X009987Y019522D01*
X010237Y019272D01*
X010737Y019272D01*
X010987Y019522D01*
X011237Y019272D01*
X011737Y019272D01*
X011987Y019522D01*
X012237Y019272D01*
X012737Y019272D01*
X012987Y019522D01*
X013237Y019272D01*
X013737Y019272D01*
X013987Y019522D01*
X013987Y020022D01*
X013737Y020272D01*
X013237Y020272D01*
X012987Y020022D01*
X012737Y020272D01*
X012237Y020272D01*
X011987Y020022D01*
X011737Y020272D01*
X011237Y020272D01*
X010987Y020022D01*
X010737Y020272D01*
X010237Y020272D01*
X009987Y020022D01*
X009737Y020272D01*
X009237Y020272D01*
X008987Y020022D01*
X008737Y020272D01*
X008237Y020272D01*
X007987Y020022D01*
X007737Y020272D01*
X007237Y020272D01*
X006987Y020022D01*
X006737Y020272D01*
X006237Y020272D01*
X005987Y020022D01*
X005737Y020272D01*
X005237Y020272D01*
X004987Y020022D01*
X004737Y020272D01*
X004237Y020272D01*
X003987Y020022D01*
X003737Y020272D01*
X003237Y020272D01*
X002987Y020022D01*
X002737Y020272D01*
X002237Y020272D01*
X001987Y020022D01*
X001987Y019522D01*
X002237Y019272D01*
X002737Y019272D01*
X002987Y019522D01*
X003237Y019272D01*
X003737Y019272D01*
X003987Y019522D01*
X004237Y019272D01*
X004737Y019272D01*
X004987Y019522D01*
X005237Y019272D01*
D17*
X003079Y017576D02*
X003055Y017602D01*
X003078Y017625D01*
X003098Y017651D01*
X003114Y017679D01*
X003127Y017709D01*
X003136Y017740D01*
X003142Y017772D01*
X003144Y017804D01*
X003142Y017836D01*
X003136Y017868D01*
X003127Y017899D01*
X003114Y017929D01*
X003098Y017957D01*
X003078Y017983D01*
X003055Y018006D01*
X003079Y018032D01*
X003080Y018033D01*
X003104Y018008D01*
X003125Y017981D01*
X003143Y017952D01*
X003157Y017921D01*
X003168Y017889D01*
X003176Y017855D01*
X003180Y017821D01*
X003180Y017787D01*
X003176Y017753D01*
X003168Y017719D01*
X003157Y017687D01*
X003143Y017656D01*
X003125Y017627D01*
X003104Y017600D01*
X003080Y017575D01*
X003078Y017577D01*
X003101Y017602D01*
X003122Y017629D01*
X003140Y017657D01*
X003154Y017688D01*
X003165Y017720D01*
X003173Y017753D01*
X003177Y017787D01*
X003177Y017821D01*
X003173Y017855D01*
X003165Y017888D01*
X003154Y017920D01*
X003140Y017951D01*
X003122Y017979D01*
X003101Y018006D01*
X003078Y018031D01*
X003076Y018028D01*
X003099Y018004D01*
X003120Y017978D01*
X003137Y017949D01*
X003152Y017919D01*
X003163Y017887D01*
X003170Y017854D01*
X003174Y017821D01*
X003174Y017787D01*
X003170Y017754D01*
X003163Y017721D01*
X003152Y017689D01*
X003137Y017659D01*
X003120Y017630D01*
X003099Y017604D01*
X003076Y017580D01*
X003074Y017582D01*
X003097Y017606D01*
X003117Y017632D01*
X003135Y017660D01*
X003149Y017690D01*
X003160Y017722D01*
X003167Y017754D01*
X003171Y017787D01*
X003171Y017821D01*
X003167Y017854D01*
X003160Y017886D01*
X003149Y017918D01*
X003135Y017948D01*
X003117Y017976D01*
X003097Y018002D01*
X003074Y018026D01*
X003072Y018024D01*
X003095Y018000D01*
X003115Y017974D01*
X003132Y017946D01*
X003146Y017916D01*
X003157Y017885D01*
X003164Y017853D01*
X003168Y017820D01*
X003168Y017788D01*
X003164Y017755D01*
X003157Y017723D01*
X003146Y017692D01*
X003132Y017662D01*
X003115Y017634D01*
X003095Y017608D01*
X003072Y017584D01*
X003070Y017586D01*
X003092Y017610D01*
X003112Y017635D01*
X003129Y017663D01*
X003143Y017693D01*
X003154Y017724D01*
X003161Y017755D01*
X003165Y017788D01*
X003165Y017820D01*
X003161Y017853D01*
X003154Y017884D01*
X003143Y017915D01*
X003129Y017945D01*
X003112Y017973D01*
X003092Y017998D01*
X003070Y018022D01*
X003068Y018019D01*
X003090Y017996D01*
X003110Y017971D01*
X003127Y017943D01*
X003140Y017914D01*
X003151Y017884D01*
X003158Y017852D01*
X003162Y017820D01*
X003162Y017788D01*
X003158Y017756D01*
X003151Y017724D01*
X003140Y017694D01*
X003127Y017665D01*
X003110Y017637D01*
X003090Y017612D01*
X003068Y017589D01*
X003066Y017591D01*
X003088Y017614D01*
X003107Y017639D01*
X003124Y017666D01*
X003138Y017695D01*
X003148Y017725D01*
X003155Y017756D01*
X003159Y017788D01*
X003159Y017820D01*
X003155Y017852D01*
X003148Y017883D01*
X003138Y017913D01*
X003124Y017942D01*
X003107Y017969D01*
X003088Y017994D01*
X003066Y018017D01*
X003064Y018015D01*
X003086Y017992D01*
X003105Y017967D01*
X003121Y017940D01*
X003135Y017912D01*
X003145Y017882D01*
X003152Y017851D01*
X003156Y017820D01*
X003156Y017788D01*
X003152Y017757D01*
X003145Y017726D01*
X003135Y017696D01*
X003121Y017668D01*
X003105Y017641D01*
X003086Y017616D01*
X003064Y017593D01*
X003062Y017595D01*
X003085Y017619D01*
X003105Y017646D01*
X003122Y017675D01*
X003135Y017706D01*
X003145Y017738D01*
X003151Y017771D01*
X003153Y017804D01*
X003151Y017837D01*
X003145Y017870D01*
X003135Y017902D01*
X003122Y017933D01*
X003105Y017962D01*
X003085Y017989D01*
X003062Y018013D01*
X003059Y018011D01*
X003082Y017987D01*
X003103Y017960D01*
X003119Y017932D01*
X003133Y017901D01*
X003142Y017870D01*
X003148Y017837D01*
X003150Y017804D01*
X003148Y017771D01*
X003142Y017738D01*
X003133Y017707D01*
X003119Y017676D01*
X003103Y017648D01*
X003082Y017621D01*
X003059Y017597D01*
X003057Y017600D01*
X003080Y017623D01*
X003100Y017649D01*
X003117Y017678D01*
X003130Y017708D01*
X003139Y017739D01*
X003145Y017771D01*
X003147Y017804D01*
X003145Y017837D01*
X003139Y017869D01*
X003130Y017900D01*
X003117Y017930D01*
X003100Y017959D01*
X003080Y017985D01*
X003057Y018008D01*
X002659Y018032D02*
X002683Y018006D01*
X002660Y017983D01*
X002640Y017957D01*
X002624Y017929D01*
X002611Y017899D01*
X002602Y017868D01*
X002596Y017836D01*
X002594Y017804D01*
X002596Y017772D01*
X002602Y017740D01*
X002611Y017709D01*
X002624Y017679D01*
X002640Y017651D01*
X002660Y017625D01*
X002683Y017602D01*
X002659Y017576D01*
X002658Y017575D01*
X002634Y017600D01*
X002613Y017627D01*
X002595Y017656D01*
X002581Y017687D01*
X002570Y017719D01*
X002562Y017753D01*
X002558Y017787D01*
X002558Y017821D01*
X002562Y017855D01*
X002570Y017889D01*
X002581Y017921D01*
X002595Y017952D01*
X002613Y017981D01*
X002634Y018008D01*
X002658Y018033D01*
X002660Y018031D01*
X002637Y018006D01*
X002616Y017979D01*
X002598Y017951D01*
X002584Y017920D01*
X002573Y017888D01*
X002565Y017855D01*
X002561Y017821D01*
X002561Y017787D01*
X002565Y017753D01*
X002573Y017720D01*
X002584Y017688D01*
X002598Y017657D01*
X002616Y017629D01*
X002637Y017602D01*
X002660Y017577D01*
X002662Y017580D01*
X002639Y017604D01*
X002618Y017630D01*
X002601Y017659D01*
X002586Y017689D01*
X002575Y017721D01*
X002568Y017754D01*
X002564Y017787D01*
X002564Y017821D01*
X002568Y017854D01*
X002575Y017887D01*
X002586Y017919D01*
X002601Y017949D01*
X002618Y017978D01*
X002639Y018004D01*
X002662Y018028D01*
X002664Y018026D01*
X002641Y018002D01*
X002621Y017976D01*
X002603Y017948D01*
X002589Y017918D01*
X002578Y017886D01*
X002571Y017854D01*
X002567Y017821D01*
X002567Y017787D01*
X002571Y017754D01*
X002578Y017722D01*
X002589Y017690D01*
X002603Y017660D01*
X002621Y017632D01*
X002641Y017606D01*
X002664Y017582D01*
X002666Y017584D01*
X002643Y017608D01*
X002623Y017634D01*
X002606Y017662D01*
X002592Y017692D01*
X002581Y017723D01*
X002574Y017755D01*
X002570Y017788D01*
X002570Y017820D01*
X002574Y017853D01*
X002581Y017885D01*
X002592Y017916D01*
X002606Y017946D01*
X002623Y017974D01*
X002643Y018000D01*
X002666Y018024D01*
X002668Y018022D01*
X002646Y017998D01*
X002626Y017973D01*
X002609Y017945D01*
X002595Y017915D01*
X002584Y017884D01*
X002577Y017853D01*
X002573Y017820D01*
X002573Y017788D01*
X002577Y017755D01*
X002584Y017724D01*
X002595Y017693D01*
X002609Y017663D01*
X002626Y017635D01*
X002646Y017610D01*
X002668Y017586D01*
X002670Y017589D01*
X002648Y017612D01*
X002628Y017637D01*
X002611Y017665D01*
X002598Y017694D01*
X002587Y017724D01*
X002580Y017756D01*
X002576Y017788D01*
X002576Y017820D01*
X002580Y017852D01*
X002587Y017884D01*
X002598Y017914D01*
X002611Y017943D01*
X002628Y017971D01*
X002648Y017996D01*
X002670Y018019D01*
X002672Y018017D01*
X002650Y017994D01*
X002631Y017969D01*
X002614Y017942D01*
X002600Y017913D01*
X002590Y017883D01*
X002583Y017852D01*
X002579Y017820D01*
X002579Y017788D01*
X002583Y017756D01*
X002590Y017725D01*
X002600Y017695D01*
X002614Y017666D01*
X002631Y017639D01*
X002650Y017614D01*
X002672Y017591D01*
X002674Y017593D01*
X002652Y017616D01*
X002633Y017641D01*
X002617Y017668D01*
X002603Y017696D01*
X002593Y017726D01*
X002586Y017757D01*
X002582Y017788D01*
X002582Y017820D01*
X002586Y017851D01*
X002593Y017882D01*
X002603Y017912D01*
X002617Y017940D01*
X002633Y017967D01*
X002652Y017992D01*
X002674Y018015D01*
X002676Y018013D01*
X002653Y017989D01*
X002633Y017962D01*
X002616Y017933D01*
X002603Y017902D01*
X002593Y017870D01*
X002587Y017837D01*
X002585Y017804D01*
X002587Y017771D01*
X002593Y017738D01*
X002603Y017706D01*
X002616Y017675D01*
X002633Y017646D01*
X002653Y017619D01*
X002676Y017595D01*
X002679Y017597D01*
X002656Y017621D01*
X002635Y017648D01*
X002619Y017676D01*
X002605Y017707D01*
X002596Y017738D01*
X002590Y017771D01*
X002588Y017804D01*
X002590Y017837D01*
X002596Y017870D01*
X002605Y017901D01*
X002619Y017932D01*
X002635Y017960D01*
X002656Y017987D01*
X002679Y018011D01*
X002681Y018008D01*
X002658Y017985D01*
X002638Y017959D01*
X002621Y017930D01*
X002608Y017900D01*
X002599Y017869D01*
X002593Y017837D01*
X002591Y017804D01*
X002593Y017771D01*
X002599Y017739D01*
X002608Y017708D01*
X002621Y017678D01*
X002638Y017649D01*
X002658Y017623D01*
X002681Y017600D01*
X002778Y008551D02*
X002812Y008564D01*
X002811Y008564D02*
X002826Y008535D01*
X002843Y008508D01*
X002864Y008483D01*
X002887Y008460D01*
X002913Y008441D01*
X002941Y008424D01*
X002971Y008412D01*
X003002Y008402D01*
X003034Y008397D01*
X003066Y008395D01*
X003099Y008397D01*
X003131Y008403D01*
X003162Y008413D01*
X003191Y008426D01*
X003207Y008394D01*
X003208Y008394D01*
X003177Y008380D01*
X003144Y008369D01*
X003111Y008362D01*
X003076Y008359D01*
X003042Y008360D01*
X003008Y008364D01*
X002975Y008372D01*
X002943Y008384D01*
X002912Y008399D01*
X002883Y008418D01*
X002856Y008439D01*
X002832Y008464D01*
X002811Y008490D01*
X002793Y008519D01*
X002778Y008550D01*
X002781Y008551D01*
X002796Y008521D01*
X002814Y008492D01*
X002835Y008466D01*
X002859Y008441D01*
X002885Y008420D01*
X002913Y008402D01*
X002944Y008387D01*
X002976Y008375D01*
X003009Y008367D01*
X003042Y008363D01*
X003076Y008362D01*
X003110Y008365D01*
X003143Y008372D01*
X003176Y008383D01*
X003207Y008396D01*
X003205Y008399D01*
X003174Y008385D01*
X003143Y008375D01*
X003110Y008368D01*
X003076Y008365D01*
X003043Y008366D01*
X003009Y008370D01*
X002977Y008378D01*
X002945Y008390D01*
X002915Y008404D01*
X002887Y008423D01*
X002861Y008444D01*
X002837Y008468D01*
X002816Y008494D01*
X002798Y008522D01*
X002784Y008553D01*
X002786Y008554D01*
X002801Y008524D01*
X002818Y008496D01*
X002839Y008470D01*
X002863Y008446D01*
X002888Y008425D01*
X002916Y008407D01*
X002946Y008392D01*
X002977Y008381D01*
X003010Y008373D01*
X003043Y008369D01*
X003076Y008368D01*
X003109Y008371D01*
X003142Y008378D01*
X003173Y008388D01*
X003204Y008402D01*
X003202Y008404D01*
X003172Y008391D01*
X003141Y008381D01*
X003109Y008374D01*
X003076Y008371D01*
X003043Y008372D01*
X003010Y008376D01*
X002978Y008384D01*
X002947Y008395D01*
X002918Y008410D01*
X002890Y008427D01*
X002865Y008448D01*
X002841Y008472D01*
X002821Y008497D01*
X002803Y008525D01*
X002789Y008555D01*
X002792Y008556D01*
X002806Y008527D01*
X002823Y008499D01*
X002844Y008473D01*
X002867Y008450D01*
X002892Y008430D01*
X002919Y008412D01*
X002949Y008398D01*
X002979Y008387D01*
X003011Y008379D01*
X003043Y008375D01*
X003076Y008374D01*
X003108Y008377D01*
X003140Y008384D01*
X003171Y008394D01*
X003201Y008407D01*
X003200Y008410D01*
X003170Y008397D01*
X003139Y008387D01*
X003108Y008380D01*
X003076Y008377D01*
X003043Y008378D01*
X003011Y008382D01*
X002980Y008390D01*
X002950Y008401D01*
X002921Y008415D01*
X002894Y008432D01*
X002869Y008453D01*
X002846Y008475D01*
X002826Y008501D01*
X002809Y008528D01*
X002795Y008557D01*
X002797Y008558D01*
X002811Y008529D01*
X002828Y008502D01*
X002848Y008477D01*
X002871Y008455D01*
X002895Y008435D01*
X002922Y008418D01*
X002951Y008403D01*
X002981Y008392D01*
X003012Y008385D01*
X003044Y008381D01*
X003076Y008380D01*
X003107Y008383D01*
X003139Y008390D01*
X003169Y008399D01*
X003198Y008412D01*
X003197Y008415D01*
X003168Y008402D01*
X003138Y008392D01*
X003107Y008386D01*
X003075Y008383D01*
X003044Y008384D01*
X003013Y008388D01*
X002982Y008395D01*
X002952Y008406D01*
X002924Y008420D01*
X002897Y008437D01*
X002873Y008457D01*
X002850Y008479D01*
X002831Y008504D01*
X002814Y008531D01*
X002800Y008559D01*
X002803Y008561D01*
X002818Y008530D01*
X002836Y008502D01*
X002857Y008476D01*
X002881Y008453D01*
X002908Y008433D01*
X002937Y008416D01*
X002968Y008403D01*
X003000Y008394D01*
X003033Y008388D01*
X003066Y008386D01*
X003100Y008388D01*
X003133Y008394D01*
X003165Y008404D01*
X003195Y008418D01*
X003194Y008420D01*
X003164Y008407D01*
X003132Y008397D01*
X003099Y008391D01*
X003066Y008389D01*
X003033Y008391D01*
X003001Y008396D01*
X002969Y008406D01*
X002938Y008419D01*
X002910Y008436D01*
X002883Y008456D01*
X002859Y008478D01*
X002838Y008504D01*
X002820Y008532D01*
X002806Y008562D01*
X002809Y008563D01*
X002823Y008533D01*
X002841Y008506D01*
X002862Y008481D01*
X002885Y008458D01*
X002911Y008438D01*
X002940Y008422D01*
X002970Y008409D01*
X003001Y008399D01*
X003034Y008394D01*
X003066Y008392D01*
X003099Y008394D01*
X003131Y008400D01*
X003163Y008410D01*
X003193Y008423D01*
X003352Y008789D02*
X003318Y008776D01*
X003319Y008776D02*
X003304Y008805D01*
X003287Y008832D01*
X003266Y008857D01*
X003243Y008880D01*
X003217Y008899D01*
X003189Y008916D01*
X003159Y008928D01*
X003128Y008938D01*
X003096Y008943D01*
X003064Y008945D01*
X003031Y008943D01*
X002999Y008937D01*
X002968Y008927D01*
X002939Y008914D01*
X002923Y008946D01*
X002922Y008946D01*
X002953Y008960D01*
X002986Y008971D01*
X003019Y008978D01*
X003054Y008981D01*
X003088Y008980D01*
X003122Y008976D01*
X003155Y008968D01*
X003187Y008956D01*
X003218Y008941D01*
X003247Y008922D01*
X003274Y008901D01*
X003298Y008876D01*
X003319Y008850D01*
X003337Y008821D01*
X003352Y008790D01*
X003349Y008789D01*
X003334Y008819D01*
X003316Y008848D01*
X003295Y008874D01*
X003271Y008899D01*
X003245Y008920D01*
X003217Y008938D01*
X003186Y008953D01*
X003154Y008965D01*
X003121Y008973D01*
X003088Y008977D01*
X003054Y008978D01*
X003020Y008975D01*
X002987Y008968D01*
X002954Y008957D01*
X002923Y008944D01*
X002925Y008941D01*
X002956Y008955D01*
X002987Y008965D01*
X003020Y008972D01*
X003054Y008975D01*
X003087Y008974D01*
X003121Y008970D01*
X003153Y008962D01*
X003185Y008950D01*
X003215Y008936D01*
X003243Y008917D01*
X003269Y008896D01*
X003293Y008872D01*
X003314Y008846D01*
X003332Y008818D01*
X003346Y008787D01*
X003344Y008786D01*
X003329Y008816D01*
X003312Y008844D01*
X003291Y008870D01*
X003267Y008894D01*
X003242Y008915D01*
X003214Y008933D01*
X003184Y008948D01*
X003153Y008959D01*
X003120Y008967D01*
X003087Y008971D01*
X003054Y008972D01*
X003021Y008969D01*
X002988Y008962D01*
X002957Y008952D01*
X002926Y008938D01*
X002928Y008936D01*
X002958Y008949D01*
X002989Y008959D01*
X003021Y008966D01*
X003054Y008969D01*
X003087Y008968D01*
X003120Y008964D01*
X003152Y008956D01*
X003183Y008945D01*
X003212Y008930D01*
X003240Y008913D01*
X003265Y008892D01*
X003289Y008868D01*
X003309Y008843D01*
X003327Y008815D01*
X003341Y008785D01*
X003338Y008784D01*
X003324Y008813D01*
X003307Y008841D01*
X003286Y008867D01*
X003263Y008890D01*
X003238Y008910D01*
X003211Y008928D01*
X003181Y008942D01*
X003151Y008953D01*
X003119Y008961D01*
X003087Y008965D01*
X003054Y008966D01*
X003022Y008963D01*
X002990Y008956D01*
X002959Y008946D01*
X002929Y008933D01*
X002930Y008930D01*
X002960Y008943D01*
X002991Y008953D01*
X003022Y008960D01*
X003054Y008963D01*
X003087Y008962D01*
X003119Y008958D01*
X003150Y008950D01*
X003180Y008939D01*
X003209Y008925D01*
X003236Y008908D01*
X003261Y008887D01*
X003284Y008865D01*
X003304Y008839D01*
X003321Y008812D01*
X003335Y008783D01*
X003333Y008782D01*
X003319Y008811D01*
X003302Y008838D01*
X003282Y008863D01*
X003259Y008885D01*
X003235Y008905D01*
X003208Y008922D01*
X003179Y008937D01*
X003149Y008948D01*
X003118Y008955D01*
X003086Y008959D01*
X003054Y008960D01*
X003023Y008957D01*
X002991Y008950D01*
X002961Y008941D01*
X002932Y008928D01*
X002933Y008925D01*
X002962Y008938D01*
X002992Y008948D01*
X003023Y008954D01*
X003055Y008957D01*
X003086Y008956D01*
X003117Y008952D01*
X003148Y008945D01*
X003178Y008934D01*
X003206Y008920D01*
X003233Y008903D01*
X003257Y008883D01*
X003280Y008861D01*
X003299Y008836D01*
X003316Y008809D01*
X003330Y008781D01*
X003327Y008779D01*
X003312Y008810D01*
X003294Y008838D01*
X003273Y008864D01*
X003249Y008887D01*
X003222Y008907D01*
X003193Y008924D01*
X003162Y008937D01*
X003130Y008946D01*
X003097Y008952D01*
X003064Y008954D01*
X003030Y008952D01*
X002997Y008946D01*
X002965Y008936D01*
X002935Y008922D01*
X002936Y008920D01*
X002966Y008933D01*
X002998Y008943D01*
X003031Y008949D01*
X003064Y008951D01*
X003097Y008949D01*
X003129Y008944D01*
X003161Y008934D01*
X003192Y008921D01*
X003220Y008904D01*
X003247Y008884D01*
X003271Y008862D01*
X003292Y008836D01*
X003310Y008808D01*
X003324Y008778D01*
X003321Y008777D01*
X003307Y008807D01*
X003289Y008834D01*
X003268Y008859D01*
X003245Y008882D01*
X003219Y008902D01*
X003190Y008918D01*
X003160Y008931D01*
X003129Y008941D01*
X003096Y008946D01*
X003064Y008948D01*
X003031Y008946D01*
X002999Y008940D01*
X002967Y008930D01*
X002937Y008917D01*
X012895Y018032D02*
X012919Y018006D01*
X012896Y017983D01*
X012876Y017957D01*
X012860Y017929D01*
X012847Y017899D01*
X012838Y017868D01*
X012832Y017836D01*
X012830Y017804D01*
X012832Y017772D01*
X012838Y017740D01*
X012847Y017709D01*
X012860Y017679D01*
X012876Y017651D01*
X012896Y017625D01*
X012919Y017602D01*
X012895Y017576D01*
X012894Y017575D01*
X012870Y017600D01*
X012849Y017627D01*
X012831Y017656D01*
X012817Y017687D01*
X012806Y017719D01*
X012798Y017753D01*
X012794Y017787D01*
X012794Y017821D01*
X012798Y017855D01*
X012806Y017889D01*
X012817Y017921D01*
X012831Y017952D01*
X012849Y017981D01*
X012870Y018008D01*
X012894Y018033D01*
X012896Y018031D01*
X012873Y018006D01*
X012852Y017979D01*
X012834Y017951D01*
X012820Y017920D01*
X012809Y017888D01*
X012801Y017855D01*
X012797Y017821D01*
X012797Y017787D01*
X012801Y017753D01*
X012809Y017720D01*
X012820Y017688D01*
X012834Y017657D01*
X012852Y017629D01*
X012873Y017602D01*
X012896Y017577D01*
X012898Y017580D01*
X012875Y017604D01*
X012854Y017630D01*
X012837Y017659D01*
X012822Y017689D01*
X012811Y017721D01*
X012804Y017754D01*
X012800Y017787D01*
X012800Y017821D01*
X012804Y017854D01*
X012811Y017887D01*
X012822Y017919D01*
X012837Y017949D01*
X012854Y017978D01*
X012875Y018004D01*
X012898Y018028D01*
X012900Y018026D01*
X012877Y018002D01*
X012857Y017976D01*
X012839Y017948D01*
X012825Y017918D01*
X012814Y017886D01*
X012807Y017854D01*
X012803Y017821D01*
X012803Y017787D01*
X012807Y017754D01*
X012814Y017722D01*
X012825Y017690D01*
X012839Y017660D01*
X012857Y017632D01*
X012877Y017606D01*
X012900Y017582D01*
X012902Y017584D01*
X012879Y017608D01*
X012859Y017634D01*
X012842Y017662D01*
X012828Y017692D01*
X012817Y017723D01*
X012810Y017755D01*
X012806Y017788D01*
X012806Y017820D01*
X012810Y017853D01*
X012817Y017885D01*
X012828Y017916D01*
X012842Y017946D01*
X012859Y017974D01*
X012879Y018000D01*
X012902Y018024D01*
X012904Y018022D01*
X012882Y017998D01*
X012862Y017973D01*
X012845Y017945D01*
X012831Y017915D01*
X012820Y017884D01*
X012813Y017853D01*
X012809Y017820D01*
X012809Y017788D01*
X012813Y017755D01*
X012820Y017724D01*
X012831Y017693D01*
X012845Y017663D01*
X012862Y017635D01*
X012882Y017610D01*
X012904Y017586D01*
X012906Y017589D01*
X012884Y017612D01*
X012864Y017637D01*
X012847Y017665D01*
X012834Y017694D01*
X012823Y017724D01*
X012816Y017756D01*
X012812Y017788D01*
X012812Y017820D01*
X012816Y017852D01*
X012823Y017884D01*
X012834Y017914D01*
X012847Y017943D01*
X012864Y017971D01*
X012884Y017996D01*
X012906Y018019D01*
X012908Y018017D01*
X012886Y017994D01*
X012867Y017969D01*
X012850Y017942D01*
X012836Y017913D01*
X012826Y017883D01*
X012819Y017852D01*
X012815Y017820D01*
X012815Y017788D01*
X012819Y017756D01*
X012826Y017725D01*
X012836Y017695D01*
X012850Y017666D01*
X012867Y017639D01*
X012886Y017614D01*
X012908Y017591D01*
X012910Y017593D01*
X012888Y017616D01*
X012869Y017641D01*
X012853Y017668D01*
X012839Y017696D01*
X012829Y017726D01*
X012822Y017757D01*
X012818Y017788D01*
X012818Y017820D01*
X012822Y017851D01*
X012829Y017882D01*
X012839Y017912D01*
X012853Y017940D01*
X012869Y017967D01*
X012888Y017992D01*
X012910Y018015D01*
X012912Y018013D01*
X012889Y017989D01*
X012869Y017962D01*
X012852Y017933D01*
X012839Y017902D01*
X012829Y017870D01*
X012823Y017837D01*
X012821Y017804D01*
X012823Y017771D01*
X012829Y017738D01*
X012839Y017706D01*
X012852Y017675D01*
X012869Y017646D01*
X012889Y017619D01*
X012912Y017595D01*
X012915Y017597D01*
X012892Y017621D01*
X012871Y017648D01*
X012855Y017676D01*
X012841Y017707D01*
X012832Y017738D01*
X012826Y017771D01*
X012824Y017804D01*
X012826Y017837D01*
X012832Y017870D01*
X012841Y017901D01*
X012855Y017932D01*
X012871Y017960D01*
X012892Y017987D01*
X012915Y018011D01*
X012917Y018008D01*
X012894Y017985D01*
X012874Y017959D01*
X012857Y017930D01*
X012844Y017900D01*
X012835Y017869D01*
X012829Y017837D01*
X012827Y017804D01*
X012829Y017771D01*
X012835Y017739D01*
X012844Y017708D01*
X012857Y017678D01*
X012874Y017649D01*
X012894Y017623D01*
X012917Y017600D01*
X013315Y017576D02*
X013291Y017602D01*
X013314Y017625D01*
X013334Y017651D01*
X013350Y017679D01*
X013363Y017709D01*
X013372Y017740D01*
X013378Y017772D01*
X013380Y017804D01*
X013378Y017836D01*
X013372Y017868D01*
X013363Y017899D01*
X013350Y017929D01*
X013334Y017957D01*
X013314Y017983D01*
X013291Y018006D01*
X013315Y018032D01*
X013316Y018033D01*
X013340Y018008D01*
X013361Y017981D01*
X013379Y017952D01*
X013393Y017921D01*
X013404Y017889D01*
X013412Y017855D01*
X013416Y017821D01*
X013416Y017787D01*
X013412Y017753D01*
X013404Y017719D01*
X013393Y017687D01*
X013379Y017656D01*
X013361Y017627D01*
X013340Y017600D01*
X013316Y017575D01*
X013314Y017577D01*
X013337Y017602D01*
X013358Y017629D01*
X013376Y017657D01*
X013390Y017688D01*
X013401Y017720D01*
X013409Y017753D01*
X013413Y017787D01*
X013413Y017821D01*
X013409Y017855D01*
X013401Y017888D01*
X013390Y017920D01*
X013376Y017951D01*
X013358Y017979D01*
X013337Y018006D01*
X013314Y018031D01*
X013312Y018028D01*
X013335Y018004D01*
X013356Y017978D01*
X013373Y017949D01*
X013388Y017919D01*
X013399Y017887D01*
X013406Y017854D01*
X013410Y017821D01*
X013410Y017787D01*
X013406Y017754D01*
X013399Y017721D01*
X013388Y017689D01*
X013373Y017659D01*
X013356Y017630D01*
X013335Y017604D01*
X013312Y017580D01*
X013310Y017582D01*
X013333Y017606D01*
X013353Y017632D01*
X013371Y017660D01*
X013385Y017690D01*
X013396Y017722D01*
X013403Y017754D01*
X013407Y017787D01*
X013407Y017821D01*
X013403Y017854D01*
X013396Y017886D01*
X013385Y017918D01*
X013371Y017948D01*
X013353Y017976D01*
X013333Y018002D01*
X013310Y018026D01*
X013308Y018024D01*
X013331Y018000D01*
X013351Y017974D01*
X013368Y017946D01*
X013382Y017916D01*
X013393Y017885D01*
X013400Y017853D01*
X013404Y017820D01*
X013404Y017788D01*
X013400Y017755D01*
X013393Y017723D01*
X013382Y017692D01*
X013368Y017662D01*
X013351Y017634D01*
X013331Y017608D01*
X013308Y017584D01*
X013306Y017586D01*
X013328Y017610D01*
X013348Y017635D01*
X013365Y017663D01*
X013379Y017693D01*
X013390Y017724D01*
X013397Y017755D01*
X013401Y017788D01*
X013401Y017820D01*
X013397Y017853D01*
X013390Y017884D01*
X013379Y017915D01*
X013365Y017945D01*
X013348Y017973D01*
X013328Y017998D01*
X013306Y018022D01*
X013304Y018019D01*
X013326Y017996D01*
X013346Y017971D01*
X013363Y017943D01*
X013376Y017914D01*
X013387Y017884D01*
X013394Y017852D01*
X013398Y017820D01*
X013398Y017788D01*
X013394Y017756D01*
X013387Y017724D01*
X013376Y017694D01*
X013363Y017665D01*
X013346Y017637D01*
X013326Y017612D01*
X013304Y017589D01*
X013302Y017591D01*
X013324Y017614D01*
X013343Y017639D01*
X013360Y017666D01*
X013374Y017695D01*
X013384Y017725D01*
X013391Y017756D01*
X013395Y017788D01*
X013395Y017820D01*
X013391Y017852D01*
X013384Y017883D01*
X013374Y017913D01*
X013360Y017942D01*
X013343Y017969D01*
X013324Y017994D01*
X013302Y018017D01*
X013300Y018015D01*
X013322Y017992D01*
X013341Y017967D01*
X013357Y017940D01*
X013371Y017912D01*
X013381Y017882D01*
X013388Y017851D01*
X013392Y017820D01*
X013392Y017788D01*
X013388Y017757D01*
X013381Y017726D01*
X013371Y017696D01*
X013357Y017668D01*
X013341Y017641D01*
X013322Y017616D01*
X013300Y017593D01*
X013298Y017595D01*
X013321Y017619D01*
X013341Y017646D01*
X013358Y017675D01*
X013371Y017706D01*
X013381Y017738D01*
X013387Y017771D01*
X013389Y017804D01*
X013387Y017837D01*
X013381Y017870D01*
X013371Y017902D01*
X013358Y017933D01*
X013341Y017962D01*
X013321Y017989D01*
X013298Y018013D01*
X013295Y018011D01*
X013318Y017987D01*
X013339Y017960D01*
X013355Y017932D01*
X013369Y017901D01*
X013378Y017870D01*
X013384Y017837D01*
X013386Y017804D01*
X013384Y017771D01*
X013378Y017738D01*
X013369Y017707D01*
X013355Y017676D01*
X013339Y017648D01*
X013318Y017621D01*
X013295Y017597D01*
X013293Y017600D01*
X013316Y017623D01*
X013336Y017649D01*
X013353Y017678D01*
X013366Y017708D01*
X013375Y017739D01*
X013381Y017771D01*
X013383Y017804D01*
X013381Y017837D01*
X013375Y017869D01*
X013366Y017900D01*
X013353Y017930D01*
X013336Y017959D01*
X013316Y017985D01*
X013293Y018008D01*
D18*
G36*
X003042Y008719D02*
X003114Y008693D01*
X003088Y008621D01*
X003016Y008647D01*
X003042Y008719D01*
G37*
D19*
G36*
X002939Y009008D02*
X002993Y008989D01*
X002959Y008898D01*
X002905Y008917D01*
X002939Y009008D01*
G37*
D20*
X005224Y006536D02*
X006024Y006536D01*
X011924Y013237D02*
X012869Y013237D01*
X012869Y014496D01*
X011924Y014496D01*
X011924Y013237D01*
X012002Y013440D02*
X012002Y014293D01*
X012004Y014313D01*
X012008Y014332D01*
X012016Y014350D01*
X012026Y014366D01*
X012039Y014381D01*
X012054Y014394D01*
X012070Y014404D01*
X012088Y014412D01*
X012107Y014416D01*
X012127Y014418D01*
X012665Y014418D01*
X012685Y014416D01*
X012704Y014412D01*
X012722Y014404D01*
X012738Y014394D01*
X012753Y014381D01*
X012766Y014366D01*
X012776Y014350D01*
X012784Y014332D01*
X012788Y014313D01*
X012790Y014293D01*
X012790Y013440D01*
X012788Y013420D01*
X012784Y013401D01*
X012776Y013383D01*
X012766Y013367D01*
X012753Y013352D01*
X012738Y013339D01*
X012722Y013329D01*
X012704Y013321D01*
X012685Y013317D01*
X012665Y013315D01*
X012127Y013315D01*
X012107Y013317D01*
X012088Y013321D01*
X012070Y013329D01*
X012054Y013339D01*
X012039Y013352D01*
X012026Y013367D01*
X012016Y013383D01*
X012008Y013401D01*
X012004Y013420D01*
X012002Y013440D01*
D21*
X013105Y017804D03*
X002869Y017804D03*
D22*
X002642Y017597D03*
X012878Y017597D03*
D23*
X009259Y017787D03*
X009161Y017721D03*
X009238Y017624D03*
X009141Y017568D03*
X009121Y017486D03*
X009182Y017394D03*
X008865Y017292D03*
X008845Y017333D03*
X008748Y017460D03*
X008727Y017746D03*
X008354Y018027D03*
X008451Y018278D03*
X008472Y018318D03*
X008513Y018400D03*
X008824Y018211D03*
X009080Y018293D03*
X009121Y018426D03*
X009161Y017976D03*
X008824Y018804D03*
X008630Y018834D03*
X008354Y018967D03*
X008395Y019049D03*
X008176Y019095D03*
X008119Y019018D03*
X007879Y019023D03*
X007844Y019018D03*
X007803Y019008D03*
X007782Y019008D03*
X007803Y019100D03*
X007685Y018993D03*
X007568Y018947D03*
X007466Y018906D03*
X007389Y018870D03*
X007409Y018972D03*
X007251Y018885D03*
X007016Y018671D03*
X006914Y018538D03*
X006975Y018467D03*
X006797Y018278D03*
X006776Y018237D03*
X006740Y018150D03*
X006720Y017619D03*
X006797Y017379D03*
X006934Y017108D03*
X007052Y017093D03*
X007231Y016801D03*
X007292Y016761D03*
X007665Y016602D03*
X007721Y016587D03*
X007920Y016561D03*
X007941Y016561D03*
X007961Y016561D03*
X007982Y016561D03*
X008155Y016572D03*
X008293Y016597D03*
X008314Y016597D03*
X008651Y016740D03*
X008666Y016766D03*
X008411Y017164D03*
X008472Y017256D03*
X008472Y017297D03*
X008411Y017379D03*
X008237Y017215D03*
X008293Y017169D03*
X007706Y017164D03*
X007685Y017154D03*
X007665Y017154D03*
X007644Y017154D03*
X007624Y017154D03*
X007604Y017164D03*
X007251Y017496D03*
X007292Y017619D03*
X007231Y017823D03*
X007685Y017787D03*
X007507Y018375D03*
D24*
X007517Y018354D03*
X007522Y018318D03*
X007481Y018400D03*
X007461Y018441D03*
X007440Y018482D03*
X007379Y018564D03*
X007297Y018645D03*
X007180Y018579D03*
X007185Y018564D03*
X007108Y018640D03*
X007088Y018620D03*
X007057Y018579D03*
X006986Y018640D03*
X007077Y018742D03*
X007123Y018768D03*
X007149Y018804D03*
X007164Y018809D03*
X007236Y018768D03*
X007149Y018681D03*
X007139Y018671D03*
X007164Y018441D03*
X007164Y018400D03*
X007164Y018318D03*
X007164Y018278D03*
X007159Y018252D03*
X007169Y018150D03*
X007185Y018114D03*
X006888Y018318D03*
X006873Y018252D03*
X006842Y018160D03*
X006822Y018078D03*
X006735Y018073D03*
X006715Y017951D03*
X006715Y017910D03*
X006802Y017915D03*
X006786Y017787D03*
X006715Y017787D03*
X006715Y017746D03*
X006807Y017624D03*
X006735Y017583D03*
X006730Y017568D03*
X006848Y017460D03*
X006812Y017322D03*
X006832Y017271D03*
X006853Y017231D03*
X006883Y017179D03*
X006980Y017052D03*
X007077Y017067D03*
X007077Y017077D03*
X007083Y017093D03*
X007083Y017133D03*
X007098Y017282D03*
X007226Y017460D03*
X007246Y017787D03*
X007660Y017946D03*
X007650Y017976D03*
X007629Y018048D03*
X007578Y018191D03*
X007690Y017813D03*
X007711Y017721D03*
X007731Y017711D03*
X007752Y017721D03*
X007772Y017721D03*
X007793Y017721D03*
X007839Y017726D03*
X007849Y017726D03*
X008125Y017726D03*
X008181Y017721D03*
X008201Y017721D03*
X008232Y017711D03*
X008252Y017711D03*
X008329Y017910D03*
X008324Y017925D03*
X008477Y018354D03*
X008533Y018441D03*
X008554Y018482D03*
X008615Y018564D03*
X008656Y018605D03*
X008763Y018640D03*
X008773Y018630D03*
X008860Y018645D03*
X008901Y018605D03*
X008937Y018538D03*
X008998Y018456D03*
X009039Y018375D03*
X009049Y018354D03*
X009070Y018313D03*
X009156Y018318D03*
X009172Y018313D03*
X009177Y018278D03*
X009213Y018191D03*
X009131Y018150D03*
X009146Y018114D03*
X009151Y018027D03*
X009253Y017660D03*
X009243Y017598D03*
X009197Y017460D03*
X009110Y017455D03*
X009105Y017420D03*
X009136Y017297D03*
X009116Y017256D03*
X009095Y017215D03*
X009049Y017128D03*
X008967Y017169D03*
X008896Y017169D03*
X008896Y017128D03*
X008916Y017108D03*
X008921Y017093D03*
X008870Y017052D03*
X008870Y016919D03*
X008829Y016888D03*
X008743Y016801D03*
X008605Y016725D03*
X008538Y016679D03*
X008436Y016638D03*
X008298Y016602D03*
X008242Y016587D03*
X008222Y016577D03*
X008191Y016577D03*
X008145Y016572D03*
X008053Y016561D03*
X008043Y016561D03*
X008033Y016561D03*
X008022Y016561D03*
X008012Y016561D03*
X008002Y016561D03*
X007992Y016561D03*
X007971Y016561D03*
X007951Y016561D03*
X007930Y016561D03*
X007818Y016572D03*
X007772Y016577D03*
X007752Y016577D03*
X007675Y016602D03*
X007660Y016597D03*
X007593Y016623D03*
X007537Y016638D03*
X007512Y016653D03*
X007461Y016674D03*
X007435Y016679D03*
X007323Y016740D03*
X007057Y016955D03*
X007542Y017215D03*
X007614Y017154D03*
X007634Y017154D03*
X007655Y017154D03*
X007675Y017154D03*
X007711Y017169D03*
X007716Y017164D03*
X007757Y017205D03*
X007716Y017379D03*
X007619Y017384D03*
X008247Y017195D03*
X008298Y017164D03*
X008308Y017154D03*
X008319Y017154D03*
X008329Y017154D03*
X008339Y017154D03*
X008349Y017154D03*
X008360Y017154D03*
X008370Y017154D03*
X008380Y017154D03*
X008400Y017164D03*
X008441Y017195D03*
X008809Y017379D03*
X008835Y017353D03*
X008875Y017271D03*
X008870Y017256D03*
X008702Y017619D03*
X008732Y017721D03*
X008773Y017884D03*
X008814Y018538D03*
X008891Y018727D03*
X008850Y018768D03*
X008835Y018794D03*
X008753Y018742D03*
X008676Y018809D03*
X008538Y018885D03*
X008564Y018972D03*
X008508Y018998D03*
X008497Y019008D03*
X008416Y018947D03*
X008406Y018947D03*
X008365Y018967D03*
X008319Y018983D03*
X008278Y018993D03*
X008242Y018998D03*
X008191Y019008D03*
X008171Y019008D03*
X008150Y019008D03*
X008130Y019018D03*
X008094Y019023D03*
X008084Y019023D03*
X008171Y019100D03*
X008186Y019095D03*
X008191Y019100D03*
X008288Y019074D03*
X008324Y019069D03*
X007925Y019018D03*
X007905Y019018D03*
X007890Y019023D03*
X007777Y019095D03*
X007731Y018998D03*
X007696Y018993D03*
X007619Y018967D03*
X007588Y018957D03*
X007588Y019049D03*
X007578Y019049D03*
X007660Y019069D03*
X007476Y019008D03*
X007435Y018885D03*
X007353Y018845D03*
X007282Y018906D03*
X007343Y018947D03*
X006904Y018518D03*
X006950Y018441D03*
X006929Y018400D03*
D25*
X006934Y018385D03*
X006996Y018497D03*
X007328Y018625D03*
X007312Y018926D03*
X007644Y019064D03*
X007859Y019105D03*
X008549Y018988D03*
X008865Y018763D03*
X008845Y018651D03*
X008962Y018523D03*
X009080Y018497D03*
X009141Y018385D03*
X009238Y018032D03*
X009161Y017966D03*
X009259Y017828D03*
X008789Y018032D03*
X008492Y018359D03*
X008257Y017706D03*
X008196Y017716D03*
X007706Y017706D03*
X007624Y018032D03*
X007210Y017905D03*
X006720Y017629D03*
X006899Y017174D03*
X007016Y017149D03*
X007583Y017174D03*
X007844Y016566D03*
X008119Y016566D03*
X008375Y017159D03*
X008431Y017174D03*
X008666Y017542D03*
X008824Y017374D03*
X008983Y017174D03*
D26*
X008957Y017159D03*
X009059Y017149D03*
X008952Y017011D03*
X008911Y016970D03*
X008855Y017312D03*
X009146Y017542D03*
X009151Y017629D03*
X009167Y017992D03*
X008814Y018130D03*
X008835Y018385D03*
X008835Y018395D03*
X008809Y018523D03*
X008794Y018702D03*
X008722Y018763D03*
X008640Y018937D03*
X008457Y018926D03*
X008446Y019028D03*
X008360Y019054D03*
X008283Y018988D03*
X008125Y019105D03*
X008114Y019105D03*
X008104Y019105D03*
X007849Y019105D03*
X007690Y018988D03*
X007670Y018988D03*
X007660Y018977D03*
X007614Y019054D03*
X007537Y018937D03*
X007517Y018926D03*
X007159Y018497D03*
X007164Y018359D03*
X006909Y018359D03*
X006863Y018232D03*
X006832Y018130D03*
X006807Y018032D03*
X006786Y017828D03*
X006715Y017828D03*
X006715Y017706D03*
X006827Y017542D03*
X006756Y017501D03*
X006945Y017087D03*
X007021Y017011D03*
X007083Y017174D03*
X007200Y016822D03*
X007261Y016781D03*
X007563Y016633D03*
X007588Y016618D03*
X007639Y016607D03*
X007854Y016566D03*
X008109Y016566D03*
X008130Y016566D03*
X008421Y016643D03*
X008365Y017159D03*
X008324Y017159D03*
X008278Y017174D03*
X008268Y017185D03*
X008421Y017174D03*
X008462Y017225D03*
X008288Y017706D03*
X008206Y017716D03*
X008308Y017828D03*
X008303Y017843D03*
X008303Y017854D03*
X008370Y018032D03*
X007767Y017716D03*
X007716Y017706D03*
X007588Y018170D03*
X007501Y018359D03*
X007220Y017854D03*
X007266Y017501D03*
X007573Y017185D03*
X007629Y017159D03*
X007670Y017159D03*
X007680Y017159D03*
X007726Y017174D03*
X007736Y017174D03*
X007736Y017185D03*
X007747Y017185D03*
X006919Y018523D03*
X009008Y018436D03*
X009029Y018395D03*
X009110Y018446D03*
X009054Y018523D03*
D27*
X008692Y018513D03*
X007982Y016566D03*
D28*
X007982Y016572D03*
X008671Y018405D03*
X008671Y018416D03*
D29*
X008610Y018175D03*
X008610Y018165D03*
X008671Y017246D03*
X007982Y016577D03*
X007374Y018175D03*
X007374Y018186D03*
X007369Y018201D03*
D30*
X007226Y017869D03*
X007287Y017665D03*
X007690Y017803D03*
X007813Y017731D03*
X007874Y017731D03*
X007885Y017731D03*
X007895Y017731D03*
X007905Y017731D03*
X007956Y017741D03*
X007966Y017741D03*
X008007Y017741D03*
X008068Y017731D03*
X008089Y017731D03*
X008370Y017389D03*
X008896Y016934D03*
X008508Y016669D03*
X008487Y016658D03*
X007757Y016582D03*
X007353Y016720D03*
X007246Y016796D03*
X007185Y016847D03*
X007077Y017200D03*
X007088Y017251D03*
X007088Y017261D03*
X006842Y017251D03*
X006853Y017476D03*
X006802Y017741D03*
X006786Y017869D03*
X006715Y017869D03*
X006822Y018068D03*
X006827Y018155D03*
X006756Y018155D03*
X006883Y018283D03*
X006812Y018344D03*
X007047Y018559D03*
X007042Y018686D03*
X007220Y018865D03*
X007323Y018824D03*
X007364Y018599D03*
X007747Y019003D03*
X007787Y019013D03*
X007798Y019013D03*
X008252Y019090D03*
X008380Y018962D03*
X008462Y019013D03*
X008600Y018559D03*
X008835Y018344D03*
X008835Y018334D03*
X008809Y018155D03*
X008794Y018007D03*
X009126Y018196D03*
X009059Y018334D03*
X008932Y018686D03*
X009167Y017665D03*
X009223Y017517D03*
X007634Y017389D03*
D31*
X007318Y017251D03*
X007481Y017731D03*
X007481Y017741D03*
X007461Y017803D03*
X007435Y017920D03*
X007435Y017930D03*
X007435Y017941D03*
X008559Y017941D03*
X008559Y017930D03*
X007987Y016582D03*
D32*
X007982Y016587D03*
X008002Y017353D03*
D33*
X007982Y016592D03*
D34*
X007982Y016597D03*
X008002Y017384D03*
D35*
X007997Y017379D03*
X008017Y017379D03*
X008038Y017379D03*
X008058Y017379D03*
X008079Y017379D03*
X008099Y017379D03*
X008119Y017379D03*
X008140Y017379D03*
X008160Y017379D03*
X008181Y017379D03*
X008201Y017379D03*
X008222Y017379D03*
X008242Y017379D03*
X008263Y017379D03*
X008263Y017420D03*
X008242Y017420D03*
X008222Y017420D03*
X008201Y017420D03*
X008181Y017420D03*
X008160Y017420D03*
X008140Y017420D03*
X008119Y017420D03*
X008099Y017420D03*
X008079Y017420D03*
X008058Y017420D03*
X008038Y017420D03*
X008017Y017420D03*
X007997Y017420D03*
X007976Y017420D03*
X007956Y017420D03*
X007936Y017420D03*
X007915Y017420D03*
X007895Y017420D03*
X007874Y017420D03*
X007854Y017420D03*
X007854Y017460D03*
X007874Y017460D03*
X007895Y017460D03*
X007915Y017460D03*
X007936Y017460D03*
X007956Y017460D03*
X007976Y017460D03*
X007997Y017460D03*
X008017Y017460D03*
X008038Y017460D03*
X008058Y017460D03*
X008079Y017460D03*
X008099Y017460D03*
X008119Y017460D03*
X008140Y017460D03*
X008160Y017460D03*
X008181Y017460D03*
X008201Y017460D03*
X008222Y017460D03*
X008242Y017460D03*
X008263Y017460D03*
X008263Y017583D03*
X008242Y017583D03*
X008222Y017583D03*
X008201Y017583D03*
X008181Y017583D03*
X008160Y017583D03*
X008140Y017583D03*
X008119Y017583D03*
X008099Y017583D03*
X008079Y017583D03*
X008058Y017583D03*
X008038Y017583D03*
X008017Y017583D03*
X007997Y017583D03*
X007976Y017583D03*
X007956Y017583D03*
X007936Y017583D03*
X007915Y017583D03*
X007895Y017583D03*
X007874Y017583D03*
X007854Y017583D03*
X007854Y017624D03*
X007874Y017624D03*
X007895Y017624D03*
X007915Y017624D03*
X007936Y017624D03*
X007956Y017624D03*
X007976Y017624D03*
X007997Y017624D03*
X008017Y017624D03*
X008038Y017624D03*
X008058Y017624D03*
X008079Y017624D03*
X008099Y017624D03*
X008119Y017624D03*
X008140Y017624D03*
X008160Y017624D03*
X008181Y017624D03*
X008201Y017624D03*
X008222Y017624D03*
X008242Y017624D03*
X008263Y017624D03*
X008406Y017624D03*
X008426Y017624D03*
X008446Y017624D03*
X008467Y017624D03*
X008487Y017624D03*
X008508Y017624D03*
X008528Y017624D03*
X008549Y017624D03*
X008569Y017624D03*
X008589Y017624D03*
X008610Y017624D03*
X008630Y017624D03*
X008651Y017624D03*
X008671Y017624D03*
X008671Y017583D03*
X008651Y017583D03*
X008630Y017583D03*
X008610Y017583D03*
X008589Y017583D03*
X008569Y017583D03*
X008549Y017583D03*
X008528Y017583D03*
X008508Y017583D03*
X008487Y017583D03*
X008467Y017583D03*
X008446Y017583D03*
X008426Y017583D03*
X008406Y017583D03*
X008406Y017460D03*
X008426Y017460D03*
X008446Y017460D03*
X008467Y017460D03*
X008487Y017460D03*
X008508Y017460D03*
X008528Y017460D03*
X008549Y017460D03*
X008569Y017460D03*
X008589Y017460D03*
X008610Y017460D03*
X008630Y017460D03*
X008651Y017460D03*
X008671Y017460D03*
X008692Y017460D03*
X008712Y017460D03*
X008732Y017460D03*
X008732Y017420D03*
X008712Y017420D03*
X008692Y017420D03*
X008671Y017420D03*
X008651Y017420D03*
X008630Y017420D03*
X008610Y017420D03*
X008589Y017420D03*
X008569Y017420D03*
X008549Y017420D03*
X008528Y017420D03*
X008508Y017420D03*
X008487Y017420D03*
X008467Y017420D03*
X008446Y017420D03*
X008426Y017420D03*
X008406Y017420D03*
X008426Y017379D03*
X008446Y017379D03*
X008467Y017379D03*
X008487Y017379D03*
X008508Y017379D03*
X008528Y017379D03*
X008549Y017379D03*
X008569Y017379D03*
X008589Y017379D03*
X008610Y017379D03*
X008630Y017379D03*
X008651Y017379D03*
X008671Y017379D03*
X008692Y017379D03*
X008712Y017379D03*
X008732Y017379D03*
X008753Y017379D03*
X008773Y017379D03*
X008794Y017379D03*
X008773Y017420D03*
X008753Y017420D03*
X008753Y017297D03*
X008773Y017297D03*
X008794Y017297D03*
X008794Y017256D03*
X008773Y017256D03*
X008753Y017256D03*
X008732Y017256D03*
X008712Y017256D03*
X008692Y017256D03*
X008671Y017256D03*
X008651Y017256D03*
X008630Y017256D03*
X008610Y017256D03*
X008589Y017256D03*
X008569Y017256D03*
X008549Y017256D03*
X008528Y017256D03*
X008508Y017256D03*
X008487Y017256D03*
X008487Y017215D03*
X008467Y017215D03*
X008508Y017215D03*
X008528Y017215D03*
X008549Y017215D03*
X008569Y017215D03*
X008589Y017215D03*
X008610Y017215D03*
X008630Y017215D03*
X008651Y017215D03*
X008671Y017215D03*
X008692Y017215D03*
X008712Y017215D03*
X008732Y017215D03*
X008753Y017215D03*
X008773Y017215D03*
X008794Y017215D03*
X008794Y017133D03*
X008773Y017133D03*
X008753Y017133D03*
X008732Y017133D03*
X008712Y017133D03*
X008692Y017133D03*
X008671Y017133D03*
X008651Y017133D03*
X008630Y017133D03*
X008610Y017133D03*
X008589Y017133D03*
X008569Y017133D03*
X008549Y017133D03*
X008528Y017133D03*
X008508Y017133D03*
X008487Y017133D03*
X008467Y017133D03*
X008446Y017133D03*
X008426Y017133D03*
X008406Y017133D03*
X008406Y017093D03*
X008426Y017093D03*
X008446Y017093D03*
X008467Y017093D03*
X008487Y017093D03*
X008508Y017093D03*
X008528Y017093D03*
X008549Y017093D03*
X008569Y017093D03*
X008589Y017093D03*
X008610Y017093D03*
X008630Y017093D03*
X008651Y017093D03*
X008671Y017093D03*
X008692Y017093D03*
X008712Y017093D03*
X008732Y017093D03*
X008753Y017093D03*
X008773Y017093D03*
X008794Y017093D03*
X008794Y017052D03*
X008773Y017052D03*
X008753Y017052D03*
X008732Y017052D03*
X008712Y017052D03*
X008692Y017052D03*
X008671Y017052D03*
X008651Y017052D03*
X008630Y017052D03*
X008610Y017052D03*
X008589Y017052D03*
X008569Y017052D03*
X008549Y017052D03*
X008528Y017052D03*
X008508Y017052D03*
X008487Y017052D03*
X008467Y017052D03*
X008446Y017052D03*
X008426Y017052D03*
X008406Y017052D03*
X008406Y016929D03*
X008426Y016929D03*
X008446Y016929D03*
X008467Y016929D03*
X008487Y016929D03*
X008508Y016929D03*
X008528Y016929D03*
X008549Y016929D03*
X008569Y016929D03*
X008589Y016929D03*
X008610Y016929D03*
X008630Y016929D03*
X008651Y016929D03*
X008671Y016929D03*
X008692Y016929D03*
X008712Y016929D03*
X008732Y016929D03*
X008753Y016929D03*
X008773Y016929D03*
X008794Y016929D03*
X008794Y016888D03*
X008773Y016888D03*
X008753Y016888D03*
X008732Y016888D03*
X008712Y016888D03*
X008692Y016888D03*
X008671Y016888D03*
X008651Y016888D03*
X008630Y016888D03*
X008610Y016888D03*
X008589Y016888D03*
X008569Y016888D03*
X008549Y016888D03*
X008528Y016888D03*
X008508Y016888D03*
X008487Y016888D03*
X008467Y016888D03*
X008446Y016888D03*
X008426Y016888D03*
X008406Y016888D03*
X008406Y016766D03*
X008426Y016766D03*
X008446Y016766D03*
X008467Y016766D03*
X008487Y016766D03*
X008508Y016766D03*
X008528Y016766D03*
X008549Y016766D03*
X008569Y016766D03*
X008589Y016766D03*
X008610Y016766D03*
X008630Y016766D03*
X008651Y016766D03*
X008589Y016725D03*
X008569Y016725D03*
X008549Y016725D03*
X008528Y016725D03*
X008508Y016725D03*
X008487Y016725D03*
X008467Y016725D03*
X008446Y016725D03*
X008426Y016725D03*
X008406Y016725D03*
X008263Y016725D03*
X008242Y016725D03*
X008222Y016725D03*
X008201Y016725D03*
X008181Y016725D03*
X008160Y016725D03*
X008140Y016725D03*
X008119Y016725D03*
X008099Y016725D03*
X008079Y016725D03*
X008058Y016725D03*
X008038Y016725D03*
X008017Y016725D03*
X007997Y016725D03*
X007976Y016725D03*
X007956Y016725D03*
X007936Y016725D03*
X007915Y016725D03*
X007895Y016725D03*
X007874Y016725D03*
X007854Y016725D03*
X007854Y016766D03*
X007874Y016766D03*
X007895Y016766D03*
X007915Y016766D03*
X007936Y016766D03*
X007956Y016766D03*
X007976Y016766D03*
X007997Y016766D03*
X008017Y016766D03*
X008038Y016766D03*
X008058Y016766D03*
X008079Y016766D03*
X008099Y016766D03*
X008119Y016766D03*
X008140Y016766D03*
X008160Y016766D03*
X008181Y016766D03*
X008201Y016766D03*
X008222Y016766D03*
X008242Y016766D03*
X008263Y016766D03*
X008263Y016888D03*
X008242Y016888D03*
X008222Y016888D03*
X008201Y016888D03*
X008181Y016888D03*
X008160Y016888D03*
X008140Y016888D03*
X008119Y016888D03*
X008099Y016888D03*
X008079Y016888D03*
X008058Y016888D03*
X008038Y016888D03*
X008017Y016888D03*
X007997Y016888D03*
X007976Y016888D03*
X007956Y016888D03*
X007936Y016888D03*
X007915Y016888D03*
X007895Y016888D03*
X007874Y016888D03*
X007854Y016888D03*
X007854Y016929D03*
X007874Y016929D03*
X007895Y016929D03*
X007915Y016929D03*
X007936Y016929D03*
X007956Y016929D03*
X007976Y016929D03*
X007997Y016929D03*
X008017Y016929D03*
X008038Y016929D03*
X008058Y016929D03*
X008079Y016929D03*
X008099Y016929D03*
X008119Y016929D03*
X008140Y016929D03*
X008160Y016929D03*
X008181Y016929D03*
X008201Y016929D03*
X008222Y016929D03*
X008242Y016929D03*
X008263Y016929D03*
X008263Y017052D03*
X008242Y017052D03*
X008222Y017052D03*
X008201Y017052D03*
X008181Y017052D03*
X008160Y017052D03*
X008140Y017052D03*
X008119Y017052D03*
X008099Y017052D03*
X008079Y017052D03*
X008058Y017052D03*
X008038Y017052D03*
X008017Y017052D03*
X007997Y017052D03*
X007976Y017052D03*
X007956Y017052D03*
X007936Y017052D03*
X007915Y017052D03*
X007895Y017052D03*
X007874Y017052D03*
X007854Y017052D03*
X007854Y017093D03*
X007874Y017093D03*
X007895Y017093D03*
X007915Y017093D03*
X007936Y017093D03*
X007956Y017093D03*
X007976Y017093D03*
X007997Y017093D03*
X008017Y017093D03*
X008038Y017093D03*
X008058Y017093D03*
X008079Y017093D03*
X008099Y017093D03*
X008119Y017093D03*
X008140Y017093D03*
X008160Y017093D03*
X008181Y017093D03*
X008201Y017093D03*
X008222Y017093D03*
X008242Y017093D03*
X008263Y017093D03*
X008263Y017133D03*
X008242Y017133D03*
X008222Y017133D03*
X008201Y017133D03*
X008181Y017133D03*
X008160Y017133D03*
X008140Y017133D03*
X008119Y017133D03*
X008099Y017133D03*
X008079Y017133D03*
X008058Y017133D03*
X008038Y017133D03*
X008017Y017133D03*
X007997Y017133D03*
X007976Y017133D03*
X007956Y017133D03*
X007936Y017133D03*
X007915Y017133D03*
X007895Y017133D03*
X007874Y017133D03*
X007854Y017133D03*
X007854Y017215D03*
X007874Y017215D03*
X007895Y017215D03*
X007915Y017215D03*
X007936Y017215D03*
X007956Y017215D03*
X007976Y017215D03*
X007997Y017215D03*
X008017Y017215D03*
X008038Y017215D03*
X008058Y017215D03*
X008079Y017215D03*
X008099Y017215D03*
X008119Y017215D03*
X008140Y017215D03*
X008160Y017215D03*
X008181Y017215D03*
X008201Y017215D03*
X008222Y017215D03*
X008201Y017256D03*
X008181Y017256D03*
X008160Y017256D03*
X008140Y017256D03*
X008119Y017256D03*
X008099Y017256D03*
X008079Y017256D03*
X008058Y017256D03*
X008038Y017256D03*
X008017Y017256D03*
X007997Y017256D03*
X007976Y017256D03*
X007956Y017256D03*
X007936Y017256D03*
X007915Y017256D03*
X007895Y017256D03*
X007874Y017256D03*
X007854Y017256D03*
X007854Y017297D03*
X007874Y017297D03*
X007895Y017297D03*
X007915Y017297D03*
X007936Y017297D03*
X007956Y017297D03*
X007976Y017297D03*
X007997Y017297D03*
X008017Y017297D03*
X008038Y017297D03*
X008058Y017297D03*
X008079Y017297D03*
X008099Y017297D03*
X008119Y017297D03*
X008140Y017297D03*
X008160Y017297D03*
X008181Y017297D03*
X008201Y017297D03*
X007976Y017379D03*
X007956Y017379D03*
X007936Y017379D03*
X007915Y017379D03*
X007895Y017379D03*
X007874Y017379D03*
X007854Y017379D03*
X007711Y017420D03*
X007690Y017420D03*
X007670Y017420D03*
X007650Y017420D03*
X007629Y017420D03*
X007609Y017420D03*
X007588Y017420D03*
X007568Y017420D03*
X007547Y017420D03*
X007527Y017420D03*
X007507Y017420D03*
X007486Y017420D03*
X007466Y017420D03*
X007445Y017420D03*
X007425Y017420D03*
X007404Y017420D03*
X007384Y017420D03*
X007363Y017420D03*
X007343Y017420D03*
X007323Y017420D03*
X007323Y017460D03*
X007343Y017460D03*
X007363Y017460D03*
X007384Y017460D03*
X007404Y017460D03*
X007425Y017460D03*
X007445Y017460D03*
X007466Y017460D03*
X007486Y017460D03*
X007507Y017460D03*
X007527Y017460D03*
X007547Y017460D03*
X007568Y017460D03*
X007588Y017460D03*
X007609Y017460D03*
X007629Y017460D03*
X007650Y017460D03*
X007670Y017460D03*
X007690Y017460D03*
X007711Y017460D03*
X007711Y017583D03*
X007690Y017583D03*
X007670Y017583D03*
X007650Y017583D03*
X007629Y017583D03*
X007609Y017583D03*
X007588Y017583D03*
X007568Y017583D03*
X007547Y017583D03*
X007527Y017583D03*
X007507Y017583D03*
X007486Y017583D03*
X007466Y017583D03*
X007445Y017583D03*
X007425Y017583D03*
X007404Y017583D03*
X007384Y017583D03*
X007363Y017583D03*
X007343Y017583D03*
X007323Y017583D03*
X007323Y017624D03*
X007343Y017624D03*
X007363Y017624D03*
X007384Y017624D03*
X007404Y017624D03*
X007425Y017624D03*
X007445Y017624D03*
X007466Y017624D03*
X007486Y017624D03*
X007507Y017624D03*
X007527Y017624D03*
X007547Y017624D03*
X007568Y017624D03*
X007588Y017624D03*
X007609Y017624D03*
X007629Y017624D03*
X007650Y017624D03*
X007670Y017624D03*
X007690Y017624D03*
X007711Y017624D03*
X007690Y017746D03*
X007670Y017746D03*
X007650Y017746D03*
X007629Y017746D03*
X007609Y017746D03*
X007588Y017746D03*
X007568Y017746D03*
X007547Y017746D03*
X007527Y017746D03*
X007507Y017746D03*
X007486Y017746D03*
X007466Y017746D03*
X007445Y017746D03*
X007425Y017746D03*
X007404Y017746D03*
X007384Y017746D03*
X007363Y017746D03*
X007343Y017746D03*
X007323Y017746D03*
X007323Y017787D03*
X007343Y017787D03*
X007363Y017787D03*
X007384Y017787D03*
X007404Y017787D03*
X007425Y017787D03*
X007445Y017787D03*
X007466Y017787D03*
X007486Y017787D03*
X007507Y017787D03*
X007527Y017787D03*
X007547Y017787D03*
X007568Y017787D03*
X007588Y017787D03*
X007609Y017787D03*
X007629Y017787D03*
X007650Y017787D03*
X007670Y017787D03*
X007650Y017910D03*
X007629Y017910D03*
X007609Y017910D03*
X007588Y017910D03*
X007568Y017910D03*
X007547Y017910D03*
X007527Y017910D03*
X007507Y017910D03*
X007486Y017910D03*
X007466Y017910D03*
X007445Y017910D03*
X007425Y017910D03*
X007404Y017910D03*
X007384Y017910D03*
X007363Y017910D03*
X007343Y017910D03*
X007323Y017910D03*
X007323Y017951D03*
X007343Y017951D03*
X007363Y017951D03*
X007384Y017951D03*
X007404Y017951D03*
X007425Y017951D03*
X007445Y017951D03*
X007466Y017951D03*
X007486Y017951D03*
X007507Y017951D03*
X007527Y017951D03*
X007547Y017951D03*
X007568Y017951D03*
X007588Y017951D03*
X007609Y017951D03*
X007629Y017951D03*
X007609Y018073D03*
X007588Y018073D03*
X007568Y018073D03*
X007547Y018073D03*
X007527Y018073D03*
X007507Y018073D03*
X007486Y018073D03*
X007466Y018073D03*
X007445Y018073D03*
X007425Y018073D03*
X007404Y018073D03*
X007384Y018073D03*
X007363Y018073D03*
X007343Y018073D03*
X007323Y018073D03*
X007323Y018114D03*
X007343Y018114D03*
X007363Y018114D03*
X007384Y018114D03*
X007404Y018114D03*
X007425Y018114D03*
X007445Y018114D03*
X007466Y018114D03*
X007486Y018114D03*
X007507Y018114D03*
X007527Y018114D03*
X007547Y018114D03*
X007568Y018114D03*
X007588Y018114D03*
X007547Y018237D03*
X007527Y018237D03*
X007507Y018237D03*
X007486Y018237D03*
X007466Y018237D03*
X007445Y018237D03*
X007425Y018237D03*
X007404Y018237D03*
X007384Y018237D03*
X007363Y018237D03*
X007343Y018237D03*
X007323Y018237D03*
X007323Y018278D03*
X007343Y018278D03*
X007363Y018278D03*
X007384Y018278D03*
X007404Y018278D03*
X007425Y018278D03*
X007445Y018278D03*
X007466Y018278D03*
X007486Y018278D03*
X007507Y018278D03*
X007527Y018278D03*
X007507Y018318D03*
X007486Y018318D03*
X007466Y018318D03*
X007445Y018318D03*
X007425Y018318D03*
X007404Y018318D03*
X007384Y018318D03*
X007363Y018318D03*
X007343Y018318D03*
X007323Y018318D03*
X007323Y018400D03*
X007343Y018400D03*
X007363Y018400D03*
X007384Y018400D03*
X007404Y018400D03*
X007425Y018400D03*
X007445Y018400D03*
X007466Y018400D03*
X007445Y018441D03*
X007425Y018441D03*
X007404Y018441D03*
X007384Y018441D03*
X007363Y018441D03*
X007343Y018441D03*
X007323Y018441D03*
X007323Y018482D03*
X007343Y018482D03*
X007363Y018482D03*
X007384Y018482D03*
X007404Y018482D03*
X007425Y018482D03*
X007363Y018564D03*
X007343Y018564D03*
X007323Y018564D03*
X007323Y018605D03*
X007343Y018605D03*
X007180Y018727D03*
X007159Y018727D03*
X007139Y018727D03*
X007118Y018727D03*
X007098Y018727D03*
X007077Y018727D03*
X007139Y018768D03*
X007159Y018768D03*
X007180Y018768D03*
X007180Y018809D03*
X007098Y018645D03*
X007077Y018645D03*
X007057Y018645D03*
X007037Y018645D03*
X007016Y018645D03*
X007016Y018605D03*
X006996Y018605D03*
X006975Y018605D03*
X006975Y018564D03*
X006955Y018564D03*
X006996Y018564D03*
X007016Y018564D03*
X007037Y018605D03*
X007057Y018605D03*
X006955Y018482D03*
X006934Y018482D03*
X006914Y018482D03*
X006894Y018482D03*
X006894Y018441D03*
X006914Y018441D03*
X006934Y018441D03*
X006914Y018400D03*
X006894Y018400D03*
X006873Y018400D03*
X006853Y018400D03*
X006873Y018441D03*
X006873Y018318D03*
X006853Y018318D03*
X006832Y018318D03*
X006812Y018318D03*
X006812Y018278D03*
X006832Y018278D03*
X006853Y018278D03*
X006853Y018237D03*
X006832Y018237D03*
X006812Y018237D03*
X006791Y018237D03*
X006791Y018114D03*
X006771Y018114D03*
X006771Y018073D03*
X006791Y018073D03*
X006812Y018073D03*
X006812Y018114D03*
X006791Y017951D03*
X006771Y017951D03*
X006771Y017910D03*
X006771Y017787D03*
X006771Y017746D03*
X006771Y017624D03*
X006791Y017624D03*
X006791Y017583D03*
X006771Y017583D03*
X006812Y017583D03*
X006812Y017460D03*
X006832Y017460D03*
X006832Y017420D03*
X006812Y017420D03*
X006791Y017420D03*
X006791Y017460D03*
X006771Y017460D03*
X006812Y017379D03*
X006832Y017379D03*
X006853Y017379D03*
X006873Y017379D03*
X006853Y017420D03*
X006853Y017297D03*
X006873Y017297D03*
X006894Y017297D03*
X006914Y017297D03*
X006914Y017256D03*
X006894Y017256D03*
X006873Y017256D03*
X006853Y017256D03*
X006832Y017297D03*
X006894Y017215D03*
X006914Y017215D03*
X006934Y017215D03*
X006955Y017215D03*
X006934Y017256D03*
X006934Y017133D03*
X006955Y017133D03*
X006975Y017133D03*
X006996Y017133D03*
X007016Y017133D03*
X007016Y017093D03*
X006996Y017093D03*
X006975Y017093D03*
X006955Y017093D03*
X006996Y017052D03*
X007016Y017052D03*
X007037Y017052D03*
X007057Y017052D03*
X007098Y017052D03*
X007118Y017052D03*
X007139Y017052D03*
X007159Y017052D03*
X007180Y017052D03*
X007180Y017093D03*
X007159Y017093D03*
X007139Y017093D03*
X007118Y017093D03*
X007098Y017093D03*
X007098Y017133D03*
X007118Y017133D03*
X007139Y017133D03*
X007159Y017133D03*
X007180Y017133D03*
X007180Y017215D03*
X007159Y017215D03*
X007139Y017215D03*
X007118Y017215D03*
X007098Y017215D03*
X007118Y017256D03*
X007139Y017256D03*
X007159Y017256D03*
X007180Y017256D03*
X007180Y017297D03*
X007159Y017297D03*
X007139Y017297D03*
X007118Y017297D03*
X007159Y017379D03*
X007180Y017379D03*
X007323Y017379D03*
X007343Y017379D03*
X007363Y017379D03*
X007384Y017379D03*
X007404Y017379D03*
X007425Y017379D03*
X007445Y017379D03*
X007466Y017379D03*
X007486Y017379D03*
X007507Y017379D03*
X007527Y017379D03*
X007547Y017379D03*
X007568Y017379D03*
X007588Y017379D03*
X007527Y017297D03*
X007507Y017297D03*
X007486Y017297D03*
X007466Y017297D03*
X007445Y017297D03*
X007425Y017297D03*
X007404Y017297D03*
X007384Y017297D03*
X007363Y017297D03*
X007343Y017297D03*
X007323Y017297D03*
X007323Y017256D03*
X007343Y017256D03*
X007363Y017256D03*
X007384Y017256D03*
X007404Y017256D03*
X007425Y017256D03*
X007445Y017256D03*
X007466Y017256D03*
X007486Y017256D03*
X007507Y017256D03*
X007527Y017256D03*
X007527Y017215D03*
X007507Y017215D03*
X007486Y017215D03*
X007466Y017215D03*
X007445Y017215D03*
X007425Y017215D03*
X007404Y017215D03*
X007384Y017215D03*
X007363Y017215D03*
X007343Y017215D03*
X007323Y017215D03*
X007323Y017133D03*
X007343Y017133D03*
X007363Y017133D03*
X007384Y017133D03*
X007404Y017133D03*
X007425Y017133D03*
X007445Y017133D03*
X007466Y017133D03*
X007486Y017133D03*
X007507Y017133D03*
X007527Y017133D03*
X007547Y017133D03*
X007568Y017133D03*
X007588Y017133D03*
X007609Y017133D03*
X007629Y017133D03*
X007650Y017133D03*
X007670Y017133D03*
X007690Y017133D03*
X007711Y017133D03*
X007701Y017154D03*
X007711Y017093D03*
X007690Y017093D03*
X007670Y017093D03*
X007650Y017093D03*
X007629Y017093D03*
X007609Y017093D03*
X007588Y017093D03*
X007568Y017093D03*
X007547Y017093D03*
X007527Y017093D03*
X007507Y017093D03*
X007486Y017093D03*
X007466Y017093D03*
X007445Y017093D03*
X007425Y017093D03*
X007404Y017093D03*
X007384Y017093D03*
X007363Y017093D03*
X007343Y017093D03*
X007323Y017093D03*
X007323Y017052D03*
X007343Y017052D03*
X007363Y017052D03*
X007384Y017052D03*
X007404Y017052D03*
X007425Y017052D03*
X007445Y017052D03*
X007466Y017052D03*
X007486Y017052D03*
X007507Y017052D03*
X007527Y017052D03*
X007547Y017052D03*
X007568Y017052D03*
X007588Y017052D03*
X007609Y017052D03*
X007629Y017052D03*
X007650Y017052D03*
X007670Y017052D03*
X007690Y017052D03*
X007711Y017052D03*
X007711Y016929D03*
X007690Y016929D03*
X007670Y016929D03*
X007650Y016929D03*
X007629Y016929D03*
X007609Y016929D03*
X007588Y016929D03*
X007568Y016929D03*
X007547Y016929D03*
X007527Y016929D03*
X007507Y016929D03*
X007486Y016929D03*
X007466Y016929D03*
X007445Y016929D03*
X007425Y016929D03*
X007404Y016929D03*
X007384Y016929D03*
X007363Y016929D03*
X007343Y016929D03*
X007323Y016929D03*
X007323Y016888D03*
X007343Y016888D03*
X007363Y016888D03*
X007384Y016888D03*
X007404Y016888D03*
X007425Y016888D03*
X007445Y016888D03*
X007466Y016888D03*
X007486Y016888D03*
X007507Y016888D03*
X007527Y016888D03*
X007547Y016888D03*
X007568Y016888D03*
X007588Y016888D03*
X007609Y016888D03*
X007629Y016888D03*
X007650Y016888D03*
X007670Y016888D03*
X007690Y016888D03*
X007711Y016888D03*
X007711Y016766D03*
X007690Y016766D03*
X007670Y016766D03*
X007650Y016766D03*
X007629Y016766D03*
X007609Y016766D03*
X007588Y016766D03*
X007568Y016766D03*
X007547Y016766D03*
X007527Y016766D03*
X007507Y016766D03*
X007486Y016766D03*
X007466Y016766D03*
X007445Y016766D03*
X007425Y016766D03*
X007404Y016766D03*
X007384Y016766D03*
X007363Y016766D03*
X007343Y016766D03*
X007323Y016766D03*
X007363Y016725D03*
X007384Y016725D03*
X007404Y016725D03*
X007425Y016725D03*
X007445Y016725D03*
X007466Y016725D03*
X007486Y016725D03*
X007507Y016725D03*
X007527Y016725D03*
X007547Y016725D03*
X007568Y016725D03*
X007588Y016725D03*
X007609Y016725D03*
X007629Y016725D03*
X007650Y016725D03*
X007670Y016725D03*
X007690Y016725D03*
X007711Y016725D03*
X007711Y016602D03*
X007690Y016602D03*
X007854Y016602D03*
X007874Y016602D03*
X007895Y016602D03*
X007915Y016602D03*
X007936Y016602D03*
X007956Y016602D03*
X007976Y016602D03*
X007997Y016602D03*
X008017Y016602D03*
X008038Y016602D03*
X008058Y016602D03*
X008079Y016602D03*
X008099Y016602D03*
X008119Y016602D03*
X008140Y016602D03*
X008160Y016602D03*
X008181Y016602D03*
X008201Y016602D03*
X008222Y016602D03*
X008242Y016602D03*
X008263Y016602D03*
X008487Y017297D03*
X008508Y017297D03*
X008528Y017297D03*
X008549Y017297D03*
X008569Y017297D03*
X008589Y017297D03*
X008610Y017297D03*
X008630Y017297D03*
X008651Y017297D03*
X008671Y017297D03*
X008692Y017297D03*
X008712Y017297D03*
X008732Y017297D03*
X008937Y017093D03*
X008957Y017093D03*
X008978Y017093D03*
X008998Y017093D03*
X008998Y017133D03*
X008978Y017133D03*
X008957Y017133D03*
X009018Y017133D03*
X009039Y017133D03*
X009039Y017215D03*
X009059Y017215D03*
X009080Y017215D03*
X009080Y017256D03*
X009100Y017256D03*
X009059Y017256D03*
X009039Y017256D03*
X009059Y017297D03*
X009080Y017297D03*
X009100Y017297D03*
X009121Y017297D03*
X009121Y017379D03*
X009141Y017379D03*
X009161Y017379D03*
X009161Y017420D03*
X009141Y017420D03*
X009121Y017420D03*
X009141Y017460D03*
X009161Y017460D03*
X009182Y017460D03*
X009182Y017420D03*
X009100Y017379D03*
X009018Y017215D03*
X008978Y017052D03*
X008957Y017052D03*
X008937Y017052D03*
X009161Y017583D03*
X009182Y017583D03*
X009202Y017583D03*
X009223Y017583D03*
X009223Y017624D03*
X009202Y017624D03*
X009182Y017624D03*
X009161Y017624D03*
X009182Y017746D03*
X009202Y017746D03*
X009223Y017746D03*
X009243Y017746D03*
X009243Y017787D03*
X009223Y017787D03*
X009202Y017787D03*
X009182Y017787D03*
X009182Y017910D03*
X009202Y017910D03*
X009223Y017910D03*
X009243Y017910D03*
X009243Y017951D03*
X009223Y017951D03*
X009202Y017951D03*
X009182Y017951D03*
X009182Y018073D03*
X009202Y018073D03*
X009223Y018073D03*
X009223Y018114D03*
X009202Y018114D03*
X009182Y018114D03*
X009161Y018114D03*
X009161Y018073D03*
X009161Y018237D03*
X009141Y018237D03*
X009121Y018237D03*
X009121Y018278D03*
X009141Y018278D03*
X009161Y018278D03*
X009141Y018318D03*
X009121Y018318D03*
X009100Y018318D03*
X009080Y018318D03*
X009100Y018278D03*
X009182Y018237D03*
X009121Y018400D03*
X009100Y018400D03*
X009080Y018400D03*
X009059Y018400D03*
X009039Y018400D03*
X009039Y018441D03*
X009059Y018441D03*
X009080Y018441D03*
X009100Y018441D03*
X009059Y018482D03*
X009039Y018482D03*
X009018Y018482D03*
X008998Y018482D03*
X009018Y018441D03*
X009018Y018564D03*
X008998Y018564D03*
X008978Y018564D03*
X008957Y018564D03*
X008937Y018564D03*
X008937Y018605D03*
X008957Y018605D03*
X008978Y018605D03*
X008957Y018645D03*
X008937Y018645D03*
X008794Y018564D03*
X008773Y018564D03*
X008753Y018564D03*
X008732Y018564D03*
X008712Y018564D03*
X008692Y018564D03*
X008671Y018564D03*
X008651Y018564D03*
X008630Y018564D03*
X008671Y018605D03*
X008692Y018605D03*
X008712Y018605D03*
X008732Y018605D03*
X008753Y018605D03*
X008773Y018605D03*
X008773Y018482D03*
X008753Y018482D03*
X008732Y018482D03*
X008712Y018482D03*
X008692Y018482D03*
X008671Y018482D03*
X008651Y018482D03*
X008630Y018482D03*
X008610Y018482D03*
X008589Y018482D03*
X008569Y018482D03*
X008569Y018441D03*
X008589Y018441D03*
X008610Y018441D03*
X008630Y018441D03*
X008651Y018441D03*
X008671Y018441D03*
X008692Y018441D03*
X008712Y018441D03*
X008732Y018441D03*
X008753Y018441D03*
X008773Y018441D03*
X008794Y018441D03*
X008794Y018400D03*
X008773Y018400D03*
X008753Y018400D03*
X008732Y018400D03*
X008712Y018400D03*
X008692Y018400D03*
X008671Y018400D03*
X008651Y018400D03*
X008630Y018400D03*
X008610Y018400D03*
X008589Y018400D03*
X008569Y018400D03*
X008549Y018400D03*
X008528Y018400D03*
X008549Y018441D03*
X008549Y018318D03*
X008569Y018318D03*
X008589Y018318D03*
X008610Y018318D03*
X008630Y018318D03*
X008651Y018318D03*
X008671Y018318D03*
X008692Y018318D03*
X008712Y018318D03*
X008732Y018318D03*
X008753Y018318D03*
X008773Y018318D03*
X008794Y018318D03*
X008794Y018278D03*
X008773Y018278D03*
X008753Y018278D03*
X008732Y018278D03*
X008712Y018278D03*
X008692Y018278D03*
X008671Y018278D03*
X008651Y018278D03*
X008630Y018278D03*
X008610Y018278D03*
X008589Y018278D03*
X008569Y018278D03*
X008549Y018278D03*
X008528Y018278D03*
X008508Y018278D03*
X008487Y018278D03*
X008467Y018278D03*
X008467Y018237D03*
X008487Y018237D03*
X008508Y018237D03*
X008528Y018237D03*
X008549Y018237D03*
X008569Y018237D03*
X008589Y018237D03*
X008610Y018237D03*
X008630Y018237D03*
X008651Y018237D03*
X008671Y018237D03*
X008692Y018237D03*
X008712Y018237D03*
X008732Y018237D03*
X008753Y018237D03*
X008773Y018237D03*
X008794Y018237D03*
X008794Y018114D03*
X008773Y018114D03*
X008753Y018114D03*
X008732Y018114D03*
X008712Y018114D03*
X008692Y018114D03*
X008671Y018114D03*
X008651Y018114D03*
X008630Y018114D03*
X008610Y018114D03*
X008589Y018114D03*
X008569Y018114D03*
X008549Y018114D03*
X008528Y018114D03*
X008508Y018114D03*
X008487Y018114D03*
X008467Y018114D03*
X008446Y018114D03*
X008426Y018114D03*
X008406Y018114D03*
X008406Y018073D03*
X008426Y018073D03*
X008446Y018073D03*
X008467Y018073D03*
X008487Y018073D03*
X008508Y018073D03*
X008528Y018073D03*
X008549Y018073D03*
X008569Y018073D03*
X008589Y018073D03*
X008610Y018073D03*
X008630Y018073D03*
X008651Y018073D03*
X008671Y018073D03*
X008692Y018073D03*
X008712Y018073D03*
X008732Y018073D03*
X008753Y018073D03*
X008773Y018073D03*
X008794Y018073D03*
X008773Y017951D03*
X008753Y017951D03*
X008732Y017951D03*
X008712Y017951D03*
X008692Y017951D03*
X008671Y017951D03*
X008651Y017951D03*
X008630Y017951D03*
X008610Y017951D03*
X008589Y017951D03*
X008569Y017951D03*
X008549Y017951D03*
X008528Y017951D03*
X008508Y017951D03*
X008487Y017951D03*
X008467Y017951D03*
X008446Y017951D03*
X008426Y017951D03*
X008406Y017951D03*
X008406Y017910D03*
X008426Y017910D03*
X008446Y017910D03*
X008467Y017910D03*
X008487Y017910D03*
X008508Y017910D03*
X008528Y017910D03*
X008549Y017910D03*
X008569Y017910D03*
X008589Y017910D03*
X008610Y017910D03*
X008630Y017910D03*
X008651Y017910D03*
X008671Y017910D03*
X008692Y017910D03*
X008712Y017910D03*
X008732Y017910D03*
X008753Y017910D03*
X008732Y017787D03*
X008712Y017787D03*
X008692Y017787D03*
X008671Y017787D03*
X008651Y017787D03*
X008630Y017787D03*
X008610Y017787D03*
X008589Y017787D03*
X008569Y017787D03*
X008549Y017787D03*
X008528Y017787D03*
X008508Y017787D03*
X008487Y017787D03*
X008467Y017787D03*
X008446Y017787D03*
X008426Y017787D03*
X008406Y017787D03*
X008406Y017746D03*
X008426Y017746D03*
X008446Y017746D03*
X008467Y017746D03*
X008487Y017746D03*
X008508Y017746D03*
X008528Y017746D03*
X008549Y017746D03*
X008569Y017746D03*
X008589Y017746D03*
X008610Y017746D03*
X008630Y017746D03*
X008651Y017746D03*
X008671Y017746D03*
X008692Y017746D03*
X008712Y017746D03*
X008446Y018237D03*
X008487Y018318D03*
X008508Y018318D03*
X008528Y018318D03*
X008794Y018482D03*
X008794Y018727D03*
X008794Y018768D03*
X008773Y018768D03*
X008753Y018768D03*
X008732Y018768D03*
X008732Y018809D03*
X008712Y018809D03*
X008692Y018809D03*
X008753Y018809D03*
X008773Y018809D03*
X008794Y018809D03*
X008630Y018931D03*
X008610Y018931D03*
X008589Y018931D03*
X008569Y018931D03*
X008549Y018931D03*
X008528Y018931D03*
X008508Y018931D03*
X008487Y018931D03*
X008467Y018931D03*
X008467Y018972D03*
X008487Y018972D03*
X008508Y018972D03*
X008528Y018972D03*
X008549Y018972D03*
X008446Y018972D03*
X008426Y018972D03*
X008406Y018972D03*
X008160Y019095D03*
X008140Y019095D03*
X008119Y019095D03*
X008099Y019095D03*
X008079Y019095D03*
X008058Y019095D03*
X008038Y019095D03*
X008017Y019095D03*
X007997Y019095D03*
X007976Y019095D03*
X007956Y019095D03*
X007936Y019095D03*
X007915Y019095D03*
X007895Y019095D03*
X007874Y019095D03*
X007854Y019095D03*
X007609Y018972D03*
X007588Y018972D03*
X007568Y018972D03*
X007547Y018972D03*
X007527Y018972D03*
X007507Y018972D03*
X007486Y018972D03*
X007466Y018972D03*
X007445Y018972D03*
X007425Y018972D03*
X007425Y018931D03*
X007445Y018931D03*
X007466Y018931D03*
X007486Y018931D03*
X007507Y018931D03*
X007404Y018931D03*
X007384Y018931D03*
X007363Y018931D03*
X007343Y018931D03*
X007180Y018482D03*
X007180Y018441D03*
X007180Y018400D03*
X007180Y018318D03*
X007180Y018278D03*
X007180Y018237D03*
X007037Y017093D03*
X007098Y016929D03*
X007118Y016929D03*
X007139Y016929D03*
X007159Y016929D03*
X007180Y016929D03*
X007180Y016888D03*
X007159Y016888D03*
X007139Y016888D03*
D36*
X007200Y016888D03*
X007220Y016888D03*
X007241Y016888D03*
X007261Y016888D03*
X007282Y016888D03*
X007302Y016888D03*
X007302Y016929D03*
X007282Y016929D03*
X007261Y016929D03*
X007241Y016929D03*
X007220Y016929D03*
X007200Y016929D03*
X007200Y017052D03*
X007220Y017052D03*
X007241Y017052D03*
X007261Y017052D03*
X007282Y017052D03*
X007302Y017052D03*
X007302Y017093D03*
X007282Y017093D03*
X007261Y017093D03*
X007241Y017093D03*
X007220Y017093D03*
X007200Y017093D03*
X007200Y017133D03*
X007220Y017133D03*
X007241Y017133D03*
X007261Y017133D03*
X007282Y017133D03*
X007302Y017133D03*
X007302Y017215D03*
X007282Y017215D03*
X007261Y017215D03*
X007241Y017215D03*
X007220Y017215D03*
X007200Y017215D03*
X007200Y017256D03*
X007220Y017256D03*
X007241Y017256D03*
X007261Y017256D03*
X007282Y017256D03*
X007302Y017256D03*
X007302Y017297D03*
X007282Y017297D03*
X007261Y017297D03*
X007241Y017297D03*
X007220Y017297D03*
X007200Y017297D03*
X007200Y017379D03*
X007220Y017379D03*
X007241Y017379D03*
X007261Y017379D03*
X007282Y017379D03*
X007302Y017379D03*
X007302Y017420D03*
X007282Y017420D03*
X007261Y017420D03*
X007241Y017420D03*
X007220Y017420D03*
X007200Y017420D03*
X007241Y017460D03*
X007261Y017460D03*
X007282Y017460D03*
X007302Y017460D03*
X007302Y017624D03*
X007302Y017746D03*
X007282Y017746D03*
X007282Y017787D03*
X007302Y017787D03*
X007261Y017787D03*
X007261Y017910D03*
X007241Y017910D03*
X007220Y017910D03*
X007220Y017951D03*
X007241Y017951D03*
X007261Y017951D03*
X007282Y017951D03*
X007302Y017951D03*
X007302Y017910D03*
X007282Y017910D03*
X007282Y018073D03*
X007302Y018073D03*
X007261Y018073D03*
X007241Y018073D03*
X007220Y018073D03*
X007200Y018073D03*
X007200Y018114D03*
X007220Y018114D03*
X007241Y018114D03*
X007261Y018114D03*
X007282Y018114D03*
X007302Y018114D03*
X007302Y018237D03*
X007282Y018237D03*
X007261Y018237D03*
X007241Y018237D03*
X007220Y018237D03*
X007200Y018237D03*
X007200Y018278D03*
X007220Y018278D03*
X007241Y018278D03*
X007261Y018278D03*
X007282Y018278D03*
X007302Y018278D03*
X007302Y018318D03*
X007282Y018318D03*
X007261Y018318D03*
X007241Y018318D03*
X007220Y018318D03*
X007200Y018318D03*
X007200Y018400D03*
X007220Y018400D03*
X007241Y018400D03*
X007261Y018400D03*
X007282Y018400D03*
X007302Y018400D03*
X007302Y018441D03*
X007282Y018441D03*
X007261Y018441D03*
X007241Y018441D03*
X007220Y018441D03*
X007200Y018441D03*
X007200Y018482D03*
X007220Y018482D03*
X007241Y018482D03*
X007261Y018482D03*
X007282Y018482D03*
X007302Y018482D03*
X007302Y018564D03*
X007282Y018564D03*
X007261Y018564D03*
X007241Y018564D03*
X007220Y018564D03*
X007200Y018564D03*
X007200Y018605D03*
X007220Y018605D03*
X007241Y018605D03*
X007261Y018605D03*
X007282Y018605D03*
X007302Y018605D03*
X007282Y018645D03*
X007261Y018645D03*
X007241Y018645D03*
X007220Y018768D03*
X007200Y018768D03*
X007200Y018809D03*
X007220Y018809D03*
X007241Y018809D03*
X007261Y018809D03*
X007282Y018809D03*
X007793Y019095D03*
X007813Y019095D03*
X007833Y019095D03*
X008365Y018972D03*
X008385Y018972D03*
X008814Y018768D03*
X008835Y018768D03*
X008835Y018727D03*
X008855Y018727D03*
X008875Y018727D03*
X008814Y018727D03*
X008875Y018645D03*
X008896Y018645D03*
X008916Y018645D03*
X008916Y018605D03*
X008814Y018482D03*
X008814Y018441D03*
X008814Y018400D03*
X008814Y018318D03*
X008814Y018278D03*
X008814Y018237D03*
X008385Y018073D03*
X008385Y017951D03*
X008365Y017951D03*
X008344Y017951D03*
X008344Y017910D03*
X008365Y017910D03*
X008385Y017910D03*
X008385Y017787D03*
X008365Y017787D03*
X008344Y017787D03*
X008324Y017787D03*
X008303Y017787D03*
X008303Y017746D03*
X008324Y017746D03*
X008344Y017746D03*
X008365Y017746D03*
X008385Y017746D03*
X008385Y017624D03*
X008365Y017624D03*
X008344Y017624D03*
X008324Y017624D03*
X008303Y017624D03*
X008283Y017624D03*
X008283Y017583D03*
X008303Y017583D03*
X008324Y017583D03*
X008344Y017583D03*
X008365Y017583D03*
X008385Y017583D03*
X008385Y017460D03*
X008365Y017460D03*
X008344Y017460D03*
X008324Y017460D03*
X008303Y017460D03*
X008283Y017460D03*
X008283Y017420D03*
X008303Y017420D03*
X008324Y017420D03*
X008344Y017420D03*
X008365Y017420D03*
X008385Y017420D03*
X008283Y017379D03*
X008283Y017133D03*
X008303Y017133D03*
X008324Y017133D03*
X008344Y017133D03*
X008365Y017133D03*
X008385Y017133D03*
X008385Y017093D03*
X008365Y017093D03*
X008344Y017093D03*
X008324Y017093D03*
X008303Y017093D03*
X008283Y017093D03*
X008283Y017052D03*
X008303Y017052D03*
X008324Y017052D03*
X008344Y017052D03*
X008365Y017052D03*
X008385Y017052D03*
X008385Y016929D03*
X008365Y016929D03*
X008344Y016929D03*
X008324Y016929D03*
X008303Y016929D03*
X008283Y016929D03*
X008283Y016888D03*
X008303Y016888D03*
X008324Y016888D03*
X008344Y016888D03*
X008365Y016888D03*
X008385Y016888D03*
X008385Y016766D03*
X008365Y016766D03*
X008344Y016766D03*
X008324Y016766D03*
X008303Y016766D03*
X008283Y016766D03*
X008283Y016725D03*
X008303Y016725D03*
X008324Y016725D03*
X008344Y016725D03*
X008365Y016725D03*
X008385Y016725D03*
X008283Y016602D03*
X007833Y016602D03*
X007813Y016602D03*
X007793Y016602D03*
X007772Y016602D03*
X007752Y016602D03*
X007731Y016602D03*
X007731Y016725D03*
X007752Y016725D03*
X007772Y016725D03*
X007793Y016725D03*
X007813Y016725D03*
X007833Y016725D03*
X007833Y016766D03*
X007813Y016766D03*
X007793Y016766D03*
X007772Y016766D03*
X007752Y016766D03*
X007731Y016766D03*
X007731Y016888D03*
X007752Y016888D03*
X007772Y016888D03*
X007793Y016888D03*
X007813Y016888D03*
X007833Y016888D03*
X007833Y016929D03*
X007813Y016929D03*
X007793Y016929D03*
X007772Y016929D03*
X007752Y016929D03*
X007731Y016929D03*
X007731Y017052D03*
X007752Y017052D03*
X007772Y017052D03*
X007793Y017052D03*
X007813Y017052D03*
X007833Y017052D03*
X007833Y017093D03*
X007813Y017093D03*
X007793Y017093D03*
X007772Y017093D03*
X007752Y017093D03*
X007731Y017093D03*
X007731Y017133D03*
X007752Y017133D03*
X007772Y017133D03*
X007793Y017133D03*
X007813Y017133D03*
X007833Y017133D03*
X007833Y017215D03*
X007813Y017215D03*
X007793Y017215D03*
X007772Y017215D03*
X007793Y017256D03*
X007813Y017256D03*
X007833Y017256D03*
X007833Y017297D03*
X007813Y017297D03*
X007793Y017297D03*
X007793Y017379D03*
X007813Y017379D03*
X007833Y017379D03*
X007833Y017420D03*
X007813Y017420D03*
X007793Y017420D03*
X007772Y017420D03*
X007752Y017420D03*
X007731Y017420D03*
X007731Y017460D03*
X007752Y017460D03*
X007772Y017460D03*
X007793Y017460D03*
X007813Y017460D03*
X007833Y017460D03*
X007772Y017379D03*
X007752Y017379D03*
X007731Y017379D03*
X007731Y017583D03*
X007752Y017583D03*
X007772Y017583D03*
X007793Y017583D03*
X007813Y017583D03*
X007833Y017583D03*
X007833Y017624D03*
X007813Y017624D03*
X007793Y017624D03*
X007772Y017624D03*
X007752Y017624D03*
X007731Y017624D03*
X007302Y016766D03*
X006751Y017583D03*
X006751Y017624D03*
X006751Y017746D03*
X006730Y017746D03*
X006730Y017787D03*
X006751Y017787D03*
X006751Y017910D03*
X006730Y017910D03*
X006730Y017951D03*
X006751Y017951D03*
X006751Y018073D03*
X006751Y018114D03*
X008814Y017297D03*
X008835Y017297D03*
X008835Y017256D03*
X008855Y017256D03*
X008855Y017215D03*
X008835Y017215D03*
X008814Y017215D03*
X008814Y017256D03*
X008875Y017215D03*
X008875Y017133D03*
X008855Y017133D03*
X008835Y017133D03*
X008814Y017133D03*
X008814Y017093D03*
X008835Y017093D03*
X008855Y017093D03*
X008875Y017093D03*
X008855Y017052D03*
X008835Y017052D03*
X008814Y017052D03*
X008896Y017052D03*
X008916Y017052D03*
X008875Y016929D03*
X008855Y016929D03*
X008835Y016929D03*
X008814Y016929D03*
X008814Y016888D03*
D37*
X007987Y016607D03*
D38*
X007987Y016612D03*
D39*
X007982Y016618D03*
D40*
X007987Y016623D03*
D41*
X007982Y016628D03*
X007987Y019044D03*
D42*
X007987Y016633D03*
D43*
X007987Y016638D03*
X007982Y019034D03*
D44*
X007976Y019054D03*
X007956Y019054D03*
X007936Y019054D03*
X007915Y019054D03*
X007895Y019054D03*
X007874Y019054D03*
X007854Y019054D03*
X007997Y019054D03*
X008017Y019054D03*
X008038Y019054D03*
X008058Y019054D03*
X008079Y019054D03*
X008099Y019054D03*
X008119Y019054D03*
X008140Y019054D03*
X008160Y019054D03*
X008181Y019054D03*
X008201Y019054D03*
X008222Y019054D03*
X008242Y019054D03*
X008263Y019054D03*
X008549Y018891D03*
X008569Y018891D03*
X008589Y018891D03*
X008610Y018891D03*
X008630Y018891D03*
X008651Y018891D03*
X008671Y018891D03*
X008671Y018850D03*
X008651Y018850D03*
X008630Y018850D03*
X008692Y018850D03*
X008712Y018850D03*
X008732Y018850D03*
X008753Y018850D03*
X008753Y018523D03*
X008773Y018523D03*
X008794Y018523D03*
X008732Y018523D03*
X008712Y018523D03*
X008692Y018523D03*
X008671Y018523D03*
X008651Y018523D03*
X008630Y018523D03*
X008610Y018523D03*
X008589Y018523D03*
X008589Y018359D03*
X008569Y018359D03*
X008549Y018359D03*
X008528Y018359D03*
X008508Y018359D03*
X008610Y018359D03*
X008630Y018359D03*
X008651Y018359D03*
X008671Y018359D03*
X008692Y018359D03*
X008712Y018359D03*
X008732Y018359D03*
X008753Y018359D03*
X008773Y018359D03*
X008794Y018359D03*
X008978Y018523D03*
X008998Y018523D03*
X009018Y018523D03*
X009039Y018523D03*
X009080Y018359D03*
X009100Y018359D03*
X009121Y018359D03*
X009141Y018359D03*
X009182Y018032D03*
X009202Y018032D03*
X009223Y018032D03*
X009223Y017992D03*
X009243Y017992D03*
X009202Y017992D03*
X009182Y017992D03*
X009182Y017828D03*
X009202Y017828D03*
X009223Y017828D03*
X009243Y017828D03*
X009243Y017706D03*
X009223Y017706D03*
X009202Y017706D03*
X009182Y017706D03*
X009182Y017542D03*
X009202Y017542D03*
X009161Y017542D03*
X009161Y017501D03*
X009141Y017501D03*
X009182Y017501D03*
X009202Y017501D03*
X009059Y017174D03*
X009039Y017174D03*
X009018Y017174D03*
X008998Y017174D03*
X008937Y017011D03*
X008794Y017011D03*
X008773Y017011D03*
X008753Y017011D03*
X008732Y017011D03*
X008712Y017011D03*
X008692Y017011D03*
X008671Y017011D03*
X008651Y017011D03*
X008630Y017011D03*
X008610Y017011D03*
X008589Y017011D03*
X008569Y017011D03*
X008549Y017011D03*
X008528Y017011D03*
X008508Y017011D03*
X008487Y017011D03*
X008467Y017011D03*
X008446Y017011D03*
X008426Y017011D03*
X008406Y017011D03*
X008406Y016970D03*
X008426Y016970D03*
X008446Y016970D03*
X008467Y016970D03*
X008487Y016970D03*
X008508Y016970D03*
X008528Y016970D03*
X008549Y016970D03*
X008569Y016970D03*
X008589Y016970D03*
X008610Y016970D03*
X008630Y016970D03*
X008651Y016970D03*
X008671Y016970D03*
X008692Y016970D03*
X008712Y016970D03*
X008732Y016970D03*
X008753Y016970D03*
X008773Y016970D03*
X008794Y016970D03*
X008794Y017174D03*
X008773Y017174D03*
X008753Y017174D03*
X008732Y017174D03*
X008712Y017174D03*
X008692Y017174D03*
X008671Y017174D03*
X008651Y017174D03*
X008630Y017174D03*
X008610Y017174D03*
X008589Y017174D03*
X008569Y017174D03*
X008549Y017174D03*
X008528Y017174D03*
X008508Y017174D03*
X008487Y017174D03*
X008467Y017174D03*
X008446Y017174D03*
X008263Y017174D03*
X008242Y017174D03*
X008222Y017174D03*
X008201Y017174D03*
X008181Y017174D03*
X008160Y017174D03*
X008140Y017174D03*
X008119Y017174D03*
X008099Y017174D03*
X008079Y017174D03*
X008058Y017174D03*
X008038Y017174D03*
X008017Y017174D03*
X007997Y017174D03*
X007976Y017174D03*
X007956Y017174D03*
X007936Y017174D03*
X007915Y017174D03*
X007895Y017174D03*
X007874Y017174D03*
X007854Y017174D03*
X007854Y017011D03*
X007874Y017011D03*
X007895Y017011D03*
X007915Y017011D03*
X007936Y017011D03*
X007956Y017011D03*
X007976Y017011D03*
X007997Y017011D03*
X008017Y017011D03*
X008038Y017011D03*
X008058Y017011D03*
X008079Y017011D03*
X008099Y017011D03*
X008119Y017011D03*
X008140Y017011D03*
X008160Y017011D03*
X008181Y017011D03*
X008201Y017011D03*
X008222Y017011D03*
X008242Y017011D03*
X008263Y017011D03*
X008263Y016970D03*
X008242Y016970D03*
X008222Y016970D03*
X008201Y016970D03*
X008181Y016970D03*
X008160Y016970D03*
X008140Y016970D03*
X008119Y016970D03*
X008099Y016970D03*
X008079Y016970D03*
X008058Y016970D03*
X008038Y016970D03*
X008017Y016970D03*
X007997Y016970D03*
X007976Y016970D03*
X007956Y016970D03*
X007936Y016970D03*
X007915Y016970D03*
X007895Y016970D03*
X007874Y016970D03*
X007854Y016970D03*
X007711Y016970D03*
X007690Y016970D03*
X007670Y016970D03*
X007650Y016970D03*
X007629Y016970D03*
X007609Y016970D03*
X007588Y016970D03*
X007568Y016970D03*
X007547Y016970D03*
X007527Y016970D03*
X007507Y016970D03*
X007486Y016970D03*
X007466Y016970D03*
X007445Y016970D03*
X007425Y016970D03*
X007404Y016970D03*
X007384Y016970D03*
X007363Y016970D03*
X007343Y016970D03*
X007323Y016970D03*
X007323Y017011D03*
X007343Y017011D03*
X007363Y017011D03*
X007384Y017011D03*
X007404Y017011D03*
X007425Y017011D03*
X007445Y017011D03*
X007466Y017011D03*
X007486Y017011D03*
X007507Y017011D03*
X007527Y017011D03*
X007547Y017011D03*
X007568Y017011D03*
X007588Y017011D03*
X007609Y017011D03*
X007629Y017011D03*
X007650Y017011D03*
X007670Y017011D03*
X007690Y017011D03*
X007711Y017011D03*
X007568Y017174D03*
X007547Y017174D03*
X007527Y017174D03*
X007507Y017174D03*
X007486Y017174D03*
X007466Y017174D03*
X007445Y017174D03*
X007425Y017174D03*
X007404Y017174D03*
X007384Y017174D03*
X007363Y017174D03*
X007343Y017174D03*
X007323Y017174D03*
X007180Y017174D03*
X007159Y017174D03*
X007139Y017174D03*
X007118Y017174D03*
X007098Y017174D03*
X006975Y017174D03*
X006955Y017174D03*
X006934Y017174D03*
X006914Y017174D03*
X007037Y017011D03*
X007057Y017011D03*
X007077Y017011D03*
X007098Y017011D03*
X007118Y017011D03*
X007139Y017011D03*
X007159Y017011D03*
X007180Y017011D03*
X007180Y016970D03*
X007159Y016970D03*
X007139Y016970D03*
X007118Y016970D03*
X007098Y016970D03*
X007077Y016970D03*
X007057Y016970D03*
X007445Y016684D03*
X007466Y016684D03*
X007486Y016684D03*
X007507Y016684D03*
X007527Y016684D03*
X007547Y016684D03*
X007568Y016684D03*
X007588Y016684D03*
X007609Y016684D03*
X007629Y016684D03*
X007650Y016684D03*
X007670Y016684D03*
X007690Y016684D03*
X007711Y016684D03*
X007711Y016643D03*
X007690Y016643D03*
X007670Y016643D03*
X007650Y016643D03*
X007629Y016643D03*
X007609Y016643D03*
X007588Y016643D03*
X007568Y016643D03*
X007547Y016643D03*
X007854Y016643D03*
X007874Y016643D03*
X007895Y016643D03*
X007915Y016643D03*
X007936Y016643D03*
X007956Y016643D03*
X007976Y016643D03*
X007997Y016643D03*
X008017Y016643D03*
X008038Y016643D03*
X008058Y016643D03*
X008079Y016643D03*
X008099Y016643D03*
X008119Y016643D03*
X008140Y016643D03*
X008160Y016643D03*
X008181Y016643D03*
X008201Y016643D03*
X008222Y016643D03*
X008242Y016643D03*
X008263Y016643D03*
X008263Y016684D03*
X008242Y016684D03*
X008222Y016684D03*
X008201Y016684D03*
X008181Y016684D03*
X008160Y016684D03*
X008140Y016684D03*
X008119Y016684D03*
X008099Y016684D03*
X008079Y016684D03*
X008058Y016684D03*
X008038Y016684D03*
X008017Y016684D03*
X007997Y016684D03*
X007976Y016684D03*
X007956Y016684D03*
X007936Y016684D03*
X007915Y016684D03*
X007895Y016684D03*
X007874Y016684D03*
X007854Y016684D03*
X008406Y016684D03*
X008426Y016684D03*
X008446Y016684D03*
X008467Y016684D03*
X008487Y016684D03*
X008508Y016684D03*
X008406Y016643D03*
X008406Y017501D03*
X008426Y017501D03*
X008446Y017501D03*
X008467Y017501D03*
X008487Y017501D03*
X008508Y017501D03*
X008528Y017501D03*
X008549Y017501D03*
X008569Y017501D03*
X008589Y017501D03*
X008610Y017501D03*
X008630Y017501D03*
X008651Y017501D03*
X008671Y017501D03*
X008692Y017501D03*
X008651Y017542D03*
X008630Y017542D03*
X008610Y017542D03*
X008589Y017542D03*
X008569Y017542D03*
X008549Y017542D03*
X008528Y017542D03*
X008508Y017542D03*
X008487Y017542D03*
X008467Y017542D03*
X008446Y017542D03*
X008426Y017542D03*
X008406Y017542D03*
X008263Y017542D03*
X008242Y017542D03*
X008222Y017542D03*
X008201Y017542D03*
X008181Y017542D03*
X008160Y017542D03*
X008140Y017542D03*
X008119Y017542D03*
X008099Y017542D03*
X008079Y017542D03*
X008058Y017542D03*
X008038Y017542D03*
X008017Y017542D03*
X007997Y017542D03*
X007976Y017542D03*
X007956Y017542D03*
X007936Y017542D03*
X007915Y017542D03*
X007895Y017542D03*
X007874Y017542D03*
X007854Y017542D03*
X007854Y017501D03*
X007874Y017501D03*
X007895Y017501D03*
X007915Y017501D03*
X007936Y017501D03*
X007956Y017501D03*
X007976Y017501D03*
X007997Y017501D03*
X008017Y017501D03*
X008038Y017501D03*
X008058Y017501D03*
X008079Y017501D03*
X008099Y017501D03*
X008119Y017501D03*
X008140Y017501D03*
X008160Y017501D03*
X008181Y017501D03*
X008201Y017501D03*
X008222Y017501D03*
X008242Y017501D03*
X008263Y017501D03*
X008242Y017706D03*
X008222Y017706D03*
X008201Y017706D03*
X008181Y017706D03*
X008160Y017706D03*
X008140Y017706D03*
X008119Y017706D03*
X008099Y017706D03*
X008079Y017706D03*
X008058Y017706D03*
X008038Y017706D03*
X008017Y017706D03*
X007997Y017706D03*
X007976Y017706D03*
X007956Y017706D03*
X007936Y017706D03*
X007915Y017706D03*
X007895Y017706D03*
X007874Y017706D03*
X007854Y017706D03*
X007690Y017706D03*
X007670Y017706D03*
X007650Y017706D03*
X007629Y017706D03*
X007609Y017706D03*
X007588Y017706D03*
X007568Y017706D03*
X007547Y017706D03*
X007527Y017706D03*
X007507Y017706D03*
X007486Y017706D03*
X007466Y017706D03*
X007445Y017706D03*
X007425Y017706D03*
X007404Y017706D03*
X007384Y017706D03*
X007363Y017706D03*
X007343Y017706D03*
X007323Y017706D03*
X007323Y017828D03*
X007343Y017828D03*
X007363Y017828D03*
X007384Y017828D03*
X007404Y017828D03*
X007425Y017828D03*
X007445Y017828D03*
X007466Y017828D03*
X007486Y017828D03*
X007507Y017828D03*
X007527Y017828D03*
X007547Y017828D03*
X007568Y017828D03*
X007588Y017828D03*
X007609Y017828D03*
X007629Y017828D03*
X007650Y017828D03*
X007670Y017828D03*
X007629Y017992D03*
X007609Y017992D03*
X007588Y017992D03*
X007568Y017992D03*
X007547Y017992D03*
X007527Y017992D03*
X007507Y017992D03*
X007486Y017992D03*
X007466Y017992D03*
X007445Y017992D03*
X007425Y017992D03*
X007404Y017992D03*
X007384Y017992D03*
X007363Y017992D03*
X007343Y017992D03*
X007323Y017992D03*
X007323Y018032D03*
X007343Y018032D03*
X007363Y018032D03*
X007384Y018032D03*
X007404Y018032D03*
X007425Y018032D03*
X007445Y018032D03*
X007466Y018032D03*
X007486Y018032D03*
X007507Y018032D03*
X007527Y018032D03*
X007547Y018032D03*
X007568Y018032D03*
X007588Y018032D03*
X007609Y018032D03*
X007486Y018359D03*
X007466Y018359D03*
X007445Y018359D03*
X007425Y018359D03*
X007404Y018359D03*
X007384Y018359D03*
X007363Y018359D03*
X007343Y018359D03*
X007323Y018359D03*
X007180Y018359D03*
X007180Y018523D03*
X007323Y018523D03*
X007343Y018523D03*
X007363Y018523D03*
X007384Y018523D03*
X007404Y018523D03*
X007343Y018850D03*
X007323Y018850D03*
X007323Y018891D03*
X007343Y018891D03*
X007363Y018891D03*
X007384Y018891D03*
X007404Y018891D03*
X007425Y018891D03*
X007629Y019054D03*
X007650Y019054D03*
X007670Y019054D03*
X007690Y019054D03*
X007711Y019054D03*
X006996Y018523D03*
X006975Y018523D03*
X006955Y018523D03*
X006934Y018523D03*
X006894Y018359D03*
X006873Y018359D03*
X006853Y018359D03*
X006832Y018359D03*
X006791Y018032D03*
X006771Y018032D03*
X006771Y017992D03*
X006791Y017992D03*
X006771Y017828D03*
X006771Y017706D03*
X006791Y017706D03*
X006791Y017542D03*
X006771Y017542D03*
X006771Y017501D03*
X006791Y017501D03*
X006812Y017501D03*
X006812Y017542D03*
X007323Y017542D03*
X007343Y017542D03*
X007363Y017542D03*
X007384Y017542D03*
X007404Y017542D03*
X007425Y017542D03*
X007445Y017542D03*
X007466Y017542D03*
X007486Y017542D03*
X007507Y017542D03*
X007527Y017542D03*
X007547Y017542D03*
X007568Y017542D03*
X007588Y017542D03*
X007609Y017542D03*
X007629Y017542D03*
X007650Y017542D03*
X007670Y017542D03*
X007690Y017542D03*
X007711Y017542D03*
X007711Y017501D03*
X007690Y017501D03*
X007670Y017501D03*
X007650Y017501D03*
X007629Y017501D03*
X007609Y017501D03*
X007588Y017501D03*
X007568Y017501D03*
X007547Y017501D03*
X007527Y017501D03*
X007507Y017501D03*
X007486Y017501D03*
X007466Y017501D03*
X007445Y017501D03*
X007425Y017501D03*
X007404Y017501D03*
X007384Y017501D03*
X007363Y017501D03*
X007343Y017501D03*
X007323Y017501D03*
X008406Y017706D03*
X008426Y017706D03*
X008446Y017706D03*
X008467Y017706D03*
X008487Y017706D03*
X008508Y017706D03*
X008528Y017706D03*
X008549Y017706D03*
X008569Y017706D03*
X008589Y017706D03*
X008610Y017706D03*
X008630Y017706D03*
X008651Y017706D03*
X008671Y017706D03*
X008692Y017706D03*
X008712Y017706D03*
X008712Y017828D03*
X008732Y017828D03*
X008692Y017828D03*
X008671Y017828D03*
X008651Y017828D03*
X008630Y017828D03*
X008610Y017828D03*
X008589Y017828D03*
X008569Y017828D03*
X008549Y017828D03*
X008528Y017828D03*
X008508Y017828D03*
X008487Y017828D03*
X008467Y017828D03*
X008446Y017828D03*
X008426Y017828D03*
X008406Y017828D03*
X008406Y017992D03*
X008426Y017992D03*
X008446Y017992D03*
X008467Y017992D03*
X008487Y017992D03*
X008508Y017992D03*
X008528Y017992D03*
X008549Y017992D03*
X008569Y017992D03*
X008589Y017992D03*
X008610Y017992D03*
X008630Y017992D03*
X008651Y017992D03*
X008671Y017992D03*
X008692Y017992D03*
X008712Y017992D03*
X008732Y017992D03*
X008753Y017992D03*
X008773Y017992D03*
X008773Y018032D03*
X008753Y018032D03*
X008732Y018032D03*
X008712Y018032D03*
X008692Y018032D03*
X008671Y018032D03*
X008651Y018032D03*
X008630Y018032D03*
X008610Y018032D03*
X008589Y018032D03*
X008569Y018032D03*
X008549Y018032D03*
X008528Y018032D03*
X008508Y018032D03*
X008487Y018032D03*
X008467Y018032D03*
X008446Y018032D03*
X008426Y018032D03*
X008406Y018032D03*
D45*
X008385Y018032D03*
X008385Y017992D03*
X008365Y017992D03*
X008365Y017828D03*
X008385Y017828D03*
X008344Y017828D03*
X008324Y017828D03*
X008324Y017706D03*
X008344Y017706D03*
X008365Y017706D03*
X008385Y017706D03*
X008303Y017706D03*
X008303Y017542D03*
X008283Y017542D03*
X008283Y017501D03*
X008303Y017501D03*
X008324Y017501D03*
X008344Y017501D03*
X008365Y017501D03*
X008385Y017501D03*
X008385Y017542D03*
X008365Y017542D03*
X008344Y017542D03*
X008324Y017542D03*
X008324Y017011D03*
X008344Y017011D03*
X008365Y017011D03*
X008385Y017011D03*
X008385Y016970D03*
X008365Y016970D03*
X008344Y016970D03*
X008324Y016970D03*
X008303Y016970D03*
X008283Y016970D03*
X008283Y017011D03*
X008303Y017011D03*
X008303Y016684D03*
X008283Y016684D03*
X008324Y016684D03*
X008344Y016684D03*
X008365Y016684D03*
X008385Y016684D03*
X008385Y016643D03*
X008365Y016643D03*
X008344Y016643D03*
X008324Y016643D03*
X008303Y016643D03*
X008283Y016643D03*
X007833Y016643D03*
X007813Y016643D03*
X007793Y016643D03*
X007772Y016643D03*
X007752Y016643D03*
X007731Y016643D03*
X007731Y016684D03*
X007752Y016684D03*
X007772Y016684D03*
X007793Y016684D03*
X007813Y016684D03*
X007833Y016684D03*
X007833Y016970D03*
X007813Y016970D03*
X007793Y016970D03*
X007772Y016970D03*
X007752Y016970D03*
X007731Y016970D03*
X007731Y017011D03*
X007752Y017011D03*
X007772Y017011D03*
X007793Y017011D03*
X007813Y017011D03*
X007833Y017011D03*
X007833Y017174D03*
X007813Y017174D03*
X007793Y017174D03*
X007772Y017174D03*
X007752Y017174D03*
X007752Y017501D03*
X007772Y017501D03*
X007793Y017501D03*
X007813Y017501D03*
X007833Y017501D03*
X007833Y017542D03*
X007813Y017542D03*
X007793Y017542D03*
X007772Y017542D03*
X007752Y017542D03*
X007731Y017542D03*
X007731Y017501D03*
X007731Y017706D03*
X007752Y017706D03*
X007772Y017706D03*
X007793Y017706D03*
X007813Y017706D03*
X007833Y017706D03*
X007302Y017706D03*
X007282Y017706D03*
X007282Y017828D03*
X007302Y017828D03*
X007261Y017828D03*
X007241Y017828D03*
X007241Y017992D03*
X007261Y017992D03*
X007282Y017992D03*
X007302Y017992D03*
X007302Y018032D03*
X007282Y018032D03*
X007261Y018032D03*
X007241Y018032D03*
X007220Y018032D03*
X007200Y018032D03*
X007220Y017992D03*
X007220Y018359D03*
X007200Y018359D03*
X007241Y018359D03*
X007261Y018359D03*
X007282Y018359D03*
X007302Y018359D03*
X007302Y018523D03*
X007282Y018523D03*
X007261Y018523D03*
X007241Y018523D03*
X007220Y018523D03*
X007200Y018523D03*
X007220Y018850D03*
X007241Y018850D03*
X007261Y018850D03*
X007282Y018850D03*
X007302Y018850D03*
X007302Y018891D03*
X007282Y018891D03*
X007731Y019054D03*
X007752Y019054D03*
X007772Y019054D03*
X007793Y019054D03*
X007813Y019054D03*
X007833Y019054D03*
X008283Y019054D03*
X008303Y019054D03*
X008324Y019054D03*
X008344Y019054D03*
X008814Y018359D03*
X008814Y017174D03*
X008835Y017174D03*
X008855Y017174D03*
X008875Y017174D03*
X008875Y017011D03*
X008855Y017011D03*
X008835Y017011D03*
X008814Y017011D03*
X008814Y016970D03*
X008835Y016970D03*
X008855Y016970D03*
X008875Y016970D03*
X008896Y016970D03*
X008896Y017011D03*
X008916Y017011D03*
X007302Y017011D03*
X007282Y017011D03*
X007261Y017011D03*
X007241Y017011D03*
X007220Y017011D03*
X007200Y017011D03*
X007200Y016970D03*
X007220Y016970D03*
X007241Y016970D03*
X007261Y016970D03*
X007282Y016970D03*
X007302Y016970D03*
X007302Y017174D03*
X007282Y017174D03*
X007261Y017174D03*
X007241Y017174D03*
X007220Y017174D03*
X007200Y017174D03*
X007282Y017501D03*
X007302Y017501D03*
X006751Y017542D03*
X006751Y017706D03*
X006730Y017706D03*
X006730Y017828D03*
X006751Y017828D03*
X006751Y017992D03*
X006730Y017992D03*
X006730Y018032D03*
X006751Y018032D03*
D46*
X007982Y016648D03*
D47*
X007987Y016653D03*
D48*
X007486Y016658D03*
X007466Y016669D03*
X007685Y017389D03*
X008017Y017741D03*
X008079Y017731D03*
X008119Y017731D03*
X008237Y017338D03*
X008451Y017338D03*
X008707Y017665D03*
X008411Y018155D03*
X008589Y018548D03*
X008927Y018559D03*
X009161Y018334D03*
X009218Y018155D03*
X009259Y017869D03*
X008886Y016924D03*
X007583Y018155D03*
X007251Y017741D03*
X006817Y017338D03*
X007037Y018548D03*
X007312Y018814D03*
X007721Y019090D03*
X007741Y019090D03*
X008217Y019003D03*
X008273Y019080D03*
D49*
X007987Y016658D03*
D50*
X007982Y016664D03*
D51*
X007982Y016669D03*
D52*
X007987Y016674D03*
D53*
X007984Y016679D03*
D54*
X008526Y016684D03*
X009220Y017542D03*
X009164Y018032D03*
X009062Y018359D03*
X008689Y018891D03*
X008750Y017828D03*
D55*
X007982Y016689D03*
D56*
X007982Y016694D03*
D57*
X007982Y016699D03*
D58*
X007982Y016704D03*
D59*
X007982Y016710D03*
D60*
X007982Y016715D03*
D61*
X007987Y016720D03*
D62*
X007987Y016730D03*
D63*
X007987Y016735D03*
D64*
X007982Y016740D03*
D65*
X007984Y016745D03*
D66*
X007987Y016750D03*
D67*
X007987Y016755D03*
D68*
X007982Y016761D03*
X007997Y017568D03*
X007997Y017573D03*
D69*
X007987Y016771D03*
D70*
X007987Y016776D03*
D71*
X007982Y016781D03*
D72*
X007982Y016786D03*
X007997Y017670D03*
D73*
X007997Y017700D03*
X007987Y017496D03*
X007987Y016791D03*
D74*
X007987Y016796D03*
D75*
X007987Y016801D03*
D76*
X007833Y016807D03*
X007813Y016807D03*
X007793Y016807D03*
X007772Y016807D03*
X007752Y016807D03*
X007731Y016807D03*
X007731Y016847D03*
X007752Y016847D03*
X007772Y016847D03*
X007793Y016847D03*
X007813Y016847D03*
X007833Y016847D03*
X007833Y017338D03*
X007813Y017338D03*
X007793Y017338D03*
X007772Y017338D03*
X007772Y017665D03*
X007752Y017665D03*
X007731Y017665D03*
X007793Y017665D03*
X007813Y017665D03*
X007833Y017665D03*
X008283Y017665D03*
X008303Y017665D03*
X008324Y017665D03*
X008344Y017665D03*
X008365Y017665D03*
X008385Y017665D03*
X008385Y017869D03*
X008365Y017869D03*
X008344Y017869D03*
X008324Y017869D03*
X008814Y017338D03*
X008385Y016847D03*
X008365Y016847D03*
X008344Y016847D03*
X008324Y016847D03*
X008303Y016847D03*
X008283Y016847D03*
X008283Y016807D03*
X008303Y016807D03*
X008324Y016807D03*
X008344Y016807D03*
X008365Y016807D03*
X008385Y016807D03*
X007302Y016807D03*
X007282Y016807D03*
X007261Y016807D03*
X007241Y016807D03*
X007241Y016847D03*
X007261Y016847D03*
X007282Y016847D03*
X007302Y016847D03*
X007220Y016847D03*
X007200Y016847D03*
X007200Y017338D03*
X007220Y017338D03*
X007241Y017338D03*
X007261Y017338D03*
X007282Y017338D03*
X007302Y017338D03*
X007302Y017665D03*
X007302Y017869D03*
X007282Y017869D03*
X007261Y017869D03*
X007241Y017869D03*
X007241Y018155D03*
X007261Y018155D03*
X007282Y018155D03*
X007302Y018155D03*
X007302Y018196D03*
X007282Y018196D03*
X007261Y018196D03*
X007241Y018196D03*
X007220Y018196D03*
X007200Y018196D03*
X007200Y018155D03*
X007220Y018155D03*
X006751Y017869D03*
X006730Y017869D03*
X006730Y017665D03*
X006751Y017665D03*
X007731Y019013D03*
X007752Y019013D03*
X007772Y019013D03*
X008283Y019013D03*
X008303Y019013D03*
X008324Y019013D03*
X008344Y019013D03*
X008365Y019013D03*
X008385Y019013D03*
X008835Y018686D03*
X008855Y018686D03*
X008875Y018686D03*
X008896Y018686D03*
X008916Y018686D03*
D77*
X008794Y018196D03*
X008773Y018196D03*
X008753Y018196D03*
X008732Y018196D03*
X008712Y018196D03*
X008692Y018196D03*
X008671Y018196D03*
X008651Y018196D03*
X008630Y018196D03*
X008610Y018196D03*
X008589Y018196D03*
X008569Y018196D03*
X008549Y018196D03*
X008528Y018196D03*
X008508Y018196D03*
X008487Y018196D03*
X008467Y018196D03*
X008446Y018196D03*
X008426Y018196D03*
X008426Y018155D03*
X008446Y018155D03*
X008467Y018155D03*
X008487Y018155D03*
X008508Y018155D03*
X008528Y018155D03*
X008549Y018155D03*
X008569Y018155D03*
X008589Y018155D03*
X008610Y018155D03*
X008630Y018155D03*
X008651Y018155D03*
X008671Y018155D03*
X008692Y018155D03*
X008712Y018155D03*
X008732Y018155D03*
X008753Y018155D03*
X008773Y018155D03*
X008794Y018155D03*
X008753Y017869D03*
X008732Y017869D03*
X008712Y017869D03*
X008692Y017869D03*
X008671Y017869D03*
X008651Y017869D03*
X008630Y017869D03*
X008610Y017869D03*
X008589Y017869D03*
X008569Y017869D03*
X008549Y017869D03*
X008528Y017869D03*
X008508Y017869D03*
X008487Y017869D03*
X008467Y017869D03*
X008446Y017869D03*
X008426Y017869D03*
X008406Y017869D03*
X008406Y017665D03*
X008426Y017665D03*
X008446Y017665D03*
X008467Y017665D03*
X008487Y017665D03*
X008508Y017665D03*
X008528Y017665D03*
X008549Y017665D03*
X008569Y017665D03*
X008589Y017665D03*
X008610Y017665D03*
X008630Y017665D03*
X008651Y017665D03*
X008671Y017665D03*
X008692Y017665D03*
X008692Y017338D03*
X008712Y017338D03*
X008732Y017338D03*
X008753Y017338D03*
X008773Y017338D03*
X008794Y017338D03*
X008671Y017338D03*
X008651Y017338D03*
X008630Y017338D03*
X008610Y017338D03*
X008589Y017338D03*
X008569Y017338D03*
X008549Y017338D03*
X008528Y017338D03*
X008508Y017338D03*
X008487Y017338D03*
X008467Y017338D03*
X008222Y017338D03*
X008201Y017338D03*
X008181Y017338D03*
X008160Y017338D03*
X008140Y017338D03*
X008119Y017338D03*
X008099Y017338D03*
X008079Y017338D03*
X008058Y017338D03*
X008038Y017338D03*
X008017Y017338D03*
X007997Y017338D03*
X007976Y017338D03*
X007956Y017338D03*
X007936Y017338D03*
X007915Y017338D03*
X007895Y017338D03*
X007874Y017338D03*
X007854Y017338D03*
X007547Y017338D03*
X007527Y017338D03*
X007507Y017338D03*
X007486Y017338D03*
X007466Y017338D03*
X007445Y017338D03*
X007425Y017338D03*
X007404Y017338D03*
X007384Y017338D03*
X007363Y017338D03*
X007343Y017338D03*
X007323Y017338D03*
X007180Y017338D03*
X007159Y017338D03*
X007139Y017338D03*
X006894Y017338D03*
X006873Y017338D03*
X006853Y017338D03*
X006832Y017338D03*
X006791Y017665D03*
X006771Y017665D03*
X006771Y017869D03*
X006771Y018155D03*
X006791Y018155D03*
X006812Y018155D03*
X006812Y018196D03*
X006832Y018196D03*
X006791Y018196D03*
X006771Y018196D03*
X007180Y018196D03*
X007323Y018196D03*
X007343Y018196D03*
X007363Y018196D03*
X007384Y018196D03*
X007404Y018196D03*
X007425Y018196D03*
X007445Y018196D03*
X007466Y018196D03*
X007486Y018196D03*
X007507Y018196D03*
X007527Y018196D03*
X007547Y018196D03*
X007547Y018155D03*
X007527Y018155D03*
X007507Y018155D03*
X007486Y018155D03*
X007466Y018155D03*
X007445Y018155D03*
X007425Y018155D03*
X007404Y018155D03*
X007384Y018155D03*
X007363Y018155D03*
X007343Y018155D03*
X007323Y018155D03*
X007568Y018155D03*
X007568Y017869D03*
X007588Y017869D03*
X007609Y017869D03*
X007629Y017869D03*
X007650Y017869D03*
X007670Y017869D03*
X007547Y017869D03*
X007527Y017869D03*
X007507Y017869D03*
X007486Y017869D03*
X007466Y017869D03*
X007445Y017869D03*
X007425Y017869D03*
X007404Y017869D03*
X007384Y017869D03*
X007363Y017869D03*
X007343Y017869D03*
X007323Y017869D03*
X007323Y017665D03*
X007343Y017665D03*
X007363Y017665D03*
X007384Y017665D03*
X007404Y017665D03*
X007425Y017665D03*
X007445Y017665D03*
X007466Y017665D03*
X007486Y017665D03*
X007507Y017665D03*
X007527Y017665D03*
X007547Y017665D03*
X007568Y017665D03*
X007588Y017665D03*
X007609Y017665D03*
X007629Y017665D03*
X007650Y017665D03*
X007670Y017665D03*
X007690Y017665D03*
X007711Y017665D03*
X007854Y017665D03*
X007874Y017665D03*
X007895Y017665D03*
X007915Y017665D03*
X007936Y017665D03*
X007956Y017665D03*
X007976Y017665D03*
X007997Y017665D03*
X008017Y017665D03*
X008038Y017665D03*
X008058Y017665D03*
X008079Y017665D03*
X008099Y017665D03*
X008119Y017665D03*
X008140Y017665D03*
X008160Y017665D03*
X008181Y017665D03*
X008201Y017665D03*
X008222Y017665D03*
X008242Y017665D03*
X008263Y017665D03*
X008263Y016847D03*
X008242Y016847D03*
X008222Y016847D03*
X008201Y016847D03*
X008181Y016847D03*
X008160Y016847D03*
X008140Y016847D03*
X008119Y016847D03*
X008099Y016847D03*
X008079Y016847D03*
X008058Y016847D03*
X008038Y016847D03*
X008017Y016847D03*
X007997Y016847D03*
X007976Y016847D03*
X007956Y016847D03*
X007936Y016847D03*
X007915Y016847D03*
X007895Y016847D03*
X007874Y016847D03*
X007854Y016847D03*
X007854Y016807D03*
X007874Y016807D03*
X007895Y016807D03*
X007915Y016807D03*
X007936Y016807D03*
X007956Y016807D03*
X007976Y016807D03*
X007997Y016807D03*
X008017Y016807D03*
X008038Y016807D03*
X008058Y016807D03*
X008079Y016807D03*
X008099Y016807D03*
X008119Y016807D03*
X008140Y016807D03*
X008160Y016807D03*
X008181Y016807D03*
X008201Y016807D03*
X008222Y016807D03*
X008242Y016807D03*
X008263Y016807D03*
X008406Y016807D03*
X008426Y016807D03*
X008446Y016807D03*
X008467Y016807D03*
X008487Y016807D03*
X008508Y016807D03*
X008528Y016807D03*
X008549Y016807D03*
X008569Y016807D03*
X008589Y016807D03*
X008610Y016807D03*
X008630Y016807D03*
X008651Y016807D03*
X008671Y016807D03*
X008692Y016807D03*
X008712Y016807D03*
X008732Y016807D03*
X008732Y016847D03*
X008712Y016847D03*
X008692Y016847D03*
X008671Y016847D03*
X008651Y016847D03*
X008630Y016847D03*
X008610Y016847D03*
X008589Y016847D03*
X008569Y016847D03*
X008549Y016847D03*
X008528Y016847D03*
X008508Y016847D03*
X008487Y016847D03*
X008467Y016847D03*
X008446Y016847D03*
X008426Y016847D03*
X008406Y016847D03*
X008753Y016847D03*
X008773Y016847D03*
X009080Y017338D03*
X009100Y017338D03*
X009121Y017338D03*
X009141Y017338D03*
X009182Y017665D03*
X009202Y017665D03*
X009223Y017665D03*
X009243Y017665D03*
X009243Y017869D03*
X009223Y017869D03*
X009202Y017869D03*
X009182Y017869D03*
X009182Y018155D03*
X009202Y018155D03*
X009161Y018155D03*
X009141Y018155D03*
X009141Y018196D03*
X009161Y018196D03*
X009182Y018196D03*
X008446Y019013D03*
X008426Y019013D03*
X008406Y019013D03*
X008263Y019013D03*
X008242Y019013D03*
X008222Y019013D03*
X008201Y019013D03*
X008181Y019013D03*
X007711Y019013D03*
X007690Y019013D03*
X007670Y019013D03*
X007650Y019013D03*
X007629Y019013D03*
X007609Y019013D03*
X007588Y019013D03*
X007568Y019013D03*
X007547Y019013D03*
X007527Y019013D03*
X007507Y019013D03*
X007139Y018686D03*
X007118Y018686D03*
X007098Y018686D03*
X007077Y018686D03*
X007057Y018686D03*
X007323Y016847D03*
X007343Y016847D03*
X007363Y016847D03*
X007384Y016847D03*
X007404Y016847D03*
X007425Y016847D03*
X007445Y016847D03*
X007466Y016847D03*
X007486Y016847D03*
X007507Y016847D03*
X007527Y016847D03*
X007547Y016847D03*
X007568Y016847D03*
X007588Y016847D03*
X007609Y016847D03*
X007629Y016847D03*
X007650Y016847D03*
X007670Y016847D03*
X007690Y016847D03*
X007711Y016847D03*
X007711Y016807D03*
X007690Y016807D03*
X007670Y016807D03*
X007650Y016807D03*
X007629Y016807D03*
X007609Y016807D03*
X007588Y016807D03*
X007568Y016807D03*
X007547Y016807D03*
X007527Y016807D03*
X007507Y016807D03*
X007486Y016807D03*
X007466Y016807D03*
X007445Y016807D03*
X007425Y016807D03*
X007404Y016807D03*
X007384Y016807D03*
X007363Y016807D03*
X007343Y016807D03*
X007323Y016807D03*
D78*
X007984Y016812D03*
D79*
X007982Y016817D03*
D80*
X007984Y016822D03*
D81*
X007982Y016827D03*
X007987Y017445D03*
D82*
X007987Y016832D03*
D83*
X007984Y016837D03*
X007984Y017430D03*
D84*
X007987Y016842D03*
D85*
X007984Y016853D03*
D86*
X007987Y016858D03*
X007987Y017399D03*
D87*
X007984Y016863D03*
D88*
X007987Y016868D03*
D89*
X007984Y016873D03*
D90*
X007984Y016878D03*
D91*
X007982Y016883D03*
D92*
X007982Y016893D03*
D93*
X007982Y016898D03*
D94*
X007982Y016904D03*
D95*
X007982Y016909D03*
D96*
X007984Y016914D03*
D97*
X007982Y016919D03*
D98*
X007982Y016924D03*
X007987Y017072D03*
D99*
X007984Y017123D03*
X007984Y016934D03*
D100*
X007987Y016939D03*
D101*
X007987Y016944D03*
D102*
X007987Y016950D03*
D103*
X007984Y016955D03*
D104*
X007982Y016960D03*
D105*
X007984Y016965D03*
D106*
X007982Y016975D03*
D107*
X007982Y016980D03*
D108*
X007982Y016985D03*
D109*
X007984Y016990D03*
D110*
X007984Y016996D03*
D111*
X007984Y017001D03*
D112*
X007984Y017006D03*
D113*
X007984Y017016D03*
D114*
X007987Y017021D03*
D115*
X007987Y017026D03*
D116*
X007984Y017031D03*
D117*
X007984Y017036D03*
D118*
X007984Y017042D03*
D119*
X007930Y017047D03*
D120*
X008937Y017047D03*
X008972Y018574D03*
X008932Y018625D03*
X007067Y018661D03*
X007006Y017087D03*
D121*
X007075Y017052D03*
X006876Y017215D03*
X007647Y017951D03*
X008219Y017297D03*
X008219Y017256D03*
X008689Y017624D03*
X008771Y017910D03*
X009077Y018482D03*
X009123Y017460D03*
X007034Y018564D03*
X006973Y018482D03*
D122*
X007006Y018589D03*
X007026Y018620D03*
X007042Y018630D03*
X007047Y018640D03*
X007062Y018656D03*
X007088Y018681D03*
X007103Y018696D03*
X007123Y018717D03*
X007026Y017057D03*
X008891Y018666D03*
X008916Y018640D03*
X008937Y018620D03*
X008957Y018589D03*
X008978Y017108D03*
X008957Y017077D03*
D123*
X007982Y017067D03*
X007982Y017057D03*
D124*
X008944Y017057D03*
X009041Y018477D03*
X009011Y018518D03*
X008995Y018538D03*
X008944Y018615D03*
X007264Y018630D03*
X006993Y018569D03*
X006983Y017118D03*
X007008Y017082D03*
D125*
X007021Y017062D03*
X007021Y018610D03*
X007083Y018676D03*
X008957Y018599D03*
X008952Y017072D03*
D126*
X007984Y017062D03*
D127*
X008947Y017062D03*
X008978Y017113D03*
X008988Y017123D03*
X009044Y017200D03*
X009075Y017261D03*
X009070Y018421D03*
X008983Y018559D03*
X006980Y018548D03*
X006924Y018472D03*
X006894Y018410D03*
X006894Y017261D03*
X006899Y017251D03*
X006919Y017210D03*
D128*
X006975Y017128D03*
X007011Y017077D03*
X007016Y017067D03*
X007011Y018594D03*
X007072Y018666D03*
X007077Y018671D03*
X007098Y018691D03*
X007113Y018707D03*
X008901Y018656D03*
X008927Y018630D03*
X008967Y018579D03*
X008962Y017082D03*
X008947Y017067D03*
D129*
X008990Y018548D03*
X006988Y018559D03*
X006978Y017123D03*
X007014Y017072D03*
D130*
X007984Y017077D03*
X007984Y017082D03*
D131*
X007987Y017087D03*
X007987Y017098D03*
D132*
X008965Y017087D03*
X007116Y018712D03*
D133*
X006871Y018278D03*
X006789Y017910D03*
X006789Y017746D03*
X006733Y017624D03*
X007100Y017256D03*
X007264Y017746D03*
X008852Y017297D03*
X009016Y017093D03*
X008995Y018605D03*
D134*
X008965Y018584D03*
X009001Y017139D03*
X008970Y017098D03*
X006998Y017098D03*
X007034Y018625D03*
D135*
X007001Y018579D03*
X006975Y018543D03*
X006970Y018538D03*
X006960Y018518D03*
X006950Y018507D03*
X006945Y018502D03*
X006929Y018477D03*
X006914Y018451D03*
X006904Y018431D03*
X006899Y018426D03*
X006899Y018416D03*
X006888Y018405D03*
X006883Y018390D03*
X006878Y017292D03*
X006883Y017282D03*
X006888Y017271D03*
X006894Y017266D03*
X006904Y017246D03*
X006909Y017231D03*
X006924Y017205D03*
X006929Y017190D03*
X006940Y017179D03*
X006945Y017169D03*
X006991Y017108D03*
X006996Y017103D03*
X008983Y017118D03*
X009003Y017144D03*
X009008Y017154D03*
X009018Y017164D03*
X009024Y017169D03*
X009034Y017190D03*
X009039Y017195D03*
X009054Y017220D03*
X009064Y017241D03*
X009080Y017271D03*
X009085Y017282D03*
X009105Y018354D03*
X009095Y018375D03*
X009090Y018380D03*
X009075Y018405D03*
X009075Y018416D03*
X009054Y018456D03*
X009044Y018467D03*
X009029Y018492D03*
X009003Y018528D03*
X008988Y018553D03*
D136*
X007982Y017103D03*
D137*
X008975Y017103D03*
X008975Y018569D03*
X008955Y018594D03*
X007024Y018615D03*
D138*
X007984Y017144D03*
X007984Y017128D03*
X007984Y017118D03*
X007984Y017108D03*
D139*
X006986Y017113D03*
D140*
X007982Y017113D03*
D141*
X008993Y017128D03*
X009013Y018507D03*
X006986Y018553D03*
X006965Y018528D03*
X006965Y017144D03*
D142*
X006960Y017149D03*
X006955Y017159D03*
X006970Y017139D03*
X006934Y017185D03*
X006883Y017276D03*
X006878Y018385D03*
X006888Y018395D03*
X006909Y018446D03*
X006934Y018487D03*
X006940Y018497D03*
X006955Y018513D03*
X006996Y018574D03*
X008722Y018625D03*
X008998Y018533D03*
X009024Y018497D03*
X009034Y018487D03*
X009064Y018436D03*
X009085Y018395D03*
X009085Y018385D03*
X009095Y017302D03*
X009090Y017287D03*
X009003Y017149D03*
D143*
X007982Y017149D03*
X007982Y017139D03*
D144*
X006957Y017154D03*
X006952Y017164D03*
X006911Y017220D03*
X006901Y017241D03*
X006860Y017333D03*
X006758Y017946D03*
X006840Y018293D03*
X006871Y018364D03*
X006876Y018375D03*
X006917Y018456D03*
X006922Y018467D03*
X006937Y018492D03*
X009067Y018426D03*
X009098Y018364D03*
X009123Y018303D03*
X009200Y018048D03*
X009184Y017557D03*
X009103Y017322D03*
X009098Y017307D03*
X009077Y017266D03*
X009067Y017246D03*
X009062Y017231D03*
D145*
X008002Y017190D03*
X007343Y017154D03*
D146*
X008007Y017154D03*
D147*
X008638Y017154D03*
D148*
X007348Y017159D03*
D149*
X008002Y017159D03*
D150*
X008007Y017185D03*
X008635Y017159D03*
D151*
X009013Y017159D03*
X009013Y018513D03*
X007261Y018635D03*
X006965Y018533D03*
D152*
X007982Y019085D03*
X008002Y017358D03*
X007338Y017164D03*
D153*
X008007Y017164D03*
D154*
X008653Y017164D03*
X007320Y017205D03*
D155*
X007341Y017169D03*
D156*
X008002Y017169D03*
D157*
X007997Y017195D03*
X008002Y017333D03*
X008002Y017343D03*
X007982Y017711D03*
X008646Y017169D03*
D158*
X007330Y017179D03*
D159*
X008002Y017179D03*
D160*
X008656Y017179D03*
X007318Y017220D03*
D161*
X006845Y018313D03*
X006865Y018354D03*
X008990Y018543D03*
X009113Y017343D03*
X009093Y017292D03*
X009031Y017179D03*
D162*
X007323Y017185D03*
D163*
X007318Y017225D03*
X007455Y017843D03*
X007445Y017895D03*
X008002Y017236D03*
X008002Y017225D03*
X008549Y017895D03*
X008656Y017185D03*
D164*
X009031Y017185D03*
X009128Y017374D03*
X006906Y017236D03*
X006906Y018436D03*
D165*
X007323Y017190D03*
D166*
X007312Y017231D03*
X007384Y017384D03*
X007455Y017864D03*
X007445Y017884D03*
X007435Y017925D03*
X008002Y017317D03*
X008002Y017307D03*
X008002Y017246D03*
X008002Y017241D03*
X008518Y017782D03*
X008523Y017797D03*
X008528Y017813D03*
X008528Y017823D03*
X008533Y017838D03*
X008538Y017864D03*
X008661Y017190D03*
D167*
X009110Y017333D03*
X009126Y017368D03*
X009131Y017384D03*
X009131Y017394D03*
X009151Y017435D03*
X009167Y017481D03*
X009172Y017496D03*
X009172Y017506D03*
X009192Y017593D03*
X009192Y017598D03*
X009192Y017608D03*
X009207Y017675D03*
X009207Y017685D03*
X009207Y017695D03*
X009213Y017700D03*
X009213Y017711D03*
X009213Y017721D03*
X009213Y017762D03*
X009213Y017915D03*
X009213Y017925D03*
X009213Y017935D03*
X009213Y017946D03*
X009213Y017976D03*
X009207Y017986D03*
X009207Y017997D03*
X009207Y018002D03*
X009207Y018012D03*
X009192Y018078D03*
X009192Y018089D03*
X009192Y018099D03*
X009187Y018104D03*
X009167Y018186D03*
X009156Y018227D03*
X009151Y018242D03*
X009146Y018252D03*
X009136Y018267D03*
X009131Y018288D03*
X009131Y018293D03*
X009116Y018329D03*
X009054Y018451D03*
X007261Y018640D03*
X006863Y018349D03*
X006842Y018303D03*
X006827Y018267D03*
X006822Y018252D03*
X006791Y018160D03*
X006791Y018150D03*
X006791Y018140D03*
X006786Y018135D03*
X006771Y018078D03*
X006771Y018048D03*
X006766Y018038D03*
X006766Y018027D03*
X006766Y018022D03*
X006751Y017925D03*
X006751Y017915D03*
X006751Y017884D03*
X006751Y017874D03*
X006751Y017864D03*
X006751Y017833D03*
X006751Y017823D03*
X006751Y017813D03*
X006751Y017782D03*
X006751Y017772D03*
X006751Y017762D03*
X006766Y017644D03*
X006766Y017634D03*
X006771Y017619D03*
X006771Y017608D03*
X006771Y017598D03*
X006786Y017537D03*
X006786Y017532D03*
X006812Y017455D03*
X006812Y017445D03*
X006827Y017409D03*
X006832Y017404D03*
X006832Y017394D03*
X006848Y017358D03*
X006853Y017353D03*
X006853Y017343D03*
X006863Y017322D03*
X006868Y017317D03*
X006868Y017307D03*
X006929Y017195D03*
D168*
X007323Y017195D03*
X008007Y017205D03*
D169*
X007486Y017711D03*
X007481Y017736D03*
X007409Y018022D03*
X007409Y018038D03*
X007353Y017353D03*
X007323Y017292D03*
X007318Y017266D03*
X008564Y017971D03*
X008569Y017997D03*
X008574Y018012D03*
X008574Y018022D03*
X008579Y018027D03*
X008579Y018038D03*
X008579Y018048D03*
X008666Y017205D03*
X008666Y017195D03*
D170*
X009072Y017251D03*
X009133Y018273D03*
X009072Y018410D03*
X006927Y017200D03*
D171*
X007323Y017200D03*
X008002Y017328D03*
X007987Y019090D03*
D172*
X008002Y017200D03*
D173*
X008002Y017251D03*
X008002Y017261D03*
X008513Y017741D03*
X008513Y017752D03*
X008666Y017200D03*
X007466Y017792D03*
D174*
X006761Y017700D03*
X006756Y017711D03*
X006756Y017721D03*
X006756Y017726D03*
X006756Y017736D03*
X006761Y017670D03*
X006761Y017660D03*
X006776Y017593D03*
X006781Y017568D03*
X006781Y017557D03*
X006781Y017547D03*
X006802Y017496D03*
X006802Y017486D03*
X006817Y017435D03*
X006817Y017430D03*
X006837Y017384D03*
X006756Y017961D03*
X006756Y017971D03*
X006761Y017976D03*
X006761Y017986D03*
X006761Y017997D03*
X006776Y018089D03*
X006781Y018099D03*
X006797Y018175D03*
X006802Y018191D03*
X006837Y018288D03*
X006858Y018339D03*
X006878Y018380D03*
X009024Y018502D03*
X009064Y018431D03*
X009085Y018390D03*
X009105Y018349D03*
X009105Y018339D03*
X009121Y018313D03*
X009141Y018262D03*
X009161Y018211D03*
X009161Y018201D03*
X009182Y018140D03*
X009197Y018063D03*
X009197Y018053D03*
X009202Y018038D03*
X009202Y018027D03*
X009218Y017900D03*
X009218Y017889D03*
X009218Y017874D03*
X009218Y017864D03*
X009218Y017859D03*
X009218Y017849D03*
X009218Y017838D03*
X009218Y017833D03*
X009218Y017823D03*
X009218Y017813D03*
X009218Y017808D03*
X009218Y017797D03*
X009202Y017660D03*
X009202Y017649D03*
X009197Y017619D03*
X009182Y017537D03*
X009141Y017409D03*
X009141Y017404D03*
X009121Y017353D03*
X009105Y017317D03*
X009044Y017205D03*
D175*
X007394Y017389D03*
X007318Y017210D03*
D176*
X008002Y017210D03*
D177*
X008669Y017210D03*
D178*
X009047Y017210D03*
X009108Y018344D03*
X009047Y018462D03*
X009041Y018472D03*
X006901Y018421D03*
X006855Y018334D03*
D179*
X008002Y017322D03*
X008002Y017231D03*
X008002Y017220D03*
D180*
X008589Y018063D03*
X008589Y018078D03*
X008666Y017220D03*
X007404Y018063D03*
X007333Y017317D03*
X007328Y017307D03*
D181*
X006909Y017225D03*
X006842Y017363D03*
X006842Y017374D03*
X006822Y017414D03*
X006822Y017425D03*
X006771Y017629D03*
X006766Y017639D03*
X006751Y017843D03*
X006751Y017854D03*
X006751Y017895D03*
X006751Y017905D03*
X006766Y018043D03*
X006812Y018221D03*
X006812Y018232D03*
X006848Y018308D03*
X009126Y018298D03*
X009146Y018257D03*
X009146Y018247D03*
X009151Y018232D03*
X009172Y018170D03*
X009192Y018084D03*
X009207Y017981D03*
X009213Y017966D03*
X009213Y017956D03*
X009213Y017905D03*
X009207Y017680D03*
X009192Y017588D03*
X009192Y017578D03*
X009187Y017563D03*
X009187Y017552D03*
X009156Y017450D03*
D182*
X008676Y017225D03*
X007982Y017716D03*
X008595Y018094D03*
X008610Y018170D03*
D183*
X009057Y018446D03*
X009098Y018370D03*
X009082Y017276D03*
X009057Y017225D03*
X006871Y017312D03*
X006871Y018370D03*
D184*
X007384Y018150D03*
X007384Y018140D03*
X007389Y018135D03*
X007389Y018124D03*
X008595Y018104D03*
X008605Y018135D03*
X008610Y018150D03*
X008671Y017241D03*
X008671Y017231D03*
D185*
X008536Y017843D03*
X008536Y017854D03*
X008551Y017905D03*
X007453Y017854D03*
X007427Y017966D03*
X007315Y017236D03*
D186*
X008674Y017236D03*
D187*
X009064Y017236D03*
X009100Y017312D03*
X009121Y017363D03*
X009141Y017414D03*
X009202Y017629D03*
X009202Y017639D03*
X009218Y017777D03*
X009218Y017818D03*
X009218Y017843D03*
X009218Y017854D03*
X009197Y018043D03*
X009182Y018130D03*
X006781Y018119D03*
X006781Y018109D03*
X006776Y018094D03*
X006776Y018084D03*
X006756Y017956D03*
X006756Y017716D03*
X006761Y017690D03*
X006761Y017680D03*
X006776Y017588D03*
X006781Y017578D03*
X006781Y017563D03*
X006873Y017302D03*
X006878Y017287D03*
D188*
X007315Y017241D03*
X007453Y017859D03*
X007448Y017874D03*
X007443Y017900D03*
X007432Y017935D03*
X008515Y017772D03*
X008526Y017808D03*
X008531Y017833D03*
X008536Y017849D03*
X008546Y017889D03*
D189*
X008549Y017900D03*
X008554Y017915D03*
X008554Y017925D03*
X008554Y017935D03*
X008513Y017762D03*
X008508Y017726D03*
X008002Y017292D03*
X008002Y017282D03*
X008002Y017271D03*
X008002Y017266D03*
X007471Y017772D03*
X007471Y017782D03*
X007466Y017797D03*
X007445Y017889D03*
X007430Y017946D03*
X007425Y017961D03*
X007425Y017971D03*
X007312Y017246D03*
D190*
X008671Y017251D03*
D191*
X007478Y017752D03*
X007417Y018007D03*
X007315Y017261D03*
D192*
X008671Y017261D03*
D193*
X008669Y017266D03*
X008669Y017271D03*
X008669Y017282D03*
X007371Y018191D03*
D194*
X007412Y018027D03*
X007417Y018012D03*
X007417Y018002D03*
X007463Y017808D03*
X007473Y017762D03*
X007484Y017726D03*
X007484Y017721D03*
X007315Y017271D03*
X008505Y017721D03*
X008515Y017757D03*
X008561Y017961D03*
X008566Y017986D03*
D195*
X008564Y017981D03*
X007409Y018043D03*
X007364Y017363D03*
X007318Y017276D03*
D196*
X007369Y017374D03*
X007430Y017956D03*
X007425Y017981D03*
X008002Y017302D03*
X008002Y017287D03*
X008002Y017276D03*
X008528Y017818D03*
D197*
X008661Y017302D03*
X008666Y017287D03*
X008666Y017276D03*
X007364Y018221D03*
X007364Y018232D03*
D198*
X007356Y017358D03*
X007346Y017343D03*
X007335Y017322D03*
X007320Y017282D03*
X008582Y018053D03*
D199*
X008582Y018043D03*
X007325Y017302D03*
X007320Y017287D03*
D200*
X007364Y018242D03*
X008620Y018211D03*
X008625Y018216D03*
X008625Y018227D03*
X008630Y017358D03*
X008630Y017353D03*
X008640Y017343D03*
X008661Y017292D03*
D201*
X008661Y017307D03*
X008635Y018262D03*
X007364Y018227D03*
X007358Y018262D03*
D202*
X007389Y018119D03*
X007328Y017312D03*
X008589Y018084D03*
D203*
X008002Y017312D03*
D204*
X008656Y017312D03*
D205*
X008653Y017317D03*
X008653Y017322D03*
X007366Y018216D03*
X007361Y018252D03*
D206*
X006919Y018462D03*
X006761Y018017D03*
X006761Y018007D03*
X006756Y017941D03*
X006756Y017930D03*
X006802Y017476D03*
X006837Y017389D03*
X006858Y017328D03*
X009105Y017328D03*
X009161Y017465D03*
X009161Y017476D03*
X009182Y017527D03*
X009197Y017614D03*
X009218Y017792D03*
X009218Y017803D03*
X009218Y017879D03*
X009202Y018007D03*
X009202Y018017D03*
X009197Y018058D03*
D207*
X007335Y017328D03*
D208*
X008651Y017328D03*
D209*
X008595Y018089D03*
X008595Y018099D03*
X007399Y018089D03*
X007399Y018078D03*
X007394Y018099D03*
X007394Y018104D03*
X007338Y017333D03*
D210*
X007353Y018267D03*
X008630Y018252D03*
X008646Y017333D03*
D211*
X008832Y017338D03*
X008812Y018196D03*
X007182Y018155D03*
D212*
X006789Y018145D03*
X006753Y017920D03*
X006753Y017752D03*
X006753Y017741D03*
X006753Y017731D03*
X006774Y017603D03*
X006789Y017527D03*
X006830Y017399D03*
X006850Y017348D03*
X009133Y017389D03*
X009174Y017517D03*
X009195Y017603D03*
X009205Y017654D03*
X009215Y017920D03*
X009215Y017930D03*
X009215Y017941D03*
D213*
X007348Y017348D03*
D214*
X008002Y017348D03*
D215*
X008638Y017348D03*
D216*
X009116Y017348D03*
X009136Y017399D03*
X009213Y017731D03*
X009213Y017741D03*
X009213Y017752D03*
X009192Y018068D03*
X009131Y018283D03*
X009116Y018324D03*
X009110Y018334D03*
X006863Y018344D03*
X006853Y018324D03*
X006832Y018283D03*
X006832Y018273D03*
X006807Y018206D03*
X006771Y018068D03*
X006771Y018058D03*
X006751Y017803D03*
X006751Y017792D03*
X006766Y017654D03*
X006771Y017614D03*
X006791Y017517D03*
X006807Y017465D03*
D217*
X006804Y017471D03*
X006794Y017506D03*
X006763Y017649D03*
X006753Y017757D03*
X006753Y017900D03*
X006753Y017935D03*
X006763Y018002D03*
X006763Y018012D03*
X006768Y018053D03*
X006774Y018063D03*
X006784Y018124D03*
X006794Y018165D03*
X006804Y018201D03*
X006809Y018211D03*
X006809Y018216D03*
X006814Y018227D03*
X006820Y018242D03*
X006825Y018262D03*
X006855Y018329D03*
X006845Y017368D03*
X009118Y017358D03*
X009149Y017430D03*
X009154Y017445D03*
X009159Y017455D03*
X009164Y017471D03*
X009169Y017486D03*
X009174Y017511D03*
X009184Y017547D03*
X009190Y017568D03*
X009190Y017573D03*
X009205Y017670D03*
X009215Y017736D03*
X009215Y017757D03*
X009215Y017772D03*
X009215Y017782D03*
X009215Y017884D03*
X009210Y017961D03*
X009210Y017971D03*
X009205Y018022D03*
X009184Y018124D03*
X009174Y018160D03*
X009174Y018165D03*
X009164Y018191D03*
X009159Y018216D03*
D218*
X008002Y017363D03*
D219*
X008625Y017363D03*
X007374Y018181D03*
D220*
X007369Y017368D03*
D221*
X008002Y017368D03*
D222*
X008620Y017368D03*
X008615Y018186D03*
X008615Y018191D03*
X007379Y018160D03*
D223*
X008002Y017374D03*
D224*
X008615Y017374D03*
X008615Y018181D03*
X007379Y018170D03*
D225*
X008602Y017384D03*
D226*
X008007Y017389D03*
D227*
X008592Y017389D03*
X007402Y018068D03*
D228*
X007987Y017394D03*
D229*
X007984Y017404D03*
D230*
X007987Y017409D03*
D231*
X007987Y017414D03*
D232*
X007984Y017425D03*
D233*
X009149Y017425D03*
X009154Y017440D03*
X009169Y017491D03*
X009210Y017690D03*
X009210Y017716D03*
X009215Y017767D03*
X009215Y017895D03*
X009190Y018094D03*
X009190Y018109D03*
X009184Y018119D03*
X009169Y018181D03*
X009123Y018308D03*
X006840Y018298D03*
X006825Y018257D03*
X006820Y018247D03*
X006794Y018170D03*
X006784Y018130D03*
X006753Y017777D03*
X006753Y017767D03*
X006784Y017552D03*
X006809Y017450D03*
X006814Y017440D03*
D234*
X007987Y017435D03*
D235*
X007984Y017440D03*
D236*
X007984Y017450D03*
D237*
X007982Y017455D03*
D238*
X007987Y017465D03*
D239*
X007987Y017471D03*
D240*
X007987Y017476D03*
D241*
X006802Y017481D03*
X006791Y017511D03*
X006791Y017522D03*
X006751Y017797D03*
X006751Y017808D03*
X006751Y017838D03*
X006751Y017849D03*
X006751Y017859D03*
X006751Y017889D03*
X009172Y018175D03*
X009182Y018135D03*
X009213Y017726D03*
X009182Y017532D03*
D242*
X007984Y017481D03*
D243*
X007987Y017486D03*
D244*
X006799Y017491D03*
X006758Y017966D03*
X006758Y017981D03*
X006799Y018181D03*
D245*
X007984Y017491D03*
D246*
X007203Y017992D03*
X006830Y017501D03*
D247*
X007984Y017506D03*
X007994Y017660D03*
X007994Y017675D03*
D248*
X007997Y017649D03*
X007982Y017511D03*
D249*
X007982Y017517D03*
D250*
X007984Y017522D03*
D251*
X009179Y017522D03*
X009200Y017634D03*
X009200Y017644D03*
X009179Y018150D03*
X006799Y018186D03*
X006779Y018104D03*
X006758Y017695D03*
X006758Y017685D03*
X006758Y017675D03*
X006779Y017573D03*
D252*
X007987Y017527D03*
D253*
X007989Y017532D03*
X007989Y017537D03*
D254*
X007997Y017547D03*
D255*
X007992Y017552D03*
D256*
X007994Y017557D03*
D257*
X007997Y017563D03*
D258*
X007997Y017578D03*
X007997Y017588D03*
D259*
X007994Y017593D03*
D260*
X007997Y017598D03*
X007997Y017608D03*
X007997Y017619D03*
D261*
X007997Y017603D03*
D262*
X007994Y017614D03*
D263*
X007992Y017629D03*
D264*
X007997Y017634D03*
D265*
X007997Y017639D03*
D266*
X007994Y017644D03*
D267*
X007997Y017654D03*
D268*
X007997Y017680D03*
D269*
X007994Y017685D03*
D270*
X007994Y017690D03*
D271*
X007997Y017695D03*
D272*
X008503Y017711D03*
X008538Y017859D03*
X008543Y017884D03*
X008559Y017946D03*
X008564Y017976D03*
X007476Y017757D03*
X007461Y017813D03*
X007461Y017823D03*
X007455Y017838D03*
X007455Y017849D03*
X007420Y017976D03*
X007420Y017986D03*
X007420Y017997D03*
D273*
X007473Y017767D03*
X007484Y017716D03*
X008505Y017716D03*
X008561Y017956D03*
X008561Y017966D03*
D274*
X008635Y018267D03*
X008640Y018293D03*
X007987Y017721D03*
X007348Y018288D03*
X007348Y018293D03*
D275*
X007297Y018507D03*
X007987Y017726D03*
D276*
X007987Y017731D03*
X008640Y018875D03*
X007302Y018865D03*
D277*
X008510Y017731D03*
D278*
X008510Y017736D03*
X008572Y018002D03*
D279*
X008518Y017777D03*
X008518Y017767D03*
X007461Y017818D03*
X007440Y017905D03*
D280*
X007468Y017777D03*
D281*
X008520Y017792D03*
X008541Y017879D03*
D282*
X008528Y017803D03*
D283*
X009156Y018221D03*
X006751Y017818D03*
D284*
X007438Y017915D03*
X007458Y017833D03*
X008541Y017874D03*
D285*
X006751Y017879D03*
D286*
X007448Y017879D03*
X008551Y017920D03*
D287*
X008569Y018007D03*
X008574Y018017D03*
X007415Y018017D03*
X007404Y018058D03*
D288*
X007407Y018053D03*
X007407Y018048D03*
D289*
X008584Y018058D03*
D290*
X008589Y018068D03*
D291*
X007399Y018084D03*
X007394Y018094D03*
D292*
X007392Y018109D03*
X007386Y018130D03*
D293*
X008597Y018109D03*
D294*
X008600Y018119D03*
X008600Y018130D03*
D295*
X008600Y018124D03*
D296*
X008607Y018140D03*
X008612Y018160D03*
X007376Y018165D03*
D297*
X007381Y018145D03*
X008607Y018145D03*
D298*
X009179Y018145D03*
D299*
X009200Y018196D03*
X007565Y018196D03*
D300*
X007366Y018211D03*
X008617Y018201D03*
D301*
X007369Y018206D03*
D302*
X008620Y018206D03*
D303*
X009161Y018206D03*
D304*
X008623Y018221D03*
D305*
X008628Y018232D03*
D306*
X008628Y018242D03*
D307*
X007361Y018247D03*
X007361Y018257D03*
D308*
X008630Y018257D03*
X008630Y018247D03*
D309*
X007356Y018273D03*
X007351Y018283D03*
D310*
X008638Y018273D03*
D311*
X008640Y018283D03*
D312*
X008640Y018288D03*
D313*
X007348Y018298D03*
D314*
X007343Y018308D03*
X008640Y018298D03*
D315*
X007346Y018303D03*
X007346Y018313D03*
D316*
X008646Y018313D03*
X008646Y018303D03*
D317*
X008643Y018308D03*
D318*
X007341Y018324D03*
X007335Y018344D03*
D319*
X008651Y018334D03*
X008651Y018324D03*
D320*
X007341Y018329D03*
D321*
X007338Y018339D03*
X007333Y018354D03*
X007987Y019100D03*
X008651Y018329D03*
D322*
X007338Y018334D03*
D323*
X007335Y018349D03*
X008653Y018349D03*
X008653Y018339D03*
D324*
X008653Y018344D03*
D325*
X008656Y018354D03*
D326*
X007330Y018364D03*
D327*
X008658Y018364D03*
D328*
X007330Y018370D03*
D329*
X008658Y018370D03*
D330*
X008273Y019023D03*
X007701Y019023D03*
X007328Y018375D03*
D331*
X007328Y018380D03*
X008661Y018375D03*
D332*
X008663Y018380D03*
X007325Y018390D03*
D333*
X007323Y018385D03*
X007323Y018395D03*
D334*
X008666Y018395D03*
X008666Y018385D03*
D335*
X008666Y018390D03*
D336*
X008298Y019018D03*
X007675Y019018D03*
X007318Y018416D03*
X007318Y018405D03*
D337*
X007320Y018410D03*
D338*
X008669Y018410D03*
D339*
X007318Y018421D03*
D340*
X008671Y018421D03*
D341*
X007315Y018426D03*
D342*
X008676Y018426D03*
D343*
X007312Y018431D03*
D344*
X008676Y018431D03*
D345*
X007315Y018436D03*
D346*
X008676Y018436D03*
D347*
X007310Y018446D03*
D348*
X008681Y018446D03*
D349*
X008681Y018456D03*
X007629Y019008D03*
X007307Y018451D03*
D350*
X008679Y018451D03*
D351*
X007305Y018456D03*
D352*
X007307Y018462D03*
D353*
X007302Y018472D03*
X008681Y018462D03*
D354*
X008681Y018467D03*
X008339Y019008D03*
X007307Y018467D03*
D355*
X008684Y018472D03*
D356*
X008684Y018477D03*
X007305Y018477D03*
D357*
X007302Y018487D03*
X007302Y018497D03*
D358*
X008686Y018497D03*
X008686Y018487D03*
D359*
X007302Y018492D03*
D360*
X008689Y018492D03*
D361*
X007593Y018998D03*
X007302Y018502D03*
D362*
X008694Y018502D03*
D363*
X008692Y018507D03*
X008375Y018998D03*
X007292Y018518D03*
D364*
X007297Y018513D03*
D365*
X008697Y018518D03*
D366*
X007292Y018528D03*
D367*
X008699Y018528D03*
D368*
X008418Y018988D03*
X007289Y018533D03*
D369*
X007522Y018977D03*
X008702Y018533D03*
D370*
X007292Y018538D03*
D371*
X007537Y018983D03*
X008697Y018538D03*
D372*
X007289Y018543D03*
D373*
X008434Y018983D03*
X008699Y018543D03*
D374*
X007287Y018548D03*
D375*
X008702Y018548D03*
D376*
X007287Y018553D03*
D377*
X007282Y018569D03*
X007471Y018957D03*
X008702Y018553D03*
D378*
X007282Y018559D03*
D379*
X007486Y018962D03*
X008707Y018559D03*
D380*
X008709Y018569D03*
D381*
X007279Y018574D03*
D382*
X007282Y018584D03*
X007409Y018926D03*
X008554Y018926D03*
X008712Y018574D03*
D383*
X008523Y018942D03*
X008518Y018947D03*
X007455Y018947D03*
X007440Y018942D03*
X007282Y018579D03*
D384*
X008709Y018579D03*
D385*
X007044Y018635D03*
X007003Y018584D03*
D386*
X007364Y018901D03*
X008600Y018901D03*
X008712Y018584D03*
D387*
X007277Y018589D03*
D388*
X007346Y018885D03*
X007376Y018906D03*
X008582Y018911D03*
X008715Y018589D03*
D389*
X008564Y018921D03*
X007399Y018921D03*
X007277Y018594D03*
D390*
X007297Y018860D03*
X008635Y018880D03*
X008656Y018870D03*
X008681Y018855D03*
X008717Y018594D03*
D391*
X008947Y018610D03*
X007016Y018599D03*
D392*
X007272Y018599D03*
D393*
X007272Y018610D03*
X008712Y018599D03*
D394*
X008717Y018610D03*
D395*
X008674Y018860D03*
X007289Y018855D03*
X007269Y018615D03*
D396*
X007159Y018753D03*
X007200Y018783D03*
X007256Y018829D03*
X008717Y018829D03*
X008773Y018783D03*
X008778Y018778D03*
X008717Y018615D03*
D397*
X008707Y018834D03*
X007312Y018870D03*
X007226Y018804D03*
X007266Y018620D03*
D398*
X007169Y018758D03*
X007144Y018742D03*
X007134Y018732D03*
X008717Y018620D03*
X008845Y018717D03*
X008855Y018707D03*
X008870Y018691D03*
X008881Y018681D03*
X008835Y018732D03*
D399*
X008840Y018722D03*
X008850Y018712D03*
X008860Y018702D03*
X007261Y018625D03*
D400*
X008727Y018630D03*
D401*
X008722Y018635D03*
D402*
X008906Y018651D03*
X008921Y018635D03*
X007057Y018651D03*
D403*
X008727Y018640D03*
D404*
X007261Y018651D03*
D405*
X007106Y018702D03*
X008898Y018661D03*
D406*
X008888Y018671D03*
D407*
X008883Y018676D03*
D408*
X008865Y018696D03*
D409*
X008783Y018773D03*
X007215Y018799D03*
X007169Y018763D03*
X007129Y018722D03*
D410*
X007139Y018737D03*
X007149Y018748D03*
X008814Y018748D03*
X008829Y018737D03*
D411*
X008822Y018742D03*
X008801Y018758D03*
D412*
X008806Y018753D03*
X007192Y018778D03*
D413*
X007205Y018788D03*
X008794Y018763D03*
D414*
X007187Y018773D03*
D415*
X008766Y018788D03*
D416*
X007210Y018794D03*
D417*
X007243Y018819D03*
X007259Y018834D03*
X008755Y018794D03*
D418*
X008750Y018799D03*
X007264Y018839D03*
D419*
X008725Y018819D03*
X008745Y018804D03*
D420*
X008717Y018824D03*
X007246Y018824D03*
X007236Y018814D03*
D421*
X008730Y018814D03*
D422*
X008702Y018839D03*
D423*
X008692Y018845D03*
X007272Y018845D03*
D424*
X008663Y018865D03*
D425*
X007328Y018875D03*
D426*
X007333Y018880D03*
X007358Y018896D03*
X007384Y018911D03*
X008610Y018896D03*
X008625Y018885D03*
D427*
X008589Y018906D03*
D428*
X007394Y018916D03*
D429*
X008572Y018916D03*
D430*
X007435Y018937D03*
D431*
X008536Y018937D03*
D432*
X008503Y018952D03*
X008482Y018962D03*
X007461Y018952D03*
D433*
X008472Y018967D03*
X008492Y018957D03*
D434*
X007496Y018967D03*
D435*
X008441Y018977D03*
D436*
X007982Y019105D03*
X007547Y018988D03*
D437*
X007563Y018993D03*
X008400Y018993D03*
D438*
X007609Y019003D03*
D439*
X008360Y019003D03*
D440*
X007982Y019028D03*
D441*
X007987Y019039D03*
D442*
X007987Y019049D03*
D443*
X007987Y019059D03*
D444*
X007987Y019064D03*
D445*
X007987Y019069D03*
D446*
X007982Y019074D03*
D447*
X007982Y019080D03*
M02*
