G75*
G70*
%OFA0B0*%
%FSLAX24Y24*%
%IPPOS*%
%LPD*%
%AMOC8*
5,1,8,0,0,1.08239X$1,22.5*
%
%ADD10C,0.0760*%
%ADD11R,0.0551X0.0394*%
%ADD12R,0.0630X0.0710*%
%ADD13R,0.0600X0.0591*%
%ADD14C,0.0768*%
%ADD15C,0.0594*%
%ADD16C,0.0827*%
%ADD17R,0.0740X0.0740*%
%ADD18C,0.0740*%
%ADD19C,0.0780*%
%ADD20C,0.1890*%
%ADD21C,0.0600*%
%ADD22OC8,0.0700*%
%ADD23C,0.0700*%
%ADD24C,0.0100*%
%ADD25OC8,0.0278*%
%ADD26C,0.0160*%
D10*
X002897Y003515D03*
X002897Y004499D03*
X002897Y005499D03*
X002897Y006499D03*
X002897Y007499D03*
X002897Y008499D03*
X002897Y009499D03*
X003897Y012515D03*
X004897Y012515D03*
X005897Y012515D03*
X006897Y012515D03*
X007897Y012515D03*
X008897Y012515D03*
X009897Y012531D03*
X010897Y012531D03*
X011897Y012531D03*
X012897Y012531D03*
X013897Y012531D03*
X014897Y012531D03*
X015897Y009499D03*
X015897Y008499D03*
X015897Y007499D03*
X015897Y006499D03*
X015897Y005499D03*
X015897Y004499D03*
X015897Y003499D03*
D11*
X020125Y002653D03*
X020991Y002279D03*
X020125Y001905D03*
X020125Y008740D03*
X020991Y009114D03*
X020125Y009488D03*
D12*
X018716Y009925D03*
X017597Y009925D03*
X017597Y008192D03*
X018716Y008192D03*
X018756Y006610D03*
X017636Y006610D03*
X017636Y004917D03*
X018756Y004917D03*
X018756Y002948D03*
X017636Y002948D03*
X017636Y001610D03*
X018756Y001610D03*
X018716Y011893D03*
X017597Y011893D03*
X017597Y013586D03*
X018716Y013586D03*
D13*
X020538Y012826D03*
X020538Y011448D03*
X020538Y005665D03*
X020538Y004287D03*
X005814Y004287D03*
X005814Y005665D03*
D14*
X028196Y006492D03*
X028196Y008629D03*
X028196Y013354D03*
X028196Y001767D03*
D15*
X023393Y001767D03*
X023393Y006492D03*
X023393Y008629D03*
X023393Y013354D03*
D16*
X022607Y010992D03*
X022607Y004129D03*
D17*
X023511Y015665D03*
X019968Y015665D03*
X016424Y015665D03*
X012881Y015665D03*
X009338Y015665D03*
X009338Y019208D03*
X012881Y019208D03*
X016424Y019208D03*
X019968Y019208D03*
X023511Y019208D03*
X027054Y019208D03*
X030597Y019208D03*
X034141Y019208D03*
X034141Y015665D03*
X030597Y015665D03*
X027054Y015665D03*
D18*
X026054Y015665D03*
X025054Y015665D03*
X022511Y015665D03*
X021511Y015665D03*
X018968Y015665D03*
X017968Y015665D03*
X015424Y015665D03*
X014424Y015665D03*
X011881Y015665D03*
X010881Y015665D03*
X008338Y015665D03*
X007338Y015665D03*
X007338Y019208D03*
X008338Y019208D03*
X010881Y019208D03*
X011881Y019208D03*
X014424Y019208D03*
X015424Y019208D03*
X017968Y019208D03*
X018968Y019208D03*
X021511Y019208D03*
X022511Y019208D03*
X025054Y019208D03*
X026054Y019208D03*
X028597Y019208D03*
X029597Y019208D03*
X032141Y019208D03*
X033141Y019208D03*
X033141Y015665D03*
X032141Y015665D03*
X029597Y015665D03*
X028597Y015665D03*
D19*
X032018Y012962D02*
X032798Y012962D01*
X032798Y010992D02*
X032018Y010992D01*
X032018Y009022D02*
X032798Y009022D01*
X032798Y006099D02*
X032018Y006099D01*
X032018Y004129D02*
X032798Y004129D01*
X032798Y002159D02*
X032018Y002159D01*
D20*
X005515Y018854D03*
X003192Y018854D03*
X004334Y017003D03*
D21*
X008338Y003835D02*
X008338Y003235D01*
X009338Y003235D02*
X009338Y003835D01*
X010338Y003835D02*
X010338Y003235D01*
D22*
X005401Y015259D03*
X003038Y015259D03*
D23*
X003038Y014259D03*
X005401Y014259D03*
D24*
X005401Y013972D01*
X004534Y013106D01*
X003668Y013106D01*
X003314Y012751D01*
X003314Y011692D01*
X003511Y011492D01*
X008314Y006688D01*
X005814Y005665D02*
X005318Y005665D01*
X004023Y006964D01*
X003747Y007240D01*
X003751Y009472D01*
X002924Y010283D01*
X002924Y010299D01*
X002920Y013066D01*
X004653Y014799D01*
X004653Y015350D01*
X005479Y016177D02*
X005479Y018854D01*
X005515Y018854D01*
X008338Y019208D02*
X008353Y019208D01*
X008353Y015665D01*
X008338Y015665D01*
X009653Y014799D02*
X009928Y014799D01*
X009928Y016098D01*
X009889Y016137D01*
X009889Y016334D01*
X010873Y015665D02*
X010881Y015665D01*
X010873Y015665D02*
X010873Y014405D01*
X007802Y014405D01*
X005873Y016334D01*
X005873Y016413D01*
X003038Y014259D02*
X003038Y013972D01*
X002645Y013578D01*
X002664Y009598D01*
X002664Y009578D01*
X002743Y009499D01*
X002897Y009499D01*
X003314Y009499D01*
X003471Y009342D01*
X003471Y007122D01*
X005440Y005153D01*
X009944Y005145D01*
X010121Y005145D01*
X010326Y004940D01*
X010322Y003539D01*
X010338Y003535D01*
X008338Y003535D02*
X008314Y003539D01*
X006582Y003539D01*
X005834Y004287D01*
X005814Y004287D01*
X004692Y002712D02*
X002920Y004484D01*
X002897Y004499D01*
X002897Y005499D02*
X002920Y005507D01*
X003235Y005507D01*
X003865Y006137D01*
X004219Y007358D02*
X004219Y007507D01*
X004212Y009618D01*
X003314Y010507D01*
X003314Y011098D02*
X004495Y009917D01*
X004495Y008224D01*
X006660Y008933D02*
X009495Y011767D01*
X016109Y011767D01*
X016542Y011334D01*
X017916Y011334D01*
X018117Y011535D01*
X018117Y012594D01*
X017605Y011925D02*
X017597Y011893D01*
X017605Y011925D02*
X017605Y013578D01*
X017597Y013586D01*
X018716Y013586D02*
X018983Y013618D01*
X018983Y015665D01*
X018968Y015665D01*
X017763Y016255D02*
X017015Y015507D01*
X017015Y015074D01*
X014968Y015074D01*
X014456Y014996D02*
X015440Y014011D01*
X015440Y013027D01*
X012605Y013263D02*
X011897Y012555D01*
X011897Y012531D01*
X010479Y013381D02*
X009928Y012830D01*
X009928Y012555D01*
X009897Y012531D01*
X008905Y012515D02*
X008897Y012515D01*
X008905Y012515D02*
X010164Y013775D01*
X010597Y013775D01*
X011424Y014602D01*
X010440Y014838D02*
X010282Y014838D01*
X010282Y019405D01*
X010952Y020074D01*
X031267Y020074D01*
X032133Y019208D01*
X032141Y019208D01*
X033141Y019208D02*
X033156Y019208D01*
X033156Y017437D01*
X029613Y017437D01*
X029613Y016255D01*
X026621Y016255D01*
X026070Y015704D01*
X026054Y015665D01*
X026031Y015665D01*
X026031Y014681D01*
X025794Y014484D01*
X024023Y014484D02*
X023747Y014169D01*
X023747Y013381D01*
X023432Y013381D01*
X023393Y013354D01*
X023393Y013342D01*
X022920Y012870D01*
X022527Y012870D01*
X022527Y015665D01*
X022511Y015665D01*
X020794Y015862D02*
X020794Y014326D01*
X019849Y014326D01*
X019369Y013586D02*
X018747Y013578D01*
X018716Y013586D01*
X019369Y013586D02*
X020082Y012830D01*
X020519Y012830D01*
X020538Y012826D01*
X020558Y012870D01*
X022527Y012870D01*
X023511Y011374D02*
X024298Y011374D01*
X028590Y015665D01*
X028597Y015665D01*
X029597Y015665D02*
X029613Y015665D01*
X029613Y016255D01*
X029613Y017437D02*
X029613Y019208D01*
X029597Y019208D01*
X028597Y019208D02*
X028590Y019208D01*
X025637Y016255D01*
X017763Y016255D01*
X019889Y017240D02*
X013156Y017240D01*
X012172Y017633D02*
X019928Y017633D01*
X021503Y019208D01*
X021511Y019208D01*
X020440Y017791D02*
X019889Y017240D01*
X020440Y017791D02*
X023629Y017791D01*
X025046Y019208D01*
X025054Y019208D01*
X018550Y018618D02*
X017369Y018618D01*
X017369Y019287D01*
X016857Y019799D01*
X011503Y019799D01*
X010912Y019208D01*
X010881Y019208D01*
X011779Y019208D02*
X011881Y019208D01*
X011779Y019208D02*
X011779Y017437D01*
X011857Y017358D01*
X011857Y016255D01*
X014810Y016255D01*
X015401Y015665D01*
X015424Y015665D01*
X014456Y015665D02*
X014424Y015665D01*
X014456Y015665D02*
X014456Y014996D01*
X011881Y015665D02*
X011857Y015665D01*
X011857Y016255D01*
X014456Y019208D02*
X015637Y018027D01*
X018550Y018027D01*
X014456Y019208D02*
X014424Y019208D01*
X003944Y012515D02*
X003897Y012515D01*
X004692Y010901D02*
X005322Y010271D01*
X015897Y007499D02*
X015912Y007515D01*
X016503Y007515D01*
X016503Y009799D01*
X017527Y010822D01*
X017597Y009925D02*
X017566Y009917D01*
X017566Y009129D01*
X016779Y008342D01*
X016779Y006531D01*
X015912Y006531D01*
X015897Y006499D01*
X015897Y005499D02*
X015912Y005468D01*
X017015Y004366D01*
X017605Y004366D01*
X017605Y002948D01*
X017636Y002948D01*
X017810Y002255D02*
X017645Y002090D01*
X017645Y001610D01*
X017636Y001610D01*
X017810Y002255D02*
X018613Y002255D01*
X018779Y002421D01*
X018779Y002909D01*
X018944Y002909D01*
X018756Y002948D01*
X019849Y002948D01*
X020125Y002673D01*
X020125Y002653D01*
X020991Y002279D02*
X022881Y002279D01*
X023393Y001767D01*
X020991Y002279D02*
X020991Y004287D01*
X020538Y004287D01*
X020519Y004326D01*
X019377Y004326D01*
X018786Y004917D01*
X018756Y004917D01*
X017645Y004917D02*
X017636Y004917D01*
X017645Y004917D02*
X017645Y006610D01*
X017636Y006610D01*
X018756Y006610D02*
X019574Y006610D01*
X020519Y005665D01*
X020538Y005665D01*
X020558Y005704D01*
X022605Y005704D01*
X023393Y006492D01*
X023393Y008629D02*
X023393Y008657D01*
X021424Y008657D01*
X020991Y009090D01*
X020991Y009114D01*
X020952Y009129D01*
X020952Y009405D01*
X020558Y009799D01*
X020558Y011413D01*
X020538Y011448D01*
X020519Y011452D01*
X019968Y011456D01*
X019590Y011885D01*
X018747Y011885D01*
X018716Y011893D01*
X018716Y009925D02*
X018747Y009917D01*
X019259Y009917D01*
X019259Y009877D01*
X019255Y009433D01*
X018621Y008799D01*
X017893Y008799D01*
X017605Y008511D01*
X017605Y008224D01*
X017597Y008192D01*
X019731Y009917D02*
X020125Y009523D01*
X020125Y009488D01*
X019731Y009917D02*
X019259Y009917D01*
X022607Y010992D02*
X022645Y010980D01*
X032408Y010980D01*
X032408Y010992D01*
X032408Y012962D02*
X032408Y012988D01*
X028550Y012988D01*
X028196Y013342D01*
X028196Y013354D01*
X033141Y015665D02*
X033156Y015665D01*
X033156Y017437D01*
X032408Y009022D02*
X032408Y009011D01*
X028550Y009011D01*
X028196Y008657D01*
X028196Y008629D01*
X028196Y006492D02*
X028550Y006137D01*
X032408Y006137D01*
X032408Y006099D01*
X032408Y004129D02*
X022607Y004129D01*
X017133Y003893D02*
X015952Y002712D01*
X004692Y002712D01*
X028196Y001767D02*
X028550Y002122D01*
X032408Y002122D01*
X032408Y002159D01*
D25*
X017527Y010822D03*
X018117Y012594D03*
X019849Y014326D03*
X020794Y015862D03*
X024023Y014484D03*
X025794Y014484D03*
X023511Y011374D03*
X015440Y013027D03*
X012605Y013263D03*
X010479Y013381D03*
X011424Y014602D03*
X010440Y014838D03*
X009653Y014799D03*
X009889Y016334D03*
X012172Y017633D03*
X013156Y017240D03*
X014968Y015074D03*
X018550Y018027D03*
X018550Y018618D03*
X005873Y016413D03*
X005479Y016177D03*
X004653Y015350D03*
X003314Y011098D03*
X003314Y010507D03*
X004692Y010901D03*
X005322Y010271D03*
X006660Y008933D03*
X004495Y008224D03*
X004219Y007358D03*
X003865Y006137D03*
X008314Y006688D03*
X017133Y003893D03*
D26*
X003708Y001587D02*
X003699Y001578D01*
X005890Y001578D01*
X006066Y001505D01*
X006201Y001370D01*
X006781Y000791D01*
X034939Y000791D01*
X035551Y001349D01*
X035551Y013116D01*
X034875Y013674D01*
X034853Y013683D01*
X034802Y013735D01*
X034746Y013781D01*
X034735Y013802D01*
X034718Y013818D01*
X034690Y013885D01*
X034656Y013949D01*
X034654Y013973D01*
X034645Y013995D01*
X034645Y014067D01*
X034638Y014140D01*
X034645Y014162D01*
X034645Y015175D01*
X034621Y015151D01*
X034580Y015127D01*
X034534Y015115D01*
X034161Y015115D01*
X034161Y015645D01*
X034121Y015645D01*
X034121Y015115D01*
X033747Y015115D01*
X033701Y015127D01*
X033660Y015151D01*
X033627Y015184D01*
X033603Y015225D01*
X033591Y015271D01*
X033591Y015281D01*
X033475Y015165D01*
X033258Y015075D01*
X033023Y015075D01*
X032807Y015165D01*
X032641Y015331D01*
X032641Y015331D01*
X032641Y015331D01*
X032475Y015165D01*
X032258Y015075D01*
X032023Y015075D01*
X031807Y015165D01*
X031641Y015331D01*
X031551Y015548D01*
X031551Y015782D01*
X031641Y015999D01*
X031807Y016165D01*
X032023Y016255D01*
X032258Y016255D01*
X032475Y016165D01*
X032641Y015999D01*
X032641Y015999D01*
X032807Y016165D01*
X032887Y016198D01*
X032887Y017167D01*
X029883Y017167D01*
X029883Y016185D01*
X029932Y016165D01*
X030047Y016049D01*
X030047Y016059D01*
X030060Y016104D01*
X030083Y016145D01*
X030117Y016179D01*
X030158Y016203D01*
X030204Y016215D01*
X030577Y016215D01*
X030577Y015685D01*
X030617Y015685D01*
X030577Y015685D01*
X030577Y015645D02*
X030617Y015645D01*
X030617Y015115D01*
X030991Y015115D01*
X031037Y015127D01*
X031078Y015151D01*
X031111Y015184D01*
X031135Y015225D01*
X031147Y015271D01*
X031147Y015645D01*
X030617Y015645D01*
X030617Y015685D01*
X030617Y016215D01*
X030991Y016215D01*
X031037Y016203D01*
X031078Y016179D01*
X031111Y016145D01*
X031135Y016104D01*
X031147Y016059D01*
X031147Y015685D01*
X031551Y015685D01*
X031560Y015527D02*
X031147Y015527D01*
X031147Y015685D02*
X030617Y015685D01*
X030577Y015645D02*
X030577Y015115D01*
X030204Y015115D01*
X030158Y015127D01*
X030117Y015151D01*
X030083Y015184D01*
X030060Y015225D01*
X030047Y015271D01*
X030047Y015281D01*
X029932Y015165D01*
X029715Y015075D01*
X029480Y015075D01*
X029263Y015165D01*
X029097Y015331D01*
X029097Y015331D01*
X029097Y015331D01*
X028932Y015165D01*
X028715Y015075D01*
X028480Y015075D01*
X028410Y015104D01*
X024556Y011250D01*
X031465Y011250D01*
X031502Y011337D01*
X031673Y011509D01*
X031897Y011601D01*
X032920Y011601D01*
X033144Y011509D01*
X033315Y011337D01*
X033408Y011113D01*
X033408Y010870D01*
X033315Y010646D01*
X033144Y010475D01*
X032920Y010382D01*
X031897Y010382D01*
X031673Y010475D01*
X031502Y010646D01*
X031475Y010710D01*
X023176Y010710D01*
X023144Y010633D01*
X022966Y010455D01*
X022733Y010358D01*
X022481Y010358D01*
X022248Y010455D01*
X022070Y010633D01*
X021974Y010866D01*
X021974Y011118D01*
X022070Y011350D01*
X022248Y011528D01*
X022481Y011625D01*
X022733Y011625D01*
X022966Y011528D01*
X023144Y011350D01*
X023152Y011330D01*
X023152Y011522D01*
X023362Y011732D01*
X023659Y011732D01*
X023749Y011643D01*
X024186Y011643D01*
X028032Y015489D01*
X028008Y015548D01*
X028008Y015782D01*
X028092Y015986D01*
X027604Y015986D01*
X027604Y015685D01*
X028008Y015685D01*
X028016Y015527D02*
X027604Y015527D01*
X027604Y015645D02*
X027074Y015645D01*
X027074Y015685D01*
X027604Y015685D01*
X027604Y015645D02*
X027604Y015271D01*
X027592Y015225D01*
X027568Y015184D01*
X027535Y015151D01*
X027494Y015127D01*
X027448Y015115D01*
X027074Y015115D01*
X027074Y015645D01*
X027034Y015645D01*
X027034Y015115D01*
X026660Y015115D01*
X026615Y015127D01*
X026574Y015151D01*
X026540Y015184D01*
X026516Y015225D01*
X026504Y015271D01*
X026504Y015281D01*
X026388Y015165D01*
X026300Y015128D01*
X026300Y014722D01*
X026304Y014710D01*
X026300Y014668D01*
X026300Y014627D01*
X026295Y014615D01*
X026294Y014603D01*
X026275Y014566D01*
X026259Y014528D01*
X026250Y014519D01*
X026244Y014508D01*
X026213Y014481D01*
X026183Y014452D01*
X026172Y014447D01*
X026153Y014432D01*
X026153Y014335D01*
X025943Y014125D01*
X025646Y014125D01*
X025435Y014335D01*
X025435Y014632D01*
X025646Y014843D01*
X025761Y014843D01*
X025761Y015148D01*
X025720Y015165D01*
X025554Y015331D01*
X025554Y015331D01*
X025554Y015331D01*
X025388Y015165D01*
X025171Y015075D01*
X024937Y015075D01*
X024720Y015165D01*
X024554Y015331D01*
X024464Y015548D01*
X024464Y015782D01*
X024549Y015986D01*
X024061Y015986D01*
X024061Y015685D01*
X024464Y015685D01*
X024473Y015527D02*
X024061Y015527D01*
X024061Y015645D02*
X023531Y015645D01*
X023531Y015685D01*
X024061Y015685D01*
X024061Y015645D02*
X024061Y015271D01*
X024049Y015225D01*
X024025Y015184D01*
X023991Y015151D01*
X023950Y015127D01*
X023905Y015115D01*
X023531Y015115D01*
X023531Y015645D01*
X023491Y015645D01*
X023491Y015115D01*
X023117Y015115D01*
X023071Y015127D01*
X023030Y015151D01*
X022997Y015184D01*
X022973Y015225D01*
X022961Y015271D01*
X022961Y015281D01*
X022845Y015165D01*
X022796Y015145D01*
X022796Y013139D01*
X022809Y013139D01*
X022889Y013220D01*
X022876Y013251D01*
X022876Y013457D01*
X022955Y013646D01*
X023100Y013792D01*
X023290Y013870D01*
X023477Y013870D01*
X023477Y014160D01*
X023474Y014204D01*
X023477Y014213D01*
X023477Y014222D01*
X023494Y014264D01*
X023509Y014306D01*
X023515Y014313D01*
X023518Y014322D01*
X023550Y014353D01*
X023664Y014483D01*
X023664Y014632D01*
X023874Y014843D01*
X024171Y014843D01*
X024381Y014632D01*
X024381Y014335D01*
X024171Y014125D01*
X024067Y014125D01*
X024017Y014067D01*
X024017Y013328D01*
X023976Y013229D01*
X023900Y013153D01*
X023862Y013137D01*
X023831Y013061D01*
X023685Y012916D01*
X023495Y012837D01*
X023290Y012837D01*
X023275Y012843D01*
X023149Y012717D01*
X023073Y012641D01*
X022974Y012600D01*
X021058Y012600D01*
X021058Y012440D01*
X020929Y012311D01*
X020147Y012311D01*
X020019Y012440D01*
X020019Y012563D01*
X019975Y012583D01*
X019929Y012602D01*
X019926Y012604D01*
X019922Y012606D01*
X019888Y012642D01*
X019853Y012677D01*
X019851Y012681D01*
X019254Y013315D01*
X019251Y013315D01*
X019251Y013140D01*
X019122Y013011D01*
X018310Y013011D01*
X018182Y013140D01*
X018182Y014032D01*
X018310Y014161D01*
X018714Y014161D01*
X018714Y015132D01*
X018633Y015165D01*
X018468Y015331D01*
X018468Y015331D01*
X018467Y015331D01*
X018302Y015165D01*
X018085Y015075D01*
X017850Y015075D01*
X017633Y015165D01*
X017468Y015331D01*
X017395Y015506D01*
X017285Y015396D01*
X017285Y015021D01*
X017243Y014921D01*
X017168Y014846D01*
X017068Y014805D01*
X015205Y014805D01*
X015117Y014716D01*
X015593Y014240D01*
X015669Y014164D01*
X015710Y014065D01*
X015710Y013265D01*
X015799Y013176D01*
X015799Y012878D01*
X015589Y012668D01*
X015489Y012668D01*
X015496Y012650D01*
X015496Y012412D01*
X015405Y012191D01*
X015251Y012037D01*
X016163Y012037D01*
X016262Y011996D01*
X016338Y011920D01*
X016654Y011604D01*
X017062Y011604D01*
X017062Y012339D01*
X017191Y012468D01*
X017336Y012468D01*
X017336Y013011D01*
X017191Y013011D01*
X017062Y013140D01*
X017062Y014032D01*
X017191Y014161D01*
X018003Y014161D01*
X018131Y014032D01*
X018131Y013140D01*
X018003Y013011D01*
X017875Y013011D01*
X017875Y012859D01*
X017968Y012953D01*
X018266Y012953D01*
X018476Y012743D01*
X018476Y012468D01*
X019122Y012468D01*
X019251Y012339D01*
X019251Y012155D01*
X019545Y012155D01*
X019553Y012158D01*
X019598Y012155D01*
X019643Y012155D01*
X019651Y012152D01*
X019660Y012151D01*
X019701Y012131D01*
X019742Y012114D01*
X019749Y012108D01*
X019757Y012104D01*
X019786Y012070D01*
X019818Y012038D01*
X019822Y012030D01*
X020019Y011806D01*
X020019Y011835D01*
X020147Y011963D01*
X020929Y011963D01*
X021058Y011835D01*
X021058Y011062D01*
X020929Y010933D01*
X020828Y010933D01*
X020828Y009910D01*
X021105Y009634D01*
X021180Y009558D01*
X021192Y009530D01*
X021358Y009530D01*
X021486Y009402D01*
X021486Y008976D01*
X021536Y008927D01*
X022959Y008927D01*
X023100Y009067D01*
X023290Y009146D01*
X023495Y009146D01*
X023685Y009067D01*
X023831Y008922D01*
X023909Y008732D01*
X023909Y008527D01*
X023831Y008337D01*
X023685Y008191D01*
X023495Y008113D01*
X023290Y008113D01*
X023100Y008191D01*
X022955Y008337D01*
X022934Y008387D01*
X021371Y008387D01*
X021271Y008428D01*
X021196Y008504D01*
X021003Y008697D01*
X020625Y008697D01*
X020563Y008758D01*
X020143Y008758D01*
X020143Y008721D01*
X020143Y008363D01*
X020424Y008363D01*
X020470Y008375D01*
X020511Y008399D01*
X020545Y008432D01*
X020568Y008473D01*
X020581Y008519D01*
X020581Y008721D01*
X020143Y008721D01*
X020107Y008721D01*
X020107Y008363D01*
X019826Y008363D01*
X019780Y008375D01*
X019739Y008399D01*
X019705Y008432D01*
X019682Y008473D01*
X019669Y008519D01*
X019669Y008721D01*
X020107Y008721D01*
X020107Y008758D01*
X019669Y008758D01*
X019669Y008960D01*
X019682Y009006D01*
X019705Y009047D01*
X019739Y009081D01*
X019745Y009084D01*
X019630Y009200D01*
X019630Y009637D01*
X019620Y009647D01*
X019527Y009647D01*
X019525Y009431D01*
X019525Y009379D01*
X019524Y009378D01*
X019524Y009377D01*
X019504Y009328D01*
X019484Y009280D01*
X019483Y009279D01*
X019482Y009278D01*
X019445Y009241D01*
X018931Y008727D01*
X019055Y008727D01*
X019101Y008715D01*
X019142Y008691D01*
X019175Y008658D01*
X019199Y008617D01*
X019211Y008571D01*
X019211Y008270D01*
X018794Y008270D01*
X018794Y008115D01*
X019211Y008115D01*
X019211Y007814D01*
X019199Y007768D01*
X019175Y007727D01*
X019142Y007693D01*
X019101Y007670D01*
X019055Y007657D01*
X018794Y007657D01*
X018794Y008115D01*
X018639Y008115D01*
X018639Y007657D01*
X018378Y007657D01*
X018332Y007670D01*
X018291Y007693D01*
X018257Y007727D01*
X018234Y007768D01*
X018221Y007814D01*
X018221Y008115D01*
X018639Y008115D01*
X018639Y008270D01*
X018221Y008270D01*
X018221Y008529D01*
X018131Y008529D01*
X018131Y007746D01*
X018003Y007618D01*
X017191Y007618D01*
X017062Y007746D01*
X017062Y008244D01*
X017048Y008230D01*
X017048Y006477D01*
X017007Y006378D01*
X016931Y006302D01*
X016832Y006261D01*
X016447Y006261D01*
X016405Y006160D01*
X016245Y005999D01*
X016405Y005839D01*
X016496Y005619D01*
X016496Y005380D01*
X016463Y005299D01*
X017101Y004661D01*
X017101Y005363D01*
X017230Y005492D01*
X017375Y005492D01*
X017375Y006035D01*
X017230Y006035D01*
X017101Y006164D01*
X017101Y007056D01*
X017230Y007184D01*
X018042Y007184D01*
X018171Y007056D01*
X018171Y006164D01*
X018042Y006035D01*
X017914Y006035D01*
X017914Y005492D01*
X018042Y005492D01*
X018171Y005363D01*
X018171Y004471D01*
X018042Y004342D01*
X017875Y004342D01*
X017875Y003523D01*
X018042Y003523D01*
X018171Y003394D01*
X018171Y002525D01*
X018221Y002525D01*
X018221Y003394D01*
X018350Y003523D01*
X019162Y003523D01*
X019290Y003394D01*
X019290Y003218D01*
X019903Y003218D01*
X020002Y003177D01*
X020078Y003101D01*
X020110Y003070D01*
X020492Y003070D01*
X020620Y002941D01*
X020620Y002691D01*
X020625Y002696D01*
X020721Y002696D01*
X020721Y003772D01*
X020147Y003772D01*
X020019Y003901D01*
X020019Y004057D01*
X019323Y004057D01*
X019224Y004098D01*
X019148Y004173D01*
X018980Y004342D01*
X018350Y004342D01*
X018221Y004471D01*
X018221Y005363D01*
X018350Y005492D01*
X019162Y005492D01*
X019290Y005363D01*
X019290Y004794D01*
X019489Y004596D01*
X020019Y004596D01*
X020019Y004673D01*
X020147Y004802D01*
X020929Y004802D01*
X021058Y004673D01*
X021058Y004551D01*
X021144Y004516D01*
X021220Y004440D01*
X021261Y004341D01*
X021261Y002696D01*
X021358Y002696D01*
X021486Y002567D01*
X021486Y002549D01*
X022935Y002549D01*
X023034Y002508D01*
X023110Y002432D01*
X023267Y002274D01*
X023290Y002284D01*
X023495Y002284D01*
X023685Y002205D01*
X023831Y002060D01*
X023909Y001870D01*
X023909Y001664D01*
X023831Y001475D01*
X023685Y001329D01*
X023495Y001251D01*
X023290Y001251D01*
X023100Y001329D01*
X022955Y001475D01*
X022876Y001664D01*
X022876Y001870D01*
X022886Y001893D01*
X022769Y002009D01*
X021486Y002009D01*
X021486Y001991D01*
X021358Y001862D01*
X020625Y001862D01*
X020563Y001923D01*
X020143Y001923D01*
X020143Y001887D01*
X020143Y001528D01*
X020424Y001528D01*
X020470Y001540D01*
X020511Y001564D01*
X020545Y001598D01*
X020568Y001639D01*
X020581Y001684D01*
X020581Y001887D01*
X020143Y001887D01*
X020107Y001887D01*
X020107Y001528D01*
X019826Y001528D01*
X019780Y001540D01*
X019739Y001564D01*
X019705Y001598D01*
X019682Y001639D01*
X019669Y001684D01*
X019669Y001887D01*
X020107Y001887D01*
X020107Y001923D01*
X019669Y001923D01*
X019669Y002126D01*
X019682Y002171D01*
X019705Y002212D01*
X019739Y002246D01*
X019745Y002250D01*
X019630Y002365D01*
X019630Y002679D01*
X019290Y002679D01*
X019290Y002502D01*
X019162Y002374D01*
X019048Y002374D01*
X019048Y002367D01*
X019007Y002268D01*
X018884Y002145D01*
X019094Y002145D01*
X019140Y002132D01*
X019181Y002109D01*
X019215Y002075D01*
X019238Y002034D01*
X019251Y001988D01*
X019251Y001687D01*
X018833Y001687D01*
X018833Y001532D01*
X018833Y001075D01*
X019094Y001075D01*
X019140Y001087D01*
X019181Y001111D01*
X019215Y001144D01*
X019238Y001185D01*
X019251Y001231D01*
X019251Y001532D01*
X018833Y001532D01*
X018678Y001532D01*
X018678Y001075D01*
X018417Y001075D01*
X018371Y001087D01*
X018330Y001111D01*
X018297Y001144D01*
X018273Y001185D01*
X018261Y001231D01*
X018261Y001532D01*
X018678Y001532D01*
X018678Y001687D01*
X018261Y001687D01*
X018261Y001986D01*
X018171Y001986D01*
X018171Y001164D01*
X018042Y001035D01*
X017230Y001035D01*
X017101Y001164D01*
X017101Y002056D01*
X017230Y002184D01*
X017392Y002184D01*
X017416Y002243D01*
X017492Y002319D01*
X017547Y002374D01*
X017230Y002374D01*
X017101Y002502D01*
X017101Y003394D01*
X017230Y003523D01*
X017336Y003523D01*
X017336Y003588D01*
X017282Y003534D01*
X017156Y003534D01*
X016180Y002559D01*
X016105Y002483D01*
X016005Y002442D01*
X004638Y002442D01*
X004539Y002483D01*
X003496Y003526D01*
X003496Y003396D01*
X003405Y003176D01*
X003236Y003007D01*
X003113Y002956D01*
X003141Y002956D01*
X003462Y002823D01*
X003708Y002577D01*
X003841Y002256D01*
X003841Y001908D01*
X003708Y001587D01*
X003699Y001579D02*
X017101Y001579D01*
X017101Y001737D02*
X003770Y001737D01*
X003836Y001896D02*
X017101Y001896D01*
X017101Y002054D02*
X003841Y002054D01*
X003841Y002213D02*
X017403Y002213D01*
X017544Y002371D02*
X003794Y002371D01*
X003728Y002530D02*
X004493Y002530D01*
X004334Y002688D02*
X003597Y002688D01*
X003405Y002847D02*
X004176Y002847D01*
X004017Y003005D02*
X003232Y003005D01*
X003393Y003164D02*
X003859Y003164D01*
X003700Y003322D02*
X003466Y003322D01*
X003496Y003481D02*
X003542Y003481D01*
X003988Y003798D02*
X005397Y003798D01*
X005423Y003772D02*
X005967Y003772D01*
X006353Y003386D01*
X006429Y003310D01*
X006528Y003269D01*
X007818Y003269D01*
X007818Y003132D01*
X007880Y002982D01*
X004804Y002982D01*
X003470Y004316D01*
X003496Y004380D01*
X003496Y004619D01*
X003405Y004839D01*
X003245Y004999D01*
X003405Y005160D01*
X003496Y005380D01*
X003496Y005387D01*
X003888Y005778D01*
X004014Y005778D01*
X004223Y005988D01*
X005249Y004962D01*
X005287Y004925D01*
X005287Y004925D01*
X005287Y004924D01*
X005337Y004904D01*
X005386Y004883D01*
X005386Y004883D01*
X005386Y004883D01*
X005440Y004883D01*
X009890Y004875D01*
X009944Y004875D01*
X009997Y004875D01*
X009997Y004875D01*
X010009Y004875D01*
X010056Y004829D01*
X010054Y004280D01*
X010043Y004276D01*
X009897Y004129D01*
X009818Y003938D01*
X009818Y003132D01*
X009880Y002982D01*
X009747Y002982D01*
X009748Y002983D01*
X009782Y003051D01*
X009806Y003123D01*
X009818Y003197D01*
X009818Y003515D01*
X009358Y003515D01*
X009358Y003555D01*
X009818Y003555D01*
X009818Y003873D01*
X009806Y003947D01*
X009782Y004019D01*
X009748Y004087D01*
X009704Y004148D01*
X009650Y004201D01*
X009589Y004245D01*
X009522Y004280D01*
X009450Y004303D01*
X009375Y004315D01*
X009358Y004315D01*
X009358Y003555D01*
X009318Y003555D01*
X009318Y004315D01*
X009300Y004315D01*
X009225Y004303D01*
X009153Y004280D01*
X009086Y004245D01*
X009025Y004201D01*
X008971Y004148D01*
X008927Y004087D01*
X008893Y004019D01*
X008869Y003947D01*
X008858Y003873D01*
X008858Y003555D01*
X009318Y003555D01*
X009318Y003515D01*
X008858Y003515D01*
X008858Y003197D01*
X008869Y003123D01*
X008893Y003051D01*
X008927Y002983D01*
X008928Y002982D01*
X008795Y002982D01*
X008857Y003132D01*
X008857Y003938D01*
X008778Y004129D01*
X008632Y004276D01*
X008441Y004355D01*
X008234Y004355D01*
X008043Y004276D01*
X007897Y004129D01*
X007818Y003938D01*
X007818Y003809D01*
X006693Y003809D01*
X006334Y004168D01*
X006334Y004673D01*
X006205Y004802D01*
X005423Y004802D01*
X005294Y004673D01*
X005294Y003901D01*
X005423Y003772D01*
X005294Y003956D02*
X003830Y003956D01*
X003671Y004115D02*
X005294Y004115D01*
X005294Y004273D02*
X003513Y004273D01*
X003496Y004432D02*
X005294Y004432D01*
X005294Y004590D02*
X003496Y004590D01*
X003443Y004749D02*
X005370Y004749D01*
X005329Y004907D02*
X003337Y004907D01*
X003311Y005066D02*
X005146Y005066D01*
X004987Y005224D02*
X003432Y005224D01*
X003496Y005383D02*
X004829Y005383D01*
X004670Y005541D02*
X003650Y005541D01*
X003809Y005700D02*
X004512Y005700D01*
X004353Y005858D02*
X004093Y005858D01*
X003506Y006160D02*
X003295Y005949D01*
X003245Y005999D01*
X003405Y006160D01*
X003496Y006380D01*
X003496Y006619D01*
X003428Y006783D01*
X003716Y006496D01*
X003506Y006286D01*
X003506Y006160D01*
X003506Y006175D02*
X003411Y006175D01*
X003363Y006017D02*
X003262Y006017D01*
X003477Y006334D02*
X003554Y006334D01*
X003496Y006492D02*
X003712Y006492D01*
X003561Y006651D02*
X003483Y006651D01*
X002548Y006999D02*
X002388Y006839D01*
X002337Y006716D01*
X002337Y007283D01*
X002388Y007160D01*
X002548Y006999D01*
X002516Y006968D02*
X002337Y006968D01*
X002337Y007126D02*
X002422Y007126D01*
X002376Y006809D02*
X002337Y006809D01*
X002337Y006283D02*
X002388Y006160D01*
X002548Y005999D01*
X002388Y005839D01*
X002337Y005716D01*
X002337Y006283D01*
X002337Y006175D02*
X002382Y006175D01*
X002337Y006017D02*
X002531Y006017D01*
X002407Y005858D02*
X002337Y005858D01*
X002337Y005283D02*
X002388Y005160D01*
X002548Y004999D01*
X002388Y004839D01*
X002337Y004716D01*
X002337Y005283D01*
X002337Y005224D02*
X002362Y005224D01*
X002337Y005066D02*
X002482Y005066D01*
X002456Y004907D02*
X002337Y004907D01*
X002337Y004749D02*
X002351Y004749D01*
X002337Y004283D02*
X002388Y004160D01*
X002541Y004007D01*
X002388Y003855D01*
X002337Y003732D01*
X002337Y004283D01*
X002337Y004273D02*
X002341Y004273D01*
X002337Y004115D02*
X002433Y004115D01*
X002489Y003956D02*
X002337Y003956D01*
X002337Y003798D02*
X002364Y003798D01*
X002337Y003298D02*
X002337Y002688D01*
X002338Y002688D01*
X002337Y002688D02*
X002473Y002823D01*
X002737Y002932D01*
X002557Y003007D01*
X002388Y003176D01*
X002337Y003298D01*
X002337Y003164D02*
X002400Y003164D01*
X002337Y003005D02*
X002561Y003005D01*
X002530Y002847D02*
X002337Y002847D01*
X004147Y003639D02*
X006100Y003639D01*
X006259Y003481D02*
X004305Y003481D01*
X004464Y003322D02*
X006417Y003322D01*
X006546Y003956D02*
X007825Y003956D01*
X007891Y004115D02*
X006388Y004115D01*
X006334Y004273D02*
X008041Y004273D01*
X008635Y004273D02*
X009140Y004273D01*
X009318Y004273D02*
X009358Y004273D01*
X009358Y004115D02*
X009318Y004115D01*
X009318Y003956D02*
X009358Y003956D01*
X009358Y003798D02*
X009318Y003798D01*
X009318Y003639D02*
X009358Y003639D01*
X008858Y003639D02*
X008857Y003639D01*
X008857Y003481D02*
X008858Y003481D01*
X008857Y003322D02*
X008858Y003322D01*
X008857Y003164D02*
X008863Y003164D01*
X008916Y003005D02*
X008805Y003005D01*
X009759Y003005D02*
X009870Y003005D01*
X009818Y003164D02*
X009812Y003164D01*
X009818Y003322D02*
X009818Y003322D01*
X009818Y003481D02*
X009818Y003481D01*
X009818Y003639D02*
X009818Y003639D01*
X009818Y003798D02*
X009818Y003798D01*
X009803Y003956D02*
X009825Y003956D01*
X009891Y004115D02*
X009728Y004115D01*
X009535Y004273D02*
X010041Y004273D01*
X010055Y004432D02*
X006334Y004432D01*
X006334Y004590D02*
X010055Y004590D01*
X010055Y004749D02*
X006258Y004749D01*
X006334Y005421D02*
X006334Y006051D01*
X006205Y006180D01*
X005423Y006180D01*
X005304Y006061D01*
X004368Y006999D01*
X004578Y007209D01*
X004578Y007506D01*
X004489Y007596D01*
X004488Y007865D01*
X004644Y007865D01*
X004854Y008075D01*
X004854Y008373D01*
X004765Y008462D01*
X004765Y009856D01*
X007955Y006666D01*
X007955Y006540D01*
X008165Y006330D01*
X008463Y006330D01*
X008673Y006540D01*
X008673Y006837D01*
X008463Y007047D01*
X008337Y007047D01*
X006810Y008574D01*
X007019Y008784D01*
X007019Y008910D01*
X009607Y011497D01*
X015135Y011497D01*
X015022Y011384D01*
X014889Y011063D01*
X014889Y010715D01*
X015022Y010394D01*
X015268Y010149D01*
X015582Y010018D01*
X015557Y010008D01*
X015388Y009839D01*
X015297Y009619D01*
X015297Y009380D01*
X015388Y009160D01*
X015548Y008999D01*
X015388Y008839D01*
X015297Y008619D01*
X015297Y008380D01*
X015388Y008160D01*
X015548Y007999D01*
X015388Y007839D01*
X015297Y007619D01*
X015297Y007380D01*
X015388Y007160D01*
X015548Y006999D01*
X015388Y006839D01*
X015297Y006619D01*
X015297Y006380D01*
X015388Y006160D01*
X015548Y005999D01*
X015388Y005839D01*
X015297Y005619D01*
X015297Y005380D01*
X015388Y005160D01*
X015548Y004999D01*
X015388Y004839D01*
X015297Y004619D01*
X015297Y004380D01*
X015388Y004160D01*
X015548Y003999D01*
X015388Y003839D01*
X015297Y003619D01*
X015297Y003380D01*
X015388Y003160D01*
X015557Y002991D01*
X015579Y002982D01*
X010795Y002982D01*
X010857Y003132D01*
X010857Y003938D01*
X010778Y004129D01*
X010632Y004276D01*
X010594Y004291D01*
X010595Y004886D01*
X010596Y004887D01*
X010596Y004940D01*
X010596Y004993D01*
X010596Y004994D01*
X010575Y005043D01*
X010555Y005093D01*
X010554Y005093D01*
X010517Y005131D01*
X010479Y005169D01*
X010274Y005374D01*
X010175Y005415D01*
X009944Y005415D01*
X006334Y005421D01*
X006334Y005541D02*
X015297Y005541D01*
X015297Y005383D02*
X010253Y005383D01*
X010424Y005224D02*
X015362Y005224D01*
X015482Y005066D02*
X010566Y005066D01*
X010555Y005093D02*
X010555Y005093D01*
X010596Y004994D02*
X010596Y004994D01*
X010596Y004907D02*
X015456Y004907D01*
X015351Y004749D02*
X010595Y004749D01*
X010595Y004590D02*
X015297Y004590D01*
X015297Y004432D02*
X010594Y004432D01*
X010635Y004273D02*
X015341Y004273D01*
X015433Y004115D02*
X010784Y004115D01*
X010850Y003956D02*
X015505Y003956D01*
X015371Y003798D02*
X010857Y003798D01*
X010857Y003639D02*
X015305Y003639D01*
X015297Y003481D02*
X010857Y003481D01*
X010857Y003322D02*
X015321Y003322D01*
X015387Y003164D02*
X010857Y003164D01*
X010805Y003005D02*
X015543Y003005D01*
X016151Y002530D02*
X017101Y002530D01*
X017101Y002688D02*
X016309Y002688D01*
X016468Y002847D02*
X017101Y002847D01*
X017101Y003005D02*
X016626Y003005D01*
X016785Y003164D02*
X017101Y003164D01*
X017101Y003322D02*
X016943Y003322D01*
X017102Y003481D02*
X017188Y003481D01*
X016774Y003916D02*
X016491Y003633D01*
X016405Y003839D01*
X016245Y003999D01*
X016405Y004160D01*
X016496Y004380D01*
X016496Y004502D01*
X016862Y004137D01*
X016867Y004135D01*
X016774Y004042D01*
X016774Y003916D01*
X016774Y003956D02*
X016288Y003956D01*
X016360Y004115D02*
X016847Y004115D01*
X016726Y004273D02*
X016452Y004273D01*
X016496Y004432D02*
X016567Y004432D01*
X017013Y004749D02*
X017101Y004749D01*
X017101Y004907D02*
X016855Y004907D01*
X016696Y005066D02*
X017101Y005066D01*
X017101Y005224D02*
X016538Y005224D01*
X016496Y005383D02*
X017121Y005383D01*
X017375Y005541D02*
X016496Y005541D01*
X016463Y005700D02*
X017375Y005700D01*
X017375Y005858D02*
X016386Y005858D01*
X016262Y006017D02*
X017375Y006017D01*
X017101Y006175D02*
X016411Y006175D01*
X016963Y006334D02*
X017101Y006334D01*
X017101Y006492D02*
X017048Y006492D01*
X017048Y006651D02*
X017101Y006651D01*
X017101Y006809D02*
X017048Y006809D01*
X017048Y006968D02*
X017101Y006968D01*
X017048Y007126D02*
X017172Y007126D01*
X017048Y007285D02*
X035551Y007285D01*
X035551Y007443D02*
X017048Y007443D01*
X017048Y007602D02*
X035551Y007602D01*
X035551Y007760D02*
X019194Y007760D01*
X019211Y007919D02*
X035551Y007919D01*
X035551Y008077D02*
X028440Y008077D01*
X028538Y008118D02*
X028708Y008287D01*
X028799Y008509D01*
X028799Y008742D01*
X031474Y008742D01*
X031502Y008676D01*
X031673Y008505D01*
X031897Y008412D01*
X032920Y008412D01*
X033144Y008505D01*
X033315Y008676D01*
X033408Y008900D01*
X033408Y009143D01*
X033315Y009367D01*
X033144Y009539D01*
X032920Y009631D01*
X031897Y009631D01*
X031673Y009539D01*
X031502Y009367D01*
X031466Y009281D01*
X028497Y009281D01*
X028397Y009240D01*
X028369Y009211D01*
X028316Y009233D01*
X028076Y009233D01*
X027854Y009141D01*
X027684Y008971D01*
X027592Y008749D01*
X027592Y008509D01*
X027684Y008287D01*
X027854Y008118D01*
X028076Y008026D01*
X028316Y008026D01*
X028538Y008118D01*
X028656Y008236D02*
X035551Y008236D01*
X035551Y008394D02*
X028752Y008394D01*
X028799Y008553D02*
X031625Y008553D01*
X031487Y008711D02*
X028799Y008711D01*
X027964Y009187D02*
X021486Y009187D01*
X021486Y009345D02*
X031492Y009345D01*
X031638Y009504D02*
X021385Y009504D01*
X021076Y009662D02*
X035551Y009662D01*
X035551Y009504D02*
X033179Y009504D01*
X033325Y009345D02*
X035551Y009345D01*
X035551Y009187D02*
X033390Y009187D01*
X033408Y009028D02*
X035551Y009028D01*
X035551Y008870D02*
X033395Y008870D01*
X033330Y008711D02*
X035551Y008711D01*
X035551Y008553D02*
X033192Y008553D01*
X035551Y009821D02*
X020918Y009821D01*
X020828Y009979D02*
X035551Y009979D01*
X035551Y010138D02*
X020828Y010138D01*
X020828Y010296D02*
X035551Y010296D01*
X035551Y010455D02*
X033095Y010455D01*
X033282Y010613D02*
X035551Y010613D01*
X035551Y010772D02*
X033367Y010772D01*
X033408Y010930D02*
X035551Y010930D01*
X035551Y011089D02*
X033408Y011089D01*
X033353Y011247D02*
X035551Y011247D01*
X035551Y011406D02*
X033247Y011406D01*
X033010Y011564D02*
X035551Y011564D01*
X035551Y011723D02*
X025029Y011723D01*
X025187Y011881D02*
X035551Y011881D01*
X035551Y012040D02*
X025346Y012040D01*
X025504Y012198D02*
X035551Y012198D01*
X035551Y012357D02*
X032931Y012357D01*
X032920Y012352D02*
X033144Y012445D01*
X033315Y012616D01*
X033408Y012840D01*
X033408Y013083D01*
X033315Y013307D01*
X033144Y013479D01*
X032920Y013571D01*
X031897Y013571D01*
X031673Y013479D01*
X031502Y013307D01*
X031481Y013257D01*
X028799Y013257D01*
X028799Y013474D01*
X028708Y013696D01*
X028538Y013866D01*
X028316Y013957D01*
X028076Y013957D01*
X027854Y013866D01*
X027684Y013696D01*
X027592Y013474D01*
X027592Y013234D01*
X027684Y013012D01*
X027854Y012842D01*
X028076Y012750D01*
X028316Y012750D01*
X028380Y012777D01*
X028397Y012759D01*
X028497Y012718D01*
X031459Y012718D01*
X031502Y012616D01*
X031673Y012445D01*
X031897Y012352D01*
X032920Y012352D01*
X033214Y012515D02*
X035551Y012515D01*
X035551Y012674D02*
X033339Y012674D01*
X033405Y012832D02*
X035551Y012832D01*
X035551Y012991D02*
X033408Y012991D01*
X033381Y013149D02*
X035510Y013149D01*
X035319Y013308D02*
X033315Y013308D01*
X033156Y013466D02*
X035127Y013466D01*
X034935Y013625D02*
X028737Y013625D01*
X028799Y013466D02*
X031661Y013466D01*
X031502Y013308D02*
X028799Y013308D01*
X028620Y013783D02*
X034744Y013783D01*
X034660Y013942D02*
X028354Y013942D01*
X028037Y013942D02*
X027248Y013942D01*
X027406Y014100D02*
X034642Y014100D01*
X034645Y014259D02*
X027565Y014259D01*
X027723Y014417D02*
X034645Y014417D01*
X034645Y014576D02*
X027882Y014576D01*
X028040Y014734D02*
X034645Y014734D01*
X034645Y014893D02*
X028199Y014893D01*
X028357Y015051D02*
X034645Y015051D01*
X034161Y015210D02*
X034121Y015210D01*
X034121Y015368D02*
X034161Y015368D01*
X034161Y015527D02*
X034121Y015527D01*
X034121Y015685D02*
X034121Y016215D01*
X033747Y016215D01*
X033701Y016203D01*
X033660Y016179D01*
X033627Y016145D01*
X033603Y016104D01*
X033591Y016059D01*
X033591Y016049D01*
X033475Y016165D01*
X033426Y016185D01*
X033426Y017490D01*
X033426Y018688D01*
X033475Y018708D01*
X033591Y018824D01*
X033591Y018814D01*
X033603Y018769D01*
X033627Y018728D01*
X033660Y018694D01*
X033701Y018670D01*
X033747Y018658D01*
X034121Y018658D01*
X034121Y019188D01*
X034161Y019188D01*
X034161Y018658D01*
X034534Y018658D01*
X034580Y018670D01*
X034621Y018694D01*
X034645Y018718D01*
X034645Y016155D01*
X034621Y016179D01*
X034580Y016203D01*
X034534Y016215D01*
X034161Y016215D01*
X034161Y015685D01*
X034121Y015685D01*
X034161Y015685D01*
X034161Y015844D02*
X034121Y015844D01*
X034121Y016002D02*
X034161Y016002D01*
X034161Y016161D02*
X034121Y016161D01*
X034640Y016161D02*
X034645Y016161D01*
X034645Y016319D02*
X033426Y016319D01*
X033426Y016478D02*
X034645Y016478D01*
X034645Y016636D02*
X033426Y016636D01*
X033426Y016795D02*
X034645Y016795D01*
X034645Y016953D02*
X033426Y016953D01*
X033426Y017112D02*
X034645Y017112D01*
X034645Y017270D02*
X033426Y017270D01*
X033426Y017429D02*
X034645Y017429D01*
X034645Y017587D02*
X033426Y017587D01*
X033426Y017746D02*
X034645Y017746D01*
X034645Y017904D02*
X033426Y017904D01*
X033426Y018063D02*
X034645Y018063D01*
X034645Y018221D02*
X033426Y018221D01*
X033426Y018380D02*
X034645Y018380D01*
X034645Y018538D02*
X033426Y018538D01*
X033447Y018697D02*
X033658Y018697D01*
X034121Y018697D02*
X034161Y018697D01*
X034161Y018855D02*
X034121Y018855D01*
X034121Y019014D02*
X034161Y019014D01*
X034161Y019172D02*
X034121Y019172D01*
X034121Y019228D02*
X034121Y019758D01*
X033747Y019758D01*
X033701Y019746D01*
X033660Y019722D01*
X033627Y019689D01*
X033603Y019648D01*
X033591Y019602D01*
X033591Y019592D01*
X033475Y019708D01*
X033258Y019798D01*
X033023Y019798D01*
X032807Y019708D01*
X032641Y019542D01*
X032641Y019542D01*
X032641Y019542D01*
X032475Y019708D01*
X032258Y019798D01*
X032023Y019798D01*
X031954Y019769D01*
X031495Y020227D01*
X031420Y020303D01*
X031320Y020344D01*
X010898Y020344D01*
X010799Y020303D01*
X010723Y020227D01*
X010130Y019634D01*
X010054Y019558D01*
X010013Y019459D01*
X010013Y016693D01*
X009740Y016693D01*
X009530Y016483D01*
X009530Y016215D01*
X009358Y016215D01*
X009358Y015685D01*
X009318Y015685D01*
X009318Y016215D01*
X008944Y016215D01*
X008898Y016203D01*
X008857Y016179D01*
X008824Y016145D01*
X008800Y016104D01*
X008788Y016059D01*
X008788Y016049D01*
X008672Y016165D01*
X008623Y016185D01*
X008623Y018688D01*
X008672Y018708D01*
X008788Y018824D01*
X008788Y018814D01*
X008800Y018769D01*
X008824Y018728D01*
X008857Y018694D01*
X008898Y018670D01*
X008944Y018658D01*
X009318Y018658D01*
X009318Y019188D01*
X009358Y019188D01*
X009358Y019228D01*
X009888Y019228D01*
X009888Y019602D01*
X009875Y019648D01*
X009852Y019689D01*
X009818Y019722D01*
X009777Y019746D01*
X009731Y019758D01*
X009358Y019758D01*
X009358Y019228D01*
X009318Y019228D01*
X009318Y019758D01*
X008944Y019758D01*
X008898Y019746D01*
X008857Y019722D01*
X008824Y019689D01*
X008800Y019648D01*
X008788Y019602D01*
X008788Y019592D01*
X008672Y019708D01*
X008455Y019798D01*
X008220Y019798D01*
X008004Y019708D01*
X007838Y019542D01*
X007838Y019542D01*
X007838Y019542D01*
X007672Y019708D01*
X007455Y019798D01*
X007220Y019798D01*
X007004Y019708D01*
X006838Y019542D01*
X006748Y019325D01*
X006748Y019091D01*
X006838Y018874D01*
X007004Y018708D01*
X007220Y018618D01*
X007455Y018618D01*
X007672Y018708D01*
X007838Y018874D01*
X008004Y018708D01*
X008084Y018675D01*
X008084Y016198D01*
X008004Y016165D01*
X007838Y015999D01*
X007838Y015999D01*
X007838Y015999D01*
X007672Y016165D01*
X007455Y016255D01*
X007220Y016255D01*
X007004Y016165D01*
X006838Y015999D01*
X006765Y015824D01*
X006232Y016357D01*
X006232Y016562D01*
X006022Y016772D01*
X005749Y016772D01*
X005749Y017711D01*
X005964Y017769D01*
X006230Y017922D01*
X006447Y018139D01*
X006600Y018404D01*
X006679Y018701D01*
X006679Y019007D01*
X006600Y019303D01*
X006447Y019569D01*
X006230Y019786D01*
X005964Y019939D01*
X005668Y020018D01*
X005361Y020018D01*
X005065Y019939D01*
X004800Y019786D01*
X004583Y019569D01*
X004429Y019303D01*
X004350Y019007D01*
X004350Y018701D01*
X004429Y018404D01*
X004583Y018139D01*
X004633Y018089D01*
X004522Y018114D01*
X004414Y018126D01*
X004414Y017083D01*
X004254Y017083D01*
X004254Y016923D01*
X004414Y016923D01*
X004414Y015880D01*
X004522Y015893D01*
X004646Y015921D01*
X004765Y015963D01*
X004879Y016017D01*
X004986Y016085D01*
X005084Y016163D01*
X005121Y016199D01*
X005121Y016028D01*
X005331Y015818D01*
X005628Y015818D01*
X005818Y016008D01*
X007649Y014176D01*
X007749Y014135D01*
X010576Y014135D01*
X010486Y014045D01*
X010111Y014045D01*
X010012Y014004D01*
X009091Y013084D01*
X009016Y013115D01*
X008777Y013115D01*
X008557Y013024D01*
X008397Y012863D01*
X008236Y013024D01*
X008016Y013115D01*
X007777Y013115D01*
X007557Y013024D01*
X007397Y012863D01*
X007236Y013024D01*
X007016Y013115D01*
X006777Y013115D01*
X006557Y013024D01*
X006397Y012863D01*
X006236Y013024D01*
X006016Y013115D01*
X005777Y013115D01*
X005557Y013024D01*
X005388Y012855D01*
X005371Y012815D01*
X005324Y012880D01*
X005261Y012942D01*
X005190Y012994D01*
X005112Y013034D01*
X005028Y013061D01*
X004941Y013075D01*
X004915Y013075D01*
X004915Y012534D01*
X004878Y012534D01*
X004878Y013068D01*
X005500Y013690D01*
X005514Y013690D01*
X005723Y013776D01*
X005884Y013937D01*
X005970Y014146D01*
X005970Y014373D01*
X005884Y014582D01*
X005723Y014742D01*
X005660Y014769D01*
X005931Y015040D01*
X005931Y015259D01*
X005401Y015259D01*
X005401Y015259D01*
X005931Y015259D01*
X005931Y015479D01*
X005620Y015789D01*
X005401Y015789D01*
X005401Y015259D01*
X005401Y015259D01*
X005401Y015789D01*
X005181Y015789D01*
X004951Y015559D01*
X004801Y015709D01*
X004504Y015709D01*
X004294Y015499D01*
X004294Y015201D01*
X004383Y015112D01*
X004383Y014910D01*
X003601Y014129D01*
X003608Y014146D01*
X003608Y014373D01*
X003521Y014582D01*
X003361Y014742D01*
X003297Y014769D01*
X003568Y015040D01*
X003568Y015259D01*
X003038Y015259D01*
X002508Y015259D01*
X002508Y015040D01*
X002779Y014769D01*
X002716Y014742D01*
X002555Y014582D01*
X002469Y014373D01*
X002469Y014146D01*
X002555Y013937D01*
X002588Y013904D01*
X002491Y013806D01*
X002453Y013769D01*
X002416Y013731D01*
X002416Y013730D01*
X002415Y013730D01*
X002395Y013681D01*
X002375Y013632D01*
X002375Y013631D01*
X002375Y013631D01*
X002375Y013578D01*
X002375Y013525D01*
X002375Y013524D01*
X002393Y009844D01*
X002388Y009839D01*
X002337Y009716D01*
X002337Y018121D01*
X002352Y018103D01*
X002441Y018014D01*
X002540Y017935D01*
X002647Y017868D01*
X002761Y017813D01*
X002880Y017771D01*
X003003Y017743D01*
X003112Y017731D01*
X003112Y018774D01*
X003272Y018774D01*
X003272Y018934D01*
X003112Y018934D01*
X003112Y019977D01*
X003003Y019965D01*
X002337Y019965D01*
X002337Y020123D02*
X010619Y020123D01*
X010723Y020227D02*
X010723Y020227D01*
X010778Y020282D02*
X002337Y020282D01*
X002337Y020303D02*
X005890Y020303D01*
X006066Y020376D01*
X006781Y021090D01*
X034171Y021090D01*
X034645Y020591D01*
X034645Y019698D01*
X034621Y019722D01*
X034580Y019746D01*
X034534Y019758D01*
X034161Y019758D01*
X034161Y019228D01*
X034121Y019228D01*
X034121Y019331D02*
X034161Y019331D01*
X034161Y019489D02*
X034121Y019489D01*
X034121Y019648D02*
X034161Y019648D01*
X034645Y019806D02*
X031916Y019806D01*
X031758Y019965D02*
X034645Y019965D01*
X034645Y020123D02*
X031599Y020123D01*
X031441Y020282D02*
X034645Y020282D01*
X034645Y020440D02*
X006130Y020440D01*
X006289Y020599D02*
X034638Y020599D01*
X034488Y020757D02*
X006447Y020757D01*
X006606Y020916D02*
X034337Y020916D01*
X034186Y021074D02*
X006764Y021074D01*
X006195Y019806D02*
X010302Y019806D01*
X010144Y019648D02*
X009875Y019648D01*
X009888Y019489D02*
X010025Y019489D01*
X010013Y019331D02*
X009888Y019331D01*
X009888Y019188D02*
X009358Y019188D01*
X009358Y018658D01*
X009731Y018658D01*
X009777Y018670D01*
X009818Y018694D01*
X009852Y018728D01*
X009875Y018769D01*
X009888Y018814D01*
X009888Y019188D01*
X009888Y019172D02*
X010013Y019172D01*
X010013Y019014D02*
X009888Y019014D01*
X009888Y018855D02*
X010013Y018855D01*
X010013Y018697D02*
X009821Y018697D01*
X010013Y018538D02*
X008623Y018538D01*
X008623Y018380D02*
X010013Y018380D01*
X010013Y018221D02*
X008623Y018221D01*
X008623Y018063D02*
X010013Y018063D01*
X010013Y017904D02*
X008623Y017904D01*
X008623Y017746D02*
X010013Y017746D01*
X010013Y017587D02*
X008623Y017587D01*
X008623Y017429D02*
X010013Y017429D01*
X010013Y017270D02*
X008623Y017270D01*
X008623Y017112D02*
X010013Y017112D01*
X010013Y016953D02*
X008623Y016953D01*
X008623Y016795D02*
X010013Y016795D01*
X009683Y016636D02*
X008623Y016636D01*
X008623Y016478D02*
X009530Y016478D01*
X009530Y016319D02*
X008623Y016319D01*
X008676Y016161D02*
X008839Y016161D01*
X009318Y016161D02*
X009358Y016161D01*
X009358Y016002D02*
X009318Y016002D01*
X009318Y015844D02*
X009358Y015844D01*
X009358Y015685D02*
X009318Y015685D01*
X009318Y015645D02*
X009358Y015645D01*
X009358Y015115D01*
X009461Y015115D01*
X009294Y014947D01*
X009294Y014675D01*
X007914Y014675D01*
X007496Y015092D01*
X007672Y015165D01*
X007838Y015331D01*
X007838Y015331D01*
X007838Y015331D01*
X008004Y015165D01*
X008220Y015075D01*
X008455Y015075D01*
X008672Y015165D01*
X008788Y015281D01*
X008788Y015271D01*
X008800Y015225D01*
X008824Y015184D01*
X008857Y015151D01*
X008898Y015127D01*
X008944Y015115D01*
X009318Y015115D01*
X009318Y015645D01*
X009318Y015527D02*
X009358Y015527D01*
X009358Y015368D02*
X009318Y015368D01*
X009318Y015210D02*
X009358Y015210D01*
X009397Y015051D02*
X007538Y015051D01*
X007696Y014893D02*
X009294Y014893D01*
X009294Y014734D02*
X007855Y014734D01*
X007409Y014417D02*
X005952Y014417D01*
X005970Y014259D02*
X007567Y014259D01*
X007250Y014576D02*
X005886Y014576D01*
X005732Y014734D02*
X007092Y014734D01*
X006933Y014893D02*
X005783Y014893D01*
X005931Y015051D02*
X006775Y015051D01*
X006616Y015210D02*
X005931Y015210D01*
X005931Y015368D02*
X006458Y015368D01*
X006299Y015527D02*
X005883Y015527D01*
X005724Y015685D02*
X006141Y015685D01*
X005982Y015844D02*
X005654Y015844D01*
X005812Y016002D02*
X005824Y016002D01*
X006428Y016161D02*
X006999Y016161D01*
X006841Y016002D02*
X006587Y016002D01*
X006745Y015844D02*
X006773Y015844D01*
X006270Y016319D02*
X008084Y016319D01*
X008084Y016478D02*
X006232Y016478D01*
X006157Y016636D02*
X008084Y016636D01*
X008084Y016795D02*
X005749Y016795D01*
X005749Y016953D02*
X008084Y016953D01*
X008084Y017112D02*
X005749Y017112D01*
X005749Y017270D02*
X008084Y017270D01*
X008084Y017429D02*
X005749Y017429D01*
X005749Y017587D02*
X008084Y017587D01*
X008084Y017746D02*
X005878Y017746D01*
X006199Y017904D02*
X008084Y017904D01*
X008084Y018063D02*
X006371Y018063D01*
X006494Y018221D02*
X008084Y018221D01*
X008084Y018380D02*
X006586Y018380D01*
X006636Y018538D02*
X008084Y018538D01*
X008032Y018697D02*
X007644Y018697D01*
X007819Y018855D02*
X007857Y018855D01*
X007838Y018874D02*
X007838Y018874D01*
X007838Y018874D01*
X008644Y018697D02*
X008855Y018697D01*
X009318Y018697D02*
X009358Y018697D01*
X009358Y018855D02*
X009318Y018855D01*
X009318Y019014D02*
X009358Y019014D01*
X009358Y019172D02*
X009318Y019172D01*
X009318Y019331D02*
X009358Y019331D01*
X009358Y019489D02*
X009318Y019489D01*
X009318Y019648D02*
X009358Y019648D01*
X008800Y019648D02*
X008732Y019648D01*
X007943Y019648D02*
X007732Y019648D01*
X006943Y019648D02*
X006368Y019648D01*
X006493Y019489D02*
X006816Y019489D01*
X006750Y019331D02*
X006584Y019331D01*
X006635Y019172D02*
X006748Y019172D01*
X006780Y019014D02*
X006678Y019014D01*
X006679Y018855D02*
X006857Y018855D01*
X007032Y018697D02*
X006678Y018697D01*
X005210Y017730D02*
X005210Y017709D01*
X005189Y017735D01*
X005210Y017730D01*
X004414Y017746D02*
X004254Y017746D01*
X004254Y017904D02*
X004414Y017904D01*
X004414Y018063D02*
X004254Y018063D01*
X004254Y018126D02*
X004145Y018114D01*
X004022Y018086D01*
X004011Y018082D01*
X004032Y018103D01*
X004111Y018202D01*
X004178Y018309D01*
X004233Y018423D01*
X004275Y018542D01*
X004303Y018665D01*
X004315Y018774D01*
X003272Y018774D01*
X003272Y017731D01*
X003381Y017743D01*
X003504Y017771D01*
X003514Y017775D01*
X003494Y017754D01*
X003415Y017655D01*
X003348Y017548D01*
X003293Y017435D01*
X003251Y017315D01*
X003223Y017192D01*
X003211Y017083D01*
X004254Y017083D01*
X004254Y018126D01*
X004123Y018221D02*
X004535Y018221D01*
X004444Y018380D02*
X004212Y018380D01*
X004273Y018538D02*
X004394Y018538D01*
X004351Y018697D02*
X004306Y018697D01*
X004350Y018855D02*
X003272Y018855D01*
X003272Y018934D02*
X004315Y018934D01*
X004303Y019043D01*
X004275Y019166D01*
X004233Y019285D01*
X004178Y019399D01*
X004111Y019506D01*
X004032Y019605D01*
X003943Y019694D01*
X003844Y019773D01*
X003737Y019840D01*
X003623Y019895D01*
X003504Y019936D01*
X003381Y019965D01*
X005160Y019965D01*
X004835Y019806D02*
X003791Y019806D01*
X003989Y019648D02*
X004661Y019648D01*
X004537Y019489D02*
X004121Y019489D01*
X004211Y019331D02*
X004445Y019331D01*
X004394Y019172D02*
X004272Y019172D01*
X004306Y019014D02*
X004352Y019014D01*
X003272Y019014D02*
X003112Y019014D01*
X003112Y019172D02*
X003272Y019172D01*
X003272Y019331D02*
X003112Y019331D01*
X003112Y019489D02*
X003272Y019489D01*
X003272Y019648D02*
X003112Y019648D01*
X003112Y019806D02*
X003272Y019806D01*
X003272Y019965D02*
X003112Y019965D01*
X003003Y019965D02*
X002880Y019936D01*
X002761Y019895D01*
X002647Y019840D01*
X002540Y019773D01*
X002441Y019694D01*
X002352Y019605D01*
X002337Y019586D01*
X002337Y020303D01*
X002337Y019806D02*
X002593Y019806D01*
X002395Y019648D02*
X002337Y019648D01*
X003272Y019977D02*
X003272Y018934D01*
X003272Y018697D02*
X003112Y018697D01*
X003112Y018538D02*
X003272Y018538D01*
X003272Y018380D02*
X003112Y018380D01*
X003112Y018221D02*
X003272Y018221D01*
X003272Y018063D02*
X003112Y018063D01*
X003112Y017904D02*
X003272Y017904D01*
X003272Y017746D02*
X003112Y017746D01*
X002992Y017746D02*
X002337Y017746D01*
X002337Y017904D02*
X002589Y017904D01*
X002392Y018063D02*
X002337Y018063D01*
X002337Y017587D02*
X003372Y017587D01*
X003391Y017746D02*
X003487Y017746D01*
X003291Y017429D02*
X002337Y017429D01*
X002337Y017270D02*
X003241Y017270D01*
X003214Y017112D02*
X002337Y017112D01*
X002337Y016953D02*
X004254Y016953D01*
X004254Y016923D02*
X003211Y016923D01*
X003223Y016815D01*
X003251Y016692D01*
X003293Y016572D01*
X003348Y016458D01*
X003415Y016351D01*
X003494Y016253D01*
X003583Y016163D01*
X003682Y016085D01*
X003789Y016017D01*
X003903Y015963D01*
X004022Y015921D01*
X004145Y015893D01*
X004254Y015880D01*
X004254Y016923D01*
X004254Y016795D02*
X004414Y016795D01*
X004414Y016636D02*
X004254Y016636D01*
X004254Y016478D02*
X004414Y016478D01*
X004414Y016319D02*
X004254Y016319D01*
X004254Y016161D02*
X004414Y016161D01*
X004414Y016002D02*
X004254Y016002D01*
X004480Y015685D02*
X003362Y015685D01*
X003258Y015789D02*
X003568Y015479D01*
X003568Y015259D01*
X003038Y015259D01*
X003038Y015259D01*
X002508Y015259D01*
X002508Y015479D01*
X002819Y015789D01*
X003038Y015789D01*
X003038Y015259D01*
X003038Y015259D01*
X003038Y015259D01*
X003038Y015789D01*
X003258Y015789D01*
X003038Y015685D02*
X003038Y015685D01*
X003038Y015527D02*
X003038Y015527D01*
X003038Y015368D02*
X003038Y015368D01*
X002556Y015527D02*
X002337Y015527D01*
X002337Y015685D02*
X002715Y015685D01*
X002337Y015844D02*
X005305Y015844D01*
X005401Y015685D02*
X005401Y015685D01*
X005401Y015527D02*
X005401Y015527D01*
X005401Y015368D02*
X005401Y015368D01*
X005077Y015685D02*
X004825Y015685D01*
X004847Y016002D02*
X005147Y016002D01*
X005121Y016161D02*
X005081Y016161D01*
X004322Y015527D02*
X003521Y015527D01*
X003568Y015368D02*
X004294Y015368D01*
X004294Y015210D02*
X003568Y015210D01*
X003568Y015051D02*
X004383Y015051D01*
X004365Y014893D02*
X003421Y014893D01*
X003369Y014734D02*
X004206Y014734D01*
X004048Y014576D02*
X003524Y014576D01*
X003590Y014417D02*
X003889Y014417D01*
X003731Y014259D02*
X003608Y014259D01*
X004018Y013783D02*
X004830Y013783D01*
X004951Y013904D02*
X004423Y013376D01*
X003615Y013376D01*
X003608Y013373D01*
X004805Y014570D01*
X004881Y014646D01*
X004922Y014745D01*
X004922Y014988D01*
X005142Y014769D01*
X005078Y014742D01*
X004918Y014582D01*
X004831Y014373D01*
X004831Y014146D01*
X004918Y013937D01*
X004951Y013904D01*
X004916Y013942D02*
X004177Y013942D01*
X004335Y014100D02*
X004850Y014100D01*
X004831Y014259D02*
X004494Y014259D01*
X004652Y014417D02*
X004849Y014417D01*
X004811Y014576D02*
X004915Y014576D01*
X004918Y014734D02*
X005070Y014734D01*
X005018Y014893D02*
X004922Y014893D01*
X005951Y014100D02*
X010541Y014100D01*
X010987Y013783D02*
X015170Y013783D01*
X015170Y013900D02*
X015170Y013265D01*
X015081Y013176D01*
X015081Y013104D01*
X015016Y013131D01*
X014777Y013131D01*
X014557Y013039D01*
X014397Y012879D01*
X014236Y013039D01*
X014016Y013131D01*
X013777Y013131D01*
X013557Y013039D01*
X013397Y012879D01*
X013236Y013039D01*
X013016Y013131D01*
X012964Y013131D01*
X012964Y013412D01*
X012754Y013622D01*
X012457Y013622D01*
X012246Y013412D01*
X012246Y013286D01*
X012069Y013109D01*
X012016Y013131D01*
X011777Y013131D01*
X011557Y013039D01*
X011397Y012879D01*
X011236Y013039D01*
X011016Y013131D01*
X010777Y013131D01*
X010707Y013102D01*
X010838Y013233D01*
X010838Y013530D01*
X010786Y013582D01*
X011447Y014243D01*
X011573Y014243D01*
X011783Y014453D01*
X011783Y014750D01*
X011573Y014961D01*
X011276Y014961D01*
X011143Y014828D01*
X011143Y015135D01*
X011215Y015165D01*
X011381Y015331D01*
X011381Y015331D01*
X011381Y015331D01*
X011547Y015165D01*
X011764Y015075D01*
X011998Y015075D01*
X012215Y015165D01*
X012331Y015281D01*
X012331Y015271D01*
X012343Y015225D01*
X012367Y015184D01*
X012400Y015151D01*
X012441Y015127D01*
X012487Y015115D01*
X012861Y015115D01*
X012861Y015645D01*
X012901Y015645D01*
X012901Y015685D01*
X013431Y015685D01*
X013834Y015685D01*
X013834Y015782D02*
X013834Y015548D01*
X013924Y015331D01*
X014090Y015165D01*
X014186Y015125D01*
X014186Y014942D01*
X014227Y014843D01*
X015170Y013900D01*
X015128Y013942D02*
X011145Y013942D01*
X011304Y014100D02*
X014970Y014100D01*
X014811Y014259D02*
X011588Y014259D01*
X011747Y014417D02*
X014653Y014417D01*
X014494Y014576D02*
X011783Y014576D01*
X011783Y014734D02*
X014336Y014734D01*
X014206Y014893D02*
X011641Y014893D01*
X011502Y015210D02*
X011260Y015210D01*
X011143Y015051D02*
X014186Y015051D01*
X014045Y015210D02*
X013409Y015210D01*
X013419Y015225D02*
X013431Y015271D01*
X013431Y015645D01*
X012901Y015645D01*
X012901Y015115D01*
X013275Y015115D01*
X013320Y015127D01*
X013361Y015151D01*
X013395Y015184D01*
X013419Y015225D01*
X013431Y015368D02*
X013909Y015368D01*
X013843Y015527D02*
X013431Y015527D01*
X013431Y015685D02*
X013431Y015986D01*
X013919Y015986D01*
X013834Y015782D01*
X013860Y015844D02*
X013431Y015844D01*
X012901Y015527D02*
X012861Y015527D01*
X012861Y015368D02*
X012901Y015368D01*
X012901Y015210D02*
X012861Y015210D01*
X012352Y015210D02*
X012260Y015210D01*
X011207Y014893D02*
X011143Y014893D01*
X009949Y013942D02*
X005886Y013942D01*
X005730Y013783D02*
X009791Y013783D01*
X009632Y013625D02*
X005435Y013625D01*
X005276Y013466D02*
X009474Y013466D01*
X009315Y013308D02*
X005118Y013308D01*
X004959Y013149D02*
X009157Y013149D01*
X008524Y012991D02*
X008270Y012991D01*
X007524Y012991D02*
X007270Y012991D01*
X006524Y012991D02*
X006270Y012991D01*
X005524Y012991D02*
X005195Y012991D01*
X005359Y012832D02*
X005379Y012832D01*
X004915Y012832D02*
X004878Y012832D01*
X004878Y012674D02*
X004915Y012674D01*
X004878Y012534D02*
X004878Y012497D01*
X004337Y012497D01*
X003915Y012497D01*
X003915Y012534D01*
X004878Y012534D01*
X004878Y012515D02*
X003915Y012515D01*
X003915Y012497D02*
X003915Y011955D01*
X003941Y011955D01*
X004028Y011969D01*
X004112Y011996D01*
X004190Y012036D01*
X004261Y012088D01*
X004324Y012150D01*
X004376Y012222D01*
X004397Y012263D01*
X004418Y012222D01*
X004470Y012150D01*
X004532Y012088D01*
X004603Y012036D01*
X004682Y011996D01*
X004766Y011969D01*
X004853Y011955D01*
X004878Y011955D01*
X004878Y012497D01*
X004915Y012497D01*
X004915Y011955D01*
X004941Y011955D01*
X005028Y011969D01*
X005112Y011996D01*
X005190Y012036D01*
X005261Y012088D01*
X005324Y012150D01*
X005371Y012216D01*
X005388Y012176D01*
X005557Y012007D01*
X005777Y011915D01*
X006016Y011915D01*
X006236Y012007D01*
X006397Y012167D01*
X006557Y012007D01*
X006777Y011915D01*
X007016Y011915D01*
X007236Y012007D01*
X007397Y012167D01*
X007557Y012007D01*
X007777Y011915D01*
X008016Y011915D01*
X008236Y012007D01*
X008397Y012167D01*
X008557Y012007D01*
X008777Y011915D01*
X009016Y011915D01*
X009236Y012007D01*
X009405Y012175D01*
X009542Y012037D01*
X009441Y012037D01*
X009342Y011996D01*
X006638Y009291D01*
X006512Y009291D01*
X006302Y009082D01*
X005471Y009913D01*
X005681Y010123D01*
X005681Y010420D01*
X005470Y010630D01*
X005345Y010630D01*
X005051Y010924D01*
X005051Y011050D01*
X004841Y011260D01*
X004543Y011260D01*
X004334Y011050D01*
X003703Y011681D01*
X003584Y011803D01*
X003584Y012050D01*
X003603Y012036D01*
X003682Y011996D01*
X003766Y011969D01*
X003853Y011955D01*
X003878Y011955D01*
X003878Y012497D01*
X003915Y012497D01*
X003915Y012357D02*
X003878Y012357D01*
X003878Y012198D02*
X003915Y012198D01*
X003915Y012040D02*
X003878Y012040D01*
X003599Y012040D02*
X003584Y012040D01*
X003584Y011881D02*
X009227Y011881D01*
X009269Y012040D02*
X009540Y012040D01*
X009069Y011723D02*
X003662Y011723D01*
X003820Y011564D02*
X008910Y011564D01*
X008752Y011406D02*
X003978Y011406D01*
X004137Y011247D02*
X004530Y011247D01*
X004372Y011089D02*
X004295Y011089D01*
X004853Y011247D02*
X008593Y011247D01*
X008435Y011089D02*
X005012Y011089D01*
X005051Y010930D02*
X008276Y010930D01*
X008118Y010772D02*
X005203Y010772D01*
X005487Y010613D02*
X007959Y010613D01*
X007801Y010455D02*
X005646Y010455D01*
X005681Y010296D02*
X007642Y010296D01*
X007484Y010138D02*
X005681Y010138D01*
X005537Y009979D02*
X007325Y009979D01*
X007167Y009821D02*
X005563Y009821D01*
X005722Y009662D02*
X007008Y009662D01*
X006850Y009504D02*
X005880Y009504D01*
X006039Y009345D02*
X006691Y009345D01*
X006407Y009187D02*
X006197Y009187D01*
X005751Y008870D02*
X004765Y008870D01*
X004765Y009028D02*
X005593Y009028D01*
X005434Y009187D02*
X004765Y009187D01*
X004765Y009345D02*
X005276Y009345D01*
X005117Y009504D02*
X004765Y009504D01*
X004765Y009662D02*
X004959Y009662D01*
X004800Y009821D02*
X004765Y009821D01*
X004765Y008711D02*
X005910Y008711D01*
X006068Y008553D02*
X004765Y008553D01*
X004832Y008394D02*
X006227Y008394D01*
X006385Y008236D02*
X004854Y008236D01*
X004854Y008077D02*
X006544Y008077D01*
X006702Y007919D02*
X004697Y007919D01*
X004488Y007760D02*
X006861Y007760D01*
X007019Y007602D02*
X004489Y007602D01*
X004578Y007443D02*
X007178Y007443D01*
X007336Y007285D02*
X004578Y007285D01*
X004495Y007126D02*
X007495Y007126D01*
X007653Y006968D02*
X004400Y006968D01*
X004558Y006809D02*
X007812Y006809D01*
X007955Y006651D02*
X004716Y006651D01*
X004874Y006492D02*
X008003Y006492D01*
X008161Y006334D02*
X005032Y006334D01*
X005190Y006175D02*
X005418Y006175D01*
X006210Y006175D02*
X015382Y006175D01*
X015316Y006334D02*
X008466Y006334D01*
X008625Y006492D02*
X015297Y006492D01*
X015310Y006651D02*
X008673Y006651D01*
X008673Y006809D02*
X015376Y006809D01*
X015516Y006968D02*
X008542Y006968D01*
X008258Y007126D02*
X015422Y007126D01*
X015337Y007285D02*
X008099Y007285D01*
X007941Y007443D02*
X015297Y007443D01*
X015297Y007602D02*
X007782Y007602D01*
X007624Y007760D02*
X015355Y007760D01*
X015467Y007919D02*
X007465Y007919D01*
X007307Y008077D02*
X015471Y008077D01*
X015357Y008236D02*
X007148Y008236D01*
X006990Y008394D02*
X008880Y008394D01*
X008901Y008382D02*
X009189Y008305D01*
X009486Y008305D01*
X009774Y008382D01*
X010031Y008531D01*
X010242Y008741D01*
X010391Y008999D01*
X010468Y009286D01*
X010468Y009584D01*
X010391Y009871D01*
X010242Y010129D01*
X010031Y010339D01*
X009774Y010488D01*
X009486Y010565D01*
X009189Y010565D01*
X008901Y010488D01*
X008644Y010339D01*
X008433Y010129D01*
X008285Y009871D01*
X008208Y009584D01*
X008208Y009286D01*
X008285Y008999D01*
X008433Y008741D01*
X008644Y008531D01*
X008901Y008382D01*
X008622Y008553D02*
X006831Y008553D01*
X006946Y008711D02*
X008463Y008711D01*
X008359Y008870D02*
X007019Y008870D01*
X007137Y009028D02*
X008277Y009028D01*
X008234Y009187D02*
X007296Y009187D01*
X007454Y009345D02*
X008208Y009345D01*
X008208Y009504D02*
X007613Y009504D01*
X007771Y009662D02*
X008229Y009662D01*
X008271Y009821D02*
X007930Y009821D01*
X008088Y009979D02*
X008347Y009979D01*
X008442Y010138D02*
X008247Y010138D01*
X008405Y010296D02*
X008601Y010296D01*
X008564Y010455D02*
X008844Y010455D01*
X008722Y010613D02*
X014932Y010613D01*
X014889Y010772D02*
X008881Y010772D01*
X009039Y010930D02*
X014889Y010930D01*
X014900Y011089D02*
X009198Y011089D01*
X009356Y011247D02*
X014965Y011247D01*
X015043Y011406D02*
X009515Y011406D01*
X010251Y012037D02*
X010397Y012183D01*
X010542Y012037D01*
X010251Y012037D01*
X010253Y012040D02*
X010540Y012040D01*
X011251Y012037D02*
X011397Y012183D01*
X011542Y012037D01*
X011251Y012037D01*
X011253Y012040D02*
X011540Y012040D01*
X012251Y012037D02*
X012397Y012183D01*
X012542Y012037D01*
X012251Y012037D01*
X012253Y012040D02*
X012540Y012040D01*
X013251Y012037D02*
X013397Y012183D01*
X013542Y012037D01*
X013251Y012037D01*
X013253Y012040D02*
X013540Y012040D01*
X014251Y012037D02*
X014397Y012183D01*
X014542Y012037D01*
X014251Y012037D01*
X014253Y012040D02*
X014540Y012040D01*
X015253Y012040D02*
X017062Y012040D01*
X017062Y012198D02*
X015408Y012198D01*
X015474Y012357D02*
X017079Y012357D01*
X017336Y012515D02*
X015496Y012515D01*
X015594Y012674D02*
X017336Y012674D01*
X017336Y012832D02*
X015752Y012832D01*
X015799Y012991D02*
X017336Y012991D01*
X017062Y013149D02*
X015799Y013149D01*
X015710Y013308D02*
X017062Y013308D01*
X017062Y013466D02*
X015710Y013466D01*
X015710Y013625D02*
X017062Y013625D01*
X017062Y013783D02*
X015710Y013783D01*
X015710Y013942D02*
X017062Y013942D01*
X017130Y014100D02*
X015695Y014100D01*
X015574Y014259D02*
X018714Y014259D01*
X018714Y014417D02*
X015416Y014417D01*
X015257Y014576D02*
X018714Y014576D01*
X018714Y014734D02*
X015135Y014734D01*
X015170Y013625D02*
X010828Y013625D01*
X010838Y013466D02*
X012301Y013466D01*
X012246Y013308D02*
X010838Y013308D01*
X010754Y013149D02*
X012110Y013149D01*
X011508Y012991D02*
X011285Y012991D01*
X010540Y013023D02*
X010397Y012879D01*
X010378Y012898D01*
X010502Y013023D01*
X010540Y013023D01*
X010508Y012991D02*
X010470Y012991D01*
X008524Y012040D02*
X008269Y012040D01*
X007524Y012040D02*
X007269Y012040D01*
X006524Y012040D02*
X006269Y012040D01*
X005524Y012040D02*
X005195Y012040D01*
X005358Y012198D02*
X005379Y012198D01*
X004915Y012198D02*
X004878Y012198D01*
X004878Y012040D02*
X004915Y012040D01*
X004599Y012040D02*
X004195Y012040D01*
X004358Y012198D02*
X004435Y012198D01*
X004878Y012357D02*
X004915Y012357D01*
X004397Y012767D02*
X004376Y012809D01*
X004356Y012836D01*
X004438Y012836D01*
X004418Y012809D01*
X004397Y012767D01*
X004359Y012832D02*
X004435Y012832D01*
X004878Y012991D02*
X004915Y012991D01*
X004513Y013466D02*
X003701Y013466D01*
X003860Y013625D02*
X004672Y013625D01*
X003169Y013697D02*
X002915Y013443D01*
X002915Y013467D01*
X003138Y013690D01*
X003152Y013690D01*
X003169Y013697D01*
X003097Y013625D02*
X003072Y013625D01*
X002938Y013466D02*
X002915Y013466D01*
X002375Y013466D02*
X002337Y013466D01*
X002337Y013308D02*
X002376Y013308D01*
X002377Y013149D02*
X002337Y013149D01*
X002337Y012991D02*
X002378Y012991D01*
X002379Y012832D02*
X002337Y012832D01*
X002337Y012674D02*
X002379Y012674D01*
X002380Y012515D02*
X002337Y012515D01*
X002337Y012357D02*
X002381Y012357D01*
X002382Y012198D02*
X002337Y012198D01*
X002337Y012040D02*
X002383Y012040D01*
X002383Y011881D02*
X002337Y011881D01*
X002337Y011723D02*
X002384Y011723D01*
X002385Y011564D02*
X002337Y011564D01*
X002337Y011406D02*
X002386Y011406D01*
X002386Y011247D02*
X002337Y011247D01*
X002337Y011089D02*
X002387Y011089D01*
X002388Y010930D02*
X002337Y010930D01*
X002337Y010772D02*
X002389Y010772D01*
X002390Y010613D02*
X002337Y010613D01*
X002337Y010455D02*
X002390Y010455D01*
X002391Y010296D02*
X002337Y010296D01*
X002337Y010138D02*
X002392Y010138D01*
X002393Y009979D02*
X002337Y009979D01*
X002337Y009821D02*
X002380Y009821D01*
X002337Y009283D02*
X002388Y009160D01*
X002548Y008999D01*
X002388Y008839D01*
X002337Y008716D01*
X002337Y009283D01*
X002337Y009187D02*
X002377Y009187D01*
X002337Y009028D02*
X002520Y009028D01*
X002418Y008870D02*
X002337Y008870D01*
X002337Y008283D02*
X002388Y008160D01*
X002548Y007999D01*
X002388Y007839D01*
X002337Y007716D01*
X002337Y008283D01*
X002337Y008236D02*
X002357Y008236D01*
X002337Y008077D02*
X002471Y008077D01*
X002467Y007919D02*
X002337Y007919D01*
X002337Y007760D02*
X002355Y007760D01*
X006334Y006017D02*
X015531Y006017D01*
X015407Y005858D02*
X006334Y005858D01*
X006334Y005700D02*
X015330Y005700D01*
X016421Y006801D02*
X016405Y006839D01*
X016245Y006999D01*
X016405Y007160D01*
X016441Y007245D01*
X016509Y007245D01*
X016509Y006801D01*
X016421Y006801D01*
X016418Y006809D02*
X016509Y006809D01*
X016509Y006968D02*
X016277Y006968D01*
X016371Y007126D02*
X016509Y007126D01*
X017048Y007760D02*
X017062Y007760D01*
X017048Y007919D02*
X017062Y007919D01*
X017048Y008077D02*
X017062Y008077D01*
X017054Y008236D02*
X017062Y008236D01*
X016773Y008718D02*
X016773Y009687D01*
X017062Y009976D01*
X017062Y009479D01*
X017191Y009350D01*
X017296Y009350D01*
X017296Y009241D01*
X016773Y008718D01*
X016773Y008870D02*
X016925Y008870D01*
X016773Y009028D02*
X017083Y009028D01*
X017242Y009187D02*
X016773Y009187D01*
X016773Y009345D02*
X017296Y009345D01*
X017062Y009504D02*
X016773Y009504D01*
X016773Y009662D02*
X017062Y009662D01*
X017062Y009821D02*
X016906Y009821D01*
X016460Y010138D02*
X016231Y010138D01*
X016258Y010149D02*
X016503Y010394D01*
X016636Y010715D01*
X016636Y011063D01*
X016636Y011064D01*
X017261Y011064D01*
X017168Y010971D01*
X017168Y010845D01*
X016350Y010027D01*
X016284Y009961D01*
X016236Y010008D01*
X016077Y010074D01*
X016258Y010149D01*
X016265Y009979D02*
X016302Y009979D01*
X016405Y010296D02*
X016619Y010296D01*
X016528Y010455D02*
X016777Y010455D01*
X016936Y010613D02*
X016594Y010613D01*
X016636Y010772D02*
X017094Y010772D01*
X017168Y010930D02*
X016636Y010930D01*
X016535Y011723D02*
X017062Y011723D01*
X017062Y011881D02*
X016377Y011881D01*
X017792Y011064D02*
X017970Y011064D01*
X018069Y011105D01*
X018145Y011181D01*
X018270Y011306D01*
X018296Y011333D01*
X018310Y011319D01*
X019122Y011319D01*
X019251Y011447D01*
X019251Y011616D01*
X019468Y011616D01*
X019735Y011312D01*
X019738Y011305D01*
X019770Y011272D01*
X019801Y011238D01*
X019808Y011234D01*
X019813Y011229D01*
X019856Y011211D01*
X019897Y011190D01*
X019905Y011190D01*
X019912Y011187D01*
X019958Y011186D01*
X020004Y011184D01*
X020011Y011186D01*
X020019Y011186D01*
X020019Y011062D01*
X020147Y010933D01*
X020288Y010933D01*
X020288Y009904D01*
X020125Y009904D01*
X019960Y010070D01*
X019884Y010146D01*
X019785Y010187D01*
X019251Y010187D01*
X019251Y010371D01*
X019122Y010499D01*
X018310Y010499D01*
X018182Y010371D01*
X018182Y009479D01*
X018310Y009350D01*
X018791Y009350D01*
X018509Y009068D01*
X017839Y009068D01*
X017831Y009065D01*
X017836Y009076D01*
X017836Y009350D01*
X018003Y009350D01*
X018131Y009479D01*
X018131Y010371D01*
X018003Y010499D01*
X017711Y010499D01*
X017885Y010674D01*
X017885Y010971D01*
X017792Y011064D01*
X017885Y010930D02*
X020288Y010930D01*
X020288Y010772D02*
X017885Y010772D01*
X017825Y010613D02*
X020288Y010613D01*
X020288Y010455D02*
X019167Y010455D01*
X019251Y010296D02*
X020288Y010296D01*
X020288Y010138D02*
X019892Y010138D01*
X020051Y009979D02*
X020288Y009979D01*
X019630Y009504D02*
X019525Y009504D01*
X019511Y009345D02*
X019630Y009345D01*
X019643Y009187D02*
X019390Y009187D01*
X019232Y009028D02*
X019694Y009028D01*
X019669Y008870D02*
X019073Y008870D01*
X019108Y008711D02*
X019669Y008711D01*
X019669Y008553D02*
X019211Y008553D01*
X019211Y008394D02*
X019747Y008394D01*
X020107Y008394D02*
X020143Y008394D01*
X020143Y008553D02*
X020107Y008553D01*
X020107Y008711D02*
X020143Y008711D01*
X020581Y008711D02*
X020611Y008711D01*
X020581Y008553D02*
X021147Y008553D01*
X021354Y008394D02*
X020503Y008394D01*
X021486Y009028D02*
X023061Y009028D01*
X023725Y009028D02*
X027741Y009028D01*
X027642Y008870D02*
X023852Y008870D01*
X023909Y008711D02*
X027592Y008711D01*
X027592Y008553D02*
X023909Y008553D01*
X023854Y008394D02*
X027640Y008394D01*
X027736Y008236D02*
X023729Y008236D01*
X023056Y008236D02*
X018794Y008236D01*
X018639Y008236D02*
X018131Y008236D01*
X018131Y008394D02*
X018221Y008394D01*
X018221Y008077D02*
X018131Y008077D01*
X018131Y007919D02*
X018221Y007919D01*
X018238Y007760D02*
X018131Y007760D01*
X018639Y007760D02*
X018794Y007760D01*
X018794Y007919D02*
X018639Y007919D01*
X018639Y008077D02*
X018794Y008077D01*
X019211Y008077D02*
X027952Y008077D01*
X028076Y007095D02*
X027854Y007003D01*
X027684Y006834D01*
X027592Y006612D01*
X027592Y006372D01*
X027684Y006150D01*
X027854Y005980D01*
X028076Y005888D01*
X028316Y005888D01*
X028388Y005918D01*
X028397Y005909D01*
X028497Y005868D01*
X031455Y005868D01*
X031502Y005754D01*
X031673Y005582D01*
X031897Y005490D01*
X032920Y005490D01*
X033144Y005582D01*
X033315Y005754D01*
X033408Y005978D01*
X033408Y006221D01*
X033315Y006445D01*
X033144Y006616D01*
X032920Y006709D01*
X031897Y006709D01*
X031673Y006616D01*
X031502Y006445D01*
X031486Y006407D01*
X028799Y006407D01*
X028799Y006612D01*
X028708Y006834D01*
X028538Y007003D01*
X028316Y007095D01*
X028076Y007095D01*
X027818Y006968D02*
X023594Y006968D01*
X023685Y006930D02*
X023495Y007008D01*
X023290Y007008D01*
X023100Y006930D01*
X022955Y006784D01*
X022876Y006594D01*
X022876Y006389D01*
X022886Y006366D01*
X022494Y005974D01*
X021058Y005974D01*
X021058Y006051D01*
X020929Y006180D01*
X020385Y006180D01*
X019803Y006763D01*
X019727Y006838D01*
X019627Y006879D01*
X019290Y006879D01*
X019290Y007056D01*
X019162Y007184D01*
X018350Y007184D01*
X018221Y007056D01*
X018221Y006164D01*
X018350Y006035D01*
X019162Y006035D01*
X019290Y006164D01*
X019290Y006340D01*
X019462Y006340D01*
X020019Y005783D01*
X020019Y005279D01*
X020147Y005150D01*
X020929Y005150D01*
X021058Y005279D01*
X021058Y005434D01*
X022659Y005434D01*
X022758Y005476D01*
X022834Y005551D01*
X023267Y005984D01*
X023290Y005975D01*
X023495Y005975D01*
X023685Y006054D01*
X023831Y006199D01*
X023909Y006389D01*
X023909Y006594D01*
X023831Y006784D01*
X023685Y006930D01*
X023806Y006809D02*
X027674Y006809D01*
X027608Y006651D02*
X023886Y006651D01*
X023909Y006492D02*
X027592Y006492D01*
X027608Y006334D02*
X023886Y006334D01*
X023807Y006175D02*
X027674Y006175D01*
X027817Y006017D02*
X023596Y006017D01*
X023141Y005858D02*
X031458Y005858D01*
X031556Y005700D02*
X022982Y005700D01*
X022824Y005541D02*
X031773Y005541D01*
X031897Y004739D02*
X031673Y004646D01*
X031502Y004475D01*
X031470Y004399D01*
X023181Y004399D01*
X023144Y004488D01*
X022966Y004666D01*
X022733Y004763D01*
X022481Y004763D01*
X022248Y004666D01*
X022070Y004488D01*
X021974Y004255D01*
X021974Y004003D01*
X022070Y003771D01*
X022248Y003593D01*
X022481Y003496D01*
X022733Y003496D01*
X022966Y003593D01*
X023144Y003771D01*
X023181Y003860D01*
X031470Y003860D01*
X031502Y003784D01*
X031673Y003612D01*
X031897Y003520D01*
X032920Y003520D01*
X033144Y003612D01*
X033315Y003784D01*
X033408Y004008D01*
X033408Y004251D01*
X033315Y004475D01*
X033144Y004646D01*
X032920Y004739D01*
X031897Y004739D01*
X031617Y004590D02*
X023042Y004590D01*
X023167Y004432D02*
X031484Y004432D01*
X031496Y003798D02*
X023155Y003798D01*
X023012Y003639D02*
X031647Y003639D01*
X031897Y002769D02*
X031673Y002676D01*
X031502Y002505D01*
X031455Y002391D01*
X028497Y002391D01*
X028397Y002350D01*
X028388Y002341D01*
X028316Y002371D01*
X028076Y002371D01*
X027854Y002279D01*
X027684Y002109D01*
X027592Y001887D01*
X027592Y001647D01*
X027684Y001425D01*
X027854Y001255D01*
X028076Y001164D01*
X028316Y001164D01*
X028538Y001255D01*
X028708Y001425D01*
X028799Y001647D01*
X028799Y001852D01*
X031486Y001852D01*
X031502Y001814D01*
X031673Y001642D01*
X031897Y001550D01*
X032920Y001550D01*
X033144Y001642D01*
X033315Y001814D01*
X033408Y002038D01*
X033408Y002281D01*
X033315Y002505D01*
X033144Y002676D01*
X032920Y002769D01*
X031897Y002769D01*
X031701Y002688D02*
X021365Y002688D01*
X021261Y002847D02*
X035551Y002847D01*
X035551Y003005D02*
X021261Y003005D01*
X021261Y003164D02*
X035551Y003164D01*
X035551Y003322D02*
X021261Y003322D01*
X021261Y003481D02*
X035551Y003481D01*
X035551Y003639D02*
X033170Y003639D01*
X033321Y003798D02*
X035551Y003798D01*
X035551Y003956D02*
X033387Y003956D01*
X033408Y004115D02*
X035551Y004115D01*
X035551Y004273D02*
X033399Y004273D01*
X033333Y004432D02*
X035551Y004432D01*
X035551Y004590D02*
X033200Y004590D01*
X033044Y005541D02*
X035551Y005541D01*
X035551Y005383D02*
X021058Y005383D01*
X021004Y005224D02*
X035551Y005224D01*
X035551Y005066D02*
X019290Y005066D01*
X019290Y005224D02*
X020073Y005224D01*
X020019Y005383D02*
X019271Y005383D01*
X019290Y004907D02*
X035551Y004907D01*
X035551Y004749D02*
X022767Y004749D01*
X022447Y004749D02*
X020983Y004749D01*
X021058Y004590D02*
X022172Y004590D01*
X022047Y004432D02*
X021223Y004432D01*
X021261Y004273D02*
X021981Y004273D01*
X021974Y004115D02*
X021261Y004115D01*
X021261Y003956D02*
X021993Y003956D01*
X022059Y003798D02*
X021261Y003798D01*
X021261Y003639D02*
X022202Y003639D01*
X020721Y003639D02*
X017875Y003639D01*
X017875Y003798D02*
X020122Y003798D01*
X020019Y003956D02*
X017875Y003956D01*
X017875Y004115D02*
X019207Y004115D01*
X019049Y004273D02*
X017875Y004273D01*
X018131Y004432D02*
X018260Y004432D01*
X018221Y004590D02*
X018171Y004590D01*
X018171Y004749D02*
X018221Y004749D01*
X018221Y004907D02*
X018171Y004907D01*
X018171Y005066D02*
X018221Y005066D01*
X018221Y005224D02*
X018171Y005224D01*
X018151Y005383D02*
X018241Y005383D01*
X017914Y005541D02*
X020019Y005541D01*
X020019Y005700D02*
X017914Y005700D01*
X017914Y005858D02*
X019944Y005858D01*
X019786Y006017D02*
X017914Y006017D01*
X018171Y006175D02*
X018221Y006175D01*
X018221Y006334D02*
X018171Y006334D01*
X018171Y006492D02*
X018221Y006492D01*
X018221Y006651D02*
X018171Y006651D01*
X018171Y006809D02*
X018221Y006809D01*
X018221Y006968D02*
X018171Y006968D01*
X018100Y007126D02*
X018291Y007126D01*
X019220Y007126D02*
X035551Y007126D01*
X035551Y006968D02*
X028574Y006968D01*
X028718Y006809D02*
X035551Y006809D01*
X035551Y006651D02*
X033061Y006651D01*
X033268Y006492D02*
X035551Y006492D01*
X035551Y006334D02*
X033361Y006334D01*
X033408Y006175D02*
X035551Y006175D01*
X035551Y006017D02*
X033408Y006017D01*
X033358Y005858D02*
X035551Y005858D01*
X035551Y005700D02*
X033261Y005700D01*
X031756Y006651D02*
X028783Y006651D01*
X028799Y006492D02*
X031549Y006492D01*
X033116Y002688D02*
X035551Y002688D01*
X035551Y002530D02*
X033291Y002530D01*
X033371Y002371D02*
X035551Y002371D01*
X035551Y002213D02*
X033408Y002213D01*
X033408Y002054D02*
X035551Y002054D01*
X035551Y001896D02*
X033349Y001896D01*
X033238Y001737D02*
X035551Y001737D01*
X035551Y001579D02*
X032989Y001579D01*
X031827Y001579D02*
X028771Y001579D01*
X028799Y001737D02*
X031579Y001737D01*
X031526Y002530D02*
X022981Y002530D01*
X023170Y002371D02*
X028448Y002371D01*
X027788Y002213D02*
X023668Y002213D01*
X023833Y002054D02*
X027661Y002054D01*
X027596Y001896D02*
X023899Y001896D01*
X023909Y001737D02*
X027592Y001737D01*
X027621Y001579D02*
X023874Y001579D01*
X023776Y001420D02*
X027689Y001420D01*
X027848Y001262D02*
X023522Y001262D01*
X023264Y001262D02*
X019251Y001262D01*
X019251Y001420D02*
X023009Y001420D01*
X022912Y001579D02*
X020526Y001579D01*
X020581Y001737D02*
X022876Y001737D01*
X022883Y001896D02*
X021391Y001896D01*
X020591Y001896D02*
X020143Y001896D01*
X020107Y001896D02*
X019251Y001896D01*
X019251Y001737D02*
X019669Y001737D01*
X019724Y001579D02*
X018833Y001579D01*
X018678Y001579D02*
X018171Y001579D01*
X018171Y001737D02*
X018261Y001737D01*
X018261Y001896D02*
X018171Y001896D01*
X018171Y001420D02*
X018261Y001420D01*
X018261Y001262D02*
X018171Y001262D01*
X018110Y001103D02*
X018344Y001103D01*
X018678Y001103D02*
X018833Y001103D01*
X018833Y001262D02*
X018678Y001262D01*
X018678Y001420D02*
X018833Y001420D01*
X019168Y001103D02*
X035281Y001103D01*
X035108Y000945D02*
X006627Y000945D01*
X006468Y001103D02*
X017162Y001103D01*
X017101Y001262D02*
X006310Y001262D01*
X006151Y001420D02*
X017101Y001420D01*
X018171Y002530D02*
X018221Y002530D01*
X018221Y002688D02*
X018171Y002688D01*
X018171Y002847D02*
X018221Y002847D01*
X018221Y003005D02*
X018171Y003005D01*
X018171Y003164D02*
X018221Y003164D01*
X018221Y003322D02*
X018171Y003322D01*
X018084Y003481D02*
X018307Y003481D01*
X019204Y003481D02*
X020721Y003481D01*
X020721Y003322D02*
X019290Y003322D01*
X020016Y003164D02*
X020721Y003164D01*
X020721Y003005D02*
X020556Y003005D01*
X020620Y002847D02*
X020721Y002847D01*
X019630Y002530D02*
X019290Y002530D01*
X019048Y002371D02*
X019630Y002371D01*
X019706Y002213D02*
X018952Y002213D01*
X019227Y002054D02*
X019669Y002054D01*
X020107Y001737D02*
X020143Y001737D01*
X020143Y001579D02*
X020107Y001579D01*
X016656Y003798D02*
X016422Y003798D01*
X016488Y003639D02*
X016497Y003639D01*
X019336Y004749D02*
X020094Y004749D01*
X021058Y006017D02*
X022536Y006017D01*
X022695Y006175D02*
X020934Y006175D01*
X020232Y006334D02*
X022853Y006334D01*
X022876Y006492D02*
X020073Y006492D01*
X019915Y006651D02*
X022899Y006651D01*
X022980Y006809D02*
X019756Y006809D01*
X019290Y006968D02*
X023192Y006968D01*
X019627Y006175D02*
X019290Y006175D01*
X019290Y006334D02*
X019469Y006334D01*
X015297Y008394D02*
X009795Y008394D01*
X010053Y008553D02*
X015297Y008553D01*
X015335Y008711D02*
X010212Y008711D01*
X010316Y008870D02*
X015418Y008870D01*
X015520Y009028D02*
X010398Y009028D01*
X010441Y009187D02*
X015377Y009187D01*
X015311Y009345D02*
X010468Y009345D01*
X010468Y009504D02*
X015297Y009504D01*
X015315Y009662D02*
X010447Y009662D01*
X010404Y009821D02*
X015380Y009821D01*
X015528Y009979D02*
X010328Y009979D01*
X010233Y010138D02*
X015295Y010138D01*
X015120Y010296D02*
X010075Y010296D01*
X009832Y010455D02*
X014997Y010455D01*
X017836Y009345D02*
X018786Y009345D01*
X018627Y009187D02*
X017836Y009187D01*
X018131Y009504D02*
X018182Y009504D01*
X018182Y009662D02*
X018131Y009662D01*
X018131Y009821D02*
X018182Y009821D01*
X018182Y009979D02*
X018131Y009979D01*
X018131Y010138D02*
X018182Y010138D01*
X018182Y010296D02*
X018131Y010296D01*
X018047Y010455D02*
X018266Y010455D01*
X018028Y011089D02*
X020019Y011089D01*
X019792Y011247D02*
X018211Y011247D01*
X019209Y011406D02*
X019653Y011406D01*
X019513Y011564D02*
X019251Y011564D01*
X019817Y012040D02*
X024583Y012040D01*
X024741Y012198D02*
X019251Y012198D01*
X019234Y012357D02*
X020102Y012357D01*
X020019Y012515D02*
X018476Y012515D01*
X018476Y012674D02*
X019857Y012674D01*
X019709Y012832D02*
X018387Y012832D01*
X017875Y012991D02*
X019560Y012991D01*
X019410Y013149D02*
X019251Y013149D01*
X019251Y013308D02*
X019261Y013308D01*
X019704Y013625D02*
X022257Y013625D01*
X022257Y013783D02*
X019554Y013783D01*
X019561Y013775D02*
X019529Y013810D01*
X019523Y013813D01*
X019519Y013817D01*
X019474Y013835D01*
X019431Y013854D01*
X019425Y013854D01*
X019419Y013857D01*
X019371Y013856D01*
X019323Y013857D01*
X019318Y013855D01*
X019253Y013854D01*
X019253Y015145D01*
X019302Y015165D01*
X019418Y015281D01*
X019418Y015271D01*
X019430Y015225D01*
X019453Y015184D01*
X019487Y015151D01*
X019528Y015127D01*
X019574Y015115D01*
X019948Y015115D01*
X019948Y015645D01*
X019988Y015645D01*
X019988Y015115D01*
X020361Y015115D01*
X020407Y015127D01*
X020448Y015151D01*
X020482Y015184D01*
X020505Y015225D01*
X020518Y015271D01*
X020518Y015631D01*
X020525Y015624D01*
X020525Y014596D01*
X020087Y014596D01*
X019998Y014685D01*
X019701Y014685D01*
X019491Y014475D01*
X019491Y014178D01*
X019701Y013967D01*
X019998Y013967D01*
X020087Y014057D01*
X020848Y014057D01*
X020947Y014098D01*
X021023Y014173D01*
X021064Y014273D01*
X021064Y015278D01*
X021177Y015165D01*
X021394Y015075D01*
X021628Y015075D01*
X021845Y015165D01*
X022011Y015331D01*
X022011Y015331D01*
X022011Y015331D01*
X022177Y015165D01*
X022257Y015132D01*
X022257Y013139D01*
X021058Y013139D01*
X021058Y013213D01*
X020929Y013341D01*
X020147Y013341D01*
X020056Y013250D01*
X019598Y013736D01*
X019596Y013742D01*
X019561Y013775D01*
X019568Y014100D02*
X019253Y014100D01*
X019253Y013942D02*
X022257Y013942D01*
X022257Y014100D02*
X020950Y014100D01*
X021058Y014259D02*
X022257Y014259D01*
X022257Y014417D02*
X021064Y014417D01*
X021064Y014576D02*
X022257Y014576D01*
X022257Y014734D02*
X021064Y014734D01*
X021064Y014893D02*
X022257Y014893D01*
X022257Y015051D02*
X021064Y015051D01*
X021064Y015210D02*
X021132Y015210D01*
X020525Y015210D02*
X020496Y015210D01*
X020518Y015368D02*
X020525Y015368D01*
X020518Y015527D02*
X020525Y015527D01*
X019988Y015527D02*
X019948Y015527D01*
X019948Y015368D02*
X019988Y015368D01*
X019988Y015210D02*
X019948Y015210D01*
X020525Y015051D02*
X019253Y015051D01*
X019253Y014893D02*
X020525Y014893D01*
X020525Y014734D02*
X019253Y014734D01*
X019253Y014576D02*
X019591Y014576D01*
X019491Y014417D02*
X019253Y014417D01*
X019253Y014259D02*
X019491Y014259D01*
X018714Y014893D02*
X017215Y014893D01*
X017285Y015051D02*
X018714Y015051D01*
X018589Y015210D02*
X018346Y015210D01*
X017589Y015210D02*
X017285Y015210D01*
X017285Y015368D02*
X017452Y015368D01*
X016974Y015848D02*
X016974Y016059D01*
X016962Y016104D01*
X016938Y016145D01*
X016905Y016179D01*
X016864Y016203D01*
X016818Y016215D01*
X016444Y016215D01*
X016444Y015685D01*
X016404Y015685D01*
X016404Y016215D01*
X016031Y016215D01*
X015985Y016203D01*
X015944Y016179D01*
X015910Y016145D01*
X015886Y016104D01*
X015874Y016059D01*
X015874Y016049D01*
X015758Y016165D01*
X015542Y016255D01*
X015307Y016255D01*
X015226Y016221D01*
X015039Y016408D01*
X014963Y016484D01*
X014864Y016525D01*
X012127Y016525D01*
X012127Y017275D01*
X012321Y017275D01*
X012410Y017364D01*
X012798Y017364D01*
X012798Y017091D01*
X013008Y016881D01*
X013305Y016881D01*
X013394Y016970D01*
X019942Y016970D01*
X020042Y017011D01*
X020117Y017087D01*
X020552Y017521D01*
X023683Y017521D01*
X023782Y017562D01*
X023858Y017638D01*
X024867Y018647D01*
X024937Y018618D01*
X025171Y018618D01*
X025388Y018708D01*
X025554Y018874D01*
X025554Y018874D01*
X025720Y018708D01*
X025937Y018618D01*
X026171Y018618D01*
X026388Y018708D01*
X026504Y018824D01*
X026504Y018814D01*
X026516Y018769D01*
X026540Y018728D01*
X026574Y018694D01*
X026615Y018670D01*
X026660Y018658D01*
X027034Y018658D01*
X027034Y019188D01*
X027074Y019188D01*
X027074Y018658D01*
X027448Y018658D01*
X027494Y018670D01*
X027535Y018694D01*
X027568Y018728D01*
X027592Y018769D01*
X027604Y018814D01*
X027604Y019188D01*
X027074Y019188D01*
X027074Y019228D01*
X027604Y019228D01*
X027604Y019602D01*
X027592Y019648D01*
X027568Y019689D01*
X027535Y019722D01*
X027494Y019746D01*
X027448Y019758D01*
X027074Y019758D01*
X027074Y019228D01*
X027034Y019228D01*
X027034Y019758D01*
X026660Y019758D01*
X026615Y019746D01*
X026574Y019722D01*
X026540Y019689D01*
X026516Y019648D01*
X026504Y019602D01*
X026504Y019592D01*
X026388Y019708D01*
X026171Y019798D01*
X025937Y019798D01*
X025720Y019708D01*
X025554Y019542D01*
X025554Y019542D01*
X025554Y019542D01*
X025388Y019708D01*
X025171Y019798D01*
X024937Y019798D01*
X024720Y019708D01*
X024554Y019542D01*
X024464Y019325D01*
X024464Y019091D01*
X024489Y019032D01*
X023517Y018061D01*
X020737Y018061D01*
X021324Y018647D01*
X021394Y018618D01*
X021628Y018618D01*
X021845Y018708D01*
X022011Y018874D01*
X022177Y018708D01*
X022394Y018618D01*
X022628Y018618D01*
X022845Y018708D01*
X022961Y018824D01*
X022961Y018814D01*
X022973Y018769D01*
X022997Y018728D01*
X023030Y018694D01*
X023071Y018670D01*
X023117Y018658D01*
X023491Y018658D01*
X023491Y019188D01*
X023531Y019188D01*
X023531Y019228D01*
X024061Y019228D01*
X024061Y019602D01*
X024049Y019648D01*
X024025Y019689D01*
X023991Y019722D01*
X023950Y019746D01*
X023905Y019758D01*
X023531Y019758D01*
X023531Y019228D01*
X023491Y019228D01*
X023491Y019758D01*
X023117Y019758D01*
X023071Y019746D01*
X023030Y019722D01*
X022997Y019689D01*
X022973Y019648D01*
X022961Y019602D01*
X022961Y019592D01*
X022845Y019708D01*
X022628Y019798D01*
X022394Y019798D01*
X022177Y019708D01*
X022011Y019542D01*
X022011Y019542D01*
X022011Y019542D01*
X021845Y019708D01*
X021628Y019798D01*
X021394Y019798D01*
X021177Y019708D01*
X021011Y019542D01*
X020921Y019325D01*
X020921Y019091D01*
X020945Y019032D01*
X019816Y017903D01*
X018909Y017903D01*
X018909Y018176D01*
X018762Y018322D01*
X018909Y018469D01*
X018909Y018618D01*
X019085Y018618D01*
X019302Y018708D01*
X019418Y018824D01*
X019418Y018814D01*
X019430Y018769D01*
X019453Y018728D01*
X019487Y018694D01*
X019528Y018670D01*
X019574Y018658D01*
X019948Y018658D01*
X019948Y019188D01*
X019988Y019188D01*
X019988Y019228D01*
X020518Y019228D01*
X020518Y019602D01*
X020505Y019648D01*
X020482Y019689D01*
X020448Y019722D01*
X020407Y019746D01*
X020361Y019758D01*
X019988Y019758D01*
X019988Y019228D01*
X019948Y019228D01*
X019948Y019758D01*
X019574Y019758D01*
X019528Y019746D01*
X019487Y019722D01*
X019453Y019689D01*
X019430Y019648D01*
X019418Y019602D01*
X019418Y019592D01*
X019302Y019708D01*
X019085Y019798D01*
X018850Y019798D01*
X018633Y019708D01*
X018468Y019542D01*
X018467Y019542D01*
X018302Y019708D01*
X018085Y019798D01*
X017850Y019798D01*
X017633Y019708D01*
X017481Y019556D01*
X017233Y019805D01*
X031155Y019805D01*
X031575Y019384D01*
X031551Y019325D01*
X031551Y019091D01*
X031641Y018874D01*
X031807Y018708D01*
X032023Y018618D01*
X032258Y018618D01*
X032475Y018708D01*
X032641Y018874D01*
X032807Y018708D01*
X032887Y018675D01*
X032887Y017706D01*
X029883Y017706D01*
X029883Y018688D01*
X029932Y018708D01*
X030047Y018824D01*
X030047Y018814D01*
X030060Y018769D01*
X030083Y018728D01*
X030117Y018694D01*
X030158Y018670D01*
X030204Y018658D01*
X030577Y018658D01*
X030577Y019188D01*
X030617Y019188D01*
X030617Y018658D01*
X030991Y018658D01*
X031037Y018670D01*
X031078Y018694D01*
X031111Y018728D01*
X031135Y018769D01*
X031147Y018814D01*
X031147Y019188D01*
X030617Y019188D01*
X030617Y019228D01*
X030577Y019228D01*
X030577Y019758D01*
X030204Y019758D01*
X030158Y019746D01*
X030117Y019722D01*
X030083Y019689D01*
X030060Y019648D01*
X030047Y019602D01*
X030047Y019592D01*
X029932Y019708D01*
X029715Y019798D01*
X029480Y019798D01*
X029263Y019708D01*
X029097Y019542D01*
X029097Y019542D01*
X029097Y019542D01*
X028932Y019708D01*
X028715Y019798D01*
X028480Y019798D01*
X028263Y019708D01*
X028097Y019542D01*
X028008Y019325D01*
X028008Y019091D01*
X028032Y019032D01*
X025525Y016525D01*
X017709Y016525D01*
X017610Y016484D01*
X016974Y015848D01*
X016974Y016002D02*
X017128Y016002D01*
X017286Y016161D02*
X016923Y016161D01*
X016444Y016161D02*
X016404Y016161D01*
X016404Y016002D02*
X016444Y016002D01*
X016444Y015844D02*
X016404Y015844D01*
X016404Y015685D02*
X016444Y015685D01*
X015925Y016161D02*
X015763Y016161D01*
X015128Y016319D02*
X017445Y016319D01*
X017603Y016478D02*
X014969Y016478D01*
X013377Y016953D02*
X025953Y016953D01*
X025794Y016795D02*
X012127Y016795D01*
X012127Y016953D02*
X012936Y016953D01*
X012798Y017112D02*
X012127Y017112D01*
X012127Y017270D02*
X012798Y017270D01*
X012410Y017903D02*
X015379Y017903D01*
X014628Y018654D01*
X014542Y018618D01*
X014307Y018618D01*
X014090Y018708D01*
X013924Y018874D01*
X013834Y019091D01*
X013834Y019325D01*
X013919Y019529D01*
X013431Y019529D01*
X013431Y019228D01*
X012901Y019228D01*
X012901Y019188D01*
X012901Y018658D01*
X013275Y018658D01*
X013320Y018670D01*
X013361Y018694D01*
X013395Y018728D01*
X013419Y018769D01*
X013431Y018814D01*
X013431Y019188D01*
X012901Y019188D01*
X012861Y019188D01*
X012861Y018658D01*
X012487Y018658D01*
X012441Y018670D01*
X012400Y018694D01*
X012367Y018728D01*
X012343Y018769D01*
X012331Y018814D01*
X012331Y018824D01*
X012215Y018708D01*
X012048Y018639D01*
X012048Y017992D01*
X012321Y017992D01*
X012410Y017903D01*
X012409Y017904D02*
X015378Y017904D01*
X015220Y018063D02*
X012048Y018063D01*
X012048Y018221D02*
X015061Y018221D01*
X014903Y018380D02*
X012048Y018380D01*
X012048Y018538D02*
X014744Y018538D01*
X014118Y018697D02*
X013364Y018697D01*
X013431Y018855D02*
X013943Y018855D01*
X013866Y019014D02*
X013431Y019014D01*
X013431Y019172D02*
X013834Y019172D01*
X013837Y019331D02*
X013431Y019331D01*
X013431Y019489D02*
X013902Y019489D01*
X012901Y019172D02*
X012861Y019172D01*
X012861Y019014D02*
X012901Y019014D01*
X012901Y018855D02*
X012861Y018855D01*
X012861Y018697D02*
X012901Y018697D01*
X012398Y018697D02*
X012187Y018697D01*
X011509Y018697D02*
X011187Y018697D01*
X011215Y018708D02*
X010998Y018618D01*
X010764Y018618D01*
X010552Y018706D01*
X010552Y016167D01*
X010764Y016255D01*
X010998Y016255D01*
X011215Y016165D01*
X011381Y015999D01*
X011381Y015999D01*
X011547Y016165D01*
X011588Y016182D01*
X011588Y017246D01*
X011550Y017284D01*
X011509Y017383D01*
X011509Y018746D01*
X011381Y018874D01*
X011381Y018874D01*
X011381Y018874D01*
X011215Y018708D01*
X011362Y018855D02*
X011400Y018855D01*
X011509Y018538D02*
X010552Y018538D01*
X010552Y018380D02*
X011509Y018380D01*
X011509Y018221D02*
X010552Y018221D01*
X010552Y018063D02*
X011509Y018063D01*
X011509Y017904D02*
X010552Y017904D01*
X010552Y017746D02*
X011509Y017746D01*
X011509Y017587D02*
X010552Y017587D01*
X010552Y017429D02*
X011509Y017429D01*
X011563Y017270D02*
X010552Y017270D01*
X010552Y017112D02*
X011588Y017112D01*
X011588Y016953D02*
X010552Y016953D01*
X010552Y016795D02*
X011588Y016795D01*
X011588Y016636D02*
X010552Y016636D01*
X010552Y016478D02*
X011588Y016478D01*
X011588Y016319D02*
X010552Y016319D01*
X011219Y016161D02*
X011543Y016161D01*
X011384Y016002D02*
X011378Y016002D01*
X011381Y015999D02*
X011381Y015999D01*
X012127Y016636D02*
X025636Y016636D01*
X026018Y016255D02*
X028410Y018647D01*
X028480Y018618D01*
X028715Y018618D01*
X028932Y018708D01*
X029097Y018874D01*
X029097Y018874D01*
X029097Y018874D01*
X029263Y018708D01*
X029343Y018675D01*
X029343Y016525D01*
X026567Y016525D01*
X026468Y016484D01*
X026219Y016235D01*
X026171Y016255D01*
X026018Y016255D01*
X026082Y016319D02*
X026303Y016319D01*
X026240Y016478D02*
X026462Y016478D01*
X026399Y016636D02*
X029343Y016636D01*
X029343Y016795D02*
X026557Y016795D01*
X026716Y016953D02*
X029343Y016953D01*
X029343Y017112D02*
X026874Y017112D01*
X027033Y017270D02*
X029343Y017270D01*
X029343Y017429D02*
X027191Y017429D01*
X027350Y017587D02*
X029343Y017587D01*
X029343Y017746D02*
X027508Y017746D01*
X027667Y017904D02*
X029343Y017904D01*
X029343Y018063D02*
X027825Y018063D01*
X027984Y018221D02*
X029343Y018221D01*
X029343Y018380D02*
X028142Y018380D01*
X028301Y018538D02*
X029343Y018538D01*
X029291Y018697D02*
X028903Y018697D01*
X029078Y018855D02*
X029116Y018855D01*
X029903Y018697D02*
X030114Y018697D01*
X029883Y018538D02*
X032887Y018538D01*
X032887Y018380D02*
X029883Y018380D01*
X029883Y018221D02*
X032887Y018221D01*
X032887Y018063D02*
X029883Y018063D01*
X029883Y017904D02*
X032887Y017904D01*
X032887Y017746D02*
X029883Y017746D01*
X029883Y017112D02*
X032887Y017112D01*
X032887Y016953D02*
X029883Y016953D01*
X029883Y016795D02*
X032887Y016795D01*
X032887Y016636D02*
X029883Y016636D01*
X029883Y016478D02*
X032887Y016478D01*
X032887Y016319D02*
X029883Y016319D01*
X029936Y016161D02*
X030099Y016161D01*
X030577Y016161D02*
X030617Y016161D01*
X030617Y016002D02*
X030577Y016002D01*
X030577Y015844D02*
X030617Y015844D01*
X030617Y015527D02*
X030577Y015527D01*
X030577Y015368D02*
X030617Y015368D01*
X030617Y015210D02*
X030577Y015210D01*
X030069Y015210D02*
X029976Y015210D01*
X029219Y015210D02*
X028976Y015210D01*
X027911Y015368D02*
X027604Y015368D01*
X027583Y015210D02*
X027753Y015210D01*
X027594Y015051D02*
X026300Y015051D01*
X026300Y014893D02*
X027436Y014893D01*
X027277Y014734D02*
X026300Y014734D01*
X026280Y014576D02*
X027119Y014576D01*
X026960Y014417D02*
X026153Y014417D01*
X026077Y014259D02*
X026802Y014259D01*
X026643Y014100D02*
X024045Y014100D01*
X024017Y013942D02*
X026485Y013942D01*
X026326Y013783D02*
X024017Y013783D01*
X024017Y013625D02*
X026168Y013625D01*
X026009Y013466D02*
X024017Y013466D01*
X024008Y013308D02*
X025851Y013308D01*
X025692Y013149D02*
X023891Y013149D01*
X023760Y012991D02*
X025534Y012991D01*
X025375Y012832D02*
X023264Y012832D01*
X023106Y012674D02*
X025217Y012674D01*
X025058Y012515D02*
X021058Y012515D01*
X020975Y012357D02*
X024900Y012357D01*
X024424Y011881D02*
X021012Y011881D01*
X021058Y011723D02*
X023352Y011723D01*
X023194Y011564D02*
X022880Y011564D01*
X023088Y011406D02*
X023152Y011406D01*
X023669Y011723D02*
X024266Y011723D01*
X024712Y011406D02*
X031570Y011406D01*
X031807Y011564D02*
X024870Y011564D01*
X025663Y012357D02*
X031886Y012357D01*
X031603Y012515D02*
X025821Y012515D01*
X025980Y012674D02*
X031478Y012674D01*
X031535Y010613D02*
X023124Y010613D01*
X022965Y010455D02*
X031722Y010455D01*
X027878Y012832D02*
X026138Y012832D01*
X026297Y012991D02*
X027706Y012991D01*
X027627Y013149D02*
X026455Y013149D01*
X026614Y013308D02*
X027592Y013308D01*
X027592Y013466D02*
X026772Y013466D01*
X026931Y013625D02*
X027655Y013625D01*
X027771Y013783D02*
X027089Y013783D01*
X025512Y014259D02*
X024305Y014259D01*
X024381Y014417D02*
X025435Y014417D01*
X025435Y014576D02*
X024381Y014576D01*
X024280Y014734D02*
X025537Y014734D01*
X025761Y014893D02*
X022796Y014893D01*
X022796Y015051D02*
X025761Y015051D01*
X025675Y015210D02*
X025433Y015210D01*
X024675Y015210D02*
X024039Y015210D01*
X024061Y015368D02*
X024539Y015368D01*
X024490Y015844D02*
X024061Y015844D01*
X023531Y015527D02*
X023491Y015527D01*
X023491Y015368D02*
X023531Y015368D01*
X023531Y015210D02*
X023491Y015210D01*
X022982Y015210D02*
X022890Y015210D01*
X022796Y014734D02*
X023765Y014734D01*
X023664Y014576D02*
X022796Y014576D01*
X022796Y014417D02*
X023606Y014417D01*
X023492Y014259D02*
X022796Y014259D01*
X022796Y014100D02*
X023477Y014100D01*
X023477Y013942D02*
X022796Y013942D01*
X022796Y013783D02*
X023091Y013783D01*
X022946Y013625D02*
X022796Y013625D01*
X022796Y013466D02*
X022880Y013466D01*
X022876Y013308D02*
X022796Y013308D01*
X022796Y013149D02*
X022818Y013149D01*
X022257Y013149D02*
X021058Y013149D01*
X020963Y013308D02*
X022257Y013308D01*
X022257Y013466D02*
X019853Y013466D01*
X020002Y013308D02*
X020114Y013308D01*
X018182Y013308D02*
X018131Y013308D01*
X018131Y013466D02*
X018182Y013466D01*
X018182Y013625D02*
X018131Y013625D01*
X018131Y013783D02*
X018182Y013783D01*
X018182Y013942D02*
X018131Y013942D01*
X018063Y014100D02*
X018250Y014100D01*
X018182Y013149D02*
X018131Y013149D01*
X019953Y011881D02*
X020065Y011881D01*
X021058Y011564D02*
X022334Y011564D01*
X022125Y011406D02*
X021058Y011406D01*
X021058Y011247D02*
X022027Y011247D01*
X021974Y011089D02*
X021058Y011089D01*
X020828Y010930D02*
X021974Y010930D01*
X022013Y010772D02*
X020828Y010772D01*
X020828Y010613D02*
X022090Y010613D01*
X022249Y010455D02*
X020828Y010455D01*
X015170Y013308D02*
X012964Y013308D01*
X012964Y013149D02*
X015081Y013149D01*
X015170Y013466D02*
X012910Y013466D01*
X013285Y012991D02*
X013508Y012991D01*
X014285Y012991D02*
X014508Y012991D01*
X019346Y015210D02*
X019439Y015210D01*
X021890Y015210D02*
X022132Y015210D01*
X020142Y017112D02*
X026111Y017112D01*
X026270Y017270D02*
X020301Y017270D01*
X020459Y017429D02*
X026428Y017429D01*
X026587Y017587D02*
X023807Y017587D01*
X023965Y017746D02*
X026745Y017746D01*
X026904Y017904D02*
X024124Y017904D01*
X024282Y018063D02*
X027062Y018063D01*
X027221Y018221D02*
X024441Y018221D01*
X024599Y018380D02*
X027379Y018380D01*
X027538Y018538D02*
X024758Y018538D01*
X024312Y018855D02*
X024061Y018855D01*
X024061Y018814D02*
X024061Y019188D01*
X023531Y019188D01*
X023531Y018658D01*
X023905Y018658D01*
X023950Y018670D01*
X023991Y018694D01*
X024025Y018728D01*
X024049Y018769D01*
X024061Y018814D01*
X023994Y018697D02*
X024153Y018697D01*
X023995Y018538D02*
X021214Y018538D01*
X021056Y018380D02*
X023836Y018380D01*
X023678Y018221D02*
X020897Y018221D01*
X020739Y018063D02*
X023519Y018063D01*
X023491Y018697D02*
X023531Y018697D01*
X023531Y018855D02*
X023491Y018855D01*
X023491Y019014D02*
X023531Y019014D01*
X023531Y019172D02*
X023491Y019172D01*
X023491Y019331D02*
X023531Y019331D01*
X023531Y019489D02*
X023491Y019489D01*
X023491Y019648D02*
X023531Y019648D01*
X022973Y019648D02*
X022905Y019648D01*
X022116Y019648D02*
X021905Y019648D01*
X021116Y019648D02*
X020505Y019648D01*
X020518Y019489D02*
X020989Y019489D01*
X020923Y019331D02*
X020518Y019331D01*
X020518Y019188D02*
X019988Y019188D01*
X019988Y018658D01*
X020361Y018658D01*
X020407Y018670D01*
X020448Y018694D01*
X020482Y018728D01*
X020505Y018769D01*
X020518Y018814D01*
X020518Y019188D01*
X020518Y019172D02*
X020921Y019172D01*
X020927Y019014D02*
X020518Y019014D01*
X020518Y018855D02*
X020768Y018855D01*
X020610Y018697D02*
X020450Y018697D01*
X020451Y018538D02*
X018909Y018538D01*
X018820Y018380D02*
X020293Y018380D01*
X020134Y018221D02*
X018864Y018221D01*
X018909Y018063D02*
X019976Y018063D01*
X019817Y017904D02*
X018909Y017904D01*
X018338Y018322D02*
X018313Y018297D01*
X015749Y018297D01*
X015427Y018618D01*
X015542Y018618D01*
X015758Y018708D01*
X015874Y018824D01*
X015874Y018814D01*
X015886Y018769D01*
X015910Y018728D01*
X015944Y018694D01*
X015985Y018670D01*
X016031Y018658D01*
X016404Y018658D01*
X016404Y019188D01*
X016444Y019188D01*
X016444Y018658D01*
X016818Y018658D01*
X016864Y018670D01*
X016905Y018694D01*
X016938Y018728D01*
X016962Y018769D01*
X016974Y018814D01*
X016974Y019188D01*
X016444Y019188D01*
X016444Y019228D01*
X016974Y019228D01*
X016974Y019300D01*
X017099Y019175D01*
X017099Y018564D01*
X017140Y018465D01*
X017216Y018389D01*
X017315Y018348D01*
X018313Y018348D01*
X018338Y018322D01*
X019274Y018697D02*
X019485Y018697D01*
X019948Y018697D02*
X019988Y018697D01*
X019988Y018855D02*
X019948Y018855D01*
X019948Y019014D02*
X019988Y019014D01*
X019988Y019172D02*
X019948Y019172D01*
X019948Y019331D02*
X019988Y019331D01*
X019988Y019489D02*
X019948Y019489D01*
X019948Y019648D02*
X019988Y019648D01*
X019430Y019648D02*
X019362Y019648D01*
X018573Y019648D02*
X018362Y019648D01*
X018468Y019542D02*
X018468Y019542D01*
X017573Y019648D02*
X017390Y019648D01*
X017099Y019172D02*
X016974Y019172D01*
X016974Y019014D02*
X017099Y019014D01*
X017099Y018855D02*
X016974Y018855D01*
X016907Y018697D02*
X017099Y018697D01*
X017110Y018538D02*
X015507Y018538D01*
X015666Y018380D02*
X017239Y018380D01*
X016444Y018697D02*
X016404Y018697D01*
X016404Y018855D02*
X016444Y018855D01*
X016444Y019014D02*
X016404Y019014D01*
X016404Y019172D02*
X016444Y019172D01*
X015941Y018697D02*
X015730Y018697D01*
X011127Y019805D02*
X011085Y019762D01*
X011040Y019781D01*
X011064Y019805D01*
X011127Y019805D01*
X010461Y019965D02*
X005869Y019965D01*
X003381Y019965D02*
X003272Y019977D01*
X004254Y017587D02*
X004414Y017587D01*
X004414Y017429D02*
X004254Y017429D01*
X004254Y017270D02*
X004414Y017270D01*
X004414Y017112D02*
X004254Y017112D01*
X003270Y016636D02*
X002337Y016636D01*
X002337Y016478D02*
X003338Y016478D01*
X003441Y016319D02*
X002337Y016319D01*
X002337Y016161D02*
X003586Y016161D01*
X003820Y016002D02*
X002337Y016002D01*
X002337Y015368D02*
X002508Y015368D01*
X002508Y015210D02*
X002337Y015210D01*
X002337Y015051D02*
X002508Y015051D01*
X002656Y014893D02*
X002337Y014893D01*
X002337Y014734D02*
X002707Y014734D01*
X002553Y014576D02*
X002337Y014576D01*
X002337Y014417D02*
X002487Y014417D01*
X002469Y014259D02*
X002337Y014259D01*
X002337Y014100D02*
X002488Y014100D01*
X002553Y013942D02*
X002337Y013942D01*
X002337Y013783D02*
X002468Y013783D01*
X002491Y013806D02*
X002491Y013806D01*
X002375Y013625D02*
X002337Y013625D01*
X002337Y016795D02*
X003228Y016795D01*
X007676Y016161D02*
X007999Y016161D01*
X007841Y016002D02*
X007834Y016002D01*
X007716Y015210D02*
X007959Y015210D01*
X008716Y015210D02*
X008809Y015210D01*
X010552Y018697D02*
X010575Y018697D01*
X010130Y019634D02*
X010130Y019634D01*
X021817Y018697D02*
X022205Y018697D01*
X022030Y018855D02*
X021992Y018855D01*
X022011Y018874D02*
X022011Y018874D01*
X022011Y018874D01*
X022817Y018697D02*
X023028Y018697D01*
X024061Y019014D02*
X024470Y019014D01*
X024464Y019172D02*
X024061Y019172D01*
X024061Y019331D02*
X024466Y019331D01*
X024532Y019489D02*
X024061Y019489D01*
X024049Y019648D02*
X024659Y019648D01*
X025449Y019648D02*
X025659Y019648D01*
X026449Y019648D02*
X026516Y019648D01*
X027034Y019648D02*
X027074Y019648D01*
X027074Y019489D02*
X027034Y019489D01*
X027034Y019331D02*
X027074Y019331D01*
X027074Y019172D02*
X027034Y019172D01*
X027034Y019014D02*
X027074Y019014D01*
X027074Y018855D02*
X027034Y018855D01*
X027034Y018697D02*
X027074Y018697D01*
X026571Y018697D02*
X026360Y018697D01*
X025748Y018697D02*
X025360Y018697D01*
X025535Y018855D02*
X025573Y018855D01*
X025554Y018874D02*
X025554Y018874D01*
X027537Y018697D02*
X027696Y018697D01*
X027604Y018855D02*
X027855Y018855D01*
X028013Y019014D02*
X027604Y019014D01*
X027604Y019172D02*
X028008Y019172D01*
X028010Y019331D02*
X027604Y019331D01*
X027604Y019489D02*
X028075Y019489D01*
X028203Y019648D02*
X027592Y019648D01*
X028992Y019648D02*
X029203Y019648D01*
X029992Y019648D02*
X030060Y019648D01*
X030577Y019648D02*
X030617Y019648D01*
X030617Y019758D02*
X030617Y019228D01*
X031147Y019228D01*
X031147Y019602D01*
X031135Y019648D01*
X031111Y019689D01*
X031078Y019722D01*
X031037Y019746D01*
X030991Y019758D01*
X030617Y019758D01*
X030617Y019489D02*
X030577Y019489D01*
X030577Y019331D02*
X030617Y019331D01*
X030617Y019172D02*
X030577Y019172D01*
X030577Y019014D02*
X030617Y019014D01*
X030617Y018855D02*
X030577Y018855D01*
X030577Y018697D02*
X030617Y018697D01*
X031080Y018697D02*
X031835Y018697D01*
X031660Y018855D02*
X031147Y018855D01*
X031147Y019014D02*
X031583Y019014D01*
X031551Y019172D02*
X031147Y019172D01*
X031147Y019331D02*
X031553Y019331D01*
X031470Y019489D02*
X031147Y019489D01*
X031135Y019648D02*
X031312Y019648D01*
X032535Y019648D02*
X032746Y019648D01*
X033535Y019648D02*
X033603Y019648D01*
X032660Y018855D02*
X032622Y018855D01*
X032641Y018874D02*
X032641Y018874D01*
X032641Y018874D01*
X032447Y018697D02*
X032835Y018697D01*
X034624Y018697D02*
X034645Y018697D01*
X033642Y016161D02*
X033479Y016161D01*
X032802Y016161D02*
X032479Y016161D01*
X032638Y016002D02*
X032644Y016002D01*
X032641Y015999D02*
X032641Y015999D01*
X031802Y016161D02*
X031096Y016161D01*
X031147Y016002D02*
X031644Y016002D01*
X031576Y015844D02*
X031147Y015844D01*
X031147Y015368D02*
X031625Y015368D01*
X031762Y015210D02*
X031126Y015210D01*
X032519Y015210D02*
X032762Y015210D01*
X033519Y015210D02*
X033612Y015210D01*
X028033Y015844D02*
X027604Y015844D01*
X027074Y015527D02*
X027034Y015527D01*
X027034Y015368D02*
X027074Y015368D01*
X027074Y015210D02*
X027034Y015210D01*
X026526Y015210D02*
X026433Y015210D01*
X010479Y005169D02*
X010479Y005169D01*
X009890Y004875D02*
X009890Y004875D01*
X008947Y004115D02*
X008784Y004115D01*
X008850Y003956D02*
X008872Y003956D01*
X008857Y003798D02*
X008858Y003798D01*
X007818Y003164D02*
X004622Y003164D01*
X004781Y003005D02*
X007870Y003005D01*
X028544Y001262D02*
X035455Y001262D01*
X035551Y001420D02*
X028702Y001420D01*
M02*
