G75*
G70*
%OFA0B0*%
%FSLAX24Y24*%
%IPPOS*%
%LPD*%
%AMOC8*
5,1,8,0,0,1.08239X$1,22.5*
%
%ADD10C,0.0100*%
%ADD11C,0.0080*%
%ADD12C,0.0000*%
%ADD13R,0.0338X0.0010*%
%ADD14R,0.0492X0.0010*%
%ADD15R,0.0605X0.0010*%
%ADD16R,0.0697X0.0010*%
%ADD17R,0.0779X0.0010*%
%ADD18R,0.0851X0.0010*%
%ADD19R,0.0923X0.0010*%
%ADD20R,0.0984X0.0010*%
%ADD21R,0.1046X0.0010*%
%ADD22R,0.1107X0.0010*%
%ADD23R,0.1148X0.0010*%
%ADD24R,0.1210X0.0010*%
%ADD25R,0.1251X0.0010*%
%ADD26R,0.1292X0.0010*%
%ADD27R,0.1333X0.0010*%
%ADD28R,0.0625X0.0010*%
%ADD29R,0.0646X0.0010*%
%ADD30R,0.0523X0.0010*%
%ADD31R,0.0543X0.0010*%
%ADD32R,0.0482X0.0010*%
%ADD33R,0.0492X0.0010*%
%ADD34R,0.0451X0.0010*%
%ADD35R,0.0461X0.0010*%
%ADD36R,0.0431X0.0010*%
%ADD37R,0.0441X0.0010*%
%ADD38R,0.0410X0.0010*%
%ADD39R,0.0420X0.0010*%
%ADD40R,0.0400X0.0010*%
%ADD41R,0.0379X0.0010*%
%ADD42R,0.0390X0.0010*%
%ADD43R,0.0369X0.0010*%
%ADD44R,0.0379X0.0010*%
%ADD45R,0.0359X0.0010*%
%ADD46R,0.0349X0.0010*%
%ADD47R,0.0349X0.0010*%
%ADD48R,0.0338X0.0010*%
%ADD49R,0.0328X0.0010*%
%ADD50R,0.0318X0.0010*%
%ADD51R,0.0318X0.0010*%
%ADD52R,0.0308X0.0010*%
%ADD53R,0.0308X0.0010*%
%ADD54R,0.0297X0.0010*%
%ADD55R,0.0287X0.0010*%
%ADD56R,0.0287X0.0010*%
%ADD57R,0.0287X0.0010*%
%ADD58R,0.0277X0.0010*%
%ADD59R,0.0277X0.0010*%
%ADD60R,0.0267X0.0010*%
%ADD61R,0.0267X0.0010*%
%ADD62R,0.0256X0.0010*%
%ADD63R,0.0256X0.0010*%
%ADD64R,0.0246X0.0010*%
%ADD65R,0.0246X0.0010*%
%ADD66R,0.0256X0.0010*%
%ADD67R,0.0236X0.0010*%
%ADD68R,0.0092X0.0010*%
%ADD69R,0.0236X0.0010*%
%ADD70R,0.0236X0.0010*%
%ADD71R,0.0533X0.0010*%
%ADD72R,0.0236X0.0010*%
%ADD73R,0.0677X0.0010*%
%ADD74R,0.0748X0.0010*%
%ADD75R,0.0226X0.0010*%
%ADD76R,0.0800X0.0010*%
%ADD77R,0.0851X0.0010*%
%ADD78R,0.0226X0.0010*%
%ADD79R,0.0902X0.0010*%
%ADD80R,0.0954X0.0010*%
%ADD81R,0.0215X0.0010*%
%ADD82R,0.0995X0.0010*%
%ADD83R,0.0215X0.0010*%
%ADD84R,0.1036X0.0010*%
%ADD85R,0.1076X0.0010*%
%ADD86R,0.0226X0.0010*%
%ADD87R,0.1118X0.0010*%
%ADD88R,0.0215X0.0010*%
%ADD89R,0.0533X0.0010*%
%ADD90R,0.0543X0.0010*%
%ADD91R,0.0441X0.0010*%
%ADD92R,0.0205X0.0010*%
%ADD93R,0.0400X0.0010*%
%ADD94R,0.0410X0.0010*%
%ADD95R,0.0205X0.0010*%
%ADD96R,0.0359X0.0010*%
%ADD97R,0.0195X0.0010*%
%ADD98R,0.0195X0.0010*%
%ADD99R,0.0328X0.0010*%
%ADD100R,0.0328X0.0010*%
%ADD101R,0.0185X0.0010*%
%ADD102R,0.0185X0.0010*%
%ADD103R,0.0174X0.0010*%
%ADD104R,0.0164X0.0010*%
%ADD105R,0.0144X0.0010*%
%ADD106R,0.0287X0.0010*%
%ADD107R,0.0154X0.0010*%
%ADD108R,0.0123X0.0010*%
%ADD109R,0.0277X0.0010*%
%ADD110R,0.0103X0.0010*%
%ADD111R,0.0267X0.0010*%
%ADD112R,0.0061X0.0010*%
%ADD113R,0.0072X0.0010*%
%ADD114R,0.0226X0.0010*%
%ADD115R,0.0195X0.0010*%
%ADD116R,0.0185X0.0010*%
%ADD117R,0.0144X0.0010*%
%ADD118R,0.0123X0.0010*%
%ADD119R,0.0533X0.0010*%
%ADD120R,0.0133X0.0010*%
%ADD121R,0.0113X0.0010*%
%ADD122R,0.0574X0.0010*%
%ADD123R,0.0092X0.0010*%
%ADD124R,0.0605X0.0010*%
%ADD125R,0.0092X0.0010*%
%ADD126R,0.0062X0.0010*%
%ADD127R,0.0646X0.0010*%
%ADD128R,0.0707X0.0010*%
%ADD129R,0.0728X0.0010*%
%ADD130R,0.0769X0.0010*%
%ADD131R,0.0789X0.0010*%
%ADD132R,0.0369X0.0010*%
%ADD133R,0.0256X0.0010*%
%ADD134R,0.0205X0.0010*%
%ADD135R,0.0164X0.0010*%
%ADD136R,0.0144X0.0010*%
%ADD137R,0.0082X0.0010*%
%ADD138R,0.0092X0.0010*%
%ADD139R,0.0072X0.0010*%
%ADD140R,0.0103X0.0010*%
%ADD141R,0.0113X0.0010*%
%ADD142R,0.0031X0.0010*%
%ADD143R,0.0133X0.0010*%
%ADD144R,0.0441X0.0010*%
%ADD145R,0.0144X0.0010*%
%ADD146R,0.0133X0.0010*%
%ADD147R,0.0472X0.0010*%
%ADD148R,0.0502X0.0010*%
%ADD149R,0.0533X0.0010*%
%ADD150R,0.0174X0.0010*%
%ADD151R,0.0174X0.0010*%
%ADD152R,0.0154X0.0010*%
%ADD153R,0.0164X0.0010*%
%ADD154R,0.0174X0.0010*%
%ADD155R,0.0020X0.0010*%
%ADD156R,0.0113X0.0010*%
%ADD157R,0.0502X0.0010*%
%ADD158R,0.0513X0.0010*%
%ADD159R,0.0523X0.0010*%
%ADD160R,0.0103X0.0010*%
%ADD161R,0.0113X0.0010*%
%ADD162R,0.0625X0.0010*%
%ADD163R,0.0103X0.0010*%
%ADD164R,0.0154X0.0010*%
%ADD165R,0.0082X0.0010*%
%ADD166R,0.0051X0.0010*%
%ADD167R,0.0595X0.0010*%
%ADD168R,0.0615X0.0010*%
%ADD169R,0.0636X0.0010*%
%ADD170R,0.0656X0.0010*%
%ADD171R,0.0154X0.0010*%
%ADD172R,0.0656X0.0010*%
%ADD173R,0.0185X0.0010*%
%ADD174R,0.0636X0.0010*%
%ADD175R,0.0082X0.0010*%
%ADD176R,0.0574X0.0010*%
%ADD177R,0.0205X0.0010*%
%ADD178R,0.0800X0.0010*%
%ADD179R,0.0769X0.0010*%
%ADD180R,0.0748X0.0010*%
%ADD181R,0.0718X0.0010*%
%ADD182R,0.0687X0.0010*%
%ADD183R,0.0656X0.0010*%
%ADD184R,0.0041X0.0010*%
%ADD185R,0.0584X0.0010*%
%ADD186R,0.0554X0.0010*%
%ADD187R,0.0461X0.0010*%
%ADD188R,0.0349X0.0010*%
%ADD189R,0.0267X0.0010*%
%ADD190R,0.0297X0.0010*%
%ADD191R,0.0482X0.0010*%
%ADD192R,0.0215X0.0010*%
%ADD193R,0.1128X0.0010*%
%ADD194R,0.1087X0.0010*%
%ADD195R,0.1005X0.0010*%
%ADD196R,0.0964X0.0010*%
%ADD197R,0.0923X0.0010*%
%ADD198R,0.0871X0.0010*%
%ADD199R,0.0820X0.0010*%
%ADD200R,0.0759X0.0010*%
%ADD201R,0.0554X0.0010*%
%ADD202R,0.0472X0.0010*%
%ADD203R,0.0359X0.0010*%
%ADD204R,0.0379X0.0010*%
%ADD205R,0.0431X0.0010*%
%ADD206R,0.0451X0.0010*%
%ADD207R,0.0472X0.0010*%
%ADD208R,0.0513X0.0010*%
%ADD209R,0.1353X0.0010*%
%ADD210R,0.1312X0.0010*%
%ADD211R,0.1271X0.0010*%
%ADD212R,0.1220X0.0010*%
%ADD213R,0.1169X0.0010*%
%ADD214R,0.1118X0.0010*%
%ADD215R,0.1066X0.0010*%
%ADD216R,0.0943X0.0010*%
%ADD217R,0.0882X0.0010*%
%ADD218R,0.0810X0.0010*%
%ADD219R,0.0728X0.0010*%
D10*
X016852Y001996D02*
X017002Y001996D01*
X017052Y002046D01*
X017002Y002096D01*
X016852Y002096D01*
X016852Y002146D02*
X016852Y001996D01*
X016852Y002146D02*
X016902Y002196D01*
X017002Y002196D01*
X017248Y002196D02*
X017248Y001996D01*
X017298Y001996D02*
X017198Y001996D01*
X017248Y002196D02*
X017298Y002196D01*
X017248Y002296D02*
X017248Y002346D01*
X017466Y002296D02*
X017466Y001996D01*
X017616Y001996D01*
X017666Y002046D01*
X017666Y002146D01*
X017616Y002196D01*
X017466Y002196D01*
X017834Y002146D02*
X017834Y001996D01*
X017834Y002146D02*
X017884Y002196D01*
X018035Y002196D01*
X018035Y001996D01*
X018180Y001996D02*
X018280Y001996D01*
X018230Y001996D02*
X018230Y002296D01*
X018280Y002296D02*
X018180Y002296D01*
X018817Y002146D02*
X018817Y001996D01*
X018817Y002146D02*
X018867Y002196D01*
X019017Y002196D01*
X019017Y001996D01*
X019162Y001996D02*
X019262Y001996D01*
X019212Y001996D02*
X019212Y002296D01*
X019262Y002296D02*
X019162Y002296D01*
X019799Y002146D02*
X019799Y002096D01*
X019999Y002096D01*
X019999Y002046D02*
X019999Y002146D01*
X019949Y002196D01*
X019849Y002196D01*
X019799Y002146D01*
X019849Y001996D02*
X019949Y001996D01*
X019999Y002046D01*
X020167Y001996D02*
X020317Y001996D01*
X020367Y002046D01*
X020367Y002146D01*
X020317Y002196D01*
X020167Y002196D01*
X020167Y002296D02*
X020167Y001996D01*
X020535Y001996D02*
X020685Y001996D01*
X020735Y002046D01*
X020685Y002096D01*
X020535Y002096D01*
X020535Y002146D02*
X020535Y001996D01*
X020535Y002146D02*
X020585Y002196D01*
X020685Y002196D01*
X020904Y002296D02*
X020904Y001996D01*
X021104Y001996D02*
X021104Y002296D01*
X021004Y002196D01*
X020904Y002296D01*
D11*
X020828Y001536D02*
X020748Y001536D01*
X020708Y001496D01*
X020708Y001455D01*
X020868Y001455D01*
X020868Y001415D02*
X020868Y001496D01*
X020828Y001536D01*
X020868Y001415D02*
X020828Y001375D01*
X020748Y001375D01*
X020574Y001415D02*
X020534Y001455D01*
X020413Y001455D01*
X020413Y001496D02*
X020413Y001375D01*
X020534Y001375D01*
X020574Y001415D01*
X020534Y001536D02*
X020453Y001536D01*
X020413Y001496D01*
X020279Y001616D02*
X020239Y001616D01*
X020239Y001375D01*
X020279Y001375D02*
X020199Y001375D01*
X020083Y001375D02*
X020002Y001375D01*
X020042Y001375D02*
X020042Y001536D01*
X020083Y001536D01*
X020042Y001616D02*
X020042Y001656D01*
X019886Y001536D02*
X019886Y001375D01*
X019726Y001375D02*
X019726Y001496D01*
X019766Y001536D01*
X019886Y001536D01*
X019591Y001496D02*
X019591Y001415D01*
X019551Y001375D01*
X019431Y001375D01*
X019431Y001335D02*
X019431Y001536D01*
X019551Y001536D01*
X019591Y001496D01*
X019511Y001295D02*
X019471Y001295D01*
X019431Y001335D01*
X019002Y001375D02*
X019002Y001616D01*
X019002Y001496D02*
X018842Y001496D01*
X018842Y001616D02*
X018842Y001375D01*
X018707Y001415D02*
X018667Y001375D01*
X018587Y001375D01*
X018547Y001415D01*
X018547Y001496D01*
X018587Y001536D01*
X018667Y001536D01*
X018707Y001496D01*
X018707Y001415D01*
X018413Y001415D02*
X018413Y001536D01*
X018413Y001415D02*
X018373Y001375D01*
X018253Y001375D01*
X018253Y001536D01*
X018118Y001536D02*
X018118Y001375D01*
X018118Y001455D02*
X018038Y001536D01*
X017998Y001536D01*
X017578Y001576D02*
X017578Y001415D01*
X017538Y001375D01*
X017458Y001375D01*
X017418Y001415D01*
X017283Y001375D02*
X017283Y001536D01*
X017203Y001536D02*
X017163Y001536D01*
X017203Y001536D02*
X017283Y001455D01*
X017418Y001576D02*
X017458Y001616D01*
X017538Y001616D01*
X017578Y001576D01*
X017038Y001496D02*
X016998Y001536D01*
X016918Y001536D01*
X016878Y001496D01*
X016878Y001455D01*
X017038Y001455D01*
X017038Y001415D02*
X017038Y001496D01*
X017038Y001415D02*
X016998Y001375D01*
X016918Y001375D01*
X016743Y001415D02*
X016703Y001455D01*
X016583Y001455D01*
X016583Y001496D02*
X016583Y001375D01*
X016703Y001375D01*
X016743Y001415D01*
X016703Y001536D02*
X016623Y001536D01*
X016583Y001496D01*
X016448Y001536D02*
X016368Y001536D01*
X016408Y001576D02*
X016408Y001415D01*
X016368Y001375D01*
X016252Y001375D02*
X016172Y001375D01*
X016212Y001375D02*
X016212Y001536D01*
X016252Y001536D01*
X016212Y001616D02*
X016212Y001656D01*
X016056Y001496D02*
X016016Y001536D01*
X015935Y001536D01*
X015895Y001496D01*
X015895Y001415D01*
X015935Y001375D01*
X016016Y001375D01*
X016056Y001415D01*
X016056Y001496D01*
X015761Y001536D02*
X015641Y001536D01*
X015601Y001496D01*
X015601Y001375D01*
X015466Y001375D02*
X015346Y001375D01*
X015306Y001415D01*
X015346Y001455D01*
X015426Y001455D01*
X015466Y001496D01*
X015426Y001536D01*
X015306Y001536D01*
X015761Y001536D02*
X015761Y001375D01*
X021003Y001536D02*
X021083Y001375D01*
X021163Y001536D01*
X021297Y001496D02*
X021337Y001536D01*
X021418Y001536D01*
X021458Y001496D01*
X021458Y001415D01*
X021418Y001375D01*
X021337Y001375D01*
X021297Y001455D02*
X021458Y001455D01*
X021592Y001496D02*
X021632Y001455D01*
X021752Y001455D01*
X021752Y001375D02*
X021752Y001616D01*
X021632Y001616D01*
X021592Y001576D01*
X021592Y001496D01*
X021672Y001455D02*
X021592Y001375D01*
X021297Y001455D02*
X021297Y001496D01*
X022181Y001536D02*
X022181Y001335D01*
X022221Y001295D01*
X022261Y001295D01*
X022301Y001375D02*
X022181Y001375D01*
X022301Y001375D02*
X022342Y001415D01*
X022342Y001536D01*
X022476Y001496D02*
X022516Y001536D01*
X022636Y001536D01*
X022636Y001616D02*
X022636Y001375D01*
X022516Y001375D01*
X022476Y001415D01*
X022476Y001496D01*
D12*
X005794Y001098D02*
X001857Y001098D01*
X001857Y020783D01*
X005794Y020783D01*
X006582Y021570D01*
X034377Y021570D01*
X035125Y020783D01*
X035125Y014090D01*
X036031Y013342D01*
X036031Y001137D01*
X035125Y000311D01*
X006582Y000311D01*
X005794Y001098D01*
X002574Y002082D02*
X002576Y002121D01*
X002582Y002160D01*
X002592Y002198D01*
X002605Y002235D01*
X002622Y002270D01*
X002642Y002304D01*
X002666Y002335D01*
X002693Y002364D01*
X002722Y002390D01*
X002754Y002413D01*
X002788Y002433D01*
X002824Y002449D01*
X002861Y002461D01*
X002900Y002470D01*
X002939Y002475D01*
X002978Y002476D01*
X003017Y002473D01*
X003056Y002466D01*
X003093Y002455D01*
X003130Y002441D01*
X003165Y002423D01*
X003198Y002402D01*
X003229Y002377D01*
X003257Y002350D01*
X003282Y002320D01*
X003304Y002287D01*
X003323Y002253D01*
X003338Y002217D01*
X003350Y002179D01*
X003358Y002141D01*
X003362Y002102D01*
X003362Y002062D01*
X003358Y002023D01*
X003350Y001985D01*
X003338Y001947D01*
X003323Y001911D01*
X003304Y001877D01*
X003282Y001844D01*
X003257Y001814D01*
X003229Y001787D01*
X003198Y001762D01*
X003165Y001741D01*
X003130Y001723D01*
X003093Y001709D01*
X003056Y001698D01*
X003017Y001691D01*
X002978Y001688D01*
X002939Y001689D01*
X002900Y001694D01*
X002861Y001703D01*
X002824Y001715D01*
X002788Y001731D01*
X002754Y001751D01*
X002722Y001774D01*
X002693Y001800D01*
X002666Y001829D01*
X002642Y001860D01*
X002622Y001894D01*
X002605Y001929D01*
X002592Y001966D01*
X002582Y002004D01*
X002576Y002043D01*
X002574Y002082D01*
X008688Y009435D02*
X008690Y009485D01*
X008696Y009535D01*
X008706Y009585D01*
X008719Y009633D01*
X008736Y009681D01*
X008757Y009727D01*
X008781Y009771D01*
X008809Y009813D01*
X008840Y009853D01*
X008874Y009890D01*
X008911Y009925D01*
X008950Y009956D01*
X008991Y009985D01*
X009035Y010010D01*
X009081Y010032D01*
X009128Y010050D01*
X009176Y010064D01*
X009225Y010075D01*
X009275Y010082D01*
X009325Y010085D01*
X009376Y010084D01*
X009426Y010079D01*
X009476Y010070D01*
X009524Y010058D01*
X009572Y010041D01*
X009618Y010021D01*
X009663Y009998D01*
X009706Y009971D01*
X009746Y009941D01*
X009784Y009908D01*
X009819Y009872D01*
X009852Y009833D01*
X009881Y009792D01*
X009907Y009749D01*
X009930Y009704D01*
X009949Y009657D01*
X009964Y009609D01*
X009976Y009560D01*
X009984Y009510D01*
X009988Y009460D01*
X009988Y009410D01*
X009984Y009360D01*
X009976Y009310D01*
X009964Y009261D01*
X009949Y009213D01*
X009930Y009166D01*
X009907Y009121D01*
X009881Y009078D01*
X009852Y009037D01*
X009819Y008998D01*
X009784Y008962D01*
X009746Y008929D01*
X009706Y008899D01*
X009663Y008872D01*
X009618Y008849D01*
X009572Y008829D01*
X009524Y008812D01*
X009476Y008800D01*
X009426Y008791D01*
X009376Y008786D01*
X009325Y008785D01*
X009275Y008788D01*
X009225Y008795D01*
X009176Y008806D01*
X009128Y008820D01*
X009081Y008838D01*
X009035Y008860D01*
X008991Y008885D01*
X008950Y008914D01*
X008911Y008945D01*
X008874Y008980D01*
X008840Y009017D01*
X008809Y009057D01*
X008781Y009099D01*
X008757Y009143D01*
X008736Y009189D01*
X008719Y009237D01*
X008706Y009285D01*
X008696Y009335D01*
X008690Y009385D01*
X008688Y009435D01*
X015369Y010889D02*
X015371Y010928D01*
X015377Y010967D01*
X015387Y011005D01*
X015400Y011042D01*
X015417Y011077D01*
X015437Y011111D01*
X015461Y011142D01*
X015488Y011171D01*
X015517Y011197D01*
X015549Y011220D01*
X015583Y011240D01*
X015619Y011256D01*
X015656Y011268D01*
X015695Y011277D01*
X015734Y011282D01*
X015773Y011283D01*
X015812Y011280D01*
X015851Y011273D01*
X015888Y011262D01*
X015925Y011248D01*
X015960Y011230D01*
X015993Y011209D01*
X016024Y011184D01*
X016052Y011157D01*
X016077Y011127D01*
X016099Y011094D01*
X016118Y011060D01*
X016133Y011024D01*
X016145Y010986D01*
X016153Y010948D01*
X016157Y010909D01*
X016157Y010869D01*
X016153Y010830D01*
X016145Y010792D01*
X016133Y010754D01*
X016118Y010718D01*
X016099Y010684D01*
X016077Y010651D01*
X016052Y010621D01*
X016024Y010594D01*
X015993Y010569D01*
X015960Y010548D01*
X015925Y010530D01*
X015888Y010516D01*
X015851Y010505D01*
X015812Y010498D01*
X015773Y010495D01*
X015734Y010496D01*
X015695Y010501D01*
X015656Y010510D01*
X015619Y010522D01*
X015583Y010538D01*
X015549Y010558D01*
X015517Y010581D01*
X015488Y010607D01*
X015461Y010636D01*
X015437Y010667D01*
X015417Y010701D01*
X015400Y010736D01*
X015387Y010773D01*
X015377Y010811D01*
X015371Y010850D01*
X015369Y010889D01*
D13*
X018226Y005572D03*
X018718Y004731D03*
X019436Y003255D03*
X018944Y002537D03*
D14*
X018949Y002547D03*
X018939Y003542D03*
D15*
X018944Y003091D03*
X018944Y002557D03*
D16*
X018949Y002568D03*
X018959Y005274D03*
D17*
X018949Y002578D03*
D18*
X018944Y002588D03*
D19*
X018949Y002598D03*
D20*
X018949Y002609D03*
D21*
X018949Y002619D03*
X018959Y005203D03*
D22*
X018949Y002629D03*
D23*
X018949Y002639D03*
D24*
X018949Y002650D03*
D25*
X018949Y002660D03*
D26*
X018949Y002670D03*
D27*
X018949Y002680D03*
D28*
X019323Y002691D03*
X018072Y004157D03*
X018072Y004167D03*
X018072Y004177D03*
X018072Y004198D03*
X018072Y004208D03*
X018072Y004218D03*
X018072Y004229D03*
X018072Y004239D03*
X018072Y004259D03*
X018072Y004270D03*
X018072Y004280D03*
X018072Y004290D03*
D29*
X018585Y002691D03*
X018954Y005818D03*
D30*
X019395Y002701D03*
D31*
X018513Y002701D03*
X018954Y005828D03*
D32*
X019436Y002711D03*
D33*
X018467Y002711D03*
X019298Y005172D03*
D34*
X018929Y004526D03*
X018416Y005654D03*
X018580Y003214D03*
X019472Y002721D03*
D35*
X018431Y002721D03*
D36*
X018939Y003070D03*
X019503Y002732D03*
X019339Y005162D03*
X019513Y005643D03*
X018570Y005162D03*
D37*
X018401Y002732D03*
D38*
X019533Y002742D03*
X018959Y004854D03*
D39*
X019539Y005633D03*
X018370Y002742D03*
D40*
X018349Y002752D03*
X019559Y002752D03*
D41*
X019580Y002763D03*
X019385Y003234D03*
X018308Y005613D03*
D42*
X018334Y005623D03*
X018539Y005151D03*
X019564Y005623D03*
X018939Y003521D03*
X018508Y003234D03*
X018324Y002763D03*
D43*
X019605Y002773D03*
X019615Y005602D03*
D44*
X018298Y002773D03*
D45*
X018278Y002783D03*
X019405Y003244D03*
X019169Y003644D03*
X019631Y002783D03*
X019631Y005592D03*
D46*
X019195Y004731D03*
X018929Y004321D03*
X018929Y003860D03*
X018457Y003255D03*
X019646Y002793D03*
X018242Y005582D03*
D47*
X019656Y005582D03*
X018918Y004341D03*
X018252Y002793D03*
D48*
X018237Y002804D03*
X018216Y002814D03*
X019672Y002804D03*
X018923Y004331D03*
X018913Y004352D03*
X018462Y005121D03*
X019446Y005121D03*
X019672Y005572D03*
X019692Y005561D03*
D49*
X019708Y005551D03*
X018201Y005561D03*
X018201Y002824D03*
X019687Y002814D03*
X019708Y002824D03*
D50*
X019723Y002834D03*
X018944Y003511D03*
X018175Y002834D03*
X018165Y005541D03*
X019733Y005541D03*
D51*
X018185Y005551D03*
X018688Y003654D03*
X018411Y003275D03*
X019477Y003275D03*
X019744Y002845D03*
D52*
X019759Y002855D03*
X018939Y003060D03*
X018395Y003285D03*
X018129Y002865D03*
X018160Y002845D03*
X019513Y005090D03*
X019759Y005520D03*
X019749Y005531D03*
X019780Y005510D03*
X018149Y005531D03*
D53*
X018119Y005510D03*
X018416Y005100D03*
X018682Y004721D03*
X019226Y004721D03*
X019492Y005100D03*
X019205Y003654D03*
X019492Y003285D03*
X018139Y002855D03*
D54*
X018113Y002875D03*
X018093Y002886D03*
X018360Y003306D03*
X018380Y003296D03*
X018657Y003665D03*
X018923Y003849D03*
X019231Y003665D03*
X019774Y002865D03*
X019795Y002875D03*
X019528Y005080D03*
X019795Y005500D03*
X018380Y005080D03*
X018103Y005500D03*
X018134Y005520D03*
D55*
X018088Y005490D03*
X018365Y005069D03*
X018662Y004711D03*
X019246Y004711D03*
X019544Y005069D03*
X019564Y005059D03*
X019841Y005469D03*
X019810Y005490D03*
X018641Y003675D03*
X018344Y003316D03*
X018067Y002906D03*
X019513Y003296D03*
X019810Y002886D03*
X019841Y002906D03*
D56*
X019821Y002896D03*
X018067Y005479D03*
D57*
X019831Y005479D03*
X018078Y002896D03*
D58*
X018052Y002916D03*
X018031Y002927D03*
X019549Y003316D03*
X019856Y002916D03*
X018934Y004567D03*
X018647Y004700D03*
X018349Y005059D03*
X019856Y005459D03*
X019897Y005428D03*
D59*
X019887Y005438D03*
X019867Y005449D03*
X018042Y005459D03*
X019252Y003675D03*
X019867Y002927D03*
X018021Y002937D03*
D60*
X018006Y002947D03*
X017955Y002988D03*
X018283Y003357D03*
X018621Y003685D03*
X019267Y003685D03*
X019574Y003337D03*
X019892Y002947D03*
X019882Y002937D03*
X019923Y002968D03*
X019267Y004700D03*
X018959Y004875D03*
X018303Y005028D03*
X017975Y005408D03*
X018016Y005438D03*
X018026Y005449D03*
X019923Y005408D03*
D61*
X019913Y005418D03*
X019913Y002957D03*
X017996Y002957D03*
D62*
X017980Y002968D03*
X017929Y003009D03*
X018298Y003347D03*
X019610Y003357D03*
X019949Y002988D03*
X019282Y004690D03*
X019610Y005028D03*
X019949Y005387D03*
X018626Y004690D03*
X017960Y005397D03*
D63*
X017949Y005387D03*
X018288Y005018D03*
X019621Y005018D03*
X019959Y005377D03*
X019938Y005397D03*
X019621Y003367D03*
X019959Y002998D03*
X019938Y002978D03*
X018267Y003367D03*
X017970Y002978D03*
X017939Y002998D03*
D64*
X017903Y003029D03*
X017893Y003039D03*
X017883Y003050D03*
X017873Y003060D03*
X018231Y003398D03*
X018252Y003378D03*
X018590Y003706D03*
X018580Y003716D03*
X019298Y003706D03*
X019636Y003378D03*
X019995Y003029D03*
X020005Y003039D03*
X019974Y003009D03*
X018600Y004669D03*
X018262Y004998D03*
X018272Y005008D03*
X017924Y005367D03*
X017934Y005377D03*
X017903Y005346D03*
X019636Y005008D03*
X019646Y004998D03*
X019677Y004977D03*
X019995Y005346D03*
X019974Y005367D03*
D65*
X019985Y005356D03*
X019298Y004680D03*
X018611Y004680D03*
X017914Y005356D03*
X018242Y003388D03*
X019646Y003388D03*
X019985Y003019D03*
D66*
X018606Y003695D03*
X017919Y003019D03*
D67*
X017857Y003070D03*
X017837Y003091D03*
X017806Y003121D03*
X018206Y003419D03*
X018944Y003501D03*
X019087Y003921D03*
X018995Y004075D03*
X018749Y004075D03*
X019313Y004669D03*
X019703Y004957D03*
X020020Y005326D03*
X018226Y004967D03*
X017857Y005305D03*
X017837Y005285D03*
X017888Y005336D03*
X019682Y003419D03*
X020020Y003050D03*
X020072Y003101D03*
D68*
X018934Y003050D03*
X018934Y003490D03*
X018503Y003849D03*
X018688Y003972D03*
X018626Y004177D03*
X018626Y004331D03*
X018513Y004526D03*
X018934Y004587D03*
X018954Y004403D03*
X017673Y005039D03*
D69*
X017867Y005315D03*
X017878Y005326D03*
X018237Y004977D03*
X018585Y004659D03*
X019323Y004659D03*
X019692Y004967D03*
X019713Y004946D03*
X020061Y005285D03*
X020041Y005305D03*
X020031Y005315D03*
X020010Y005336D03*
X019303Y003716D03*
X019662Y003398D03*
X019672Y003408D03*
X020031Y003060D03*
X020041Y003070D03*
X020061Y003091D03*
X020082Y003111D03*
X018216Y003408D03*
X017826Y003101D03*
X017816Y003111D03*
D70*
X020051Y003080D03*
X020051Y005295D03*
D71*
X018939Y003080D03*
D72*
X017847Y003080D03*
X018247Y004987D03*
X017847Y005295D03*
X019662Y004987D03*
D73*
X018939Y003593D03*
X018939Y003101D03*
D74*
X018944Y003111D03*
D75*
X019698Y003429D03*
X019708Y003439D03*
X019728Y003460D03*
X019738Y003470D03*
X020097Y003121D03*
X020108Y003132D03*
X020128Y003152D03*
X019328Y003737D03*
X019318Y003726D03*
X018765Y003921D03*
X018570Y003726D03*
X018180Y003439D03*
X018160Y003460D03*
X018149Y003470D03*
X017801Y003132D03*
X017780Y003152D03*
X017770Y003162D03*
X017760Y003173D03*
X017739Y003193D03*
X018580Y004649D03*
X018211Y004957D03*
X018201Y004946D03*
X017760Y005213D03*
X017770Y005223D03*
X017791Y005244D03*
X017801Y005254D03*
X017811Y005264D03*
X019339Y004649D03*
X020138Y005213D03*
X020128Y005223D03*
X020108Y005244D03*
X020097Y005254D03*
X020077Y005274D03*
D76*
X018939Y003121D03*
D77*
X018944Y003132D03*
D78*
X018170Y003449D03*
X017791Y003142D03*
X018754Y004065D03*
X019000Y004065D03*
X018180Y004926D03*
X017780Y005233D03*
X020118Y005233D03*
X020118Y003142D03*
D79*
X018939Y003142D03*
D80*
X018944Y003152D03*
D81*
X018144Y003480D03*
X017724Y003214D03*
X018759Y004054D03*
X018165Y004916D03*
X019744Y004916D03*
X020185Y005162D03*
X020185Y003214D03*
X020133Y003162D03*
D82*
X018944Y003162D03*
D83*
X019344Y003747D03*
X018544Y003747D03*
X018964Y004362D03*
X019354Y004628D03*
X019754Y004905D03*
X020143Y005203D03*
X020154Y005192D03*
X020164Y005182D03*
X018565Y004639D03*
X018554Y004628D03*
X018154Y004905D03*
X017755Y005203D03*
X017744Y005192D03*
X017734Y005182D03*
X017714Y005162D03*
X017703Y003234D03*
X017714Y003224D03*
X020143Y003173D03*
X020154Y003183D03*
X020164Y003193D03*
X020195Y003234D03*
D84*
X018944Y003173D03*
D85*
X018944Y003183D03*
D86*
X018190Y003429D03*
X017750Y003183D03*
X018559Y003737D03*
X018929Y003839D03*
X019349Y004639D03*
X019718Y004936D03*
X020087Y005264D03*
X018190Y004936D03*
X017821Y005274D03*
D87*
X018944Y003193D03*
D88*
X020174Y003203D03*
X017734Y003203D03*
X019733Y004926D03*
X020174Y005172D03*
D89*
X019257Y003203D03*
D90*
X018636Y003203D03*
D91*
X018944Y003531D03*
X019313Y003214D03*
D92*
X019749Y003480D03*
X020190Y003224D03*
X020210Y003255D03*
X019000Y004054D03*
X018529Y003767D03*
X017698Y003244D03*
X018539Y004608D03*
X018929Y004577D03*
X018149Y004895D03*
X017698Y005141D03*
X018959Y005326D03*
X019759Y004895D03*
X019769Y004885D03*
X020190Y005151D03*
X020210Y005121D03*
D93*
X019375Y005151D03*
X018954Y005838D03*
X018360Y005633D03*
X018923Y003870D03*
X019354Y003224D03*
D94*
X018539Y003224D03*
X018929Y004536D03*
D95*
X019359Y003767D03*
X020200Y003244D03*
X020200Y005141D03*
X017708Y005151D03*
X017688Y005121D03*
D96*
X018267Y005592D03*
X018483Y005131D03*
X019426Y005131D03*
X018483Y003244D03*
D97*
X018134Y003490D03*
X018124Y003501D03*
X017693Y003255D03*
X018759Y004044D03*
X019118Y003931D03*
X019364Y003778D03*
X019764Y003501D03*
X019375Y004608D03*
X019774Y004875D03*
X020205Y005131D03*
X018534Y004598D03*
X018144Y004885D03*
X017693Y005131D03*
D98*
X017683Y005110D03*
X020215Y005110D03*
X020215Y003265D03*
X017683Y003265D03*
D99*
X019451Y003265D03*
D100*
X018436Y003265D03*
X018929Y004557D03*
X018436Y005110D03*
X019472Y005110D03*
D101*
X019380Y004598D03*
X020220Y005100D03*
X018518Y003788D03*
X020220Y003275D03*
D102*
X019790Y003870D03*
X019790Y003890D03*
X019790Y003901D03*
X019790Y003911D03*
X019790Y003921D03*
X019790Y003931D03*
X019790Y003952D03*
X019790Y003962D03*
X019790Y003972D03*
X019790Y003983D03*
X019790Y003993D03*
X019790Y004013D03*
X019790Y004024D03*
X019790Y004034D03*
X019790Y004044D03*
X019790Y004054D03*
X019790Y004075D03*
X019790Y004085D03*
X019790Y004095D03*
X019790Y004106D03*
X019790Y004116D03*
X019790Y004136D03*
X019790Y004147D03*
X019790Y004157D03*
X019790Y004167D03*
X019790Y004177D03*
X019790Y004198D03*
X019790Y004208D03*
X019790Y004218D03*
X019790Y004229D03*
X019790Y004239D03*
X019790Y004259D03*
X019790Y004270D03*
X019790Y004280D03*
X019790Y004290D03*
X019790Y004300D03*
X019790Y004321D03*
X019790Y004331D03*
X019790Y004341D03*
X019790Y004352D03*
X019790Y004362D03*
X019790Y004382D03*
X019790Y004393D03*
X019000Y004044D03*
X018734Y003931D03*
X019369Y003788D03*
X018139Y004875D03*
X017678Y005100D03*
X017678Y003285D03*
X017678Y003275D03*
D103*
X017673Y003296D03*
X018113Y003521D03*
X018513Y003798D03*
X019375Y003798D03*
X019774Y003521D03*
X020226Y003285D03*
X019385Y004587D03*
X019785Y004854D03*
X020226Y005090D03*
X018524Y004587D03*
X017673Y005090D03*
D104*
X019123Y004485D03*
X018857Y004116D03*
X019154Y003952D03*
X018508Y003808D03*
X019790Y003860D03*
X020231Y003296D03*
X019790Y004844D03*
X020231Y005080D03*
D105*
X020231Y005069D03*
X019790Y004834D03*
X019154Y004464D03*
X018826Y004300D03*
X018724Y004475D03*
X018518Y004567D03*
X018119Y004834D03*
X017667Y005069D03*
X019175Y003972D03*
X019790Y003839D03*
X020231Y003316D03*
X020231Y003306D03*
X018108Y003542D03*
X017667Y003316D03*
D106*
X019533Y003306D03*
X018057Y005469D03*
D107*
X017673Y005080D03*
X018124Y004844D03*
X018308Y004536D03*
X018739Y004485D03*
X018995Y004034D03*
X019170Y003962D03*
X019795Y003849D03*
X019774Y003531D03*
X019395Y004567D03*
X018308Y003890D03*
X018113Y003531D03*
X017847Y003890D03*
X017847Y003901D03*
X017673Y003306D03*
X017847Y004526D03*
X017847Y004536D03*
D108*
X018303Y004557D03*
X019072Y004126D03*
X019205Y004003D03*
X019185Y004434D03*
X020231Y005049D03*
X020231Y003326D03*
X017667Y003326D03*
D109*
X018329Y003326D03*
X019559Y003326D03*
X019580Y005049D03*
D110*
X020231Y005039D03*
X019400Y004536D03*
X019246Y004341D03*
X019257Y004321D03*
X019267Y004280D03*
X019267Y004270D03*
X019267Y004147D03*
X019267Y004136D03*
X019257Y004095D03*
X018929Y003829D03*
X018836Y004167D03*
X018826Y004208D03*
X018826Y004218D03*
X018641Y004147D03*
X018641Y004136D03*
X018631Y004157D03*
X018631Y004167D03*
X018631Y004341D03*
X018631Y004352D03*
X018631Y004362D03*
X018641Y004382D03*
X018119Y004813D03*
X017842Y004567D03*
X017667Y003337D03*
X020231Y003337D03*
D111*
X019595Y003347D03*
X018313Y003337D03*
X018313Y005039D03*
X017996Y005428D03*
X019595Y005039D03*
D112*
X020231Y005028D03*
X019400Y004516D03*
X019000Y004013D03*
X018682Y003983D03*
X020231Y003347D03*
D113*
X019385Y003860D03*
X018503Y003860D03*
X018308Y003849D03*
X018103Y003583D03*
X017673Y003347D03*
X018308Y004577D03*
D114*
X019718Y003449D03*
D115*
X019754Y003490D03*
X018524Y003778D03*
D116*
X018119Y003511D03*
X018959Y004372D03*
X019103Y004495D03*
X019790Y004372D03*
X019790Y004311D03*
X019790Y004249D03*
X019790Y004188D03*
X019790Y004126D03*
X019790Y004065D03*
X019790Y004003D03*
X019790Y003942D03*
X019790Y003880D03*
X019769Y003511D03*
D117*
X019780Y003542D03*
X018303Y004546D03*
D118*
X018682Y004444D03*
X018826Y004270D03*
X018847Y004136D03*
X018662Y004116D03*
X018703Y003952D03*
X019000Y004024D03*
X019082Y004136D03*
X019082Y004147D03*
X019082Y004157D03*
X019082Y004218D03*
X019082Y004229D03*
X019072Y004259D03*
X019072Y004270D03*
X019062Y004280D03*
X019195Y004423D03*
X019205Y004413D03*
X019400Y004546D03*
X019236Y004044D03*
X019226Y004034D03*
X019226Y004024D03*
X019216Y004013D03*
X019790Y003829D03*
X019780Y003552D03*
X018303Y003870D03*
X018119Y004823D03*
X017667Y005059D03*
D119*
X018939Y003552D03*
D120*
X018503Y003829D03*
X018770Y004024D03*
X018821Y004280D03*
X018821Y004290D03*
X018698Y004454D03*
X019046Y004300D03*
X019067Y004116D03*
X019190Y003983D03*
X019385Y003829D03*
X019169Y004454D03*
X018103Y003552D03*
D121*
X018103Y003562D03*
X018503Y003839D03*
X018698Y003962D03*
X018841Y004147D03*
X018841Y004157D03*
X018821Y004229D03*
X018821Y004239D03*
X018821Y004259D03*
X018647Y004393D03*
X018667Y004423D03*
X019087Y004208D03*
X019087Y004198D03*
X019087Y004177D03*
X019087Y004167D03*
X019262Y004116D03*
X019262Y004106D03*
X019241Y004054D03*
X019262Y004290D03*
X019262Y004300D03*
X019241Y004352D03*
X019241Y004362D03*
X019231Y004382D03*
X019211Y004403D03*
X019385Y003839D03*
X019785Y003562D03*
D122*
X018939Y003562D03*
D123*
X019785Y003572D03*
X018626Y004188D03*
X018800Y004372D03*
X019795Y004803D03*
D124*
X018944Y003572D03*
D125*
X018103Y003572D03*
D126*
X018775Y004013D03*
X018518Y004516D03*
X019780Y003583D03*
D127*
X018944Y003583D03*
D128*
X018944Y003603D03*
D129*
X018944Y003613D03*
D130*
X018944Y003624D03*
D131*
X018944Y003634D03*
D132*
X018723Y003644D03*
X018929Y004546D03*
X018508Y005141D03*
X018959Y005315D03*
X019400Y005141D03*
D133*
X019282Y003695D03*
D134*
X019349Y003757D03*
X018539Y003757D03*
X019369Y004618D03*
X018959Y005849D03*
D135*
X018959Y004885D03*
X019390Y004577D03*
X018518Y004577D03*
X018303Y004526D03*
X018303Y004516D03*
X018303Y004505D03*
X018303Y004485D03*
X018303Y004475D03*
X018303Y004464D03*
X018303Y004454D03*
X018303Y004444D03*
X018303Y004423D03*
X018303Y004413D03*
X018303Y004403D03*
X018303Y004393D03*
X018303Y004382D03*
X018303Y004362D03*
X018303Y004352D03*
X018303Y004341D03*
X018303Y004331D03*
X018303Y004321D03*
X018303Y004300D03*
X018303Y004147D03*
X018303Y004136D03*
X018303Y004116D03*
X018303Y004106D03*
X018303Y004095D03*
X018303Y004085D03*
X018303Y004075D03*
X018303Y004054D03*
X018303Y004044D03*
X018303Y004034D03*
X018303Y004024D03*
X018303Y004013D03*
X018303Y003993D03*
X018303Y003983D03*
X018303Y003972D03*
X018303Y003962D03*
X018303Y003952D03*
X018303Y003931D03*
X018303Y003921D03*
X018303Y003911D03*
X018303Y003901D03*
X018765Y004034D03*
X019380Y003808D03*
X017842Y004516D03*
X018129Y004854D03*
D136*
X018518Y004557D03*
X018847Y004126D03*
X018508Y003819D03*
X019380Y003819D03*
X019400Y004557D03*
D137*
X019790Y003819D03*
X018119Y004803D03*
D138*
X019385Y003849D03*
D139*
X017847Y003849D03*
X017847Y004577D03*
D140*
X018303Y004567D03*
X018621Y004321D03*
X018621Y004300D03*
X018621Y004290D03*
X018621Y004280D03*
X018621Y004270D03*
X018621Y004259D03*
X018621Y004239D03*
X018621Y004229D03*
X018621Y004218D03*
X018621Y004208D03*
X018621Y004198D03*
X018795Y004362D03*
X018303Y003860D03*
D141*
X017847Y003860D03*
X018513Y004536D03*
X018657Y004413D03*
X018657Y004403D03*
X018831Y004198D03*
X018831Y004177D03*
X019077Y004239D03*
X019272Y004239D03*
X019272Y004229D03*
X019272Y004218D03*
X019272Y004208D03*
X019272Y004198D03*
X019272Y004177D03*
X019272Y004167D03*
X019272Y004157D03*
X019252Y004085D03*
X019252Y004075D03*
X019272Y004259D03*
X019252Y004331D03*
X019221Y004393D03*
X019795Y004813D03*
D142*
X019385Y003870D03*
X018503Y003870D03*
D143*
X017847Y003870D03*
X017847Y004546D03*
X018513Y004546D03*
X018708Y004464D03*
X018954Y004393D03*
X019057Y004290D03*
X019180Y004444D03*
X019200Y003993D03*
X019795Y004823D03*
X020236Y005059D03*
D144*
X018923Y003880D03*
D145*
X019041Y004311D03*
X018303Y003880D03*
D146*
X017847Y003880D03*
X017847Y004557D03*
D147*
X018929Y004516D03*
X018929Y003890D03*
D148*
X018923Y003901D03*
X018934Y004505D03*
D149*
X019790Y004403D03*
X018929Y003911D03*
D150*
X018954Y004382D03*
X017847Y004382D03*
X017847Y004393D03*
X017847Y004403D03*
X017847Y004413D03*
X017847Y004423D03*
X017847Y004444D03*
X017847Y004454D03*
X017847Y004464D03*
X017847Y004475D03*
X017847Y004485D03*
X017847Y004505D03*
X017847Y004362D03*
X017847Y004352D03*
X017847Y004341D03*
X017847Y004331D03*
X017847Y004321D03*
X017847Y004300D03*
X017847Y004147D03*
X017847Y004136D03*
X017847Y004116D03*
X017847Y004106D03*
X017847Y004095D03*
X017847Y004085D03*
X017847Y004075D03*
X017847Y004054D03*
X017847Y004044D03*
X017847Y004034D03*
X017847Y004024D03*
X017847Y004013D03*
X017847Y003993D03*
X017847Y003983D03*
X017847Y003972D03*
X017847Y003962D03*
X017847Y003952D03*
X017847Y003931D03*
X017847Y003921D03*
X017847Y003911D03*
D151*
X019139Y003942D03*
X018134Y004864D03*
D152*
X018718Y003942D03*
D153*
X018303Y003942D03*
X018303Y004003D03*
X018303Y004065D03*
X018303Y004126D03*
X018303Y004311D03*
X018303Y004372D03*
X018303Y004434D03*
X018303Y004495D03*
D154*
X017847Y004495D03*
X017847Y004434D03*
X017847Y004372D03*
X017847Y004311D03*
X017847Y004126D03*
X017847Y004065D03*
X017847Y004003D03*
X017847Y003942D03*
D155*
X018682Y003993D03*
D156*
X018821Y004249D03*
X018677Y004434D03*
X019087Y004188D03*
X019262Y004126D03*
X019241Y004065D03*
X019231Y004372D03*
D157*
X018872Y004085D03*
D158*
X018867Y004095D03*
X018959Y004834D03*
D159*
X018872Y004106D03*
X019405Y005674D03*
D160*
X018641Y004372D03*
X018652Y004126D03*
X019257Y004311D03*
D161*
X019272Y004249D03*
X019272Y004188D03*
X019077Y004249D03*
X018831Y004188D03*
X017673Y005049D03*
D162*
X018072Y004249D03*
X018072Y004188D03*
X018954Y004803D03*
D163*
X018621Y004311D03*
X018621Y004249D03*
D164*
X018831Y004311D03*
D165*
X018795Y004382D03*
D166*
X018800Y004393D03*
X019795Y004793D03*
X017673Y005028D03*
D167*
X019790Y004413D03*
D168*
X019790Y004423D03*
X019790Y004526D03*
D169*
X019790Y004434D03*
D170*
X019790Y004444D03*
X019790Y004454D03*
X019790Y004464D03*
X019790Y004475D03*
X019790Y004485D03*
D171*
X019139Y004475D03*
D172*
X019790Y004495D03*
D173*
X019780Y004864D03*
X018765Y004495D03*
D174*
X019790Y004505D03*
X019790Y004516D03*
X018959Y005285D03*
D175*
X019400Y004526D03*
D176*
X019790Y004536D03*
X018539Y005685D03*
D177*
X018549Y004618D03*
D178*
X018959Y004741D03*
D179*
X018954Y004752D03*
D180*
X018954Y004762D03*
D181*
X018959Y004772D03*
D182*
X018954Y004782D03*
D183*
X018959Y004793D03*
D184*
X018119Y004793D03*
D185*
X018954Y004813D03*
X019354Y005685D03*
D186*
X018959Y004823D03*
D187*
X018954Y004844D03*
D188*
X018959Y004864D03*
D189*
X018334Y005049D03*
X017985Y005418D03*
D190*
X018401Y005090D03*
D191*
X018616Y005172D03*
X019446Y005664D03*
D192*
X017724Y005172D03*
D193*
X018959Y005182D03*
D194*
X018959Y005192D03*
D195*
X018959Y005213D03*
X018949Y005767D03*
D196*
X018959Y005223D03*
D197*
X018959Y005233D03*
D198*
X018954Y005244D03*
D199*
X018959Y005254D03*
D200*
X018959Y005264D03*
D201*
X018959Y005295D03*
D202*
X018959Y005305D03*
D203*
X018288Y005602D03*
D204*
X019590Y005613D03*
D205*
X018385Y005643D03*
D206*
X019482Y005654D03*
D207*
X018447Y005664D03*
D208*
X018488Y005674D03*
D209*
X018949Y005695D03*
D210*
X018949Y005705D03*
D211*
X018949Y005715D03*
D212*
X018954Y005726D03*
D213*
X018949Y005736D03*
D214*
X018954Y005746D03*
D215*
X018949Y005756D03*
D216*
X018949Y005777D03*
D217*
X018949Y005787D03*
D218*
X018954Y005797D03*
D219*
X018954Y005808D03*
M02*
