G75*
%MOIN*%
%OFA0B0*%
%FSLAX24Y24*%
%IPPOS*%
%LPD*%
%AMOC8*
5,1,8,0,0,1.08239X$1,22.5*
%
%ADD10C,0.0760*%
%ADD11R,0.0551X0.0394*%
%ADD12R,0.0630X0.0710*%
%ADD13R,0.0600X0.0591*%
%ADD14C,0.0768*%
%ADD15C,0.0594*%
%ADD16C,0.0827*%
%ADD17R,0.0740X0.0740*%
%ADD18C,0.0740*%
%ADD19C,0.0780*%
%ADD20C,0.1890*%
%ADD21C,0.0600*%
%ADD22OC8,0.0700*%
%ADD23C,0.0700*%
%ADD24C,0.0100*%
%ADD25OC8,0.0278*%
%ADD26C,0.0160*%
D10*
X002857Y003460D03*
X002857Y004460D03*
X002857Y005460D03*
X002857Y006460D03*
X002857Y007460D03*
X002857Y008460D03*
X002857Y009460D03*
X003857Y012492D03*
X004857Y012492D03*
X005857Y012492D03*
X006857Y012492D03*
X007857Y012492D03*
X008857Y012492D03*
X009857Y012476D03*
X010857Y012476D03*
X011857Y012476D03*
X012857Y012476D03*
X013857Y012476D03*
X014857Y012476D03*
X015857Y009460D03*
X015857Y008460D03*
X015857Y007460D03*
X015857Y006460D03*
X015857Y005460D03*
X015857Y004460D03*
X015857Y003476D03*
D11*
X020125Y002653D03*
X020991Y002279D03*
X020125Y001905D03*
X020125Y008740D03*
X020991Y009114D03*
X020125Y009488D03*
D12*
X018716Y009925D03*
X017597Y009925D03*
X017597Y008192D03*
X018716Y008192D03*
X018756Y006610D03*
X017636Y006610D03*
X017636Y004917D03*
X018756Y004917D03*
X018756Y002948D03*
X017636Y002948D03*
X017636Y001610D03*
X018756Y001610D03*
X018716Y011893D03*
X017597Y011893D03*
X017597Y013586D03*
X018716Y013586D03*
D13*
X020538Y012826D03*
X020538Y011448D03*
X020538Y005665D03*
X020538Y004287D03*
X005814Y005114D03*
X005814Y006492D03*
D14*
X028196Y006492D03*
X028196Y008629D03*
X028196Y013354D03*
X028196Y001767D03*
D15*
X023393Y001767D03*
X023393Y006492D03*
X023393Y008629D03*
X023393Y013354D03*
D16*
X022607Y010992D03*
X022607Y004129D03*
D17*
X023511Y015665D03*
X019968Y015665D03*
X016424Y015665D03*
X012881Y015665D03*
X009338Y015665D03*
X009338Y019208D03*
X012881Y019208D03*
X016424Y019208D03*
X019968Y019208D03*
X023511Y019208D03*
X027054Y019208D03*
X030597Y019208D03*
X034141Y019208D03*
X034141Y015665D03*
X030597Y015665D03*
X027054Y015665D03*
D18*
X026054Y015665D03*
X025054Y015665D03*
X022511Y015665D03*
X021511Y015665D03*
X018968Y015665D03*
X017968Y015665D03*
X015424Y015665D03*
X014424Y015665D03*
X011881Y015665D03*
X010881Y015665D03*
X008338Y015665D03*
X007338Y015665D03*
X007338Y019208D03*
X008338Y019208D03*
X010881Y019208D03*
X011881Y019208D03*
X014424Y019208D03*
X015424Y019208D03*
X017968Y019208D03*
X018968Y019208D03*
X021511Y019208D03*
X022511Y019208D03*
X025054Y019208D03*
X026054Y019208D03*
X028597Y019208D03*
X029597Y019208D03*
X032141Y019208D03*
X033141Y019208D03*
X033141Y015665D03*
X032141Y015665D03*
X029597Y015665D03*
X028597Y015665D03*
D19*
X032018Y012962D02*
X032798Y012962D01*
X032798Y010992D02*
X032018Y010992D01*
X032018Y009022D02*
X032798Y009022D01*
X032798Y006099D02*
X032018Y006099D01*
X032018Y004129D02*
X032798Y004129D01*
X032798Y002159D02*
X032018Y002159D01*
D20*
X005515Y018854D03*
X003192Y018854D03*
X004334Y017003D03*
D21*
X008338Y004662D02*
X008338Y004062D01*
X009338Y004062D02*
X009338Y004662D01*
X010338Y004662D02*
X010338Y004062D01*
D22*
X005401Y015259D03*
X003038Y015259D03*
D23*
X003038Y014259D03*
X005401Y014259D03*
D24*
X006053Y015176D02*
X006053Y012658D01*
X005933Y012538D01*
X005857Y012492D01*
X006857Y012492D02*
X006892Y012419D01*
X008091Y011220D01*
X008091Y006904D01*
X007731Y006544D01*
X007731Y006305D01*
X007451Y006623D02*
X007851Y007024D01*
X007851Y007623D01*
X003176Y012299D01*
X003176Y013617D01*
X003656Y014097D01*
X003656Y014696D01*
X005574Y016614D01*
X005574Y018772D01*
X005515Y018854D01*
X007338Y019208D02*
X007372Y019252D01*
X008451Y020331D01*
X020319Y020331D01*
X021398Y019132D02*
X021511Y019208D01*
X021398Y019132D02*
X020919Y019132D01*
X018041Y016255D01*
X017682Y016255D01*
X017322Y015895D01*
X017322Y014337D01*
X016723Y013737D01*
X016723Y012299D01*
X016401Y012139D02*
X016401Y014457D01*
X017082Y015296D01*
X017082Y016135D01*
X016962Y016255D01*
X014205Y016255D01*
X013845Y015895D01*
X013845Y014775D01*
X016000Y012739D01*
X016000Y012061D01*
X015721Y012299D02*
X015721Y012737D01*
X013606Y014734D01*
X013606Y016015D01*
X014085Y016495D01*
X015284Y016495D01*
X017921Y019132D01*
X017968Y019208D01*
X017802Y019851D02*
X017082Y019132D01*
X017082Y018772D01*
X015764Y017454D01*
X007372Y017454D01*
X005813Y015895D01*
X005214Y015895D01*
X003895Y014576D01*
X003895Y012538D01*
X003857Y012492D01*
X002936Y012179D02*
X007372Y007743D01*
X007372Y007144D01*
X007451Y006623D02*
X006319Y006623D01*
X006188Y006492D01*
X005814Y006492D01*
X004015Y006544D02*
X003775Y006544D01*
X002936Y007384D01*
X002857Y007460D01*
X002857Y006460D02*
X002936Y006424D01*
X003536Y005825D01*
X007851Y005825D01*
X013566Y011334D01*
X014731Y011334D01*
X014967Y011146D01*
X014325Y010982D02*
X007971Y004746D01*
X007612Y005106D01*
X006603Y005106D01*
X005814Y005114D01*
X007971Y004746D02*
X008331Y004387D01*
X008338Y004362D01*
X010338Y004362D02*
X010369Y004387D01*
X015404Y009422D01*
X015764Y009422D01*
X015857Y009460D01*
X016240Y009944D02*
X016483Y009661D01*
X016483Y009062D01*
X015883Y008462D01*
X015857Y008460D01*
X015044Y008462D02*
X015044Y007983D01*
X010609Y003547D01*
X004734Y003547D01*
X002936Y005346D01*
X002857Y005460D01*
X006892Y003068D02*
X009050Y000910D01*
X016875Y000910D01*
X017002Y000833D01*
X016123Y001150D02*
X009410Y001150D01*
X007492Y003068D01*
X016123Y001150D02*
X017202Y002229D01*
X017921Y002229D01*
X018161Y002468D01*
X018161Y005346D01*
X018281Y005465D01*
X019240Y005465D01*
X019600Y005106D01*
X022717Y005106D01*
X027272Y009661D01*
X032307Y009661D01*
X033386Y010740D01*
X033386Y013258D01*
X032187Y014457D01*
X032187Y015655D01*
X032141Y015665D01*
X033141Y015665D02*
X033146Y015775D01*
X033146Y017454D01*
X029670Y017454D01*
X026073Y017454D01*
X026073Y015775D01*
X026054Y015665D01*
X024994Y016495D02*
X024155Y015655D01*
X024155Y013378D01*
X023076Y012299D01*
X019360Y012299D01*
X018881Y012778D01*
X018041Y012778D01*
X017562Y013498D02*
X017562Y011939D01*
X017597Y011893D01*
X017562Y010860D02*
X016401Y012139D01*
X016240Y012780D02*
X016240Y009944D01*
X017562Y010021D02*
X017562Y010860D01*
X017562Y010021D02*
X017597Y009925D01*
X018716Y009925D02*
X019000Y009661D01*
X019000Y009541D01*
X017682Y008223D01*
X017597Y008192D01*
X019000Y009661D02*
X019120Y009541D01*
X020079Y009541D01*
X020125Y009488D01*
X020919Y009182D02*
X020991Y009114D01*
X021038Y009062D01*
X021398Y008702D01*
X023316Y008702D01*
X023393Y008629D01*
X020919Y009182D02*
X020919Y010980D01*
X020559Y011340D01*
X020538Y011448D01*
X020439Y011460D01*
X020079Y011819D01*
X018761Y011819D01*
X018716Y011893D01*
X019360Y012898D02*
X018761Y013498D01*
X018716Y013586D01*
X018761Y013617D01*
X018881Y013737D01*
X018881Y015655D01*
X018968Y015665D01*
X021511Y015665D02*
X021518Y015775D01*
X021518Y016135D01*
X024155Y018772D01*
X024155Y019612D01*
X023916Y019851D01*
X017802Y019851D01*
X014424Y019208D02*
X014325Y019132D01*
X013845Y019132D01*
X012407Y017693D01*
X007012Y017693D01*
X007851Y016974D02*
X006053Y015176D01*
X006533Y014696D02*
X010729Y014696D01*
X012287Y013138D01*
X012767Y013258D02*
X012767Y012538D01*
X012857Y012476D01*
X012767Y013258D02*
X011927Y014097D01*
X011927Y015056D01*
X008930Y015056D01*
X008331Y015655D01*
X008338Y015665D01*
X008810Y016974D02*
X007851Y016974D01*
X008338Y019208D02*
X008331Y019252D01*
X008930Y019851D01*
X011208Y019851D01*
X011807Y019252D01*
X011881Y019208D01*
X011881Y015665D02*
X011927Y015655D01*
X011927Y015056D01*
X014424Y015665D02*
X014445Y015655D01*
X014445Y014457D01*
X016240Y012780D01*
X015445Y012658D02*
X015445Y011905D01*
X014857Y012476D02*
X014685Y012538D01*
X014685Y012494D01*
X014178Y011819D02*
X010489Y011819D01*
X009889Y012419D01*
X009857Y012476D01*
X002936Y012179D02*
X002936Y014217D01*
X003038Y014259D01*
X017562Y013498D02*
X017597Y013586D01*
X019360Y012898D02*
X020439Y012898D01*
X020538Y012826D01*
X020559Y012898D01*
X022956Y012898D01*
X023316Y013258D01*
X023393Y013354D01*
X023316Y013378D01*
X023316Y014816D01*
X022477Y015655D01*
X022511Y015665D01*
X024994Y016495D02*
X024994Y019132D01*
X025054Y019208D01*
X026054Y019208D02*
X026073Y019132D01*
X026073Y017454D01*
X029670Y017454D02*
X029670Y015775D01*
X029597Y015665D01*
X029670Y017454D02*
X029670Y019132D01*
X029597Y019208D01*
X033141Y019208D02*
X033146Y019132D01*
X033146Y017454D01*
X028196Y013354D02*
X028231Y013258D01*
X032068Y013258D01*
X032307Y013018D01*
X032408Y012962D01*
X032307Y011100D02*
X032408Y010992D01*
X032307Y011100D02*
X022717Y011100D01*
X022607Y010992D01*
X019000Y009661D02*
X018761Y009901D01*
X018716Y009925D01*
X018756Y006610D02*
X018761Y006544D01*
X019600Y005705D01*
X020439Y005705D01*
X020538Y005665D01*
X020559Y005705D01*
X021278Y006424D01*
X023316Y006424D01*
X023393Y006492D01*
X020538Y004287D02*
X020439Y004387D01*
X019959Y004866D01*
X018761Y004866D01*
X018756Y004917D01*
X017682Y004986D02*
X017636Y004917D01*
X017682Y004986D02*
X017682Y006544D01*
X017636Y006610D01*
X016603Y004986D02*
X017562Y004027D01*
X017562Y003068D01*
X017636Y002948D01*
X018756Y002948D02*
X018881Y002828D01*
X017682Y001629D01*
X017636Y001610D01*
X018881Y002828D02*
X019000Y002708D01*
X020079Y002708D01*
X020125Y002653D01*
X020919Y002349D02*
X020991Y002279D01*
X021038Y002229D01*
X021398Y001869D01*
X023316Y001869D01*
X023393Y001767D01*
X020919Y002349D02*
X020919Y003907D01*
X020559Y004267D01*
X020538Y004287D01*
X022607Y004129D02*
X022717Y004147D01*
X032307Y004147D01*
X032408Y004129D01*
X032408Y002159D02*
X032307Y002109D01*
X032068Y001869D01*
X028231Y001869D01*
X028196Y001767D01*
X032307Y006185D02*
X032408Y006099D01*
X032307Y006185D02*
X032068Y006424D01*
X028231Y006424D01*
X028196Y006492D01*
X028196Y008629D02*
X028231Y008702D01*
X032068Y008702D01*
X032307Y008942D01*
X032408Y009022D01*
X018881Y002828D02*
X018761Y002948D01*
X018756Y002948D01*
D25*
X016603Y004986D03*
X015044Y008462D03*
X014325Y010982D03*
X014967Y011146D03*
X015445Y011905D03*
X015721Y012299D03*
X016000Y012061D03*
X016723Y012299D03*
X018041Y012778D03*
X015445Y012658D03*
X014178Y011819D03*
X012287Y013138D03*
X006533Y014696D03*
X008810Y016974D03*
X007012Y017693D03*
X020319Y020331D03*
X007372Y007144D03*
X007731Y006305D03*
X004015Y006544D03*
X006892Y003068D03*
X007492Y003068D03*
X017002Y000833D03*
D26*
X002337Y001578D02*
X002337Y003148D01*
X002349Y003120D01*
X002518Y002952D01*
X002738Y002860D01*
X002977Y002860D01*
X003197Y002952D01*
X003366Y003120D01*
X003457Y003341D01*
X003457Y003579D01*
X003366Y003800D01*
X003205Y003960D01*
X003366Y004120D01*
X003457Y004341D01*
X003457Y004443D01*
X004582Y003319D01*
X004681Y003278D01*
X006595Y003278D01*
X006534Y003216D01*
X006534Y002919D01*
X006744Y002709D01*
X006870Y002709D01*
X008788Y000791D01*
X006781Y000791D01*
X006201Y001370D01*
X006066Y001505D01*
X005890Y001578D01*
X002337Y001578D01*
X002337Y001579D02*
X008000Y001579D01*
X007842Y001737D02*
X002337Y001737D01*
X002337Y001896D02*
X007683Y001896D01*
X007525Y002054D02*
X002337Y002054D01*
X002337Y002213D02*
X007366Y002213D01*
X007208Y002371D02*
X002337Y002371D01*
X002337Y002530D02*
X007049Y002530D01*
X006891Y002688D02*
X002337Y002688D01*
X002337Y002847D02*
X006606Y002847D01*
X006534Y003005D02*
X003250Y003005D01*
X003384Y003164D02*
X006534Y003164D01*
X007190Y003278D02*
X007194Y003278D01*
X007192Y003276D01*
X007190Y003278D01*
X007789Y003278D02*
X007851Y003216D01*
X007851Y003090D01*
X009522Y001419D01*
X015174Y001419D01*
X015046Y001548D01*
X014913Y001869D01*
X014913Y002217D01*
X015046Y002538D01*
X015292Y002783D01*
X015613Y002917D01*
X015640Y002917D01*
X015518Y002967D01*
X015349Y003136D01*
X015258Y003357D01*
X015258Y003595D01*
X015349Y003816D01*
X015501Y003968D01*
X015349Y004120D01*
X015258Y004341D01*
X015258Y004579D01*
X015349Y004800D01*
X015509Y004960D01*
X015349Y005120D01*
X015258Y005341D01*
X015258Y005579D01*
X015349Y005800D01*
X015509Y005960D01*
X015349Y006120D01*
X015258Y006341D01*
X015258Y006579D01*
X015349Y006800D01*
X015509Y006960D01*
X015349Y007120D01*
X015258Y007341D01*
X015258Y007579D01*
X015349Y007800D01*
X015509Y007960D01*
X015349Y008120D01*
X015314Y008204D01*
X015314Y007929D01*
X015273Y007830D01*
X010837Y003395D01*
X010761Y003319D01*
X010662Y003278D01*
X007789Y003278D01*
X007851Y003164D02*
X015337Y003164D01*
X015272Y003322D02*
X010765Y003322D01*
X010923Y003481D02*
X015258Y003481D01*
X015276Y003639D02*
X011082Y003639D01*
X011240Y003798D02*
X015341Y003798D01*
X015489Y003956D02*
X011399Y003956D01*
X011557Y004115D02*
X015355Y004115D01*
X015286Y004273D02*
X011716Y004273D01*
X011874Y004432D02*
X015258Y004432D01*
X015262Y004590D02*
X012033Y004590D01*
X012191Y004749D02*
X015328Y004749D01*
X015456Y004907D02*
X012350Y004907D01*
X012508Y005066D02*
X015404Y005066D01*
X015306Y005224D02*
X012667Y005224D01*
X012825Y005383D02*
X015258Y005383D01*
X015258Y005541D02*
X012984Y005541D01*
X013142Y005700D02*
X015307Y005700D01*
X015407Y005858D02*
X013301Y005858D01*
X013459Y006017D02*
X015453Y006017D01*
X015326Y006175D02*
X013618Y006175D01*
X013776Y006334D02*
X015261Y006334D01*
X015258Y006492D02*
X013935Y006492D01*
X014093Y006651D02*
X015287Y006651D01*
X015358Y006809D02*
X014252Y006809D01*
X014410Y006968D02*
X015502Y006968D01*
X015346Y007126D02*
X014569Y007126D01*
X014727Y007285D02*
X015281Y007285D01*
X015258Y007443D02*
X014886Y007443D01*
X015044Y007602D02*
X015267Y007602D01*
X015203Y007760D02*
X015332Y007760D01*
X015310Y007919D02*
X015467Y007919D01*
X015392Y008077D02*
X015314Y008077D01*
X014775Y008095D02*
X010857Y004178D01*
X010857Y004493D01*
X014685Y008322D01*
X014685Y008314D01*
X014775Y008225D01*
X014775Y008095D01*
X014757Y008077D02*
X014441Y008077D01*
X014598Y007919D02*
X014282Y007919D01*
X014124Y007760D02*
X014440Y007760D01*
X014281Y007602D02*
X013965Y007602D01*
X013807Y007443D02*
X014123Y007443D01*
X013964Y007285D02*
X013648Y007285D01*
X013490Y007126D02*
X013806Y007126D01*
X013647Y006968D02*
X013331Y006968D01*
X013173Y006809D02*
X013489Y006809D01*
X013330Y006651D02*
X013014Y006651D01*
X012856Y006492D02*
X013172Y006492D01*
X013013Y006334D02*
X012697Y006334D01*
X012539Y006175D02*
X012855Y006175D01*
X012696Y006017D02*
X012380Y006017D01*
X012222Y005858D02*
X012538Y005858D01*
X012379Y005700D02*
X012063Y005700D01*
X011905Y005541D02*
X012221Y005541D01*
X012062Y005383D02*
X011746Y005383D01*
X011588Y005224D02*
X011904Y005224D01*
X011745Y005066D02*
X011429Y005066D01*
X011271Y004907D02*
X011587Y004907D01*
X011428Y004749D02*
X011112Y004749D01*
X010954Y004590D02*
X011270Y004590D01*
X011111Y004432D02*
X010857Y004432D01*
X010857Y004273D02*
X010953Y004273D01*
X009818Y004273D02*
X009818Y004273D01*
X009818Y004342D02*
X009358Y004342D01*
X009358Y004382D01*
X009818Y004382D01*
X009818Y004699D01*
X009806Y004774D01*
X009782Y004846D01*
X009748Y004913D01*
X009704Y004974D01*
X009650Y005028D01*
X009589Y005072D01*
X009522Y005107D01*
X009450Y005130D01*
X009375Y005142D01*
X009358Y005142D01*
X009358Y004382D01*
X009318Y004382D01*
X009318Y005142D01*
X009300Y005142D01*
X009225Y005130D01*
X009153Y005107D01*
X009086Y005072D01*
X009025Y005028D01*
X008971Y004974D01*
X008927Y004913D01*
X008893Y004846D01*
X008869Y004774D01*
X008858Y004699D01*
X008858Y004382D01*
X009318Y004382D01*
X009318Y004342D01*
X008858Y004342D01*
X008858Y004024D01*
X008869Y003949D01*
X008893Y003877D01*
X008924Y003817D01*
X008799Y003817D01*
X008857Y003958D01*
X008857Y004765D01*
X008778Y004956D01*
X008675Y005059D01*
X014345Y010623D01*
X014474Y010623D01*
X014684Y010833D01*
X014684Y010922D01*
X014819Y010788D01*
X015116Y010788D01*
X015326Y010998D01*
X015326Y011295D01*
X015116Y011505D01*
X014950Y011505D01*
X014911Y011536D01*
X014884Y011563D01*
X014870Y011569D01*
X014857Y011579D01*
X014820Y011589D01*
X014785Y011604D01*
X014769Y011604D01*
X014754Y011608D01*
X014716Y011604D01*
X014470Y011604D01*
X014537Y011671D01*
X014537Y011968D01*
X014330Y012174D01*
X014336Y012182D01*
X014357Y012224D01*
X014378Y012182D01*
X014430Y012111D01*
X014492Y012049D01*
X014564Y011997D01*
X014642Y011957D01*
X014726Y011930D01*
X014813Y011916D01*
X014839Y011916D01*
X014839Y012457D01*
X014876Y012457D01*
X014876Y011916D01*
X014901Y011916D01*
X014988Y011930D01*
X015072Y011957D01*
X015086Y011964D01*
X015086Y011756D01*
X015296Y011546D01*
X015594Y011546D01*
X015800Y011753D01*
X015851Y011702D01*
X015970Y011702D01*
X015970Y010060D01*
X015738Y010060D01*
X015518Y009969D01*
X015349Y009800D01*
X015294Y009668D01*
X015251Y009650D01*
X015175Y009574D01*
X010668Y005067D01*
X010632Y005102D01*
X010441Y005181D01*
X010234Y005181D01*
X010043Y005102D01*
X009897Y004956D01*
X009818Y004765D01*
X009818Y003958D01*
X009876Y003817D01*
X009752Y003817D01*
X009782Y003877D01*
X009806Y003949D01*
X009818Y004024D01*
X009818Y004342D01*
X009818Y004432D02*
X009818Y004432D01*
X009818Y004590D02*
X009818Y004590D01*
X009810Y004749D02*
X009818Y004749D01*
X009877Y004907D02*
X009751Y004907D01*
X009598Y005066D02*
X010006Y005066D01*
X009358Y005066D02*
X009318Y005066D01*
X009318Y004907D02*
X009358Y004907D01*
X009358Y004749D02*
X009318Y004749D01*
X009318Y004590D02*
X009358Y004590D01*
X009358Y004432D02*
X009318Y004432D01*
X008858Y004432D02*
X008857Y004432D01*
X008857Y004590D02*
X008858Y004590D01*
X008857Y004749D02*
X008865Y004749D01*
X008924Y004907D02*
X008799Y004907D01*
X008682Y005066D02*
X009077Y005066D01*
X008843Y005224D02*
X010825Y005224D01*
X010983Y005383D02*
X009005Y005383D01*
X009166Y005541D02*
X011142Y005541D01*
X011300Y005700D02*
X009328Y005700D01*
X009489Y005858D02*
X011459Y005858D01*
X011617Y006017D02*
X009651Y006017D01*
X009812Y006175D02*
X011776Y006175D01*
X011934Y006334D02*
X009974Y006334D01*
X010135Y006492D02*
X012093Y006492D01*
X012251Y006651D02*
X010297Y006651D01*
X010458Y006809D02*
X012410Y006809D01*
X012568Y006968D02*
X010620Y006968D01*
X010781Y007126D02*
X012727Y007126D01*
X012885Y007285D02*
X010943Y007285D01*
X011104Y007443D02*
X013044Y007443D01*
X013202Y007602D02*
X011266Y007602D01*
X011427Y007760D02*
X013361Y007760D01*
X013519Y007919D02*
X011589Y007919D01*
X011750Y008077D02*
X013678Y008077D01*
X013836Y008236D02*
X011912Y008236D01*
X012073Y008394D02*
X013995Y008394D01*
X014153Y008553D02*
X012235Y008553D01*
X012396Y008711D02*
X014312Y008711D01*
X014470Y008870D02*
X012558Y008870D01*
X012719Y009028D02*
X014629Y009028D01*
X014787Y009187D02*
X012881Y009187D01*
X013042Y009345D02*
X014946Y009345D01*
X015104Y009504D02*
X013204Y009504D01*
X013365Y009662D02*
X015280Y009662D01*
X015369Y009821D02*
X013527Y009821D01*
X013688Y009979D02*
X015543Y009979D01*
X015970Y010138D02*
X013850Y010138D01*
X014011Y010296D02*
X015970Y010296D01*
X015970Y010455D02*
X014173Y010455D01*
X014334Y010613D02*
X015970Y010613D01*
X015970Y010772D02*
X014622Y010772D01*
X015258Y010930D02*
X015970Y010930D01*
X015970Y011089D02*
X015326Y011089D01*
X015326Y011247D02*
X015970Y011247D01*
X015970Y011406D02*
X015216Y011406D01*
X015279Y011564D02*
X014881Y011564D01*
X015120Y011723D02*
X014537Y011723D01*
X014537Y011881D02*
X015086Y011881D01*
X014876Y012040D02*
X014839Y012040D01*
X014839Y012198D02*
X014876Y012198D01*
X014876Y012357D02*
X014839Y012357D01*
X014839Y012457D02*
X013876Y012457D01*
X013876Y012494D01*
X014417Y012494D01*
X014839Y012494D01*
X014839Y012457D01*
X014839Y012494D02*
X014839Y013036D01*
X014813Y013036D01*
X014726Y013022D01*
X014642Y012995D01*
X014564Y012955D01*
X014492Y012903D01*
X014430Y012841D01*
X014378Y012769D01*
X014357Y012728D01*
X014336Y012769D01*
X014284Y012841D01*
X014222Y012903D01*
X014151Y012955D01*
X014072Y012995D01*
X013988Y013022D01*
X013901Y013036D01*
X013876Y013036D01*
X013876Y012494D01*
X013839Y012494D01*
X013839Y013036D01*
X013813Y013036D01*
X013726Y013022D01*
X013642Y012995D01*
X013564Y012955D01*
X013492Y012903D01*
X013430Y012841D01*
X013383Y012775D01*
X013366Y012816D01*
X013197Y012984D01*
X013036Y013051D01*
X013036Y013311D01*
X012995Y013411D01*
X012919Y013486D01*
X012197Y014209D01*
X012197Y015157D01*
X012215Y015165D01*
X012331Y015281D01*
X012331Y015271D01*
X012343Y015225D01*
X012367Y015184D01*
X012400Y015151D01*
X012441Y015127D01*
X012487Y015115D01*
X012861Y015115D01*
X012861Y015645D01*
X012901Y015645D01*
X012901Y015115D01*
X013275Y015115D01*
X013320Y015127D01*
X013336Y015136D01*
X013336Y014784D01*
X013335Y014780D01*
X013336Y014730D01*
X013336Y014680D01*
X013337Y014677D01*
X013338Y014673D01*
X013358Y014627D01*
X013377Y014581D01*
X013380Y014578D01*
X013381Y014575D01*
X013381Y014576D02*
X012197Y014576D01*
X012197Y014734D02*
X013336Y014734D01*
X013336Y014893D02*
X012197Y014893D01*
X012197Y015051D02*
X013336Y015051D01*
X012901Y015210D02*
X012861Y015210D01*
X012861Y015368D02*
X012901Y015368D01*
X012901Y015527D02*
X012861Y015527D01*
X012861Y015685D02*
X012861Y016215D01*
X012487Y016215D01*
X012441Y016203D01*
X012400Y016179D01*
X012367Y016145D01*
X012343Y016104D01*
X012331Y016059D01*
X012331Y016049D01*
X012215Y016165D01*
X011998Y016255D01*
X011764Y016255D01*
X011547Y016165D01*
X011381Y015999D01*
X011381Y015999D01*
X011215Y016165D01*
X010998Y016255D01*
X010764Y016255D01*
X010547Y016165D01*
X010381Y015999D01*
X010291Y015782D01*
X010291Y015548D01*
X010381Y015331D01*
X010386Y015326D01*
X009888Y015326D01*
X009888Y015645D01*
X009358Y015645D01*
X009358Y015685D01*
X009318Y015685D01*
X009318Y016215D01*
X008944Y016215D01*
X008898Y016203D01*
X008857Y016179D01*
X008824Y016145D01*
X008800Y016104D01*
X008788Y016059D01*
X008788Y016049D01*
X008672Y016165D01*
X008455Y016255D01*
X008220Y016255D01*
X008004Y016165D01*
X007838Y015999D01*
X007838Y015999D01*
X007838Y015999D01*
X007672Y016165D01*
X007496Y016237D01*
X007963Y016704D01*
X008573Y016704D01*
X008662Y016615D01*
X008959Y016615D01*
X009169Y016825D01*
X009169Y017123D01*
X009108Y017184D01*
X015592Y017184D01*
X015172Y016764D01*
X014032Y016764D01*
X013932Y016723D01*
X013453Y016244D01*
X013377Y016168D01*
X013376Y016165D01*
X013361Y016179D01*
X013320Y016203D01*
X013275Y016215D01*
X012901Y016215D01*
X012901Y015685D01*
X012861Y015685D01*
X012901Y015685D01*
X012901Y015844D02*
X012861Y015844D01*
X012861Y016002D02*
X012901Y016002D01*
X012901Y016161D02*
X012861Y016161D01*
X012382Y016161D02*
X012219Y016161D01*
X011543Y016161D02*
X011219Y016161D01*
X011378Y016002D02*
X011384Y016002D01*
X011381Y015999D02*
X011381Y015999D01*
X010543Y016161D02*
X009836Y016161D01*
X009852Y016145D02*
X009818Y016179D01*
X009777Y016203D01*
X009731Y016215D01*
X009358Y016215D01*
X009358Y015685D01*
X009888Y015685D01*
X010291Y015685D01*
X010300Y015527D02*
X009888Y015527D01*
X009888Y015685D02*
X009888Y016059D01*
X009875Y016104D01*
X009852Y016145D01*
X009888Y016002D02*
X010384Y016002D01*
X010317Y015844D02*
X009888Y015844D01*
X009888Y015368D02*
X010365Y015368D01*
X011020Y014786D02*
X011658Y014786D01*
X011658Y014149D01*
X011020Y014786D01*
X011072Y014734D02*
X011658Y014734D01*
X011658Y014576D02*
X011231Y014576D01*
X011389Y014417D02*
X011658Y014417D01*
X011658Y014259D02*
X011548Y014259D01*
X011102Y013942D02*
X006323Y013942D01*
X006323Y014100D02*
X010943Y014100D01*
X010785Y014259D02*
X006323Y014259D01*
X006384Y014338D02*
X006681Y014338D01*
X006770Y014427D01*
X010617Y014427D01*
X011928Y013115D01*
X011928Y013076D01*
X011738Y013076D01*
X011518Y012984D01*
X011357Y012824D01*
X011197Y012984D01*
X010977Y013076D01*
X010738Y013076D01*
X010518Y012984D01*
X010357Y012824D01*
X010197Y012984D01*
X009977Y013076D01*
X009738Y013076D01*
X009518Y012984D01*
X009365Y012832D01*
X009365Y012832D01*
X009197Y013000D01*
X008977Y013091D01*
X008738Y013091D01*
X008518Y013000D01*
X008357Y012840D01*
X008197Y013000D01*
X007977Y013091D01*
X007738Y013091D01*
X007518Y013000D01*
X007357Y012840D01*
X007197Y013000D01*
X006977Y013091D01*
X006738Y013091D01*
X006518Y013000D01*
X006357Y012840D01*
X006323Y012874D01*
X006323Y014399D01*
X006384Y014338D01*
X006761Y014417D02*
X010626Y014417D01*
X011260Y013783D02*
X006323Y013783D01*
X006323Y013625D02*
X011419Y013625D01*
X011577Y013466D02*
X006323Y013466D01*
X006323Y013308D02*
X011736Y013308D01*
X011894Y013149D02*
X006323Y013149D01*
X006323Y012991D02*
X006508Y012991D01*
X007207Y012991D02*
X007508Y012991D01*
X008207Y012991D02*
X008508Y012991D01*
X009207Y012991D02*
X009533Y012991D01*
X010182Y012991D02*
X010533Y012991D01*
X010365Y012832D02*
X010349Y012832D01*
X011182Y012991D02*
X011533Y012991D01*
X011365Y012832D02*
X011349Y012832D01*
X011357Y012128D02*
X011319Y012089D01*
X011396Y012089D01*
X011357Y012128D01*
X012319Y012089D02*
X012357Y012128D01*
X012396Y012089D01*
X012319Y012089D01*
X013319Y012089D02*
X013366Y012136D01*
X013383Y012177D01*
X013430Y012111D01*
X013452Y012089D01*
X013319Y012089D01*
X013400Y011549D02*
X013377Y011527D01*
X008090Y006430D01*
X008090Y006453D01*
X008056Y006487D01*
X008244Y006675D01*
X008320Y006751D01*
X008361Y006850D01*
X008361Y009693D01*
X008433Y009568D01*
X008644Y009357D01*
X008901Y009209D01*
X009189Y009132D01*
X009486Y009132D01*
X009774Y009209D01*
X010031Y009357D01*
X010242Y009568D01*
X010391Y009826D01*
X010468Y010113D01*
X010468Y010410D01*
X010391Y010698D01*
X010242Y010956D01*
X010031Y011166D01*
X009774Y011315D01*
X009486Y011392D01*
X009189Y011392D01*
X008901Y011315D01*
X008644Y011166D01*
X008433Y010956D01*
X008361Y010830D01*
X008361Y011273D01*
X008320Y011373D01*
X007801Y011892D01*
X007977Y011892D01*
X008197Y011983D01*
X008357Y012143D01*
X008518Y011983D01*
X008738Y011892D01*
X008977Y011892D01*
X009197Y011983D01*
X009349Y012136D01*
X009518Y011967D01*
X009738Y011876D01*
X009977Y011876D01*
X010029Y011898D01*
X010336Y011590D01*
X010435Y011549D01*
X013400Y011549D01*
X013252Y011406D02*
X008287Y011406D01*
X008361Y011247D02*
X008784Y011247D01*
X008566Y011089D02*
X008361Y011089D01*
X008361Y010930D02*
X008419Y010930D01*
X007821Y010930D02*
X004926Y010930D01*
X004768Y011089D02*
X007821Y011089D01*
X007821Y011108D02*
X007821Y008035D01*
X003964Y011892D01*
X003977Y011892D01*
X004197Y011983D01*
X004357Y012143D01*
X004518Y011983D01*
X004738Y011892D01*
X004977Y011892D01*
X005197Y011983D01*
X005357Y012143D01*
X005518Y011983D01*
X005738Y011892D01*
X005977Y011892D01*
X006197Y011983D01*
X006357Y012143D01*
X006518Y011983D01*
X006738Y011892D01*
X006977Y011892D01*
X007020Y011910D01*
X007821Y011108D01*
X007682Y011247D02*
X004609Y011247D01*
X004451Y011406D02*
X007524Y011406D01*
X007365Y011564D02*
X004292Y011564D01*
X004134Y011723D02*
X007207Y011723D01*
X007048Y011881D02*
X003975Y011881D01*
X004253Y012040D02*
X004461Y012040D01*
X005253Y012040D02*
X005461Y012040D01*
X006253Y012040D02*
X006461Y012040D01*
X005738Y013091D02*
X005518Y013000D01*
X005357Y012840D01*
X005197Y013000D01*
X004977Y013091D01*
X004738Y013091D01*
X004518Y013000D01*
X004357Y012840D01*
X004197Y013000D01*
X004165Y013013D01*
X004165Y014465D01*
X004871Y015170D01*
X004871Y015040D01*
X005142Y014769D01*
X005078Y014742D01*
X004918Y014582D01*
X004831Y014373D01*
X004831Y014146D01*
X004918Y013937D01*
X005078Y013776D01*
X005287Y013690D01*
X005514Y013690D01*
X005723Y013776D01*
X005783Y013836D01*
X005783Y013091D01*
X005738Y013091D01*
X005783Y013149D02*
X004165Y013149D01*
X004165Y013308D02*
X005783Y013308D01*
X005783Y013466D02*
X004165Y013466D01*
X004165Y013625D02*
X005783Y013625D01*
X005783Y013783D02*
X005730Y013783D01*
X005071Y013783D02*
X004165Y013783D01*
X004165Y013942D02*
X004916Y013942D01*
X004850Y014100D02*
X004165Y014100D01*
X004165Y014259D02*
X004831Y014259D01*
X004849Y014417D02*
X004165Y014417D01*
X004276Y014576D02*
X004915Y014576D01*
X005070Y014734D02*
X004434Y014734D01*
X004593Y014893D02*
X005018Y014893D01*
X004871Y015051D02*
X004751Y015051D01*
X004104Y015527D02*
X003521Y015527D01*
X003568Y015479D02*
X003258Y015789D01*
X003038Y015789D01*
X002819Y015789D01*
X002508Y015479D01*
X002508Y015259D01*
X002508Y015040D01*
X002779Y014769D01*
X002716Y014742D01*
X002555Y014582D01*
X002469Y014373D01*
X002469Y014146D01*
X002555Y013937D01*
X002666Y013826D01*
X002666Y012125D01*
X002708Y012026D01*
X003010Y011724D01*
X002817Y011724D01*
X002496Y011591D01*
X002337Y011432D01*
X002337Y018121D01*
X002352Y018103D01*
X002441Y018014D01*
X002540Y017935D01*
X002647Y017868D01*
X002761Y017813D01*
X002880Y017771D01*
X003003Y017743D01*
X003112Y017731D01*
X003112Y018774D01*
X003272Y018774D01*
X003272Y018934D01*
X003112Y018934D01*
X003112Y019977D01*
X003003Y019965D01*
X002337Y019965D01*
X002337Y020123D02*
X007862Y020123D01*
X008020Y020282D02*
X002337Y020282D01*
X002337Y020303D02*
X005890Y020303D01*
X006066Y020376D01*
X006781Y021090D01*
X034171Y021090D01*
X034645Y020591D01*
X034645Y019698D01*
X034621Y019722D01*
X034580Y019746D01*
X034534Y019758D01*
X034161Y019758D01*
X034161Y019228D01*
X034121Y019228D01*
X034121Y019758D01*
X033747Y019758D01*
X033701Y019746D01*
X033660Y019722D01*
X033627Y019689D01*
X033603Y019648D01*
X033591Y019602D01*
X033591Y019592D01*
X033475Y019708D01*
X033258Y019798D01*
X033023Y019798D01*
X032807Y019708D01*
X032641Y019542D01*
X032641Y019542D01*
X032641Y019542D01*
X032475Y019708D01*
X032258Y019798D01*
X032023Y019798D01*
X031807Y019708D01*
X031641Y019542D01*
X031551Y019325D01*
X031551Y019091D01*
X031641Y018874D01*
X031807Y018708D01*
X032023Y018618D01*
X032258Y018618D01*
X032475Y018708D01*
X032641Y018874D01*
X032807Y018708D01*
X032877Y018679D01*
X032877Y017723D01*
X029940Y017723D01*
X029940Y018716D01*
X030047Y018824D01*
X030047Y018814D01*
X030060Y018769D01*
X030083Y018728D01*
X030117Y018694D01*
X030158Y018670D01*
X030204Y018658D01*
X030577Y018658D01*
X030577Y019188D01*
X030617Y019188D01*
X030617Y018658D01*
X030991Y018658D01*
X031037Y018670D01*
X031078Y018694D01*
X031111Y018728D01*
X031135Y018769D01*
X031147Y018814D01*
X031147Y019188D01*
X030617Y019188D01*
X030617Y019228D01*
X030577Y019228D01*
X030577Y019758D01*
X030204Y019758D01*
X030158Y019746D01*
X030117Y019722D01*
X030083Y019689D01*
X030060Y019648D01*
X030047Y019602D01*
X030047Y019592D01*
X029932Y019708D01*
X029715Y019798D01*
X029480Y019798D01*
X029263Y019708D01*
X029097Y019542D01*
X029097Y019542D01*
X029097Y019542D01*
X028932Y019708D01*
X028715Y019798D01*
X028480Y019798D01*
X028263Y019708D01*
X028097Y019542D01*
X028008Y019325D01*
X028008Y019091D01*
X028097Y018874D01*
X028263Y018708D01*
X028480Y018618D01*
X028715Y018618D01*
X028932Y018708D01*
X029097Y018874D01*
X029097Y018874D01*
X029097Y018874D01*
X029263Y018708D01*
X029400Y018652D01*
X029400Y017723D01*
X026343Y017723D01*
X026343Y018690D01*
X026388Y018708D01*
X026504Y018824D01*
X026504Y018814D01*
X026516Y018769D01*
X026540Y018728D01*
X026574Y018694D01*
X026615Y018670D01*
X026660Y018658D01*
X027034Y018658D01*
X027034Y019188D01*
X027074Y019188D01*
X027074Y018658D01*
X027448Y018658D01*
X027494Y018670D01*
X027535Y018694D01*
X027568Y018728D01*
X027592Y018769D01*
X027604Y018814D01*
X027604Y019188D01*
X027074Y019188D01*
X027074Y019228D01*
X027604Y019228D01*
X027604Y019602D01*
X027592Y019648D01*
X027568Y019689D01*
X027535Y019722D01*
X027494Y019746D01*
X027448Y019758D01*
X027074Y019758D01*
X027074Y019228D01*
X027034Y019228D01*
X027034Y019758D01*
X026660Y019758D01*
X026615Y019746D01*
X026574Y019722D01*
X026540Y019689D01*
X026516Y019648D01*
X026504Y019602D01*
X026504Y019592D01*
X026388Y019708D01*
X026171Y019798D01*
X025937Y019798D01*
X025720Y019708D01*
X025554Y019542D01*
X025554Y019542D01*
X025554Y019542D01*
X025388Y019708D01*
X025171Y019798D01*
X024937Y019798D01*
X024720Y019708D01*
X024554Y019542D01*
X024464Y019325D01*
X024464Y019091D01*
X024554Y018874D01*
X024720Y018708D01*
X024725Y018706D01*
X024725Y016606D01*
X024061Y015942D01*
X024061Y016059D01*
X024049Y016104D01*
X024025Y016145D01*
X023991Y016179D01*
X023950Y016203D01*
X023905Y016215D01*
X023531Y016215D01*
X023531Y015685D01*
X023491Y015685D01*
X023491Y016215D01*
X023117Y016215D01*
X023071Y016203D01*
X023030Y016179D01*
X022997Y016145D01*
X022973Y016104D01*
X022961Y016059D01*
X022961Y016049D01*
X022845Y016165D01*
X022628Y016255D01*
X022394Y016255D01*
X022177Y016165D01*
X022011Y015999D01*
X022011Y015999D01*
X021887Y016123D01*
X024308Y018544D01*
X024384Y018620D01*
X024425Y018719D01*
X024425Y019665D01*
X024384Y019764D01*
X024068Y020080D01*
X023969Y020121D01*
X020617Y020121D01*
X020678Y020182D01*
X020678Y020479D01*
X020468Y020690D01*
X020170Y020690D01*
X020081Y020601D01*
X008397Y020601D01*
X008298Y020559D01*
X008222Y020484D01*
X007513Y019774D01*
X007455Y019798D01*
X007220Y019798D01*
X007004Y019708D01*
X006838Y019542D01*
X006748Y019325D01*
X006748Y019091D01*
X006838Y018874D01*
X007004Y018708D01*
X007220Y018618D01*
X007455Y018618D01*
X007672Y018708D01*
X007838Y018874D01*
X008004Y018708D01*
X008220Y018618D01*
X008455Y018618D01*
X008672Y018708D01*
X008788Y018824D01*
X008788Y018814D01*
X008800Y018769D01*
X008824Y018728D01*
X008857Y018694D01*
X008898Y018670D01*
X008944Y018658D01*
X009318Y018658D01*
X009318Y019188D01*
X009358Y019188D01*
X009358Y019228D01*
X009888Y019228D01*
X009888Y019582D01*
X010420Y019582D01*
X010381Y019542D01*
X010291Y019325D01*
X010291Y019091D01*
X010381Y018874D01*
X010547Y018708D01*
X010764Y018618D01*
X010998Y018618D01*
X011215Y018708D01*
X011381Y018874D01*
X011547Y018708D01*
X011764Y018618D01*
X011998Y018618D01*
X012215Y018708D01*
X012331Y018824D01*
X012331Y018814D01*
X012343Y018769D01*
X012367Y018728D01*
X012400Y018694D01*
X012441Y018670D01*
X012487Y018658D01*
X012861Y018658D01*
X012861Y019188D01*
X012901Y019188D01*
X012901Y018658D01*
X012990Y018658D01*
X012295Y017963D01*
X007250Y017963D01*
X007161Y018052D01*
X006864Y018052D01*
X006653Y017842D01*
X006653Y017545D01*
X006864Y017335D01*
X006871Y017335D01*
X005702Y016165D01*
X005506Y016165D01*
X005726Y016386D01*
X005802Y016462D01*
X005843Y016561D01*
X005843Y017736D01*
X005964Y017769D01*
X006230Y017922D01*
X006447Y018139D01*
X006600Y018404D01*
X006679Y018701D01*
X006679Y019007D01*
X006600Y019303D01*
X006447Y019569D01*
X006230Y019786D01*
X005964Y019939D01*
X005668Y020018D01*
X005361Y020018D01*
X005065Y019939D01*
X004800Y019786D01*
X004583Y019569D01*
X004429Y019303D01*
X004350Y019007D01*
X004350Y018701D01*
X004429Y018404D01*
X004583Y018139D01*
X004633Y018089D01*
X004522Y018114D01*
X004414Y018126D01*
X004414Y017083D01*
X004254Y017083D01*
X004254Y016923D01*
X004414Y016923D01*
X004414Y015880D01*
X004464Y015886D01*
X003427Y014849D01*
X003386Y014750D01*
X003386Y014718D01*
X003361Y014742D01*
X003297Y014769D01*
X003568Y015040D01*
X003568Y015259D01*
X003038Y015259D01*
X002508Y015259D01*
X003038Y015259D01*
X003038Y015259D01*
X003038Y015789D01*
X003038Y015259D01*
X003038Y015259D01*
X003038Y015259D01*
X003568Y015259D01*
X003568Y015479D01*
X003568Y015368D02*
X003946Y015368D01*
X003787Y015210D02*
X003568Y015210D01*
X003568Y015051D02*
X003629Y015051D01*
X003470Y014893D02*
X003421Y014893D01*
X003386Y014734D02*
X003369Y014734D01*
X002707Y014734D02*
X002337Y014734D01*
X002337Y014576D02*
X002553Y014576D01*
X002487Y014417D02*
X002337Y014417D01*
X002337Y014259D02*
X002469Y014259D01*
X002488Y014100D02*
X002337Y014100D01*
X002337Y013942D02*
X002553Y013942D01*
X002666Y013783D02*
X002337Y013783D01*
X002337Y013625D02*
X002666Y013625D01*
X002666Y013466D02*
X002337Y013466D01*
X002337Y013308D02*
X002666Y013308D01*
X002666Y013149D02*
X002337Y013149D01*
X002337Y012991D02*
X002666Y012991D01*
X002666Y012832D02*
X002337Y012832D01*
X002337Y012674D02*
X002666Y012674D01*
X002666Y012515D02*
X002337Y012515D01*
X002337Y012357D02*
X002666Y012357D01*
X002666Y012198D02*
X002337Y012198D01*
X002337Y012040D02*
X002702Y012040D01*
X002853Y011881D02*
X002337Y011881D01*
X002337Y011723D02*
X002815Y011723D01*
X002470Y011564D02*
X002337Y011564D01*
X003865Y010869D02*
X007102Y007631D01*
X007102Y007381D01*
X007013Y007292D01*
X007013Y006995D01*
X007115Y006893D01*
X006319Y006893D01*
X006205Y007007D01*
X005423Y007007D01*
X005294Y006878D01*
X005294Y006105D01*
X005305Y006095D01*
X003647Y006095D01*
X003441Y006301D01*
X003457Y006341D01*
X003457Y006481D01*
X003623Y006316D01*
X003722Y006275D01*
X003777Y006275D01*
X003867Y006186D01*
X004164Y006186D01*
X004374Y006396D01*
X004374Y006693D01*
X004164Y006903D01*
X003867Y006903D01*
X003832Y006869D01*
X003429Y007273D01*
X003457Y007341D01*
X003457Y007579D01*
X003366Y007800D01*
X003205Y007960D01*
X003366Y008120D01*
X003457Y008341D01*
X003457Y008579D01*
X003366Y008800D01*
X003205Y008960D01*
X003366Y009120D01*
X003457Y009341D01*
X003457Y009579D01*
X003366Y009800D01*
X003197Y009969D01*
X003172Y009979D01*
X004755Y009979D01*
X004913Y009821D02*
X003345Y009821D01*
X003423Y009662D02*
X005072Y009662D01*
X005230Y009504D02*
X003457Y009504D01*
X003457Y009345D02*
X005389Y009345D01*
X005547Y009187D02*
X003393Y009187D01*
X003273Y009028D02*
X005706Y009028D01*
X005864Y008870D02*
X003296Y008870D01*
X003403Y008711D02*
X006023Y008711D01*
X006181Y008553D02*
X003457Y008553D01*
X003457Y008394D02*
X006340Y008394D01*
X006498Y008236D02*
X003413Y008236D01*
X003322Y008077D02*
X006657Y008077D01*
X006815Y007919D02*
X003247Y007919D01*
X003382Y007760D02*
X006974Y007760D01*
X007102Y007602D02*
X003448Y007602D01*
X003457Y007443D02*
X007102Y007443D01*
X007013Y007285D02*
X003434Y007285D01*
X003575Y007126D02*
X007013Y007126D01*
X007041Y006968D02*
X006244Y006968D01*
X006431Y006353D02*
X007373Y006353D01*
X007373Y006156D01*
X007434Y006095D01*
X006323Y006095D01*
X006334Y006105D01*
X006334Y006260D01*
X006341Y006263D01*
X006417Y006339D01*
X006431Y006353D01*
X006411Y006334D02*
X007373Y006334D01*
X007373Y006175D02*
X006334Y006175D01*
X006278Y005555D02*
X007849Y005555D01*
X007900Y005554D01*
X007902Y005555D01*
X007905Y005555D01*
X007952Y005575D01*
X008000Y005594D01*
X008002Y005595D01*
X008004Y005596D01*
X008040Y005633D01*
X013675Y011064D01*
X013966Y011064D01*
X013966Y011008D01*
X007973Y005126D01*
X007764Y005334D01*
X007665Y005376D01*
X006604Y005376D01*
X006334Y005378D01*
X006334Y005500D01*
X006278Y005555D01*
X006293Y005541D02*
X008396Y005541D01*
X008235Y005383D02*
X006334Y005383D01*
X006334Y004839D02*
X006548Y004837D01*
X006549Y004836D01*
X006601Y004836D01*
X006654Y004836D01*
X006655Y004836D01*
X007500Y004836D01*
X007780Y004556D01*
X007816Y004519D01*
X007818Y004518D01*
X007818Y003958D01*
X007876Y003817D01*
X004846Y003817D01*
X003418Y005246D01*
X003457Y005341D01*
X003457Y005566D01*
X003482Y005555D01*
X005350Y005555D01*
X005294Y005500D01*
X005294Y004727D01*
X005423Y004599D01*
X006205Y004599D01*
X006334Y004727D01*
X006334Y004839D01*
X006334Y004749D02*
X007587Y004749D01*
X007746Y004590D02*
X004073Y004590D01*
X003915Y004749D02*
X005294Y004749D01*
X005294Y004907D02*
X003756Y004907D01*
X003598Y005066D02*
X005294Y005066D01*
X005294Y005224D02*
X003439Y005224D01*
X003457Y005383D02*
X005294Y005383D01*
X005335Y005541D02*
X003457Y005541D01*
X003567Y006175D02*
X005294Y006175D01*
X005294Y006334D02*
X004312Y006334D01*
X004374Y006492D02*
X005294Y006492D01*
X005294Y006651D02*
X004374Y006651D01*
X004258Y006809D02*
X005294Y006809D01*
X005384Y006968D02*
X003734Y006968D01*
X003605Y006334D02*
X003454Y006334D01*
X002509Y005960D02*
X002349Y005800D01*
X002337Y005772D01*
X002337Y006148D01*
X002349Y006120D01*
X002509Y005960D01*
X002453Y006017D02*
X002337Y006017D01*
X002337Y005858D02*
X002407Y005858D01*
X002337Y005148D02*
X002349Y005120D01*
X002509Y004960D01*
X002349Y004800D01*
X002337Y004772D01*
X002337Y005148D01*
X002337Y005066D02*
X002404Y005066D01*
X002456Y004907D02*
X002337Y004907D01*
X002337Y004148D02*
X002349Y004120D01*
X002509Y003960D01*
X002349Y003800D01*
X002337Y003772D01*
X002337Y004148D01*
X002337Y004115D02*
X002355Y004115D01*
X002337Y003956D02*
X002505Y003956D01*
X002348Y003798D02*
X002337Y003798D01*
X003210Y003956D02*
X003944Y003956D01*
X003786Y004115D02*
X003360Y004115D01*
X003429Y004273D02*
X003627Y004273D01*
X003469Y004432D02*
X003457Y004432D01*
X004232Y004432D02*
X007818Y004432D01*
X007818Y004518D02*
X007818Y004518D01*
X007818Y004273D02*
X004390Y004273D01*
X004549Y004115D02*
X007818Y004115D01*
X007819Y003956D02*
X004707Y003956D01*
X004103Y003798D02*
X003367Y003798D01*
X003432Y003639D02*
X004261Y003639D01*
X004420Y003481D02*
X003457Y003481D01*
X003449Y003322D02*
X004578Y003322D01*
X002464Y003005D02*
X002337Y003005D01*
X006151Y001420D02*
X008159Y001420D01*
X008317Y001262D02*
X006310Y001262D01*
X006468Y001103D02*
X008476Y001103D01*
X008634Y000945D02*
X006627Y000945D01*
X008570Y002371D02*
X014977Y002371D01*
X014913Y002213D02*
X008729Y002213D01*
X008887Y002054D02*
X014913Y002054D01*
X014913Y001896D02*
X009046Y001896D01*
X009204Y001737D02*
X014967Y001737D01*
X015033Y001579D02*
X009363Y001579D01*
X009521Y001420D02*
X015174Y001420D01*
X016535Y001180D02*
X016841Y001180D01*
X016853Y001192D01*
X017101Y001192D01*
X017101Y001746D01*
X016535Y001180D01*
X016617Y001262D02*
X017101Y001262D01*
X017101Y001420D02*
X016775Y001420D01*
X016934Y001579D02*
X017101Y001579D01*
X017092Y001737D02*
X017101Y001737D01*
X016660Y002068D02*
X016660Y002217D01*
X016527Y002538D01*
X016281Y002783D01*
X016017Y002893D01*
X016197Y002967D01*
X016366Y003136D01*
X016457Y003357D01*
X016457Y003595D01*
X016366Y003816D01*
X016213Y003968D01*
X016366Y004120D01*
X016457Y004341D01*
X016457Y004579D01*
X016425Y004656D01*
X016454Y004627D01*
X016580Y004627D01*
X017292Y003915D01*
X017292Y003523D01*
X017230Y003523D01*
X017101Y003394D01*
X017101Y002502D01*
X017118Y002486D01*
X017049Y002457D01*
X016660Y002068D01*
X016660Y002213D02*
X016805Y002213D01*
X016963Y002371D02*
X016596Y002371D01*
X016530Y002530D02*
X017101Y002530D01*
X017101Y002688D02*
X016377Y002688D01*
X016129Y002847D02*
X017101Y002847D01*
X017101Y003005D02*
X016235Y003005D01*
X016377Y003164D02*
X017101Y003164D01*
X017101Y003322D02*
X016443Y003322D01*
X016457Y003481D02*
X017188Y003481D01*
X017292Y003639D02*
X016439Y003639D01*
X016373Y003798D02*
X017292Y003798D01*
X017251Y003956D02*
X016225Y003956D01*
X016360Y004115D02*
X017093Y004115D01*
X016934Y004273D02*
X016429Y004273D01*
X016457Y004432D02*
X016776Y004432D01*
X016617Y004590D02*
X016453Y004590D01*
X016244Y004922D02*
X016205Y004960D01*
X016244Y004999D01*
X016244Y004922D01*
X016457Y005345D02*
X016457Y005579D01*
X016366Y005800D01*
X016205Y005960D01*
X016366Y006120D01*
X016457Y006341D01*
X016457Y006579D01*
X016366Y006800D01*
X016205Y006960D01*
X016366Y007120D01*
X016457Y007341D01*
X016457Y007579D01*
X016366Y007800D01*
X016205Y007960D01*
X016366Y008120D01*
X016457Y008341D01*
X016457Y008579D01*
X016435Y008633D01*
X016712Y008909D01*
X016753Y009008D01*
X016753Y009651D01*
X016756Y009695D01*
X016753Y009705D01*
X016753Y009715D01*
X016736Y009755D01*
X016722Y009797D01*
X016716Y009805D01*
X016712Y009814D01*
X016681Y009845D01*
X016509Y010044D01*
X016509Y011618D01*
X017292Y010756D01*
X017292Y010499D01*
X017191Y010499D01*
X017062Y010371D01*
X017062Y009479D01*
X017191Y009350D01*
X018003Y009350D01*
X018131Y009479D01*
X018131Y010371D01*
X018003Y010499D01*
X017832Y010499D01*
X017832Y010854D01*
X017834Y010901D01*
X017832Y010907D01*
X017832Y010914D01*
X017814Y010957D01*
X017798Y011002D01*
X017793Y011007D01*
X017791Y011013D01*
X017757Y011046D01*
X017510Y011319D01*
X018003Y011319D01*
X018131Y011447D01*
X018131Y012339D01*
X018051Y012419D01*
X018190Y012419D01*
X018279Y012508D01*
X018769Y012508D01*
X018809Y012468D01*
X018310Y012468D01*
X018182Y012339D01*
X018182Y011447D01*
X018310Y011319D01*
X019122Y011319D01*
X019251Y011447D01*
X019251Y011549D01*
X019968Y011549D01*
X020019Y011498D01*
X020019Y011062D01*
X020147Y010933D01*
X020584Y010933D01*
X020649Y010868D01*
X020649Y009530D01*
X020625Y009530D01*
X020620Y009526D01*
X020620Y009776D01*
X020492Y009904D01*
X019758Y009904D01*
X019665Y009811D01*
X019251Y009811D01*
X019251Y010371D01*
X019122Y010499D01*
X018310Y010499D01*
X018182Y010371D01*
X018182Y009479D01*
X018310Y009350D01*
X018427Y009350D01*
X017845Y008767D01*
X017191Y008767D01*
X017062Y008638D01*
X017062Y007746D01*
X017191Y007618D01*
X018003Y007618D01*
X018131Y007746D01*
X018131Y008291D01*
X018221Y008381D01*
X018221Y008270D01*
X018639Y008270D01*
X018639Y008727D01*
X018568Y008727D01*
X019112Y009272D01*
X019630Y009272D01*
X019630Y009200D01*
X019745Y009084D01*
X019739Y009081D01*
X019705Y009047D01*
X019682Y009006D01*
X019669Y008960D01*
X019669Y008758D01*
X020107Y008758D01*
X020107Y008721D01*
X020143Y008721D01*
X020143Y008363D01*
X020424Y008363D01*
X020470Y008375D01*
X020511Y008399D01*
X020545Y008432D01*
X020568Y008473D01*
X020581Y008519D01*
X020581Y008721D01*
X020143Y008721D01*
X020143Y008758D01*
X020563Y008758D01*
X020625Y008697D01*
X021022Y008697D01*
X021245Y008474D01*
X021344Y008432D01*
X022915Y008432D01*
X022955Y008337D01*
X023100Y008191D01*
X023290Y008113D01*
X023495Y008113D01*
X023685Y008191D01*
X023831Y008337D01*
X023909Y008527D01*
X023909Y008732D01*
X023831Y008922D01*
X023685Y009067D01*
X023495Y009146D01*
X023290Y009146D01*
X023100Y009067D01*
X023005Y008972D01*
X021510Y008972D01*
X021486Y008995D01*
X021486Y009402D01*
X021358Y009530D01*
X021188Y009530D01*
X021188Y011034D01*
X021147Y011133D01*
X021058Y011222D01*
X021058Y011835D01*
X020929Y011963D01*
X020317Y011963D01*
X020251Y012029D01*
X023130Y012029D01*
X023229Y012070D01*
X023305Y012146D01*
X024384Y013225D01*
X024425Y013324D01*
X024425Y015544D01*
X024464Y015583D01*
X024464Y015548D01*
X024554Y015331D01*
X024720Y015165D01*
X024937Y015075D01*
X025171Y015075D01*
X025388Y015165D01*
X025554Y015331D01*
X025554Y015331D01*
X025554Y015331D01*
X025720Y015165D01*
X025937Y015075D01*
X026171Y015075D01*
X026388Y015165D01*
X026504Y015281D01*
X026504Y015271D01*
X026516Y015225D01*
X026540Y015184D01*
X026574Y015151D01*
X026615Y015127D01*
X026660Y015115D01*
X027034Y015115D01*
X027034Y015645D01*
X027074Y015645D01*
X027074Y015685D01*
X027034Y015685D01*
X027034Y016215D01*
X026660Y016215D01*
X026615Y016203D01*
X026574Y016179D01*
X026540Y016145D01*
X026516Y016104D01*
X026504Y016059D01*
X026504Y016049D01*
X026388Y016165D01*
X026343Y016183D01*
X026343Y017184D01*
X029400Y017184D01*
X029400Y016221D01*
X029263Y016165D01*
X029097Y015999D01*
X028932Y016165D01*
X028715Y016255D01*
X028480Y016255D01*
X028263Y016165D01*
X028097Y015999D01*
X028008Y015782D01*
X028008Y015548D01*
X028097Y015331D01*
X028263Y015165D01*
X028480Y015075D01*
X028715Y015075D01*
X028932Y015165D01*
X029097Y015331D01*
X029097Y015331D01*
X029097Y015331D01*
X029263Y015165D01*
X029480Y015075D01*
X029715Y015075D01*
X029932Y015165D01*
X030047Y015281D01*
X030047Y015271D01*
X030060Y015225D01*
X030083Y015184D01*
X030117Y015151D01*
X030158Y015127D01*
X030204Y015115D01*
X030577Y015115D01*
X030577Y015645D01*
X030617Y015645D01*
X030617Y015115D01*
X030991Y015115D01*
X031037Y015127D01*
X031078Y015151D01*
X031111Y015184D01*
X031135Y015225D01*
X031147Y015271D01*
X031147Y015645D01*
X030617Y015645D01*
X030617Y015685D01*
X030577Y015685D01*
X030577Y016215D01*
X030204Y016215D01*
X030158Y016203D01*
X030117Y016179D01*
X030083Y016145D01*
X030060Y016104D01*
X030047Y016059D01*
X030047Y016049D01*
X029940Y016157D01*
X029940Y017184D01*
X032877Y017184D01*
X032877Y016194D01*
X032807Y016165D01*
X032641Y015999D01*
X032641Y015999D01*
X032641Y015999D01*
X032475Y016165D01*
X032258Y016255D01*
X032023Y016255D01*
X031807Y016165D01*
X031641Y015999D01*
X031551Y015782D01*
X031551Y015548D01*
X031641Y015331D01*
X031807Y015165D01*
X031918Y015119D01*
X031918Y014403D01*
X031959Y014304D01*
X032691Y013571D01*
X031897Y013571D01*
X031791Y013528D01*
X028777Y013528D01*
X028708Y013696D01*
X028538Y013866D01*
X028316Y013957D01*
X028076Y013957D01*
X027854Y013866D01*
X027684Y013696D01*
X027592Y013474D01*
X027592Y013234D01*
X027684Y013012D01*
X027854Y012842D01*
X028076Y012750D01*
X028316Y012750D01*
X028538Y012842D01*
X028684Y012988D01*
X031409Y012988D01*
X031409Y012840D01*
X031502Y012616D01*
X031673Y012445D01*
X031897Y012352D01*
X032920Y012352D01*
X033116Y012433D01*
X033116Y011520D01*
X032920Y011601D01*
X031897Y011601D01*
X031673Y011509D01*
X031534Y011370D01*
X023124Y011370D01*
X022966Y011528D01*
X022733Y011625D01*
X022481Y011625D01*
X022248Y011528D01*
X022070Y011350D01*
X021974Y011118D01*
X021974Y010866D01*
X022070Y010633D01*
X022248Y010455D01*
X022481Y010358D01*
X022733Y010358D01*
X022966Y010455D01*
X023144Y010633D01*
X023225Y010830D01*
X031425Y010830D01*
X031502Y010646D01*
X031673Y010475D01*
X031897Y010382D01*
X032646Y010382D01*
X032196Y009931D01*
X027219Y009931D01*
X027119Y009890D01*
X023884Y006655D01*
X023831Y006784D01*
X023685Y006930D01*
X023495Y007008D01*
X023290Y007008D01*
X023100Y006930D01*
X022955Y006784D01*
X022917Y006694D01*
X021224Y006694D01*
X021125Y006653D01*
X020652Y006180D01*
X020147Y006180D01*
X020019Y006051D01*
X020019Y005975D01*
X019712Y005975D01*
X019290Y006396D01*
X019290Y007056D01*
X019162Y007184D01*
X018350Y007184D01*
X018221Y007056D01*
X018221Y006164D01*
X018350Y006035D01*
X018888Y006035D01*
X019188Y005735D01*
X018227Y005735D01*
X018128Y005694D01*
X018008Y005574D01*
X017951Y005517D01*
X017951Y006035D01*
X018042Y006035D01*
X018171Y006164D01*
X018171Y007056D01*
X018042Y007184D01*
X017230Y007184D01*
X017101Y007056D01*
X017101Y006164D01*
X017230Y006035D01*
X017412Y006035D01*
X017412Y005492D01*
X017230Y005492D01*
X017101Y005363D01*
X017101Y004869D01*
X016962Y005009D01*
X016962Y005135D01*
X016751Y005345D01*
X016457Y005345D01*
X016457Y005383D02*
X017121Y005383D01*
X017101Y005224D02*
X016872Y005224D01*
X016962Y005066D02*
X017101Y005066D01*
X017101Y004907D02*
X017063Y004907D01*
X017412Y005541D02*
X016457Y005541D01*
X016407Y005700D02*
X017412Y005700D01*
X017412Y005858D02*
X016308Y005858D01*
X016262Y006017D02*
X017412Y006017D01*
X017101Y006175D02*
X016388Y006175D01*
X016454Y006334D02*
X017101Y006334D01*
X017101Y006492D02*
X016457Y006492D01*
X016428Y006651D02*
X017101Y006651D01*
X017101Y006809D02*
X016357Y006809D01*
X016213Y006968D02*
X017101Y006968D01*
X017172Y007126D02*
X016368Y007126D01*
X016434Y007285D02*
X024514Y007285D01*
X024672Y007443D02*
X016457Y007443D01*
X016448Y007602D02*
X024831Y007602D01*
X024989Y007760D02*
X019194Y007760D01*
X019199Y007768D02*
X019211Y007814D01*
X019211Y008115D01*
X018794Y008115D01*
X018794Y008270D01*
X019211Y008270D01*
X019211Y008571D01*
X019199Y008617D01*
X019175Y008658D01*
X019142Y008691D01*
X019101Y008715D01*
X019055Y008727D01*
X018794Y008727D01*
X018794Y008270D01*
X018639Y008270D01*
X018639Y008115D01*
X018794Y008115D01*
X018794Y007657D01*
X019055Y007657D01*
X019101Y007670D01*
X019142Y007693D01*
X019175Y007727D01*
X019199Y007768D01*
X019211Y007919D02*
X025148Y007919D01*
X025306Y008077D02*
X019211Y008077D01*
X019211Y008394D02*
X019747Y008394D01*
X019739Y008399D02*
X019780Y008375D01*
X019826Y008363D01*
X020107Y008363D01*
X020107Y008721D01*
X019669Y008721D01*
X019669Y008519D01*
X019682Y008473D01*
X019705Y008432D01*
X019739Y008399D01*
X019669Y008553D02*
X019211Y008553D01*
X019108Y008711D02*
X019669Y008711D01*
X019669Y008870D02*
X018710Y008870D01*
X018639Y008711D02*
X018794Y008711D01*
X018794Y008553D02*
X018639Y008553D01*
X018639Y008394D02*
X018794Y008394D01*
X018794Y008236D02*
X023056Y008236D01*
X022931Y008394D02*
X020503Y008394D01*
X020581Y008553D02*
X021166Y008553D01*
X021486Y009028D02*
X023061Y009028D01*
X023725Y009028D02*
X026257Y009028D01*
X026099Y008870D02*
X023852Y008870D01*
X023909Y008711D02*
X025940Y008711D01*
X025782Y008553D02*
X023909Y008553D01*
X023854Y008394D02*
X025623Y008394D01*
X025465Y008236D02*
X023729Y008236D01*
X025277Y007285D02*
X035551Y007285D01*
X035551Y007443D02*
X025435Y007443D01*
X025594Y007602D02*
X035551Y007602D01*
X035551Y007760D02*
X025752Y007760D01*
X025911Y007919D02*
X035551Y007919D01*
X035551Y008077D02*
X028440Y008077D01*
X028538Y008118D02*
X028708Y008287D01*
X028768Y008432D01*
X031847Y008432D01*
X031897Y008412D01*
X032920Y008412D01*
X033144Y008505D01*
X033315Y008676D01*
X033408Y008900D01*
X033408Y009143D01*
X033315Y009367D01*
X033144Y009539D01*
X032920Y009631D01*
X032659Y009631D01*
X033615Y010587D01*
X033656Y010687D01*
X033656Y013311D01*
X033615Y013411D01*
X033539Y013486D01*
X032457Y014568D01*
X032457Y015158D01*
X032475Y015165D01*
X032641Y015331D01*
X032641Y015331D01*
X032641Y015331D01*
X032807Y015165D01*
X033023Y015075D01*
X033258Y015075D01*
X033475Y015165D01*
X033591Y015281D01*
X033591Y015271D01*
X033603Y015225D01*
X033627Y015184D01*
X033660Y015151D01*
X033701Y015127D01*
X033747Y015115D01*
X034121Y015115D01*
X034121Y015645D01*
X034161Y015645D01*
X034161Y015115D01*
X034534Y015115D01*
X034580Y015127D01*
X034621Y015151D01*
X034645Y015175D01*
X034645Y014162D01*
X034638Y014140D01*
X034645Y014067D01*
X034645Y013995D01*
X034654Y013973D01*
X034656Y013949D01*
X034690Y013885D01*
X034718Y013818D01*
X034735Y013802D01*
X034746Y013781D01*
X034802Y013735D01*
X034853Y013683D01*
X034875Y013674D01*
X035551Y013116D01*
X035551Y001349D01*
X034939Y000791D01*
X017361Y000791D01*
X017361Y000982D01*
X017307Y001035D01*
X018042Y001035D01*
X018171Y001164D01*
X018171Y001737D01*
X018261Y001737D01*
X018261Y001687D02*
X018678Y001687D01*
X018678Y001532D01*
X018833Y001532D01*
X018833Y001075D01*
X019094Y001075D01*
X019140Y001087D01*
X019181Y001111D01*
X019215Y001144D01*
X019238Y001185D01*
X019251Y001231D01*
X019251Y001532D01*
X018833Y001532D01*
X018833Y001687D01*
X018678Y001687D01*
X018678Y002145D01*
X018579Y002145D01*
X018808Y002374D01*
X019162Y002374D01*
X019226Y002438D01*
X019630Y002438D01*
X019630Y002365D01*
X019745Y002250D01*
X019739Y002246D01*
X019705Y002212D01*
X019682Y002171D01*
X019669Y002126D01*
X019669Y001923D01*
X020107Y001923D01*
X020107Y001887D01*
X020143Y001887D01*
X020143Y001528D01*
X020424Y001528D01*
X020470Y001540D01*
X020511Y001564D01*
X020545Y001598D01*
X020568Y001639D01*
X020581Y001684D01*
X020581Y001887D01*
X020143Y001887D01*
X020143Y001923D01*
X020563Y001923D01*
X020625Y001862D01*
X021023Y001862D01*
X021245Y001640D01*
X021344Y001599D01*
X022903Y001599D01*
X022955Y001475D01*
X023100Y001329D01*
X023290Y001251D01*
X023495Y001251D01*
X023685Y001329D01*
X023831Y001475D01*
X023909Y001664D01*
X023909Y001870D01*
X023831Y002060D01*
X023685Y002205D01*
X023495Y002284D01*
X023290Y002284D01*
X023100Y002205D01*
X023034Y002139D01*
X021510Y002139D01*
X021486Y002162D01*
X021486Y002567D01*
X021358Y002696D01*
X021188Y002696D01*
X021188Y003961D01*
X021147Y004060D01*
X021058Y004149D01*
X021058Y004673D01*
X020929Y004802D01*
X020405Y004802D01*
X020371Y004836D01*
X022770Y004836D01*
X022870Y004877D01*
X022945Y004953D01*
X027384Y009392D01*
X031526Y009392D01*
X031502Y009367D01*
X031409Y009143D01*
X031409Y008972D01*
X028707Y008972D01*
X028538Y009141D01*
X028316Y009233D01*
X028076Y009233D01*
X027854Y009141D01*
X027684Y008971D01*
X027592Y008749D01*
X027592Y008509D01*
X027684Y008287D01*
X027854Y008118D01*
X028076Y008026D01*
X028316Y008026D01*
X028538Y008118D01*
X028656Y008236D02*
X035551Y008236D01*
X035551Y008394D02*
X028752Y008394D01*
X027952Y008077D02*
X026069Y008077D01*
X026228Y008236D02*
X027736Y008236D01*
X027640Y008394D02*
X026386Y008394D01*
X026545Y008553D02*
X027592Y008553D01*
X027592Y008711D02*
X026703Y008711D01*
X026862Y008870D02*
X027642Y008870D01*
X027741Y009028D02*
X027020Y009028D01*
X027179Y009187D02*
X027964Y009187D01*
X028428Y009187D02*
X031427Y009187D01*
X031409Y009028D02*
X028651Y009028D01*
X027337Y009345D02*
X031492Y009345D01*
X032244Y009979D02*
X021188Y009979D01*
X021188Y009821D02*
X027050Y009821D01*
X026891Y009662D02*
X021188Y009662D01*
X021385Y009504D02*
X026733Y009504D01*
X026574Y009345D02*
X021486Y009345D01*
X021486Y009187D02*
X026416Y009187D01*
X023201Y010772D02*
X031450Y010772D01*
X031535Y010613D02*
X023124Y010613D01*
X022965Y010455D02*
X031722Y010455D01*
X032402Y010138D02*
X021188Y010138D01*
X021188Y010296D02*
X032561Y010296D01*
X033007Y009979D02*
X035551Y009979D01*
X035551Y009821D02*
X032848Y009821D01*
X032690Y009662D02*
X035551Y009662D01*
X035551Y009504D02*
X033179Y009504D01*
X033325Y009345D02*
X035551Y009345D01*
X035551Y009187D02*
X033390Y009187D01*
X033408Y009028D02*
X035551Y009028D01*
X035551Y008870D02*
X033395Y008870D01*
X033330Y008711D02*
X035551Y008711D01*
X035551Y008553D02*
X033192Y008553D01*
X033165Y010138D02*
X035551Y010138D01*
X035551Y010296D02*
X033324Y010296D01*
X033482Y010455D02*
X035551Y010455D01*
X035551Y010613D02*
X033626Y010613D01*
X033656Y010772D02*
X035551Y010772D01*
X035551Y010930D02*
X033656Y010930D01*
X033656Y011089D02*
X035551Y011089D01*
X035551Y011247D02*
X033656Y011247D01*
X033656Y011406D02*
X035551Y011406D01*
X035551Y011564D02*
X033656Y011564D01*
X033656Y011723D02*
X035551Y011723D01*
X035551Y011881D02*
X033656Y011881D01*
X033656Y012040D02*
X035551Y012040D01*
X035551Y012198D02*
X033656Y012198D01*
X033656Y012357D02*
X035551Y012357D01*
X035551Y012515D02*
X033656Y012515D01*
X033656Y012674D02*
X035551Y012674D01*
X035551Y012832D02*
X033656Y012832D01*
X033656Y012991D02*
X035551Y012991D01*
X035510Y013149D02*
X033656Y013149D01*
X033656Y013308D02*
X035319Y013308D01*
X035127Y013466D02*
X033559Y013466D01*
X033401Y013625D02*
X034935Y013625D01*
X034744Y013783D02*
X033242Y013783D01*
X033084Y013942D02*
X034660Y013942D01*
X034642Y014100D02*
X032925Y014100D01*
X032767Y014259D02*
X034645Y014259D01*
X034645Y014417D02*
X032608Y014417D01*
X032457Y014576D02*
X034645Y014576D01*
X034645Y014734D02*
X032457Y014734D01*
X032457Y014893D02*
X034645Y014893D01*
X034645Y015051D02*
X032457Y015051D01*
X032519Y015210D02*
X032762Y015210D01*
X033519Y015210D02*
X033612Y015210D01*
X034121Y015210D02*
X034161Y015210D01*
X034161Y015368D02*
X034121Y015368D01*
X034121Y015527D02*
X034161Y015527D01*
X034161Y015685D02*
X034121Y015685D01*
X034161Y015685D01*
X034161Y016215D01*
X034534Y016215D01*
X034580Y016203D01*
X034621Y016179D01*
X034645Y016155D01*
X034645Y018718D01*
X034621Y018694D01*
X034580Y018670D01*
X034534Y018658D01*
X034161Y018658D01*
X034161Y019188D01*
X034121Y019188D01*
X034121Y018658D01*
X033747Y018658D01*
X033701Y018670D01*
X033660Y018694D01*
X033627Y018728D01*
X033603Y018769D01*
X033591Y018814D01*
X033591Y018824D01*
X033475Y018708D01*
X033416Y018684D01*
X033416Y017507D01*
X033416Y016189D01*
X033475Y016165D01*
X033591Y016049D01*
X033591Y016059D01*
X033603Y016104D01*
X033627Y016145D01*
X033660Y016179D01*
X033701Y016203D01*
X033747Y016215D01*
X034121Y016215D01*
X034121Y015685D01*
X034121Y015844D02*
X034161Y015844D01*
X034161Y016002D02*
X034121Y016002D01*
X034121Y016161D02*
X034161Y016161D01*
X034640Y016161D02*
X034645Y016161D01*
X034645Y016319D02*
X033416Y016319D01*
X033416Y016478D02*
X034645Y016478D01*
X034645Y016636D02*
X033416Y016636D01*
X033416Y016795D02*
X034645Y016795D01*
X034645Y016953D02*
X033416Y016953D01*
X033416Y017112D02*
X034645Y017112D01*
X034645Y017270D02*
X033416Y017270D01*
X033416Y017429D02*
X034645Y017429D01*
X034645Y017587D02*
X033416Y017587D01*
X033416Y017746D02*
X034645Y017746D01*
X034645Y017904D02*
X033416Y017904D01*
X033416Y018063D02*
X034645Y018063D01*
X034645Y018221D02*
X033416Y018221D01*
X033416Y018380D02*
X034645Y018380D01*
X034645Y018538D02*
X033416Y018538D01*
X033447Y018697D02*
X033658Y018697D01*
X034121Y018697D02*
X034161Y018697D01*
X034161Y018855D02*
X034121Y018855D01*
X034121Y019014D02*
X034161Y019014D01*
X034161Y019172D02*
X034121Y019172D01*
X034121Y019331D02*
X034161Y019331D01*
X034161Y019489D02*
X034121Y019489D01*
X034121Y019648D02*
X034161Y019648D01*
X034645Y019806D02*
X024342Y019806D01*
X024425Y019648D02*
X024659Y019648D01*
X024532Y019489D02*
X024425Y019489D01*
X024425Y019331D02*
X024466Y019331D01*
X024464Y019172D02*
X024425Y019172D01*
X024425Y019014D02*
X024496Y019014D01*
X024425Y018855D02*
X024573Y018855D01*
X024725Y018697D02*
X024416Y018697D01*
X024303Y018538D02*
X024725Y018538D01*
X024725Y018380D02*
X024144Y018380D01*
X023986Y018221D02*
X024725Y018221D01*
X024725Y018063D02*
X023827Y018063D01*
X023669Y017904D02*
X024725Y017904D01*
X024725Y017746D02*
X023510Y017746D01*
X023352Y017587D02*
X024725Y017587D01*
X024725Y017429D02*
X023193Y017429D01*
X023035Y017270D02*
X024725Y017270D01*
X024725Y017112D02*
X022876Y017112D01*
X022718Y016953D02*
X024725Y016953D01*
X024725Y016795D02*
X022559Y016795D01*
X022401Y016636D02*
X024725Y016636D01*
X024596Y016478D02*
X022242Y016478D01*
X022084Y016319D02*
X024437Y016319D01*
X024279Y016161D02*
X024010Y016161D01*
X024061Y016002D02*
X024120Y016002D01*
X024425Y015527D02*
X024473Y015527D01*
X024425Y015368D02*
X024539Y015368D01*
X024425Y015210D02*
X024675Y015210D01*
X024425Y015051D02*
X031918Y015051D01*
X031918Y014893D02*
X024425Y014893D01*
X024425Y014734D02*
X031918Y014734D01*
X031918Y014576D02*
X024425Y014576D01*
X024425Y014417D02*
X031918Y014417D01*
X032004Y014259D02*
X024425Y014259D01*
X024425Y014100D02*
X032162Y014100D01*
X032321Y013942D02*
X028354Y013942D01*
X028620Y013783D02*
X032479Y013783D01*
X032638Y013625D02*
X028737Y013625D01*
X028037Y013942D02*
X024425Y013942D01*
X024425Y013783D02*
X027771Y013783D01*
X027655Y013625D02*
X024425Y013625D01*
X024425Y013466D02*
X027592Y013466D01*
X027592Y013308D02*
X024418Y013308D01*
X024308Y013149D02*
X027627Y013149D01*
X027706Y012991D02*
X024150Y012991D01*
X023991Y012832D02*
X027878Y012832D01*
X028513Y012832D02*
X031412Y012832D01*
X031478Y012674D02*
X023833Y012674D01*
X023674Y012515D02*
X031603Y012515D01*
X031886Y012357D02*
X023516Y012357D01*
X023357Y012198D02*
X033116Y012198D01*
X033116Y012040D02*
X023156Y012040D01*
X022880Y011564D02*
X031807Y011564D01*
X031570Y011406D02*
X023088Y011406D01*
X022334Y011564D02*
X021058Y011564D01*
X021058Y011406D02*
X022125Y011406D01*
X022027Y011247D02*
X021058Y011247D01*
X021166Y011089D02*
X021974Y011089D01*
X021974Y010930D02*
X021188Y010930D01*
X021188Y010772D02*
X022013Y010772D01*
X022090Y010613D02*
X021188Y010613D01*
X021188Y010455D02*
X022249Y010455D01*
X020649Y010455D02*
X019167Y010455D01*
X019251Y010296D02*
X020649Y010296D01*
X020649Y010138D02*
X019251Y010138D01*
X019251Y009979D02*
X020649Y009979D01*
X020649Y009821D02*
X020575Y009821D01*
X020620Y009662D02*
X020649Y009662D01*
X019675Y009821D02*
X019251Y009821D01*
X019027Y009187D02*
X019643Y009187D01*
X019694Y009028D02*
X018869Y009028D01*
X018423Y009345D02*
X016753Y009345D01*
X016753Y009187D02*
X018264Y009187D01*
X018105Y009028D02*
X016753Y009028D01*
X016672Y008870D02*
X017947Y008870D01*
X017135Y008711D02*
X016514Y008711D01*
X016457Y008553D02*
X017062Y008553D01*
X017062Y008394D02*
X016457Y008394D01*
X016413Y008236D02*
X017062Y008236D01*
X017062Y008077D02*
X016322Y008077D01*
X016247Y007919D02*
X017062Y007919D01*
X017062Y007760D02*
X016382Y007760D01*
X018100Y007126D02*
X018291Y007126D01*
X018221Y006968D02*
X018171Y006968D01*
X018171Y006809D02*
X018221Y006809D01*
X018221Y006651D02*
X018171Y006651D01*
X018171Y006492D02*
X018221Y006492D01*
X018221Y006334D02*
X018171Y006334D01*
X018171Y006175D02*
X018221Y006175D01*
X017951Y006017D02*
X018907Y006017D01*
X019065Y005858D02*
X017951Y005858D01*
X017951Y005700D02*
X018141Y005700D01*
X017975Y005541D02*
X017951Y005541D01*
X019353Y006334D02*
X020806Y006334D01*
X020964Y006492D02*
X019290Y006492D01*
X019290Y006651D02*
X021123Y006651D01*
X021390Y006155D02*
X022999Y006155D01*
X023100Y006054D01*
X023229Y006000D01*
X022605Y005376D01*
X021058Y005376D01*
X021058Y005823D01*
X021390Y006155D01*
X021252Y006017D02*
X023190Y006017D01*
X023087Y005858D02*
X021093Y005858D01*
X021058Y005700D02*
X022929Y005700D01*
X022770Y005541D02*
X021058Y005541D01*
X021058Y005383D02*
X022612Y005383D01*
X023058Y005066D02*
X035551Y005066D01*
X035551Y005224D02*
X023216Y005224D01*
X023375Y005383D02*
X035551Y005383D01*
X035551Y005541D02*
X033044Y005541D01*
X033144Y005582D02*
X033315Y005754D01*
X033408Y005978D01*
X033408Y006221D01*
X033315Y006445D01*
X033144Y006616D01*
X032920Y006709D01*
X031897Y006709D01*
X031861Y006694D01*
X028765Y006694D01*
X028708Y006834D01*
X028538Y007003D01*
X028316Y007095D01*
X028076Y007095D01*
X027854Y007003D01*
X027684Y006834D01*
X027592Y006612D01*
X027592Y006372D01*
X027684Y006150D01*
X027854Y005980D01*
X028076Y005888D01*
X028316Y005888D01*
X028538Y005980D01*
X028708Y006150D01*
X028710Y006155D01*
X031409Y006155D01*
X031409Y005978D01*
X031502Y005754D01*
X031673Y005582D01*
X031897Y005490D01*
X032920Y005490D01*
X033144Y005582D01*
X033261Y005700D02*
X035551Y005700D01*
X035551Y005858D02*
X033358Y005858D01*
X033408Y006017D02*
X035551Y006017D01*
X035551Y006175D02*
X033408Y006175D01*
X033361Y006334D02*
X035551Y006334D01*
X035551Y006492D02*
X033268Y006492D01*
X033061Y006651D02*
X035551Y006651D01*
X035551Y006809D02*
X028718Y006809D01*
X028574Y006968D02*
X035551Y006968D01*
X035551Y007126D02*
X025118Y007126D01*
X024960Y006968D02*
X027818Y006968D01*
X027674Y006809D02*
X024801Y006809D01*
X024643Y006651D02*
X027608Y006651D01*
X027592Y006492D02*
X024484Y006492D01*
X024326Y006334D02*
X027608Y006334D01*
X027674Y006175D02*
X024167Y006175D01*
X024009Y006017D02*
X027817Y006017D01*
X028574Y006017D02*
X031409Y006017D01*
X031458Y005858D02*
X023850Y005858D01*
X023692Y005700D02*
X031556Y005700D01*
X031773Y005541D02*
X023533Y005541D01*
X022899Y004907D02*
X035551Y004907D01*
X035551Y004749D02*
X022767Y004749D01*
X022733Y004763D02*
X022481Y004763D01*
X022248Y004666D01*
X022070Y004488D01*
X021974Y004255D01*
X021974Y004003D01*
X022070Y003771D01*
X022248Y003593D01*
X022481Y003496D01*
X022733Y003496D01*
X022966Y003593D01*
X023144Y003771D01*
X023188Y003877D01*
X031463Y003877D01*
X031502Y003784D01*
X031673Y003612D01*
X031897Y003520D01*
X032920Y003520D01*
X033144Y003612D01*
X033315Y003784D01*
X033408Y004008D01*
X033408Y004251D01*
X033315Y004475D01*
X033144Y004646D01*
X032920Y004739D01*
X031897Y004739D01*
X031673Y004646D01*
X031502Y004475D01*
X031477Y004417D01*
X023173Y004417D01*
X023144Y004488D01*
X022966Y004666D01*
X022733Y004763D01*
X022447Y004749D02*
X020983Y004749D01*
X021058Y004590D02*
X022172Y004590D01*
X022047Y004432D02*
X021058Y004432D01*
X021058Y004273D02*
X021981Y004273D01*
X021974Y004115D02*
X021092Y004115D01*
X021188Y003956D02*
X021993Y003956D01*
X022059Y003798D02*
X021188Y003798D01*
X021188Y003639D02*
X022202Y003639D01*
X023012Y003639D02*
X031647Y003639D01*
X031496Y003798D02*
X023155Y003798D01*
X023167Y004432D02*
X031484Y004432D01*
X031617Y004590D02*
X023042Y004590D01*
X021188Y003481D02*
X035551Y003481D01*
X035551Y003639D02*
X033170Y003639D01*
X033321Y003798D02*
X035551Y003798D01*
X035551Y003956D02*
X033387Y003956D01*
X033408Y004115D02*
X035551Y004115D01*
X035551Y004273D02*
X033399Y004273D01*
X033333Y004432D02*
X035551Y004432D01*
X035551Y004590D02*
X033200Y004590D01*
X035551Y003322D02*
X021188Y003322D01*
X021188Y003164D02*
X035551Y003164D01*
X035551Y003005D02*
X021188Y003005D01*
X021188Y002847D02*
X035551Y002847D01*
X035551Y002688D02*
X033116Y002688D01*
X033144Y002676D02*
X032920Y002769D01*
X031897Y002769D01*
X031673Y002676D01*
X031502Y002505D01*
X031409Y002281D01*
X031409Y002139D01*
X028678Y002139D01*
X028538Y002279D01*
X028316Y002371D01*
X028076Y002371D01*
X027854Y002279D01*
X027684Y002109D01*
X027592Y001887D01*
X027592Y001647D01*
X027684Y001425D01*
X027854Y001255D01*
X028076Y001164D01*
X028316Y001164D01*
X028538Y001255D01*
X028708Y001425D01*
X028780Y001599D01*
X031778Y001599D01*
X031897Y001550D01*
X032920Y001550D01*
X033144Y001642D01*
X033315Y001814D01*
X033408Y002038D01*
X033408Y002281D01*
X033315Y002505D01*
X033144Y002676D01*
X033291Y002530D02*
X035551Y002530D01*
X035551Y002371D02*
X033371Y002371D01*
X033408Y002213D02*
X035551Y002213D01*
X035551Y002054D02*
X033408Y002054D01*
X033349Y001896D02*
X035551Y001896D01*
X035551Y001737D02*
X033238Y001737D01*
X032989Y001579D02*
X035551Y001579D01*
X035551Y001420D02*
X028702Y001420D01*
X028771Y001579D02*
X031827Y001579D01*
X031409Y002213D02*
X028604Y002213D01*
X027788Y002213D02*
X023668Y002213D01*
X023833Y002054D02*
X027661Y002054D01*
X027596Y001896D02*
X023899Y001896D01*
X023909Y001737D02*
X027592Y001737D01*
X027621Y001579D02*
X023874Y001579D01*
X023776Y001420D02*
X027689Y001420D01*
X027848Y001262D02*
X023522Y001262D01*
X023264Y001262D02*
X019251Y001262D01*
X019251Y001420D02*
X023009Y001420D01*
X022912Y001579D02*
X020526Y001579D01*
X020581Y001737D02*
X021148Y001737D01*
X020591Y001896D02*
X020143Y001896D01*
X020107Y001896D02*
X019251Y001896D01*
X019251Y001988D02*
X019251Y001687D01*
X018833Y001687D01*
X018833Y002145D01*
X019094Y002145D01*
X019140Y002132D01*
X019181Y002109D01*
X019215Y002075D01*
X019238Y002034D01*
X019251Y001988D01*
X019227Y002054D02*
X019669Y002054D01*
X019706Y002213D02*
X018646Y002213D01*
X018678Y002054D02*
X018833Y002054D01*
X018833Y001896D02*
X018678Y001896D01*
X018678Y001737D02*
X018833Y001737D01*
X018833Y001579D02*
X019724Y001579D01*
X019739Y001564D02*
X019780Y001540D01*
X019826Y001528D01*
X020107Y001528D01*
X020107Y001887D01*
X019669Y001887D01*
X019669Y001684D01*
X019682Y001639D01*
X019705Y001598D01*
X019739Y001564D01*
X019669Y001737D02*
X019251Y001737D01*
X018833Y001420D02*
X018678Y001420D01*
X018678Y001532D02*
X018678Y001075D01*
X018417Y001075D01*
X018371Y001087D01*
X018330Y001111D01*
X018297Y001144D01*
X018273Y001185D01*
X018261Y001231D01*
X018261Y001532D01*
X018678Y001532D01*
X018678Y001579D02*
X018171Y001579D01*
X018261Y001687D02*
X018261Y001827D01*
X018171Y001737D01*
X018171Y001420D02*
X018261Y001420D01*
X018261Y001262D02*
X018171Y001262D01*
X018110Y001103D02*
X018344Y001103D01*
X018678Y001103D02*
X018833Y001103D01*
X018833Y001262D02*
X018678Y001262D01*
X019168Y001103D02*
X035281Y001103D01*
X035108Y000945D02*
X017361Y000945D01*
X018805Y002371D02*
X019630Y002371D01*
X020620Y002691D02*
X020620Y002941D01*
X020492Y003070D01*
X019758Y003070D01*
X019667Y002978D01*
X019290Y002978D01*
X019290Y003394D01*
X019162Y003523D01*
X018431Y003523D01*
X018431Y004342D01*
X019162Y004342D01*
X019290Y004471D01*
X019290Y004596D01*
X019848Y004596D01*
X020019Y004425D01*
X020019Y003901D01*
X020147Y003772D01*
X020649Y003772D01*
X020649Y002696D01*
X020625Y002696D01*
X020620Y002691D01*
X020620Y002847D02*
X020649Y002847D01*
X020649Y003005D02*
X020556Y003005D01*
X020649Y003164D02*
X019290Y003164D01*
X019290Y003322D02*
X020649Y003322D01*
X020649Y003481D02*
X019204Y003481D01*
X018431Y003798D02*
X020122Y003798D01*
X020019Y003956D02*
X018431Y003956D01*
X018431Y004115D02*
X020019Y004115D01*
X020019Y004273D02*
X018431Y004273D01*
X017891Y004273D02*
X017697Y004273D01*
X017628Y004342D02*
X017891Y004342D01*
X017891Y003523D01*
X017832Y003523D01*
X017832Y004081D01*
X017791Y004180D01*
X017628Y004342D01*
X017817Y004115D02*
X017891Y004115D01*
X017891Y003956D02*
X017832Y003956D01*
X017832Y003798D02*
X017891Y003798D01*
X017891Y003639D02*
X017832Y003639D01*
X018431Y003639D02*
X020649Y003639D01*
X019694Y003005D02*
X019290Y003005D01*
X020107Y001737D02*
X020143Y001737D01*
X020143Y001579D02*
X020107Y001579D01*
X021486Y002213D02*
X023118Y002213D01*
X021486Y002371D02*
X031446Y002371D01*
X031526Y002530D02*
X021486Y002530D01*
X021365Y002688D02*
X031701Y002688D01*
X028544Y001262D02*
X035455Y001262D01*
X024355Y007126D02*
X019220Y007126D01*
X019290Y006968D02*
X023192Y006968D01*
X022980Y006809D02*
X019290Y006809D01*
X019511Y006175D02*
X020142Y006175D01*
X020019Y006017D02*
X019670Y006017D01*
X019652Y005435D02*
X019653Y005435D01*
X020019Y005435D01*
X020019Y005376D01*
X019712Y005376D01*
X019652Y005435D01*
X019705Y005383D02*
X020019Y005383D01*
X019854Y004590D02*
X019290Y004590D01*
X019251Y004432D02*
X020012Y004432D01*
X023806Y006809D02*
X024038Y006809D01*
X024197Y006968D02*
X023594Y006968D01*
X020611Y008711D02*
X020581Y008711D01*
X020143Y008711D02*
X020107Y008711D01*
X020107Y008553D02*
X020143Y008553D01*
X020143Y008394D02*
X020107Y008394D01*
X018794Y008077D02*
X018639Y008077D01*
X018639Y008115D02*
X018639Y007657D01*
X018378Y007657D01*
X018332Y007670D01*
X018291Y007693D01*
X018257Y007727D01*
X018234Y007768D01*
X018221Y007814D01*
X018221Y008115D01*
X018639Y008115D01*
X018639Y008236D02*
X018131Y008236D01*
X018131Y008077D02*
X018221Y008077D01*
X018221Y007919D02*
X018131Y007919D01*
X018131Y007760D02*
X018238Y007760D01*
X018639Y007760D02*
X018794Y007760D01*
X018794Y007919D02*
X018639Y007919D01*
X018182Y009504D02*
X018131Y009504D01*
X018131Y009662D02*
X018182Y009662D01*
X018182Y009821D02*
X018131Y009821D01*
X018131Y009979D02*
X018182Y009979D01*
X018182Y010138D02*
X018131Y010138D01*
X018131Y010296D02*
X018182Y010296D01*
X018266Y010455D02*
X018047Y010455D01*
X017832Y010613D02*
X020649Y010613D01*
X020649Y010772D02*
X017832Y010772D01*
X017825Y010930D02*
X020587Y010930D01*
X020019Y011089D02*
X017719Y011089D01*
X017575Y011247D02*
X020019Y011247D01*
X020019Y011406D02*
X019209Y011406D01*
X018223Y011406D02*
X018090Y011406D01*
X018131Y011564D02*
X018182Y011564D01*
X018182Y011723D02*
X018131Y011723D01*
X018131Y011881D02*
X018182Y011881D01*
X018182Y012040D02*
X018131Y012040D01*
X018131Y012198D02*
X018182Y012198D01*
X018199Y012357D02*
X018114Y012357D01*
X017844Y012468D02*
X017832Y012468D01*
X017832Y012481D01*
X017844Y012468D01*
X017292Y012468D02*
X017292Y013011D01*
X017191Y013011D01*
X017062Y013140D01*
X017062Y013695D01*
X016992Y013626D01*
X016992Y012536D01*
X017081Y012447D01*
X017081Y012359D01*
X017191Y012468D01*
X017292Y012468D01*
X017292Y012515D02*
X017014Y012515D01*
X016992Y012674D02*
X017292Y012674D01*
X017292Y012832D02*
X016992Y012832D01*
X016992Y012991D02*
X017292Y012991D01*
X017062Y013149D02*
X016992Y013149D01*
X016992Y013308D02*
X017062Y013308D01*
X017062Y013466D02*
X016992Y013466D01*
X016992Y013625D02*
X017062Y013625D01*
X016670Y014067D02*
X016670Y014361D01*
X017052Y014831D01*
X017052Y014448D01*
X016670Y014067D01*
X016670Y014100D02*
X016704Y014100D01*
X016670Y014259D02*
X016862Y014259D01*
X016716Y014417D02*
X017021Y014417D01*
X017052Y014576D02*
X016845Y014576D01*
X016974Y014734D02*
X017052Y014734D01*
X017592Y014734D02*
X018611Y014734D01*
X018611Y014576D02*
X017592Y014576D01*
X017592Y014417D02*
X018611Y014417D01*
X018611Y014259D02*
X017582Y014259D01*
X017592Y014283D02*
X017592Y015207D01*
X017633Y015165D01*
X017850Y015075D01*
X018085Y015075D01*
X018302Y015165D01*
X018467Y015331D01*
X018468Y015331D01*
X018468Y015331D01*
X018611Y015188D01*
X018611Y014161D01*
X018310Y014161D01*
X018182Y014032D01*
X018182Y013140D01*
X018185Y013137D01*
X018128Y013137D01*
X018131Y013140D01*
X018131Y014032D01*
X018003Y014161D01*
X017528Y014161D01*
X017551Y014184D01*
X017592Y014283D01*
X018063Y014100D02*
X018250Y014100D01*
X018182Y013942D02*
X018131Y013942D01*
X018131Y013783D02*
X018182Y013783D01*
X018182Y013625D02*
X018131Y013625D01*
X018131Y013466D02*
X018182Y013466D01*
X018182Y013308D02*
X018131Y013308D01*
X018131Y013149D02*
X018182Y013149D01*
X019251Y013389D02*
X019472Y013168D01*
X020019Y013168D01*
X020019Y013213D01*
X020147Y013341D01*
X020929Y013341D01*
X021058Y013213D01*
X021058Y013168D01*
X022845Y013168D01*
X022891Y013214D01*
X022876Y013251D01*
X022876Y013457D01*
X022955Y013646D01*
X023046Y013738D01*
X023046Y014704D01*
X022662Y015089D01*
X022628Y015075D01*
X022394Y015075D01*
X022177Y015165D01*
X022011Y015331D01*
X022011Y015331D01*
X022011Y015331D01*
X021845Y015165D01*
X021628Y015075D01*
X021394Y015075D01*
X021177Y015165D01*
X021011Y015331D01*
X020921Y015548D01*
X020921Y015782D01*
X021011Y015999D01*
X021177Y016165D01*
X021251Y016196D01*
X021289Y016288D01*
X023660Y018658D01*
X023531Y018658D01*
X023531Y019188D01*
X023491Y019188D01*
X023491Y018658D01*
X023117Y018658D01*
X023071Y018670D01*
X023030Y018694D01*
X022997Y018728D01*
X022973Y018769D01*
X022961Y018814D01*
X022961Y018824D01*
X022845Y018708D01*
X022628Y018618D01*
X022394Y018618D01*
X022177Y018708D01*
X022011Y018874D01*
X022011Y018874D01*
X022011Y018874D01*
X021845Y018708D01*
X021628Y018618D01*
X021394Y018618D01*
X021177Y018708D01*
X021026Y018858D01*
X018317Y016149D01*
X018467Y015999D01*
X018468Y015999D01*
X018468Y015999D01*
X018633Y016165D01*
X018850Y016255D01*
X019085Y016255D01*
X019302Y016165D01*
X019418Y016049D01*
X019418Y016059D01*
X019430Y016104D01*
X019453Y016145D01*
X019487Y016179D01*
X019528Y016203D01*
X019574Y016215D01*
X019948Y016215D01*
X019948Y015685D01*
X019988Y015685D01*
X020518Y015685D01*
X020921Y015685D01*
X020930Y015527D02*
X020518Y015527D01*
X020518Y015645D02*
X019988Y015645D01*
X019988Y015685D01*
X019948Y015685D01*
X019988Y015685D02*
X019988Y016215D01*
X020361Y016215D01*
X020407Y016203D01*
X020448Y016179D01*
X020482Y016145D01*
X020505Y016104D01*
X020518Y016059D01*
X020518Y015685D01*
X020518Y015645D02*
X020518Y015271D01*
X020505Y015225D01*
X020482Y015184D01*
X020448Y015151D01*
X020407Y015127D01*
X020361Y015115D01*
X019988Y015115D01*
X019988Y015645D01*
X019948Y015645D01*
X019948Y015115D01*
X019574Y015115D01*
X019528Y015127D01*
X019487Y015151D01*
X019453Y015184D01*
X019430Y015225D01*
X019418Y015271D01*
X019418Y015281D01*
X019302Y015165D01*
X019150Y015102D01*
X019150Y014133D01*
X019251Y014032D01*
X019251Y013389D01*
X019251Y013466D02*
X022880Y013466D01*
X022876Y013308D02*
X020963Y013308D01*
X020114Y013308D02*
X019332Y013308D01*
X019251Y013625D02*
X022946Y013625D01*
X023046Y013783D02*
X019251Y013783D01*
X019251Y013942D02*
X023046Y013942D01*
X023046Y014100D02*
X019183Y014100D01*
X019150Y014259D02*
X023046Y014259D01*
X023046Y014417D02*
X019150Y014417D01*
X019150Y014576D02*
X023046Y014576D01*
X023017Y014734D02*
X019150Y014734D01*
X019150Y014893D02*
X022858Y014893D01*
X022700Y015051D02*
X019150Y015051D01*
X019346Y015210D02*
X019439Y015210D01*
X019948Y015210D02*
X019988Y015210D01*
X019988Y015368D02*
X019948Y015368D01*
X019948Y015527D02*
X019988Y015527D01*
X019988Y015844D02*
X019948Y015844D01*
X019948Y016002D02*
X019988Y016002D01*
X019988Y016161D02*
X019948Y016161D01*
X020466Y016161D02*
X021172Y016161D01*
X021321Y016319D02*
X018487Y016319D01*
X018629Y016161D02*
X018329Y016161D01*
X018464Y016002D02*
X018471Y016002D01*
X018646Y016478D02*
X021479Y016478D01*
X021638Y016636D02*
X018804Y016636D01*
X018963Y016795D02*
X021796Y016795D01*
X021955Y016953D02*
X019121Y016953D01*
X019280Y017112D02*
X022113Y017112D01*
X022272Y017270D02*
X019438Y017270D01*
X019597Y017429D02*
X022430Y017429D01*
X022589Y017587D02*
X019755Y017587D01*
X019914Y017746D02*
X022747Y017746D01*
X022906Y017904D02*
X020072Y017904D01*
X020231Y018063D02*
X023064Y018063D01*
X023223Y018221D02*
X020389Y018221D01*
X020548Y018380D02*
X023381Y018380D01*
X023540Y018538D02*
X020706Y018538D01*
X020865Y018697D02*
X021205Y018697D01*
X021030Y018855D02*
X021023Y018855D01*
X020577Y019172D02*
X020518Y019172D01*
X020518Y019188D02*
X020518Y019112D01*
X020766Y019361D01*
X020865Y019402D01*
X020953Y019402D01*
X021011Y019542D01*
X021050Y019582D01*
X020518Y019582D01*
X020518Y019228D01*
X019988Y019228D01*
X019988Y019188D01*
X020518Y019188D01*
X020518Y019331D02*
X020736Y019331D01*
X020518Y019489D02*
X020989Y019489D01*
X019988Y019188D02*
X019988Y018658D01*
X020063Y018658D01*
X017930Y016525D01*
X017628Y016525D01*
X017529Y016484D01*
X017317Y016272D01*
X017311Y016288D01*
X017191Y016408D01*
X017115Y016484D01*
X017016Y016525D01*
X015696Y016525D01*
X017807Y018636D01*
X017850Y018618D01*
X018085Y018618D01*
X018302Y018708D01*
X018467Y018874D01*
X018468Y018874D01*
X018633Y018708D01*
X018850Y018618D01*
X019085Y018618D01*
X019302Y018708D01*
X019418Y018824D01*
X019418Y018814D01*
X019430Y018769D01*
X019453Y018728D01*
X019487Y018694D01*
X019528Y018670D01*
X019574Y018658D01*
X019948Y018658D01*
X019948Y019188D01*
X019988Y019188D01*
X019988Y019172D02*
X019948Y019172D01*
X019948Y019014D02*
X019988Y019014D01*
X019988Y018855D02*
X019948Y018855D01*
X019948Y018697D02*
X019988Y018697D01*
X019943Y018538D02*
X017709Y018538D01*
X017551Y018380D02*
X019785Y018380D01*
X019626Y018221D02*
X017392Y018221D01*
X017234Y018063D02*
X019468Y018063D01*
X019309Y017904D02*
X017075Y017904D01*
X016917Y017746D02*
X019151Y017746D01*
X018992Y017587D02*
X016758Y017587D01*
X016600Y017429D02*
X018834Y017429D01*
X018675Y017270D02*
X016441Y017270D01*
X016283Y017112D02*
X018517Y017112D01*
X018358Y016953D02*
X016124Y016953D01*
X015966Y016795D02*
X018200Y016795D01*
X018041Y016636D02*
X015807Y016636D01*
X015361Y016953D02*
X009169Y016953D01*
X009169Y017112D02*
X015520Y017112D01*
X015203Y016795D02*
X009138Y016795D01*
X008980Y016636D02*
X013845Y016636D01*
X013687Y016478D02*
X007736Y016478D01*
X007895Y016636D02*
X008641Y016636D01*
X008676Y016161D02*
X008839Y016161D01*
X009318Y016161D02*
X009358Y016161D01*
X009358Y016002D02*
X009318Y016002D01*
X009318Y015844D02*
X009358Y015844D01*
X009358Y015685D02*
X009318Y015685D01*
X008639Y014966D02*
X008508Y015097D01*
X008455Y015075D01*
X008220Y015075D01*
X008004Y015165D01*
X007838Y015331D01*
X007838Y015331D01*
X007838Y015331D01*
X007672Y015165D01*
X007455Y015075D01*
X007220Y015075D01*
X007004Y015165D01*
X006838Y015331D01*
X006765Y015506D01*
X006323Y015064D01*
X006323Y014994D01*
X006384Y015055D01*
X006681Y015055D01*
X006770Y014966D01*
X008639Y014966D01*
X008554Y015051D02*
X006685Y015051D01*
X006468Y015210D02*
X006959Y015210D01*
X006822Y015368D02*
X006627Y015368D01*
X006380Y015051D02*
X006323Y015051D01*
X005931Y015435D02*
X005931Y015479D01*
X005784Y015625D01*
X005867Y015625D01*
X005966Y015666D01*
X006042Y015742D01*
X007484Y017184D01*
X007680Y017184D01*
X005931Y015435D01*
X005883Y015527D02*
X006022Y015527D01*
X005985Y015685D02*
X006181Y015685D01*
X006143Y015844D02*
X006339Y015844D01*
X006302Y016002D02*
X006498Y016002D01*
X006460Y016161D02*
X006656Y016161D01*
X006619Y016319D02*
X006815Y016319D01*
X006777Y016478D02*
X006973Y016478D01*
X006936Y016636D02*
X007132Y016636D01*
X007094Y016795D02*
X007290Y016795D01*
X007253Y016953D02*
X007449Y016953D01*
X007411Y017112D02*
X007607Y017112D01*
X007578Y016319D02*
X013528Y016319D01*
X014758Y015165D02*
X014924Y015331D01*
X014924Y015331D01*
X014924Y015331D01*
X015090Y015165D01*
X015307Y015075D01*
X015542Y015075D01*
X015758Y015165D01*
X015874Y015281D01*
X015874Y015271D01*
X015886Y015225D01*
X015910Y015184D01*
X015944Y015151D01*
X015985Y015127D01*
X016031Y015115D01*
X016404Y015115D01*
X016404Y015645D01*
X016444Y015645D01*
X016444Y015115D01*
X016588Y015115D01*
X016200Y014637D01*
X016172Y014609D01*
X016166Y014596D01*
X016157Y014585D01*
X016146Y014547D01*
X016131Y014510D01*
X016131Y014496D01*
X016127Y014482D01*
X016131Y014443D01*
X016131Y013251D01*
X014715Y014574D01*
X014715Y015147D01*
X014758Y015165D01*
X014803Y015210D02*
X015045Y015210D01*
X014715Y015051D02*
X016536Y015051D01*
X016444Y015210D02*
X016404Y015210D01*
X016404Y015368D02*
X016444Y015368D01*
X016444Y015527D02*
X016404Y015527D01*
X015896Y015210D02*
X015803Y015210D01*
X016278Y014734D02*
X014715Y014734D01*
X014715Y014576D02*
X016155Y014576D01*
X016131Y014417D02*
X014882Y014417D01*
X015052Y014259D02*
X016131Y014259D01*
X016131Y014100D02*
X015222Y014100D01*
X015391Y013942D02*
X016131Y013942D01*
X016131Y013783D02*
X015561Y013783D01*
X015731Y013625D02*
X016131Y013625D01*
X016131Y013466D02*
X015900Y013466D01*
X016070Y013308D02*
X016131Y013308D01*
X015046Y013004D02*
X014988Y013022D01*
X014901Y013036D01*
X014876Y013036D01*
X014876Y012494D01*
X014839Y012494D01*
X014839Y012515D02*
X014876Y012515D01*
X014876Y012674D02*
X014839Y012674D01*
X014839Y012832D02*
X014876Y012832D01*
X014876Y012991D02*
X014839Y012991D01*
X014891Y013149D02*
X013036Y013149D01*
X013036Y013308D02*
X014724Y013308D01*
X014556Y013466D02*
X012940Y013466D01*
X012781Y013625D02*
X014388Y013625D01*
X014220Y013783D02*
X012623Y013783D01*
X012464Y013942D02*
X014052Y013942D01*
X013884Y014100D02*
X012306Y014100D01*
X012197Y014259D02*
X013716Y014259D01*
X013548Y014417D02*
X012197Y014417D01*
X012260Y015210D02*
X012352Y015210D01*
X013381Y014575D02*
X013418Y014540D01*
X013453Y014505D01*
X013457Y014504D01*
X015046Y013004D01*
X014634Y012991D02*
X014081Y012991D01*
X013876Y012991D02*
X013839Y012991D01*
X013839Y012832D02*
X013876Y012832D01*
X013876Y012674D02*
X013839Y012674D01*
X013839Y012515D02*
X013876Y012515D01*
X014291Y012832D02*
X014424Y012832D01*
X014370Y012198D02*
X014344Y012198D01*
X014465Y012040D02*
X014505Y012040D01*
X015612Y011564D02*
X015970Y011564D01*
X015831Y011723D02*
X015770Y011723D01*
X016509Y011564D02*
X016559Y011564D01*
X016509Y011406D02*
X016702Y011406D01*
X016846Y011247D02*
X016509Y011247D01*
X016509Y011089D02*
X016990Y011089D01*
X017134Y010930D02*
X016509Y010930D01*
X016509Y010772D02*
X017278Y010772D01*
X017292Y010613D02*
X016509Y010613D01*
X016509Y010455D02*
X017146Y010455D01*
X017062Y010296D02*
X016509Y010296D01*
X016509Y010138D02*
X017062Y010138D01*
X017062Y009979D02*
X016565Y009979D01*
X016705Y009821D02*
X017062Y009821D01*
X017062Y009662D02*
X016753Y009662D01*
X016753Y009504D02*
X017062Y009504D01*
X015509Y008960D02*
X015349Y008800D01*
X015309Y008705D01*
X015193Y008821D01*
X015185Y008821D01*
X015417Y009053D01*
X015509Y008960D01*
X015441Y009028D02*
X015392Y009028D01*
X015418Y008870D02*
X015233Y008870D01*
X015303Y008711D02*
X015312Y008711D01*
X014764Y008236D02*
X014599Y008236D01*
X012434Y009504D02*
X012056Y009504D01*
X012220Y009662D02*
X012595Y009662D01*
X012757Y009821D02*
X012385Y009821D01*
X012549Y009979D02*
X012918Y009979D01*
X013080Y010138D02*
X012714Y010138D01*
X012878Y010296D02*
X013241Y010296D01*
X013403Y010455D02*
X013043Y010455D01*
X013207Y010613D02*
X013564Y010613D01*
X013726Y010772D02*
X013371Y010772D01*
X013536Y010930D02*
X013887Y010930D01*
X013087Y011247D02*
X009891Y011247D01*
X010109Y011089D02*
X012923Y011089D01*
X012758Y010930D02*
X010257Y010930D01*
X010348Y010772D02*
X012594Y010772D01*
X012430Y010613D02*
X010413Y010613D01*
X010456Y010455D02*
X012265Y010455D01*
X012101Y010296D02*
X010468Y010296D01*
X010468Y010138D02*
X011936Y010138D01*
X011772Y009979D02*
X010432Y009979D01*
X010388Y009821D02*
X011607Y009821D01*
X011443Y009662D02*
X010296Y009662D01*
X010177Y009504D02*
X011279Y009504D01*
X011114Y009345D02*
X010010Y009345D01*
X009691Y009187D02*
X010950Y009187D01*
X010785Y009028D02*
X008361Y009028D01*
X008361Y008870D02*
X010621Y008870D01*
X010456Y008711D02*
X008361Y008711D01*
X008361Y008553D02*
X010292Y008553D01*
X010128Y008394D02*
X008361Y008394D01*
X008361Y008236D02*
X009963Y008236D01*
X009799Y008077D02*
X008361Y008077D01*
X008361Y007919D02*
X009634Y007919D01*
X009470Y007760D02*
X008361Y007760D01*
X008361Y007602D02*
X009306Y007602D01*
X009141Y007443D02*
X008361Y007443D01*
X008361Y007285D02*
X008977Y007285D01*
X008812Y007126D02*
X008361Y007126D01*
X008361Y006968D02*
X008648Y006968D01*
X008483Y006809D02*
X008344Y006809D01*
X008319Y006651D02*
X008219Y006651D01*
X008155Y006492D02*
X008061Y006492D01*
X008603Y006175D02*
X009042Y006175D01*
X008881Y006017D02*
X008439Y006017D01*
X008274Y005858D02*
X008719Y005858D01*
X008558Y005700D02*
X008110Y005700D01*
X008073Y005224D02*
X007875Y005224D01*
X008857Y004273D02*
X008858Y004273D01*
X008857Y004115D02*
X008858Y004115D01*
X008856Y003956D02*
X008868Y003956D01*
X009807Y003956D02*
X009819Y003956D01*
X009818Y004115D02*
X009818Y004115D01*
X008095Y002847D02*
X015444Y002847D01*
X015480Y003005D02*
X007936Y003005D01*
X008253Y002688D02*
X015196Y002688D01*
X015042Y002530D02*
X008412Y002530D01*
X008768Y006334D02*
X009204Y006334D01*
X009365Y006492D02*
X008932Y006492D01*
X009096Y006651D02*
X009527Y006651D01*
X009688Y006809D02*
X009261Y006809D01*
X009425Y006968D02*
X009850Y006968D01*
X010011Y007126D02*
X009590Y007126D01*
X009754Y007285D02*
X010173Y007285D01*
X010334Y007443D02*
X009918Y007443D01*
X010083Y007602D02*
X010496Y007602D01*
X010657Y007760D02*
X010247Y007760D01*
X010412Y007919D02*
X010819Y007919D01*
X010980Y008077D02*
X010576Y008077D01*
X010741Y008236D02*
X011142Y008236D01*
X011303Y008394D02*
X010905Y008394D01*
X011069Y008553D02*
X011465Y008553D01*
X011626Y008711D02*
X011234Y008711D01*
X011398Y008870D02*
X011788Y008870D01*
X011949Y009028D02*
X011563Y009028D01*
X011727Y009187D02*
X012111Y009187D01*
X012272Y009345D02*
X011892Y009345D01*
X008984Y009187D02*
X008361Y009187D01*
X008361Y009345D02*
X008665Y009345D01*
X008498Y009504D02*
X008361Y009504D01*
X008361Y009662D02*
X008379Y009662D01*
X007821Y009662D02*
X006194Y009662D01*
X006036Y009821D02*
X007821Y009821D01*
X007821Y009979D02*
X005877Y009979D01*
X005719Y010138D02*
X007821Y010138D01*
X007821Y010296D02*
X005560Y010296D01*
X005402Y010455D02*
X007821Y010455D01*
X007821Y010613D02*
X005243Y010613D01*
X005085Y010772D02*
X007821Y010772D01*
X008128Y011564D02*
X010400Y011564D01*
X010204Y011723D02*
X007970Y011723D01*
X007811Y011881D02*
X009726Y011881D01*
X009988Y011881D02*
X010045Y011881D01*
X009445Y012040D02*
X009253Y012040D01*
X008461Y012040D02*
X008253Y012040D01*
X005508Y012991D02*
X005207Y012991D01*
X004508Y012991D02*
X004207Y012991D01*
X003626Y013045D02*
X003626Y013685D01*
X003446Y013506D01*
X003446Y012928D01*
X003518Y013000D01*
X003626Y013045D01*
X003626Y013149D02*
X003446Y013149D01*
X003446Y012991D02*
X003508Y012991D01*
X003446Y013308D02*
X003626Y013308D01*
X003626Y013466D02*
X003446Y013466D01*
X003565Y013625D02*
X003626Y013625D01*
X005660Y014769D02*
X005783Y014893D01*
X005783Y014682D01*
X005723Y014742D01*
X005660Y014769D01*
X005732Y014734D02*
X005783Y014734D01*
X005783Y014893D02*
X005783Y014893D01*
X004421Y015844D02*
X002337Y015844D01*
X002337Y016002D02*
X003820Y016002D01*
X003789Y016017D02*
X003903Y015963D01*
X004022Y015921D01*
X004145Y015893D01*
X004254Y015880D01*
X004254Y016923D01*
X003211Y016923D01*
X003223Y016815D01*
X003251Y016692D01*
X003293Y016572D01*
X003348Y016458D01*
X003415Y016351D01*
X003494Y016253D01*
X003583Y016163D01*
X003682Y016085D01*
X003789Y016017D01*
X003586Y016161D02*
X002337Y016161D01*
X002337Y016319D02*
X003441Y016319D01*
X003338Y016478D02*
X002337Y016478D01*
X002337Y016636D02*
X003270Y016636D01*
X003228Y016795D02*
X002337Y016795D01*
X002337Y016953D02*
X004254Y016953D01*
X004254Y017083D02*
X003211Y017083D01*
X003223Y017192D01*
X003251Y017315D01*
X003293Y017435D01*
X003348Y017548D01*
X003415Y017655D01*
X003494Y017754D01*
X003514Y017775D01*
X003504Y017771D01*
X003381Y017743D01*
X003272Y017731D01*
X003272Y018774D01*
X004315Y018774D01*
X004303Y018665D01*
X004275Y018542D01*
X004233Y018423D01*
X004178Y018309D01*
X004111Y018202D01*
X004032Y018103D01*
X004011Y018082D01*
X004022Y018086D01*
X004145Y018114D01*
X004254Y018126D01*
X004254Y017083D01*
X004254Y017112D02*
X004414Y017112D01*
X004414Y017270D02*
X004254Y017270D01*
X004254Y017429D02*
X004414Y017429D01*
X004414Y017587D02*
X004254Y017587D01*
X004254Y017746D02*
X004414Y017746D01*
X004414Y017904D02*
X004254Y017904D01*
X004254Y018063D02*
X004414Y018063D01*
X004535Y018221D02*
X004123Y018221D01*
X004212Y018380D02*
X004444Y018380D01*
X004394Y018538D02*
X004273Y018538D01*
X004306Y018697D02*
X004351Y018697D01*
X004350Y018855D02*
X003272Y018855D01*
X003272Y018934D02*
X004315Y018934D01*
X004303Y019043D01*
X004275Y019166D01*
X004233Y019285D01*
X004178Y019399D01*
X004111Y019506D01*
X004032Y019605D01*
X003943Y019694D01*
X003844Y019773D01*
X003737Y019840D01*
X003623Y019895D01*
X003504Y019936D01*
X003381Y019965D01*
X005160Y019965D01*
X004835Y019806D02*
X003791Y019806D01*
X003989Y019648D02*
X004661Y019648D01*
X004537Y019489D02*
X004121Y019489D01*
X004211Y019331D02*
X004445Y019331D01*
X004394Y019172D02*
X004272Y019172D01*
X004306Y019014D02*
X004352Y019014D01*
X003272Y019014D02*
X003112Y019014D01*
X003112Y019172D02*
X003272Y019172D01*
X003272Y019331D02*
X003112Y019331D01*
X003112Y019489D02*
X003272Y019489D01*
X003272Y019648D02*
X003112Y019648D01*
X003112Y019806D02*
X003272Y019806D01*
X003272Y019965D02*
X003112Y019965D01*
X003003Y019965D02*
X002880Y019936D01*
X002761Y019895D01*
X002647Y019840D01*
X002540Y019773D01*
X002441Y019694D01*
X002352Y019605D01*
X002337Y019586D01*
X002337Y020303D01*
X002337Y019806D02*
X002593Y019806D01*
X002395Y019648D02*
X002337Y019648D01*
X003272Y019977D02*
X003272Y018934D01*
X003272Y018697D02*
X003112Y018697D01*
X003112Y018538D02*
X003272Y018538D01*
X003272Y018380D02*
X003112Y018380D01*
X003112Y018221D02*
X003272Y018221D01*
X003272Y018063D02*
X003112Y018063D01*
X003112Y017904D02*
X003272Y017904D01*
X003272Y017746D02*
X003112Y017746D01*
X002992Y017746D02*
X002337Y017746D01*
X002337Y017904D02*
X002589Y017904D01*
X002392Y018063D02*
X002337Y018063D01*
X002337Y017587D02*
X003372Y017587D01*
X003391Y017746D02*
X003487Y017746D01*
X003291Y017429D02*
X002337Y017429D01*
X002337Y017270D02*
X003241Y017270D01*
X003214Y017112D02*
X002337Y017112D01*
X004254Y016795D02*
X004414Y016795D01*
X004414Y016636D02*
X004254Y016636D01*
X004254Y016478D02*
X004414Y016478D01*
X004414Y016319D02*
X004254Y016319D01*
X004254Y016161D02*
X004414Y016161D01*
X004414Y016002D02*
X004254Y016002D01*
X004263Y015685D02*
X003362Y015685D01*
X003038Y015685D02*
X003038Y015685D01*
X003038Y015527D02*
X003038Y015527D01*
X003038Y015368D02*
X003038Y015368D01*
X002556Y015527D02*
X002337Y015527D01*
X002337Y015685D02*
X002715Y015685D01*
X002508Y015368D02*
X002337Y015368D01*
X002337Y015210D02*
X002508Y015210D01*
X002508Y015051D02*
X002337Y015051D01*
X002337Y014893D02*
X002656Y014893D01*
X005660Y016319D02*
X005856Y016319D01*
X005809Y016478D02*
X006014Y016478D01*
X006173Y016636D02*
X005843Y016636D01*
X005843Y016795D02*
X006331Y016795D01*
X006490Y016953D02*
X005843Y016953D01*
X005843Y017112D02*
X006648Y017112D01*
X006807Y017270D02*
X005843Y017270D01*
X005843Y017429D02*
X006770Y017429D01*
X006653Y017587D02*
X005843Y017587D01*
X005878Y017746D02*
X006653Y017746D01*
X006715Y017904D02*
X006199Y017904D01*
X006371Y018063D02*
X012395Y018063D01*
X012553Y018221D02*
X006494Y018221D01*
X006586Y018380D02*
X012712Y018380D01*
X012870Y018538D02*
X006636Y018538D01*
X006678Y018697D02*
X007032Y018697D01*
X006857Y018855D02*
X006679Y018855D01*
X006678Y019014D02*
X006780Y019014D01*
X006748Y019172D02*
X006635Y019172D01*
X006584Y019331D02*
X006750Y019331D01*
X006816Y019489D02*
X006493Y019489D01*
X006368Y019648D02*
X006943Y019648D01*
X007545Y019806D02*
X006195Y019806D01*
X005869Y019965D02*
X007703Y019965D01*
X008299Y019798D02*
X008563Y020061D01*
X008759Y020061D01*
X008484Y019786D01*
X008455Y019798D01*
X008299Y019798D01*
X008308Y019806D02*
X008504Y019806D01*
X008466Y019965D02*
X008662Y019965D01*
X008179Y020440D02*
X006130Y020440D01*
X006289Y020599D02*
X008392Y020599D01*
X006764Y021074D02*
X034186Y021074D01*
X034337Y020916D02*
X006606Y020916D01*
X006447Y020757D02*
X034488Y020757D01*
X034638Y020599D02*
X020559Y020599D01*
X020678Y020440D02*
X034645Y020440D01*
X034645Y020282D02*
X020678Y020282D01*
X020619Y020123D02*
X034645Y020123D01*
X034645Y019965D02*
X024184Y019965D01*
X023531Y019172D02*
X023491Y019172D01*
X023491Y019014D02*
X023531Y019014D01*
X023531Y018855D02*
X023491Y018855D01*
X023491Y018697D02*
X023531Y018697D01*
X023028Y018697D02*
X022817Y018697D01*
X022205Y018697D02*
X021817Y018697D01*
X021992Y018855D02*
X022030Y018855D01*
X022011Y019542D02*
X022011Y019542D01*
X022011Y019542D01*
X022050Y019582D01*
X021972Y019582D01*
X022011Y019542D01*
X019485Y018697D02*
X019274Y018697D01*
X018662Y018697D02*
X018274Y018697D01*
X018448Y018855D02*
X018487Y018855D01*
X018468Y018874D02*
X018468Y018874D01*
X018468Y019542D02*
X018467Y019542D01*
X018428Y019582D01*
X018507Y019582D01*
X018468Y019542D01*
X018468Y019542D01*
X017630Y020061D02*
X016974Y019405D01*
X016974Y019602D01*
X016962Y019648D01*
X016938Y019689D01*
X016905Y019722D01*
X016864Y019746D01*
X016818Y019758D01*
X016444Y019758D01*
X016444Y019228D01*
X016404Y019228D01*
X016404Y019758D01*
X016031Y019758D01*
X015985Y019746D01*
X015944Y019722D01*
X015910Y019689D01*
X015886Y019648D01*
X015874Y019602D01*
X015874Y019592D01*
X015758Y019708D01*
X015542Y019798D01*
X015307Y019798D01*
X015090Y019708D01*
X014924Y019542D01*
X014924Y019542D01*
X014924Y019542D01*
X014758Y019708D01*
X014542Y019798D01*
X014307Y019798D01*
X014090Y019708D01*
X013924Y019542D01*
X013866Y019402D01*
X013792Y019402D01*
X013693Y019361D01*
X013431Y019099D01*
X013431Y019188D01*
X012901Y019188D01*
X012901Y019228D01*
X013431Y019228D01*
X013431Y019602D01*
X013419Y019648D01*
X013395Y019689D01*
X013361Y019722D01*
X013320Y019746D01*
X013275Y019758D01*
X012901Y019758D01*
X012901Y019228D01*
X012861Y019228D01*
X012861Y019758D01*
X012487Y019758D01*
X012441Y019746D01*
X012400Y019722D01*
X012367Y019689D01*
X012343Y019648D01*
X012331Y019602D01*
X012331Y019592D01*
X012215Y019708D01*
X011998Y019798D01*
X011764Y019798D01*
X011678Y019763D01*
X011437Y020004D01*
X011380Y020061D01*
X017630Y020061D01*
X017533Y019965D02*
X011476Y019965D01*
X011437Y020004D02*
X011437Y020004D01*
X011635Y019806D02*
X017375Y019806D01*
X017216Y019648D02*
X016962Y019648D01*
X016974Y019489D02*
X017058Y019489D01*
X017391Y019059D02*
X017352Y019020D01*
X017352Y018944D01*
X017413Y019005D01*
X017391Y019059D01*
X017410Y019014D02*
X017352Y019014D01*
X016587Y018658D02*
X015652Y017723D01*
X012818Y017723D01*
X013947Y018852D01*
X014090Y018708D01*
X014307Y018618D01*
X014542Y018618D01*
X014758Y018708D01*
X014924Y018874D01*
X014924Y018874D01*
X015090Y018708D01*
X015307Y018618D01*
X015542Y018618D01*
X015758Y018708D01*
X015874Y018824D01*
X015874Y018814D01*
X015886Y018769D01*
X015910Y018728D01*
X015944Y018694D01*
X015985Y018670D01*
X016031Y018658D01*
X016404Y018658D01*
X016404Y019188D01*
X016444Y019188D01*
X016444Y018658D01*
X016587Y018658D01*
X016444Y018697D02*
X016404Y018697D01*
X016404Y018855D02*
X016444Y018855D01*
X016444Y019014D02*
X016404Y019014D01*
X016404Y019172D02*
X016444Y019172D01*
X016444Y019331D02*
X016404Y019331D01*
X016404Y019489D02*
X016444Y019489D01*
X016444Y019648D02*
X016404Y019648D01*
X015886Y019648D02*
X015819Y019648D01*
X015030Y019648D02*
X014819Y019648D01*
X014030Y019648D02*
X013419Y019648D01*
X013431Y019489D02*
X013902Y019489D01*
X013663Y019331D02*
X013431Y019331D01*
X013431Y019172D02*
X013504Y019172D01*
X012901Y019172D02*
X012861Y019172D01*
X012861Y019014D02*
X012901Y019014D01*
X012901Y018855D02*
X012861Y018855D01*
X012861Y018697D02*
X012901Y018697D01*
X012398Y018697D02*
X012187Y018697D01*
X011575Y018697D02*
X011187Y018697D01*
X011362Y018855D02*
X011400Y018855D01*
X011381Y018874D02*
X011381Y018874D01*
X011381Y018874D01*
X010575Y018697D02*
X009821Y018697D01*
X009818Y018694D02*
X009852Y018728D01*
X009875Y018769D01*
X009888Y018814D01*
X009888Y019188D01*
X009358Y019188D01*
X009358Y018658D01*
X009731Y018658D01*
X009777Y018670D01*
X009818Y018694D01*
X009888Y018855D02*
X010400Y018855D01*
X010323Y019014D02*
X009888Y019014D01*
X009888Y019172D02*
X010291Y019172D01*
X010293Y019331D02*
X009888Y019331D01*
X009888Y019489D02*
X010359Y019489D01*
X009358Y019172D02*
X009318Y019172D01*
X009318Y019014D02*
X009358Y019014D01*
X009358Y018855D02*
X009318Y018855D01*
X009318Y018697D02*
X009358Y018697D01*
X008855Y018697D02*
X008644Y018697D01*
X008032Y018697D02*
X007644Y018697D01*
X007819Y018855D02*
X007857Y018855D01*
X007838Y018874D02*
X007838Y018874D01*
X007838Y018874D01*
X005304Y017705D02*
X005304Y017574D01*
X005253Y017655D01*
X005189Y017735D01*
X005304Y017705D01*
X005295Y017587D02*
X005304Y017587D01*
X007676Y016161D02*
X007999Y016161D01*
X007841Y016002D02*
X007834Y016002D01*
X007716Y015210D02*
X007959Y015210D01*
X011376Y015326D02*
X011381Y015331D01*
X011381Y015331D01*
X011381Y015331D01*
X011386Y015326D01*
X011376Y015326D01*
X014115Y015154D02*
X014115Y014891D01*
X014175Y014835D01*
X014175Y015130D01*
X014115Y015154D01*
X014115Y015051D02*
X014175Y015051D01*
X014175Y014893D02*
X014115Y014893D01*
X014715Y014893D02*
X016407Y014893D01*
X017592Y014893D02*
X018611Y014893D01*
X018611Y015051D02*
X017592Y015051D01*
X018346Y015210D02*
X018589Y015210D01*
X019306Y016161D02*
X019469Y016161D01*
X020518Y016002D02*
X021014Y016002D01*
X020946Y015844D02*
X020518Y015844D01*
X020518Y015368D02*
X020995Y015368D01*
X021132Y015210D02*
X020496Y015210D01*
X021890Y015210D02*
X022132Y015210D01*
X023399Y015115D02*
X023491Y015115D01*
X023491Y015645D01*
X023531Y015645D01*
X023531Y015115D01*
X023886Y015115D01*
X023886Y013514D01*
X023831Y013646D01*
X023685Y013792D01*
X023586Y013833D01*
X023586Y014870D01*
X023545Y014969D01*
X023399Y015115D01*
X023463Y015051D02*
X023886Y015051D01*
X023886Y014893D02*
X023577Y014893D01*
X023586Y014734D02*
X023886Y014734D01*
X023886Y014576D02*
X023586Y014576D01*
X023586Y014417D02*
X023886Y014417D01*
X023886Y014259D02*
X023586Y014259D01*
X023586Y014100D02*
X023886Y014100D01*
X023886Y013942D02*
X023586Y013942D01*
X023694Y013783D02*
X023886Y013783D01*
X023886Y013625D02*
X023840Y013625D01*
X023035Y012639D02*
X022965Y012568D01*
X021058Y012568D01*
X021058Y012628D01*
X023010Y012628D01*
X023035Y012639D01*
X021012Y011881D02*
X033116Y011881D01*
X033116Y011723D02*
X021058Y011723D01*
X020019Y012568D02*
X019472Y012568D01*
X019412Y012628D01*
X019414Y012628D01*
X020019Y012628D01*
X020019Y012568D01*
X017062Y012131D02*
X017062Y011812D01*
X016910Y011979D01*
X017062Y012131D01*
X017062Y012040D02*
X016971Y012040D01*
X016999Y011881D02*
X017062Y011881D01*
X013634Y012991D02*
X013182Y012991D01*
X013349Y012832D02*
X013424Y012832D01*
X007821Y009504D02*
X006353Y009504D01*
X006511Y009345D02*
X007821Y009345D01*
X007821Y009187D02*
X006670Y009187D01*
X006828Y009028D02*
X007821Y009028D01*
X007821Y008870D02*
X006987Y008870D01*
X007145Y008711D02*
X007821Y008711D01*
X007821Y008553D02*
X007304Y008553D01*
X007462Y008394D02*
X007821Y008394D01*
X007821Y008236D02*
X007621Y008236D01*
X007779Y008077D02*
X007821Y008077D01*
X004596Y010138D02*
X003514Y010138D01*
X003486Y010109D02*
X003732Y010355D01*
X003865Y010676D01*
X003865Y010869D01*
X003865Y010772D02*
X003962Y010772D01*
X003839Y010613D02*
X004121Y010613D01*
X004279Y010455D02*
X003773Y010455D01*
X003673Y010296D02*
X004438Y010296D01*
X003486Y010109D02*
X003172Y009979D01*
X002677Y010034D02*
X002518Y009969D01*
X002349Y009800D01*
X002337Y009772D01*
X002337Y010268D01*
X002496Y010109D01*
X002677Y010034D01*
X002543Y009979D02*
X002337Y009979D01*
X002337Y009821D02*
X002369Y009821D01*
X002337Y010138D02*
X002468Y010138D01*
X002337Y009148D02*
X002349Y009120D01*
X002509Y008960D01*
X002349Y008800D01*
X002337Y008772D01*
X002337Y009148D01*
X002337Y009028D02*
X002441Y009028D01*
X002418Y008870D02*
X002337Y008870D01*
X002337Y008148D02*
X002349Y008120D01*
X002509Y007960D01*
X002349Y007800D01*
X002337Y007772D01*
X002337Y008148D01*
X002337Y008077D02*
X002392Y008077D01*
X002337Y007919D02*
X002467Y007919D01*
X002337Y007148D02*
X002349Y007120D01*
X002509Y006960D01*
X002349Y006800D01*
X002337Y006772D01*
X002337Y007148D01*
X002337Y007126D02*
X002346Y007126D01*
X002337Y006968D02*
X002502Y006968D01*
X002358Y006809D02*
X002337Y006809D01*
X017121Y016478D02*
X017523Y016478D01*
X017364Y016319D02*
X017280Y016319D01*
X015674Y017746D02*
X012841Y017746D01*
X012999Y017904D02*
X015832Y017904D01*
X015991Y018063D02*
X013158Y018063D01*
X013316Y018221D02*
X016149Y018221D01*
X016308Y018380D02*
X013475Y018380D01*
X013633Y018538D02*
X016466Y018538D01*
X015941Y018697D02*
X015730Y018697D01*
X015118Y018697D02*
X014730Y018697D01*
X014905Y018855D02*
X014943Y018855D01*
X014924Y018874D02*
X014924Y018874D01*
X014118Y018697D02*
X013792Y018697D01*
X012901Y019331D02*
X012861Y019331D01*
X012861Y019489D02*
X012901Y019489D01*
X012901Y019648D02*
X012861Y019648D01*
X012343Y019648D02*
X012276Y019648D01*
X003381Y019965D02*
X003272Y019977D01*
X021925Y016161D02*
X022172Y016161D01*
X022014Y016002D02*
X022008Y016002D01*
X022011Y015999D02*
X022011Y015999D01*
X022849Y016161D02*
X023012Y016161D01*
X023491Y016161D02*
X023531Y016161D01*
X023531Y016002D02*
X023491Y016002D01*
X023491Y015844D02*
X023531Y015844D01*
X023531Y015685D02*
X023491Y015685D01*
X023491Y015527D02*
X023531Y015527D01*
X023531Y015368D02*
X023491Y015368D01*
X023491Y015210D02*
X023531Y015210D01*
X025136Y016255D02*
X025223Y016342D01*
X025264Y016441D01*
X025264Y018657D01*
X025388Y018708D01*
X025554Y018874D01*
X025554Y018874D01*
X025720Y018708D01*
X025804Y018674D01*
X025804Y016199D01*
X025720Y016165D01*
X025554Y015999D01*
X025388Y016165D01*
X025171Y016255D01*
X025136Y016255D01*
X025200Y016319D02*
X025804Y016319D01*
X025804Y016478D02*
X025264Y016478D01*
X025264Y016636D02*
X025804Y016636D01*
X025804Y016795D02*
X025264Y016795D01*
X025264Y016953D02*
X025804Y016953D01*
X025804Y017112D02*
X025264Y017112D01*
X025264Y017270D02*
X025804Y017270D01*
X025804Y017429D02*
X025264Y017429D01*
X025264Y017587D02*
X025804Y017587D01*
X025804Y017746D02*
X025264Y017746D01*
X025264Y017904D02*
X025804Y017904D01*
X025804Y018063D02*
X025264Y018063D01*
X025264Y018221D02*
X025804Y018221D01*
X025804Y018380D02*
X025264Y018380D01*
X025264Y018538D02*
X025804Y018538D01*
X025748Y018697D02*
X025360Y018697D01*
X025535Y018855D02*
X025573Y018855D01*
X025554Y018874D02*
X025554Y018874D01*
X026360Y018697D02*
X026571Y018697D01*
X026343Y018538D02*
X029400Y018538D01*
X029400Y018380D02*
X026343Y018380D01*
X026343Y018221D02*
X029400Y018221D01*
X029400Y018063D02*
X026343Y018063D01*
X026343Y017904D02*
X029400Y017904D01*
X029400Y017746D02*
X026343Y017746D01*
X026343Y017112D02*
X029400Y017112D01*
X029400Y016953D02*
X026343Y016953D01*
X026343Y016795D02*
X029400Y016795D01*
X029400Y016636D02*
X026343Y016636D01*
X026343Y016478D02*
X029400Y016478D01*
X029400Y016319D02*
X026343Y016319D01*
X026392Y016161D02*
X026555Y016161D01*
X027034Y016161D02*
X027074Y016161D01*
X027074Y016215D02*
X027074Y015685D01*
X027034Y015685D01*
X027074Y015685D02*
X027604Y015685D01*
X028008Y015685D01*
X028016Y015527D02*
X027604Y015527D01*
X027604Y015645D02*
X027074Y015645D01*
X027074Y015115D01*
X027448Y015115D01*
X027494Y015127D01*
X027535Y015151D01*
X027568Y015184D01*
X027592Y015225D01*
X027604Y015271D01*
X027604Y015645D01*
X027604Y015685D02*
X027604Y016059D01*
X027592Y016104D01*
X027568Y016145D01*
X027535Y016179D01*
X027494Y016203D01*
X027448Y016215D01*
X027074Y016215D01*
X027074Y016002D02*
X027034Y016002D01*
X027034Y015844D02*
X027074Y015844D01*
X027074Y015527D02*
X027034Y015527D01*
X027034Y015368D02*
X027074Y015368D01*
X027074Y015210D02*
X027034Y015210D01*
X026526Y015210D02*
X026433Y015210D01*
X025675Y015210D02*
X025433Y015210D01*
X025554Y015999D02*
X025554Y015999D01*
X025554Y015999D01*
X025551Y016002D02*
X025557Y016002D01*
X025716Y016161D02*
X025392Y016161D01*
X027553Y016161D02*
X028259Y016161D01*
X028101Y016002D02*
X027604Y016002D01*
X027604Y015844D02*
X028033Y015844D01*
X028082Y015368D02*
X027604Y015368D01*
X027583Y015210D02*
X028219Y015210D01*
X028976Y015210D02*
X029219Y015210D01*
X029976Y015210D02*
X030069Y015210D01*
X030577Y015210D02*
X030617Y015210D01*
X030617Y015368D02*
X030577Y015368D01*
X030577Y015527D02*
X030617Y015527D01*
X030617Y015685D02*
X031147Y015685D01*
X031551Y015685D01*
X031560Y015527D02*
X031147Y015527D01*
X031147Y015685D02*
X031147Y016059D01*
X031135Y016104D01*
X031111Y016145D01*
X031078Y016179D01*
X031037Y016203D01*
X030991Y016215D01*
X030617Y016215D01*
X030617Y015685D01*
X030577Y015685D01*
X030577Y015844D02*
X030617Y015844D01*
X030617Y016002D02*
X030577Y016002D01*
X030577Y016161D02*
X030617Y016161D01*
X031096Y016161D02*
X031802Y016161D01*
X031644Y016002D02*
X031147Y016002D01*
X031147Y015844D02*
X031576Y015844D01*
X031625Y015368D02*
X031147Y015368D01*
X031126Y015210D02*
X031762Y015210D01*
X032638Y016002D02*
X032644Y016002D01*
X032802Y016161D02*
X032479Y016161D01*
X032877Y016319D02*
X029940Y016319D01*
X029940Y016161D02*
X030099Y016161D01*
X029940Y016478D02*
X032877Y016478D01*
X032877Y016636D02*
X029940Y016636D01*
X029940Y016795D02*
X032877Y016795D01*
X032877Y016953D02*
X029940Y016953D01*
X029940Y017112D02*
X032877Y017112D01*
X032877Y017746D02*
X029940Y017746D01*
X029940Y017904D02*
X032877Y017904D01*
X032877Y018063D02*
X029940Y018063D01*
X029940Y018221D02*
X032877Y018221D01*
X032877Y018380D02*
X029940Y018380D01*
X029940Y018538D02*
X032877Y018538D01*
X032835Y018697D02*
X032447Y018697D01*
X032622Y018855D02*
X032660Y018855D01*
X032641Y018874D02*
X032641Y018874D01*
X032641Y018874D01*
X031835Y018697D02*
X031080Y018697D01*
X031147Y018855D02*
X031660Y018855D01*
X031583Y019014D02*
X031147Y019014D01*
X031147Y019172D02*
X031551Y019172D01*
X031553Y019331D02*
X031147Y019331D01*
X031147Y019228D02*
X031147Y019602D01*
X031135Y019648D01*
X031111Y019689D01*
X031078Y019722D01*
X031037Y019746D01*
X030991Y019758D01*
X030617Y019758D01*
X030617Y019228D01*
X031147Y019228D01*
X031147Y019489D02*
X031619Y019489D01*
X031746Y019648D02*
X031135Y019648D01*
X030617Y019648D02*
X030577Y019648D01*
X030577Y019489D02*
X030617Y019489D01*
X030617Y019331D02*
X030577Y019331D01*
X030577Y019172D02*
X030617Y019172D01*
X030617Y019014D02*
X030577Y019014D01*
X030577Y018855D02*
X030617Y018855D01*
X030617Y018697D02*
X030577Y018697D01*
X030114Y018697D02*
X029940Y018697D01*
X029291Y018697D02*
X028903Y018697D01*
X029078Y018855D02*
X029116Y018855D01*
X028291Y018697D02*
X027537Y018697D01*
X027604Y018855D02*
X028116Y018855D01*
X028040Y019014D02*
X027604Y019014D01*
X027604Y019172D02*
X028008Y019172D01*
X028010Y019331D02*
X027604Y019331D01*
X027604Y019489D02*
X028075Y019489D01*
X028203Y019648D02*
X027592Y019648D01*
X027074Y019648D02*
X027034Y019648D01*
X027034Y019489D02*
X027074Y019489D01*
X027074Y019331D02*
X027034Y019331D01*
X027034Y019172D02*
X027074Y019172D01*
X027074Y019014D02*
X027034Y019014D01*
X027034Y018855D02*
X027074Y018855D01*
X027074Y018697D02*
X027034Y018697D01*
X026516Y019648D02*
X026449Y019648D01*
X025659Y019648D02*
X025449Y019648D01*
X028992Y019648D02*
X029203Y019648D01*
X029992Y019648D02*
X030060Y019648D01*
X032535Y019648D02*
X032746Y019648D01*
X033535Y019648D02*
X033603Y019648D01*
X034624Y018697D02*
X034645Y018697D01*
X033642Y016161D02*
X033479Y016161D01*
X029259Y016161D02*
X028936Y016161D01*
X029094Y016002D02*
X029101Y016002D01*
X029097Y015999D02*
X029097Y015999D01*
X029097Y015999D01*
X032931Y012357D02*
X033116Y012357D01*
X033116Y011564D02*
X033010Y011564D01*
M02*
