G75*
G70*
%OFA0B0*%
%FSLAX24Y24*%
%IPPOS*%
%LPD*%
%AMOC8*
5,1,8,0,0,1.08239X$1,22.5*
%
%ADD10C,0.0140*%
%ADD11C,0.0070*%
%ADD12C,0.0060*%
%ADD13C,0.0040*%
%ADD14C,0.0030*%
%ADD15C,0.0000*%
%ADD16C,0.0001*%
%ADD17R,0.0079X0.0079*%
%ADD18R,0.0059X0.0098*%
%ADD19C,0.0050*%
%ADD20C,0.0024*%
%ADD21C,0.0120*%
%ADD22C,0.0020*%
%ADD23R,0.0500X0.0350*%
%ADD24R,0.0338X0.0010*%
%ADD25R,0.0492X0.0010*%
%ADD26R,0.0605X0.0010*%
%ADD27R,0.0697X0.0010*%
%ADD28R,0.0779X0.0010*%
%ADD29R,0.0851X0.0010*%
%ADD30R,0.0923X0.0010*%
%ADD31R,0.0984X0.0010*%
%ADD32R,0.1046X0.0010*%
%ADD33R,0.1107X0.0010*%
%ADD34R,0.1148X0.0010*%
%ADD35R,0.1210X0.0010*%
%ADD36R,0.1251X0.0010*%
%ADD37R,0.1292X0.0010*%
%ADD38R,0.1333X0.0010*%
%ADD39R,0.0625X0.0010*%
%ADD40R,0.0646X0.0010*%
%ADD41R,0.0523X0.0010*%
%ADD42R,0.0543X0.0010*%
%ADD43R,0.0482X0.0010*%
%ADD44R,0.0492X0.0010*%
%ADD45R,0.0451X0.0010*%
%ADD46R,0.0461X0.0010*%
%ADD47R,0.0431X0.0010*%
%ADD48R,0.0441X0.0010*%
%ADD49R,0.0410X0.0010*%
%ADD50R,0.0420X0.0010*%
%ADD51R,0.0400X0.0010*%
%ADD52R,0.0379X0.0010*%
%ADD53R,0.0390X0.0010*%
%ADD54R,0.0369X0.0010*%
%ADD55R,0.0379X0.0010*%
%ADD56R,0.0359X0.0010*%
%ADD57R,0.0349X0.0010*%
%ADD58R,0.0349X0.0010*%
%ADD59R,0.0338X0.0010*%
%ADD60R,0.0328X0.0010*%
%ADD61R,0.0318X0.0010*%
%ADD62R,0.0318X0.0010*%
%ADD63R,0.0308X0.0010*%
%ADD64R,0.0308X0.0010*%
%ADD65R,0.0297X0.0010*%
%ADD66R,0.0287X0.0010*%
%ADD67R,0.0287X0.0010*%
%ADD68R,0.0287X0.0010*%
%ADD69R,0.0277X0.0010*%
%ADD70R,0.0277X0.0010*%
%ADD71R,0.0267X0.0010*%
%ADD72R,0.0267X0.0010*%
%ADD73R,0.0256X0.0010*%
%ADD74R,0.0256X0.0010*%
%ADD75R,0.0246X0.0010*%
%ADD76R,0.0246X0.0010*%
%ADD77R,0.0256X0.0010*%
%ADD78R,0.0236X0.0010*%
%ADD79R,0.0092X0.0010*%
%ADD80R,0.0236X0.0010*%
%ADD81R,0.0236X0.0010*%
%ADD82R,0.0533X0.0010*%
%ADD83R,0.0236X0.0010*%
%ADD84R,0.0677X0.0010*%
%ADD85R,0.0748X0.0010*%
%ADD86R,0.0226X0.0010*%
%ADD87R,0.0800X0.0010*%
%ADD88R,0.0851X0.0010*%
%ADD89R,0.0226X0.0010*%
%ADD90R,0.0902X0.0010*%
%ADD91R,0.0954X0.0010*%
%ADD92R,0.0215X0.0010*%
%ADD93R,0.0995X0.0010*%
%ADD94R,0.0215X0.0010*%
%ADD95R,0.1036X0.0010*%
%ADD96R,0.1076X0.0010*%
%ADD97R,0.0226X0.0010*%
%ADD98R,0.1118X0.0010*%
%ADD99R,0.0215X0.0010*%
%ADD100R,0.0533X0.0010*%
%ADD101R,0.0543X0.0010*%
%ADD102R,0.0441X0.0010*%
%ADD103R,0.0205X0.0010*%
%ADD104R,0.0400X0.0010*%
%ADD105R,0.0410X0.0010*%
%ADD106R,0.0205X0.0010*%
%ADD107R,0.0359X0.0010*%
%ADD108R,0.0195X0.0010*%
%ADD109R,0.0195X0.0010*%
%ADD110R,0.0328X0.0010*%
%ADD111R,0.0328X0.0010*%
%ADD112R,0.0185X0.0010*%
%ADD113R,0.0185X0.0010*%
%ADD114R,0.0174X0.0010*%
%ADD115R,0.0164X0.0010*%
%ADD116R,0.0144X0.0010*%
%ADD117R,0.0287X0.0010*%
%ADD118R,0.0154X0.0010*%
%ADD119R,0.0123X0.0010*%
%ADD120R,0.0277X0.0010*%
%ADD121R,0.0103X0.0010*%
%ADD122R,0.0267X0.0010*%
%ADD123R,0.0061X0.0010*%
%ADD124R,0.0072X0.0010*%
%ADD125R,0.0226X0.0010*%
%ADD126R,0.0195X0.0010*%
%ADD127R,0.0185X0.0010*%
%ADD128R,0.0144X0.0010*%
%ADD129R,0.0123X0.0010*%
%ADD130R,0.0533X0.0010*%
%ADD131R,0.0133X0.0010*%
%ADD132R,0.0113X0.0010*%
%ADD133R,0.0574X0.0010*%
%ADD134R,0.0092X0.0010*%
%ADD135R,0.0605X0.0010*%
%ADD136R,0.0092X0.0010*%
%ADD137R,0.0062X0.0010*%
%ADD138R,0.0646X0.0010*%
%ADD139R,0.0707X0.0010*%
%ADD140R,0.0728X0.0010*%
%ADD141R,0.0769X0.0010*%
%ADD142R,0.0789X0.0010*%
%ADD143R,0.0369X0.0010*%
%ADD144R,0.0256X0.0010*%
%ADD145R,0.0205X0.0010*%
%ADD146R,0.0164X0.0010*%
%ADD147R,0.0144X0.0010*%
%ADD148R,0.0082X0.0010*%
%ADD149R,0.0092X0.0010*%
%ADD150R,0.0072X0.0010*%
%ADD151R,0.0103X0.0010*%
%ADD152R,0.0113X0.0010*%
%ADD153R,0.0031X0.0010*%
%ADD154R,0.0133X0.0010*%
%ADD155R,0.0441X0.0010*%
%ADD156R,0.0144X0.0010*%
%ADD157R,0.0133X0.0010*%
%ADD158R,0.0472X0.0010*%
%ADD159R,0.0502X0.0010*%
%ADD160R,0.0533X0.0010*%
%ADD161R,0.0174X0.0010*%
%ADD162R,0.0174X0.0010*%
%ADD163R,0.0154X0.0010*%
%ADD164R,0.0164X0.0010*%
%ADD165R,0.0174X0.0010*%
%ADD166R,0.0020X0.0010*%
%ADD167R,0.0113X0.0010*%
%ADD168R,0.0502X0.0010*%
%ADD169R,0.0513X0.0010*%
%ADD170R,0.0523X0.0010*%
%ADD171R,0.0103X0.0010*%
%ADD172R,0.0113X0.0010*%
%ADD173R,0.0625X0.0010*%
%ADD174R,0.0103X0.0010*%
%ADD175R,0.0154X0.0010*%
%ADD176R,0.0082X0.0010*%
%ADD177R,0.0051X0.0010*%
%ADD178R,0.0595X0.0010*%
%ADD179R,0.0615X0.0010*%
%ADD180R,0.0636X0.0010*%
%ADD181R,0.0656X0.0010*%
%ADD182R,0.0154X0.0010*%
%ADD183R,0.0656X0.0010*%
%ADD184R,0.0185X0.0010*%
%ADD185R,0.0636X0.0010*%
%ADD186R,0.0082X0.0010*%
%ADD187R,0.0574X0.0010*%
%ADD188R,0.0205X0.0010*%
%ADD189R,0.0800X0.0010*%
%ADD190R,0.0769X0.0010*%
%ADD191R,0.0748X0.0010*%
%ADD192R,0.0718X0.0010*%
%ADD193R,0.0687X0.0010*%
%ADD194R,0.0656X0.0010*%
%ADD195R,0.0041X0.0010*%
%ADD196R,0.0584X0.0010*%
%ADD197R,0.0554X0.0010*%
%ADD198R,0.0461X0.0010*%
%ADD199R,0.0349X0.0010*%
%ADD200R,0.0267X0.0010*%
%ADD201R,0.0297X0.0010*%
%ADD202R,0.0482X0.0010*%
%ADD203R,0.0215X0.0010*%
%ADD204R,0.1128X0.0010*%
%ADD205R,0.1087X0.0010*%
%ADD206R,0.1005X0.0010*%
%ADD207R,0.0964X0.0010*%
%ADD208R,0.0923X0.0010*%
%ADD209R,0.0871X0.0010*%
%ADD210R,0.0820X0.0010*%
%ADD211R,0.0759X0.0010*%
%ADD212R,0.0554X0.0010*%
%ADD213R,0.0472X0.0010*%
%ADD214R,0.0359X0.0010*%
%ADD215R,0.0379X0.0010*%
%ADD216R,0.0431X0.0010*%
%ADD217R,0.0451X0.0010*%
%ADD218R,0.0472X0.0010*%
%ADD219R,0.0513X0.0010*%
%ADD220R,0.1353X0.0010*%
%ADD221R,0.1312X0.0010*%
%ADD222R,0.1271X0.0010*%
%ADD223R,0.1220X0.0010*%
%ADD224R,0.1169X0.0010*%
%ADD225R,0.1118X0.0010*%
%ADD226R,0.1066X0.0010*%
%ADD227R,0.0943X0.0010*%
%ADD228R,0.0882X0.0010*%
%ADD229R,0.0810X0.0010*%
%ADD230R,0.0728X0.0010*%
D10*
X003994Y001746D02*
X003994Y002266D01*
X004254Y002266D01*
X004341Y002179D01*
X004341Y002006D01*
X004254Y001919D01*
X003994Y001919D01*
X004167Y001919D02*
X004341Y001746D01*
X004602Y001832D02*
X004602Y002006D01*
X004688Y002093D01*
X004862Y002093D01*
X004948Y002006D01*
X004948Y001919D01*
X004602Y001919D01*
X004602Y001832D02*
X004688Y001746D01*
X004862Y001746D01*
X005209Y001746D02*
X005383Y001746D01*
X005296Y001746D02*
X005296Y002266D01*
X005209Y002266D01*
X005701Y002093D02*
X005875Y002093D01*
X005961Y002006D01*
X005961Y001746D01*
X005701Y001746D01*
X005614Y001832D01*
X005701Y001919D01*
X005961Y001919D01*
X006222Y001832D02*
X006222Y002093D01*
X006222Y001832D02*
X006309Y001746D01*
X006569Y001746D01*
X006569Y001659D02*
X006482Y001572D01*
X006396Y001572D01*
X006569Y001659D02*
X006569Y002093D01*
X007438Y001832D02*
X007524Y001919D01*
X007785Y001919D01*
X007785Y002006D02*
X007785Y001746D01*
X007524Y001746D01*
X007438Y001832D01*
X007524Y002093D02*
X007698Y002093D01*
X007785Y002006D01*
X008045Y002093D02*
X008045Y001746D01*
X008045Y002093D02*
X008305Y002093D01*
X008392Y002006D01*
X008392Y001746D01*
X008653Y001832D02*
X008653Y002006D01*
X008740Y002093D01*
X009000Y002093D01*
X009000Y002266D02*
X009000Y001746D01*
X008740Y001746D01*
X008653Y001832D01*
X009868Y001832D02*
X009955Y001746D01*
X010129Y001746D01*
X010215Y001832D01*
X010215Y001919D01*
X010129Y002006D01*
X009955Y002006D01*
X009868Y002093D01*
X009868Y002179D01*
X009955Y002266D01*
X010129Y002266D01*
X010215Y002179D01*
X010476Y002006D02*
X010563Y002093D01*
X010736Y002093D01*
X010823Y002006D01*
X010823Y001919D01*
X010476Y001919D01*
X010476Y001832D02*
X010476Y002006D01*
X010476Y001832D02*
X010563Y001746D01*
X010736Y001746D01*
X011084Y001746D02*
X011084Y002093D01*
X011344Y002093D01*
X011431Y002006D01*
X011431Y001746D01*
X011692Y001746D02*
X011952Y001746D01*
X012039Y001832D01*
X011952Y001919D01*
X011778Y001919D01*
X011692Y002006D01*
X011778Y002093D01*
X012039Y002093D01*
X012299Y002006D02*
X012299Y001832D01*
X012386Y001746D01*
X012560Y001746D01*
X012646Y001832D01*
X012646Y002006D01*
X012560Y002093D01*
X012386Y002093D01*
X012299Y002006D01*
X012907Y002093D02*
X012907Y001746D01*
X012907Y001919D02*
X013080Y002093D01*
X013167Y002093D01*
X014021Y002093D02*
X014108Y002006D01*
X014281Y002006D01*
X014368Y001919D01*
X014368Y001832D01*
X014281Y001746D01*
X014108Y001746D01*
X014021Y001832D01*
X014021Y002093D02*
X014021Y002179D01*
X014108Y002266D01*
X014281Y002266D01*
X014368Y002179D01*
X014629Y002266D02*
X014629Y001746D01*
X014629Y002006D02*
X014716Y002093D01*
X014889Y002093D01*
X014976Y002006D01*
X014976Y001746D01*
X015237Y001746D02*
X015410Y001746D01*
X015323Y001746D02*
X015323Y002093D01*
X015237Y002093D01*
X015323Y002266D02*
X015323Y002353D01*
X015642Y002006D02*
X015728Y002093D01*
X015902Y002093D01*
X015989Y002006D01*
X015989Y001919D01*
X015642Y001919D01*
X015642Y001832D02*
X015642Y002006D01*
X015642Y001832D02*
X015728Y001746D01*
X015902Y001746D01*
X016249Y001746D02*
X016423Y001746D01*
X016336Y001746D02*
X016336Y002266D01*
X016249Y002266D01*
X016655Y002006D02*
X016741Y002093D01*
X017002Y002093D01*
X017002Y002266D02*
X017002Y001746D01*
X016741Y001746D01*
X016655Y001832D01*
X016655Y002006D01*
D11*
X011978Y001221D02*
X011978Y001054D01*
X011936Y001012D01*
X011853Y001012D01*
X011811Y001054D01*
X011978Y001221D01*
X011936Y001263D01*
X011853Y001263D01*
X011811Y001221D01*
X011811Y001054D01*
X011705Y001054D02*
X011705Y001012D01*
X011664Y001012D01*
X011664Y001054D01*
X011705Y001054D01*
X011536Y001012D02*
X011369Y001012D01*
X011452Y001012D02*
X011452Y001263D01*
X011369Y001179D01*
X010947Y001137D02*
X010947Y001012D01*
X010947Y001137D02*
X010905Y001179D01*
X010780Y001179D01*
X010780Y001012D01*
X010652Y001054D02*
X010652Y001137D01*
X010610Y001179D01*
X010527Y001179D01*
X010485Y001137D01*
X010485Y001054D01*
X010527Y001012D01*
X010610Y001012D01*
X010652Y001054D01*
X010372Y001012D02*
X010289Y001012D01*
X010330Y001012D02*
X010330Y001179D01*
X010289Y001179D01*
X010330Y001263D02*
X010330Y001304D01*
X010161Y001179D02*
X010036Y001179D01*
X009994Y001137D01*
X010036Y001096D01*
X010119Y001096D01*
X010161Y001054D01*
X010119Y001012D01*
X009994Y001012D01*
X009874Y001179D02*
X009832Y001179D01*
X009748Y001096D01*
X009748Y001179D02*
X009748Y001012D01*
X009621Y001096D02*
X009454Y001096D01*
X009454Y001137D02*
X009496Y001179D01*
X009579Y001179D01*
X009621Y001137D01*
X009621Y001096D01*
X009579Y001012D02*
X009496Y001012D01*
X009454Y001054D01*
X009454Y001137D01*
X009326Y001096D02*
X009243Y001012D01*
X009159Y001096D01*
X009159Y001263D01*
X009326Y001263D02*
X009326Y001096D01*
D12*
X007288Y004535D02*
X007288Y009435D01*
X007638Y009435D01*
X007638Y010035D01*
X007288Y010035D01*
X007288Y010785D01*
X011388Y010785D01*
X011388Y010035D01*
X011038Y010035D01*
X011038Y009435D01*
X011388Y009435D01*
X011388Y004535D01*
X007288Y004535D01*
X008628Y009435D02*
X008630Y009488D01*
X008636Y009541D01*
X008646Y009593D01*
X008660Y009644D01*
X008677Y009694D01*
X008698Y009743D01*
X008723Y009790D01*
X008751Y009835D01*
X008783Y009878D01*
X008818Y009918D01*
X008855Y009955D01*
X008895Y009990D01*
X008938Y010022D01*
X008983Y010050D01*
X009030Y010075D01*
X009079Y010096D01*
X009129Y010113D01*
X009180Y010127D01*
X009232Y010137D01*
X009285Y010143D01*
X009338Y010145D01*
X009391Y010143D01*
X009444Y010137D01*
X009496Y010127D01*
X009547Y010113D01*
X009597Y010096D01*
X009646Y010075D01*
X009693Y010050D01*
X009738Y010022D01*
X009781Y009990D01*
X009821Y009955D01*
X009858Y009918D01*
X009893Y009878D01*
X009925Y009835D01*
X009953Y009790D01*
X009978Y009743D01*
X009999Y009694D01*
X010016Y009644D01*
X010030Y009593D01*
X010040Y009541D01*
X010046Y009488D01*
X010048Y009435D01*
X010046Y009382D01*
X010040Y009329D01*
X010030Y009277D01*
X010016Y009226D01*
X009999Y009176D01*
X009978Y009127D01*
X009953Y009080D01*
X009925Y009035D01*
X009893Y008992D01*
X009858Y008952D01*
X009821Y008915D01*
X009781Y008880D01*
X009738Y008848D01*
X009693Y008820D01*
X009646Y008795D01*
X009597Y008774D01*
X009547Y008757D01*
X009496Y008743D01*
X009444Y008733D01*
X009391Y008727D01*
X009338Y008725D01*
X009285Y008727D01*
X009232Y008733D01*
X009180Y008743D01*
X009129Y008757D01*
X009079Y008774D01*
X009030Y008795D01*
X008983Y008820D01*
X008938Y008848D01*
X008895Y008880D01*
X008855Y008915D01*
X008818Y008952D01*
X008783Y008992D01*
X008751Y009035D01*
X008723Y009080D01*
X008698Y009127D01*
X008677Y009176D01*
X008660Y009226D01*
X008646Y009277D01*
X008636Y009329D01*
X008630Y009382D01*
X008628Y009435D01*
X005401Y013709D02*
X005401Y013909D01*
X005501Y013809D02*
X005301Y013809D01*
X004301Y014759D02*
X004303Y014825D01*
X004309Y014890D01*
X004319Y014955D01*
X004332Y015020D01*
X004350Y015083D01*
X004371Y015146D01*
X004396Y015206D01*
X004425Y015266D01*
X004457Y015323D01*
X004492Y015379D01*
X004531Y015432D01*
X004573Y015483D01*
X004617Y015531D01*
X004665Y015576D01*
X004715Y015619D01*
X004768Y015658D01*
X004823Y015695D01*
X004880Y015728D01*
X004939Y015757D01*
X004999Y015783D01*
X005061Y015805D01*
X005124Y015824D01*
X005188Y015838D01*
X005253Y015849D01*
X005319Y015856D01*
X005385Y015859D01*
X005450Y015858D01*
X005516Y015853D01*
X005581Y015844D01*
X005646Y015831D01*
X005709Y015815D01*
X005772Y015795D01*
X005833Y015770D01*
X005893Y015743D01*
X005951Y015712D01*
X006007Y015677D01*
X006061Y015639D01*
X006112Y015598D01*
X006161Y015554D01*
X006207Y015507D01*
X006251Y015458D01*
X006291Y015406D01*
X006328Y015351D01*
X006362Y015295D01*
X006392Y015236D01*
X006419Y015176D01*
X006442Y015115D01*
X006461Y015052D01*
X006477Y014988D01*
X006489Y014923D01*
X006497Y014858D01*
X006501Y014792D01*
X006501Y014726D01*
X006497Y014660D01*
X006489Y014595D01*
X006477Y014530D01*
X006461Y014466D01*
X006442Y014403D01*
X006419Y014342D01*
X006392Y014282D01*
X006362Y014223D01*
X006328Y014167D01*
X006291Y014112D01*
X006251Y014060D01*
X006207Y014011D01*
X006161Y013964D01*
X006112Y013920D01*
X006061Y013879D01*
X006007Y013841D01*
X005951Y013806D01*
X005893Y013775D01*
X005833Y013748D01*
X005772Y013723D01*
X005709Y013703D01*
X005646Y013687D01*
X005581Y013674D01*
X005516Y013665D01*
X005450Y013660D01*
X005385Y013659D01*
X005319Y013662D01*
X005253Y013669D01*
X005188Y013680D01*
X005124Y013694D01*
X005061Y013713D01*
X004999Y013735D01*
X004939Y013761D01*
X004880Y013790D01*
X004823Y013823D01*
X004768Y013860D01*
X004715Y013899D01*
X004665Y013942D01*
X004617Y013987D01*
X004573Y014035D01*
X004531Y014086D01*
X004492Y014139D01*
X004457Y014195D01*
X004425Y014252D01*
X004396Y014312D01*
X004371Y014372D01*
X004350Y014435D01*
X004332Y014498D01*
X004319Y014563D01*
X004309Y014628D01*
X004303Y014693D01*
X004301Y014759D01*
X001938Y014759D02*
X001940Y014825D01*
X001946Y014890D01*
X001956Y014955D01*
X001969Y015020D01*
X001987Y015083D01*
X002008Y015146D01*
X002033Y015206D01*
X002062Y015266D01*
X002094Y015323D01*
X002129Y015379D01*
X002168Y015432D01*
X002210Y015483D01*
X002254Y015531D01*
X002302Y015576D01*
X002352Y015619D01*
X002405Y015658D01*
X002460Y015695D01*
X002517Y015728D01*
X002576Y015757D01*
X002636Y015783D01*
X002698Y015805D01*
X002761Y015824D01*
X002825Y015838D01*
X002890Y015849D01*
X002956Y015856D01*
X003022Y015859D01*
X003087Y015858D01*
X003153Y015853D01*
X003218Y015844D01*
X003283Y015831D01*
X003346Y015815D01*
X003409Y015795D01*
X003470Y015770D01*
X003530Y015743D01*
X003588Y015712D01*
X003644Y015677D01*
X003698Y015639D01*
X003749Y015598D01*
X003798Y015554D01*
X003844Y015507D01*
X003888Y015458D01*
X003928Y015406D01*
X003965Y015351D01*
X003999Y015295D01*
X004029Y015236D01*
X004056Y015176D01*
X004079Y015115D01*
X004098Y015052D01*
X004114Y014988D01*
X004126Y014923D01*
X004134Y014858D01*
X004138Y014792D01*
X004138Y014726D01*
X004134Y014660D01*
X004126Y014595D01*
X004114Y014530D01*
X004098Y014466D01*
X004079Y014403D01*
X004056Y014342D01*
X004029Y014282D01*
X003999Y014223D01*
X003965Y014167D01*
X003928Y014112D01*
X003888Y014060D01*
X003844Y014011D01*
X003798Y013964D01*
X003749Y013920D01*
X003698Y013879D01*
X003644Y013841D01*
X003588Y013806D01*
X003530Y013775D01*
X003470Y013748D01*
X003409Y013723D01*
X003346Y013703D01*
X003283Y013687D01*
X003218Y013674D01*
X003153Y013665D01*
X003087Y013660D01*
X003022Y013659D01*
X002956Y013662D01*
X002890Y013669D01*
X002825Y013680D01*
X002761Y013694D01*
X002698Y013713D01*
X002636Y013735D01*
X002576Y013761D01*
X002517Y013790D01*
X002460Y013823D01*
X002405Y013860D01*
X002352Y013899D01*
X002302Y013942D01*
X002254Y013987D01*
X002210Y014035D01*
X002168Y014086D01*
X002129Y014139D01*
X002094Y014195D01*
X002062Y014252D01*
X002033Y014312D01*
X002008Y014372D01*
X001987Y014435D01*
X001969Y014498D01*
X001956Y014563D01*
X001946Y014628D01*
X001940Y014693D01*
X001938Y014759D01*
X002938Y013809D02*
X003138Y013809D01*
X003038Y013909D02*
X003038Y013709D01*
X025434Y012709D02*
X025648Y012496D01*
X025541Y012278D02*
X025434Y012278D01*
X025541Y012278D02*
X025755Y012065D01*
X026075Y012065D01*
X025755Y012065D02*
X025541Y011851D01*
X025434Y011851D01*
X025648Y011634D02*
X026075Y011634D01*
X025755Y011634D02*
X025755Y011207D01*
X025648Y011207D02*
X025434Y011420D01*
X025648Y011634D01*
X025648Y011207D02*
X026075Y011207D01*
X026075Y010989D02*
X026075Y010562D01*
X025434Y010562D01*
X025434Y010345D02*
X025434Y009918D01*
X026075Y009918D01*
X026075Y010345D01*
X025755Y010131D02*
X025755Y009918D01*
X025755Y009700D02*
X025541Y009700D01*
X025434Y009593D01*
X025434Y009273D01*
X026075Y009273D01*
X025861Y009273D02*
X025861Y009593D01*
X025755Y009700D01*
X025861Y009487D02*
X026075Y009700D01*
X030786Y009628D02*
X030821Y009579D01*
X030852Y009527D01*
X030880Y009474D01*
X030905Y009419D01*
X030926Y009363D01*
X030944Y009305D01*
X030958Y009247D01*
X030968Y009187D01*
X030975Y009127D01*
X030978Y009067D01*
X030977Y009007D01*
X030972Y008947D01*
X030964Y008887D01*
X030952Y008828D01*
X030936Y008770D01*
X030916Y008713D01*
X030893Y008657D01*
X030867Y008603D01*
X030837Y008551D01*
X030804Y008500D01*
X030768Y008452D01*
X030708Y008442D02*
X030458Y009642D01*
X030408Y009592D02*
X030658Y008392D01*
X030783Y008469D02*
X030766Y008443D01*
X030747Y008420D01*
X030724Y008400D01*
X030700Y008383D01*
X030673Y008369D01*
X030644Y008358D01*
X030615Y008352D01*
X030585Y008349D01*
X030554Y008350D01*
X030525Y008355D01*
X030496Y008364D01*
X030468Y008377D01*
X030443Y008393D01*
X030419Y008412D01*
X030058Y008222D02*
X030058Y009822D01*
X031058Y009822D01*
X031058Y008222D01*
X030058Y008222D01*
X029958Y008022D02*
X031158Y008022D01*
X031158Y013962D01*
X031758Y013962D01*
X032158Y013962D01*
X032158Y013612D01*
X032308Y013612D02*
X032308Y013762D01*
X034108Y013762D01*
X034108Y012162D01*
X032308Y012162D01*
X032308Y012322D01*
X032158Y012312D02*
X032158Y011652D01*
X032308Y011642D02*
X032308Y011792D01*
X034108Y011792D01*
X034858Y011792D01*
X034858Y012162D01*
X034858Y013762D01*
X034108Y013762D01*
X034008Y013962D02*
X032158Y013962D01*
X031858Y014162D02*
X031758Y013962D01*
X031858Y014162D02*
X029958Y014162D01*
X029958Y013962D01*
X029958Y008022D01*
X029958Y007299D02*
X031858Y007299D01*
X031758Y007099D01*
X031158Y007099D01*
X031158Y001159D01*
X029958Y001159D01*
X029958Y007099D01*
X029958Y007299D01*
X029958Y007099D02*
X031158Y007099D01*
X031058Y006899D02*
X031058Y005299D01*
X030058Y005299D01*
X030058Y006899D01*
X031058Y006899D01*
X030458Y006709D02*
X030708Y005509D01*
X030658Y005459D02*
X030408Y006659D01*
X030419Y006699D02*
X030443Y006718D01*
X030468Y006734D01*
X030496Y006747D01*
X030524Y006757D01*
X030554Y006764D01*
X030584Y006768D01*
X030614Y006768D01*
X030645Y006764D01*
X030674Y006757D01*
X030703Y006747D01*
X030730Y006734D01*
X030756Y006718D01*
X030779Y006699D01*
X030801Y006677D01*
X031758Y007099D02*
X032158Y007099D01*
X032158Y006749D01*
X032308Y006749D02*
X032308Y006899D01*
X034108Y006899D01*
X034108Y005299D01*
X032308Y005299D01*
X032308Y005459D01*
X032158Y005449D02*
X032158Y004789D01*
X032308Y004779D02*
X032308Y004929D01*
X034108Y004929D01*
X034858Y004929D01*
X034858Y005299D01*
X034858Y006899D01*
X034108Y006899D01*
X034008Y007099D02*
X032158Y007099D01*
X032608Y006749D02*
X033858Y006749D01*
X033858Y005449D01*
X032608Y005449D01*
X032608Y004779D02*
X033858Y004779D01*
X033858Y003479D01*
X032608Y003479D01*
X032308Y003479D02*
X032308Y003329D01*
X034108Y003329D01*
X034108Y004929D01*
X034108Y005299D02*
X034858Y005299D01*
X035119Y005562D02*
X035760Y005989D01*
X035119Y005989D01*
X035226Y006207D02*
X035653Y006207D01*
X035760Y006313D01*
X035760Y006527D01*
X035653Y006634D01*
X035226Y006634D02*
X035119Y006527D01*
X035119Y006313D01*
X035226Y006207D01*
X035119Y005562D02*
X035760Y005562D01*
X034858Y004929D02*
X034858Y003329D01*
X034858Y002959D01*
X034858Y001359D01*
X034108Y001359D01*
X034108Y002959D01*
X032308Y002959D01*
X032308Y002809D01*
X032158Y002809D02*
X032158Y003479D01*
X032608Y002809D02*
X033858Y002809D01*
X033858Y001509D01*
X032608Y001509D01*
X032308Y001509D02*
X032308Y001359D01*
X034108Y001359D01*
X034858Y001359D02*
X034858Y001159D01*
X032158Y001159D01*
X032158Y001509D01*
X032158Y001159D02*
X031158Y001159D01*
X031058Y001359D02*
X030058Y001359D01*
X030058Y002959D01*
X031058Y002959D01*
X031058Y001359D01*
X030708Y001579D02*
X030458Y002779D01*
X030408Y002729D02*
X030658Y001529D01*
X030783Y001606D02*
X030766Y001580D01*
X030747Y001557D01*
X030724Y001537D01*
X030700Y001520D01*
X030673Y001506D01*
X030644Y001495D01*
X030615Y001489D01*
X030585Y001486D01*
X030554Y001487D01*
X030525Y001492D01*
X030496Y001501D01*
X030468Y001514D01*
X030443Y001530D01*
X030419Y001549D01*
X030438Y001529D02*
X030397Y001564D01*
X030358Y001603D01*
X030322Y001643D01*
X030289Y001687D01*
X030259Y001732D01*
X030231Y001779D01*
X030208Y001828D01*
X030187Y001879D01*
X030170Y001930D01*
X030156Y001983D01*
X030146Y002036D01*
X030140Y002090D01*
X030137Y002145D01*
X030138Y002199D01*
X030143Y002254D01*
X030151Y002307D01*
X030162Y002361D01*
X030178Y002413D01*
X030196Y002464D01*
X030219Y002514D01*
X030244Y002562D01*
X030273Y002608D01*
X030304Y002652D01*
X030339Y002694D01*
X030376Y002734D01*
X030416Y002771D01*
X030419Y002769D02*
X030443Y002788D01*
X030468Y002804D01*
X030496Y002817D01*
X030524Y002827D01*
X030554Y002834D01*
X030584Y002838D01*
X030614Y002838D01*
X030645Y002834D01*
X030674Y002827D01*
X030703Y002817D01*
X030730Y002804D01*
X030756Y002788D01*
X030779Y002769D01*
X030801Y002747D01*
X031058Y003329D02*
X030058Y003329D01*
X030058Y004929D01*
X031058Y004929D01*
X031058Y003329D01*
X030708Y003539D02*
X030458Y004739D01*
X030408Y004689D02*
X030658Y003489D01*
X030783Y003566D02*
X030766Y003540D01*
X030747Y003517D01*
X030724Y003497D01*
X030700Y003480D01*
X030673Y003466D01*
X030644Y003455D01*
X030615Y003449D01*
X030585Y003446D01*
X030554Y003447D01*
X030525Y003452D01*
X030496Y003461D01*
X030468Y003474D01*
X030443Y003490D01*
X030419Y003509D01*
X030438Y003489D02*
X030397Y003524D01*
X030358Y003563D01*
X030322Y003603D01*
X030289Y003647D01*
X030259Y003692D01*
X030231Y003739D01*
X030208Y003788D01*
X030187Y003839D01*
X030170Y003890D01*
X030156Y003943D01*
X030146Y003996D01*
X030140Y004050D01*
X030137Y004105D01*
X030138Y004159D01*
X030143Y004214D01*
X030151Y004267D01*
X030162Y004321D01*
X030178Y004373D01*
X030196Y004424D01*
X030219Y004474D01*
X030244Y004522D01*
X030273Y004568D01*
X030304Y004612D01*
X030339Y004654D01*
X030376Y004694D01*
X030416Y004731D01*
X030419Y004729D02*
X030443Y004748D01*
X030468Y004764D01*
X030496Y004777D01*
X030524Y004787D01*
X030554Y004794D01*
X030584Y004798D01*
X030614Y004798D01*
X030645Y004794D01*
X030674Y004787D01*
X030703Y004777D01*
X030730Y004764D01*
X030756Y004748D01*
X030779Y004729D01*
X030801Y004707D01*
X030786Y004725D02*
X030821Y004676D01*
X030852Y004624D01*
X030880Y004571D01*
X030905Y004516D01*
X030926Y004460D01*
X030944Y004402D01*
X030958Y004344D01*
X030968Y004284D01*
X030975Y004224D01*
X030978Y004164D01*
X030977Y004104D01*
X030972Y004044D01*
X030964Y003984D01*
X030952Y003925D01*
X030936Y003867D01*
X030916Y003810D01*
X030893Y003754D01*
X030867Y003700D01*
X030837Y003648D01*
X030804Y003597D01*
X030768Y003549D01*
X030786Y002765D02*
X030821Y002716D01*
X030852Y002664D01*
X030880Y002611D01*
X030905Y002556D01*
X030926Y002500D01*
X030944Y002442D01*
X030958Y002384D01*
X030968Y002324D01*
X030975Y002264D01*
X030978Y002204D01*
X030977Y002144D01*
X030972Y002084D01*
X030964Y002024D01*
X030952Y001965D01*
X030936Y001907D01*
X030916Y001850D01*
X030893Y001794D01*
X030867Y001740D01*
X030837Y001688D01*
X030804Y001637D01*
X030768Y001589D01*
X034108Y002959D02*
X034858Y002959D01*
X035187Y002697D02*
X035080Y002590D01*
X035080Y002376D01*
X035187Y002270D01*
X035614Y002270D01*
X035721Y002376D01*
X035721Y002590D01*
X035614Y002697D01*
X035187Y002697D01*
X035080Y002052D02*
X035721Y002052D01*
X035080Y001625D01*
X035721Y001625D01*
X034858Y003329D02*
X034108Y003329D01*
X035119Y003944D02*
X035226Y003837D01*
X035653Y003837D01*
X035760Y003944D01*
X035760Y004157D01*
X035653Y004264D01*
X035226Y004264D02*
X035119Y004157D01*
X035119Y003944D01*
X030438Y005459D02*
X030397Y005494D01*
X030358Y005533D01*
X030322Y005574D01*
X030289Y005617D01*
X030259Y005662D01*
X030231Y005709D01*
X030208Y005758D01*
X030187Y005809D01*
X030170Y005860D01*
X030156Y005913D01*
X030146Y005966D01*
X030140Y006021D01*
X030137Y006075D01*
X030138Y006129D01*
X030143Y006184D01*
X030151Y006237D01*
X030162Y006291D01*
X030178Y006343D01*
X030197Y006394D01*
X030219Y006444D01*
X030244Y006492D01*
X030273Y006538D01*
X030304Y006582D01*
X030339Y006624D01*
X030376Y006664D01*
X030416Y006701D01*
X030786Y006695D02*
X030821Y006646D01*
X030852Y006594D01*
X030880Y006541D01*
X030905Y006486D01*
X030926Y006430D01*
X030944Y006372D01*
X030958Y006314D01*
X030968Y006254D01*
X030975Y006194D01*
X030978Y006134D01*
X030977Y006074D01*
X030972Y006014D01*
X030964Y005954D01*
X030952Y005895D01*
X030936Y005837D01*
X030916Y005780D01*
X030893Y005724D01*
X030867Y005670D01*
X030837Y005618D01*
X030804Y005567D01*
X030768Y005519D01*
X030783Y005536D02*
X030766Y005510D01*
X030747Y005487D01*
X030724Y005467D01*
X030700Y005450D01*
X030673Y005436D01*
X030644Y005425D01*
X030615Y005419D01*
X030585Y005416D01*
X030554Y005417D01*
X030525Y005422D01*
X030496Y005431D01*
X030468Y005444D01*
X030443Y005460D01*
X030419Y005479D01*
X033908Y007299D02*
X034008Y007099D01*
X034458Y007099D01*
X034858Y007099D01*
X034858Y006899D01*
X034458Y007099D02*
X034558Y007299D01*
X033908Y007299D01*
X034858Y008022D02*
X032158Y008022D01*
X032158Y008372D01*
X032308Y008372D02*
X032308Y008222D01*
X034108Y008222D01*
X034858Y008222D01*
X034858Y009822D01*
X034858Y010192D01*
X034858Y011792D01*
X034858Y012162D02*
X034108Y012162D01*
X033858Y012312D02*
X032608Y012312D01*
X032608Y011642D02*
X033858Y011642D01*
X033858Y010342D01*
X032608Y010342D01*
X032308Y010342D02*
X032308Y010192D01*
X034108Y010192D01*
X034108Y011792D01*
X033858Y012312D02*
X033858Y013612D01*
X032608Y013612D01*
X033908Y014162D02*
X034558Y014162D01*
X034458Y013962D01*
X034008Y013962D01*
X033908Y014162D01*
X034458Y013962D02*
X034858Y013962D01*
X034858Y013762D01*
X035119Y013417D02*
X035226Y013523D01*
X035119Y013417D02*
X035119Y013203D01*
X035226Y013096D01*
X035653Y013096D01*
X035760Y013203D01*
X035760Y013417D01*
X035653Y013523D01*
X035760Y012879D02*
X035119Y012879D01*
X035119Y012452D02*
X035760Y012879D01*
X035760Y012452D02*
X035119Y012452D01*
X035226Y011193D02*
X035119Y011087D01*
X035119Y010873D01*
X035226Y010766D01*
X035653Y010766D01*
X035760Y010873D01*
X035760Y011087D01*
X035653Y011193D01*
X034858Y010192D02*
X034108Y010192D01*
X034108Y009822D02*
X032308Y009822D01*
X032308Y009672D01*
X032158Y009672D02*
X032158Y010342D01*
X032608Y009672D02*
X033858Y009672D01*
X033858Y008372D01*
X032608Y008372D01*
X032158Y008022D02*
X031158Y008022D01*
X030438Y008392D02*
X030397Y008427D01*
X030358Y008466D01*
X030322Y008506D01*
X030289Y008550D01*
X030259Y008595D01*
X030231Y008642D01*
X030208Y008691D01*
X030187Y008742D01*
X030170Y008793D01*
X030156Y008846D01*
X030146Y008899D01*
X030140Y008953D01*
X030137Y009008D01*
X030138Y009062D01*
X030143Y009117D01*
X030151Y009170D01*
X030162Y009224D01*
X030178Y009276D01*
X030196Y009327D01*
X030219Y009377D01*
X030244Y009425D01*
X030273Y009471D01*
X030304Y009515D01*
X030339Y009557D01*
X030376Y009597D01*
X030416Y009634D01*
X030419Y009632D02*
X030443Y009651D01*
X030468Y009667D01*
X030496Y009680D01*
X030524Y009690D01*
X030554Y009697D01*
X030584Y009701D01*
X030614Y009701D01*
X030645Y009697D01*
X030674Y009690D01*
X030703Y009680D01*
X030730Y009667D01*
X030756Y009651D01*
X030779Y009632D01*
X030801Y009610D01*
X031058Y010192D02*
X030058Y010192D01*
X030058Y011792D01*
X031058Y011792D01*
X031058Y010192D01*
X030708Y010402D02*
X030458Y011602D01*
X030408Y011552D02*
X030658Y010352D01*
X030783Y010429D02*
X030766Y010403D01*
X030747Y010380D01*
X030724Y010360D01*
X030700Y010343D01*
X030673Y010329D01*
X030644Y010318D01*
X030615Y010312D01*
X030585Y010309D01*
X030554Y010310D01*
X030525Y010315D01*
X030496Y010324D01*
X030468Y010337D01*
X030443Y010353D01*
X030419Y010372D01*
X030768Y010412D02*
X030804Y010460D01*
X030837Y010511D01*
X030867Y010563D01*
X030893Y010617D01*
X030916Y010673D01*
X030936Y010730D01*
X030952Y010788D01*
X030964Y010847D01*
X030972Y010907D01*
X030977Y010967D01*
X030978Y011027D01*
X030975Y011087D01*
X030968Y011147D01*
X030958Y011207D01*
X030944Y011265D01*
X030926Y011323D01*
X030905Y011379D01*
X030880Y011434D01*
X030852Y011487D01*
X030821Y011539D01*
X030786Y011588D01*
X030801Y011570D02*
X030779Y011592D01*
X030756Y011611D01*
X030730Y011627D01*
X030703Y011640D01*
X030674Y011650D01*
X030645Y011657D01*
X030614Y011661D01*
X030584Y011661D01*
X030554Y011657D01*
X030524Y011650D01*
X030496Y011640D01*
X030468Y011627D01*
X030443Y011611D01*
X030419Y011592D01*
X030058Y012162D02*
X030058Y013762D01*
X031058Y013762D01*
X031058Y012162D01*
X030058Y012162D01*
X030658Y012322D02*
X030408Y013522D01*
X030458Y013572D02*
X030708Y012372D01*
X030783Y012399D02*
X030766Y012373D01*
X030747Y012350D01*
X030724Y012330D01*
X030700Y012313D01*
X030673Y012299D01*
X030644Y012288D01*
X030615Y012282D01*
X030585Y012279D01*
X030554Y012280D01*
X030525Y012285D01*
X030496Y012294D01*
X030468Y012307D01*
X030443Y012323D01*
X030419Y012342D01*
X030768Y012382D02*
X030804Y012430D01*
X030837Y012481D01*
X030867Y012533D01*
X030893Y012587D01*
X030916Y012643D01*
X030936Y012700D01*
X030952Y012758D01*
X030964Y012817D01*
X030972Y012877D01*
X030977Y012937D01*
X030978Y012997D01*
X030975Y013057D01*
X030968Y013117D01*
X030958Y013177D01*
X030944Y013235D01*
X030926Y013293D01*
X030905Y013349D01*
X030880Y013404D01*
X030852Y013457D01*
X030821Y013509D01*
X030786Y013558D01*
X030801Y013540D02*
X030779Y013562D01*
X030756Y013581D01*
X030730Y013597D01*
X030703Y013610D01*
X030674Y013620D01*
X030645Y013627D01*
X030614Y013631D01*
X030584Y013631D01*
X030554Y013627D01*
X030524Y013620D01*
X030496Y013610D01*
X030468Y013597D01*
X030443Y013581D01*
X030419Y013562D01*
X029958Y013962D02*
X031158Y013962D01*
X030416Y013564D02*
X030376Y013527D01*
X030339Y013487D01*
X030304Y013445D01*
X030273Y013401D01*
X030244Y013355D01*
X030219Y013307D01*
X030197Y013257D01*
X030178Y013206D01*
X030162Y013154D01*
X030151Y013100D01*
X030143Y013047D01*
X030138Y012992D01*
X030137Y012938D01*
X030140Y012884D01*
X030146Y012829D01*
X030156Y012776D01*
X030170Y012723D01*
X030187Y012672D01*
X030208Y012621D01*
X030231Y012572D01*
X030259Y012525D01*
X030289Y012480D01*
X030322Y012437D01*
X030358Y012396D01*
X030397Y012357D01*
X030438Y012322D01*
X030416Y011594D02*
X030376Y011557D01*
X030339Y011517D01*
X030304Y011475D01*
X030273Y011431D01*
X030244Y011385D01*
X030219Y011337D01*
X030196Y011287D01*
X030178Y011236D01*
X030162Y011184D01*
X030151Y011130D01*
X030143Y011077D01*
X030138Y011022D01*
X030137Y010968D01*
X030140Y010913D01*
X030146Y010859D01*
X030156Y010806D01*
X030170Y010753D01*
X030187Y010702D01*
X030208Y010651D01*
X030231Y010602D01*
X030259Y010555D01*
X030289Y010510D01*
X030322Y010466D01*
X030358Y010426D01*
X030397Y010387D01*
X030438Y010352D01*
X034108Y009822D02*
X034108Y008222D01*
X034858Y008222D02*
X034858Y008022D01*
X035080Y008476D02*
X035721Y008903D01*
X035080Y008903D01*
X035187Y009120D02*
X035614Y009120D01*
X035721Y009227D01*
X035721Y009440D01*
X035614Y009547D01*
X035187Y009547D01*
X035080Y009440D01*
X035080Y009227D01*
X035187Y009120D01*
X035080Y008476D02*
X035721Y008476D01*
X034858Y009822D02*
X034108Y009822D01*
X026075Y012496D02*
X026075Y012923D01*
X026075Y012709D02*
X025434Y012709D01*
X025699Y005994D02*
X025592Y005887D01*
X025592Y005673D01*
X025699Y005567D01*
X025699Y005349D02*
X025592Y005349D01*
X025699Y005349D02*
X025912Y005136D01*
X026232Y005136D01*
X025912Y005136D02*
X025699Y004922D01*
X025592Y004922D01*
X025805Y004705D02*
X026232Y004705D01*
X025912Y004705D02*
X025912Y004278D01*
X025805Y004278D02*
X025592Y004491D01*
X025805Y004705D01*
X025805Y004278D02*
X026232Y004278D01*
X026232Y004060D02*
X026232Y003633D01*
X025592Y003633D01*
X025592Y003415D02*
X025592Y002988D01*
X026232Y002988D01*
X026232Y003415D01*
X025912Y003202D02*
X025912Y002988D01*
X025912Y002771D02*
X025699Y002771D01*
X025592Y002664D01*
X025592Y002344D01*
X026232Y002344D01*
X026019Y002344D02*
X026019Y002664D01*
X025912Y002771D01*
X026019Y002557D02*
X026232Y002771D01*
X026232Y005567D02*
X025805Y005994D01*
X025699Y005994D01*
X026232Y005994D02*
X026232Y005567D01*
D13*
X010046Y005630D02*
X009969Y005553D01*
X009816Y005553D01*
X009739Y005630D01*
X009739Y005783D02*
X009893Y005860D01*
X009969Y005860D01*
X010046Y005783D01*
X010046Y005630D01*
X009739Y005783D02*
X009739Y006013D01*
X010046Y006013D01*
X009586Y005937D02*
X009279Y005630D01*
X009356Y005553D01*
X009509Y005553D01*
X009586Y005630D01*
X009586Y005937D01*
X009509Y006013D01*
X009356Y006013D01*
X009279Y005937D01*
X009279Y005630D01*
X009125Y005630D02*
X009049Y005553D01*
X008895Y005553D01*
X008818Y005630D01*
X008818Y005706D01*
X008895Y005783D01*
X009049Y005783D01*
X009125Y005706D01*
X009125Y005630D01*
X009049Y005783D02*
X009125Y005860D01*
X009125Y005937D01*
X009049Y006013D01*
X008895Y006013D01*
X008818Y005937D01*
X008818Y005860D01*
X008895Y005783D01*
X008665Y005937D02*
X008358Y005630D01*
X008358Y005553D01*
X008358Y006013D02*
X008665Y006013D01*
X008665Y005937D01*
X008507Y016839D02*
X008583Y016915D01*
X008583Y017069D01*
X008507Y017146D01*
X008353Y017146D01*
X008276Y017069D01*
X008276Y016992D01*
X008353Y016839D01*
X008123Y016839D01*
X008123Y017146D01*
X008123Y017299D02*
X008430Y017299D01*
X008583Y017452D01*
X008430Y017606D01*
X008123Y017606D01*
X007560Y017606D02*
X007560Y017299D01*
X007253Y017606D01*
X007176Y017606D01*
X007099Y017529D01*
X007099Y017376D01*
X007176Y017299D01*
X007253Y017146D02*
X007099Y016992D01*
X007253Y016839D01*
X007560Y016839D01*
X007330Y016839D02*
X007330Y017146D01*
X007253Y017146D02*
X007560Y017146D01*
X010643Y016992D02*
X010796Y016839D01*
X011103Y016839D01*
X010873Y016839D02*
X010873Y017146D01*
X010796Y017146D02*
X011103Y017146D01*
X011103Y017299D02*
X011103Y017606D01*
X011103Y017452D02*
X010643Y017452D01*
X010796Y017299D01*
X010796Y017146D02*
X010643Y016992D01*
X011627Y016839D02*
X011857Y016839D01*
X011780Y016992D01*
X011780Y017069D01*
X011857Y017146D01*
X012011Y017146D01*
X012087Y017069D01*
X012087Y016915D01*
X012011Y016839D01*
X011627Y016839D02*
X011627Y017146D01*
X011627Y017299D02*
X011934Y017299D01*
X012087Y017452D01*
X011934Y017606D01*
X011627Y017606D01*
X014186Y017569D02*
X014263Y017645D01*
X014570Y017338D01*
X014646Y017415D01*
X014646Y017569D01*
X014570Y017645D01*
X014263Y017645D01*
X014186Y017569D02*
X014186Y017415D01*
X014263Y017338D01*
X014570Y017338D01*
X014646Y017185D02*
X014339Y017185D01*
X014186Y017031D01*
X014339Y016878D01*
X014646Y016878D01*
X014416Y016878D02*
X014416Y017185D01*
X015210Y017185D02*
X015210Y016878D01*
X015440Y016878D01*
X015363Y017031D01*
X015363Y017108D01*
X015440Y017185D01*
X015593Y017185D01*
X015670Y017108D01*
X015670Y016955D01*
X015593Y016878D01*
X015516Y017338D02*
X015670Y017492D01*
X015516Y017645D01*
X015210Y017645D01*
X015210Y017338D02*
X015516Y017338D01*
X017699Y017465D02*
X017699Y017638D01*
X017786Y017725D01*
X017873Y017725D01*
X017959Y017638D01*
X017959Y017465D01*
X017873Y017378D01*
X017786Y017378D01*
X017699Y017465D01*
X017959Y017465D02*
X018046Y017378D01*
X018133Y017378D01*
X018220Y017465D01*
X018220Y017638D01*
X018133Y017725D01*
X018046Y017725D01*
X017959Y017638D01*
X017786Y017209D02*
X017699Y017122D01*
X017699Y016862D01*
X018220Y016862D01*
X018220Y017122D01*
X018133Y017209D01*
X017786Y017209D01*
X018753Y017224D02*
X018753Y016917D01*
X018983Y016917D01*
X018906Y017071D01*
X018906Y017148D01*
X018983Y017224D01*
X019137Y017224D01*
X019213Y017148D01*
X019213Y016994D01*
X019137Y016917D01*
X019060Y017378D02*
X018753Y017378D01*
X019060Y017378D02*
X019213Y017531D01*
X019060Y017685D01*
X018753Y017685D01*
X021243Y017725D02*
X021243Y017378D01*
X021329Y017209D02*
X021243Y017122D01*
X021243Y016862D01*
X021763Y016862D01*
X021763Y017122D01*
X021676Y017209D01*
X021329Y017209D01*
X021676Y017378D02*
X021763Y017378D01*
X021676Y017378D02*
X021329Y017725D01*
X021243Y017725D01*
X022257Y017645D02*
X022564Y017645D01*
X022717Y017492D01*
X022564Y017338D01*
X022257Y017338D01*
X022257Y017185D02*
X022257Y016878D01*
X022487Y016878D01*
X022410Y017031D01*
X022410Y017108D01*
X022487Y017185D01*
X022640Y017185D01*
X022717Y017108D01*
X022717Y016955D01*
X022640Y016878D01*
X024786Y016862D02*
X024786Y017122D01*
X024873Y017209D01*
X025220Y017209D01*
X025306Y017122D01*
X025306Y016862D01*
X024786Y016862D01*
X025046Y017378D02*
X025046Y017638D01*
X025133Y017725D01*
X025220Y017725D01*
X025306Y017638D01*
X025306Y017465D01*
X025220Y017378D01*
X025046Y017378D01*
X024873Y017551D01*
X024786Y017725D01*
X025839Y017645D02*
X026146Y017645D01*
X026300Y017492D01*
X026146Y017338D01*
X025839Y017338D01*
X025839Y017185D02*
X025839Y016878D01*
X026070Y016878D01*
X025993Y017031D01*
X025993Y017108D01*
X026070Y017185D01*
X026223Y017185D01*
X026300Y017108D01*
X026300Y016955D01*
X026223Y016878D01*
X028329Y016862D02*
X028329Y017122D01*
X028416Y017209D01*
X028763Y017209D01*
X028850Y017122D01*
X028850Y016862D01*
X028329Y016862D01*
X028329Y017378D02*
X028589Y017378D01*
X028503Y017551D01*
X028503Y017638D01*
X028589Y017725D01*
X028763Y017725D01*
X028850Y017638D01*
X028850Y017465D01*
X028763Y017378D01*
X028329Y017378D02*
X028329Y017725D01*
X029383Y017645D02*
X029690Y017645D01*
X029843Y017492D01*
X029690Y017338D01*
X029383Y017338D01*
X029383Y017185D02*
X029383Y016878D01*
X029613Y016878D01*
X029536Y017031D01*
X029536Y017108D01*
X029613Y017185D01*
X029766Y017185D01*
X029843Y017108D01*
X029843Y016955D01*
X029766Y016878D01*
X031872Y016862D02*
X031872Y017122D01*
X031959Y017209D01*
X032306Y017209D01*
X032393Y017122D01*
X032393Y016862D01*
X031872Y016862D01*
X032133Y017378D02*
X032133Y017725D01*
X032393Y017638D02*
X031872Y017638D01*
X032133Y017378D01*
X032926Y017338D02*
X033233Y017338D01*
X033386Y017492D01*
X033233Y017645D01*
X032926Y017645D01*
X032926Y017185D02*
X032926Y016878D01*
X033156Y016878D01*
X033080Y017031D01*
X033080Y017108D01*
X033156Y017185D01*
X033310Y017185D01*
X033386Y017108D01*
X033386Y016955D01*
X033310Y016878D01*
X033310Y020421D02*
X033386Y020498D01*
X033386Y020652D01*
X033310Y020728D01*
X033156Y020728D01*
X033080Y020652D01*
X033080Y020575D01*
X033156Y020421D01*
X032926Y020421D01*
X032926Y020728D01*
X032926Y020882D02*
X033233Y020882D01*
X033386Y021035D01*
X033233Y021189D01*
X032926Y021189D01*
X032393Y021181D02*
X032393Y021008D01*
X032306Y020921D01*
X032306Y020752D02*
X031959Y020752D01*
X031872Y020666D01*
X031872Y020405D01*
X032393Y020405D01*
X032393Y020666D01*
X032306Y020752D01*
X032133Y021008D02*
X032133Y021268D01*
X032306Y021268D02*
X031959Y021268D01*
X031872Y021181D01*
X031872Y021008D01*
X031959Y020921D01*
X032046Y020921D01*
X032133Y021008D01*
X032393Y021181D02*
X032306Y021268D01*
X029843Y021075D02*
X029690Y021228D01*
X029383Y021228D01*
X029383Y020921D02*
X029690Y020921D01*
X029843Y021075D01*
X029766Y020768D02*
X029613Y020768D01*
X029536Y020691D01*
X029536Y020614D01*
X029613Y020461D01*
X029383Y020461D01*
X029383Y020768D01*
X029766Y020768D02*
X029843Y020691D01*
X029843Y020537D01*
X029766Y020461D01*
X026300Y020537D02*
X026223Y020461D01*
X026300Y020537D02*
X026300Y020691D01*
X026223Y020768D01*
X026070Y020768D01*
X025993Y020691D01*
X025993Y020614D01*
X026070Y020461D01*
X025839Y020461D01*
X025839Y020768D01*
X025839Y020921D02*
X026146Y020921D01*
X026300Y021075D01*
X026146Y021228D01*
X025839Y021228D01*
X022717Y021035D02*
X022564Y021189D01*
X022257Y021189D01*
X022257Y020882D02*
X022564Y020882D01*
X022717Y021035D01*
X022640Y020728D02*
X022717Y020652D01*
X022717Y020498D01*
X022640Y020421D01*
X022487Y020421D02*
X022410Y020575D01*
X022410Y020652D01*
X022487Y020728D01*
X022640Y020728D01*
X022257Y020728D02*
X022257Y020421D01*
X022487Y020421D01*
X019174Y020498D02*
X019097Y020421D01*
X019174Y020498D02*
X019174Y020652D01*
X019097Y020728D01*
X018944Y020728D01*
X018867Y020652D01*
X018867Y020575D01*
X018944Y020421D01*
X018714Y020421D01*
X018714Y020728D01*
X018714Y020882D02*
X019020Y020882D01*
X019174Y021035D01*
X019020Y021189D01*
X018714Y021189D01*
X015631Y021035D02*
X015477Y021189D01*
X015170Y021189D01*
X015170Y020882D02*
X015477Y020882D01*
X015631Y021035D01*
X015554Y020728D02*
X015631Y020652D01*
X015631Y020498D01*
X015554Y020421D01*
X015400Y020421D02*
X015324Y020575D01*
X015324Y020652D01*
X015400Y020728D01*
X015554Y020728D01*
X015170Y020728D02*
X015170Y020421D01*
X015400Y020421D01*
X014646Y020421D02*
X014339Y020421D01*
X014186Y020575D01*
X014339Y020728D01*
X014646Y020728D01*
X014570Y020882D02*
X014646Y020958D01*
X014646Y021112D01*
X014570Y021189D01*
X014493Y021189D01*
X014416Y021112D01*
X014416Y021035D01*
X014416Y021112D02*
X014339Y021189D01*
X014263Y021189D01*
X014186Y021112D01*
X014186Y020958D01*
X014263Y020882D01*
X014416Y020728D02*
X014416Y020421D01*
X012087Y020537D02*
X012011Y020461D01*
X012087Y020537D02*
X012087Y020691D01*
X012011Y020768D01*
X011857Y020768D01*
X011780Y020691D01*
X011780Y020614D01*
X011857Y020461D01*
X011627Y020461D01*
X011627Y020768D01*
X011627Y020921D02*
X011934Y020921D01*
X012087Y021075D01*
X011934Y021228D01*
X011627Y021228D01*
X011103Y021151D02*
X010643Y021151D01*
X010873Y020921D01*
X010873Y021228D01*
X010873Y020768D02*
X010873Y020461D01*
X010796Y020461D02*
X011103Y020461D01*
X011103Y020768D02*
X010796Y020768D01*
X010643Y020614D01*
X010796Y020461D01*
X008583Y020498D02*
X008507Y020421D01*
X008583Y020498D02*
X008583Y020652D01*
X008507Y020728D01*
X008353Y020728D01*
X008276Y020652D01*
X008276Y020575D01*
X008353Y020421D01*
X008123Y020421D01*
X008123Y020728D01*
X008123Y020882D02*
X008430Y020882D01*
X008583Y021035D01*
X008430Y021189D01*
X008123Y021189D01*
X007560Y021112D02*
X007560Y020958D01*
X007483Y020882D01*
X007330Y020882D02*
X007253Y021035D01*
X007253Y021112D01*
X007330Y021189D01*
X007483Y021189D01*
X007560Y021112D01*
X007330Y020882D02*
X007099Y020882D01*
X007099Y021189D01*
X007253Y020728D02*
X007560Y020728D01*
X007330Y020728D02*
X007330Y020421D01*
X007253Y020421D02*
X007099Y020575D01*
X007253Y020728D01*
X007253Y020421D02*
X007560Y020421D01*
D14*
X009152Y020465D02*
X009214Y020403D01*
X009461Y020403D01*
X009523Y020465D01*
X009523Y020588D01*
X009461Y020650D01*
X009337Y020650D01*
X009337Y020526D01*
X009214Y020650D02*
X009152Y020588D01*
X009152Y020465D01*
X009152Y020771D02*
X009523Y021018D01*
X009152Y021018D01*
X009152Y021140D02*
X009152Y021325D01*
X009214Y021386D01*
X009461Y021386D01*
X009523Y021325D01*
X009523Y021140D01*
X009152Y021140D01*
X009152Y020771D02*
X009523Y020771D01*
X012696Y020771D02*
X013066Y021018D01*
X012696Y021018D01*
X012696Y021140D02*
X012696Y021325D01*
X012757Y021386D01*
X013004Y021386D01*
X013066Y021325D01*
X013066Y021140D01*
X012696Y021140D01*
X012696Y020771D02*
X013066Y020771D01*
X013004Y020650D02*
X012881Y020650D01*
X012881Y020526D01*
X013004Y020403D02*
X013066Y020465D01*
X013066Y020588D01*
X013004Y020650D01*
X012757Y020650D02*
X012696Y020588D01*
X012696Y020465D01*
X012757Y020403D01*
X013004Y020403D01*
X016239Y020465D02*
X016301Y020403D01*
X016547Y020403D01*
X016609Y020465D01*
X016609Y020588D01*
X016547Y020650D01*
X016424Y020650D01*
X016424Y020526D01*
X016301Y020650D02*
X016239Y020588D01*
X016239Y020465D01*
X016239Y020771D02*
X016609Y021018D01*
X016239Y021018D01*
X016239Y021140D02*
X016239Y021325D01*
X016301Y021386D01*
X016547Y021386D01*
X016609Y021325D01*
X016609Y021140D01*
X016239Y021140D01*
X016239Y020771D02*
X016609Y020771D01*
X017774Y020895D02*
X017898Y020771D01*
X017836Y020650D02*
X017774Y020588D01*
X017774Y020403D01*
X018145Y020403D01*
X018145Y020588D01*
X018083Y020650D01*
X017836Y020650D01*
X018145Y020771D02*
X018145Y021018D01*
X018145Y020895D02*
X017774Y020895D01*
X017836Y021140D02*
X017774Y021201D01*
X017774Y021325D01*
X017836Y021386D01*
X017898Y021386D01*
X017959Y021325D01*
X018021Y021386D01*
X018083Y021386D01*
X018145Y021325D01*
X018145Y021201D01*
X018083Y021140D01*
X017959Y021263D02*
X017959Y021325D01*
X019782Y021285D02*
X019782Y021100D01*
X020153Y021100D01*
X020153Y021285D01*
X020091Y021347D01*
X019844Y021347D01*
X019782Y021285D01*
X019782Y021100D01*
X020153Y021100D01*
X020153Y021285D01*
X020091Y021347D01*
X019844Y021347D01*
X019782Y021285D01*
X019782Y020979D02*
X020153Y020979D01*
X019782Y020732D01*
X020153Y020732D01*
X019782Y020732D01*
X020153Y020979D01*
X019782Y020979D01*
X019844Y020610D02*
X019782Y020549D01*
X019782Y020425D01*
X019844Y020364D01*
X020091Y020364D01*
X020153Y020425D01*
X020153Y020549D01*
X020091Y020610D01*
X019967Y020610D01*
X019967Y020487D01*
X019967Y020610D01*
X020091Y020610D01*
X020153Y020549D01*
X020153Y020425D01*
X020091Y020364D01*
X019844Y020364D01*
X019782Y020425D01*
X019782Y020549D01*
X019844Y020610D01*
X021318Y020588D02*
X021318Y020403D01*
X021688Y020403D01*
X021688Y020588D01*
X021626Y020650D01*
X021379Y020650D01*
X021318Y020588D01*
X021441Y020771D02*
X021318Y020895D01*
X021688Y020895D01*
X021688Y021018D02*
X021688Y020771D01*
X021688Y021140D02*
X021441Y021386D01*
X021379Y021386D01*
X021318Y021325D01*
X021318Y021201D01*
X021379Y021140D01*
X021688Y021140D02*
X021688Y021386D01*
X023326Y021325D02*
X023326Y021140D01*
X023696Y021140D01*
X023696Y021325D01*
X023634Y021386D01*
X023387Y021386D01*
X023326Y021325D01*
X023326Y021018D02*
X023696Y021018D01*
X023326Y020771D01*
X023696Y020771D01*
X023634Y020650D02*
X023511Y020650D01*
X023511Y020526D01*
X023634Y020403D02*
X023387Y020403D01*
X023326Y020465D01*
X023326Y020588D01*
X023387Y020650D01*
X023634Y020650D02*
X023696Y020588D01*
X023696Y020465D01*
X023634Y020403D01*
X024861Y020403D02*
X024861Y020588D01*
X024923Y020650D01*
X025170Y020650D01*
X025231Y020588D01*
X025231Y020403D01*
X024861Y020403D01*
X024984Y020771D02*
X024861Y020895D01*
X025231Y020895D01*
X025231Y021018D02*
X025231Y020771D01*
X025231Y021140D02*
X025231Y021386D01*
X025231Y021263D02*
X024861Y021263D01*
X024984Y021140D01*
X026869Y021140D02*
X026869Y021325D01*
X026931Y021386D01*
X027177Y021386D01*
X027239Y021325D01*
X027239Y021140D01*
X026869Y021140D01*
X026869Y021018D02*
X027239Y021018D01*
X026869Y020771D01*
X027239Y020771D01*
X027177Y020650D02*
X027054Y020650D01*
X027054Y020526D01*
X026931Y020403D02*
X027177Y020403D01*
X027239Y020465D01*
X027239Y020588D01*
X027177Y020650D01*
X026931Y020650D02*
X026869Y020588D01*
X026869Y020465D01*
X026931Y020403D01*
X028404Y020403D02*
X028404Y020588D01*
X028466Y020650D01*
X028713Y020650D01*
X028775Y020588D01*
X028775Y020403D01*
X028404Y020403D01*
X028528Y020771D02*
X028404Y020895D01*
X028775Y020895D01*
X028775Y021018D02*
X028775Y020771D01*
X028713Y021140D02*
X028466Y021140D01*
X028404Y021201D01*
X028404Y021325D01*
X028466Y021386D01*
X028713Y021140D01*
X028775Y021201D01*
X028775Y021325D01*
X028713Y021386D01*
X028466Y021386D01*
X030412Y021325D02*
X030412Y021140D01*
X030782Y021140D01*
X030782Y021325D01*
X030721Y021386D01*
X030474Y021386D01*
X030412Y021325D01*
X030412Y021018D02*
X030782Y021018D01*
X030412Y020771D01*
X030782Y020771D01*
X030721Y020650D02*
X030597Y020650D01*
X030597Y020526D01*
X030474Y020403D02*
X030721Y020403D01*
X030782Y020465D01*
X030782Y020588D01*
X030721Y020650D01*
X030474Y020650D02*
X030412Y020588D01*
X030412Y020465D01*
X030474Y020403D01*
X033955Y020465D02*
X034017Y020403D01*
X034264Y020403D01*
X034326Y020465D01*
X034326Y020588D01*
X034264Y020650D01*
X034141Y020650D01*
X034141Y020526D01*
X034017Y020650D02*
X033955Y020588D01*
X033955Y020465D01*
X033955Y020771D02*
X034326Y021018D01*
X033955Y021018D01*
X033955Y021140D02*
X033955Y021325D01*
X034017Y021386D01*
X034264Y021386D01*
X034326Y021325D01*
X034326Y021140D01*
X033955Y021140D01*
X033955Y020771D02*
X034326Y020771D01*
X034264Y017843D02*
X034017Y017843D01*
X033955Y017781D01*
X033955Y017596D01*
X034326Y017596D01*
X034326Y017781D01*
X034264Y017843D01*
X034326Y017475D02*
X033955Y017475D01*
X033955Y017228D02*
X034326Y017475D01*
X034326Y017228D02*
X033955Y017228D01*
X034017Y017107D02*
X033955Y017045D01*
X033955Y016921D01*
X034017Y016860D01*
X034264Y016860D01*
X034326Y016921D01*
X034326Y017045D01*
X034264Y017107D01*
X034141Y017107D01*
X034141Y016983D01*
X030782Y016921D02*
X030782Y017045D01*
X030721Y017107D01*
X030597Y017107D01*
X030597Y016983D01*
X030474Y016860D02*
X030412Y016921D01*
X030412Y017045D01*
X030474Y017107D01*
X030412Y017228D02*
X030782Y017475D01*
X030412Y017475D01*
X030412Y017596D02*
X030412Y017781D01*
X030474Y017843D01*
X030721Y017843D01*
X030782Y017781D01*
X030782Y017596D01*
X030412Y017596D01*
X030412Y017228D02*
X030782Y017228D01*
X030782Y016921D02*
X030721Y016860D01*
X030474Y016860D01*
X027239Y016921D02*
X027239Y017045D01*
X027177Y017107D01*
X027054Y017107D01*
X027054Y016983D01*
X026931Y016860D02*
X027177Y016860D01*
X027239Y016921D01*
X026931Y016860D02*
X026869Y016921D01*
X026869Y017045D01*
X026931Y017107D01*
X026869Y017228D02*
X027239Y017475D01*
X026869Y017475D01*
X026869Y017596D02*
X026869Y017781D01*
X026931Y017843D01*
X027177Y017843D01*
X027239Y017781D01*
X027239Y017596D01*
X026869Y017596D01*
X026869Y017228D02*
X027239Y017228D01*
X023696Y017228D02*
X023326Y017228D01*
X023696Y017475D01*
X023326Y017475D01*
X023326Y017596D02*
X023326Y017781D01*
X023387Y017843D01*
X023634Y017843D01*
X023696Y017781D01*
X023696Y017596D01*
X023326Y017596D01*
X023387Y017107D02*
X023326Y017045D01*
X023326Y016921D01*
X023387Y016860D01*
X023634Y016860D01*
X023696Y016921D01*
X023696Y017045D01*
X023634Y017107D01*
X023511Y017107D01*
X023511Y016983D01*
X020153Y016921D02*
X020153Y017045D01*
X020091Y017107D01*
X019967Y017107D01*
X019967Y016983D01*
X019844Y016860D02*
X020091Y016860D01*
X020153Y016921D01*
X019844Y016860D02*
X019782Y016921D01*
X019782Y017045D01*
X019844Y017107D01*
X019782Y017228D02*
X020153Y017475D01*
X019782Y017475D01*
X019782Y017596D02*
X019782Y017781D01*
X019844Y017843D01*
X020091Y017843D01*
X020153Y017781D01*
X020153Y017596D01*
X019782Y017596D01*
X019782Y017228D02*
X020153Y017228D01*
X016609Y017228D02*
X016239Y017228D01*
X016609Y017475D01*
X016239Y017475D01*
X016239Y017596D02*
X016239Y017781D01*
X016301Y017843D01*
X016547Y017843D01*
X016609Y017781D01*
X016609Y017596D01*
X016239Y017596D01*
X016301Y017107D02*
X016239Y017045D01*
X016239Y016921D01*
X016301Y016860D01*
X016547Y016860D01*
X016609Y016921D01*
X016609Y017045D01*
X016547Y017107D01*
X016424Y017107D01*
X016424Y016983D01*
X013066Y016921D02*
X013066Y017045D01*
X013004Y017107D01*
X012881Y017107D01*
X012881Y016983D01*
X013004Y016860D02*
X013066Y016921D01*
X013004Y016860D02*
X012757Y016860D01*
X012696Y016921D01*
X012696Y017045D01*
X012757Y017107D01*
X012696Y017228D02*
X013066Y017475D01*
X012696Y017475D01*
X012696Y017596D02*
X012696Y017781D01*
X012757Y017843D01*
X013004Y017843D01*
X013066Y017781D01*
X013066Y017596D01*
X012696Y017596D01*
X012696Y017228D02*
X013066Y017228D01*
X009523Y017228D02*
X009152Y017228D01*
X009523Y017475D01*
X009152Y017475D01*
X009152Y017596D02*
X009152Y017781D01*
X009214Y017843D01*
X009461Y017843D01*
X009523Y017781D01*
X009523Y017596D01*
X009152Y017596D01*
X009214Y017107D02*
X009152Y017045D01*
X009152Y016921D01*
X009214Y016860D01*
X009461Y016860D01*
X009523Y016921D01*
X009523Y017045D01*
X009461Y017107D01*
X009337Y017107D01*
X009337Y016983D01*
X005618Y013488D02*
X005618Y013118D01*
X005741Y013118D02*
X005494Y013118D01*
X005373Y013179D02*
X005311Y013118D01*
X005188Y013118D01*
X005126Y013179D01*
X005126Y013426D01*
X005188Y013488D01*
X005311Y013488D01*
X005373Y013426D01*
X005494Y013365D02*
X005618Y013488D01*
X003379Y015992D02*
X003132Y015992D01*
X003379Y016239D01*
X003379Y016300D01*
X003317Y016362D01*
X003194Y016362D01*
X003132Y016300D01*
X003011Y016300D02*
X002949Y016362D01*
X002826Y016362D01*
X002764Y016300D01*
X002764Y016053D01*
X002826Y015992D01*
X002949Y015992D01*
X003011Y016053D01*
X016569Y013094D02*
X016569Y012724D01*
X016816Y012724D01*
X016937Y012724D02*
X017184Y012724D01*
X017305Y012724D02*
X017491Y012724D01*
X017552Y012786D01*
X017552Y013033D01*
X017491Y013094D01*
X017305Y013094D01*
X017305Y012724D01*
X017060Y012909D02*
X016937Y012909D01*
X016937Y013094D02*
X016937Y012724D01*
X016937Y013094D02*
X017184Y013094D01*
X017674Y012971D02*
X017797Y013094D01*
X017797Y012724D01*
X017674Y012724D02*
X017921Y012724D01*
X017843Y011401D02*
X018028Y011401D01*
X018089Y011340D01*
X018089Y011216D01*
X018028Y011154D01*
X017843Y011154D01*
X017843Y011031D02*
X017843Y011401D01*
X017966Y011154D02*
X018089Y011031D01*
X018211Y011031D02*
X018458Y011278D01*
X018458Y011340D01*
X018396Y011401D01*
X018273Y011401D01*
X018211Y011340D01*
X018211Y011031D02*
X018458Y011031D01*
X018374Y009433D02*
X018374Y009063D01*
X018497Y009063D02*
X018250Y009063D01*
X018129Y009063D02*
X018005Y009186D01*
X018067Y009186D02*
X017882Y009186D01*
X017882Y009063D02*
X017882Y009433D01*
X018067Y009433D01*
X018129Y009371D01*
X018129Y009248D01*
X018067Y009186D01*
X018250Y009309D02*
X018374Y009433D01*
X020283Y008449D02*
X020530Y008449D01*
X020407Y008449D02*
X020407Y008078D01*
X020652Y008078D02*
X020899Y008078D01*
X020775Y008078D02*
X020775Y008449D01*
X020652Y008325D01*
X018458Y007678D02*
X018458Y007616D01*
X018396Y007555D01*
X018458Y007493D01*
X018458Y007431D01*
X018396Y007370D01*
X018273Y007370D01*
X018211Y007431D01*
X018089Y007370D02*
X017966Y007493D01*
X018028Y007493D02*
X017843Y007493D01*
X017843Y007370D02*
X017843Y007740D01*
X018028Y007740D01*
X018089Y007678D01*
X018089Y007555D01*
X018028Y007493D01*
X018211Y007678D02*
X018273Y007740D01*
X018396Y007740D01*
X018458Y007678D01*
X018396Y007555D02*
X018334Y007555D01*
X018253Y006165D02*
X018129Y006165D01*
X018067Y006103D01*
X017946Y006103D02*
X017884Y006165D01*
X017699Y006165D01*
X017699Y005795D01*
X017884Y005795D01*
X017946Y005857D01*
X017946Y006103D01*
X018253Y006165D02*
X018314Y006103D01*
X018314Y006042D01*
X018067Y005795D01*
X018314Y005795D01*
X017578Y005795D02*
X017331Y005795D01*
X017331Y006165D01*
X017578Y006165D01*
X017454Y005980D02*
X017331Y005980D01*
X017209Y005795D02*
X016962Y005795D01*
X016962Y006165D01*
X017882Y004472D02*
X018067Y004472D01*
X018129Y004410D01*
X018129Y004287D01*
X018067Y004225D01*
X017882Y004225D01*
X017882Y004102D02*
X017882Y004472D01*
X018005Y004225D02*
X018129Y004102D01*
X018250Y004164D02*
X018312Y004102D01*
X018435Y004102D01*
X018497Y004164D01*
X018497Y004287D01*
X018435Y004349D01*
X018374Y004349D01*
X018250Y004287D01*
X018250Y004472D01*
X018497Y004472D01*
X021003Y004642D02*
X021003Y004827D01*
X021064Y004889D01*
X021311Y004889D01*
X021373Y004827D01*
X021373Y004642D01*
X021003Y004642D01*
X021064Y005011D02*
X021003Y005072D01*
X021003Y005196D01*
X021064Y005257D01*
X021126Y005257D01*
X021373Y005011D01*
X021373Y005257D01*
X018475Y002543D02*
X018290Y002358D01*
X018536Y002358D01*
X018475Y002173D02*
X018475Y002543D01*
X018168Y002481D02*
X018168Y002358D01*
X018106Y002296D01*
X017921Y002296D01*
X017921Y002173D02*
X017921Y002543D01*
X018106Y002543D01*
X018168Y002481D01*
X018045Y002296D02*
X018168Y002173D01*
X018106Y001165D02*
X017921Y001165D01*
X017921Y000795D01*
X017921Y000918D02*
X018106Y000918D01*
X018168Y000980D01*
X018168Y001103D01*
X018106Y001165D01*
X018045Y000918D02*
X018168Y000795D01*
X018290Y000857D02*
X018351Y000795D01*
X018475Y000795D01*
X018536Y000857D01*
X018536Y000918D01*
X018475Y000980D01*
X018290Y000980D01*
X018290Y000857D01*
X018290Y000980D02*
X018413Y001103D01*
X018536Y001165D01*
X020283Y001598D02*
X020530Y001598D01*
X020407Y001598D02*
X020407Y001228D01*
X020652Y001228D02*
X020899Y001475D01*
X020899Y001536D01*
X020837Y001598D01*
X020714Y001598D01*
X020652Y001536D01*
X020652Y001228D02*
X020899Y001228D01*
X005349Y004642D02*
X005349Y004827D01*
X005288Y004889D01*
X005041Y004889D01*
X004979Y004827D01*
X004979Y004642D01*
X005349Y004642D01*
X005288Y005011D02*
X005349Y005072D01*
X005349Y005196D01*
X005288Y005257D01*
X005226Y005257D01*
X005164Y005196D01*
X005164Y005134D01*
X005164Y005196D02*
X005102Y005257D01*
X005041Y005257D01*
X004979Y005196D01*
X004979Y005072D01*
X005041Y005011D01*
X021003Y011808D02*
X021003Y011993D01*
X021064Y012054D01*
X021311Y012054D01*
X021373Y011993D01*
X021373Y011808D01*
X021003Y011808D01*
X021126Y012176D02*
X021003Y012299D01*
X021373Y012299D01*
X021373Y012176D02*
X021373Y012423D01*
D15*
X005794Y001098D02*
X001857Y001098D01*
X001857Y020783D01*
X005794Y020783D01*
X006582Y021570D01*
X034377Y021570D01*
X035125Y020783D01*
X035125Y014090D01*
X036031Y013342D01*
X036031Y001137D01*
X035125Y000311D01*
X006582Y000311D01*
X005794Y001098D01*
X002574Y002082D02*
X002576Y002121D01*
X002582Y002160D01*
X002592Y002198D01*
X002605Y002235D01*
X002622Y002270D01*
X002642Y002304D01*
X002666Y002335D01*
X002693Y002364D01*
X002722Y002390D01*
X002754Y002413D01*
X002788Y002433D01*
X002824Y002449D01*
X002861Y002461D01*
X002900Y002470D01*
X002939Y002475D01*
X002978Y002476D01*
X003017Y002473D01*
X003056Y002466D01*
X003093Y002455D01*
X003130Y002441D01*
X003165Y002423D01*
X003198Y002402D01*
X003229Y002377D01*
X003257Y002350D01*
X003282Y002320D01*
X003304Y002287D01*
X003323Y002253D01*
X003338Y002217D01*
X003350Y002179D01*
X003358Y002141D01*
X003362Y002102D01*
X003362Y002062D01*
X003358Y002023D01*
X003350Y001985D01*
X003338Y001947D01*
X003323Y001911D01*
X003304Y001877D01*
X003282Y001844D01*
X003257Y001814D01*
X003229Y001787D01*
X003198Y001762D01*
X003165Y001741D01*
X003130Y001723D01*
X003093Y001709D01*
X003056Y001698D01*
X003017Y001691D01*
X002978Y001688D01*
X002939Y001689D01*
X002900Y001694D01*
X002861Y001703D01*
X002824Y001715D01*
X002788Y001731D01*
X002754Y001751D01*
X002722Y001774D01*
X002693Y001800D01*
X002666Y001829D01*
X002642Y001860D01*
X002622Y001894D01*
X002605Y001929D01*
X002592Y001966D01*
X002582Y002004D01*
X002576Y002043D01*
X002574Y002082D01*
X008688Y009435D02*
X008690Y009485D01*
X008696Y009535D01*
X008706Y009585D01*
X008719Y009633D01*
X008736Y009681D01*
X008757Y009727D01*
X008781Y009771D01*
X008809Y009813D01*
X008840Y009853D01*
X008874Y009890D01*
X008911Y009925D01*
X008950Y009956D01*
X008991Y009985D01*
X009035Y010010D01*
X009081Y010032D01*
X009128Y010050D01*
X009176Y010064D01*
X009225Y010075D01*
X009275Y010082D01*
X009325Y010085D01*
X009376Y010084D01*
X009426Y010079D01*
X009476Y010070D01*
X009524Y010058D01*
X009572Y010041D01*
X009618Y010021D01*
X009663Y009998D01*
X009706Y009971D01*
X009746Y009941D01*
X009784Y009908D01*
X009819Y009872D01*
X009852Y009833D01*
X009881Y009792D01*
X009907Y009749D01*
X009930Y009704D01*
X009949Y009657D01*
X009964Y009609D01*
X009976Y009560D01*
X009984Y009510D01*
X009988Y009460D01*
X009988Y009410D01*
X009984Y009360D01*
X009976Y009310D01*
X009964Y009261D01*
X009949Y009213D01*
X009930Y009166D01*
X009907Y009121D01*
X009881Y009078D01*
X009852Y009037D01*
X009819Y008998D01*
X009784Y008962D01*
X009746Y008929D01*
X009706Y008899D01*
X009663Y008872D01*
X009618Y008849D01*
X009572Y008829D01*
X009524Y008812D01*
X009476Y008800D01*
X009426Y008791D01*
X009376Y008786D01*
X009325Y008785D01*
X009275Y008788D01*
X009225Y008795D01*
X009176Y008806D01*
X009128Y008820D01*
X009081Y008838D01*
X009035Y008860D01*
X008991Y008885D01*
X008950Y008914D01*
X008911Y008945D01*
X008874Y008980D01*
X008840Y009017D01*
X008809Y009057D01*
X008781Y009099D01*
X008757Y009143D01*
X008736Y009189D01*
X008719Y009237D01*
X008706Y009285D01*
X008696Y009335D01*
X008690Y009385D01*
X008688Y009435D01*
X015369Y010889D02*
X015371Y010928D01*
X015377Y010967D01*
X015387Y011005D01*
X015400Y011042D01*
X015417Y011077D01*
X015437Y011111D01*
X015461Y011142D01*
X015488Y011171D01*
X015517Y011197D01*
X015549Y011220D01*
X015583Y011240D01*
X015619Y011256D01*
X015656Y011268D01*
X015695Y011277D01*
X015734Y011282D01*
X015773Y011283D01*
X015812Y011280D01*
X015851Y011273D01*
X015888Y011262D01*
X015925Y011248D01*
X015960Y011230D01*
X015993Y011209D01*
X016024Y011184D01*
X016052Y011157D01*
X016077Y011127D01*
X016099Y011094D01*
X016118Y011060D01*
X016133Y011024D01*
X016145Y010986D01*
X016153Y010948D01*
X016157Y010909D01*
X016157Y010869D01*
X016153Y010830D01*
X016145Y010792D01*
X016133Y010754D01*
X016118Y010718D01*
X016099Y010684D01*
X016077Y010651D01*
X016052Y010621D01*
X016024Y010594D01*
X015993Y010569D01*
X015960Y010548D01*
X015925Y010530D01*
X015888Y010516D01*
X015851Y010505D01*
X015812Y010498D01*
X015773Y010495D01*
X015734Y010496D01*
X015695Y010501D01*
X015656Y010510D01*
X015619Y010522D01*
X015583Y010538D01*
X015549Y010558D01*
X015517Y010581D01*
X015488Y010607D01*
X015461Y010636D01*
X015437Y010667D01*
X015417Y010701D01*
X015400Y010736D01*
X015387Y010773D01*
X015377Y010811D01*
X015371Y010850D01*
X015369Y010889D01*
D16*
X017925Y013376D02*
X017954Y013402D01*
X017954Y013401D02*
X017975Y013380D01*
X017999Y013361D01*
X018025Y013345D01*
X018052Y013332D01*
X018081Y013322D01*
X018111Y013316D01*
X018141Y013312D01*
X018171Y013312D01*
X018201Y013316D01*
X018231Y013322D01*
X018260Y013332D01*
X018287Y013345D01*
X018313Y013361D01*
X018337Y013380D01*
X018358Y013401D01*
X018387Y013376D01*
X018387Y013375D01*
X018363Y013351D01*
X018335Y013329D01*
X018306Y013311D01*
X018274Y013296D01*
X018242Y013285D01*
X018208Y013277D01*
X018173Y013273D01*
X018139Y013273D01*
X018104Y013277D01*
X018070Y013285D01*
X018038Y013296D01*
X018006Y013311D01*
X017977Y013329D01*
X017949Y013351D01*
X017925Y013375D01*
X017925Y013376D01*
X017950Y013352D01*
X017977Y013330D01*
X018007Y013312D01*
X018038Y013297D01*
X018071Y013286D01*
X018104Y013278D01*
X018139Y013274D01*
X018173Y013274D01*
X018208Y013278D01*
X018241Y013286D01*
X018274Y013297D01*
X018305Y013312D01*
X018335Y013330D01*
X018362Y013352D01*
X018387Y013376D01*
X018386Y013376D01*
X018361Y013352D01*
X018334Y013331D01*
X018305Y013313D01*
X018274Y013298D01*
X018241Y013287D01*
X018207Y013279D01*
X018173Y013275D01*
X018139Y013275D01*
X018105Y013279D01*
X018071Y013287D01*
X018038Y013298D01*
X018007Y013313D01*
X017978Y013331D01*
X017951Y013352D01*
X017926Y013376D01*
X017927Y013377D01*
X017951Y013353D01*
X017978Y013332D01*
X018008Y013314D01*
X018039Y013299D01*
X018071Y013288D01*
X018105Y013280D01*
X018139Y013276D01*
X018173Y013276D01*
X018207Y013280D01*
X018241Y013288D01*
X018273Y013299D01*
X018304Y013314D01*
X018334Y013332D01*
X018361Y013353D01*
X018385Y013377D01*
X018384Y013378D01*
X018360Y013354D01*
X018333Y013333D01*
X018304Y013315D01*
X018273Y013300D01*
X018241Y013289D01*
X018207Y013281D01*
X018173Y013277D01*
X018139Y013277D01*
X018105Y013281D01*
X018071Y013289D01*
X018039Y013300D01*
X018008Y013315D01*
X017979Y013333D01*
X017952Y013354D01*
X017928Y013378D01*
X017953Y013355D01*
X017980Y013333D01*
X018009Y013316D01*
X018039Y013301D01*
X018072Y013290D01*
X018105Y013282D01*
X018139Y013278D01*
X018173Y013278D01*
X018207Y013282D01*
X018240Y013290D01*
X018273Y013301D01*
X018303Y013316D01*
X018332Y013333D01*
X018359Y013355D01*
X018384Y013378D01*
X018383Y013379D01*
X018359Y013355D01*
X018332Y013334D01*
X018303Y013316D01*
X018272Y013302D01*
X018240Y013291D01*
X018207Y013283D01*
X018173Y013279D01*
X018139Y013279D01*
X018105Y013283D01*
X018072Y013291D01*
X018040Y013302D01*
X018009Y013316D01*
X017980Y013334D01*
X017953Y013355D01*
X017929Y013379D01*
X017930Y013380D01*
X017954Y013356D01*
X017981Y013335D01*
X018010Y013317D01*
X018040Y013303D01*
X018072Y013292D01*
X018105Y013284D01*
X018139Y013280D01*
X018173Y013280D01*
X018207Y013284D01*
X018240Y013292D01*
X018272Y013303D01*
X018302Y013317D01*
X018331Y013335D01*
X018358Y013356D01*
X018382Y013380D01*
X018381Y013380D01*
X018357Y013357D01*
X018331Y013336D01*
X018302Y013318D01*
X018271Y013304D01*
X018239Y013293D01*
X018206Y013285D01*
X018173Y013281D01*
X018139Y013281D01*
X018106Y013285D01*
X018073Y013293D01*
X018041Y013304D01*
X018010Y013318D01*
X017981Y013336D01*
X017955Y013357D01*
X017931Y013380D01*
X017931Y013381D01*
X017955Y013358D01*
X017982Y013337D01*
X018011Y013319D01*
X018041Y013305D01*
X018073Y013294D01*
X018106Y013286D01*
X018139Y013282D01*
X018173Y013282D01*
X018206Y013286D01*
X018239Y013294D01*
X018271Y013305D01*
X018301Y013319D01*
X018330Y013337D01*
X018357Y013358D01*
X018381Y013381D01*
X018380Y013382D01*
X018356Y013358D01*
X018329Y013338D01*
X018301Y013320D01*
X018271Y013306D01*
X018239Y013295D01*
X018206Y013287D01*
X018173Y013283D01*
X018139Y013283D01*
X018106Y013287D01*
X018073Y013295D01*
X018041Y013306D01*
X018011Y013320D01*
X017983Y013338D01*
X017956Y013358D01*
X017932Y013382D01*
X017933Y013382D01*
X017957Y013359D01*
X017983Y013338D01*
X018012Y013321D01*
X018042Y013306D01*
X018073Y013296D01*
X018106Y013288D01*
X018139Y013284D01*
X018173Y013284D01*
X018206Y013288D01*
X018239Y013296D01*
X018270Y013306D01*
X018300Y013321D01*
X018329Y013338D01*
X018355Y013359D01*
X018379Y013382D01*
X018378Y013383D01*
X018355Y013360D01*
X018328Y013339D01*
X018300Y013322D01*
X018270Y013307D01*
X018238Y013296D01*
X018206Y013289D01*
X018173Y013285D01*
X018139Y013285D01*
X018106Y013289D01*
X018074Y013296D01*
X018042Y013307D01*
X018012Y013322D01*
X017984Y013339D01*
X017957Y013360D01*
X017934Y013383D01*
X017934Y013384D01*
X017958Y013361D01*
X017984Y013340D01*
X018012Y013323D01*
X018043Y013308D01*
X018074Y013297D01*
X018106Y013290D01*
X018139Y013286D01*
X018173Y013286D01*
X018206Y013290D01*
X018238Y013297D01*
X018269Y013308D01*
X018300Y013323D01*
X018328Y013340D01*
X018354Y013361D01*
X018378Y013384D01*
X018377Y013385D01*
X018353Y013361D01*
X018327Y013341D01*
X018299Y013323D01*
X018269Y013309D01*
X018238Y013298D01*
X018205Y013291D01*
X018173Y013287D01*
X018139Y013287D01*
X018107Y013291D01*
X018074Y013298D01*
X018043Y013309D01*
X018013Y013323D01*
X017985Y013341D01*
X017959Y013361D01*
X017935Y013385D01*
X017936Y013385D01*
X017959Y013362D01*
X017985Y013342D01*
X018013Y013324D01*
X018043Y013310D01*
X018074Y013299D01*
X018107Y013292D01*
X018139Y013288D01*
X018173Y013288D01*
X018205Y013292D01*
X018238Y013299D01*
X018269Y013310D01*
X018299Y013324D01*
X018327Y013342D01*
X018353Y013362D01*
X018376Y013385D01*
X018375Y013386D01*
X018352Y013363D01*
X018326Y013342D01*
X018298Y013325D01*
X018268Y013311D01*
X018237Y013300D01*
X018205Y013293D01*
X018172Y013289D01*
X018140Y013289D01*
X018107Y013293D01*
X018075Y013300D01*
X018044Y013311D01*
X018014Y013325D01*
X017986Y013342D01*
X017960Y013363D01*
X017937Y013386D01*
X017937Y013387D01*
X017961Y013364D01*
X017987Y013343D01*
X018014Y013326D01*
X018044Y013312D01*
X018075Y013301D01*
X018107Y013294D01*
X018140Y013290D01*
X018172Y013290D01*
X018205Y013294D01*
X018237Y013301D01*
X018268Y013312D01*
X018298Y013326D01*
X018325Y013343D01*
X018351Y013364D01*
X018375Y013387D01*
X018374Y013387D01*
X018351Y013364D01*
X018325Y013344D01*
X018297Y013327D01*
X018268Y013313D01*
X018237Y013302D01*
X018205Y013295D01*
X018172Y013291D01*
X018140Y013291D01*
X018107Y013295D01*
X018075Y013302D01*
X018044Y013313D01*
X018015Y013327D01*
X017987Y013344D01*
X017961Y013364D01*
X017938Y013387D01*
X017939Y013388D01*
X017962Y013365D01*
X017988Y013345D01*
X018015Y013328D01*
X018045Y013314D01*
X018076Y013303D01*
X018107Y013296D01*
X018140Y013292D01*
X018172Y013292D01*
X018205Y013296D01*
X018236Y013303D01*
X018267Y013314D01*
X018297Y013328D01*
X018324Y013345D01*
X018350Y013365D01*
X018373Y013388D01*
X018372Y013389D01*
X018349Y013366D01*
X018324Y013346D01*
X018296Y013329D01*
X018267Y013315D01*
X018236Y013304D01*
X018204Y013297D01*
X018172Y013293D01*
X018140Y013293D01*
X018108Y013297D01*
X018076Y013304D01*
X018045Y013315D01*
X018016Y013329D01*
X017988Y013346D01*
X017963Y013366D01*
X017940Y013389D01*
X017963Y013367D01*
X017989Y013347D01*
X018016Y013330D01*
X018046Y013316D01*
X018076Y013305D01*
X018108Y013298D01*
X018140Y013294D01*
X018172Y013294D01*
X018204Y013298D01*
X018236Y013305D01*
X018266Y013316D01*
X018296Y013330D01*
X018323Y013347D01*
X018349Y013367D01*
X018372Y013389D01*
X018371Y013390D01*
X018348Y013367D01*
X018323Y013347D01*
X018295Y013330D01*
X018266Y013317D01*
X018236Y013306D01*
X018204Y013299D01*
X018172Y013295D01*
X018140Y013295D01*
X018108Y013299D01*
X018076Y013306D01*
X018046Y013317D01*
X018017Y013330D01*
X017989Y013347D01*
X017964Y013367D01*
X017941Y013390D01*
X017942Y013391D01*
X017965Y013368D01*
X017990Y013348D01*
X018017Y013331D01*
X018046Y013318D01*
X018077Y013307D01*
X018108Y013300D01*
X018140Y013296D01*
X018172Y013296D01*
X018204Y013300D01*
X018235Y013307D01*
X018266Y013318D01*
X018295Y013331D01*
X018322Y013348D01*
X018347Y013368D01*
X018370Y013391D01*
X018347Y013369D01*
X018321Y013349D01*
X018294Y013332D01*
X018265Y013318D01*
X018235Y013308D01*
X018204Y013301D01*
X018172Y013297D01*
X018140Y013297D01*
X018108Y013301D01*
X018077Y013308D01*
X018047Y013318D01*
X018018Y013332D01*
X017991Y013349D01*
X017965Y013369D01*
X017942Y013391D01*
X017943Y013392D01*
X017966Y013370D01*
X017991Y013350D01*
X018018Y013333D01*
X018047Y013319D01*
X018077Y013309D01*
X018108Y013302D01*
X018140Y013298D01*
X018172Y013298D01*
X018204Y013302D01*
X018235Y013309D01*
X018265Y013319D01*
X018294Y013333D01*
X018321Y013350D01*
X018346Y013370D01*
X018369Y013392D01*
X018368Y013393D01*
X018345Y013370D01*
X018320Y013351D01*
X018293Y013334D01*
X018265Y013320D01*
X018235Y013310D01*
X018203Y013303D01*
X018172Y013299D01*
X018140Y013299D01*
X018109Y013303D01*
X018077Y013310D01*
X018047Y013320D01*
X018019Y013334D01*
X017992Y013351D01*
X017967Y013370D01*
X017944Y013393D01*
X017945Y013393D01*
X017967Y013371D01*
X017992Y013352D01*
X018019Y013335D01*
X018048Y013321D01*
X018078Y013311D01*
X018109Y013304D01*
X018140Y013300D01*
X018172Y013300D01*
X018203Y013304D01*
X018234Y013311D01*
X018264Y013321D01*
X018293Y013335D01*
X018320Y013352D01*
X018345Y013371D01*
X018367Y013393D01*
X018367Y013394D01*
X018344Y013372D01*
X018319Y013352D01*
X018292Y013336D01*
X018264Y013322D01*
X018234Y013312D01*
X018203Y013305D01*
X018172Y013301D01*
X018140Y013301D01*
X018109Y013305D01*
X018078Y013312D01*
X018048Y013322D01*
X018020Y013336D01*
X017993Y013352D01*
X017968Y013372D01*
X017945Y013394D01*
X017946Y013395D01*
X017969Y013373D01*
X017993Y013353D01*
X018020Y013337D01*
X018049Y013323D01*
X018078Y013313D01*
X018109Y013306D01*
X018140Y013302D01*
X018172Y013302D01*
X018203Y013306D01*
X018234Y013313D01*
X018263Y013323D01*
X018292Y013337D01*
X018319Y013353D01*
X018343Y013373D01*
X018366Y013395D01*
X018365Y013395D01*
X018343Y013373D01*
X018318Y013354D01*
X018291Y013337D01*
X018263Y013324D01*
X018233Y013314D01*
X018203Y013307D01*
X018172Y013303D01*
X018140Y013303D01*
X018109Y013307D01*
X018079Y013314D01*
X018049Y013324D01*
X018021Y013337D01*
X017994Y013354D01*
X017969Y013373D01*
X017947Y013395D01*
X017948Y013396D01*
X017970Y013374D01*
X017995Y013355D01*
X018021Y013338D01*
X018049Y013325D01*
X018079Y013315D01*
X018109Y013308D01*
X018140Y013304D01*
X018172Y013304D01*
X018203Y013308D01*
X018233Y013315D01*
X018263Y013325D01*
X018291Y013338D01*
X018317Y013355D01*
X018342Y013374D01*
X018364Y013396D01*
X018364Y013397D01*
X018341Y013375D01*
X018317Y013356D01*
X018290Y013339D01*
X018262Y013326D01*
X018233Y013316D01*
X018202Y013309D01*
X018172Y013305D01*
X018140Y013305D01*
X018110Y013309D01*
X018079Y013316D01*
X018050Y013326D01*
X018022Y013339D01*
X017995Y013356D01*
X017971Y013375D01*
X017948Y013397D01*
X017949Y013397D01*
X017971Y013376D01*
X017996Y013356D01*
X018022Y013340D01*
X018050Y013327D01*
X018079Y013317D01*
X018110Y013310D01*
X018140Y013306D01*
X018172Y013306D01*
X018202Y013310D01*
X018233Y013317D01*
X018262Y013327D01*
X018290Y013340D01*
X018316Y013356D01*
X018341Y013376D01*
X018363Y013397D01*
X018362Y013398D01*
X018340Y013376D01*
X018316Y013357D01*
X018289Y013341D01*
X018262Y013328D01*
X018232Y013318D01*
X018202Y013311D01*
X018171Y013307D01*
X018141Y013307D01*
X018110Y013311D01*
X018080Y013318D01*
X018050Y013328D01*
X018023Y013341D01*
X017996Y013357D01*
X017972Y013376D01*
X017950Y013398D01*
X017951Y013399D01*
X017973Y013377D01*
X017997Y013358D01*
X018023Y013342D01*
X018051Y013329D01*
X018080Y013319D01*
X018110Y013312D01*
X018141Y013308D01*
X018171Y013308D01*
X018202Y013312D01*
X018232Y013319D01*
X018261Y013329D01*
X018289Y013342D01*
X018315Y013358D01*
X018339Y013377D01*
X018361Y013399D01*
X018339Y013378D01*
X018315Y013359D01*
X018288Y013343D01*
X018261Y013330D01*
X018232Y013320D01*
X018202Y013313D01*
X018171Y013309D01*
X018141Y013309D01*
X018110Y013313D01*
X018080Y013320D01*
X018051Y013330D01*
X018024Y013343D01*
X017997Y013359D01*
X017973Y013378D01*
X017951Y013399D01*
X017952Y013400D01*
X017974Y013379D01*
X017998Y013360D01*
X018024Y013344D01*
X018052Y013331D01*
X018081Y013321D01*
X018110Y013314D01*
X018141Y013310D01*
X018171Y013310D01*
X018202Y013314D01*
X018231Y013321D01*
X018260Y013331D01*
X018288Y013344D01*
X018314Y013360D01*
X018338Y013379D01*
X018360Y013400D01*
X018359Y013401D01*
X018337Y013379D01*
X018313Y013361D01*
X018288Y013344D01*
X018260Y013331D01*
X018231Y013321D01*
X018202Y013315D01*
X018171Y013311D01*
X018141Y013311D01*
X018110Y013315D01*
X018081Y013321D01*
X018052Y013331D01*
X018024Y013344D01*
X017999Y013361D01*
X017975Y013379D01*
X017953Y013401D01*
X018387Y013796D02*
X018358Y013770D01*
X018358Y013771D02*
X018337Y013792D01*
X018313Y013811D01*
X018287Y013827D01*
X018260Y013840D01*
X018231Y013850D01*
X018201Y013856D01*
X018171Y013860D01*
X018141Y013860D01*
X018111Y013856D01*
X018081Y013850D01*
X018052Y013840D01*
X018025Y013827D01*
X017999Y013811D01*
X017975Y013792D01*
X017954Y013771D01*
X017925Y013796D01*
X017925Y013797D01*
X017949Y013821D01*
X017977Y013843D01*
X018006Y013861D01*
X018038Y013876D01*
X018070Y013887D01*
X018104Y013895D01*
X018139Y013899D01*
X018173Y013899D01*
X018208Y013895D01*
X018242Y013887D01*
X018274Y013876D01*
X018306Y013861D01*
X018335Y013843D01*
X018363Y013821D01*
X018387Y013797D01*
X018387Y013796D01*
X018362Y013820D01*
X018335Y013842D01*
X018305Y013860D01*
X018274Y013875D01*
X018241Y013886D01*
X018208Y013894D01*
X018173Y013898D01*
X018139Y013898D01*
X018104Y013894D01*
X018071Y013886D01*
X018038Y013875D01*
X018007Y013860D01*
X017977Y013842D01*
X017950Y013820D01*
X017925Y013796D01*
X017926Y013796D01*
X017951Y013820D01*
X017978Y013841D01*
X018007Y013859D01*
X018038Y013874D01*
X018071Y013885D01*
X018105Y013893D01*
X018139Y013897D01*
X018173Y013897D01*
X018207Y013893D01*
X018241Y013885D01*
X018274Y013874D01*
X018305Y013859D01*
X018334Y013841D01*
X018361Y013820D01*
X018386Y013796D01*
X018385Y013795D01*
X018361Y013819D01*
X018334Y013840D01*
X018304Y013858D01*
X018273Y013873D01*
X018241Y013884D01*
X018207Y013892D01*
X018173Y013896D01*
X018139Y013896D01*
X018105Y013892D01*
X018071Y013884D01*
X018039Y013873D01*
X018008Y013858D01*
X017978Y013840D01*
X017951Y013819D01*
X017927Y013795D01*
X017928Y013794D01*
X017952Y013818D01*
X017979Y013839D01*
X018008Y013857D01*
X018039Y013872D01*
X018071Y013883D01*
X018105Y013891D01*
X018139Y013895D01*
X018173Y013895D01*
X018207Y013891D01*
X018241Y013883D01*
X018273Y013872D01*
X018304Y013857D01*
X018333Y013839D01*
X018360Y013818D01*
X018384Y013794D01*
X018359Y013817D01*
X018332Y013839D01*
X018303Y013856D01*
X018273Y013871D01*
X018240Y013882D01*
X018207Y013890D01*
X018173Y013894D01*
X018139Y013894D01*
X018105Y013890D01*
X018072Y013882D01*
X018039Y013871D01*
X018009Y013856D01*
X017980Y013839D01*
X017953Y013817D01*
X017928Y013794D01*
X017929Y013793D01*
X017953Y013817D01*
X017980Y013838D01*
X018009Y013856D01*
X018040Y013870D01*
X018072Y013881D01*
X018105Y013889D01*
X018139Y013893D01*
X018173Y013893D01*
X018207Y013889D01*
X018240Y013881D01*
X018272Y013870D01*
X018303Y013856D01*
X018332Y013838D01*
X018359Y013817D01*
X018383Y013793D01*
X018382Y013792D01*
X018358Y013816D01*
X018331Y013837D01*
X018302Y013855D01*
X018272Y013869D01*
X018240Y013880D01*
X018207Y013888D01*
X018173Y013892D01*
X018139Y013892D01*
X018105Y013888D01*
X018072Y013880D01*
X018040Y013869D01*
X018010Y013855D01*
X017981Y013837D01*
X017954Y013816D01*
X017930Y013792D01*
X017931Y013792D01*
X017955Y013815D01*
X017981Y013836D01*
X018010Y013854D01*
X018041Y013868D01*
X018073Y013879D01*
X018106Y013887D01*
X018139Y013891D01*
X018173Y013891D01*
X018206Y013887D01*
X018239Y013879D01*
X018271Y013868D01*
X018302Y013854D01*
X018331Y013836D01*
X018357Y013815D01*
X018381Y013792D01*
X018381Y013791D01*
X018357Y013814D01*
X018330Y013835D01*
X018301Y013853D01*
X018271Y013867D01*
X018239Y013878D01*
X018206Y013886D01*
X018173Y013890D01*
X018139Y013890D01*
X018106Y013886D01*
X018073Y013878D01*
X018041Y013867D01*
X018011Y013853D01*
X017982Y013835D01*
X017955Y013814D01*
X017931Y013791D01*
X017932Y013790D01*
X017956Y013814D01*
X017983Y013834D01*
X018011Y013852D01*
X018041Y013866D01*
X018073Y013877D01*
X018106Y013885D01*
X018139Y013889D01*
X018173Y013889D01*
X018206Y013885D01*
X018239Y013877D01*
X018271Y013866D01*
X018301Y013852D01*
X018329Y013834D01*
X018356Y013814D01*
X018380Y013790D01*
X018379Y013790D01*
X018355Y013813D01*
X018329Y013834D01*
X018300Y013851D01*
X018270Y013866D01*
X018239Y013876D01*
X018206Y013884D01*
X018173Y013888D01*
X018139Y013888D01*
X018106Y013884D01*
X018073Y013876D01*
X018042Y013866D01*
X018012Y013851D01*
X017983Y013834D01*
X017957Y013813D01*
X017933Y013790D01*
X017934Y013789D01*
X017957Y013812D01*
X017984Y013833D01*
X018012Y013850D01*
X018042Y013865D01*
X018074Y013876D01*
X018106Y013883D01*
X018139Y013887D01*
X018173Y013887D01*
X018206Y013883D01*
X018238Y013876D01*
X018270Y013865D01*
X018300Y013850D01*
X018328Y013833D01*
X018355Y013812D01*
X018378Y013789D01*
X018378Y013788D01*
X018354Y013811D01*
X018328Y013832D01*
X018300Y013849D01*
X018269Y013864D01*
X018238Y013875D01*
X018206Y013882D01*
X018173Y013886D01*
X018139Y013886D01*
X018106Y013882D01*
X018074Y013875D01*
X018043Y013864D01*
X018012Y013849D01*
X017984Y013832D01*
X017958Y013811D01*
X017934Y013788D01*
X017935Y013787D01*
X017959Y013811D01*
X017985Y013831D01*
X018013Y013849D01*
X018043Y013863D01*
X018074Y013874D01*
X018107Y013881D01*
X018139Y013885D01*
X018173Y013885D01*
X018205Y013881D01*
X018238Y013874D01*
X018269Y013863D01*
X018299Y013849D01*
X018327Y013831D01*
X018353Y013811D01*
X018377Y013787D01*
X018376Y013787D01*
X018353Y013810D01*
X018327Y013830D01*
X018299Y013848D01*
X018269Y013862D01*
X018238Y013873D01*
X018205Y013880D01*
X018173Y013884D01*
X018139Y013884D01*
X018107Y013880D01*
X018074Y013873D01*
X018043Y013862D01*
X018013Y013848D01*
X017985Y013830D01*
X017959Y013810D01*
X017936Y013787D01*
X017937Y013786D01*
X017960Y013809D01*
X017986Y013830D01*
X018014Y013847D01*
X018044Y013861D01*
X018075Y013872D01*
X018107Y013879D01*
X018140Y013883D01*
X018172Y013883D01*
X018205Y013879D01*
X018237Y013872D01*
X018268Y013861D01*
X018298Y013847D01*
X018326Y013830D01*
X018352Y013809D01*
X018375Y013786D01*
X018375Y013785D01*
X018351Y013808D01*
X018325Y013829D01*
X018298Y013846D01*
X018268Y013860D01*
X018237Y013871D01*
X018205Y013878D01*
X018172Y013882D01*
X018140Y013882D01*
X018107Y013878D01*
X018075Y013871D01*
X018044Y013860D01*
X018014Y013846D01*
X017987Y013829D01*
X017961Y013808D01*
X017937Y013785D01*
X017938Y013785D01*
X017961Y013808D01*
X017987Y013828D01*
X018015Y013845D01*
X018044Y013859D01*
X018075Y013870D01*
X018107Y013877D01*
X018140Y013881D01*
X018172Y013881D01*
X018205Y013877D01*
X018237Y013870D01*
X018268Y013859D01*
X018297Y013845D01*
X018325Y013828D01*
X018351Y013808D01*
X018374Y013785D01*
X018373Y013784D01*
X018350Y013807D01*
X018324Y013827D01*
X018297Y013844D01*
X018267Y013858D01*
X018236Y013869D01*
X018205Y013876D01*
X018172Y013880D01*
X018140Y013880D01*
X018107Y013876D01*
X018076Y013869D01*
X018045Y013858D01*
X018015Y013844D01*
X017988Y013827D01*
X017962Y013807D01*
X017939Y013784D01*
X017940Y013783D01*
X017963Y013806D01*
X017988Y013826D01*
X018016Y013843D01*
X018045Y013857D01*
X018076Y013868D01*
X018108Y013875D01*
X018140Y013879D01*
X018172Y013879D01*
X018204Y013875D01*
X018236Y013868D01*
X018267Y013857D01*
X018296Y013843D01*
X018324Y013826D01*
X018349Y013806D01*
X018372Y013783D01*
X018349Y013805D01*
X018323Y013825D01*
X018296Y013842D01*
X018266Y013856D01*
X018236Y013867D01*
X018204Y013874D01*
X018172Y013878D01*
X018140Y013878D01*
X018108Y013874D01*
X018076Y013867D01*
X018046Y013856D01*
X018016Y013842D01*
X017989Y013825D01*
X017963Y013805D01*
X017940Y013783D01*
X017941Y013782D01*
X017964Y013805D01*
X017989Y013825D01*
X018017Y013842D01*
X018046Y013855D01*
X018076Y013866D01*
X018108Y013873D01*
X018140Y013877D01*
X018172Y013877D01*
X018204Y013873D01*
X018236Y013866D01*
X018266Y013855D01*
X018295Y013842D01*
X018323Y013825D01*
X018348Y013805D01*
X018371Y013782D01*
X018370Y013781D01*
X018347Y013804D01*
X018322Y013824D01*
X018295Y013841D01*
X018266Y013854D01*
X018235Y013865D01*
X018204Y013872D01*
X018172Y013876D01*
X018140Y013876D01*
X018108Y013872D01*
X018077Y013865D01*
X018046Y013854D01*
X018017Y013841D01*
X017990Y013824D01*
X017965Y013804D01*
X017942Y013781D01*
X017965Y013803D01*
X017991Y013823D01*
X018018Y013840D01*
X018047Y013854D01*
X018077Y013864D01*
X018108Y013871D01*
X018140Y013875D01*
X018172Y013875D01*
X018204Y013871D01*
X018235Y013864D01*
X018265Y013854D01*
X018294Y013840D01*
X018321Y013823D01*
X018347Y013803D01*
X018370Y013781D01*
X018369Y013780D01*
X018346Y013802D01*
X018321Y013822D01*
X018294Y013839D01*
X018265Y013853D01*
X018235Y013863D01*
X018204Y013870D01*
X018172Y013874D01*
X018140Y013874D01*
X018108Y013870D01*
X018077Y013863D01*
X018047Y013853D01*
X018018Y013839D01*
X017991Y013822D01*
X017966Y013802D01*
X017943Y013780D01*
X017944Y013779D01*
X017967Y013802D01*
X017992Y013821D01*
X018019Y013838D01*
X018047Y013852D01*
X018077Y013862D01*
X018109Y013869D01*
X018140Y013873D01*
X018172Y013873D01*
X018203Y013869D01*
X018235Y013862D01*
X018265Y013852D01*
X018293Y013838D01*
X018320Y013821D01*
X018345Y013802D01*
X018368Y013779D01*
X018367Y013779D01*
X018345Y013801D01*
X018320Y013820D01*
X018293Y013837D01*
X018264Y013851D01*
X018234Y013861D01*
X018203Y013868D01*
X018172Y013872D01*
X018140Y013872D01*
X018109Y013868D01*
X018078Y013861D01*
X018048Y013851D01*
X018019Y013837D01*
X017992Y013820D01*
X017967Y013801D01*
X017945Y013779D01*
X017945Y013778D01*
X017968Y013800D01*
X017993Y013820D01*
X018020Y013836D01*
X018048Y013850D01*
X018078Y013860D01*
X018109Y013867D01*
X018140Y013871D01*
X018172Y013871D01*
X018203Y013867D01*
X018234Y013860D01*
X018264Y013850D01*
X018292Y013836D01*
X018319Y013820D01*
X018344Y013800D01*
X018367Y013778D01*
X018366Y013777D01*
X018343Y013799D01*
X018319Y013819D01*
X018292Y013835D01*
X018263Y013849D01*
X018234Y013859D01*
X018203Y013866D01*
X018172Y013870D01*
X018140Y013870D01*
X018109Y013866D01*
X018078Y013859D01*
X018049Y013849D01*
X018020Y013835D01*
X017993Y013819D01*
X017969Y013799D01*
X017946Y013777D01*
X017947Y013777D01*
X017969Y013799D01*
X017994Y013818D01*
X018021Y013835D01*
X018049Y013848D01*
X018079Y013858D01*
X018109Y013865D01*
X018140Y013869D01*
X018172Y013869D01*
X018203Y013865D01*
X018233Y013858D01*
X018263Y013848D01*
X018291Y013835D01*
X018318Y013818D01*
X018343Y013799D01*
X018365Y013777D01*
X018364Y013776D01*
X018342Y013798D01*
X018317Y013817D01*
X018291Y013834D01*
X018263Y013847D01*
X018233Y013857D01*
X018203Y013864D01*
X018172Y013868D01*
X018140Y013868D01*
X018109Y013864D01*
X018079Y013857D01*
X018049Y013847D01*
X018021Y013834D01*
X017995Y013817D01*
X017970Y013798D01*
X017948Y013776D01*
X017948Y013775D01*
X017971Y013797D01*
X017995Y013816D01*
X018022Y013833D01*
X018050Y013846D01*
X018079Y013856D01*
X018110Y013863D01*
X018140Y013867D01*
X018172Y013867D01*
X018202Y013863D01*
X018233Y013856D01*
X018262Y013846D01*
X018290Y013833D01*
X018317Y013816D01*
X018341Y013797D01*
X018364Y013775D01*
X018363Y013775D01*
X018341Y013796D01*
X018316Y013816D01*
X018290Y013832D01*
X018262Y013845D01*
X018233Y013855D01*
X018202Y013862D01*
X018172Y013866D01*
X018140Y013866D01*
X018110Y013862D01*
X018079Y013855D01*
X018050Y013845D01*
X018022Y013832D01*
X017996Y013816D01*
X017971Y013796D01*
X017949Y013775D01*
X017950Y013774D01*
X017972Y013796D01*
X017996Y013815D01*
X018023Y013831D01*
X018050Y013844D01*
X018080Y013854D01*
X018110Y013861D01*
X018141Y013865D01*
X018171Y013865D01*
X018202Y013861D01*
X018232Y013854D01*
X018262Y013844D01*
X018289Y013831D01*
X018316Y013815D01*
X018340Y013796D01*
X018362Y013774D01*
X018361Y013773D01*
X018339Y013795D01*
X018315Y013814D01*
X018289Y013830D01*
X018261Y013843D01*
X018232Y013853D01*
X018202Y013860D01*
X018171Y013864D01*
X018141Y013864D01*
X018110Y013860D01*
X018080Y013853D01*
X018051Y013843D01*
X018023Y013830D01*
X017997Y013814D01*
X017973Y013795D01*
X017951Y013773D01*
X017973Y013794D01*
X017997Y013813D01*
X018024Y013829D01*
X018051Y013842D01*
X018080Y013852D01*
X018110Y013859D01*
X018141Y013863D01*
X018171Y013863D01*
X018202Y013859D01*
X018232Y013852D01*
X018261Y013842D01*
X018288Y013829D01*
X018315Y013813D01*
X018339Y013794D01*
X018361Y013773D01*
X018360Y013772D01*
X018338Y013793D01*
X018314Y013812D01*
X018288Y013828D01*
X018260Y013841D01*
X018231Y013851D01*
X018202Y013858D01*
X018171Y013862D01*
X018141Y013862D01*
X018110Y013858D01*
X018081Y013851D01*
X018052Y013841D01*
X018024Y013828D01*
X017998Y013812D01*
X017974Y013793D01*
X017952Y013772D01*
X017953Y013771D01*
X017975Y013793D01*
X017999Y013811D01*
X018024Y013828D01*
X018052Y013841D01*
X018081Y013851D01*
X018110Y013857D01*
X018141Y013861D01*
X018171Y013861D01*
X018202Y013857D01*
X018231Y013851D01*
X018260Y013841D01*
X018288Y013828D01*
X018313Y013811D01*
X018337Y013793D01*
X018359Y013771D01*
X018427Y006820D02*
X018398Y006794D01*
X018398Y006795D02*
X018377Y006816D01*
X018353Y006835D01*
X018327Y006851D01*
X018300Y006864D01*
X018271Y006874D01*
X018241Y006880D01*
X018211Y006884D01*
X018181Y006884D01*
X018151Y006880D01*
X018121Y006874D01*
X018092Y006864D01*
X018065Y006851D01*
X018039Y006835D01*
X018015Y006816D01*
X017994Y006795D01*
X017965Y006820D01*
X017965Y006821D01*
X017989Y006845D01*
X018017Y006867D01*
X018046Y006885D01*
X018078Y006900D01*
X018110Y006911D01*
X018144Y006919D01*
X018179Y006923D01*
X018213Y006923D01*
X018248Y006919D01*
X018282Y006911D01*
X018314Y006900D01*
X018346Y006885D01*
X018375Y006867D01*
X018403Y006845D01*
X018427Y006821D01*
X018427Y006820D01*
X018402Y006844D01*
X018375Y006866D01*
X018345Y006884D01*
X018314Y006899D01*
X018281Y006910D01*
X018248Y006918D01*
X018213Y006922D01*
X018179Y006922D01*
X018144Y006918D01*
X018111Y006910D01*
X018078Y006899D01*
X018047Y006884D01*
X018017Y006866D01*
X017990Y006844D01*
X017965Y006820D01*
X017966Y006820D01*
X017991Y006844D01*
X018018Y006865D01*
X018047Y006883D01*
X018078Y006898D01*
X018111Y006909D01*
X018145Y006917D01*
X018179Y006921D01*
X018213Y006921D01*
X018247Y006917D01*
X018281Y006909D01*
X018314Y006898D01*
X018345Y006883D01*
X018374Y006865D01*
X018401Y006844D01*
X018426Y006820D01*
X018425Y006819D01*
X018401Y006843D01*
X018374Y006864D01*
X018344Y006882D01*
X018313Y006897D01*
X018281Y006908D01*
X018247Y006916D01*
X018213Y006920D01*
X018179Y006920D01*
X018145Y006916D01*
X018111Y006908D01*
X018079Y006897D01*
X018048Y006882D01*
X018018Y006864D01*
X017991Y006843D01*
X017967Y006819D01*
X017968Y006818D01*
X017992Y006842D01*
X018019Y006863D01*
X018048Y006881D01*
X018079Y006896D01*
X018111Y006907D01*
X018145Y006915D01*
X018179Y006919D01*
X018213Y006919D01*
X018247Y006915D01*
X018281Y006907D01*
X018313Y006896D01*
X018344Y006881D01*
X018373Y006863D01*
X018400Y006842D01*
X018424Y006818D01*
X018399Y006841D01*
X018372Y006863D01*
X018343Y006880D01*
X018313Y006895D01*
X018280Y006906D01*
X018247Y006914D01*
X018213Y006918D01*
X018179Y006918D01*
X018145Y006914D01*
X018112Y006906D01*
X018079Y006895D01*
X018049Y006880D01*
X018020Y006863D01*
X017993Y006841D01*
X017968Y006818D01*
X017969Y006817D01*
X017993Y006841D01*
X018020Y006862D01*
X018049Y006880D01*
X018080Y006894D01*
X018112Y006905D01*
X018145Y006913D01*
X018179Y006917D01*
X018213Y006917D01*
X018247Y006913D01*
X018280Y006905D01*
X018312Y006894D01*
X018343Y006880D01*
X018372Y006862D01*
X018399Y006841D01*
X018423Y006817D01*
X018422Y006816D01*
X018398Y006840D01*
X018371Y006861D01*
X018342Y006879D01*
X018312Y006893D01*
X018280Y006904D01*
X018247Y006912D01*
X018213Y006916D01*
X018179Y006916D01*
X018145Y006912D01*
X018112Y006904D01*
X018080Y006893D01*
X018050Y006879D01*
X018021Y006861D01*
X017994Y006840D01*
X017970Y006816D01*
X017971Y006816D01*
X017995Y006839D01*
X018021Y006860D01*
X018050Y006878D01*
X018081Y006892D01*
X018113Y006903D01*
X018146Y006911D01*
X018179Y006915D01*
X018213Y006915D01*
X018246Y006911D01*
X018279Y006903D01*
X018311Y006892D01*
X018342Y006878D01*
X018371Y006860D01*
X018397Y006839D01*
X018421Y006816D01*
X018421Y006815D01*
X018397Y006838D01*
X018370Y006859D01*
X018341Y006877D01*
X018311Y006891D01*
X018279Y006902D01*
X018246Y006910D01*
X018213Y006914D01*
X018179Y006914D01*
X018146Y006910D01*
X018113Y006902D01*
X018081Y006891D01*
X018051Y006877D01*
X018022Y006859D01*
X017995Y006838D01*
X017971Y006815D01*
X017972Y006814D01*
X017996Y006838D01*
X018023Y006858D01*
X018051Y006876D01*
X018081Y006890D01*
X018113Y006901D01*
X018146Y006909D01*
X018179Y006913D01*
X018213Y006913D01*
X018246Y006909D01*
X018279Y006901D01*
X018311Y006890D01*
X018341Y006876D01*
X018369Y006858D01*
X018396Y006838D01*
X018420Y006814D01*
X018419Y006814D01*
X018395Y006837D01*
X018369Y006858D01*
X018340Y006875D01*
X018310Y006890D01*
X018279Y006900D01*
X018246Y006908D01*
X018213Y006912D01*
X018179Y006912D01*
X018146Y006908D01*
X018113Y006900D01*
X018082Y006890D01*
X018052Y006875D01*
X018023Y006858D01*
X017997Y006837D01*
X017973Y006814D01*
X017974Y006813D01*
X017997Y006836D01*
X018024Y006857D01*
X018052Y006874D01*
X018082Y006889D01*
X018114Y006900D01*
X018146Y006907D01*
X018179Y006911D01*
X018213Y006911D01*
X018246Y006907D01*
X018278Y006900D01*
X018310Y006889D01*
X018340Y006874D01*
X018368Y006857D01*
X018395Y006836D01*
X018418Y006813D01*
X018418Y006812D01*
X018394Y006835D01*
X018368Y006856D01*
X018340Y006873D01*
X018309Y006888D01*
X018278Y006899D01*
X018246Y006906D01*
X018213Y006910D01*
X018179Y006910D01*
X018146Y006906D01*
X018114Y006899D01*
X018083Y006888D01*
X018052Y006873D01*
X018024Y006856D01*
X017998Y006835D01*
X017974Y006812D01*
X017975Y006811D01*
X017999Y006835D01*
X018025Y006855D01*
X018053Y006873D01*
X018083Y006887D01*
X018114Y006898D01*
X018147Y006905D01*
X018179Y006909D01*
X018213Y006909D01*
X018245Y006905D01*
X018278Y006898D01*
X018309Y006887D01*
X018339Y006873D01*
X018367Y006855D01*
X018393Y006835D01*
X018417Y006811D01*
X018416Y006811D01*
X018393Y006834D01*
X018367Y006854D01*
X018339Y006872D01*
X018309Y006886D01*
X018278Y006897D01*
X018245Y006904D01*
X018213Y006908D01*
X018179Y006908D01*
X018147Y006904D01*
X018114Y006897D01*
X018083Y006886D01*
X018053Y006872D01*
X018025Y006854D01*
X017999Y006834D01*
X017976Y006811D01*
X017977Y006810D01*
X018000Y006833D01*
X018026Y006854D01*
X018054Y006871D01*
X018084Y006885D01*
X018115Y006896D01*
X018147Y006903D01*
X018180Y006907D01*
X018212Y006907D01*
X018245Y006903D01*
X018277Y006896D01*
X018308Y006885D01*
X018338Y006871D01*
X018366Y006854D01*
X018392Y006833D01*
X018415Y006810D01*
X018415Y006809D01*
X018391Y006832D01*
X018365Y006853D01*
X018338Y006870D01*
X018308Y006884D01*
X018277Y006895D01*
X018245Y006902D01*
X018212Y006906D01*
X018180Y006906D01*
X018147Y006902D01*
X018115Y006895D01*
X018084Y006884D01*
X018054Y006870D01*
X018027Y006853D01*
X018001Y006832D01*
X017977Y006809D01*
X017978Y006809D01*
X018001Y006832D01*
X018027Y006852D01*
X018055Y006869D01*
X018084Y006883D01*
X018115Y006894D01*
X018147Y006901D01*
X018180Y006905D01*
X018212Y006905D01*
X018245Y006901D01*
X018277Y006894D01*
X018308Y006883D01*
X018337Y006869D01*
X018365Y006852D01*
X018391Y006832D01*
X018414Y006809D01*
X018413Y006808D01*
X018390Y006831D01*
X018364Y006851D01*
X018337Y006868D01*
X018307Y006882D01*
X018276Y006893D01*
X018245Y006900D01*
X018212Y006904D01*
X018180Y006904D01*
X018147Y006900D01*
X018116Y006893D01*
X018085Y006882D01*
X018055Y006868D01*
X018028Y006851D01*
X018002Y006831D01*
X017979Y006808D01*
X017980Y006807D01*
X018003Y006830D01*
X018028Y006850D01*
X018056Y006867D01*
X018085Y006881D01*
X018116Y006892D01*
X018148Y006899D01*
X018180Y006903D01*
X018212Y006903D01*
X018244Y006899D01*
X018276Y006892D01*
X018307Y006881D01*
X018336Y006867D01*
X018364Y006850D01*
X018389Y006830D01*
X018412Y006807D01*
X018389Y006829D01*
X018363Y006849D01*
X018336Y006866D01*
X018306Y006880D01*
X018276Y006891D01*
X018244Y006898D01*
X018212Y006902D01*
X018180Y006902D01*
X018148Y006898D01*
X018116Y006891D01*
X018086Y006880D01*
X018056Y006866D01*
X018029Y006849D01*
X018003Y006829D01*
X017980Y006807D01*
X017981Y006806D01*
X018004Y006829D01*
X018029Y006849D01*
X018057Y006866D01*
X018086Y006879D01*
X018116Y006890D01*
X018148Y006897D01*
X018180Y006901D01*
X018212Y006901D01*
X018244Y006897D01*
X018276Y006890D01*
X018306Y006879D01*
X018335Y006866D01*
X018363Y006849D01*
X018388Y006829D01*
X018411Y006806D01*
X018410Y006805D01*
X018387Y006828D01*
X018362Y006848D01*
X018335Y006865D01*
X018306Y006878D01*
X018275Y006889D01*
X018244Y006896D01*
X018212Y006900D01*
X018180Y006900D01*
X018148Y006896D01*
X018117Y006889D01*
X018086Y006878D01*
X018057Y006865D01*
X018030Y006848D01*
X018005Y006828D01*
X017982Y006805D01*
X018005Y006827D01*
X018031Y006847D01*
X018058Y006864D01*
X018087Y006878D01*
X018117Y006888D01*
X018148Y006895D01*
X018180Y006899D01*
X018212Y006899D01*
X018244Y006895D01*
X018275Y006888D01*
X018305Y006878D01*
X018334Y006864D01*
X018361Y006847D01*
X018387Y006827D01*
X018410Y006805D01*
X018409Y006804D01*
X018386Y006826D01*
X018361Y006846D01*
X018334Y006863D01*
X018305Y006877D01*
X018275Y006887D01*
X018244Y006894D01*
X018212Y006898D01*
X018180Y006898D01*
X018148Y006894D01*
X018117Y006887D01*
X018087Y006877D01*
X018058Y006863D01*
X018031Y006846D01*
X018006Y006826D01*
X017983Y006804D01*
X017984Y006803D01*
X018007Y006826D01*
X018032Y006845D01*
X018059Y006862D01*
X018087Y006876D01*
X018117Y006886D01*
X018149Y006893D01*
X018180Y006897D01*
X018212Y006897D01*
X018243Y006893D01*
X018275Y006886D01*
X018305Y006876D01*
X018333Y006862D01*
X018360Y006845D01*
X018385Y006826D01*
X018408Y006803D01*
X018407Y006803D01*
X018385Y006825D01*
X018360Y006844D01*
X018333Y006861D01*
X018304Y006875D01*
X018274Y006885D01*
X018243Y006892D01*
X018212Y006896D01*
X018180Y006896D01*
X018149Y006892D01*
X018118Y006885D01*
X018088Y006875D01*
X018059Y006861D01*
X018032Y006844D01*
X018007Y006825D01*
X017985Y006803D01*
X017985Y006802D01*
X018008Y006824D01*
X018033Y006844D01*
X018060Y006860D01*
X018088Y006874D01*
X018118Y006884D01*
X018149Y006891D01*
X018180Y006895D01*
X018212Y006895D01*
X018243Y006891D01*
X018274Y006884D01*
X018304Y006874D01*
X018332Y006860D01*
X018359Y006844D01*
X018384Y006824D01*
X018407Y006802D01*
X018406Y006801D01*
X018383Y006823D01*
X018359Y006843D01*
X018332Y006859D01*
X018303Y006873D01*
X018274Y006883D01*
X018243Y006890D01*
X018212Y006894D01*
X018180Y006894D01*
X018149Y006890D01*
X018118Y006883D01*
X018089Y006873D01*
X018060Y006859D01*
X018033Y006843D01*
X018009Y006823D01*
X017986Y006801D01*
X017987Y006801D01*
X018009Y006823D01*
X018034Y006842D01*
X018061Y006859D01*
X018089Y006872D01*
X018119Y006882D01*
X018149Y006889D01*
X018180Y006893D01*
X018212Y006893D01*
X018243Y006889D01*
X018273Y006882D01*
X018303Y006872D01*
X018331Y006859D01*
X018358Y006842D01*
X018383Y006823D01*
X018405Y006801D01*
X018404Y006800D01*
X018382Y006822D01*
X018357Y006841D01*
X018331Y006858D01*
X018303Y006871D01*
X018273Y006881D01*
X018243Y006888D01*
X018212Y006892D01*
X018180Y006892D01*
X018149Y006888D01*
X018119Y006881D01*
X018089Y006871D01*
X018061Y006858D01*
X018035Y006841D01*
X018010Y006822D01*
X017988Y006800D01*
X017988Y006799D01*
X018011Y006821D01*
X018035Y006840D01*
X018062Y006857D01*
X018090Y006870D01*
X018119Y006880D01*
X018150Y006887D01*
X018180Y006891D01*
X018212Y006891D01*
X018242Y006887D01*
X018273Y006880D01*
X018302Y006870D01*
X018330Y006857D01*
X018357Y006840D01*
X018381Y006821D01*
X018404Y006799D01*
X018403Y006799D01*
X018381Y006820D01*
X018356Y006840D01*
X018330Y006856D01*
X018302Y006869D01*
X018273Y006879D01*
X018242Y006886D01*
X018212Y006890D01*
X018180Y006890D01*
X018150Y006886D01*
X018119Y006879D01*
X018090Y006869D01*
X018062Y006856D01*
X018036Y006840D01*
X018011Y006820D01*
X017989Y006799D01*
X017990Y006798D01*
X018012Y006820D01*
X018036Y006839D01*
X018063Y006855D01*
X018090Y006868D01*
X018120Y006878D01*
X018150Y006885D01*
X018181Y006889D01*
X018211Y006889D01*
X018242Y006885D01*
X018272Y006878D01*
X018302Y006868D01*
X018329Y006855D01*
X018356Y006839D01*
X018380Y006820D01*
X018402Y006798D01*
X018401Y006797D01*
X018379Y006819D01*
X018355Y006838D01*
X018329Y006854D01*
X018301Y006867D01*
X018272Y006877D01*
X018242Y006884D01*
X018211Y006888D01*
X018181Y006888D01*
X018150Y006884D01*
X018120Y006877D01*
X018091Y006867D01*
X018063Y006854D01*
X018037Y006838D01*
X018013Y006819D01*
X017991Y006797D01*
X018013Y006818D01*
X018037Y006837D01*
X018064Y006853D01*
X018091Y006866D01*
X018120Y006876D01*
X018150Y006883D01*
X018181Y006887D01*
X018211Y006887D01*
X018242Y006883D01*
X018272Y006876D01*
X018301Y006866D01*
X018328Y006853D01*
X018355Y006837D01*
X018379Y006818D01*
X018401Y006797D01*
X018400Y006796D01*
X018378Y006817D01*
X018354Y006836D01*
X018328Y006852D01*
X018300Y006865D01*
X018271Y006875D01*
X018242Y006882D01*
X018211Y006886D01*
X018181Y006886D01*
X018150Y006882D01*
X018121Y006875D01*
X018092Y006865D01*
X018064Y006852D01*
X018038Y006836D01*
X018014Y006817D01*
X017992Y006796D01*
X017993Y006795D01*
X018015Y006817D01*
X018039Y006835D01*
X018064Y006852D01*
X018092Y006865D01*
X018121Y006875D01*
X018150Y006881D01*
X018181Y006885D01*
X018211Y006885D01*
X018242Y006881D01*
X018271Y006875D01*
X018300Y006865D01*
X018328Y006852D01*
X018353Y006835D01*
X018377Y006817D01*
X018399Y006795D01*
X017965Y006400D02*
X017994Y006426D01*
X017994Y006425D02*
X018015Y006404D01*
X018039Y006385D01*
X018065Y006369D01*
X018092Y006356D01*
X018121Y006346D01*
X018151Y006340D01*
X018181Y006336D01*
X018211Y006336D01*
X018241Y006340D01*
X018271Y006346D01*
X018300Y006356D01*
X018327Y006369D01*
X018353Y006385D01*
X018377Y006404D01*
X018398Y006425D01*
X018427Y006400D01*
X018427Y006399D01*
X018403Y006375D01*
X018375Y006353D01*
X018346Y006335D01*
X018314Y006320D01*
X018282Y006309D01*
X018248Y006301D01*
X018213Y006297D01*
X018179Y006297D01*
X018144Y006301D01*
X018110Y006309D01*
X018078Y006320D01*
X018046Y006335D01*
X018017Y006353D01*
X017989Y006375D01*
X017965Y006399D01*
X017965Y006400D01*
X017990Y006376D01*
X018017Y006354D01*
X018047Y006336D01*
X018078Y006321D01*
X018111Y006310D01*
X018144Y006302D01*
X018179Y006298D01*
X018213Y006298D01*
X018248Y006302D01*
X018281Y006310D01*
X018314Y006321D01*
X018345Y006336D01*
X018375Y006354D01*
X018402Y006376D01*
X018427Y006400D01*
X018426Y006400D01*
X018401Y006376D01*
X018374Y006355D01*
X018345Y006337D01*
X018314Y006322D01*
X018281Y006311D01*
X018247Y006303D01*
X018213Y006299D01*
X018179Y006299D01*
X018145Y006303D01*
X018111Y006311D01*
X018078Y006322D01*
X018047Y006337D01*
X018018Y006355D01*
X017991Y006376D01*
X017966Y006400D01*
X017967Y006401D01*
X017991Y006377D01*
X018018Y006356D01*
X018048Y006338D01*
X018079Y006323D01*
X018111Y006312D01*
X018145Y006304D01*
X018179Y006300D01*
X018213Y006300D01*
X018247Y006304D01*
X018281Y006312D01*
X018313Y006323D01*
X018344Y006338D01*
X018374Y006356D01*
X018401Y006377D01*
X018425Y006401D01*
X018424Y006402D01*
X018400Y006378D01*
X018373Y006357D01*
X018344Y006339D01*
X018313Y006324D01*
X018281Y006313D01*
X018247Y006305D01*
X018213Y006301D01*
X018179Y006301D01*
X018145Y006305D01*
X018111Y006313D01*
X018079Y006324D01*
X018048Y006339D01*
X018019Y006357D01*
X017992Y006378D01*
X017968Y006402D01*
X017993Y006379D01*
X018020Y006357D01*
X018049Y006340D01*
X018079Y006325D01*
X018112Y006314D01*
X018145Y006306D01*
X018179Y006302D01*
X018213Y006302D01*
X018247Y006306D01*
X018280Y006314D01*
X018313Y006325D01*
X018343Y006340D01*
X018372Y006357D01*
X018399Y006379D01*
X018424Y006402D01*
X018423Y006403D01*
X018399Y006379D01*
X018372Y006358D01*
X018343Y006340D01*
X018312Y006326D01*
X018280Y006315D01*
X018247Y006307D01*
X018213Y006303D01*
X018179Y006303D01*
X018145Y006307D01*
X018112Y006315D01*
X018080Y006326D01*
X018049Y006340D01*
X018020Y006358D01*
X017993Y006379D01*
X017969Y006403D01*
X017970Y006404D01*
X017994Y006380D01*
X018021Y006359D01*
X018050Y006341D01*
X018080Y006327D01*
X018112Y006316D01*
X018145Y006308D01*
X018179Y006304D01*
X018213Y006304D01*
X018247Y006308D01*
X018280Y006316D01*
X018312Y006327D01*
X018342Y006341D01*
X018371Y006359D01*
X018398Y006380D01*
X018422Y006404D01*
X018421Y006404D01*
X018397Y006381D01*
X018371Y006360D01*
X018342Y006342D01*
X018311Y006328D01*
X018279Y006317D01*
X018246Y006309D01*
X018213Y006305D01*
X018179Y006305D01*
X018146Y006309D01*
X018113Y006317D01*
X018081Y006328D01*
X018050Y006342D01*
X018021Y006360D01*
X017995Y006381D01*
X017971Y006404D01*
X017971Y006405D01*
X017995Y006382D01*
X018022Y006361D01*
X018051Y006343D01*
X018081Y006329D01*
X018113Y006318D01*
X018146Y006310D01*
X018179Y006306D01*
X018213Y006306D01*
X018246Y006310D01*
X018279Y006318D01*
X018311Y006329D01*
X018341Y006343D01*
X018370Y006361D01*
X018397Y006382D01*
X018421Y006405D01*
X018420Y006406D01*
X018396Y006382D01*
X018369Y006362D01*
X018341Y006344D01*
X018311Y006330D01*
X018279Y006319D01*
X018246Y006311D01*
X018213Y006307D01*
X018179Y006307D01*
X018146Y006311D01*
X018113Y006319D01*
X018081Y006330D01*
X018051Y006344D01*
X018023Y006362D01*
X017996Y006382D01*
X017972Y006406D01*
X017973Y006406D01*
X017997Y006383D01*
X018023Y006362D01*
X018052Y006345D01*
X018082Y006330D01*
X018113Y006320D01*
X018146Y006312D01*
X018179Y006308D01*
X018213Y006308D01*
X018246Y006312D01*
X018279Y006320D01*
X018310Y006330D01*
X018340Y006345D01*
X018369Y006362D01*
X018395Y006383D01*
X018419Y006406D01*
X018418Y006407D01*
X018395Y006384D01*
X018368Y006363D01*
X018340Y006346D01*
X018310Y006331D01*
X018278Y006320D01*
X018246Y006313D01*
X018213Y006309D01*
X018179Y006309D01*
X018146Y006313D01*
X018114Y006320D01*
X018082Y006331D01*
X018052Y006346D01*
X018024Y006363D01*
X017997Y006384D01*
X017974Y006407D01*
X017974Y006408D01*
X017998Y006385D01*
X018024Y006364D01*
X018052Y006347D01*
X018083Y006332D01*
X018114Y006321D01*
X018146Y006314D01*
X018179Y006310D01*
X018213Y006310D01*
X018246Y006314D01*
X018278Y006321D01*
X018309Y006332D01*
X018340Y006347D01*
X018368Y006364D01*
X018394Y006385D01*
X018418Y006408D01*
X018417Y006409D01*
X018393Y006385D01*
X018367Y006365D01*
X018339Y006347D01*
X018309Y006333D01*
X018278Y006322D01*
X018245Y006315D01*
X018213Y006311D01*
X018179Y006311D01*
X018147Y006315D01*
X018114Y006322D01*
X018083Y006333D01*
X018053Y006347D01*
X018025Y006365D01*
X017999Y006385D01*
X017975Y006409D01*
X017976Y006409D01*
X017999Y006386D01*
X018025Y006366D01*
X018053Y006348D01*
X018083Y006334D01*
X018114Y006323D01*
X018147Y006316D01*
X018179Y006312D01*
X018213Y006312D01*
X018245Y006316D01*
X018278Y006323D01*
X018309Y006334D01*
X018339Y006348D01*
X018367Y006366D01*
X018393Y006386D01*
X018416Y006409D01*
X018415Y006410D01*
X018392Y006387D01*
X018366Y006366D01*
X018338Y006349D01*
X018308Y006335D01*
X018277Y006324D01*
X018245Y006317D01*
X018212Y006313D01*
X018180Y006313D01*
X018147Y006317D01*
X018115Y006324D01*
X018084Y006335D01*
X018054Y006349D01*
X018026Y006366D01*
X018000Y006387D01*
X017977Y006410D01*
X017977Y006411D01*
X018001Y006388D01*
X018027Y006367D01*
X018054Y006350D01*
X018084Y006336D01*
X018115Y006325D01*
X018147Y006318D01*
X018180Y006314D01*
X018212Y006314D01*
X018245Y006318D01*
X018277Y006325D01*
X018308Y006336D01*
X018338Y006350D01*
X018365Y006367D01*
X018391Y006388D01*
X018415Y006411D01*
X018414Y006411D01*
X018391Y006388D01*
X018365Y006368D01*
X018337Y006351D01*
X018308Y006337D01*
X018277Y006326D01*
X018245Y006319D01*
X018212Y006315D01*
X018180Y006315D01*
X018147Y006319D01*
X018115Y006326D01*
X018084Y006337D01*
X018055Y006351D01*
X018027Y006368D01*
X018001Y006388D01*
X017978Y006411D01*
X017979Y006412D01*
X018002Y006389D01*
X018028Y006369D01*
X018055Y006352D01*
X018085Y006338D01*
X018116Y006327D01*
X018147Y006320D01*
X018180Y006316D01*
X018212Y006316D01*
X018245Y006320D01*
X018276Y006327D01*
X018307Y006338D01*
X018337Y006352D01*
X018364Y006369D01*
X018390Y006389D01*
X018413Y006412D01*
X018412Y006413D01*
X018389Y006390D01*
X018364Y006370D01*
X018336Y006353D01*
X018307Y006339D01*
X018276Y006328D01*
X018244Y006321D01*
X018212Y006317D01*
X018180Y006317D01*
X018148Y006321D01*
X018116Y006328D01*
X018085Y006339D01*
X018056Y006353D01*
X018028Y006370D01*
X018003Y006390D01*
X017980Y006413D01*
X018003Y006391D01*
X018029Y006371D01*
X018056Y006354D01*
X018086Y006340D01*
X018116Y006329D01*
X018148Y006322D01*
X018180Y006318D01*
X018212Y006318D01*
X018244Y006322D01*
X018276Y006329D01*
X018306Y006340D01*
X018336Y006354D01*
X018363Y006371D01*
X018389Y006391D01*
X018412Y006413D01*
X018411Y006414D01*
X018388Y006391D01*
X018363Y006371D01*
X018335Y006354D01*
X018306Y006341D01*
X018276Y006330D01*
X018244Y006323D01*
X018212Y006319D01*
X018180Y006319D01*
X018148Y006323D01*
X018116Y006330D01*
X018086Y006341D01*
X018057Y006354D01*
X018029Y006371D01*
X018004Y006391D01*
X017981Y006414D01*
X017982Y006415D01*
X018005Y006392D01*
X018030Y006372D01*
X018057Y006355D01*
X018086Y006342D01*
X018117Y006331D01*
X018148Y006324D01*
X018180Y006320D01*
X018212Y006320D01*
X018244Y006324D01*
X018275Y006331D01*
X018306Y006342D01*
X018335Y006355D01*
X018362Y006372D01*
X018387Y006392D01*
X018410Y006415D01*
X018387Y006393D01*
X018361Y006373D01*
X018334Y006356D01*
X018305Y006342D01*
X018275Y006332D01*
X018244Y006325D01*
X018212Y006321D01*
X018180Y006321D01*
X018148Y006325D01*
X018117Y006332D01*
X018087Y006342D01*
X018058Y006356D01*
X018031Y006373D01*
X018005Y006393D01*
X017982Y006415D01*
X017983Y006416D01*
X018006Y006394D01*
X018031Y006374D01*
X018058Y006357D01*
X018087Y006343D01*
X018117Y006333D01*
X018148Y006326D01*
X018180Y006322D01*
X018212Y006322D01*
X018244Y006326D01*
X018275Y006333D01*
X018305Y006343D01*
X018334Y006357D01*
X018361Y006374D01*
X018386Y006394D01*
X018409Y006416D01*
X018408Y006417D01*
X018385Y006394D01*
X018360Y006375D01*
X018333Y006358D01*
X018305Y006344D01*
X018275Y006334D01*
X018243Y006327D01*
X018212Y006323D01*
X018180Y006323D01*
X018149Y006327D01*
X018117Y006334D01*
X018087Y006344D01*
X018059Y006358D01*
X018032Y006375D01*
X018007Y006394D01*
X017984Y006417D01*
X017985Y006417D01*
X018007Y006395D01*
X018032Y006376D01*
X018059Y006359D01*
X018088Y006345D01*
X018118Y006335D01*
X018149Y006328D01*
X018180Y006324D01*
X018212Y006324D01*
X018243Y006328D01*
X018274Y006335D01*
X018304Y006345D01*
X018333Y006359D01*
X018360Y006376D01*
X018385Y006395D01*
X018407Y006417D01*
X018407Y006418D01*
X018384Y006396D01*
X018359Y006376D01*
X018332Y006360D01*
X018304Y006346D01*
X018274Y006336D01*
X018243Y006329D01*
X018212Y006325D01*
X018180Y006325D01*
X018149Y006329D01*
X018118Y006336D01*
X018088Y006346D01*
X018060Y006360D01*
X018033Y006376D01*
X018008Y006396D01*
X017985Y006418D01*
X017986Y006419D01*
X018009Y006397D01*
X018033Y006377D01*
X018060Y006361D01*
X018089Y006347D01*
X018118Y006337D01*
X018149Y006330D01*
X018180Y006326D01*
X018212Y006326D01*
X018243Y006330D01*
X018274Y006337D01*
X018303Y006347D01*
X018332Y006361D01*
X018359Y006377D01*
X018383Y006397D01*
X018406Y006419D01*
X018405Y006419D01*
X018383Y006397D01*
X018358Y006378D01*
X018331Y006361D01*
X018303Y006348D01*
X018273Y006338D01*
X018243Y006331D01*
X018212Y006327D01*
X018180Y006327D01*
X018149Y006331D01*
X018119Y006338D01*
X018089Y006348D01*
X018061Y006361D01*
X018034Y006378D01*
X018009Y006397D01*
X017987Y006419D01*
X017988Y006420D01*
X018010Y006398D01*
X018035Y006379D01*
X018061Y006362D01*
X018089Y006349D01*
X018119Y006339D01*
X018149Y006332D01*
X018180Y006328D01*
X018212Y006328D01*
X018243Y006332D01*
X018273Y006339D01*
X018303Y006349D01*
X018331Y006362D01*
X018357Y006379D01*
X018382Y006398D01*
X018404Y006420D01*
X018404Y006421D01*
X018381Y006399D01*
X018357Y006380D01*
X018330Y006363D01*
X018302Y006350D01*
X018273Y006340D01*
X018242Y006333D01*
X018212Y006329D01*
X018180Y006329D01*
X018150Y006333D01*
X018119Y006340D01*
X018090Y006350D01*
X018062Y006363D01*
X018035Y006380D01*
X018011Y006399D01*
X017988Y006421D01*
X017989Y006421D01*
X018011Y006400D01*
X018036Y006380D01*
X018062Y006364D01*
X018090Y006351D01*
X018119Y006341D01*
X018150Y006334D01*
X018180Y006330D01*
X018212Y006330D01*
X018242Y006334D01*
X018273Y006341D01*
X018302Y006351D01*
X018330Y006364D01*
X018356Y006380D01*
X018381Y006400D01*
X018403Y006421D01*
X018402Y006422D01*
X018380Y006400D01*
X018356Y006381D01*
X018329Y006365D01*
X018302Y006352D01*
X018272Y006342D01*
X018242Y006335D01*
X018211Y006331D01*
X018181Y006331D01*
X018150Y006335D01*
X018120Y006342D01*
X018090Y006352D01*
X018063Y006365D01*
X018036Y006381D01*
X018012Y006400D01*
X017990Y006422D01*
X017991Y006423D01*
X018013Y006401D01*
X018037Y006382D01*
X018063Y006366D01*
X018091Y006353D01*
X018120Y006343D01*
X018150Y006336D01*
X018181Y006332D01*
X018211Y006332D01*
X018242Y006336D01*
X018272Y006343D01*
X018301Y006353D01*
X018329Y006366D01*
X018355Y006382D01*
X018379Y006401D01*
X018401Y006423D01*
X018379Y006402D01*
X018355Y006383D01*
X018328Y006367D01*
X018301Y006354D01*
X018272Y006344D01*
X018242Y006337D01*
X018211Y006333D01*
X018181Y006333D01*
X018150Y006337D01*
X018120Y006344D01*
X018091Y006354D01*
X018064Y006367D01*
X018037Y006383D01*
X018013Y006402D01*
X017991Y006423D01*
X017992Y006424D01*
X018014Y006403D01*
X018038Y006384D01*
X018064Y006368D01*
X018092Y006355D01*
X018121Y006345D01*
X018150Y006338D01*
X018181Y006334D01*
X018211Y006334D01*
X018242Y006338D01*
X018271Y006345D01*
X018300Y006355D01*
X018328Y006368D01*
X018354Y006384D01*
X018378Y006403D01*
X018400Y006424D01*
X018399Y006425D01*
X018377Y006403D01*
X018353Y006385D01*
X018328Y006368D01*
X018300Y006355D01*
X018271Y006345D01*
X018242Y006339D01*
X018211Y006335D01*
X018181Y006335D01*
X018150Y006339D01*
X018121Y006345D01*
X018092Y006355D01*
X018064Y006368D01*
X018039Y006385D01*
X018015Y006403D01*
X017993Y006425D01*
D17*
X018196Y006610D03*
X018156Y013586D03*
D18*
X017950Y013812D03*
X017989Y006836D03*
D19*
X020373Y005079D02*
X020723Y005079D01*
X020548Y005029D02*
X020373Y004879D01*
X020723Y004879D01*
X020548Y005029D01*
X031433Y005479D02*
X031433Y005630D01*
X031508Y005705D01*
X031583Y005705D01*
X031658Y005630D01*
X031733Y005705D01*
X031808Y005705D01*
X031883Y005630D01*
X031883Y005479D01*
X031808Y005404D01*
X031658Y005555D02*
X031658Y005630D01*
X031433Y005479D02*
X031508Y005404D01*
X031508Y003705D02*
X031433Y003630D01*
X031433Y003479D01*
X031508Y003404D01*
X031583Y003705D02*
X031883Y003404D01*
X031883Y003705D01*
X031583Y003705D02*
X031508Y003705D01*
X031883Y001705D02*
X031883Y001404D01*
X031883Y001555D02*
X031433Y001555D01*
X031583Y001404D01*
X031583Y008267D02*
X031433Y008417D01*
X031883Y008417D01*
X031883Y008267D02*
X031883Y008567D01*
X031883Y010267D02*
X031583Y010567D01*
X031508Y010567D01*
X031433Y010492D01*
X031433Y010342D01*
X031508Y010267D01*
X031883Y010267D02*
X031883Y010567D01*
X031808Y012267D02*
X031883Y012342D01*
X031883Y012492D01*
X031808Y012567D01*
X031733Y012567D01*
X031658Y012492D01*
X031658Y012417D01*
X031658Y012492D02*
X031583Y012567D01*
X031508Y012567D01*
X031433Y012492D01*
X031433Y012342D01*
X031508Y012267D01*
X031641Y014465D02*
X034641Y014465D01*
X034641Y016665D01*
X034141Y016665D01*
X034141Y016165D01*
X032141Y016165D01*
X032141Y016665D01*
X034141Y016665D01*
X034641Y018008D02*
X031641Y018008D01*
X031641Y020208D01*
X032141Y020208D01*
X032141Y019708D01*
X034141Y019708D01*
X034141Y020208D01*
X034641Y020208D01*
X034641Y018008D01*
X032141Y016665D02*
X031641Y016665D01*
X031641Y014465D01*
X031097Y014465D02*
X028097Y014465D01*
X028097Y016665D01*
X028597Y016665D01*
X028597Y016165D01*
X030597Y016165D01*
X030597Y016665D01*
X031097Y016665D01*
X031097Y014465D01*
X027554Y014465D02*
X024554Y014465D01*
X024554Y016665D01*
X025054Y016665D01*
X025054Y016165D01*
X027054Y016165D01*
X027054Y016665D01*
X027554Y016665D01*
X027554Y014465D01*
X027054Y016665D02*
X025054Y016665D01*
X024011Y016665D02*
X023511Y016665D01*
X023511Y016165D01*
X021511Y016165D01*
X021511Y016665D01*
X023511Y016665D01*
X024011Y016665D02*
X024011Y014465D01*
X021011Y014465D01*
X021011Y016665D01*
X021511Y016665D01*
X020468Y016665D02*
X019968Y016665D01*
X019968Y016165D01*
X017968Y016165D01*
X017968Y016665D01*
X019968Y016665D01*
X020468Y016665D02*
X020468Y014465D01*
X017468Y014465D01*
X017468Y016665D01*
X017968Y016665D01*
X016924Y016665D02*
X016424Y016665D01*
X016424Y016165D01*
X014424Y016165D01*
X014424Y016665D01*
X016424Y016665D01*
X016924Y016665D02*
X016924Y014465D01*
X013924Y014465D01*
X013924Y016665D01*
X014424Y016665D01*
X013381Y016665D02*
X012881Y016665D01*
X012881Y016165D01*
X010881Y016165D01*
X010881Y016665D01*
X012881Y016665D01*
X013381Y016665D02*
X013381Y014465D01*
X010381Y014465D01*
X010381Y016665D01*
X010881Y016665D01*
X009838Y016665D02*
X009338Y016665D01*
X009338Y016165D01*
X007338Y016165D01*
X007338Y016665D01*
X009338Y016665D01*
X009838Y016665D02*
X009838Y014465D01*
X006838Y014465D01*
X006838Y016665D01*
X007338Y016665D01*
X005873Y017003D02*
X000125Y017003D01*
X000125Y020547D01*
X005873Y020547D01*
X005873Y017003D01*
X006838Y018008D02*
X009838Y018008D01*
X009838Y020208D01*
X009338Y020208D01*
X009338Y019708D01*
X007338Y019708D01*
X007338Y020208D01*
X009338Y020208D01*
X010381Y020208D02*
X010881Y020208D01*
X010881Y019708D01*
X012881Y019708D01*
X012881Y020208D01*
X013381Y020208D01*
X013381Y018008D01*
X010381Y018008D01*
X010381Y020208D01*
X010881Y020208D02*
X012881Y020208D01*
X013924Y020208D02*
X014424Y020208D01*
X014424Y019708D01*
X016424Y019708D01*
X016424Y020208D01*
X016924Y020208D01*
X016924Y018008D01*
X013924Y018008D01*
X013924Y020208D01*
X014424Y020208D02*
X016424Y020208D01*
X017468Y020208D02*
X017968Y020208D01*
X017968Y019708D01*
X019968Y019708D01*
X019968Y020208D01*
X020468Y020208D01*
X020468Y018008D01*
X017468Y018008D01*
X017468Y020208D01*
X017968Y020208D02*
X019968Y020208D01*
X021011Y020208D02*
X021511Y020208D01*
X021511Y019708D01*
X023511Y019708D01*
X023511Y020208D01*
X024011Y020208D01*
X024011Y018008D01*
X021011Y018008D01*
X021011Y020208D01*
X021511Y020208D02*
X023511Y020208D01*
X024554Y020208D02*
X025054Y020208D01*
X025054Y019708D01*
X027054Y019708D01*
X027054Y020208D01*
X027554Y020208D01*
X027554Y018008D01*
X024554Y018008D01*
X024554Y020208D01*
X025054Y020208D02*
X027054Y020208D01*
X028097Y020208D02*
X028597Y020208D01*
X028597Y019708D01*
X030597Y019708D01*
X030597Y020208D01*
X031097Y020208D01*
X031097Y018008D01*
X028097Y018008D01*
X028097Y020208D01*
X028597Y020208D02*
X030597Y020208D01*
X032141Y020208D02*
X034141Y020208D01*
X030597Y016665D02*
X028597Y016665D01*
X020723Y012240D02*
X020373Y012240D01*
X020548Y012190D02*
X020373Y012040D01*
X020723Y012040D01*
X020548Y012190D01*
X007338Y020208D02*
X006838Y020208D01*
X006838Y018008D01*
X005979Y005073D02*
X005629Y005073D01*
X005804Y004923D01*
X005979Y005073D01*
X005979Y004873D02*
X005629Y004873D01*
D20*
X005440Y003933D02*
X006188Y003933D01*
X006188Y006019D01*
X005440Y006019D01*
X005440Y003933D01*
X020164Y003933D02*
X020912Y003933D01*
X020912Y006019D01*
X020164Y006019D01*
X020164Y003933D01*
X020164Y011094D02*
X020912Y011094D01*
X020912Y013181D01*
X020164Y013181D01*
X020164Y011094D01*
D21*
X022094Y013708D02*
X022097Y013743D01*
X022105Y013777D01*
X022116Y013810D01*
X022130Y013842D01*
X022148Y013872D01*
X022169Y013900D01*
X022193Y013926D01*
X022219Y013950D01*
X022247Y013970D01*
X022278Y013987D01*
X022310Y014002D01*
X022343Y014012D01*
X022378Y014019D01*
X022413Y014023D01*
X022448Y014022D01*
X022448Y014023D02*
X029259Y014023D01*
X029292Y014021D01*
X029324Y014016D01*
X029356Y014008D01*
X029387Y013996D01*
X029417Y013981D01*
X029444Y013963D01*
X029470Y013942D01*
X029493Y013919D01*
X029514Y013893D01*
X029532Y013866D01*
X029547Y013836D01*
X029559Y013805D01*
X029567Y013773D01*
X029572Y013741D01*
X029574Y013708D01*
X029574Y008275D01*
X029572Y008242D01*
X029567Y008210D01*
X029559Y008178D01*
X029547Y008147D01*
X029532Y008117D01*
X029514Y008090D01*
X029493Y008064D01*
X029470Y008041D01*
X029444Y008020D01*
X029417Y008002D01*
X029387Y007987D01*
X029356Y007975D01*
X029324Y007967D01*
X029292Y007962D01*
X029259Y007960D01*
X022448Y007960D01*
X022448Y007961D02*
X022413Y007960D01*
X022378Y007964D01*
X022343Y007971D01*
X022310Y007981D01*
X022278Y007996D01*
X022247Y008013D01*
X022219Y008033D01*
X022193Y008057D01*
X022169Y008083D01*
X022148Y008111D01*
X022130Y008141D01*
X022116Y008173D01*
X022105Y008206D01*
X022097Y008240D01*
X022094Y008275D01*
X022094Y013708D01*
X022448Y007161D02*
X029259Y007161D01*
X029292Y007159D01*
X029324Y007154D01*
X029356Y007146D01*
X029387Y007134D01*
X029417Y007119D01*
X029444Y007101D01*
X029470Y007080D01*
X029493Y007057D01*
X029514Y007031D01*
X029532Y007004D01*
X029547Y006974D01*
X029559Y006943D01*
X029567Y006911D01*
X029572Y006879D01*
X029574Y006846D01*
X029574Y001413D01*
X029572Y001380D01*
X029567Y001348D01*
X029559Y001316D01*
X029547Y001285D01*
X029532Y001255D01*
X029514Y001228D01*
X029493Y001202D01*
X029470Y001179D01*
X029444Y001158D01*
X029417Y001140D01*
X029387Y001125D01*
X029356Y001113D01*
X029324Y001105D01*
X029292Y001100D01*
X029259Y001098D01*
X022448Y001098D01*
X022448Y001099D02*
X022413Y001098D01*
X022378Y001102D01*
X022343Y001109D01*
X022310Y001119D01*
X022278Y001134D01*
X022247Y001151D01*
X022219Y001171D01*
X022193Y001195D01*
X022169Y001221D01*
X022148Y001249D01*
X022130Y001279D01*
X022116Y001311D01*
X022105Y001344D01*
X022097Y001378D01*
X022094Y001413D01*
X022094Y006846D01*
X022097Y006881D01*
X022105Y006915D01*
X022116Y006948D01*
X022130Y006980D01*
X022148Y007010D01*
X022169Y007038D01*
X022193Y007064D01*
X022219Y007088D01*
X022247Y007108D01*
X022278Y007125D01*
X022310Y007140D01*
X022343Y007150D01*
X022378Y007157D01*
X022413Y007161D01*
X022448Y007160D01*
D22*
X011138Y008035D02*
X011138Y004785D01*
X007538Y004785D01*
X007538Y008035D01*
X011138Y008035D01*
D23*
X010338Y004360D03*
X009338Y004360D03*
X008338Y004360D03*
D24*
X012901Y003845D03*
X013393Y003128D03*
X013618Y005322D03*
X014110Y006162D03*
D25*
X013398Y004132D03*
X013388Y003138D03*
D26*
X013393Y003148D03*
X013393Y003681D03*
D27*
X013388Y003158D03*
X013377Y005865D03*
D28*
X013388Y003169D03*
D29*
X013393Y003179D03*
D30*
X013388Y003189D03*
D31*
X013388Y003199D03*
D32*
X013388Y003210D03*
X013377Y005793D03*
D33*
X013388Y003220D03*
D34*
X013388Y003230D03*
D35*
X013388Y003240D03*
D36*
X013388Y003251D03*
D37*
X013388Y003261D03*
D38*
X013388Y003271D03*
D39*
X013013Y003281D03*
X014264Y004747D03*
X014264Y004758D03*
X014264Y004768D03*
X014264Y004788D03*
X014264Y004799D03*
X014264Y004809D03*
X014264Y004819D03*
X014264Y004829D03*
X014264Y004850D03*
X014264Y004860D03*
X014264Y004870D03*
X014264Y004881D03*
D40*
X013752Y003281D03*
X013382Y006408D03*
D41*
X012942Y003292D03*
D42*
X013823Y003292D03*
X013382Y006419D03*
D43*
X012901Y003302D03*
D44*
X013869Y003302D03*
X013039Y005762D03*
D45*
X013921Y006244D03*
X013408Y005117D03*
X013757Y003804D03*
X012865Y003312D03*
D46*
X013905Y003312D03*
D47*
X013398Y003661D03*
X012834Y003322D03*
X012998Y005752D03*
X012824Y006234D03*
X013767Y005752D03*
D48*
X013936Y003322D03*
D49*
X012803Y003333D03*
X013377Y005445D03*
D50*
X012798Y006224D03*
X013967Y003333D03*
D51*
X013987Y003343D03*
X012778Y003343D03*
D52*
X012757Y003353D03*
X012952Y003825D03*
X014028Y006203D03*
D53*
X014003Y006214D03*
X013798Y005742D03*
X012772Y006214D03*
X013398Y004112D03*
X013828Y003825D03*
X014013Y003353D03*
D54*
X012731Y003363D03*
X012721Y006193D03*
D55*
X014039Y003363D03*
D56*
X014059Y003374D03*
X012931Y003835D03*
X013167Y004235D03*
X012706Y003374D03*
X012706Y006183D03*
D57*
X014095Y006173D03*
X013141Y005322D03*
X013408Y004911D03*
X013408Y004450D03*
X013880Y003845D03*
X012690Y003384D03*
D58*
X014085Y003384D03*
X013418Y004932D03*
X012680Y006173D03*
D59*
X012665Y006162D03*
X012644Y006152D03*
X012890Y005711D03*
X013875Y005711D03*
X013423Y004942D03*
X013413Y004922D03*
X014121Y003404D03*
X014100Y003394D03*
X012665Y003394D03*
D60*
X012649Y003404D03*
X012629Y003415D03*
X014136Y003415D03*
X014136Y006152D03*
X012629Y006142D03*
D61*
X012603Y006132D03*
X014172Y006132D03*
X013393Y004101D03*
X014162Y003425D03*
X012613Y003425D03*
D62*
X012593Y003435D03*
X012860Y003866D03*
X013649Y004245D03*
X013926Y003866D03*
X014151Y006142D03*
D63*
X014187Y006121D03*
X012824Y005680D03*
X012578Y006111D03*
X012588Y006121D03*
X012557Y006101D03*
X013941Y003876D03*
X014208Y003456D03*
X014177Y003435D03*
X013398Y003650D03*
X012578Y003445D03*
D64*
X012844Y003876D03*
X013131Y004245D03*
X014198Y003445D03*
X013654Y005311D03*
X013111Y005311D03*
X012844Y005691D03*
X013921Y005691D03*
X014218Y006101D03*
D65*
X014203Y006111D03*
X014233Y006091D03*
X013957Y005670D03*
X012808Y005670D03*
X012542Y006091D03*
X013413Y004440D03*
X013680Y004255D03*
X013106Y004255D03*
X013957Y003886D03*
X013977Y003896D03*
X014223Y003466D03*
X014244Y003476D03*
X012562Y003456D03*
X012542Y003466D03*
D66*
X012526Y003476D03*
X012496Y003497D03*
X012824Y003886D03*
X013695Y004266D03*
X013992Y003907D03*
X014269Y003497D03*
X013675Y005301D03*
X013090Y005301D03*
X012772Y005650D03*
X012793Y005660D03*
X012526Y006080D03*
X012496Y006060D03*
X013972Y005660D03*
X014249Y006080D03*
D67*
X014269Y006070D03*
X012516Y003486D03*
D68*
X014259Y003486D03*
X012506Y006070D03*
D69*
X012480Y006049D03*
X012439Y006019D03*
X013690Y005291D03*
X013403Y005158D03*
X013987Y005650D03*
X012788Y003907D03*
X012480Y003507D03*
X014285Y003507D03*
X014305Y003517D03*
D70*
X014315Y003527D03*
X013085Y004266D03*
X012470Y003517D03*
X012449Y006029D03*
X012470Y006039D03*
X014295Y006049D03*
D71*
X014310Y006039D03*
X014321Y006029D03*
X014362Y005998D03*
X014033Y005619D03*
X013377Y005465D03*
X013070Y005291D03*
X012414Y005998D03*
X013070Y004276D03*
X012762Y003927D03*
X012444Y003538D03*
X012455Y003527D03*
X012414Y003558D03*
X013716Y004276D03*
X014054Y003948D03*
X014382Y003579D03*
X014331Y003538D03*
D72*
X014341Y003548D03*
X012424Y003548D03*
X012424Y006008D03*
D73*
X012388Y005978D03*
X012726Y005619D03*
X013054Y005281D03*
X013711Y005281D03*
X014377Y005988D03*
X014039Y003937D03*
X014356Y003558D03*
X014408Y003599D03*
X012726Y003948D03*
X012388Y003579D03*
D74*
X012378Y003589D03*
X012398Y003568D03*
X012716Y003958D03*
X014069Y003958D03*
X014367Y003568D03*
X014397Y003589D03*
X014049Y005609D03*
X014387Y005978D03*
X012716Y005609D03*
X012378Y005967D03*
X012398Y005988D03*
D75*
X012362Y005957D03*
X012342Y005937D03*
X012660Y005568D03*
X012690Y005588D03*
X012701Y005598D03*
X013736Y005260D03*
X014074Y005588D03*
X014064Y005598D03*
X014413Y005957D03*
X014403Y005967D03*
X014433Y005937D03*
X013757Y004307D03*
X013746Y004296D03*
X014085Y003968D03*
X014105Y003989D03*
X014454Y003640D03*
X014464Y003650D03*
X014444Y003630D03*
X014433Y003620D03*
X013039Y004296D03*
X012701Y003968D03*
X012342Y003620D03*
X012332Y003630D03*
X012362Y003599D03*
D76*
X012352Y003609D03*
X012690Y003978D03*
X014095Y003978D03*
X013726Y005270D03*
X013039Y005270D03*
X012352Y005947D03*
X014423Y005947D03*
D77*
X013731Y004286D03*
X014418Y003609D03*
D78*
X014479Y003661D03*
X014500Y003681D03*
X014531Y003712D03*
X014131Y004009D03*
X013393Y004091D03*
X013249Y004512D03*
X013341Y004665D03*
X013587Y004665D03*
X013024Y005260D03*
X012634Y005547D03*
X012316Y005916D03*
X014110Y005557D03*
X014479Y005896D03*
X014500Y005875D03*
X014449Y005926D03*
X012654Y004009D03*
X012316Y003640D03*
X012265Y003691D03*
D79*
X013403Y003640D03*
X013403Y004081D03*
X013649Y004563D03*
X013710Y004768D03*
X013710Y004922D03*
X013823Y005117D03*
X013403Y005178D03*
X013382Y004993D03*
X013834Y004440D03*
X014664Y005629D03*
D80*
X014469Y005906D03*
X014459Y005916D03*
X014100Y005568D03*
X013752Y005250D03*
X013013Y005250D03*
X012644Y005557D03*
X012624Y005537D03*
X012275Y005875D03*
X012296Y005896D03*
X012306Y005906D03*
X012326Y005926D03*
X013034Y004307D03*
X012675Y003989D03*
X012665Y003999D03*
X012255Y003702D03*
X012275Y003681D03*
X012296Y003661D03*
X012306Y003650D03*
X014121Y003999D03*
X014510Y003691D03*
X014520Y003702D03*
D81*
X012285Y003671D03*
X012285Y005885D03*
D82*
X013398Y003671D03*
D83*
X014490Y003671D03*
X014090Y005578D03*
X014490Y005885D03*
X012675Y005578D03*
D84*
X013398Y004184D03*
X013398Y003691D03*
D85*
X013393Y003702D03*
D86*
X013767Y004317D03*
X013572Y004512D03*
X013018Y004317D03*
X013008Y004327D03*
X012639Y004019D03*
X012629Y004030D03*
X012608Y004050D03*
X012598Y004060D03*
X012239Y003712D03*
X012229Y003722D03*
X012209Y003743D03*
X014157Y004030D03*
X014177Y004050D03*
X014187Y004060D03*
X014536Y003722D03*
X014556Y003743D03*
X014567Y003753D03*
X014577Y003763D03*
X014597Y003784D03*
X013757Y005240D03*
X014126Y005547D03*
X014136Y005537D03*
X014526Y005855D03*
X014536Y005844D03*
X014546Y005834D03*
X014567Y005814D03*
X014577Y005803D03*
X012998Y005240D03*
X012260Y005865D03*
X012239Y005844D03*
X012229Y005834D03*
X012209Y005814D03*
X012198Y005803D03*
D87*
X013398Y003712D03*
D88*
X013393Y003722D03*
D89*
X014167Y004040D03*
X014546Y003732D03*
X013582Y004655D03*
X013336Y004655D03*
X014157Y005516D03*
X014556Y005824D03*
X012219Y005824D03*
X012219Y003732D03*
D90*
X013398Y003732D03*
D91*
X013393Y003743D03*
D92*
X014192Y004071D03*
X014613Y003804D03*
X013577Y004645D03*
X014172Y005506D03*
X012593Y005506D03*
X012152Y005752D03*
X012152Y003804D03*
X012203Y003753D03*
D93*
X013393Y003753D03*
D94*
X013793Y004337D03*
X014623Y003814D03*
X014633Y003825D03*
X013372Y004952D03*
X012983Y005219D03*
X012583Y005496D03*
X012193Y005793D03*
X012183Y005783D03*
X012173Y005773D03*
X013772Y005229D03*
X013782Y005219D03*
X014182Y005496D03*
X014582Y005793D03*
X014592Y005783D03*
X014602Y005773D03*
X014623Y005752D03*
X012993Y004337D03*
X012193Y003763D03*
X012183Y003773D03*
X012173Y003784D03*
X012142Y003825D03*
D95*
X013393Y003763D03*
D96*
X013393Y003773D03*
D97*
X013777Y004327D03*
X013408Y004430D03*
X014146Y004019D03*
X014587Y003773D03*
X012988Y005229D03*
X012619Y005527D03*
X012250Y005855D03*
X014146Y005527D03*
X014515Y005865D03*
D98*
X013393Y003784D03*
D99*
X012162Y003794D03*
X014602Y003794D03*
X012603Y005516D03*
X012162Y005762D03*
D100*
X013080Y003794D03*
D101*
X013700Y003794D03*
D102*
X013393Y004122D03*
X013024Y003804D03*
D103*
X012588Y004071D03*
X012147Y003814D03*
X012126Y003845D03*
X013336Y004645D03*
X013408Y005168D03*
X013798Y005199D03*
X014187Y005486D03*
X014638Y005732D03*
X013377Y005916D03*
X012578Y005486D03*
X012567Y005475D03*
X012147Y005742D03*
X012126Y005711D03*
X013808Y004358D03*
X014638Y003835D03*
D104*
X013413Y004460D03*
X012983Y003814D03*
X012962Y005742D03*
X013382Y006429D03*
X013977Y006224D03*
D105*
X013408Y005127D03*
X013798Y003814D03*
D106*
X012977Y004358D03*
X012137Y003835D03*
X012137Y005732D03*
X014628Y005742D03*
X014649Y005711D03*
D107*
X014069Y006183D03*
X013854Y005721D03*
X012911Y005721D03*
X013854Y003835D03*
D108*
X014203Y004081D03*
X014213Y004091D03*
X014643Y003845D03*
X013577Y004635D03*
X013218Y004522D03*
X012972Y004368D03*
X012572Y004091D03*
X012962Y005199D03*
X012562Y005465D03*
X012132Y005721D03*
X013803Y005188D03*
X014192Y005475D03*
X014643Y005721D03*
D109*
X014654Y005701D03*
X012121Y005701D03*
X012121Y003855D03*
X014654Y003855D03*
D110*
X012885Y003855D03*
D111*
X013900Y003855D03*
X013408Y005147D03*
X013900Y005701D03*
X012865Y005701D03*
D112*
X012116Y005691D03*
X012957Y005188D03*
X013818Y004378D03*
X012116Y003866D03*
D113*
X012547Y004460D03*
X012547Y004481D03*
X012547Y004491D03*
X012547Y004501D03*
X012547Y004512D03*
X012547Y004522D03*
X012547Y004542D03*
X012547Y004553D03*
X012547Y004563D03*
X012547Y004573D03*
X012547Y004583D03*
X012547Y004604D03*
X012547Y004614D03*
X012547Y004624D03*
X012547Y004635D03*
X012547Y004645D03*
X012547Y004665D03*
X012547Y004676D03*
X012547Y004686D03*
X012547Y004696D03*
X012547Y004706D03*
X012547Y004727D03*
X012547Y004737D03*
X012547Y004747D03*
X012547Y004758D03*
X012547Y004768D03*
X012547Y004788D03*
X012547Y004799D03*
X012547Y004809D03*
X012547Y004819D03*
X012547Y004829D03*
X012547Y004850D03*
X012547Y004860D03*
X012547Y004870D03*
X012547Y004881D03*
X012547Y004891D03*
X012547Y004911D03*
X012547Y004922D03*
X012547Y004932D03*
X012547Y004942D03*
X012547Y004952D03*
X012547Y004973D03*
X012547Y004983D03*
X012967Y004378D03*
X013336Y004635D03*
X013603Y004522D03*
X014659Y003876D03*
X014659Y003866D03*
X014198Y005465D03*
X014659Y005691D03*
D114*
X014664Y005680D03*
X013813Y005178D03*
X013823Y004389D03*
X014223Y004112D03*
X014664Y003886D03*
X012962Y004389D03*
X012562Y004112D03*
X012111Y003876D03*
X012952Y005178D03*
X012552Y005445D03*
X012111Y005680D03*
D115*
X012106Y005670D03*
X012547Y005434D03*
X013213Y005075D03*
X013480Y004706D03*
X013183Y004542D03*
X012547Y004450D03*
X012106Y003886D03*
X013828Y004399D03*
D116*
X014228Y004132D03*
X014669Y003907D03*
X013162Y004563D03*
X013511Y004891D03*
X013613Y005065D03*
X013818Y005158D03*
X014218Y005424D03*
X014669Y005660D03*
X013183Y005055D03*
X012547Y005424D03*
X012106Y005660D03*
X012547Y004430D03*
X012106Y003907D03*
X012106Y003896D03*
D117*
X012803Y003896D03*
X014280Y006060D03*
D118*
X014664Y005670D03*
X014213Y005434D03*
X014028Y005127D03*
X013598Y005075D03*
X013341Y004624D03*
X013167Y004553D03*
X012542Y004440D03*
X012562Y004122D03*
X014028Y004481D03*
X014223Y004122D03*
X014664Y003896D03*
X014490Y004481D03*
X014490Y004491D03*
X014490Y005117D03*
X014490Y005127D03*
X012942Y005158D03*
D119*
X013152Y005024D03*
X013265Y004717D03*
X013131Y004594D03*
X014033Y005147D03*
X014669Y003917D03*
X012106Y003917D03*
X012106Y005639D03*
D120*
X012757Y005639D03*
X012778Y003917D03*
X014008Y003917D03*
D121*
X014669Y003927D03*
X013695Y004727D03*
X013695Y004737D03*
X013705Y004747D03*
X013705Y004758D03*
X013705Y004932D03*
X013705Y004942D03*
X013705Y004952D03*
X013695Y004973D03*
X013511Y004809D03*
X013511Y004799D03*
X013500Y004758D03*
X013408Y004419D03*
X013080Y004686D03*
X013070Y004727D03*
X013070Y004737D03*
X013070Y004860D03*
X013070Y004870D03*
X013080Y004911D03*
X013090Y004932D03*
X012936Y005127D03*
X012106Y005629D03*
X014218Y005404D03*
X014495Y005158D03*
X012106Y003927D03*
D122*
X012742Y003937D03*
X014023Y003927D03*
X014023Y005629D03*
X014341Y006019D03*
X012742Y005629D03*
D123*
X012936Y005106D03*
X013336Y004604D03*
X013654Y004573D03*
X012106Y003937D03*
X012106Y005619D03*
D124*
X012952Y004450D03*
X013834Y004450D03*
X014028Y004440D03*
X014233Y004173D03*
X014664Y003937D03*
X014028Y005168D03*
D125*
X012619Y004040D03*
D126*
X012583Y004081D03*
X013813Y004368D03*
D127*
X014218Y004101D03*
X013377Y004963D03*
X013234Y005086D03*
X012547Y004963D03*
X012547Y004901D03*
X012547Y004840D03*
X012547Y004778D03*
X012547Y004717D03*
X012547Y004655D03*
X012547Y004594D03*
X012547Y004532D03*
X012547Y004471D03*
X012567Y004101D03*
D128*
X012557Y004132D03*
X014033Y005137D03*
D129*
X014218Y005414D03*
X014669Y005650D03*
X013654Y005034D03*
X013511Y004860D03*
X013490Y004727D03*
X013675Y004706D03*
X013634Y004542D03*
X013336Y004614D03*
X013254Y004727D03*
X013254Y004737D03*
X013254Y004747D03*
X013254Y004809D03*
X013254Y004819D03*
X013265Y004850D03*
X013265Y004860D03*
X013275Y004870D03*
X013142Y005014D03*
X013131Y005004D03*
X012936Y005137D03*
X013100Y004635D03*
X013111Y004624D03*
X013111Y004614D03*
X013121Y004604D03*
X012547Y004419D03*
X012557Y004143D03*
X014033Y004460D03*
D130*
X013398Y004143D03*
D131*
X013834Y004419D03*
X013567Y004614D03*
X013516Y004870D03*
X013516Y004881D03*
X013639Y005045D03*
X013290Y004891D03*
X013270Y004706D03*
X013147Y004573D03*
X012952Y004419D03*
X013167Y005045D03*
X014233Y004143D03*
D132*
X014233Y004153D03*
X013834Y004430D03*
X013639Y004553D03*
X013495Y004737D03*
X013495Y004747D03*
X013516Y004819D03*
X013516Y004829D03*
X013516Y004850D03*
X013690Y004983D03*
X013669Y005014D03*
X013249Y004799D03*
X013249Y004788D03*
X013249Y004768D03*
X013249Y004758D03*
X013075Y004706D03*
X013075Y004696D03*
X013095Y004645D03*
X013075Y004881D03*
X013075Y004891D03*
X013095Y004942D03*
X013095Y004952D03*
X013106Y004973D03*
X013126Y004993D03*
X012952Y004430D03*
X012552Y004153D03*
D133*
X013398Y004153D03*
D134*
X013710Y004778D03*
X013536Y004963D03*
X012542Y005393D03*
X012552Y004163D03*
D135*
X013393Y004163D03*
D136*
X014233Y004163D03*
D137*
X013562Y004604D03*
X013818Y005106D03*
X012557Y004173D03*
D138*
X013393Y004173D03*
D139*
X013393Y004194D03*
D140*
X013393Y004204D03*
D141*
X013393Y004214D03*
D142*
X013393Y004225D03*
D143*
X013613Y004235D03*
X013408Y005137D03*
X013828Y005732D03*
X013377Y005906D03*
X012936Y005732D03*
D144*
X013054Y004286D03*
D145*
X012988Y004348D03*
X013798Y004348D03*
X012967Y005209D03*
X013377Y006439D03*
D146*
X013377Y005475D03*
X012947Y005168D03*
X013572Y004624D03*
X014033Y004624D03*
X014033Y004614D03*
X014033Y004604D03*
X014033Y004583D03*
X014033Y004573D03*
X014033Y004563D03*
X014033Y004553D03*
X014033Y004542D03*
X014033Y004522D03*
X014033Y004512D03*
X014033Y004501D03*
X014033Y004491D03*
X014033Y004635D03*
X014033Y004645D03*
X014033Y004665D03*
X014033Y004676D03*
X014033Y004686D03*
X014033Y004696D03*
X014033Y004706D03*
X014033Y004727D03*
X014033Y004737D03*
X014033Y004891D03*
X014033Y004911D03*
X014033Y004922D03*
X014033Y004932D03*
X014033Y004942D03*
X014033Y004952D03*
X014033Y004973D03*
X014033Y004983D03*
X014033Y004993D03*
X014033Y005004D03*
X014033Y005014D03*
X014033Y005034D03*
X014033Y005045D03*
X014033Y005055D03*
X014033Y005065D03*
X014033Y005075D03*
X014033Y005096D03*
X014033Y005106D03*
X014033Y005117D03*
X013818Y005168D03*
X014208Y005445D03*
X014495Y005106D03*
X012957Y004399D03*
D147*
X012957Y004409D03*
X013490Y004717D03*
X013828Y004409D03*
X013818Y005147D03*
X012936Y005147D03*
D148*
X012547Y004409D03*
X014218Y005393D03*
D149*
X012952Y004440D03*
D150*
X014490Y004440D03*
X014490Y005168D03*
D151*
X014033Y005158D03*
X013716Y004911D03*
X013716Y004891D03*
X013716Y004881D03*
X013716Y004870D03*
X013716Y004860D03*
X013716Y004850D03*
X013716Y004829D03*
X013716Y004819D03*
X013716Y004809D03*
X013716Y004799D03*
X013716Y004788D03*
X013541Y004952D03*
X014033Y004450D03*
D152*
X013505Y004768D03*
X013505Y004788D03*
X013259Y004829D03*
X013065Y004829D03*
X013065Y004819D03*
X013065Y004809D03*
X013065Y004799D03*
X013065Y004788D03*
X013065Y004768D03*
X013065Y004758D03*
X013065Y004747D03*
X013085Y004676D03*
X013085Y004665D03*
X013065Y004850D03*
X013085Y004922D03*
X013116Y004983D03*
X013680Y004993D03*
X013680Y005004D03*
X013823Y005127D03*
X014490Y004450D03*
X012542Y005404D03*
D153*
X012952Y004460D03*
X013834Y004460D03*
D154*
X014490Y004460D03*
X014490Y005137D03*
X013823Y005137D03*
X013628Y005055D03*
X013382Y004983D03*
X013280Y004881D03*
X013157Y005034D03*
X013136Y004583D03*
X012542Y005414D03*
X012101Y005650D03*
D155*
X013413Y004471D03*
D156*
X014033Y004471D03*
X013295Y004901D03*
D157*
X014490Y005147D03*
X014490Y004471D03*
D158*
X013408Y004481D03*
X013408Y005106D03*
D159*
X013403Y005096D03*
X013413Y004491D03*
D160*
X013408Y004501D03*
X012547Y004993D03*
D161*
X013382Y004973D03*
X014490Y004973D03*
X014490Y004983D03*
X014490Y004993D03*
X014490Y005004D03*
X014490Y005014D03*
X014490Y005034D03*
X014490Y005045D03*
X014490Y005055D03*
X014490Y005065D03*
X014490Y005075D03*
X014490Y005096D03*
X014490Y004952D03*
X014490Y004942D03*
X014490Y004932D03*
X014490Y004922D03*
X014490Y004911D03*
X014490Y004891D03*
X014490Y004737D03*
X014490Y004727D03*
X014490Y004706D03*
X014490Y004696D03*
X014490Y004686D03*
X014490Y004676D03*
X014490Y004665D03*
X014490Y004645D03*
X014490Y004635D03*
X014490Y004624D03*
X014490Y004614D03*
X014490Y004604D03*
X014490Y004583D03*
X014490Y004573D03*
X014490Y004563D03*
X014490Y004553D03*
X014490Y004542D03*
X014490Y004522D03*
X014490Y004512D03*
X014490Y004501D03*
D162*
X013198Y004532D03*
X014203Y005455D03*
D163*
X013618Y004532D03*
D164*
X014033Y004532D03*
X014033Y004594D03*
X014033Y004655D03*
X014033Y004717D03*
X014033Y004901D03*
X014033Y004963D03*
X014033Y005024D03*
X014033Y005086D03*
D165*
X014490Y005086D03*
X014490Y005024D03*
X014490Y004963D03*
X014490Y004901D03*
X014490Y004717D03*
X014490Y004655D03*
X014490Y004594D03*
X014490Y004532D03*
D166*
X013654Y004583D03*
D167*
X013516Y004840D03*
X013659Y005024D03*
X013106Y004963D03*
X013249Y004778D03*
X013075Y004717D03*
X013095Y004655D03*
D168*
X013464Y004676D03*
D169*
X013470Y004686D03*
X013377Y005424D03*
D170*
X013464Y004696D03*
X012931Y006265D03*
D171*
X013080Y004901D03*
X013695Y004963D03*
X013685Y004717D03*
D172*
X013505Y004778D03*
X013259Y004840D03*
X013065Y004840D03*
X013065Y004778D03*
X014664Y005639D03*
D173*
X014264Y004840D03*
X014264Y004778D03*
X013382Y005393D03*
D174*
X013716Y004901D03*
X013716Y004840D03*
D175*
X013505Y004901D03*
D176*
X013541Y004973D03*
D177*
X013536Y004983D03*
X012542Y005383D03*
X014664Y005619D03*
D178*
X012547Y005004D03*
D179*
X012547Y005014D03*
X012547Y005117D03*
D180*
X012547Y005024D03*
D181*
X012547Y005034D03*
X012547Y005045D03*
X012547Y005055D03*
X012547Y005065D03*
X012547Y005075D03*
D182*
X013198Y005065D03*
D183*
X012547Y005086D03*
D184*
X012557Y005455D03*
X013572Y005086D03*
D185*
X012547Y005096D03*
X012547Y005106D03*
X013377Y005875D03*
D186*
X012936Y005117D03*
D187*
X012547Y005127D03*
X013798Y006275D03*
D188*
X013787Y005209D03*
D189*
X013377Y005332D03*
D190*
X013382Y005342D03*
D191*
X013382Y005352D03*
D192*
X013377Y005363D03*
D193*
X013382Y005373D03*
D194*
X013377Y005383D03*
D195*
X014218Y005383D03*
D196*
X013382Y005404D03*
X012983Y006275D03*
D197*
X013377Y005414D03*
D198*
X013382Y005434D03*
D199*
X013377Y005455D03*
D200*
X014003Y005639D03*
X014351Y006008D03*
D201*
X013936Y005680D03*
D202*
X013721Y005762D03*
X012890Y006255D03*
D203*
X014613Y005762D03*
D204*
X013377Y005773D03*
D205*
X013377Y005783D03*
D206*
X013377Y005803D03*
X013388Y006357D03*
D207*
X013377Y005814D03*
D208*
X013377Y005824D03*
D209*
X013382Y005834D03*
D210*
X013377Y005844D03*
D211*
X013377Y005855D03*
D212*
X013377Y005885D03*
D213*
X013377Y005896D03*
D214*
X014049Y006193D03*
D215*
X012747Y006203D03*
D216*
X013951Y006234D03*
D217*
X012854Y006244D03*
D218*
X013890Y006255D03*
D219*
X013849Y006265D03*
D220*
X013388Y006285D03*
D221*
X013388Y006296D03*
D222*
X013388Y006306D03*
D223*
X013382Y006316D03*
D224*
X013388Y006326D03*
D225*
X013382Y006337D03*
D226*
X013388Y006347D03*
D227*
X013388Y006367D03*
D228*
X013388Y006378D03*
D229*
X013382Y006388D03*
D230*
X013382Y006398D03*
M02*
