%
M48
M72
T01C0.0118
T02C0.0320
T03C0.0394
T04C0.0400
T05C0.0512
T06C0.0520
T07C0.0551
T08C0.0787
T09C0.1181
T10C0.1300
%
T01
X6892Y3068
X7492Y3068
X7731Y6305
X7372Y7144
X4015Y6544
X14325Y10982
X14967Y11146
X15445Y11905
X15721Y12299
X16000Y12061
X16723Y12299
X18041Y12778
X15445Y12658
X14178Y11819
X12287Y13138
X6533Y14696
X8810Y16974
X7012Y17693
X20319Y20331
X15044Y8462
X16603Y4986
X17002Y833
T02
X5401Y14259
X5401Y15259
X3038Y15259
X3038Y14259
T03
X2857Y3460
X2857Y4460
X2857Y5460
X2857Y6460
X2857Y7460
X2857Y8460
X2857Y9460
X3857Y12492
X4857Y12492
X5857Y12492
X6857Y12492
X7857Y12492
X8857Y12492
X9857Y12476
X10857Y12476
X11857Y12476
X12857Y12476
X13857Y12476
X14857Y12476
X15857Y9460
X15857Y8460
X15857Y7460
X15857Y6460
X15857Y5460
X15857Y4460
X15857Y3476
X23393Y1767
X23393Y6492
X23393Y8629
X23393Y13354
T04
X23511Y15665
X22511Y15665
X21511Y15665
X19968Y15665
X18968Y15665
X17968Y15665
X16424Y15665
X15424Y15665
X14424Y15665
X12881Y15665
X11881Y15665
X10881Y15665
X9338Y15665
X8338Y15665
X7338Y15665
X7338Y19208
X8338Y19208
X9338Y19208
X10881Y19208
X11881Y19208
X12881Y19208
X14424Y19208
X15424Y19208
X16424Y19208
X17968Y19208
X18968Y19208
X19968Y19208
X21511Y19208
X22511Y19208
X23511Y19208
X25054Y19208
X26054Y19208
X27054Y19208
X28597Y19208
X29597Y19208
X30597Y19208
X32141Y19208
X33141Y19208
X34141Y19208
X34141Y15665
X33141Y15665
X32141Y15665
X30597Y15665
X29597Y15665
X28597Y15665
X27054Y15665
X26054Y15665
X25054Y15665
X10338Y4362
X9338Y4362
X8338Y4362
T05
X28196Y6492
X28196Y8629
X28196Y13354
X28196Y1767
T06
X32408Y2159
X32408Y4129
X32408Y6099
X32408Y9022
X32408Y10992
X32408Y12962
T07
X22607Y10992
X22607Y4129
T08
X15786Y2043
X2991Y10850
T09
X4334Y17003
X3192Y18854
X5515Y18854
T10
X9338Y10262
M30
