G75*
G70*
%OFA0B0*%
%FSLAX24Y24*%
%IPPOS*%
%LPD*%
%AMOC8*
5,1,8,0,0,1.08239X$1,22.5*
%
%ADD10C,0.0840*%
%ADD11C,0.0867*%
%ADD12C,0.0848*%
%ADD13C,0.0674*%
%ADD14C,0.0907*%
%ADD15R,0.0820X0.0820*%
%ADD16C,0.0820*%
%ADD17C,0.0860*%
%ADD18C,0.1970*%
%ADD19C,0.0680*%
%ADD20C,0.1380*%
%ADD21OC8,0.0780*%
%ADD22C,0.0780*%
%ADD23OC8,0.0358*%
D10*
X002897Y003515D03*
X002897Y004499D03*
X002897Y005499D03*
X002897Y006499D03*
X002897Y007499D03*
X002897Y008499D03*
X002897Y009499D03*
X003897Y012515D03*
X004897Y012515D03*
X005897Y012515D03*
X006897Y012515D03*
X007897Y012515D03*
X008897Y012515D03*
X009897Y012531D03*
X010897Y012531D03*
X011897Y012531D03*
X012897Y012531D03*
X013897Y012531D03*
X014897Y012531D03*
X015897Y009499D03*
X015897Y008499D03*
X015897Y007499D03*
X015897Y006499D03*
X015897Y005499D03*
X015897Y004499D03*
X015897Y003499D03*
D11*
X002968Y002082D03*
X015763Y010889D03*
D12*
X028196Y008629D03*
X028196Y006492D03*
X028196Y001767D03*
X028196Y013354D03*
D13*
X023393Y013354D03*
X023393Y008629D03*
X023393Y006492D03*
X023393Y001767D03*
D14*
X022607Y004129D03*
X022607Y010992D03*
D15*
X023511Y015665D03*
X019968Y015665D03*
X016424Y015665D03*
X012881Y015665D03*
X009338Y015665D03*
X009338Y019208D03*
X012881Y019208D03*
X016424Y019208D03*
X019968Y019208D03*
X023511Y019208D03*
X027054Y019208D03*
X030597Y019208D03*
X034141Y019208D03*
X034141Y015665D03*
X030597Y015665D03*
X027054Y015665D03*
D16*
X026054Y015665D03*
X025054Y015665D03*
X022511Y015665D03*
X021511Y015665D03*
X018968Y015665D03*
X017968Y015665D03*
X015424Y015665D03*
X014424Y015665D03*
X011881Y015665D03*
X010881Y015665D03*
X008338Y015665D03*
X007338Y015665D03*
X007338Y019208D03*
X008338Y019208D03*
X010881Y019208D03*
X011881Y019208D03*
X014424Y019208D03*
X015424Y019208D03*
X017968Y019208D03*
X018968Y019208D03*
X021511Y019208D03*
X022511Y019208D03*
X025054Y019208D03*
X026054Y019208D03*
X028597Y019208D03*
X029597Y019208D03*
X032141Y019208D03*
X033141Y019208D03*
X033141Y015665D03*
X032141Y015665D03*
X029597Y015665D03*
X028597Y015665D03*
D17*
X032018Y012962D02*
X032798Y012962D01*
X032798Y010992D02*
X032018Y010992D01*
X032018Y009022D02*
X032798Y009022D01*
X032798Y006099D02*
X032018Y006099D01*
X032018Y004129D02*
X032798Y004129D01*
X032798Y002159D02*
X032018Y002159D01*
D18*
X005515Y018854D03*
X003192Y018854D03*
X004334Y017003D03*
D19*
X008338Y003835D02*
X008338Y003235D01*
X009338Y003235D02*
X009338Y003835D01*
X010338Y003835D02*
X010338Y003235D01*
D20*
X009338Y009435D03*
D21*
X005401Y015259D03*
X003038Y015259D03*
D22*
X003038Y014259D03*
X005401Y014259D03*
D23*
X004653Y015350D03*
X005479Y016177D03*
X005873Y016413D03*
X009653Y014799D03*
X010440Y014838D03*
X011424Y014602D03*
X010479Y013381D03*
X012605Y013263D03*
X015440Y013027D03*
X018117Y012594D03*
X017527Y010822D03*
X019849Y014326D03*
X020794Y015862D03*
X024023Y014484D03*
X025794Y014484D03*
X023511Y011374D03*
X014968Y015074D03*
X013156Y017240D03*
X012172Y017633D03*
X009889Y016334D03*
X003314Y011098D03*
X003314Y010507D03*
X004692Y010901D03*
X005322Y010271D03*
X006660Y008933D03*
X004495Y008224D03*
X004219Y007358D03*
X003865Y006137D03*
X008314Y006688D03*
X017133Y003893D03*
X018550Y018027D03*
X018550Y018618D03*
M02*
