G75*
%MOIN*%
%OFA0B0*%
%FSLAX24Y24*%
%IPPOS*%
%LPD*%
%AMOC8*
5,1,8,0,0,1.08239X$1,22.5*
%
%ADD10C,0.0760*%
%ADD11C,0.0768*%
%ADD12C,0.0594*%
%ADD13C,0.0827*%
%ADD14R,0.0740X0.0740*%
%ADD15C,0.0740*%
%ADD16C,0.0780*%
%ADD17C,0.1890*%
%ADD18C,0.0600*%
%ADD19OC8,0.0700*%
%ADD20C,0.0700*%
%ADD21C,0.0100*%
%ADD22OC8,0.0278*%
%ADD23C,0.0160*%
D10*
X002857Y003460D03*
X002857Y004460D03*
X002857Y005460D03*
X002857Y006460D03*
X002857Y007460D03*
X002857Y008460D03*
X002857Y009460D03*
X003857Y012492D03*
X004857Y012492D03*
X005857Y012492D03*
X006857Y012492D03*
X007857Y012492D03*
X008857Y012492D03*
X009857Y012476D03*
X010857Y012476D03*
X011857Y012476D03*
X012857Y012476D03*
X013857Y012476D03*
X014857Y012476D03*
X015857Y009460D03*
X015857Y008460D03*
X015857Y007460D03*
X015857Y006460D03*
X015857Y005460D03*
X015857Y004460D03*
X015857Y003476D03*
D11*
X028196Y001767D03*
X028196Y006492D03*
X028196Y008629D03*
X028196Y013354D03*
D12*
X023393Y013354D03*
X023393Y008629D03*
X023393Y006492D03*
X023393Y001767D03*
D13*
X022607Y004129D03*
X022607Y010992D03*
D14*
X023511Y015665D03*
X019968Y015665D03*
X016424Y015665D03*
X012881Y015665D03*
X009338Y015665D03*
X009338Y019208D03*
X012881Y019208D03*
X016424Y019208D03*
X019968Y019208D03*
X023511Y019208D03*
X027054Y019208D03*
X030597Y019208D03*
X034141Y019208D03*
X034141Y015665D03*
X030597Y015665D03*
X027054Y015665D03*
D15*
X026054Y015665D03*
X025054Y015665D03*
X022511Y015665D03*
X021511Y015665D03*
X018968Y015665D03*
X017968Y015665D03*
X015424Y015665D03*
X014424Y015665D03*
X011881Y015665D03*
X010881Y015665D03*
X008338Y015665D03*
X007338Y015665D03*
X007338Y019208D03*
X008338Y019208D03*
X010881Y019208D03*
X011881Y019208D03*
X014424Y019208D03*
X015424Y019208D03*
X017968Y019208D03*
X018968Y019208D03*
X021511Y019208D03*
X022511Y019208D03*
X025054Y019208D03*
X026054Y019208D03*
X028597Y019208D03*
X029597Y019208D03*
X032141Y019208D03*
X033141Y019208D03*
X033141Y015665D03*
X032141Y015665D03*
X029597Y015665D03*
X028597Y015665D03*
D16*
X032018Y012962D02*
X032798Y012962D01*
X032798Y010992D02*
X032018Y010992D01*
X032018Y009022D02*
X032798Y009022D01*
X032798Y006099D02*
X032018Y006099D01*
X032018Y004129D02*
X032798Y004129D01*
X032798Y002159D02*
X032018Y002159D01*
D17*
X005515Y018854D03*
X003192Y018854D03*
X004334Y017003D03*
D18*
X008338Y004662D02*
X008338Y004062D01*
X009338Y004062D02*
X009338Y004662D01*
X010338Y004662D02*
X010338Y004062D01*
D19*
X005401Y015259D03*
X003038Y015259D03*
D20*
X003038Y014259D03*
X005401Y014259D03*
D21*
X005454Y014337D01*
X006173Y014337D01*
X006533Y014696D01*
X007252Y014816D02*
X005813Y013378D01*
X003895Y013378D01*
X003176Y012658D01*
X003176Y012299D01*
X008930Y006544D01*
X015764Y006544D01*
X015857Y006460D01*
X015764Y005465D02*
X015857Y005460D01*
X015764Y005465D02*
X009650Y005465D01*
X002936Y012179D01*
X002936Y012778D01*
X003656Y013498D01*
X003656Y014337D01*
X007012Y017693D01*
X008810Y016974D02*
X010009Y018173D01*
X010009Y019132D01*
X011688Y020810D01*
X030030Y020810D01*
X031588Y019252D01*
X032068Y019252D01*
X032141Y019208D01*
X028597Y019208D02*
X028591Y019132D01*
X027992Y019132D01*
X025114Y016255D01*
X024755Y016255D01*
X024155Y015655D01*
X024155Y015176D01*
X021038Y012059D01*
X021038Y006065D01*
X016123Y001150D01*
X010489Y001150D01*
X007731Y003907D01*
X007731Y006305D01*
X007612Y007144D02*
X007372Y007144D01*
X007612Y007144D02*
X010369Y004387D01*
X010338Y004362D01*
X007492Y003068D02*
X004015Y006544D01*
X003536Y006424D02*
X003536Y007743D01*
X002936Y008343D01*
X002857Y008460D01*
X003775Y008582D02*
X002936Y009422D01*
X002857Y009460D01*
X003775Y008582D02*
X003775Y007503D01*
X010369Y000910D01*
X016243Y000910D01*
X021278Y005945D01*
X021278Y011939D01*
X024994Y015655D01*
X025054Y015665D01*
X025954Y015655D02*
X026054Y015665D01*
X025954Y015655D02*
X023676Y013378D01*
X023436Y013378D01*
X023393Y013354D01*
X023436Y013258D01*
X023916Y012778D01*
X023916Y008462D01*
X023436Y007983D01*
X023436Y006544D01*
X023393Y006492D01*
X024155Y006544D02*
X018601Y000833D01*
X017002Y000833D01*
X015857Y003476D02*
X015883Y003547D01*
X016123Y003547D01*
X020799Y008223D01*
X020799Y019851D01*
X020319Y020331D01*
X020439Y019851D02*
X020559Y019731D01*
X020559Y008343D01*
X016723Y004506D01*
X015883Y004506D01*
X015857Y004460D01*
X016603Y004986D02*
X016603Y009541D01*
X016003Y010141D01*
X015644Y010141D01*
X015044Y009541D01*
X015044Y008462D01*
X014565Y008343D02*
X015404Y007503D01*
X015764Y007503D01*
X015857Y007460D01*
X014565Y008343D02*
X014565Y009422D01*
X015524Y010381D01*
X016243Y010381D01*
X018521Y012658D01*
X018521Y012898D01*
X017562Y013857D01*
X012767Y013857D01*
X010968Y015655D01*
X010881Y015665D01*
X011881Y015665D02*
X011927Y015775D01*
X012407Y016255D01*
X014685Y016255D01*
X015164Y015775D01*
X015404Y015775D01*
X015424Y015665D01*
X016723Y016495D02*
X010848Y016495D01*
X010009Y015655D01*
X010009Y015296D01*
X007851Y013138D01*
X005574Y013138D01*
X004974Y012538D01*
X004857Y012492D01*
X007857Y012492D02*
X007971Y012538D01*
X009050Y013617D01*
X014924Y013617D01*
X015764Y012778D01*
X018041Y012778D01*
X016723Y012299D02*
X016714Y011433D01*
X015862Y010620D01*
X010848Y010620D01*
X008930Y012538D01*
X008857Y012492D01*
X012287Y013138D02*
X014926Y013138D01*
X015445Y012658D01*
X015401Y012299D02*
X015721Y012299D01*
X015401Y012299D02*
X014980Y011819D01*
X014178Y011819D01*
X014534Y011629D02*
X015164Y011629D01*
X015445Y011905D01*
X016000Y012061D02*
X016000Y011334D01*
X015803Y011146D01*
X014967Y011146D01*
X014534Y011629D02*
X014325Y011400D01*
X014325Y010982D01*
X007252Y014816D02*
X007252Y015655D01*
X007338Y015665D01*
X008331Y015775D02*
X008338Y015665D01*
X008331Y015775D02*
X008331Y019132D01*
X008338Y019208D01*
X010881Y019208D02*
X010968Y019252D01*
X011568Y019851D01*
X020439Y019851D01*
X018968Y019208D02*
X019000Y019132D01*
X019000Y018533D01*
X016003Y018533D01*
X015764Y018772D01*
X015764Y018892D01*
X015524Y019132D01*
X015424Y019208D01*
X015404Y019132D01*
X015164Y019132D01*
X014565Y018533D01*
X012527Y018533D01*
X011927Y019132D01*
X011881Y019208D01*
X016723Y016495D02*
X017442Y015775D01*
X017921Y015775D01*
X017968Y015665D01*
X018968Y015665D02*
X019000Y015775D01*
X019000Y018533D01*
X022511Y019208D02*
X022597Y019132D01*
X022597Y015775D01*
X022511Y015665D01*
X024155Y010141D02*
X028591Y014576D01*
X028591Y015655D01*
X028597Y015665D01*
X024155Y010141D02*
X024155Y006544D01*
X006892Y003068D02*
X003536Y006424D01*
D22*
X004015Y006544D03*
X007372Y007144D03*
X007731Y006305D03*
X007492Y003068D03*
X006892Y003068D03*
X015044Y008462D03*
X014325Y010982D03*
X014967Y011146D03*
X015445Y011905D03*
X015721Y012299D03*
X016000Y012061D03*
X016723Y012299D03*
X018041Y012778D03*
X015445Y012658D03*
X014178Y011819D03*
X012287Y013138D03*
X006533Y014696D03*
X008810Y016974D03*
X007012Y017693D03*
X020319Y020331D03*
X016603Y004986D03*
X017002Y000833D03*
D23*
X002337Y001578D02*
X002337Y003148D01*
X002349Y003120D01*
X002518Y002952D01*
X002738Y002860D01*
X002977Y002860D01*
X003197Y002952D01*
X003366Y003120D01*
X003457Y003341D01*
X003457Y003579D01*
X003366Y003800D01*
X003205Y003960D01*
X003366Y004120D01*
X003457Y004341D01*
X003457Y004579D01*
X003366Y004800D01*
X003205Y004960D01*
X003366Y005120D01*
X003457Y005341D01*
X003457Y005579D01*
X003366Y005800D01*
X003205Y005960D01*
X003366Y006120D01*
X003393Y006186D01*
X006534Y003045D01*
X006534Y002919D01*
X006744Y002709D01*
X007041Y002709D01*
X007192Y002860D01*
X007343Y002709D01*
X007640Y002709D01*
X007851Y002919D01*
X007851Y003047D01*
X010107Y000791D01*
X006781Y000791D01*
X006201Y001370D01*
X006066Y001505D01*
X005890Y001578D01*
X002337Y001578D01*
X002337Y001579D02*
X009319Y001579D01*
X009160Y001737D02*
X002337Y001737D01*
X002337Y001896D02*
X009002Y001896D01*
X008843Y002054D02*
X002337Y002054D01*
X002337Y002213D02*
X008685Y002213D01*
X008526Y002371D02*
X002337Y002371D01*
X002337Y002530D02*
X008368Y002530D01*
X008209Y002688D02*
X002337Y002688D01*
X002337Y002847D02*
X006606Y002847D01*
X006534Y003005D02*
X003250Y003005D01*
X003384Y003164D02*
X006415Y003164D01*
X006257Y003322D02*
X003449Y003322D01*
X003457Y003481D02*
X006098Y003481D01*
X005940Y003639D02*
X003432Y003639D01*
X003367Y003798D02*
X005781Y003798D01*
X005623Y003956D02*
X003210Y003956D01*
X003360Y004115D02*
X005464Y004115D01*
X005306Y004273D02*
X003429Y004273D01*
X003457Y004432D02*
X005147Y004432D01*
X004989Y004590D02*
X003453Y004590D01*
X003387Y004749D02*
X004830Y004749D01*
X004672Y004907D02*
X003259Y004907D01*
X003311Y005066D02*
X004513Y005066D01*
X004355Y005224D02*
X003409Y005224D01*
X003457Y005383D02*
X004196Y005383D01*
X004038Y005541D02*
X003457Y005541D01*
X003407Y005700D02*
X003879Y005700D01*
X003721Y005858D02*
X003308Y005858D01*
X003262Y006017D02*
X003562Y006017D01*
X003404Y006175D02*
X003388Y006175D01*
X003266Y006900D02*
X003205Y006960D01*
X003266Y007021D01*
X003266Y006900D01*
X003266Y006968D02*
X003213Y006968D01*
X003805Y006968D02*
X003930Y006968D01*
X003867Y006903D02*
X003994Y006903D01*
X003805Y007092D01*
X003805Y006842D01*
X003867Y006903D01*
X004376Y007285D02*
X007013Y007285D01*
X007013Y007292D02*
X007013Y006995D01*
X007223Y006785D01*
X007520Y006785D01*
X007555Y006819D01*
X007710Y006663D01*
X007583Y006663D01*
X007373Y006453D01*
X007373Y006156D01*
X007462Y006067D01*
X007462Y004199D01*
X004045Y007615D01*
X004045Y008636D01*
X004004Y008735D01*
X003440Y009299D01*
X003457Y009341D01*
X003457Y009579D01*
X003366Y009800D01*
X003197Y009969D01*
X003172Y009979D01*
X004755Y009979D01*
X004913Y009821D02*
X003345Y009821D01*
X003423Y009662D02*
X005072Y009662D01*
X005230Y009504D02*
X003457Y009504D01*
X003457Y009345D02*
X005389Y009345D01*
X005547Y009187D02*
X003553Y009187D01*
X003711Y009028D02*
X005706Y009028D01*
X005864Y008870D02*
X003870Y008870D01*
X004014Y008711D02*
X006023Y008711D01*
X006181Y008553D02*
X004045Y008553D01*
X004045Y008394D02*
X006340Y008394D01*
X006498Y008236D02*
X004045Y008236D01*
X004045Y008077D02*
X006657Y008077D01*
X006815Y007919D02*
X004045Y007919D01*
X004045Y007760D02*
X006974Y007760D01*
X007132Y007602D02*
X004059Y007602D01*
X004217Y007443D02*
X007164Y007443D01*
X007223Y007503D02*
X007013Y007292D01*
X007013Y007126D02*
X004534Y007126D01*
X004693Y006968D02*
X007041Y006968D01*
X007199Y006809D02*
X004851Y006809D01*
X005010Y006651D02*
X007570Y006651D01*
X007565Y006809D02*
X007545Y006809D01*
X007411Y006492D02*
X005168Y006492D01*
X005327Y006334D02*
X007373Y006334D01*
X007373Y006175D02*
X005485Y006175D01*
X005644Y006017D02*
X007462Y006017D01*
X007462Y005858D02*
X005802Y005858D01*
X005961Y005700D02*
X007462Y005700D01*
X007462Y005541D02*
X006119Y005541D01*
X006278Y005383D02*
X007462Y005383D01*
X007462Y005224D02*
X006436Y005224D01*
X006595Y005066D02*
X007462Y005066D01*
X007462Y004907D02*
X006753Y004907D01*
X006912Y004749D02*
X007462Y004749D01*
X007462Y004590D02*
X007070Y004590D01*
X007229Y004432D02*
X007462Y004432D01*
X007462Y004273D02*
X007387Y004273D01*
X008467Y003553D02*
X008632Y003621D01*
X008778Y003767D01*
X008857Y003958D01*
X008857Y004765D01*
X008778Y004956D01*
X008632Y005102D01*
X008441Y005181D01*
X008234Y005181D01*
X008043Y005102D01*
X008001Y005060D01*
X008001Y006067D01*
X008090Y006156D01*
X008090Y006284D01*
X009241Y005132D01*
X009225Y005130D01*
X009153Y005107D01*
X009086Y005072D01*
X009025Y005028D01*
X008971Y004974D01*
X008927Y004913D01*
X008893Y004846D01*
X008869Y004774D01*
X008858Y004699D01*
X008858Y004382D01*
X009318Y004382D01*
X009318Y004342D01*
X009358Y004342D01*
X009358Y004382D01*
X009818Y004382D01*
X009818Y004556D01*
X009818Y003958D01*
X009897Y003767D01*
X010043Y003621D01*
X010234Y003542D01*
X010441Y003542D01*
X010632Y003621D01*
X010778Y003767D01*
X010857Y003958D01*
X010857Y004765D01*
X010778Y004956D01*
X010632Y005102D01*
X010441Y005181D01*
X010234Y005181D01*
X010043Y005102D01*
X010039Y005098D01*
X009941Y005196D01*
X015318Y005196D01*
X015349Y005120D01*
X015509Y004960D01*
X015349Y004800D01*
X015258Y004579D01*
X015258Y004341D01*
X015349Y004120D01*
X015501Y003968D01*
X015349Y003816D01*
X015258Y003595D01*
X015258Y003357D01*
X015349Y003136D01*
X015518Y002967D01*
X015640Y002917D01*
X015613Y002917D01*
X015292Y002783D01*
X015046Y002538D01*
X014913Y002217D01*
X014913Y001869D01*
X015046Y001548D01*
X015174Y001419D01*
X010601Y001419D01*
X008467Y003553D01*
X008539Y003481D02*
X015258Y003481D01*
X015276Y003639D02*
X010650Y003639D01*
X010791Y003798D02*
X015341Y003798D01*
X015489Y003956D02*
X010856Y003956D01*
X010857Y004115D02*
X015355Y004115D01*
X015286Y004273D02*
X010857Y004273D01*
X010857Y004432D02*
X015258Y004432D01*
X015262Y004590D02*
X010857Y004590D01*
X010857Y004749D02*
X015328Y004749D01*
X015456Y004907D02*
X010799Y004907D01*
X010669Y005066D02*
X015404Y005066D01*
X016205Y004960D02*
X016244Y004922D01*
X016244Y004999D01*
X016205Y004960D01*
X016873Y005224D02*
X016873Y009595D01*
X016831Y009694D01*
X016380Y010145D01*
X016396Y010152D01*
X016472Y010228D01*
X018750Y012506D01*
X018791Y012605D01*
X018791Y012712D01*
X018791Y012952D01*
X018750Y013051D01*
X018674Y013127D01*
X018674Y013127D01*
X017715Y014086D01*
X017615Y014127D01*
X012878Y014127D01*
X011930Y015075D01*
X011998Y015075D01*
X012215Y015165D01*
X012331Y015281D01*
X012331Y015271D01*
X012343Y015225D01*
X012367Y015184D01*
X012400Y015151D01*
X012441Y015127D01*
X012487Y015115D01*
X012861Y015115D01*
X012861Y015645D01*
X012901Y015645D01*
X012901Y015685D01*
X013431Y015685D01*
X013834Y015685D01*
X013834Y015782D02*
X013834Y015548D01*
X013924Y015331D01*
X014090Y015165D01*
X014307Y015075D01*
X014542Y015075D01*
X014758Y015165D01*
X014924Y015331D01*
X014924Y015331D01*
X014924Y015331D01*
X015090Y015165D01*
X015307Y015075D01*
X015542Y015075D01*
X015758Y015165D01*
X015874Y015281D01*
X015874Y015271D01*
X015886Y015225D01*
X015910Y015184D01*
X015944Y015151D01*
X015985Y015127D01*
X016031Y015115D01*
X016404Y015115D01*
X016404Y015645D01*
X016444Y015645D01*
X016444Y015115D01*
X016818Y015115D01*
X016864Y015127D01*
X016905Y015151D01*
X016938Y015184D01*
X016962Y015225D01*
X016974Y015271D01*
X016974Y015645D01*
X016444Y015645D01*
X016444Y015685D01*
X016404Y015685D01*
X016404Y016215D01*
X016031Y016215D01*
X015985Y016203D01*
X015944Y016179D01*
X015910Y016145D01*
X015886Y016104D01*
X015874Y016059D01*
X015874Y016049D01*
X015758Y016165D01*
X015613Y016225D01*
X016611Y016225D01*
X016621Y016215D01*
X016444Y016215D01*
X016444Y015685D01*
X016404Y015685D01*
X016444Y015685D02*
X016974Y015685D01*
X017151Y015685D01*
X016974Y015685D02*
X016974Y015862D01*
X017289Y015547D01*
X017388Y015506D01*
X017395Y015506D01*
X017468Y015331D01*
X017633Y015165D01*
X017850Y015075D01*
X018085Y015075D01*
X018302Y015165D01*
X018467Y015331D01*
X018468Y015331D01*
X018468Y015331D01*
X018633Y015165D01*
X018850Y015075D01*
X019085Y015075D01*
X019302Y015165D01*
X019418Y015281D01*
X019418Y015271D01*
X019430Y015225D01*
X019453Y015184D01*
X019487Y015151D01*
X019528Y015127D01*
X019574Y015115D01*
X019948Y015115D01*
X019948Y015645D01*
X019988Y015645D01*
X019988Y015115D01*
X020289Y015115D01*
X020289Y008454D01*
X016962Y005127D01*
X016962Y005135D01*
X016873Y005224D01*
X017059Y005224D01*
X017217Y005383D02*
X016873Y005383D01*
X016873Y005541D02*
X017376Y005541D01*
X017534Y005700D02*
X016873Y005700D01*
X016873Y005858D02*
X017693Y005858D01*
X017851Y006017D02*
X016873Y006017D01*
X016873Y006175D02*
X018010Y006175D01*
X018168Y006334D02*
X016873Y006334D01*
X016873Y006492D02*
X018327Y006492D01*
X018485Y006651D02*
X016873Y006651D01*
X016873Y006809D02*
X018644Y006809D01*
X018802Y006968D02*
X016873Y006968D01*
X016873Y007126D02*
X018961Y007126D01*
X019119Y007285D02*
X016873Y007285D01*
X016873Y007443D02*
X019278Y007443D01*
X019436Y007602D02*
X016873Y007602D01*
X016873Y007760D02*
X019595Y007760D01*
X019753Y007919D02*
X016873Y007919D01*
X016873Y008077D02*
X019912Y008077D01*
X020070Y008236D02*
X016873Y008236D01*
X016873Y008394D02*
X020229Y008394D01*
X020289Y008553D02*
X016873Y008553D01*
X016873Y008711D02*
X020289Y008711D01*
X020289Y008870D02*
X016873Y008870D01*
X016873Y009028D02*
X020289Y009028D01*
X020289Y009187D02*
X016873Y009187D01*
X016873Y009345D02*
X020289Y009345D01*
X020289Y009504D02*
X016873Y009504D01*
X016845Y009662D02*
X020289Y009662D01*
X020289Y009821D02*
X016705Y009821D01*
X016547Y009979D02*
X020289Y009979D01*
X020289Y010138D02*
X016388Y010138D01*
X016540Y010296D02*
X020289Y010296D01*
X020289Y010455D02*
X016699Y010455D01*
X016857Y010613D02*
X020289Y010613D01*
X020289Y010772D02*
X017016Y010772D01*
X017174Y010930D02*
X020289Y010930D01*
X020289Y011089D02*
X017333Y011089D01*
X017491Y011247D02*
X020289Y011247D01*
X020289Y011406D02*
X017650Y011406D01*
X017808Y011564D02*
X020289Y011564D01*
X020289Y011723D02*
X017967Y011723D01*
X018125Y011881D02*
X020289Y011881D01*
X020289Y012040D02*
X018284Y012040D01*
X018442Y012198D02*
X020289Y012198D01*
X020289Y012357D02*
X018601Y012357D01*
X018753Y012515D02*
X020289Y012515D01*
X020289Y012674D02*
X018791Y012674D01*
X018791Y012832D02*
X020289Y012832D01*
X020289Y012991D02*
X018775Y012991D01*
X018651Y013149D02*
X020289Y013149D01*
X020289Y013308D02*
X018493Y013308D01*
X018334Y013466D02*
X020289Y013466D01*
X020289Y013625D02*
X018176Y013625D01*
X018017Y013783D02*
X020289Y013783D01*
X020289Y013942D02*
X017859Y013942D01*
X017680Y014100D02*
X020289Y014100D01*
X020289Y014259D02*
X012747Y014259D01*
X012588Y014417D02*
X020289Y014417D01*
X020289Y014576D02*
X012430Y014576D01*
X012271Y014734D02*
X020289Y014734D01*
X020289Y014893D02*
X012113Y014893D01*
X011954Y015051D02*
X020289Y015051D01*
X019988Y015210D02*
X019948Y015210D01*
X019948Y015368D02*
X019988Y015368D01*
X019988Y015527D02*
X019948Y015527D01*
X019948Y015685D02*
X019948Y016215D01*
X019574Y016215D01*
X019528Y016203D01*
X019487Y016179D01*
X019453Y016145D01*
X019430Y016104D01*
X019418Y016059D01*
X019418Y016049D01*
X019302Y016165D01*
X019270Y016178D01*
X019270Y018695D01*
X019302Y018708D01*
X019418Y018824D01*
X019418Y018814D01*
X019430Y018769D01*
X019453Y018728D01*
X019487Y018694D01*
X019528Y018670D01*
X019574Y018658D01*
X019948Y018658D01*
X019948Y019188D01*
X019988Y019188D01*
X019988Y018658D01*
X020289Y018658D01*
X020289Y016215D01*
X019988Y016215D01*
X019988Y015685D01*
X019948Y015685D01*
X019988Y015685D01*
X019988Y015844D02*
X019948Y015844D01*
X019948Y016002D02*
X019988Y016002D01*
X019988Y016161D02*
X019948Y016161D01*
X020289Y016319D02*
X019270Y016319D01*
X019270Y016478D02*
X020289Y016478D01*
X020289Y016636D02*
X019270Y016636D01*
X019270Y016795D02*
X020289Y016795D01*
X020289Y016953D02*
X019270Y016953D01*
X019270Y017112D02*
X020289Y017112D01*
X020289Y017270D02*
X019270Y017270D01*
X019270Y017429D02*
X020289Y017429D01*
X020289Y017587D02*
X019270Y017587D01*
X019270Y017746D02*
X020289Y017746D01*
X020289Y017904D02*
X019270Y017904D01*
X019270Y018063D02*
X020289Y018063D01*
X020289Y018221D02*
X019270Y018221D01*
X019270Y018380D02*
X020289Y018380D01*
X020289Y018538D02*
X019270Y018538D01*
X019274Y018697D02*
X019485Y018697D01*
X019948Y018697D02*
X019988Y018697D01*
X019988Y018855D02*
X019948Y018855D01*
X019948Y019014D02*
X019988Y019014D01*
X019988Y019172D02*
X019948Y019172D01*
X021068Y018817D02*
X021177Y018708D01*
X021394Y018618D01*
X021628Y018618D01*
X021845Y018708D01*
X022011Y018874D01*
X022177Y018708D01*
X022327Y018646D01*
X022327Y016227D01*
X022177Y016165D01*
X022011Y015999D01*
X022011Y015999D01*
X021845Y016165D01*
X021628Y016255D01*
X021394Y016255D01*
X021177Y016165D01*
X021068Y016056D01*
X021068Y018817D01*
X021068Y018697D02*
X021205Y018697D01*
X021068Y018538D02*
X022327Y018538D01*
X022327Y018380D02*
X021068Y018380D01*
X021068Y018221D02*
X022327Y018221D01*
X022327Y018063D02*
X021068Y018063D01*
X021068Y017904D02*
X022327Y017904D01*
X022327Y017746D02*
X021068Y017746D01*
X021068Y017587D02*
X022327Y017587D01*
X022327Y017429D02*
X021068Y017429D01*
X021068Y017270D02*
X022327Y017270D01*
X022327Y017112D02*
X021068Y017112D01*
X021068Y016953D02*
X022327Y016953D01*
X022327Y016795D02*
X021068Y016795D01*
X021068Y016636D02*
X022327Y016636D01*
X022327Y016478D02*
X021068Y016478D01*
X021068Y016319D02*
X022327Y016319D01*
X022172Y016161D02*
X021849Y016161D01*
X022008Y016002D02*
X022014Y016002D01*
X022011Y015999D02*
X022011Y015999D01*
X021172Y016161D02*
X021068Y016161D01*
X021068Y015273D02*
X021177Y015165D01*
X021394Y015075D01*
X021628Y015075D01*
X021845Y015165D01*
X022011Y015331D01*
X022011Y015331D01*
X022011Y015331D01*
X022177Y015165D01*
X022394Y015075D01*
X022628Y015075D01*
X022845Y015165D01*
X022961Y015281D01*
X022961Y015271D01*
X022973Y015225D01*
X022997Y015184D01*
X023030Y015151D01*
X023071Y015127D01*
X023117Y015115D01*
X023491Y015115D01*
X023491Y015645D01*
X023531Y015645D01*
X023531Y015115D01*
X023713Y015115D01*
X021068Y012470D01*
X021068Y015273D01*
X021068Y015210D02*
X021132Y015210D01*
X021068Y015051D02*
X023649Y015051D01*
X023531Y015210D02*
X023491Y015210D01*
X023491Y015368D02*
X023531Y015368D01*
X023531Y015527D02*
X023491Y015527D01*
X023491Y015685D02*
X023491Y016215D01*
X023117Y016215D01*
X023071Y016203D01*
X023030Y016179D01*
X022997Y016145D01*
X022973Y016104D01*
X022961Y016059D01*
X022961Y016049D01*
X022867Y016143D01*
X022867Y018730D01*
X022961Y018824D01*
X022961Y018814D01*
X022973Y018769D01*
X022997Y018728D01*
X023030Y018694D01*
X023071Y018670D01*
X023117Y018658D01*
X023491Y018658D01*
X023491Y019188D01*
X023531Y019188D01*
X023531Y019228D01*
X024061Y019228D01*
X024061Y019602D01*
X024049Y019648D01*
X024025Y019689D01*
X023991Y019722D01*
X023950Y019746D01*
X023905Y019758D01*
X023531Y019758D01*
X023531Y019228D01*
X023491Y019228D01*
X023491Y019758D01*
X023117Y019758D01*
X023071Y019746D01*
X023030Y019722D01*
X022997Y019689D01*
X022973Y019648D01*
X022961Y019602D01*
X022961Y019592D01*
X022845Y019708D01*
X022628Y019798D01*
X022394Y019798D01*
X022177Y019708D01*
X022011Y019542D01*
X022011Y019542D01*
X022011Y019542D01*
X021845Y019708D01*
X021628Y019798D01*
X021394Y019798D01*
X021177Y019708D01*
X021068Y019600D01*
X021068Y019905D01*
X021027Y020004D01*
X020951Y020080D01*
X020678Y020353D01*
X020678Y020479D01*
X020617Y020541D01*
X029918Y020541D01*
X030700Y019758D01*
X030617Y019758D01*
X030617Y019228D01*
X030577Y019228D01*
X030577Y019758D01*
X030204Y019758D01*
X030158Y019746D01*
X030117Y019722D01*
X030083Y019689D01*
X030060Y019648D01*
X030047Y019602D01*
X030047Y019592D01*
X029932Y019708D01*
X029715Y019798D01*
X029480Y019798D01*
X029263Y019708D01*
X029097Y019542D01*
X029097Y019542D01*
X029097Y019542D01*
X028932Y019708D01*
X028715Y019798D01*
X028480Y019798D01*
X028263Y019708D01*
X028097Y019542D01*
X028039Y019402D01*
X027938Y019402D01*
X027839Y019361D01*
X027604Y019126D01*
X027604Y019188D01*
X027074Y019188D01*
X027074Y018658D01*
X027136Y018658D01*
X025003Y016525D01*
X024701Y016525D01*
X024602Y016484D01*
X024061Y015942D01*
X024061Y016059D01*
X024049Y016104D01*
X024025Y016145D01*
X023991Y016179D01*
X023950Y016203D01*
X023905Y016215D01*
X023531Y016215D01*
X023531Y015685D01*
X023491Y015685D01*
X023531Y015685D01*
X023531Y015844D02*
X023491Y015844D01*
X023491Y016002D02*
X023531Y016002D01*
X023531Y016161D02*
X023491Y016161D01*
X023012Y016161D02*
X022867Y016161D01*
X022867Y016319D02*
X024437Y016319D01*
X024279Y016161D02*
X024010Y016161D01*
X024061Y016002D02*
X024120Y016002D01*
X024464Y015583D02*
X024425Y015544D01*
X024425Y015467D01*
X024476Y015519D01*
X024464Y015548D01*
X024464Y015583D01*
X024473Y015527D02*
X024425Y015527D01*
X024837Y015116D02*
X024937Y015075D01*
X024992Y015075D01*
X023697Y013780D01*
X023685Y013792D01*
X023563Y013842D01*
X024837Y015116D01*
X024772Y015051D02*
X024968Y015051D01*
X024809Y014893D02*
X024613Y014893D01*
X024651Y014734D02*
X024455Y014734D01*
X024492Y014576D02*
X024296Y014576D01*
X024334Y014417D02*
X024138Y014417D01*
X024175Y014259D02*
X023979Y014259D01*
X024017Y014100D02*
X023821Y014100D01*
X023858Y013942D02*
X023662Y013942D01*
X023694Y013783D02*
X023700Y013783D01*
X024146Y013466D02*
X027099Y013466D01*
X026941Y013308D02*
X023987Y013308D01*
X023904Y013225D02*
X023894Y013215D01*
X023884Y013191D01*
X024144Y012931D01*
X024185Y012832D01*
X026465Y012832D01*
X026307Y012674D02*
X024185Y012674D01*
X024185Y012832D02*
X024185Y010552D01*
X028321Y014688D01*
X028321Y015141D01*
X028263Y015165D01*
X028097Y015331D01*
X028008Y015548D01*
X028008Y015782D01*
X028097Y015999D01*
X028263Y016165D01*
X028480Y016255D01*
X028715Y016255D01*
X028932Y016165D01*
X029097Y015999D01*
X029097Y015999D01*
X029097Y015999D01*
X029263Y016165D01*
X029480Y016255D01*
X029715Y016255D01*
X029932Y016165D01*
X030047Y016049D01*
X030047Y016059D01*
X030060Y016104D01*
X030083Y016145D01*
X030117Y016179D01*
X030158Y016203D01*
X030204Y016215D01*
X030577Y016215D01*
X030577Y015685D01*
X030617Y015685D01*
X030577Y015685D01*
X030577Y015645D02*
X030617Y015645D01*
X030617Y015115D01*
X030991Y015115D01*
X031037Y015127D01*
X031078Y015151D01*
X031111Y015184D01*
X031135Y015225D01*
X031147Y015271D01*
X031147Y015645D01*
X030617Y015645D01*
X030617Y015685D01*
X030617Y016215D01*
X030991Y016215D01*
X031037Y016203D01*
X031078Y016179D01*
X031111Y016145D01*
X031135Y016104D01*
X031147Y016059D01*
X031147Y015685D01*
X031551Y015685D01*
X031551Y015782D02*
X031551Y015548D01*
X031641Y015331D01*
X031807Y015165D01*
X032023Y015075D01*
X032258Y015075D01*
X032475Y015165D01*
X032641Y015331D01*
X032641Y015331D01*
X032641Y015331D01*
X032807Y015165D01*
X033023Y015075D01*
X033258Y015075D01*
X033475Y015165D01*
X033591Y015281D01*
X033591Y015271D01*
X033603Y015225D01*
X033627Y015184D01*
X033660Y015151D01*
X033701Y015127D01*
X033747Y015115D01*
X034121Y015115D01*
X034121Y015645D01*
X034161Y015645D01*
X034161Y015115D01*
X034534Y015115D01*
X034580Y015127D01*
X034621Y015151D01*
X034645Y015175D01*
X034645Y014162D01*
X034638Y014140D01*
X034645Y014067D01*
X034645Y013995D01*
X034654Y013973D01*
X034656Y013949D01*
X034690Y013885D01*
X034718Y013818D01*
X034735Y013802D01*
X034746Y013781D01*
X034802Y013735D01*
X034853Y013683D01*
X034875Y013674D01*
X035551Y013116D01*
X035551Y001349D01*
X034939Y000791D01*
X018936Y000791D01*
X022000Y003941D01*
X022070Y003771D01*
X022248Y003593D01*
X022481Y003496D01*
X022733Y003496D01*
X022966Y003593D01*
X023144Y003771D01*
X023240Y004003D01*
X023240Y004255D01*
X023144Y004488D01*
X022966Y004666D01*
X022780Y004743D01*
X024347Y006355D01*
X024384Y006392D01*
X024385Y006393D01*
X024386Y006395D01*
X024405Y006443D01*
X024425Y006491D01*
X024425Y006493D01*
X024426Y006494D01*
X024425Y006546D01*
X024425Y010029D01*
X027603Y013207D01*
X027684Y013012D01*
X027854Y012842D01*
X028076Y012750D01*
X028316Y012750D01*
X028538Y012842D01*
X028708Y013012D01*
X028799Y013234D01*
X028799Y013474D01*
X028708Y013696D01*
X028538Y013866D01*
X028342Y013946D01*
X028820Y014424D01*
X028861Y014523D01*
X028861Y015136D01*
X028932Y015165D01*
X029097Y015331D01*
X029097Y015331D01*
X029097Y015331D01*
X029263Y015165D01*
X029480Y015075D01*
X029715Y015075D01*
X029932Y015165D01*
X030047Y015281D01*
X030047Y015271D01*
X030060Y015225D01*
X030083Y015184D01*
X030117Y015151D01*
X030158Y015127D01*
X030204Y015115D01*
X030577Y015115D01*
X030577Y015645D01*
X030617Y015685D02*
X031147Y015685D01*
X031147Y015527D02*
X031560Y015527D01*
X031625Y015368D02*
X031147Y015368D01*
X031126Y015210D02*
X031762Y015210D01*
X032519Y015210D02*
X032762Y015210D01*
X033519Y015210D02*
X033612Y015210D01*
X034121Y015210D02*
X034161Y015210D01*
X034161Y015368D02*
X034121Y015368D01*
X034121Y015527D02*
X034161Y015527D01*
X034161Y015685D02*
X034121Y015685D01*
X034161Y015685D01*
X034161Y016215D01*
X034534Y016215D01*
X034580Y016203D01*
X034621Y016179D01*
X034645Y016155D01*
X034645Y018718D01*
X034621Y018694D01*
X034580Y018670D01*
X034534Y018658D01*
X034161Y018658D01*
X034161Y019188D01*
X034121Y019188D01*
X034121Y018658D01*
X033747Y018658D01*
X033701Y018670D01*
X033660Y018694D01*
X033627Y018728D01*
X033603Y018769D01*
X033591Y018814D01*
X033591Y018824D01*
X033475Y018708D01*
X033258Y018618D01*
X033023Y018618D01*
X032807Y018708D01*
X032641Y018874D01*
X032641Y018874D01*
X032641Y018874D01*
X032475Y018708D01*
X032258Y018618D01*
X032023Y018618D01*
X031807Y018708D01*
X031641Y018874D01*
X031596Y018982D01*
X031534Y018982D01*
X031435Y019023D01*
X031147Y019311D01*
X031147Y019228D01*
X030617Y019228D01*
X030617Y019188D01*
X030617Y018658D01*
X030991Y018658D01*
X031037Y018670D01*
X031078Y018694D01*
X031111Y018728D01*
X031135Y018769D01*
X031147Y018814D01*
X031147Y019188D01*
X030617Y019188D01*
X030577Y019188D01*
X030577Y018658D01*
X030204Y018658D01*
X030158Y018670D01*
X030117Y018694D01*
X030083Y018728D01*
X030060Y018769D01*
X030047Y018814D01*
X030047Y018824D01*
X029932Y018708D01*
X029715Y018618D01*
X029480Y018618D01*
X029263Y018708D01*
X029097Y018874D01*
X029097Y018874D01*
X028932Y018708D01*
X028715Y018618D01*
X028480Y018618D01*
X028263Y018708D01*
X028109Y018862D01*
X028103Y018862D01*
X025397Y016156D01*
X025554Y015999D01*
X025554Y015999D01*
X025554Y015999D01*
X025720Y016165D01*
X025937Y016255D01*
X026171Y016255D01*
X026388Y016165D01*
X026504Y016049D01*
X026504Y016059D01*
X026516Y016104D01*
X026540Y016145D01*
X026574Y016179D01*
X026615Y016203D01*
X026660Y016215D01*
X027034Y016215D01*
X027034Y015685D01*
X027074Y015685D01*
X027034Y015685D01*
X027074Y015685D02*
X027074Y016215D01*
X027448Y016215D01*
X027494Y016203D01*
X027535Y016179D01*
X027568Y016145D01*
X027592Y016104D01*
X027604Y016059D01*
X027604Y015685D01*
X028008Y015685D01*
X028016Y015527D02*
X027604Y015527D01*
X027604Y015645D02*
X027074Y015645D01*
X027074Y015685D01*
X027604Y015685D01*
X027604Y015645D02*
X027604Y015271D01*
X027592Y015225D01*
X027568Y015184D01*
X027535Y015151D01*
X027494Y015127D01*
X027448Y015115D01*
X027074Y015115D01*
X027074Y015645D01*
X027034Y015645D01*
X027034Y015115D01*
X026660Y015115D01*
X026615Y015127D01*
X026574Y015151D01*
X026540Y015184D01*
X026516Y015225D01*
X026504Y015271D01*
X026504Y015281D01*
X026388Y015165D01*
X026171Y015075D01*
X025937Y015075D01*
X025808Y015128D01*
X023904Y013225D01*
X023926Y013149D02*
X026782Y013149D01*
X026624Y012991D02*
X024085Y012991D01*
X023646Y012666D02*
X023646Y009084D01*
X023495Y009146D01*
X023290Y009146D01*
X023100Y009067D01*
X022955Y008922D01*
X022876Y008732D01*
X022876Y008527D01*
X022955Y008337D01*
X023100Y008191D01*
X023215Y008144D01*
X023207Y008136D01*
X023166Y008037D01*
X023166Y006957D01*
X023100Y006930D01*
X022955Y006784D01*
X022876Y006594D01*
X022876Y006389D01*
X022955Y006199D01*
X023100Y006054D01*
X023244Y005994D01*
X018487Y001103D01*
X017239Y001103D01*
X018488Y001103D01*
X018642Y001262D02*
X016976Y001262D01*
X016906Y001192D02*
X021507Y005792D01*
X021548Y005891D01*
X021548Y005999D01*
X021548Y011827D01*
X022904Y013184D01*
X022955Y013061D01*
X023100Y012916D01*
X023290Y012837D01*
X023475Y012837D01*
X023646Y012666D01*
X023639Y012674D02*
X022394Y012674D01*
X022553Y012832D02*
X023480Y012832D01*
X023646Y012515D02*
X022236Y012515D01*
X022077Y012357D02*
X023646Y012357D01*
X023646Y012198D02*
X021919Y012198D01*
X021760Y012040D02*
X023646Y012040D01*
X023646Y011881D02*
X021602Y011881D01*
X021548Y011723D02*
X023646Y011723D01*
X023646Y011564D02*
X022880Y011564D01*
X022966Y011528D02*
X022733Y011625D01*
X022481Y011625D01*
X022248Y011528D01*
X022070Y011350D01*
X021974Y011118D01*
X021974Y010866D01*
X022070Y010633D01*
X022248Y010455D01*
X022481Y010358D01*
X022733Y010358D01*
X022966Y010455D01*
X023144Y010633D01*
X023240Y010866D01*
X023240Y011118D01*
X023144Y011350D01*
X022966Y011528D01*
X023088Y011406D02*
X023646Y011406D01*
X023646Y011247D02*
X023186Y011247D01*
X023240Y011089D02*
X023646Y011089D01*
X023646Y010930D02*
X023240Y010930D01*
X023201Y010772D02*
X023646Y010772D01*
X023646Y010613D02*
X023124Y010613D01*
X022965Y010455D02*
X023646Y010455D01*
X023646Y010296D02*
X021548Y010296D01*
X021548Y010138D02*
X023646Y010138D01*
X023646Y009979D02*
X021548Y009979D01*
X021548Y009821D02*
X023646Y009821D01*
X023646Y009662D02*
X021548Y009662D01*
X021548Y009504D02*
X023646Y009504D01*
X023646Y009345D02*
X021548Y009345D01*
X021548Y009187D02*
X023646Y009187D01*
X023061Y009028D02*
X021548Y009028D01*
X021548Y008870D02*
X022933Y008870D01*
X022876Y008711D02*
X021548Y008711D01*
X021548Y008553D02*
X022876Y008553D01*
X022931Y008394D02*
X021548Y008394D01*
X021548Y008236D02*
X023056Y008236D01*
X023183Y008077D02*
X021548Y008077D01*
X021548Y007919D02*
X023166Y007919D01*
X023166Y007760D02*
X021548Y007760D01*
X021548Y007602D02*
X023166Y007602D01*
X023166Y007443D02*
X021548Y007443D01*
X021548Y007285D02*
X023166Y007285D01*
X023166Y007126D02*
X021548Y007126D01*
X021548Y006968D02*
X023166Y006968D01*
X022980Y006809D02*
X021548Y006809D01*
X021548Y006651D02*
X022899Y006651D01*
X022876Y006492D02*
X021548Y006492D01*
X021548Y006334D02*
X022899Y006334D01*
X022979Y006175D02*
X021548Y006175D01*
X021548Y006017D02*
X023190Y006017D01*
X023112Y005858D02*
X021534Y005858D01*
X021414Y005700D02*
X022957Y005700D01*
X022803Y005541D02*
X021256Y005541D01*
X021097Y005383D02*
X022649Y005383D01*
X022495Y005224D02*
X020939Y005224D01*
X020780Y005066D02*
X022341Y005066D01*
X022187Y004907D02*
X020622Y004907D01*
X020463Y004749D02*
X022033Y004749D01*
X021879Y004590D02*
X020305Y004590D01*
X020146Y004432D02*
X021724Y004432D01*
X021570Y004273D02*
X019988Y004273D01*
X019829Y004115D02*
X021416Y004115D01*
X021262Y003956D02*
X019671Y003956D01*
X019512Y003798D02*
X021108Y003798D01*
X020954Y003639D02*
X019354Y003639D01*
X019195Y003481D02*
X020800Y003481D01*
X020646Y003322D02*
X019037Y003322D01*
X018878Y003164D02*
X020491Y003164D01*
X020337Y003005D02*
X018720Y003005D01*
X018561Y002847D02*
X020183Y002847D01*
X020029Y002688D02*
X018403Y002688D01*
X018244Y002530D02*
X019875Y002530D01*
X019721Y002371D02*
X018086Y002371D01*
X017927Y002213D02*
X019567Y002213D01*
X019412Y002054D02*
X017769Y002054D01*
X017610Y001896D02*
X019258Y001896D01*
X019104Y001737D02*
X017452Y001737D01*
X017293Y001579D02*
X018950Y001579D01*
X018796Y001420D02*
X017135Y001420D01*
X017150Y001192D02*
X016906Y001192D01*
X017150Y001192D02*
X017239Y001103D01*
X016643Y000928D02*
X016643Y000791D01*
X016505Y000791D01*
X016643Y000928D01*
X015174Y001420D02*
X010600Y001420D01*
X010441Y001579D02*
X015033Y001579D01*
X014967Y001737D02*
X010283Y001737D01*
X010124Y001896D02*
X014913Y001896D01*
X014913Y002054D02*
X009966Y002054D01*
X009807Y002213D02*
X014913Y002213D01*
X014977Y002371D02*
X009649Y002371D01*
X009490Y002530D02*
X015042Y002530D01*
X015196Y002688D02*
X009332Y002688D01*
X009173Y002847D02*
X015444Y002847D01*
X015480Y003005D02*
X009015Y003005D01*
X008856Y003164D02*
X015337Y003164D01*
X015272Y003322D02*
X008698Y003322D01*
X008650Y003639D02*
X009110Y003639D01*
X009086Y003651D02*
X009153Y003617D01*
X009225Y003594D01*
X009300Y003582D01*
X009318Y003582D01*
X009318Y004342D01*
X008858Y004342D01*
X008858Y004024D01*
X008869Y003949D01*
X008893Y003877D01*
X008927Y003810D01*
X008971Y003749D01*
X009025Y003696D01*
X009086Y003651D01*
X008936Y003798D02*
X008791Y003798D01*
X008856Y003956D02*
X008868Y003956D01*
X008857Y004115D02*
X008858Y004115D01*
X008857Y004273D02*
X008858Y004273D01*
X008857Y004432D02*
X008858Y004432D01*
X008857Y004590D02*
X008858Y004590D01*
X008857Y004749D02*
X008865Y004749D01*
X008924Y004907D02*
X008799Y004907D01*
X008669Y005066D02*
X009077Y005066D01*
X009150Y005224D02*
X008001Y005224D01*
X008001Y005066D02*
X008006Y005066D01*
X008001Y005383D02*
X008991Y005383D01*
X008833Y005541D02*
X008001Y005541D01*
X008001Y005700D02*
X008674Y005700D01*
X008516Y005858D02*
X008001Y005858D01*
X008001Y006017D02*
X008357Y006017D01*
X008199Y006175D02*
X008090Y006175D01*
X009222Y006275D02*
X015285Y006275D01*
X015349Y006120D01*
X015509Y005960D01*
X015349Y005800D01*
X015322Y005735D01*
X009761Y005735D01*
X009222Y006275D01*
X009322Y006175D02*
X015326Y006175D01*
X015453Y006017D02*
X009480Y006017D01*
X009639Y005858D02*
X015407Y005858D01*
X016205Y005960D02*
X016333Y005833D01*
X016333Y006088D01*
X016205Y005960D01*
X016262Y006017D02*
X016333Y006017D01*
X016333Y005858D02*
X016308Y005858D01*
X017864Y004907D02*
X019499Y004907D01*
X019341Y004749D02*
X017706Y004749D01*
X017547Y004590D02*
X019182Y004590D01*
X019024Y004432D02*
X017389Y004432D01*
X017230Y004273D02*
X018865Y004273D01*
X018707Y004115D02*
X017072Y004115D01*
X016913Y003956D02*
X018548Y003956D01*
X018390Y003798D02*
X016755Y003798D01*
X016596Y003639D02*
X018231Y003639D01*
X018073Y003481D02*
X016457Y003481D01*
X016457Y003500D02*
X020769Y007811D01*
X020769Y006177D01*
X016660Y002068D01*
X016660Y002217D01*
X016527Y002538D01*
X016281Y002783D01*
X016017Y002893D01*
X016197Y002967D01*
X016366Y003136D01*
X016457Y003357D01*
X016457Y003500D01*
X016443Y003322D02*
X017914Y003322D01*
X017756Y003164D02*
X016377Y003164D01*
X016235Y003005D02*
X017597Y003005D01*
X017439Y002847D02*
X016129Y002847D01*
X016377Y002688D02*
X017280Y002688D01*
X017122Y002530D02*
X016530Y002530D01*
X016596Y002371D02*
X016963Y002371D01*
X016805Y002213D02*
X016660Y002213D01*
X019086Y000945D02*
X035108Y000945D01*
X035281Y001103D02*
X019240Y001103D01*
X019394Y001262D02*
X023264Y001262D01*
X023290Y001251D02*
X023495Y001251D01*
X023685Y001329D01*
X023831Y001475D01*
X023909Y001664D01*
X023909Y001870D01*
X023831Y002060D01*
X023685Y002205D01*
X023495Y002284D01*
X023290Y002284D01*
X023100Y002205D01*
X022955Y002060D01*
X022876Y001870D01*
X022876Y001664D01*
X022955Y001475D01*
X023100Y001329D01*
X023290Y001251D01*
X023522Y001262D02*
X027848Y001262D01*
X027854Y001255D02*
X028076Y001164D01*
X028316Y001164D01*
X028538Y001255D01*
X028708Y001425D01*
X028799Y001647D01*
X028799Y001887D01*
X028708Y002109D01*
X028538Y002279D01*
X028316Y002371D01*
X028076Y002371D01*
X027854Y002279D01*
X027684Y002109D01*
X027592Y001887D01*
X027592Y001647D01*
X027684Y001425D01*
X027854Y001255D01*
X027689Y001420D02*
X023776Y001420D01*
X023874Y001579D02*
X027621Y001579D01*
X027592Y001737D02*
X023909Y001737D01*
X023899Y001896D02*
X027596Y001896D01*
X027661Y002054D02*
X023833Y002054D01*
X023668Y002213D02*
X027788Y002213D01*
X028604Y002213D02*
X031409Y002213D01*
X031409Y002281D02*
X031409Y002038D01*
X031502Y001814D01*
X031673Y001642D01*
X031897Y001550D01*
X032920Y001550D01*
X033144Y001642D01*
X033315Y001814D01*
X033408Y002038D01*
X033408Y002281D01*
X033315Y002505D01*
X033144Y002676D01*
X032920Y002769D01*
X031897Y002769D01*
X031673Y002676D01*
X031502Y002505D01*
X031409Y002281D01*
X031446Y002371D02*
X020473Y002371D01*
X020319Y002213D02*
X023118Y002213D01*
X022952Y002054D02*
X020165Y002054D01*
X020011Y001896D02*
X022887Y001896D01*
X022876Y001737D02*
X019857Y001737D01*
X019703Y001579D02*
X022912Y001579D01*
X023009Y001420D02*
X019549Y001420D01*
X020627Y002530D02*
X031526Y002530D01*
X031701Y002688D02*
X020782Y002688D01*
X020936Y002847D02*
X035551Y002847D01*
X035551Y003005D02*
X021090Y003005D01*
X021244Y003164D02*
X035551Y003164D01*
X035551Y003322D02*
X021398Y003322D01*
X021552Y003481D02*
X035551Y003481D01*
X035551Y003639D02*
X033170Y003639D01*
X033144Y003612D02*
X033315Y003784D01*
X033408Y004008D01*
X033408Y004251D01*
X033315Y004475D01*
X033144Y004646D01*
X032920Y004739D01*
X031897Y004739D01*
X031673Y004646D01*
X031502Y004475D01*
X031409Y004251D01*
X031409Y004008D01*
X031502Y003784D01*
X031673Y003612D01*
X031897Y003520D01*
X032920Y003520D01*
X033144Y003612D01*
X033321Y003798D02*
X035551Y003798D01*
X035551Y003956D02*
X033387Y003956D01*
X033408Y004115D02*
X035551Y004115D01*
X035551Y004273D02*
X033399Y004273D01*
X033333Y004432D02*
X035551Y004432D01*
X035551Y004590D02*
X033200Y004590D01*
X032920Y005490D02*
X031897Y005490D01*
X031673Y005582D01*
X031502Y005754D01*
X031409Y005978D01*
X031409Y006221D01*
X031502Y006445D01*
X031673Y006616D01*
X031897Y006709D01*
X032920Y006709D01*
X033144Y006616D01*
X033315Y006445D01*
X033408Y006221D01*
X033408Y005978D01*
X033315Y005754D01*
X033144Y005582D01*
X032920Y005490D01*
X033044Y005541D02*
X035551Y005541D01*
X035551Y005383D02*
X023402Y005383D01*
X023556Y005541D02*
X031773Y005541D01*
X031556Y005700D02*
X023710Y005700D01*
X023864Y005858D02*
X031458Y005858D01*
X031409Y006017D02*
X028574Y006017D01*
X028538Y005980D02*
X028708Y006150D01*
X028799Y006372D01*
X028799Y006612D01*
X028708Y006834D01*
X028538Y007003D01*
X028316Y007095D01*
X028076Y007095D01*
X027854Y007003D01*
X027684Y006834D01*
X027592Y006612D01*
X027592Y006372D01*
X027684Y006150D01*
X027854Y005980D01*
X028076Y005888D01*
X028316Y005888D01*
X028538Y005980D01*
X028718Y006175D02*
X031409Y006175D01*
X031455Y006334D02*
X028784Y006334D01*
X028799Y006492D02*
X031549Y006492D01*
X031756Y006651D02*
X028783Y006651D01*
X028718Y006809D02*
X035551Y006809D01*
X035551Y006651D02*
X033061Y006651D01*
X033268Y006492D02*
X035551Y006492D01*
X035551Y006334D02*
X033361Y006334D01*
X033408Y006175D02*
X035551Y006175D01*
X035551Y006017D02*
X033408Y006017D01*
X033358Y005858D02*
X035551Y005858D01*
X035551Y005700D02*
X033261Y005700D01*
X031617Y004590D02*
X023042Y004590D01*
X023167Y004432D02*
X031484Y004432D01*
X031418Y004273D02*
X023233Y004273D01*
X023240Y004115D02*
X031409Y004115D01*
X031430Y003956D02*
X023220Y003956D01*
X023155Y003798D02*
X031496Y003798D01*
X031647Y003639D02*
X023012Y003639D01*
X022202Y003639D02*
X021706Y003639D01*
X021860Y003798D02*
X022059Y003798D01*
X022785Y004749D02*
X035551Y004749D01*
X035551Y004907D02*
X022939Y004907D01*
X023094Y005066D02*
X035551Y005066D01*
X035551Y005224D02*
X023248Y005224D01*
X024018Y006017D02*
X027817Y006017D01*
X027674Y006175D02*
X024172Y006175D01*
X024327Y006334D02*
X027608Y006334D01*
X027592Y006492D02*
X024425Y006492D01*
X024425Y006651D02*
X027608Y006651D01*
X027674Y006809D02*
X024425Y006809D01*
X024425Y006968D02*
X027818Y006968D01*
X028574Y006968D02*
X035551Y006968D01*
X035551Y007126D02*
X024425Y007126D01*
X024425Y007285D02*
X035551Y007285D01*
X035551Y007443D02*
X024425Y007443D01*
X024425Y007602D02*
X035551Y007602D01*
X035551Y007760D02*
X024425Y007760D01*
X024425Y007919D02*
X035551Y007919D01*
X035551Y008077D02*
X028440Y008077D01*
X028538Y008118D02*
X028708Y008287D01*
X028799Y008509D01*
X028799Y008749D01*
X028708Y008971D01*
X028538Y009141D01*
X028316Y009233D01*
X028076Y009233D01*
X027854Y009141D01*
X027684Y008971D01*
X027592Y008749D01*
X027592Y008509D01*
X027684Y008287D01*
X027854Y008118D01*
X028076Y008026D01*
X028316Y008026D01*
X028538Y008118D01*
X028656Y008236D02*
X035551Y008236D01*
X035551Y008394D02*
X028752Y008394D01*
X028799Y008553D02*
X031625Y008553D01*
X031673Y008505D02*
X031897Y008412D01*
X032920Y008412D01*
X033144Y008505D01*
X033315Y008676D01*
X033408Y008900D01*
X033408Y009143D01*
X033315Y009367D01*
X033144Y009539D01*
X032920Y009631D01*
X031897Y009631D01*
X031673Y009539D01*
X031502Y009367D01*
X031409Y009143D01*
X031409Y008900D01*
X031502Y008676D01*
X031673Y008505D01*
X031487Y008711D02*
X028799Y008711D01*
X028750Y008870D02*
X031421Y008870D01*
X031409Y009028D02*
X028651Y009028D01*
X028428Y009187D02*
X031427Y009187D01*
X031492Y009345D02*
X024425Y009345D01*
X024425Y009187D02*
X027964Y009187D01*
X027741Y009028D02*
X024425Y009028D01*
X024425Y008870D02*
X027642Y008870D01*
X027592Y008711D02*
X024425Y008711D01*
X024425Y008553D02*
X027592Y008553D01*
X027640Y008394D02*
X024425Y008394D01*
X024425Y008236D02*
X027736Y008236D01*
X027952Y008077D02*
X024425Y008077D01*
X023886Y008051D02*
X023706Y007871D01*
X023706Y006909D01*
X023831Y006784D01*
X023885Y006653D01*
X023886Y006654D01*
X023886Y008051D01*
X023886Y007919D02*
X023753Y007919D01*
X023706Y007760D02*
X023886Y007760D01*
X023886Y007602D02*
X023706Y007602D01*
X023706Y007443D02*
X023886Y007443D01*
X023886Y007285D02*
X023706Y007285D01*
X023706Y007126D02*
X023886Y007126D01*
X023886Y006968D02*
X023706Y006968D01*
X023806Y006809D02*
X023886Y006809D01*
X020769Y006809D02*
X019766Y006809D01*
X019608Y006651D02*
X020769Y006651D01*
X020769Y006492D02*
X019449Y006492D01*
X019291Y006334D02*
X020769Y006334D01*
X020767Y006175D02*
X019132Y006175D01*
X018974Y006017D02*
X020609Y006017D01*
X020450Y005858D02*
X018815Y005858D01*
X018657Y005700D02*
X020292Y005700D01*
X020133Y005541D02*
X018498Y005541D01*
X018340Y005383D02*
X019975Y005383D01*
X019816Y005224D02*
X018181Y005224D01*
X018023Y005066D02*
X019658Y005066D01*
X019925Y006968D02*
X020769Y006968D01*
X020769Y007126D02*
X020083Y007126D01*
X020242Y007285D02*
X020769Y007285D01*
X020769Y007443D02*
X020400Y007443D01*
X020559Y007602D02*
X020769Y007602D01*
X020769Y007760D02*
X020717Y007760D01*
X024425Y009504D02*
X031638Y009504D01*
X031897Y010382D02*
X031673Y010475D01*
X031502Y010646D01*
X031409Y010870D01*
X031409Y011113D01*
X031502Y011337D01*
X031673Y011509D01*
X031897Y011601D01*
X032920Y011601D01*
X033144Y011509D01*
X033315Y011337D01*
X033408Y011113D01*
X033408Y010870D01*
X033315Y010646D01*
X033144Y010475D01*
X032920Y010382D01*
X031897Y010382D01*
X031722Y010455D02*
X024851Y010455D01*
X025009Y010613D02*
X031535Y010613D01*
X031450Y010772D02*
X025168Y010772D01*
X025326Y010930D02*
X031409Y010930D01*
X031409Y011089D02*
X025485Y011089D01*
X025643Y011247D02*
X031464Y011247D01*
X031570Y011406D02*
X025802Y011406D01*
X025960Y011564D02*
X031807Y011564D01*
X031897Y012352D02*
X031673Y012445D01*
X031502Y012616D01*
X031409Y012840D01*
X031409Y013083D01*
X031502Y013307D01*
X031673Y013479D01*
X031897Y013571D01*
X032920Y013571D01*
X033144Y013479D01*
X033315Y013307D01*
X033408Y013083D01*
X033408Y012840D01*
X033315Y012616D01*
X033144Y012445D01*
X032920Y012352D01*
X031897Y012352D01*
X031886Y012357D02*
X026753Y012357D01*
X026911Y012515D02*
X031603Y012515D01*
X031478Y012674D02*
X027070Y012674D01*
X027228Y012832D02*
X027878Y012832D01*
X027706Y012991D02*
X027387Y012991D01*
X027545Y013149D02*
X027627Y013149D01*
X027258Y013625D02*
X024304Y013625D01*
X024463Y013783D02*
X027416Y013783D01*
X027575Y013942D02*
X024621Y013942D01*
X024780Y014100D02*
X027733Y014100D01*
X027892Y014259D02*
X024938Y014259D01*
X025097Y014417D02*
X028050Y014417D01*
X028209Y014576D02*
X025255Y014576D01*
X025414Y014734D02*
X028321Y014734D01*
X028321Y014893D02*
X025572Y014893D01*
X025731Y015051D02*
X028321Y015051D01*
X028219Y015210D02*
X027583Y015210D01*
X027604Y015368D02*
X028082Y015368D01*
X028033Y015844D02*
X027604Y015844D01*
X027604Y016002D02*
X028101Y016002D01*
X028259Y016161D02*
X027553Y016161D01*
X027074Y016161D02*
X027034Y016161D01*
X027034Y016002D02*
X027074Y016002D01*
X027074Y015844D02*
X027034Y015844D01*
X027034Y015527D02*
X027074Y015527D01*
X027074Y015368D02*
X027034Y015368D01*
X027034Y015210D02*
X027074Y015210D01*
X026526Y015210D02*
X026433Y015210D01*
X025557Y016002D02*
X025551Y016002D01*
X025402Y016161D02*
X025716Y016161D01*
X025560Y016319D02*
X034645Y016319D01*
X034640Y016161D02*
X034645Y016161D01*
X034645Y016478D02*
X025719Y016478D01*
X025877Y016636D02*
X034645Y016636D01*
X034645Y016795D02*
X026036Y016795D01*
X026194Y016953D02*
X034645Y016953D01*
X034645Y017112D02*
X026353Y017112D01*
X026511Y017270D02*
X034645Y017270D01*
X034645Y017429D02*
X026670Y017429D01*
X026828Y017587D02*
X034645Y017587D01*
X034645Y017746D02*
X026987Y017746D01*
X027145Y017904D02*
X034645Y017904D01*
X034645Y018063D02*
X027304Y018063D01*
X027462Y018221D02*
X034645Y018221D01*
X034645Y018380D02*
X027621Y018380D01*
X027779Y018538D02*
X034645Y018538D01*
X034645Y018697D02*
X034624Y018697D01*
X034161Y018697D02*
X034121Y018697D01*
X034121Y018855D02*
X034161Y018855D01*
X034161Y019014D02*
X034121Y019014D01*
X034121Y019172D02*
X034161Y019172D01*
X034161Y019228D02*
X034121Y019228D01*
X034121Y019758D01*
X033747Y019758D01*
X033701Y019746D01*
X033660Y019722D01*
X033627Y019689D01*
X033603Y019648D01*
X033591Y019602D01*
X033591Y019592D01*
X033475Y019708D01*
X033258Y019798D01*
X033023Y019798D01*
X032807Y019708D01*
X032641Y019542D01*
X032641Y019542D01*
X032641Y019542D01*
X032475Y019708D01*
X032258Y019798D01*
X032023Y019798D01*
X031807Y019708D01*
X031660Y019561D01*
X030258Y020963D01*
X030182Y021039D01*
X030083Y021080D01*
X011634Y021080D01*
X011535Y021039D01*
X009888Y019392D01*
X009888Y019602D01*
X009875Y019648D01*
X009852Y019689D01*
X009818Y019722D01*
X009777Y019746D01*
X009731Y019758D01*
X009358Y019758D01*
X009358Y019228D01*
X009318Y019228D01*
X009318Y019758D01*
X008944Y019758D01*
X008898Y019746D01*
X008857Y019722D01*
X008824Y019689D01*
X008800Y019648D01*
X008788Y019602D01*
X008788Y019592D01*
X008672Y019708D01*
X008455Y019798D01*
X008220Y019798D01*
X008004Y019708D01*
X007838Y019542D01*
X007838Y019542D01*
X007838Y019542D01*
X007672Y019708D01*
X007455Y019798D01*
X007220Y019798D01*
X007004Y019708D01*
X006838Y019542D01*
X006748Y019325D01*
X006748Y019091D01*
X006838Y018874D01*
X007004Y018708D01*
X007220Y018618D01*
X007455Y018618D01*
X007672Y018708D01*
X007838Y018874D01*
X008004Y018708D01*
X008061Y018684D01*
X008061Y016189D01*
X008004Y016165D01*
X007838Y015999D01*
X007838Y015999D01*
X007838Y015999D01*
X007672Y016165D01*
X007455Y016255D01*
X007220Y016255D01*
X007004Y016165D01*
X006838Y015999D01*
X006748Y015782D01*
X006748Y015548D01*
X006838Y015331D01*
X006982Y015186D01*
X006982Y014928D01*
X006891Y014837D01*
X006891Y014845D01*
X006681Y015055D01*
X006384Y015055D01*
X006174Y014845D01*
X006174Y014719D01*
X006061Y014606D01*
X005859Y014606D01*
X005723Y014742D01*
X005660Y014769D01*
X005931Y015040D01*
X005931Y015259D01*
X005401Y015259D01*
X005401Y015259D01*
X005931Y015259D01*
X005931Y015479D01*
X005620Y015789D01*
X005490Y015789D01*
X007035Y017335D01*
X007161Y017335D01*
X007371Y017545D01*
X007371Y017842D01*
X007161Y018052D01*
X006864Y018052D01*
X006653Y017842D01*
X006653Y017716D01*
X003520Y014583D01*
X003361Y014742D01*
X003297Y014769D01*
X003568Y015040D01*
X003568Y015259D01*
X003038Y015259D01*
X002508Y015259D01*
X002508Y015040D01*
X002779Y014769D01*
X002716Y014742D01*
X002555Y014582D01*
X002469Y014373D01*
X002469Y014146D01*
X002555Y013937D01*
X002716Y013776D01*
X002925Y013690D01*
X003152Y013690D01*
X003361Y013776D01*
X003386Y013801D01*
X003386Y013609D01*
X002783Y013007D01*
X002708Y012931D01*
X002666Y012832D01*
X002666Y012125D01*
X002708Y012026D01*
X003010Y011724D01*
X002817Y011724D01*
X002496Y011591D01*
X002337Y011432D01*
X002337Y018121D01*
X002352Y018103D01*
X002441Y018014D01*
X002540Y017935D01*
X002647Y017868D01*
X002761Y017813D01*
X002880Y017771D01*
X003003Y017743D01*
X003112Y017731D01*
X003112Y018774D01*
X003272Y018774D01*
X003272Y018934D01*
X003112Y018934D01*
X003112Y019977D01*
X003003Y019965D01*
X002337Y019965D01*
X002337Y020123D02*
X010619Y020123D01*
X010777Y020282D02*
X002337Y020282D01*
X002337Y020303D02*
X005890Y020303D01*
X006066Y020376D01*
X006781Y021090D01*
X034171Y021090D01*
X034645Y020591D01*
X034645Y019698D01*
X034621Y019722D01*
X034580Y019746D01*
X034534Y019758D01*
X034161Y019758D01*
X034161Y019228D01*
X034161Y019331D02*
X034121Y019331D01*
X034121Y019489D02*
X034161Y019489D01*
X034161Y019648D02*
X034121Y019648D01*
X034645Y019806D02*
X031415Y019806D01*
X031257Y019965D02*
X034645Y019965D01*
X034645Y020123D02*
X031098Y020123D01*
X030940Y020282D02*
X034645Y020282D01*
X034645Y020440D02*
X030781Y020440D01*
X030623Y020599D02*
X034638Y020599D01*
X034488Y020757D02*
X030464Y020757D01*
X030306Y020916D02*
X034337Y020916D01*
X034186Y021074D02*
X030098Y021074D01*
X030018Y020440D02*
X020678Y020440D01*
X020750Y020282D02*
X030177Y020282D01*
X030335Y020123D02*
X020908Y020123D01*
X021044Y019965D02*
X030494Y019965D01*
X030652Y019806D02*
X021068Y019806D01*
X021068Y019648D02*
X021116Y019648D01*
X021905Y019648D02*
X022116Y019648D01*
X022905Y019648D02*
X022973Y019648D01*
X023491Y019648D02*
X023531Y019648D01*
X023531Y019489D02*
X023491Y019489D01*
X023491Y019331D02*
X023531Y019331D01*
X023531Y019188D02*
X024061Y019188D01*
X024061Y018814D01*
X024049Y018769D01*
X024025Y018728D01*
X023991Y018694D01*
X023950Y018670D01*
X023905Y018658D01*
X023531Y018658D01*
X023531Y019188D01*
X023531Y019172D02*
X023491Y019172D01*
X023491Y019014D02*
X023531Y019014D01*
X023531Y018855D02*
X023491Y018855D01*
X023491Y018697D02*
X023531Y018697D01*
X023028Y018697D02*
X022867Y018697D01*
X022867Y018538D02*
X027016Y018538D01*
X027034Y018658D02*
X027034Y019188D01*
X027074Y019188D01*
X027074Y019228D01*
X027604Y019228D01*
X027604Y019602D01*
X027592Y019648D01*
X027568Y019689D01*
X027535Y019722D01*
X027494Y019746D01*
X027448Y019758D01*
X027074Y019758D01*
X027074Y019228D01*
X027034Y019228D01*
X027034Y019758D01*
X026660Y019758D01*
X026615Y019746D01*
X026574Y019722D01*
X026540Y019689D01*
X026516Y019648D01*
X026504Y019602D01*
X026504Y019592D01*
X026388Y019708D01*
X026171Y019798D01*
X025937Y019798D01*
X025720Y019708D01*
X025554Y019542D01*
X025554Y019542D01*
X025554Y019542D01*
X025388Y019708D01*
X025171Y019798D01*
X024937Y019798D01*
X024720Y019708D01*
X024554Y019542D01*
X024464Y019325D01*
X024464Y019091D01*
X024554Y018874D01*
X024720Y018708D01*
X024937Y018618D01*
X025171Y018618D01*
X025388Y018708D01*
X025554Y018874D01*
X025554Y018874D01*
X025720Y018708D01*
X025937Y018618D01*
X026171Y018618D01*
X026388Y018708D01*
X026504Y018824D01*
X026504Y018814D01*
X026516Y018769D01*
X026540Y018728D01*
X026574Y018694D01*
X026615Y018670D01*
X026660Y018658D01*
X027034Y018658D01*
X027034Y018697D02*
X027074Y018697D01*
X027074Y018855D02*
X027034Y018855D01*
X027034Y019014D02*
X027074Y019014D01*
X027074Y019172D02*
X027034Y019172D01*
X027034Y019331D02*
X027074Y019331D01*
X027074Y019489D02*
X027034Y019489D01*
X027034Y019648D02*
X027074Y019648D01*
X026516Y019648D02*
X026449Y019648D01*
X025659Y019648D02*
X025449Y019648D01*
X024659Y019648D02*
X024049Y019648D01*
X024061Y019489D02*
X024532Y019489D01*
X024466Y019331D02*
X024061Y019331D01*
X024061Y019172D02*
X024464Y019172D01*
X024496Y019014D02*
X024061Y019014D01*
X024061Y018855D02*
X024573Y018855D01*
X024748Y018697D02*
X023994Y018697D01*
X022867Y018380D02*
X026858Y018380D01*
X026699Y018221D02*
X022867Y018221D01*
X022867Y018063D02*
X026541Y018063D01*
X026382Y017904D02*
X022867Y017904D01*
X022867Y017746D02*
X026224Y017746D01*
X026065Y017587D02*
X022867Y017587D01*
X022867Y017429D02*
X025907Y017429D01*
X025748Y017270D02*
X022867Y017270D01*
X022867Y017112D02*
X025590Y017112D01*
X025431Y016953D02*
X022867Y016953D01*
X022867Y016795D02*
X025273Y016795D01*
X025114Y016636D02*
X022867Y016636D01*
X022867Y016478D02*
X024596Y016478D01*
X026392Y016161D02*
X026555Y016161D01*
X028936Y016161D02*
X029259Y016161D01*
X029101Y016002D02*
X029094Y016002D01*
X029936Y016161D02*
X030099Y016161D01*
X030577Y016161D02*
X030617Y016161D01*
X030617Y016002D02*
X030577Y016002D01*
X030577Y015844D02*
X030617Y015844D01*
X030617Y015527D02*
X030577Y015527D01*
X030577Y015368D02*
X030617Y015368D01*
X030617Y015210D02*
X030577Y015210D01*
X030069Y015210D02*
X029976Y015210D01*
X029219Y015210D02*
X028976Y015210D01*
X028861Y015051D02*
X034645Y015051D01*
X034645Y014893D02*
X028861Y014893D01*
X028861Y014734D02*
X034645Y014734D01*
X034645Y014576D02*
X028861Y014576D01*
X028813Y014417D02*
X034645Y014417D01*
X034645Y014259D02*
X028655Y014259D01*
X028496Y014100D02*
X034642Y014100D01*
X034660Y013942D02*
X028354Y013942D01*
X028620Y013783D02*
X034744Y013783D01*
X034935Y013625D02*
X028737Y013625D01*
X028799Y013466D02*
X031661Y013466D01*
X031502Y013308D02*
X028799Y013308D01*
X028764Y013149D02*
X031436Y013149D01*
X031409Y012991D02*
X028686Y012991D01*
X028513Y012832D02*
X031412Y012832D01*
X032931Y012357D02*
X035551Y012357D01*
X035551Y012515D02*
X033214Y012515D01*
X033339Y012674D02*
X035551Y012674D01*
X035551Y012832D02*
X033405Y012832D01*
X033408Y012991D02*
X035551Y012991D01*
X035510Y013149D02*
X033381Y013149D01*
X033315Y013308D02*
X035319Y013308D01*
X035127Y013466D02*
X033156Y013466D01*
X035551Y012198D02*
X026594Y012198D01*
X026436Y012040D02*
X035551Y012040D01*
X035551Y011881D02*
X026277Y011881D01*
X026119Y011723D02*
X035551Y011723D01*
X035551Y011564D02*
X033010Y011564D01*
X033247Y011406D02*
X035551Y011406D01*
X035551Y011247D02*
X033353Y011247D01*
X033408Y011089D02*
X035551Y011089D01*
X035551Y010930D02*
X033408Y010930D01*
X033367Y010772D02*
X035551Y010772D01*
X035551Y010613D02*
X033282Y010613D01*
X033095Y010455D02*
X035551Y010455D01*
X035551Y010296D02*
X024692Y010296D01*
X024534Y010138D02*
X035551Y010138D01*
X035551Y009979D02*
X024425Y009979D01*
X024425Y009821D02*
X035551Y009821D01*
X035551Y009662D02*
X024425Y009662D01*
X024246Y010613D02*
X024185Y010613D01*
X024185Y010772D02*
X024405Y010772D01*
X024563Y010930D02*
X024185Y010930D01*
X024185Y011089D02*
X024722Y011089D01*
X024880Y011247D02*
X024185Y011247D01*
X024185Y011406D02*
X025039Y011406D01*
X025197Y011564D02*
X024185Y011564D01*
X024185Y011723D02*
X025356Y011723D01*
X025514Y011881D02*
X024185Y011881D01*
X024185Y012040D02*
X025673Y012040D01*
X025831Y012198D02*
X024185Y012198D01*
X024185Y012357D02*
X025990Y012357D01*
X026148Y012515D02*
X024185Y012515D01*
X023025Y012991D02*
X022711Y012991D01*
X022870Y013149D02*
X022918Y013149D01*
X022222Y013625D02*
X021068Y013625D01*
X021068Y013783D02*
X022381Y013783D01*
X022539Y013942D02*
X021068Y013942D01*
X021068Y014100D02*
X022698Y014100D01*
X022856Y014259D02*
X021068Y014259D01*
X021068Y014417D02*
X023015Y014417D01*
X023173Y014576D02*
X021068Y014576D01*
X021068Y014734D02*
X023332Y014734D01*
X023490Y014893D02*
X021068Y014893D01*
X021890Y015210D02*
X022132Y015210D01*
X022890Y015210D02*
X022982Y015210D01*
X022064Y013466D02*
X021068Y013466D01*
X021068Y013308D02*
X021905Y013308D01*
X021747Y013149D02*
X021068Y013149D01*
X021068Y012991D02*
X021588Y012991D01*
X021430Y012832D02*
X021068Y012832D01*
X021068Y012674D02*
X021271Y012674D01*
X021113Y012515D02*
X021068Y012515D01*
X021548Y011564D02*
X022334Y011564D01*
X022125Y011406D02*
X021548Y011406D01*
X021548Y011247D02*
X022027Y011247D01*
X021974Y011089D02*
X021548Y011089D01*
X021548Y010930D02*
X021974Y010930D01*
X022013Y010772D02*
X021548Y010772D01*
X021548Y010613D02*
X022090Y010613D01*
X022249Y010455D02*
X021548Y010455D01*
X017900Y012419D02*
X016984Y011503D01*
X016990Y012059D01*
X017081Y012150D01*
X017081Y012447D01*
X017020Y012508D01*
X017804Y012508D01*
X017893Y012419D01*
X017900Y012419D01*
X017838Y012357D02*
X017081Y012357D01*
X017081Y012198D02*
X017679Y012198D01*
X017521Y012040D02*
X016990Y012040D01*
X016988Y011881D02*
X017362Y011881D01*
X017204Y011723D02*
X016987Y011723D01*
X016985Y011564D02*
X017045Y011564D01*
X016445Y011564D02*
X016270Y011564D01*
X016270Y011406D02*
X016295Y011406D01*
X016270Y011385D02*
X016270Y011823D01*
X016359Y011912D01*
X016359Y012209D01*
X016148Y012420D01*
X016079Y012420D01*
X016079Y012447D01*
X016018Y012508D01*
X016425Y012508D01*
X016364Y012447D01*
X016364Y012150D01*
X016450Y012063D01*
X016445Y011549D01*
X016270Y011382D01*
X016270Y011385D01*
X016270Y011723D02*
X016447Y011723D01*
X016449Y011881D02*
X016328Y011881D01*
X016359Y012040D02*
X016450Y012040D01*
X016364Y012198D02*
X016359Y012198D01*
X016364Y012357D02*
X016211Y012357D01*
X015875Y013048D02*
X015336Y013587D01*
X017450Y013587D01*
X017900Y013137D01*
X017893Y013137D01*
X017804Y013048D01*
X015875Y013048D01*
X015774Y013149D02*
X017888Y013149D01*
X017730Y013308D02*
X015616Y013308D01*
X015457Y013466D02*
X017571Y013466D01*
X017589Y015210D02*
X016953Y015210D01*
X016974Y015368D02*
X017452Y015368D01*
X017338Y015527D02*
X016974Y015527D01*
X016974Y015844D02*
X016992Y015844D01*
X016444Y015844D02*
X016404Y015844D01*
X016404Y016002D02*
X016444Y016002D01*
X016444Y016161D02*
X016404Y016161D01*
X015925Y016161D02*
X015763Y016161D01*
X015235Y016225D02*
X015137Y016184D01*
X015096Y016225D01*
X015235Y016225D01*
X016404Y015527D02*
X016444Y015527D01*
X016444Y015368D02*
X016404Y015368D01*
X016404Y015210D02*
X016444Y015210D01*
X015896Y015210D02*
X015803Y015210D01*
X015045Y015210D02*
X014803Y015210D01*
X014045Y015210D02*
X013409Y015210D01*
X013419Y015225D02*
X013431Y015271D01*
X013431Y015645D01*
X012901Y015645D01*
X012901Y015115D01*
X013275Y015115D01*
X013320Y015127D01*
X013361Y015151D01*
X013395Y015184D01*
X013419Y015225D01*
X013431Y015368D02*
X013909Y015368D01*
X013843Y015527D02*
X013431Y015527D01*
X013431Y015685D02*
X013431Y015985D01*
X013918Y015985D01*
X013834Y015782D01*
X013860Y015844D02*
X013431Y015844D01*
X012901Y015527D02*
X012861Y015527D01*
X012861Y015368D02*
X012901Y015368D01*
X012901Y015210D02*
X012861Y015210D01*
X012352Y015210D02*
X012260Y015210D01*
X011667Y014576D02*
X009671Y014576D01*
X009829Y014734D02*
X011508Y014734D01*
X011350Y014893D02*
X009988Y014893D01*
X010146Y015051D02*
X011191Y015051D01*
X011118Y015125D02*
X012355Y013887D01*
X009104Y013887D01*
X008997Y013887D01*
X008972Y013877D01*
X010238Y015143D01*
X010279Y015242D01*
X010279Y015544D01*
X010291Y015556D01*
X010291Y015548D01*
X010381Y015331D01*
X010547Y015165D01*
X010764Y015075D01*
X010998Y015075D01*
X011118Y015125D01*
X010502Y015210D02*
X010266Y015210D01*
X010279Y015368D02*
X010365Y015368D01*
X010300Y015527D02*
X010279Y015527D01*
X009888Y015915D02*
X009888Y016059D01*
X009875Y016104D01*
X009852Y016145D01*
X009818Y016179D01*
X009777Y016203D01*
X009731Y016215D01*
X009358Y016215D01*
X009358Y015685D01*
X009318Y015685D01*
X009318Y016215D01*
X008944Y016215D01*
X008898Y016203D01*
X008857Y016179D01*
X008824Y016145D01*
X008800Y016104D01*
X008788Y016059D01*
X008788Y016049D01*
X008672Y016165D01*
X008601Y016194D01*
X008601Y016676D01*
X008662Y016615D01*
X008959Y016615D01*
X009169Y016825D01*
X009169Y016951D01*
X010238Y018020D01*
X010279Y018119D01*
X010279Y018227D01*
X010279Y019020D01*
X010308Y019049D01*
X010381Y018874D01*
X010547Y018708D01*
X010764Y018618D01*
X010998Y018618D01*
X011215Y018708D01*
X011381Y018874D01*
X011547Y018708D01*
X011764Y018618D01*
X011998Y018618D01*
X012042Y018636D01*
X012374Y018304D01*
X012473Y018263D01*
X014618Y018263D01*
X014718Y018304D01*
X014793Y018380D01*
X015775Y018380D01*
X015851Y018304D01*
X015950Y018263D01*
X018731Y018263D01*
X018731Y016205D01*
X018633Y016165D01*
X018468Y015999D01*
X018468Y015999D01*
X018467Y015999D01*
X018302Y016165D01*
X018085Y016255D01*
X017850Y016255D01*
X017633Y016165D01*
X017534Y016065D01*
X016951Y016647D01*
X016875Y016723D01*
X016776Y016764D01*
X010795Y016764D01*
X010696Y016723D01*
X009888Y015915D01*
X009888Y016002D02*
X009974Y016002D01*
X009836Y016161D02*
X010133Y016161D01*
X010291Y016319D02*
X008601Y016319D01*
X008601Y016478D02*
X010450Y016478D01*
X010608Y016636D02*
X008980Y016636D01*
X009138Y016795D02*
X018731Y016795D01*
X018731Y016953D02*
X009171Y016953D01*
X009329Y017112D02*
X018731Y017112D01*
X018731Y017270D02*
X009488Y017270D01*
X009646Y017429D02*
X018731Y017429D01*
X018731Y017587D02*
X009805Y017587D01*
X009963Y017746D02*
X018731Y017746D01*
X018731Y017904D02*
X010122Y017904D01*
X010256Y018063D02*
X018731Y018063D01*
X018731Y018221D02*
X010279Y018221D01*
X010279Y018380D02*
X012298Y018380D01*
X012140Y018538D02*
X010279Y018538D01*
X010279Y018697D02*
X010575Y018697D01*
X010400Y018855D02*
X010279Y018855D01*
X010279Y019014D02*
X010323Y019014D01*
X009985Y019489D02*
X009888Y019489D01*
X009875Y019648D02*
X010143Y019648D01*
X010302Y019806D02*
X006195Y019806D01*
X006230Y019786D02*
X005964Y019939D01*
X005668Y020018D01*
X005361Y020018D01*
X005065Y019939D01*
X004800Y019786D01*
X004583Y019569D01*
X004429Y019303D01*
X004350Y019007D01*
X004350Y018701D01*
X004429Y018404D01*
X004583Y018139D01*
X004633Y018089D01*
X004522Y018114D01*
X004414Y018126D01*
X004414Y017083D01*
X005457Y017083D01*
X005444Y017192D01*
X005416Y017315D01*
X005375Y017435D01*
X005320Y017548D01*
X005253Y017655D01*
X005189Y017735D01*
X005361Y017689D01*
X005668Y017689D01*
X005964Y017769D01*
X006230Y017922D01*
X006447Y018139D01*
X006600Y018404D01*
X006679Y018701D01*
X006679Y019007D01*
X006600Y019303D01*
X006447Y019569D01*
X006230Y019786D01*
X006368Y019648D02*
X006943Y019648D01*
X006816Y019489D02*
X006493Y019489D01*
X006584Y019331D02*
X006750Y019331D01*
X006748Y019172D02*
X006635Y019172D01*
X006678Y019014D02*
X006780Y019014D01*
X006857Y018855D02*
X006679Y018855D01*
X006678Y018697D02*
X007032Y018697D01*
X006636Y018538D02*
X008061Y018538D01*
X008061Y018380D02*
X006586Y018380D01*
X006494Y018221D02*
X008061Y018221D01*
X008061Y018063D02*
X006371Y018063D01*
X006199Y017904D02*
X006715Y017904D01*
X006653Y017746D02*
X005878Y017746D01*
X006366Y017429D02*
X005377Y017429D01*
X005427Y017270D02*
X006207Y017270D01*
X006049Y017112D02*
X005453Y017112D01*
X005457Y016923D02*
X004414Y016923D01*
X004414Y017083D01*
X004254Y017083D01*
X004254Y016923D01*
X004414Y016923D01*
X004414Y015880D01*
X004522Y015893D01*
X004646Y015921D01*
X004765Y015963D01*
X004879Y016017D01*
X004986Y016085D01*
X005084Y016163D01*
X005174Y016253D01*
X005253Y016351D01*
X005320Y016458D01*
X005375Y016572D01*
X005416Y016692D01*
X005444Y016815D01*
X005457Y016923D01*
X005440Y016795D02*
X005732Y016795D01*
X005890Y016953D02*
X004414Y016953D01*
X004414Y016795D02*
X004254Y016795D01*
X004254Y016923D02*
X004254Y015880D01*
X004145Y015893D01*
X004022Y015921D01*
X003903Y015963D01*
X003789Y016017D01*
X003682Y016085D01*
X003583Y016163D01*
X003494Y016253D01*
X003415Y016351D01*
X003348Y016458D01*
X003293Y016572D01*
X003251Y016692D01*
X003223Y016815D01*
X003211Y016923D01*
X004254Y016923D01*
X004254Y016953D02*
X002337Y016953D01*
X002337Y016795D02*
X003228Y016795D01*
X003270Y016636D02*
X002337Y016636D01*
X002337Y016478D02*
X003338Y016478D01*
X003441Y016319D02*
X002337Y016319D01*
X002337Y016161D02*
X003586Y016161D01*
X003820Y016002D02*
X002337Y016002D01*
X002337Y015844D02*
X004781Y015844D01*
X004847Y016002D02*
X004939Y016002D01*
X005081Y016161D02*
X005098Y016161D01*
X005227Y016319D02*
X005256Y016319D01*
X005329Y016478D02*
X005415Y016478D01*
X005397Y016636D02*
X005573Y016636D01*
X006019Y016319D02*
X008061Y016319D01*
X008061Y016478D02*
X006178Y016478D01*
X006336Y016636D02*
X008061Y016636D01*
X008061Y016795D02*
X006495Y016795D01*
X006653Y016953D02*
X008061Y016953D01*
X008061Y017112D02*
X006812Y017112D01*
X006970Y017270D02*
X008061Y017270D01*
X008061Y017429D02*
X007255Y017429D01*
X007371Y017587D02*
X008061Y017587D01*
X008061Y017746D02*
X007371Y017746D01*
X007309Y017904D02*
X008061Y017904D01*
X008601Y017904D02*
X009359Y017904D01*
X009517Y018063D02*
X008601Y018063D01*
X008601Y018221D02*
X009676Y018221D01*
X009739Y018285D02*
X008788Y017333D01*
X008662Y017333D01*
X008601Y017272D01*
X008601Y018679D01*
X008672Y018708D01*
X008788Y018824D01*
X008788Y018814D01*
X008800Y018769D01*
X008824Y018728D01*
X008857Y018694D01*
X008898Y018670D01*
X008944Y018658D01*
X009318Y018658D01*
X009318Y019188D01*
X009358Y019188D01*
X009358Y018658D01*
X009731Y018658D01*
X009739Y018660D01*
X009739Y018285D01*
X009739Y018380D02*
X008601Y018380D01*
X008601Y018538D02*
X009739Y018538D01*
X009358Y018697D02*
X009318Y018697D01*
X009318Y018855D02*
X009358Y018855D01*
X009358Y019014D02*
X009318Y019014D01*
X009318Y019172D02*
X009358Y019172D01*
X009358Y019331D02*
X009318Y019331D01*
X009318Y019489D02*
X009358Y019489D01*
X009358Y019648D02*
X009318Y019648D01*
X008800Y019648D02*
X008732Y019648D01*
X007943Y019648D02*
X007732Y019648D01*
X007838Y018874D02*
X007838Y018874D01*
X007838Y018874D01*
X007819Y018855D02*
X007857Y018855D01*
X008032Y018697D02*
X007644Y018697D01*
X008644Y018697D02*
X008855Y018697D01*
X008601Y017746D02*
X009200Y017746D01*
X009042Y017587D02*
X008601Y017587D01*
X008601Y017429D02*
X008883Y017429D01*
X008641Y016636D02*
X008601Y016636D01*
X008676Y016161D02*
X008839Y016161D01*
X009318Y016161D02*
X009358Y016161D01*
X009358Y016002D02*
X009318Y016002D01*
X009318Y015844D02*
X009358Y015844D01*
X009358Y015685D02*
X009318Y015685D01*
X009318Y015645D02*
X009358Y015645D01*
X009358Y015115D01*
X009447Y015115D01*
X007740Y013408D01*
X006225Y013408D01*
X007481Y014663D01*
X007522Y014763D01*
X007522Y014870D01*
X007522Y015103D01*
X007672Y015165D01*
X007838Y015331D01*
X007838Y015331D01*
X007838Y015331D01*
X008004Y015165D01*
X008220Y015075D01*
X008455Y015075D01*
X008672Y015165D01*
X008788Y015281D01*
X008788Y015271D01*
X008800Y015225D01*
X008824Y015184D01*
X008857Y015151D01*
X008898Y015127D01*
X008944Y015115D01*
X009318Y015115D01*
X009318Y015645D01*
X009318Y015527D02*
X009358Y015527D01*
X009358Y015368D02*
X009318Y015368D01*
X009318Y015210D02*
X009358Y015210D01*
X009383Y015051D02*
X007522Y015051D01*
X007522Y014893D02*
X009225Y014893D01*
X009066Y014734D02*
X007510Y014734D01*
X007393Y014576D02*
X008908Y014576D01*
X008749Y014417D02*
X007234Y014417D01*
X007076Y014259D02*
X008591Y014259D01*
X008432Y014100D02*
X006917Y014100D01*
X006759Y013942D02*
X008274Y013942D01*
X008115Y013783D02*
X006600Y013783D01*
X006442Y013625D02*
X007957Y013625D01*
X007798Y013466D02*
X006283Y013466D01*
X005837Y013783D02*
X005730Y013783D01*
X005723Y013776D02*
X005884Y013937D01*
X005938Y014067D01*
X006121Y014067D01*
X005702Y013647D01*
X003925Y013647D01*
X003925Y014225D01*
X004871Y015170D01*
X004871Y015040D01*
X005142Y014769D01*
X005078Y014742D01*
X004918Y014582D01*
X004831Y014373D01*
X004831Y014146D01*
X004918Y013937D01*
X005078Y013776D01*
X005287Y013690D01*
X005514Y013690D01*
X005723Y013776D01*
X005886Y013942D02*
X005996Y013942D01*
X005071Y013783D02*
X003925Y013783D01*
X003925Y013942D02*
X004916Y013942D01*
X004850Y014100D02*
X003925Y014100D01*
X003959Y014259D02*
X004831Y014259D01*
X004849Y014417D02*
X004117Y014417D01*
X004276Y014576D02*
X004915Y014576D01*
X005070Y014734D02*
X004434Y014734D01*
X004593Y014893D02*
X005018Y014893D01*
X004871Y015051D02*
X004751Y015051D01*
X004305Y015368D02*
X003568Y015368D01*
X003568Y015259D02*
X003568Y015479D01*
X003258Y015789D01*
X003038Y015789D01*
X002819Y015789D01*
X002508Y015479D01*
X002508Y015259D01*
X003038Y015259D01*
X003038Y015259D01*
X003038Y015789D01*
X003038Y015259D01*
X003038Y015259D01*
X003038Y015259D01*
X003568Y015259D01*
X003568Y015210D02*
X004147Y015210D01*
X003988Y015051D02*
X003568Y015051D01*
X003421Y014893D02*
X003830Y014893D01*
X003671Y014734D02*
X003369Y014734D01*
X002707Y014734D02*
X002337Y014734D01*
X002337Y014576D02*
X002553Y014576D01*
X002487Y014417D02*
X002337Y014417D01*
X002337Y014259D02*
X002469Y014259D01*
X002488Y014100D02*
X002337Y014100D01*
X002337Y013942D02*
X002553Y013942D01*
X002709Y013783D02*
X002337Y013783D01*
X002337Y013625D02*
X003386Y013625D01*
X003386Y013783D02*
X003368Y013783D01*
X003243Y013466D02*
X002337Y013466D01*
X002337Y013308D02*
X003084Y013308D01*
X002926Y013149D02*
X002337Y013149D01*
X002337Y012991D02*
X002767Y012991D01*
X002667Y012832D02*
X002337Y012832D01*
X002337Y012674D02*
X002666Y012674D01*
X002666Y012515D02*
X002337Y012515D01*
X002337Y012357D02*
X002666Y012357D01*
X002666Y012198D02*
X002337Y012198D01*
X002337Y012040D02*
X002702Y012040D01*
X002853Y011881D02*
X002337Y011881D01*
X002337Y011723D02*
X002815Y011723D01*
X002470Y011564D02*
X002337Y011564D01*
X003964Y011892D02*
X003977Y011892D01*
X004197Y011983D01*
X004357Y012143D01*
X004518Y011983D01*
X004738Y011892D01*
X004977Y011892D01*
X005197Y011983D01*
X005357Y012143D01*
X005518Y011983D01*
X005738Y011892D01*
X005977Y011892D01*
X006197Y011983D01*
X006357Y012143D01*
X006518Y011983D01*
X006738Y011892D01*
X006977Y011892D01*
X007197Y011983D01*
X007357Y012143D01*
X007518Y011983D01*
X007738Y011892D01*
X007977Y011892D01*
X008197Y011983D01*
X008357Y012143D01*
X008518Y011983D01*
X008738Y011892D01*
X008977Y011892D01*
X009131Y011956D01*
X009560Y011527D01*
X009506Y011542D01*
X009169Y011542D01*
X008844Y011454D01*
X008552Y011286D01*
X008313Y011048D01*
X008145Y010756D01*
X008058Y010430D01*
X008058Y010093D01*
X008145Y009768D01*
X008313Y009476D01*
X008552Y009237D01*
X008844Y009069D01*
X009169Y008982D01*
X009506Y008982D01*
X009832Y009069D01*
X010124Y009237D01*
X010362Y009476D01*
X010530Y009768D01*
X010618Y010093D01*
X010618Y010430D01*
X010603Y010484D01*
X010696Y010392D01*
X010795Y010351D01*
X015112Y010351D01*
X014412Y009650D01*
X014336Y009574D01*
X014295Y009475D01*
X014295Y008289D01*
X014336Y008190D01*
X015175Y007351D01*
X015251Y007275D01*
X015292Y007258D01*
X015349Y007120D01*
X015509Y006960D01*
X015363Y006814D01*
X009042Y006814D01*
X003964Y011892D01*
X003975Y011881D02*
X009206Y011881D01*
X009365Y011723D02*
X004134Y011723D01*
X004292Y011564D02*
X009523Y011564D01*
X009974Y011876D02*
X009977Y011876D01*
X010197Y011967D01*
X010357Y012128D01*
X010518Y011967D01*
X010738Y011876D01*
X010977Y011876D01*
X011197Y011967D01*
X011357Y012128D01*
X011518Y011967D01*
X011738Y011876D01*
X011977Y011876D01*
X012197Y011967D01*
X012357Y012128D01*
X012518Y011967D01*
X012738Y011876D01*
X012977Y011876D01*
X013197Y011967D01*
X013366Y012136D01*
X013383Y012177D01*
X013430Y012111D01*
X013492Y012049D01*
X013564Y011997D01*
X013642Y011957D01*
X013726Y011930D01*
X013813Y011916D01*
X013819Y011916D01*
X013819Y011671D01*
X014030Y011460D01*
X014058Y011460D01*
X014055Y011454D01*
X014055Y011448D01*
X014053Y011442D01*
X014055Y011394D01*
X014055Y011219D01*
X013966Y011130D01*
X013966Y010890D01*
X010960Y010890D01*
X009974Y011876D01*
X009988Y011881D02*
X010726Y011881D01*
X010988Y011881D02*
X011726Y011881D01*
X011988Y011881D02*
X012726Y011881D01*
X012988Y011881D02*
X013819Y011881D01*
X013819Y011723D02*
X010128Y011723D01*
X010286Y011564D02*
X013926Y011564D01*
X014055Y011406D02*
X010445Y011406D01*
X010603Y011247D02*
X014055Y011247D01*
X013966Y011089D02*
X010762Y011089D01*
X010920Y010930D02*
X013966Y010930D01*
X014595Y011219D02*
X014595Y011296D01*
X014653Y011360D01*
X014673Y011360D01*
X014609Y011295D01*
X014609Y011206D01*
X014595Y011219D01*
X014595Y011247D02*
X014609Y011247D01*
X014684Y010922D02*
X014716Y010890D01*
X014684Y010890D01*
X014684Y010922D01*
X015333Y011416D02*
X015354Y011438D01*
X015465Y011546D01*
X015594Y011546D01*
X015730Y011683D01*
X015730Y011449D01*
X015695Y011416D01*
X015333Y011416D01*
X015612Y011564D02*
X015730Y011564D01*
X014839Y012457D02*
X013876Y012457D01*
X013876Y012494D01*
X014417Y012494D01*
X014839Y012494D01*
X014839Y012457D01*
X014357Y012224D02*
X014378Y012182D01*
X014430Y012111D01*
X014452Y012089D01*
X014416Y012089D01*
X014330Y012174D01*
X014336Y012182D01*
X014357Y012224D01*
X014344Y012198D02*
X014370Y012198D01*
X014357Y012728D02*
X014336Y012769D01*
X014284Y012841D01*
X014257Y012868D01*
X014458Y012868D01*
X014430Y012841D01*
X014378Y012769D01*
X014357Y012728D01*
X014291Y012832D02*
X014424Y012832D01*
X013458Y012868D02*
X013430Y012841D01*
X013383Y012775D01*
X013366Y012816D01*
X013313Y012868D01*
X013458Y012868D01*
X013424Y012832D02*
X013349Y012832D01*
X013269Y012040D02*
X013505Y012040D01*
X012445Y012040D02*
X012269Y012040D01*
X011445Y012040D02*
X011269Y012040D01*
X011357Y012824D02*
X011197Y012984D01*
X010977Y013076D01*
X010738Y013076D01*
X010518Y012984D01*
X010357Y012824D01*
X010197Y012984D01*
X009977Y013076D01*
X009738Y013076D01*
X009518Y012984D01*
X009365Y012832D01*
X009365Y012832D01*
X009197Y013000D01*
X008977Y013091D01*
X008906Y013091D01*
X009162Y013348D01*
X011989Y013348D01*
X011928Y013287D01*
X011928Y013076D01*
X011738Y013076D01*
X011518Y012984D01*
X011357Y012824D01*
X011349Y012832D02*
X011365Y012832D01*
X011533Y012991D02*
X011182Y012991D01*
X010533Y012991D02*
X010182Y012991D01*
X010349Y012832D02*
X010365Y012832D01*
X009533Y012991D02*
X009207Y012991D01*
X008963Y013149D02*
X011928Y013149D01*
X011949Y013308D02*
X009122Y013308D01*
X009037Y013942D02*
X012301Y013942D01*
X012142Y014100D02*
X009195Y014100D01*
X009354Y014259D02*
X011984Y014259D01*
X011825Y014417D02*
X009512Y014417D01*
X008809Y015210D02*
X008716Y015210D01*
X007959Y015210D02*
X007716Y015210D01*
X006982Y015051D02*
X006685Y015051D01*
X006844Y014893D02*
X006947Y014893D01*
X006959Y015210D02*
X005931Y015210D01*
X005931Y015368D02*
X006822Y015368D01*
X006757Y015527D02*
X005883Y015527D01*
X005724Y015685D02*
X006748Y015685D01*
X006773Y015844D02*
X005544Y015844D01*
X005702Y016002D02*
X006841Y016002D01*
X006999Y016161D02*
X005861Y016161D01*
X004622Y015685D02*
X003362Y015685D01*
X003521Y015527D02*
X004464Y015527D01*
X004414Y016002D02*
X004254Y016002D01*
X004254Y016161D02*
X004414Y016161D01*
X004414Y016319D02*
X004254Y016319D01*
X004254Y016478D02*
X004414Y016478D01*
X004414Y016636D02*
X004254Y016636D01*
X004254Y017083D02*
X003211Y017083D01*
X003223Y017192D01*
X003251Y017315D01*
X003293Y017435D01*
X003348Y017548D01*
X003415Y017655D01*
X003494Y017754D01*
X003514Y017775D01*
X003504Y017771D01*
X003381Y017743D01*
X003272Y017731D01*
X003272Y018774D01*
X004315Y018774D01*
X004303Y018665D01*
X004275Y018542D01*
X004233Y018423D01*
X004178Y018309D01*
X004111Y018202D01*
X004032Y018103D01*
X004011Y018082D01*
X004022Y018086D01*
X004145Y018114D01*
X004254Y018126D01*
X004254Y017083D01*
X004254Y017112D02*
X004414Y017112D01*
X004414Y017270D02*
X004254Y017270D01*
X004254Y017429D02*
X004414Y017429D01*
X004414Y017587D02*
X004254Y017587D01*
X004254Y017746D02*
X004414Y017746D01*
X004414Y017904D02*
X004254Y017904D01*
X004254Y018063D02*
X004414Y018063D01*
X004535Y018221D02*
X004123Y018221D01*
X004212Y018380D02*
X004444Y018380D01*
X004394Y018538D02*
X004273Y018538D01*
X004306Y018697D02*
X004351Y018697D01*
X004350Y018855D02*
X003272Y018855D01*
X003272Y018934D02*
X004315Y018934D01*
X004303Y019043D01*
X004275Y019166D01*
X004233Y019285D01*
X004178Y019399D01*
X004111Y019506D01*
X004032Y019605D01*
X003943Y019694D01*
X003844Y019773D01*
X003737Y019840D01*
X003623Y019895D01*
X003504Y019936D01*
X003381Y019965D01*
X005160Y019965D01*
X004835Y019806D02*
X003791Y019806D01*
X003989Y019648D02*
X004661Y019648D01*
X004537Y019489D02*
X004121Y019489D01*
X004211Y019331D02*
X004445Y019331D01*
X004394Y019172D02*
X004272Y019172D01*
X004306Y019014D02*
X004352Y019014D01*
X003272Y019014D02*
X003112Y019014D01*
X003112Y019172D02*
X003272Y019172D01*
X003272Y019331D02*
X003112Y019331D01*
X003112Y019489D02*
X003272Y019489D01*
X003272Y019648D02*
X003112Y019648D01*
X003112Y019806D02*
X003272Y019806D01*
X003272Y019965D02*
X003112Y019965D01*
X003003Y019965D02*
X002880Y019936D01*
X002761Y019895D01*
X002647Y019840D01*
X002540Y019773D01*
X002441Y019694D01*
X002352Y019605D01*
X002337Y019586D01*
X002337Y020303D01*
X002337Y019806D02*
X002593Y019806D01*
X002395Y019648D02*
X002337Y019648D01*
X003272Y019977D02*
X003272Y018934D01*
X003272Y018697D02*
X003112Y018697D01*
X003112Y018538D02*
X003272Y018538D01*
X003272Y018380D02*
X003112Y018380D01*
X003112Y018221D02*
X003272Y018221D01*
X003272Y018063D02*
X003112Y018063D01*
X003112Y017904D02*
X003272Y017904D01*
X003272Y017746D02*
X003112Y017746D01*
X002992Y017746D02*
X002337Y017746D01*
X002337Y017904D02*
X002589Y017904D01*
X002392Y018063D02*
X002337Y018063D01*
X002337Y017587D02*
X003372Y017587D01*
X003391Y017746D02*
X003487Y017746D01*
X003291Y017429D02*
X002337Y017429D01*
X002337Y017270D02*
X003241Y017270D01*
X003214Y017112D02*
X002337Y017112D01*
X002337Y015685D02*
X002715Y015685D01*
X002556Y015527D02*
X002337Y015527D01*
X002337Y015368D02*
X002508Y015368D01*
X002508Y015210D02*
X002337Y015210D01*
X002337Y015051D02*
X002508Y015051D01*
X002656Y014893D02*
X002337Y014893D01*
X003038Y015368D02*
X003038Y015368D01*
X003038Y015527D02*
X003038Y015527D01*
X003038Y015685D02*
X003038Y015685D01*
X005732Y014734D02*
X006174Y014734D01*
X006221Y014893D02*
X005783Y014893D01*
X005931Y015051D02*
X006380Y015051D01*
X007834Y016002D02*
X007841Y016002D01*
X007999Y016161D02*
X007676Y016161D01*
X006524Y017587D02*
X005295Y017587D01*
X005869Y019965D02*
X010460Y019965D01*
X011040Y019781D02*
X011799Y020541D01*
X020021Y020541D01*
X019960Y020479D01*
X019960Y020182D01*
X020021Y020121D01*
X011514Y020121D01*
X011415Y020080D01*
X011339Y020004D01*
X011093Y019758D01*
X011040Y019781D01*
X011065Y019806D02*
X011141Y019806D01*
X011223Y019965D02*
X011299Y019965D01*
X011382Y020123D02*
X020019Y020123D01*
X019960Y020282D02*
X011540Y020282D01*
X011699Y020440D02*
X019960Y020440D01*
X018507Y019582D02*
X018468Y019542D01*
X018467Y019542D01*
X018428Y019582D01*
X018507Y019582D01*
X018468Y019542D02*
X018468Y019542D01*
X018468Y018874D02*
X018468Y018874D01*
X018539Y018802D01*
X018396Y018802D01*
X018467Y018874D01*
X018468Y018874D01*
X018487Y018855D02*
X018448Y018855D01*
X017539Y018802D02*
X016971Y018802D01*
X016974Y018814D01*
X016974Y019188D01*
X016444Y019188D01*
X016444Y019228D01*
X016974Y019228D01*
X016974Y019582D01*
X017507Y019582D01*
X017468Y019542D01*
X017378Y019325D01*
X017378Y019091D01*
X017468Y018874D01*
X017539Y018802D01*
X017487Y018855D02*
X016974Y018855D01*
X016974Y019014D02*
X017410Y019014D01*
X017378Y019172D02*
X016974Y019172D01*
X016974Y019331D02*
X017380Y019331D01*
X017446Y019489D02*
X016974Y019489D01*
X015775Y018380D02*
X015536Y018618D01*
X015307Y018618D01*
X015113Y018699D01*
X014793Y018380D01*
X014952Y018538D02*
X015616Y018538D01*
X015118Y018697D02*
X015110Y018697D01*
X013996Y018802D02*
X013428Y018802D01*
X013431Y018814D01*
X013431Y019188D01*
X012901Y019188D01*
X012901Y019228D01*
X013431Y019228D01*
X013431Y019582D01*
X013964Y019582D01*
X013924Y019542D01*
X013834Y019325D01*
X013834Y019091D01*
X013924Y018874D01*
X013996Y018802D01*
X013943Y018855D02*
X013431Y018855D01*
X013431Y019014D02*
X013866Y019014D01*
X013834Y019172D02*
X013431Y019172D01*
X013431Y019331D02*
X013837Y019331D01*
X013902Y019489D02*
X013431Y019489D01*
X014885Y019582D02*
X014924Y019542D01*
X014924Y019542D01*
X014924Y019542D01*
X014964Y019582D01*
X014885Y019582D01*
X011619Y021074D02*
X006764Y021074D01*
X006606Y020916D02*
X011411Y020916D01*
X011253Y020757D02*
X006447Y020757D01*
X006289Y020599D02*
X011094Y020599D01*
X010936Y020440D02*
X006130Y020440D01*
X003381Y019965D02*
X003272Y019977D01*
X011187Y018697D02*
X011575Y018697D01*
X011400Y018855D02*
X011362Y018855D01*
X011381Y018874D02*
X011381Y018874D01*
X011381Y018874D01*
X011070Y016225D02*
X011692Y016225D01*
X011547Y016165D01*
X011381Y015999D01*
X011381Y015999D01*
X011215Y016165D01*
X011070Y016225D01*
X011219Y016161D02*
X011543Y016161D01*
X011384Y016002D02*
X011378Y016002D01*
X011381Y015999D02*
X011381Y015999D01*
X007386Y012868D02*
X007357Y012840D01*
X007329Y012868D01*
X007386Y012868D01*
X006386Y012868D02*
X006357Y012840D01*
X006329Y012868D01*
X006386Y012868D01*
X005162Y013108D02*
X005096Y013042D01*
X004977Y013091D01*
X004738Y013091D01*
X004518Y013000D01*
X004357Y012840D01*
X004197Y013000D01*
X003986Y013087D01*
X004007Y013108D01*
X005162Y013108D01*
X004508Y012991D02*
X004207Y012991D01*
X004253Y012040D02*
X004461Y012040D01*
X005253Y012040D02*
X005461Y012040D01*
X006253Y012040D02*
X006461Y012040D01*
X007253Y012040D02*
X007461Y012040D01*
X008253Y012040D02*
X008461Y012040D01*
X008759Y011406D02*
X004451Y011406D01*
X004609Y011247D02*
X008513Y011247D01*
X008354Y011089D02*
X004768Y011089D01*
X004926Y010930D02*
X008245Y010930D01*
X008154Y010772D02*
X005085Y010772D01*
X005243Y010613D02*
X008107Y010613D01*
X008064Y010455D02*
X005402Y010455D01*
X005560Y010296D02*
X008058Y010296D01*
X008058Y010138D02*
X005719Y010138D01*
X005877Y009979D02*
X008088Y009979D01*
X008131Y009821D02*
X006036Y009821D01*
X006194Y009662D02*
X008206Y009662D01*
X008297Y009504D02*
X006353Y009504D01*
X006511Y009345D02*
X008444Y009345D01*
X008640Y009187D02*
X006670Y009187D01*
X006828Y009028D02*
X008996Y009028D01*
X009679Y009028D02*
X014295Y009028D01*
X014295Y008870D02*
X006987Y008870D01*
X007145Y008711D02*
X014295Y008711D01*
X014295Y008553D02*
X007304Y008553D01*
X007462Y008394D02*
X014295Y008394D01*
X014317Y008236D02*
X007621Y008236D01*
X007779Y008077D02*
X014449Y008077D01*
X014607Y007919D02*
X007938Y007919D01*
X008096Y007760D02*
X014766Y007760D01*
X014924Y007602D02*
X008255Y007602D01*
X008413Y007443D02*
X015083Y007443D01*
X015241Y007285D02*
X008572Y007285D01*
X008730Y007126D02*
X015346Y007126D01*
X015502Y006968D02*
X008889Y006968D01*
X007231Y007503D02*
X007223Y007503D01*
X007231Y007503D02*
X003865Y010869D01*
X003865Y010676D01*
X003732Y010355D01*
X003486Y010109D01*
X003172Y009979D01*
X003514Y010138D02*
X004596Y010138D01*
X004438Y010296D02*
X003673Y010296D01*
X003773Y010455D02*
X004279Y010455D01*
X004121Y010613D02*
X003839Y010613D01*
X003865Y010772D02*
X003962Y010772D01*
X002677Y010034D02*
X002518Y009969D01*
X002349Y009800D01*
X002337Y009772D01*
X002337Y010268D01*
X002496Y010109D01*
X002677Y010034D01*
X002543Y009979D02*
X002337Y009979D01*
X002337Y009821D02*
X002369Y009821D01*
X002337Y010138D02*
X002468Y010138D01*
X002337Y009148D02*
X002349Y009120D01*
X002509Y008960D01*
X002349Y008800D01*
X002337Y008772D01*
X002337Y009148D01*
X002337Y009028D02*
X002441Y009028D01*
X002418Y008870D02*
X002337Y008870D01*
X002337Y008148D02*
X002349Y008120D01*
X002509Y007960D01*
X002349Y007800D01*
X002337Y007772D01*
X002337Y008148D01*
X002337Y008077D02*
X002392Y008077D01*
X002337Y007919D02*
X002467Y007919D01*
X003417Y008244D02*
X003457Y008341D01*
X003457Y008519D01*
X003506Y008471D01*
X003506Y008155D01*
X003417Y008244D01*
X003425Y008236D02*
X003506Y008236D01*
X003506Y008394D02*
X003457Y008394D01*
X002337Y007148D02*
X002349Y007120D01*
X002509Y006960D01*
X002349Y006800D01*
X002337Y006772D01*
X002337Y007148D01*
X002337Y007126D02*
X002346Y007126D01*
X002337Y006968D02*
X002502Y006968D01*
X002358Y006809D02*
X002337Y006809D01*
X002337Y006148D02*
X002349Y006120D01*
X002509Y005960D01*
X002349Y005800D01*
X002337Y005772D01*
X002337Y006148D01*
X002337Y006017D02*
X002453Y006017D01*
X002407Y005858D02*
X002337Y005858D01*
X002337Y005148D02*
X002349Y005120D01*
X002509Y004960D01*
X002349Y004800D01*
X002337Y004772D01*
X002337Y005148D01*
X002337Y005066D02*
X002404Y005066D01*
X002456Y004907D02*
X002337Y004907D01*
X002337Y004148D02*
X002349Y004120D01*
X002509Y003960D01*
X002349Y003800D01*
X002337Y003772D01*
X002337Y004148D01*
X002337Y004115D02*
X002355Y004115D01*
X002337Y003956D02*
X002505Y003956D01*
X002348Y003798D02*
X002337Y003798D01*
X002337Y003005D02*
X002464Y003005D01*
X006151Y001420D02*
X009477Y001420D01*
X009636Y001262D02*
X006310Y001262D01*
X006468Y001103D02*
X009794Y001103D01*
X009953Y000945D02*
X006627Y000945D01*
X007178Y002847D02*
X007206Y002847D01*
X007778Y002847D02*
X008051Y002847D01*
X007892Y003005D02*
X007851Y003005D01*
X009318Y003639D02*
X009358Y003639D01*
X009358Y003582D02*
X009375Y003582D01*
X009450Y003594D01*
X009522Y003617D01*
X009589Y003651D01*
X009650Y003696D01*
X009704Y003749D01*
X009748Y003810D01*
X009782Y003877D01*
X009806Y003949D01*
X009818Y004024D01*
X009818Y004342D01*
X009358Y004342D01*
X009358Y003582D01*
X009565Y003639D02*
X010025Y003639D01*
X009884Y003798D02*
X009739Y003798D01*
X009807Y003956D02*
X009819Y003956D01*
X009818Y004115D02*
X009818Y004115D01*
X009818Y004273D02*
X009818Y004273D01*
X009818Y004432D02*
X009818Y004432D01*
X009818Y004556D02*
X009818Y004556D01*
X009358Y004273D02*
X009318Y004273D01*
X009318Y004115D02*
X009358Y004115D01*
X009358Y003956D02*
X009318Y003956D01*
X009318Y003798D02*
X009358Y003798D01*
X015185Y008104D02*
X015419Y007870D01*
X015509Y007960D01*
X015349Y008120D01*
X015308Y008219D01*
X015193Y008104D01*
X015185Y008104D01*
X015212Y008077D02*
X015392Y008077D01*
X015370Y007919D02*
X015467Y007919D01*
X016205Y007960D02*
X016333Y007833D01*
X016333Y008088D01*
X016205Y007960D01*
X016247Y007919D02*
X016333Y007919D01*
X016322Y008077D02*
X016333Y008077D01*
X016333Y008833D02*
X016205Y008960D01*
X016333Y009088D01*
X016333Y008833D01*
X016333Y008870D02*
X016296Y008870D01*
X016273Y009028D02*
X016333Y009028D01*
X015509Y008960D02*
X015349Y008800D01*
X015314Y008716D01*
X015314Y009204D01*
X015349Y009120D01*
X015509Y008960D01*
X015441Y009028D02*
X015314Y009028D01*
X015314Y008870D02*
X015418Y008870D01*
X015321Y009187D02*
X015314Y009187D01*
X014582Y009821D02*
X010545Y009821D01*
X010587Y009979D02*
X014741Y009979D01*
X014899Y010138D02*
X010618Y010138D01*
X010618Y010296D02*
X015058Y010296D01*
X014424Y009662D02*
X010469Y009662D01*
X010378Y009504D02*
X014307Y009504D01*
X014295Y009345D02*
X010231Y009345D01*
X010035Y009187D02*
X014295Y009187D01*
X016333Y007088D02*
X016205Y006960D01*
X016333Y006833D01*
X016333Y007088D01*
X016333Y006968D02*
X016213Y006968D01*
X016414Y004237D02*
X016431Y004237D01*
X016402Y004207D01*
X016414Y004237D01*
X010633Y010455D02*
X010611Y010455D01*
X010445Y012040D02*
X010269Y012040D01*
X017121Y016478D02*
X018731Y016478D01*
X018731Y016636D02*
X016963Y016636D01*
X017280Y016319D02*
X018731Y016319D01*
X018629Y016161D02*
X018306Y016161D01*
X018464Y016002D02*
X018471Y016002D01*
X019306Y016161D02*
X019469Y016161D01*
X019439Y015210D02*
X019346Y015210D01*
X018589Y015210D02*
X018346Y015210D01*
X017629Y016161D02*
X017438Y016161D01*
X021817Y018697D02*
X022205Y018697D01*
X022030Y018855D02*
X021992Y018855D01*
X022011Y018874D02*
X022011Y018874D01*
X022011Y018874D01*
X025360Y018697D02*
X025748Y018697D01*
X025573Y018855D02*
X025535Y018855D01*
X025554Y018874D02*
X025554Y018874D01*
X026360Y018697D02*
X026571Y018697D01*
X027604Y019172D02*
X027650Y019172D01*
X027604Y019331D02*
X027809Y019331D01*
X027604Y019489D02*
X028075Y019489D01*
X028203Y019648D02*
X027592Y019648D01*
X028096Y018855D02*
X028116Y018855D01*
X028291Y018697D02*
X027938Y018697D01*
X028903Y018697D02*
X029291Y018697D01*
X029116Y018855D02*
X029078Y018855D01*
X029097Y018874D02*
X029097Y018874D01*
X029903Y018697D02*
X030114Y018697D01*
X030577Y018697D02*
X030617Y018697D01*
X030617Y018855D02*
X030577Y018855D01*
X030577Y019014D02*
X030617Y019014D01*
X030617Y019172D02*
X030577Y019172D01*
X030577Y019331D02*
X030617Y019331D01*
X030617Y019489D02*
X030577Y019489D01*
X030577Y019648D02*
X030617Y019648D01*
X030060Y019648D02*
X029992Y019648D01*
X029203Y019648D02*
X028992Y019648D01*
X031080Y018697D02*
X031835Y018697D01*
X031660Y018855D02*
X031147Y018855D01*
X031147Y019014D02*
X031458Y019014D01*
X031286Y019172D02*
X031147Y019172D01*
X031574Y019648D02*
X031746Y019648D01*
X032535Y019648D02*
X032746Y019648D01*
X033535Y019648D02*
X033603Y019648D01*
X032660Y018855D02*
X032622Y018855D01*
X032447Y018697D02*
X032835Y018697D01*
X033447Y018697D02*
X033658Y018697D01*
X033258Y016255D02*
X033023Y016255D01*
X032807Y016165D01*
X032641Y015999D01*
X032641Y015999D01*
X032641Y015999D01*
X032475Y016165D01*
X032258Y016255D01*
X032023Y016255D01*
X031807Y016165D01*
X031641Y015999D01*
X031551Y015782D01*
X031576Y015844D02*
X031147Y015844D01*
X031147Y016002D02*
X031644Y016002D01*
X031802Y016161D02*
X031096Y016161D01*
X032479Y016161D02*
X032802Y016161D01*
X032644Y016002D02*
X032638Y016002D01*
X033258Y016255D02*
X033475Y016165D01*
X033591Y016049D01*
X033591Y016059D01*
X033603Y016104D01*
X033627Y016145D01*
X033660Y016179D01*
X033701Y016203D01*
X033747Y016215D01*
X034121Y016215D01*
X034121Y015685D01*
X034121Y015844D02*
X034161Y015844D01*
X034161Y016002D02*
X034121Y016002D01*
X034121Y016161D02*
X034161Y016161D01*
X033642Y016161D02*
X033479Y016161D01*
X033179Y009504D02*
X035551Y009504D01*
X035551Y009345D02*
X033325Y009345D01*
X033390Y009187D02*
X035551Y009187D01*
X035551Y009028D02*
X033408Y009028D01*
X033395Y008870D02*
X035551Y008870D01*
X035551Y008711D02*
X033330Y008711D01*
X033192Y008553D02*
X035551Y008553D01*
X035551Y002688D02*
X033116Y002688D01*
X033291Y002530D02*
X035551Y002530D01*
X035551Y002371D02*
X033371Y002371D01*
X033408Y002213D02*
X035551Y002213D01*
X035551Y002054D02*
X033408Y002054D01*
X033349Y001896D02*
X035551Y001896D01*
X035551Y001737D02*
X033238Y001737D01*
X032989Y001579D02*
X035551Y001579D01*
X035551Y001420D02*
X028702Y001420D01*
X028771Y001579D02*
X031827Y001579D01*
X031579Y001737D02*
X028799Y001737D01*
X028796Y001896D02*
X031468Y001896D01*
X031409Y002054D02*
X028730Y002054D01*
X028544Y001262D02*
X035455Y001262D01*
M02*
