G75*
%MOIN*%
%OFA0B0*%
%FSLAX24Y24*%
%IPPOS*%
%LPD*%
%AMOC8*
5,1,8,0,0,1.08239X$1,22.5*
%
%ADD10C,0.0060*%
%ADD11C,0.0040*%
%ADD12C,0.0030*%
%ADD13C,0.0000*%
%ADD14C,0.0004*%
%ADD15R,0.0079X0.0079*%
%ADD16R,0.0059X0.0098*%
%ADD17C,0.0050*%
%ADD18C,0.0024*%
%ADD19C,0.0120*%
%ADD20C,0.0020*%
%ADD21R,0.0500X0.0350*%
%ADD22C,0.0160*%
D10*
X007288Y005559D02*
X007288Y010459D01*
X007638Y010459D01*
X007638Y011059D01*
X007288Y011059D01*
X007288Y011809D01*
X011388Y011809D01*
X011388Y011059D01*
X011038Y011059D01*
X011038Y010459D01*
X011388Y010459D01*
X011388Y005559D01*
X007288Y005559D01*
X008628Y010459D02*
X008630Y010512D01*
X008636Y010565D01*
X008646Y010617D01*
X008660Y010668D01*
X008677Y010718D01*
X008698Y010767D01*
X008723Y010814D01*
X008751Y010859D01*
X008783Y010902D01*
X008818Y010942D01*
X008855Y010979D01*
X008895Y011014D01*
X008938Y011046D01*
X008983Y011074D01*
X009030Y011099D01*
X009079Y011120D01*
X009129Y011137D01*
X009180Y011151D01*
X009232Y011161D01*
X009285Y011167D01*
X009338Y011169D01*
X009391Y011167D01*
X009444Y011161D01*
X009496Y011151D01*
X009547Y011137D01*
X009597Y011120D01*
X009646Y011099D01*
X009693Y011074D01*
X009738Y011046D01*
X009781Y011014D01*
X009821Y010979D01*
X009858Y010942D01*
X009893Y010902D01*
X009925Y010859D01*
X009953Y010814D01*
X009978Y010767D01*
X009999Y010718D01*
X010016Y010668D01*
X010030Y010617D01*
X010040Y010565D01*
X010046Y010512D01*
X010048Y010459D01*
X010046Y010406D01*
X010040Y010353D01*
X010030Y010301D01*
X010016Y010250D01*
X009999Y010200D01*
X009978Y010151D01*
X009953Y010104D01*
X009925Y010059D01*
X009893Y010016D01*
X009858Y009976D01*
X009821Y009939D01*
X009781Y009904D01*
X009738Y009872D01*
X009693Y009844D01*
X009646Y009819D01*
X009597Y009798D01*
X009547Y009781D01*
X009496Y009767D01*
X009444Y009757D01*
X009391Y009751D01*
X009338Y009749D01*
X009285Y009751D01*
X009232Y009757D01*
X009180Y009767D01*
X009129Y009781D01*
X009079Y009798D01*
X009030Y009819D01*
X008983Y009844D01*
X008938Y009872D01*
X008895Y009904D01*
X008855Y009939D01*
X008818Y009976D01*
X008783Y010016D01*
X008751Y010059D01*
X008723Y010104D01*
X008698Y010151D01*
X008677Y010200D01*
X008660Y010250D01*
X008646Y010301D01*
X008636Y010353D01*
X008630Y010406D01*
X008628Y010459D01*
X005479Y014694D02*
X005479Y014894D01*
X005579Y014794D02*
X005379Y014794D01*
X004379Y015744D02*
X004381Y015810D01*
X004387Y015875D01*
X004397Y015940D01*
X004410Y016005D01*
X004428Y016068D01*
X004449Y016131D01*
X004474Y016191D01*
X004503Y016251D01*
X004535Y016308D01*
X004570Y016364D01*
X004609Y016417D01*
X004651Y016468D01*
X004695Y016516D01*
X004743Y016561D01*
X004793Y016604D01*
X004846Y016643D01*
X004901Y016680D01*
X004958Y016713D01*
X005017Y016742D01*
X005077Y016768D01*
X005139Y016790D01*
X005202Y016809D01*
X005266Y016823D01*
X005331Y016834D01*
X005397Y016841D01*
X005463Y016844D01*
X005528Y016843D01*
X005594Y016838D01*
X005659Y016829D01*
X005724Y016816D01*
X005787Y016800D01*
X005850Y016780D01*
X005911Y016755D01*
X005971Y016728D01*
X006029Y016697D01*
X006085Y016662D01*
X006139Y016624D01*
X006190Y016583D01*
X006239Y016539D01*
X006285Y016492D01*
X006329Y016443D01*
X006369Y016391D01*
X006406Y016336D01*
X006440Y016280D01*
X006470Y016221D01*
X006497Y016161D01*
X006520Y016100D01*
X006539Y016037D01*
X006555Y015973D01*
X006567Y015908D01*
X006575Y015843D01*
X006579Y015777D01*
X006579Y015711D01*
X006575Y015645D01*
X006567Y015580D01*
X006555Y015515D01*
X006539Y015451D01*
X006520Y015388D01*
X006497Y015327D01*
X006470Y015267D01*
X006440Y015208D01*
X006406Y015152D01*
X006369Y015097D01*
X006329Y015045D01*
X006285Y014996D01*
X006239Y014949D01*
X006190Y014905D01*
X006139Y014864D01*
X006085Y014826D01*
X006029Y014791D01*
X005971Y014760D01*
X005911Y014733D01*
X005850Y014708D01*
X005787Y014688D01*
X005724Y014672D01*
X005659Y014659D01*
X005594Y014650D01*
X005528Y014645D01*
X005463Y014644D01*
X005397Y014647D01*
X005331Y014654D01*
X005266Y014665D01*
X005202Y014679D01*
X005139Y014698D01*
X005077Y014720D01*
X005017Y014746D01*
X004958Y014775D01*
X004901Y014808D01*
X004846Y014845D01*
X004793Y014884D01*
X004743Y014927D01*
X004695Y014972D01*
X004651Y015020D01*
X004609Y015071D01*
X004570Y015124D01*
X004535Y015180D01*
X004503Y015237D01*
X004474Y015297D01*
X004449Y015357D01*
X004428Y015420D01*
X004410Y015483D01*
X004397Y015548D01*
X004387Y015613D01*
X004381Y015678D01*
X004379Y015744D01*
X002017Y015783D02*
X002019Y015849D01*
X002025Y015914D01*
X002035Y015979D01*
X002048Y016044D01*
X002066Y016107D01*
X002087Y016170D01*
X002112Y016230D01*
X002141Y016290D01*
X002173Y016347D01*
X002208Y016403D01*
X002247Y016456D01*
X002289Y016507D01*
X002333Y016555D01*
X002381Y016600D01*
X002431Y016643D01*
X002484Y016682D01*
X002539Y016719D01*
X002596Y016752D01*
X002655Y016781D01*
X002715Y016807D01*
X002777Y016829D01*
X002840Y016848D01*
X002904Y016862D01*
X002969Y016873D01*
X003035Y016880D01*
X003101Y016883D01*
X003166Y016882D01*
X003232Y016877D01*
X003297Y016868D01*
X003362Y016855D01*
X003425Y016839D01*
X003488Y016819D01*
X003549Y016794D01*
X003609Y016767D01*
X003667Y016736D01*
X003723Y016701D01*
X003777Y016663D01*
X003828Y016622D01*
X003877Y016578D01*
X003923Y016531D01*
X003967Y016482D01*
X004007Y016430D01*
X004044Y016375D01*
X004078Y016319D01*
X004108Y016260D01*
X004135Y016200D01*
X004158Y016139D01*
X004177Y016076D01*
X004193Y016012D01*
X004205Y015947D01*
X004213Y015882D01*
X004217Y015816D01*
X004217Y015750D01*
X004213Y015684D01*
X004205Y015619D01*
X004193Y015554D01*
X004177Y015490D01*
X004158Y015427D01*
X004135Y015366D01*
X004108Y015306D01*
X004078Y015247D01*
X004044Y015191D01*
X004007Y015136D01*
X003967Y015084D01*
X003923Y015035D01*
X003877Y014988D01*
X003828Y014944D01*
X003777Y014903D01*
X003723Y014865D01*
X003667Y014830D01*
X003609Y014799D01*
X003549Y014772D01*
X003488Y014747D01*
X003425Y014727D01*
X003362Y014711D01*
X003297Y014698D01*
X003232Y014689D01*
X003166Y014684D01*
X003101Y014683D01*
X003035Y014686D01*
X002969Y014693D01*
X002904Y014704D01*
X002840Y014718D01*
X002777Y014737D01*
X002715Y014759D01*
X002655Y014785D01*
X002596Y014814D01*
X002539Y014847D01*
X002484Y014884D01*
X002431Y014923D01*
X002381Y014966D01*
X002333Y015011D01*
X002289Y015059D01*
X002247Y015110D01*
X002208Y015163D01*
X002173Y015219D01*
X002141Y015276D01*
X002112Y015336D01*
X002087Y015396D01*
X002066Y015459D01*
X002048Y015522D01*
X002035Y015587D01*
X002025Y015652D01*
X002019Y015717D01*
X002017Y015783D01*
X003117Y014933D02*
X003117Y014733D01*
X003217Y014833D02*
X003017Y014833D01*
X025434Y012906D02*
X025648Y012693D01*
X025541Y012475D02*
X025434Y012475D01*
X025541Y012475D02*
X025755Y012262D01*
X026075Y012262D01*
X025755Y012262D02*
X025541Y012048D01*
X025434Y012048D01*
X025648Y011831D02*
X026075Y011831D01*
X025755Y011831D02*
X025755Y011404D01*
X025648Y011404D02*
X025434Y011617D01*
X025648Y011831D01*
X025648Y011404D02*
X026075Y011404D01*
X026075Y011186D02*
X026075Y010759D01*
X025434Y010759D01*
X025434Y010541D02*
X025434Y010114D01*
X026075Y010114D01*
X026075Y010541D01*
X025755Y010328D02*
X025755Y010114D01*
X025755Y009897D02*
X025541Y009897D01*
X025434Y009790D01*
X025434Y009470D01*
X026075Y009470D01*
X025861Y009470D02*
X025861Y009790D01*
X025755Y009897D01*
X025861Y009683D02*
X026075Y009897D01*
X030786Y009825D02*
X030821Y009776D01*
X030852Y009724D01*
X030880Y009671D01*
X030905Y009616D01*
X030926Y009560D01*
X030944Y009502D01*
X030958Y009444D01*
X030968Y009384D01*
X030975Y009324D01*
X030978Y009264D01*
X030977Y009204D01*
X030972Y009144D01*
X030964Y009084D01*
X030952Y009025D01*
X030936Y008967D01*
X030916Y008910D01*
X030893Y008854D01*
X030867Y008800D01*
X030837Y008748D01*
X030804Y008697D01*
X030768Y008649D01*
X030708Y008638D02*
X030458Y009838D01*
X030408Y009788D02*
X030658Y008588D01*
X030783Y008665D02*
X030766Y008639D01*
X030747Y008616D01*
X030724Y008596D01*
X030700Y008579D01*
X030673Y008565D01*
X030644Y008554D01*
X030615Y008548D01*
X030585Y008545D01*
X030554Y008546D01*
X030525Y008551D01*
X030496Y008560D01*
X030468Y008573D01*
X030443Y008589D01*
X030419Y008608D01*
X030058Y008418D02*
X030058Y010018D01*
X031058Y010018D01*
X031058Y008418D01*
X030058Y008418D01*
X029958Y008218D02*
X031158Y008218D01*
X031158Y014158D01*
X031758Y014158D01*
X032158Y014158D01*
X032158Y013808D01*
X032308Y013808D02*
X032308Y013958D01*
X034108Y013958D01*
X034108Y012358D01*
X032308Y012358D01*
X032308Y012518D01*
X032158Y012508D02*
X032158Y011848D01*
X032308Y011838D02*
X032308Y011988D01*
X034108Y011988D01*
X034858Y011988D01*
X034858Y012358D01*
X034858Y013958D01*
X034108Y013958D01*
X034008Y014158D02*
X032158Y014158D01*
X031858Y014358D02*
X031758Y014158D01*
X031858Y014358D02*
X029958Y014358D01*
X029958Y014158D01*
X029958Y008218D01*
X029958Y007496D02*
X031858Y007496D01*
X031758Y007296D01*
X031158Y007296D01*
X031158Y001356D01*
X029958Y001356D01*
X029958Y007296D01*
X029958Y007496D01*
X029958Y007296D02*
X031158Y007296D01*
X031058Y007096D02*
X031058Y005496D01*
X030058Y005496D01*
X030058Y007096D01*
X031058Y007096D01*
X030458Y006906D02*
X030708Y005706D01*
X030658Y005656D02*
X030408Y006856D01*
X030419Y006896D02*
X030443Y006915D01*
X030468Y006931D01*
X030496Y006944D01*
X030524Y006954D01*
X030554Y006961D01*
X030584Y006965D01*
X030614Y006965D01*
X030645Y006961D01*
X030674Y006954D01*
X030703Y006944D01*
X030730Y006931D01*
X030756Y006915D01*
X030779Y006896D01*
X030801Y006874D01*
X031758Y007296D02*
X032158Y007296D01*
X032158Y006946D01*
X032308Y006946D02*
X032308Y007096D01*
X034108Y007096D01*
X034108Y005496D01*
X032308Y005496D01*
X032308Y005656D01*
X032158Y005646D02*
X032158Y004986D01*
X032308Y004976D02*
X032308Y005126D01*
X034108Y005126D01*
X034858Y005126D01*
X034858Y005496D01*
X034858Y007096D01*
X034108Y007096D01*
X034008Y007296D02*
X032158Y007296D01*
X032608Y006946D02*
X033858Y006946D01*
X033858Y005646D01*
X032608Y005646D01*
X032608Y004976D02*
X033858Y004976D01*
X033858Y003676D01*
X032608Y003676D01*
X032308Y003676D02*
X032308Y003526D01*
X034108Y003526D01*
X034108Y005126D01*
X034108Y005496D02*
X034858Y005496D01*
X035119Y005759D02*
X035760Y006186D01*
X035119Y006186D01*
X035226Y006404D02*
X035119Y006510D01*
X035119Y006724D01*
X035226Y006831D01*
X035653Y006831D02*
X035760Y006724D01*
X035760Y006510D01*
X035653Y006404D01*
X035226Y006404D01*
X035119Y005759D02*
X035760Y005759D01*
X034858Y005126D02*
X034858Y003526D01*
X034858Y003156D01*
X034858Y001556D01*
X034108Y001556D01*
X034108Y003156D01*
X032308Y003156D01*
X032308Y003006D01*
X032158Y003006D02*
X032158Y003676D01*
X032608Y003006D02*
X033858Y003006D01*
X033858Y001706D01*
X032608Y001706D01*
X032308Y001706D02*
X032308Y001556D01*
X034108Y001556D01*
X034858Y001556D02*
X034858Y001356D01*
X032158Y001356D01*
X032158Y001706D01*
X032158Y001356D02*
X031158Y001356D01*
X031058Y001556D02*
X030058Y001556D01*
X030058Y003156D01*
X031058Y003156D01*
X031058Y001556D01*
X030708Y001776D02*
X030458Y002976D01*
X030408Y002926D02*
X030658Y001726D01*
X030783Y001803D02*
X030766Y001777D01*
X030747Y001754D01*
X030724Y001734D01*
X030700Y001717D01*
X030673Y001703D01*
X030644Y001692D01*
X030615Y001686D01*
X030585Y001683D01*
X030554Y001684D01*
X030525Y001689D01*
X030496Y001698D01*
X030468Y001711D01*
X030443Y001727D01*
X030419Y001746D01*
X030768Y001786D02*
X030804Y001834D01*
X030837Y001885D01*
X030867Y001937D01*
X030893Y001991D01*
X030916Y002047D01*
X030936Y002104D01*
X030952Y002162D01*
X030964Y002221D01*
X030972Y002281D01*
X030977Y002341D01*
X030978Y002401D01*
X030975Y002461D01*
X030968Y002521D01*
X030958Y002581D01*
X030944Y002639D01*
X030926Y002697D01*
X030905Y002753D01*
X030880Y002808D01*
X030852Y002861D01*
X030821Y002913D01*
X030786Y002962D01*
X030801Y002944D02*
X030779Y002966D01*
X030756Y002985D01*
X030730Y003001D01*
X030703Y003014D01*
X030674Y003024D01*
X030645Y003031D01*
X030614Y003035D01*
X030584Y003035D01*
X030554Y003031D01*
X030524Y003024D01*
X030496Y003014D01*
X030468Y003001D01*
X030443Y002985D01*
X030419Y002966D01*
X030058Y003526D02*
X030058Y005126D01*
X031058Y005126D01*
X031058Y003526D01*
X030058Y003526D01*
X030658Y003686D02*
X030408Y004886D01*
X030458Y004936D02*
X030708Y003736D01*
X030783Y003763D02*
X030766Y003737D01*
X030747Y003714D01*
X030724Y003694D01*
X030700Y003677D01*
X030673Y003663D01*
X030644Y003652D01*
X030615Y003646D01*
X030585Y003643D01*
X030554Y003644D01*
X030525Y003649D01*
X030496Y003658D01*
X030468Y003671D01*
X030443Y003687D01*
X030419Y003706D01*
X030768Y003746D02*
X030804Y003794D01*
X030837Y003845D01*
X030867Y003897D01*
X030893Y003951D01*
X030916Y004007D01*
X030936Y004064D01*
X030952Y004122D01*
X030964Y004181D01*
X030972Y004241D01*
X030977Y004301D01*
X030978Y004361D01*
X030975Y004421D01*
X030968Y004481D01*
X030958Y004541D01*
X030944Y004599D01*
X030926Y004657D01*
X030905Y004713D01*
X030880Y004768D01*
X030852Y004821D01*
X030821Y004873D01*
X030786Y004922D01*
X030801Y004904D02*
X030779Y004926D01*
X030756Y004945D01*
X030730Y004961D01*
X030703Y004974D01*
X030674Y004984D01*
X030645Y004991D01*
X030614Y004995D01*
X030584Y004995D01*
X030554Y004991D01*
X030524Y004984D01*
X030496Y004974D01*
X030468Y004961D01*
X030443Y004945D01*
X030419Y004926D01*
X030416Y004928D02*
X030376Y004891D01*
X030339Y004851D01*
X030304Y004809D01*
X030273Y004765D01*
X030244Y004719D01*
X030219Y004671D01*
X030196Y004621D01*
X030178Y004570D01*
X030162Y004518D01*
X030151Y004464D01*
X030143Y004411D01*
X030138Y004356D01*
X030137Y004302D01*
X030140Y004247D01*
X030146Y004193D01*
X030156Y004140D01*
X030170Y004087D01*
X030187Y004036D01*
X030208Y003985D01*
X030231Y003936D01*
X030259Y003889D01*
X030289Y003844D01*
X030322Y003800D01*
X030358Y003760D01*
X030397Y003721D01*
X030438Y003686D01*
X030416Y002968D02*
X030376Y002931D01*
X030339Y002891D01*
X030304Y002849D01*
X030273Y002805D01*
X030244Y002759D01*
X030219Y002711D01*
X030196Y002661D01*
X030178Y002610D01*
X030162Y002558D01*
X030151Y002504D01*
X030143Y002451D01*
X030138Y002396D01*
X030137Y002342D01*
X030140Y002287D01*
X030146Y002233D01*
X030156Y002180D01*
X030170Y002127D01*
X030187Y002076D01*
X030208Y002025D01*
X030231Y001976D01*
X030259Y001929D01*
X030289Y001884D01*
X030322Y001840D01*
X030358Y001800D01*
X030397Y001761D01*
X030438Y001726D01*
X034108Y003156D02*
X034858Y003156D01*
X035187Y002894D02*
X035080Y002787D01*
X035080Y002573D01*
X035187Y002467D01*
X035614Y002467D01*
X035721Y002573D01*
X035721Y002787D01*
X035614Y002894D01*
X035187Y002894D01*
X035080Y002249D02*
X035721Y002249D01*
X035080Y001822D01*
X035721Y001822D01*
X034858Y003526D02*
X034108Y003526D01*
X035119Y004141D02*
X035226Y004034D01*
X035653Y004034D01*
X035760Y004141D01*
X035760Y004354D01*
X035653Y004461D01*
X035226Y004461D02*
X035119Y004354D01*
X035119Y004141D01*
X030438Y005656D02*
X030397Y005691D01*
X030358Y005730D01*
X030322Y005771D01*
X030289Y005814D01*
X030259Y005859D01*
X030231Y005906D01*
X030208Y005955D01*
X030187Y006006D01*
X030170Y006057D01*
X030156Y006110D01*
X030146Y006163D01*
X030140Y006218D01*
X030137Y006272D01*
X030138Y006326D01*
X030143Y006381D01*
X030151Y006434D01*
X030162Y006488D01*
X030178Y006540D01*
X030197Y006591D01*
X030219Y006641D01*
X030244Y006689D01*
X030273Y006735D01*
X030304Y006779D01*
X030339Y006821D01*
X030376Y006861D01*
X030416Y006898D01*
X030786Y006892D02*
X030821Y006843D01*
X030852Y006791D01*
X030880Y006738D01*
X030905Y006683D01*
X030926Y006627D01*
X030944Y006569D01*
X030958Y006511D01*
X030968Y006451D01*
X030975Y006391D01*
X030978Y006331D01*
X030977Y006271D01*
X030972Y006211D01*
X030964Y006151D01*
X030952Y006092D01*
X030936Y006034D01*
X030916Y005977D01*
X030893Y005921D01*
X030867Y005867D01*
X030837Y005815D01*
X030804Y005764D01*
X030768Y005716D01*
X030783Y005733D02*
X030766Y005707D01*
X030747Y005684D01*
X030724Y005664D01*
X030700Y005647D01*
X030673Y005633D01*
X030644Y005622D01*
X030615Y005616D01*
X030585Y005613D01*
X030554Y005614D01*
X030525Y005619D01*
X030496Y005628D01*
X030468Y005641D01*
X030443Y005657D01*
X030419Y005676D01*
X033908Y007496D02*
X034558Y007496D01*
X034458Y007296D01*
X034008Y007296D01*
X033908Y007496D01*
X034458Y007296D02*
X034858Y007296D01*
X034858Y007096D01*
X034858Y008218D02*
X032158Y008218D01*
X032158Y008568D01*
X032308Y008568D02*
X032308Y008418D01*
X034108Y008418D01*
X034858Y008418D01*
X034858Y010018D01*
X034858Y010388D01*
X034858Y011988D01*
X034858Y012358D02*
X034108Y012358D01*
X033858Y012508D02*
X032608Y012508D01*
X032608Y011838D02*
X033858Y011838D01*
X033858Y010538D01*
X032608Y010538D01*
X032308Y010538D02*
X032308Y010388D01*
X034108Y010388D01*
X034108Y011988D01*
X033858Y012508D02*
X033858Y013808D01*
X032608Y013808D01*
X033908Y014358D02*
X034558Y014358D01*
X034458Y014158D01*
X034008Y014158D01*
X033908Y014358D01*
X034458Y014158D02*
X034858Y014158D01*
X034858Y013958D01*
X035119Y013614D02*
X035119Y013400D01*
X035226Y013293D01*
X035653Y013293D01*
X035760Y013400D01*
X035760Y013614D01*
X035653Y013720D01*
X035226Y013720D02*
X035119Y013614D01*
X035119Y013076D02*
X035760Y013076D01*
X035119Y012649D01*
X035760Y012649D01*
X035653Y011390D02*
X035760Y011283D01*
X035760Y011070D01*
X035653Y010963D01*
X035226Y010963D01*
X035119Y011070D01*
X035119Y011283D01*
X035226Y011390D01*
X034858Y010388D02*
X034108Y010388D01*
X034108Y010018D02*
X032308Y010018D01*
X032308Y009868D01*
X032158Y009868D02*
X032158Y010538D01*
X031058Y010388D02*
X031058Y011988D01*
X030058Y011988D01*
X030058Y010388D01*
X031058Y010388D01*
X030708Y010598D02*
X030458Y011798D01*
X030408Y011748D02*
X030658Y010548D01*
X030783Y010625D02*
X030766Y010599D01*
X030747Y010576D01*
X030724Y010556D01*
X030700Y010539D01*
X030673Y010525D01*
X030644Y010514D01*
X030615Y010508D01*
X030585Y010505D01*
X030554Y010506D01*
X030525Y010511D01*
X030496Y010520D01*
X030468Y010533D01*
X030443Y010549D01*
X030419Y010568D01*
X030438Y010549D02*
X030397Y010584D01*
X030358Y010623D01*
X030322Y010663D01*
X030289Y010707D01*
X030259Y010752D01*
X030231Y010799D01*
X030208Y010848D01*
X030187Y010899D01*
X030170Y010950D01*
X030156Y011003D01*
X030146Y011056D01*
X030140Y011110D01*
X030137Y011165D01*
X030138Y011219D01*
X030143Y011274D01*
X030151Y011327D01*
X030162Y011381D01*
X030178Y011433D01*
X030196Y011484D01*
X030219Y011534D01*
X030244Y011582D01*
X030273Y011628D01*
X030304Y011672D01*
X030339Y011714D01*
X030376Y011754D01*
X030416Y011791D01*
X030419Y011788D02*
X030443Y011807D01*
X030468Y011823D01*
X030496Y011836D01*
X030524Y011846D01*
X030554Y011853D01*
X030584Y011857D01*
X030614Y011857D01*
X030645Y011853D01*
X030674Y011846D01*
X030703Y011836D01*
X030730Y011823D01*
X030756Y011807D01*
X030779Y011788D01*
X030801Y011766D01*
X031058Y012358D02*
X030058Y012358D01*
X030058Y013958D01*
X031058Y013958D01*
X031058Y012358D01*
X030708Y012568D02*
X030458Y013768D01*
X030408Y013718D02*
X030658Y012518D01*
X030783Y012595D02*
X030766Y012569D01*
X030747Y012546D01*
X030724Y012526D01*
X030700Y012509D01*
X030673Y012495D01*
X030644Y012484D01*
X030615Y012478D01*
X030585Y012475D01*
X030554Y012476D01*
X030525Y012481D01*
X030496Y012490D01*
X030468Y012503D01*
X030443Y012519D01*
X030419Y012538D01*
X030438Y012518D02*
X030397Y012553D01*
X030358Y012592D01*
X030322Y012633D01*
X030289Y012676D01*
X030259Y012721D01*
X030231Y012768D01*
X030208Y012817D01*
X030187Y012868D01*
X030170Y012919D01*
X030156Y012972D01*
X030146Y013025D01*
X030140Y013080D01*
X030137Y013134D01*
X030138Y013188D01*
X030143Y013243D01*
X030151Y013296D01*
X030162Y013350D01*
X030178Y013402D01*
X030197Y013453D01*
X030219Y013503D01*
X030244Y013551D01*
X030273Y013597D01*
X030304Y013641D01*
X030339Y013683D01*
X030376Y013723D01*
X030416Y013760D01*
X030419Y013758D02*
X030443Y013777D01*
X030468Y013793D01*
X030496Y013806D01*
X030524Y013816D01*
X030554Y013823D01*
X030584Y013827D01*
X030614Y013827D01*
X030645Y013823D01*
X030674Y013816D01*
X030703Y013806D01*
X030730Y013793D01*
X030756Y013777D01*
X030779Y013758D01*
X030801Y013736D01*
X031158Y014158D02*
X029958Y014158D01*
X030786Y013754D02*
X030821Y013705D01*
X030852Y013653D01*
X030880Y013600D01*
X030905Y013545D01*
X030926Y013489D01*
X030944Y013431D01*
X030958Y013373D01*
X030968Y013313D01*
X030975Y013253D01*
X030978Y013193D01*
X030977Y013133D01*
X030972Y013073D01*
X030964Y013013D01*
X030952Y012954D01*
X030936Y012896D01*
X030916Y012839D01*
X030893Y012783D01*
X030867Y012729D01*
X030837Y012677D01*
X030804Y012626D01*
X030768Y012578D01*
X030786Y011784D02*
X030821Y011735D01*
X030852Y011683D01*
X030880Y011630D01*
X030905Y011575D01*
X030926Y011519D01*
X030944Y011461D01*
X030958Y011403D01*
X030968Y011343D01*
X030975Y011283D01*
X030978Y011223D01*
X030977Y011163D01*
X030972Y011103D01*
X030964Y011043D01*
X030952Y010984D01*
X030936Y010926D01*
X030916Y010869D01*
X030893Y010813D01*
X030867Y010759D01*
X030837Y010707D01*
X030804Y010656D01*
X030768Y010608D01*
X030801Y009806D02*
X030779Y009828D01*
X030756Y009847D01*
X030730Y009863D01*
X030703Y009876D01*
X030674Y009886D01*
X030645Y009893D01*
X030614Y009897D01*
X030584Y009897D01*
X030554Y009893D01*
X030524Y009886D01*
X030496Y009876D01*
X030468Y009863D01*
X030443Y009847D01*
X030419Y009828D01*
X030416Y009831D02*
X030376Y009794D01*
X030339Y009754D01*
X030304Y009712D01*
X030273Y009668D01*
X030244Y009622D01*
X030219Y009574D01*
X030196Y009524D01*
X030178Y009473D01*
X030162Y009421D01*
X030151Y009367D01*
X030143Y009314D01*
X030138Y009259D01*
X030137Y009205D01*
X030140Y009150D01*
X030146Y009096D01*
X030156Y009043D01*
X030170Y008990D01*
X030187Y008939D01*
X030208Y008888D01*
X030231Y008839D01*
X030259Y008792D01*
X030289Y008747D01*
X030322Y008703D01*
X030358Y008663D01*
X030397Y008624D01*
X030438Y008589D01*
X031158Y008218D02*
X032158Y008218D01*
X032608Y008568D02*
X033858Y008568D01*
X033858Y009868D01*
X032608Y009868D01*
X034108Y010018D02*
X034108Y008418D01*
X034858Y008418D02*
X034858Y008218D01*
X035080Y008672D02*
X035721Y009099D01*
X035080Y009099D01*
X035187Y009317D02*
X035080Y009424D01*
X035080Y009637D01*
X035187Y009744D01*
X035614Y009744D01*
X035721Y009637D01*
X035721Y009424D01*
X035614Y009317D01*
X035187Y009317D01*
X035080Y008672D02*
X035721Y008672D01*
X034858Y010018D02*
X034108Y010018D01*
X026075Y012693D02*
X026075Y013120D01*
X026075Y012906D02*
X025434Y012906D01*
X025699Y006191D02*
X025592Y006084D01*
X025592Y005870D01*
X025699Y005763D01*
X025699Y005546D02*
X025592Y005546D01*
X025699Y005546D02*
X025912Y005332D01*
X026232Y005332D01*
X025912Y005332D02*
X025699Y005119D01*
X025592Y005119D01*
X025805Y004901D02*
X026232Y004901D01*
X025912Y004901D02*
X025912Y004474D01*
X025805Y004474D02*
X025592Y004688D01*
X025805Y004901D01*
X025805Y004474D02*
X026232Y004474D01*
X026232Y004257D02*
X026232Y003830D01*
X025592Y003830D01*
X025592Y003612D02*
X025592Y003185D01*
X026232Y003185D01*
X026232Y003612D01*
X025912Y003399D02*
X025912Y003185D01*
X025912Y002968D02*
X025699Y002968D01*
X025592Y002861D01*
X025592Y002541D01*
X026232Y002541D01*
X026019Y002541D02*
X026019Y002861D01*
X025912Y002968D01*
X026019Y002754D02*
X026232Y002968D01*
X026232Y005763D02*
X025805Y006191D01*
X025699Y006191D01*
X026232Y006191D02*
X026232Y005763D01*
D11*
X016153Y005482D02*
X015846Y005482D01*
X016076Y005712D01*
X016076Y005252D01*
X016076Y004689D02*
X015923Y004689D01*
X015846Y004612D01*
X015999Y004458D02*
X016076Y004458D01*
X016153Y004382D01*
X016153Y004305D01*
X016076Y004228D01*
X015923Y004228D01*
X015846Y004305D01*
X016076Y004458D02*
X016153Y004535D01*
X016153Y004612D01*
X016076Y004689D01*
X016076Y003704D02*
X015923Y003704D01*
X015846Y003628D01*
X016076Y003704D02*
X016153Y003628D01*
X016153Y003551D01*
X015846Y003244D01*
X016153Y003244D01*
X015251Y002264D02*
X015251Y001743D01*
X014991Y001743D01*
X014904Y001830D01*
X014904Y002004D01*
X014991Y002090D01*
X015251Y002090D01*
X014734Y001743D02*
X014560Y001743D01*
X014647Y001743D02*
X014647Y002264D01*
X014560Y002264D01*
X014305Y002090D02*
X014392Y002004D01*
X014392Y001917D01*
X014045Y001917D01*
X014045Y001830D02*
X014045Y002004D01*
X014131Y002090D01*
X014305Y002090D01*
X014045Y001830D02*
X014131Y001743D01*
X014305Y001743D01*
X013874Y001743D02*
X013701Y001743D01*
X013788Y001743D02*
X013788Y002090D01*
X013701Y002090D01*
X013532Y002004D02*
X013532Y001743D01*
X013185Y001743D02*
X013185Y002264D01*
X013017Y002177D02*
X012930Y002264D01*
X012756Y002264D01*
X012670Y002177D01*
X012670Y002090D01*
X012756Y002004D01*
X012930Y002004D01*
X013017Y001917D01*
X013017Y001830D01*
X012930Y001743D01*
X012756Y001743D01*
X012670Y001830D01*
X011985Y002090D02*
X011898Y002090D01*
X011724Y001917D01*
X011724Y002090D02*
X011724Y001743D01*
X011556Y001830D02*
X011556Y002004D01*
X011469Y002090D01*
X011295Y002090D01*
X011209Y002004D01*
X011209Y001830D01*
X011295Y001743D01*
X011469Y001743D01*
X011556Y001830D01*
X011040Y001830D02*
X010953Y001743D01*
X010693Y001743D01*
X010524Y001743D02*
X010524Y002004D01*
X010438Y002090D01*
X010177Y002090D01*
X010177Y001743D01*
X010009Y001917D02*
X009662Y001917D01*
X009662Y001830D02*
X009662Y002004D01*
X009748Y002090D01*
X009922Y002090D01*
X010009Y002004D01*
X010009Y001917D01*
X009922Y001743D02*
X009748Y001743D01*
X009662Y001830D01*
X009493Y001830D02*
X009406Y001743D01*
X009233Y001743D01*
X009146Y001830D01*
X009233Y002004D02*
X009406Y002004D01*
X009493Y001917D01*
X009493Y001830D01*
X009233Y002004D02*
X009146Y002090D01*
X009146Y002177D01*
X009233Y002264D01*
X009406Y002264D01*
X009493Y002177D01*
X008462Y002090D02*
X008202Y002090D01*
X008115Y002004D01*
X008115Y001830D01*
X008202Y001743D01*
X008462Y001743D01*
X008462Y002264D01*
X007946Y002004D02*
X007946Y001743D01*
X007599Y001743D02*
X007599Y002090D01*
X007859Y002090D01*
X007946Y002004D01*
X007431Y002004D02*
X007431Y001743D01*
X007170Y001743D01*
X007084Y001830D01*
X007170Y001917D01*
X007431Y001917D01*
X007431Y002004D02*
X007344Y002090D01*
X007170Y002090D01*
X006399Y002090D02*
X006399Y001657D01*
X006312Y001570D01*
X006226Y001570D01*
X006139Y001743D02*
X006399Y001743D01*
X006139Y001743D02*
X006052Y001830D01*
X006052Y002090D01*
X005884Y002004D02*
X005884Y001743D01*
X005623Y001743D01*
X005537Y001830D01*
X005623Y001917D01*
X005884Y001917D01*
X005884Y002004D02*
X005797Y002090D01*
X005623Y002090D01*
X005280Y002264D02*
X005280Y001743D01*
X005366Y001743D02*
X005193Y001743D01*
X005024Y001917D02*
X004677Y001917D01*
X004677Y001830D02*
X004677Y002004D01*
X004764Y002090D01*
X004937Y002090D01*
X005024Y002004D01*
X005024Y001917D01*
X004937Y001743D02*
X004764Y001743D01*
X004677Y001830D01*
X004509Y001743D02*
X004335Y001917D01*
X004422Y001917D02*
X004162Y001917D01*
X004162Y001743D02*
X004162Y002264D01*
X004422Y002264D01*
X004509Y002177D01*
X004509Y002004D01*
X004422Y001917D01*
X005193Y002264D02*
X005280Y002264D01*
X010693Y002004D02*
X010780Y001917D01*
X010953Y001917D01*
X011040Y001830D01*
X011040Y002090D02*
X010780Y002090D01*
X010693Y002004D01*
X013185Y002004D02*
X013272Y002090D01*
X013446Y002090D01*
X013532Y002004D01*
X013788Y002264D02*
X013788Y002351D01*
X010046Y005827D02*
X009969Y005750D01*
X009816Y005750D01*
X009739Y005827D01*
X009739Y005980D02*
X009893Y006057D01*
X009969Y006057D01*
X010046Y005980D01*
X010046Y005827D01*
X009739Y005980D02*
X009739Y006210D01*
X010046Y006210D01*
X009586Y006133D02*
X009279Y005827D01*
X009356Y005750D01*
X009509Y005750D01*
X009586Y005827D01*
X009586Y006133D01*
X009509Y006210D01*
X009356Y006210D01*
X009279Y006133D01*
X009279Y005827D01*
X009125Y005827D02*
X009049Y005750D01*
X008895Y005750D01*
X008818Y005827D01*
X008818Y005903D01*
X008895Y005980D01*
X009049Y005980D01*
X009125Y005903D01*
X009125Y005827D01*
X009049Y005980D02*
X009125Y006057D01*
X009125Y006133D01*
X009049Y006210D01*
X008895Y006210D01*
X008818Y006133D01*
X008818Y006057D01*
X008895Y005980D01*
X008665Y006133D02*
X008358Y005827D01*
X008358Y005750D01*
X008665Y006133D02*
X008665Y006210D01*
X008358Y006210D01*
X015846Y006313D02*
X015923Y006236D01*
X016076Y006236D01*
X016153Y006313D01*
X016153Y006466D01*
X016076Y006543D01*
X015999Y006543D01*
X015846Y006466D01*
X015846Y006696D01*
X016153Y006696D01*
X016076Y007220D02*
X015923Y007220D01*
X015846Y007297D01*
X015846Y007450D01*
X016076Y007450D01*
X016153Y007374D01*
X016153Y007297D01*
X016076Y007220D01*
X015846Y007450D02*
X015999Y007604D01*
X016153Y007681D01*
X015846Y008244D02*
X015846Y008321D01*
X016153Y008628D01*
X016153Y008704D01*
X015846Y008704D01*
X015923Y009228D02*
X015846Y009305D01*
X015846Y009382D01*
X015923Y009458D01*
X016076Y009458D01*
X016153Y009382D01*
X016153Y009305D01*
X016076Y009228D01*
X015923Y009228D01*
X015923Y009458D02*
X015846Y009535D01*
X015846Y009612D01*
X015923Y009689D01*
X016076Y009689D01*
X016153Y009612D01*
X016153Y009535D01*
X016076Y009458D01*
X016076Y010252D02*
X015923Y010252D01*
X015846Y010329D01*
X015923Y010482D02*
X016153Y010482D01*
X016153Y010329D02*
X016153Y010635D01*
X016076Y010712D01*
X015923Y010712D01*
X015846Y010635D01*
X015846Y010559D01*
X015923Y010482D01*
X016076Y010252D02*
X016153Y010329D01*
X016076Y011236D02*
X015923Y011236D01*
X015846Y011313D01*
X016153Y011620D01*
X016153Y011313D01*
X016076Y011236D01*
X015846Y011313D02*
X015846Y011620D01*
X015923Y011696D01*
X016076Y011696D01*
X016153Y011620D01*
X015693Y011236D02*
X015386Y011236D01*
X015539Y011236D02*
X015539Y011696D01*
X015386Y011543D01*
X015386Y012220D02*
X015693Y012220D01*
X015846Y012220D02*
X016153Y012220D01*
X015999Y012220D02*
X015999Y012681D01*
X015846Y012527D01*
X015539Y012681D02*
X015539Y012220D01*
X015386Y012527D02*
X015539Y012681D01*
X015539Y013244D02*
X015539Y013704D01*
X015386Y013551D01*
X015386Y013244D02*
X015693Y013244D01*
X015846Y013244D02*
X016153Y013551D01*
X016153Y013628D01*
X016076Y013704D01*
X015923Y013704D01*
X015846Y013628D01*
X015846Y013244D02*
X016153Y013244D01*
X015593Y017075D02*
X015670Y017152D01*
X015670Y017305D01*
X015593Y017382D01*
X015440Y017382D01*
X015363Y017305D01*
X015363Y017228D01*
X015440Y017075D01*
X015210Y017075D01*
X015210Y017382D01*
X015210Y017535D02*
X015516Y017535D01*
X015670Y017689D01*
X015516Y017842D01*
X015210Y017842D01*
X014646Y017765D02*
X014646Y017612D01*
X014570Y017535D01*
X014263Y017842D01*
X014570Y017842D01*
X014646Y017765D01*
X014570Y017535D02*
X014263Y017535D01*
X014186Y017612D01*
X014186Y017765D01*
X014263Y017842D01*
X014339Y017382D02*
X014646Y017382D01*
X014416Y017382D02*
X014416Y017075D01*
X014339Y017075D02*
X014186Y017228D01*
X014339Y017382D01*
X014339Y017075D02*
X014646Y017075D01*
X012087Y017112D02*
X012011Y017035D01*
X012087Y017112D02*
X012087Y017266D01*
X012011Y017342D01*
X011857Y017342D01*
X011780Y017266D01*
X011780Y017189D01*
X011857Y017035D01*
X011627Y017035D01*
X011627Y017342D01*
X011627Y017496D02*
X011934Y017496D01*
X012087Y017649D01*
X011934Y017803D01*
X011627Y017803D01*
X011103Y017803D02*
X011103Y017496D01*
X011103Y017649D02*
X010643Y017649D01*
X010796Y017496D01*
X010796Y017342D02*
X011103Y017342D01*
X010873Y017342D02*
X010873Y017035D01*
X010796Y017035D02*
X011103Y017035D01*
X010796Y017035D02*
X010643Y017189D01*
X010796Y017342D01*
X008583Y017266D02*
X008583Y017112D01*
X008507Y017035D01*
X008353Y017035D02*
X008276Y017189D01*
X008276Y017266D01*
X008353Y017342D01*
X008507Y017342D01*
X008583Y017266D01*
X008430Y017496D02*
X008123Y017496D01*
X008123Y017342D02*
X008123Y017035D01*
X008353Y017035D01*
X008430Y017496D02*
X008583Y017649D01*
X008430Y017803D01*
X008123Y017803D01*
X007560Y017803D02*
X007560Y017496D01*
X007253Y017803D01*
X007176Y017803D01*
X007099Y017726D01*
X007099Y017573D01*
X007176Y017496D01*
X007253Y017342D02*
X007099Y017189D01*
X007253Y017035D01*
X007560Y017035D01*
X007330Y017035D02*
X007330Y017342D01*
X007253Y017342D02*
X007560Y017342D01*
X007560Y020618D02*
X007253Y020618D01*
X007099Y020772D01*
X007253Y020925D01*
X007560Y020925D01*
X007483Y021079D02*
X007560Y021155D01*
X007560Y021309D01*
X007483Y021385D01*
X007330Y021385D01*
X007253Y021309D01*
X007253Y021232D01*
X007330Y021079D01*
X007099Y021079D01*
X007099Y021385D01*
X007330Y020925D02*
X007330Y020618D01*
X008123Y020618D02*
X008123Y020925D01*
X008123Y021079D02*
X008430Y021079D01*
X008583Y021232D01*
X008430Y021385D01*
X008123Y021385D01*
X008353Y020925D02*
X008507Y020925D01*
X008583Y020848D01*
X008583Y020695D01*
X008507Y020618D01*
X008353Y020618D02*
X008276Y020772D01*
X008276Y020848D01*
X008353Y020925D01*
X008353Y020618D02*
X008123Y020618D01*
X010643Y020811D02*
X010796Y020964D01*
X011103Y020964D01*
X010873Y020964D02*
X010873Y020658D01*
X010796Y020658D02*
X011103Y020658D01*
X010796Y020658D02*
X010643Y020811D01*
X010873Y021118D02*
X010873Y021425D01*
X011103Y021348D02*
X010643Y021348D01*
X010873Y021118D01*
X011627Y021118D02*
X011934Y021118D01*
X012087Y021271D01*
X011934Y021425D01*
X011627Y021425D01*
X011627Y020964D02*
X011627Y020658D01*
X011857Y020658D01*
X011780Y020811D01*
X011780Y020888D01*
X011857Y020964D01*
X012011Y020964D01*
X012087Y020888D01*
X012087Y020734D01*
X012011Y020658D01*
X014186Y020772D02*
X014339Y020618D01*
X014646Y020618D01*
X014416Y020618D02*
X014416Y020925D01*
X014339Y020925D02*
X014646Y020925D01*
X014570Y021079D02*
X014646Y021155D01*
X014646Y021309D01*
X014570Y021385D01*
X014493Y021385D01*
X014416Y021309D01*
X014416Y021232D01*
X014416Y021309D02*
X014339Y021385D01*
X014263Y021385D01*
X014186Y021309D01*
X014186Y021155D01*
X014263Y021079D01*
X014339Y020925D02*
X014186Y020772D01*
X015170Y020925D02*
X015170Y020618D01*
X015400Y020618D01*
X015324Y020772D01*
X015324Y020848D01*
X015400Y020925D01*
X015554Y020925D01*
X015631Y020848D01*
X015631Y020695D01*
X015554Y020618D01*
X015477Y021079D02*
X015170Y021079D01*
X015170Y021385D02*
X015477Y021385D01*
X015631Y021232D01*
X015477Y021079D01*
X018714Y021079D02*
X019020Y021079D01*
X019174Y021232D01*
X019020Y021385D01*
X018714Y021385D01*
X018714Y020925D02*
X018714Y020618D01*
X018944Y020618D01*
X018867Y020772D01*
X018867Y020848D01*
X018944Y020925D01*
X019097Y020925D01*
X019174Y020848D01*
X019174Y020695D01*
X019097Y020618D01*
X022257Y020618D02*
X022487Y020618D01*
X022410Y020772D01*
X022410Y020848D01*
X022487Y020925D01*
X022640Y020925D01*
X022717Y020848D01*
X022717Y020695D01*
X022640Y020618D01*
X022257Y020618D02*
X022257Y020925D01*
X022257Y021079D02*
X022564Y021079D01*
X022717Y021232D01*
X022564Y021385D01*
X022257Y021385D01*
X025839Y021425D02*
X026146Y021425D01*
X026300Y021271D01*
X026146Y021118D01*
X025839Y021118D01*
X025839Y020964D02*
X025839Y020658D01*
X026070Y020658D01*
X025993Y020811D01*
X025993Y020888D01*
X026070Y020964D01*
X026223Y020964D01*
X026300Y020888D01*
X026300Y020734D01*
X026223Y020658D01*
X029383Y020658D02*
X029613Y020658D01*
X029536Y020811D01*
X029536Y020888D01*
X029613Y020964D01*
X029766Y020964D01*
X029843Y020888D01*
X029843Y020734D01*
X029766Y020658D01*
X029383Y020658D02*
X029383Y020964D01*
X029383Y021118D02*
X029690Y021118D01*
X029843Y021271D01*
X029690Y021425D01*
X029383Y021425D01*
X031872Y021378D02*
X031872Y021205D01*
X031959Y021118D01*
X032046Y021118D01*
X032133Y021205D01*
X032133Y021465D01*
X032306Y021465D02*
X031959Y021465D01*
X031872Y021378D01*
X032306Y021465D02*
X032393Y021378D01*
X032393Y021205D01*
X032306Y021118D01*
X032306Y020949D02*
X031959Y020949D01*
X031872Y020863D01*
X031872Y020602D01*
X032393Y020602D01*
X032393Y020863D01*
X032306Y020949D01*
X032926Y020925D02*
X032926Y020618D01*
X033156Y020618D01*
X033080Y020772D01*
X033080Y020848D01*
X033156Y020925D01*
X033310Y020925D01*
X033386Y020848D01*
X033386Y020695D01*
X033310Y020618D01*
X033233Y021079D02*
X032926Y021079D01*
X032926Y021385D02*
X033233Y021385D01*
X033386Y021232D01*
X033233Y021079D01*
X033233Y017842D02*
X032926Y017842D01*
X033233Y017842D02*
X033386Y017689D01*
X033233Y017535D01*
X032926Y017535D01*
X032926Y017382D02*
X032926Y017075D01*
X033156Y017075D01*
X033080Y017228D01*
X033080Y017305D01*
X033156Y017382D01*
X033310Y017382D01*
X033386Y017305D01*
X033386Y017152D01*
X033310Y017075D01*
X032393Y017059D02*
X032393Y017319D01*
X032306Y017406D01*
X031959Y017406D01*
X031872Y017319D01*
X031872Y017059D01*
X032393Y017059D01*
X032133Y017575D02*
X032133Y017922D01*
X032393Y017835D02*
X031872Y017835D01*
X032133Y017575D01*
X029843Y017689D02*
X029690Y017842D01*
X029383Y017842D01*
X029690Y017535D02*
X029843Y017689D01*
X029690Y017535D02*
X029383Y017535D01*
X029383Y017382D02*
X029383Y017075D01*
X029613Y017075D01*
X029536Y017228D01*
X029536Y017305D01*
X029613Y017382D01*
X029766Y017382D01*
X029843Y017305D01*
X029843Y017152D01*
X029766Y017075D01*
X028850Y017059D02*
X028850Y017319D01*
X028763Y017406D01*
X028416Y017406D01*
X028329Y017319D01*
X028329Y017059D01*
X028850Y017059D01*
X028763Y017575D02*
X028850Y017661D01*
X028850Y017835D01*
X028763Y017922D01*
X028589Y017922D01*
X028503Y017835D01*
X028503Y017748D01*
X028589Y017575D01*
X028329Y017575D01*
X028329Y017922D01*
X026300Y017689D02*
X026146Y017535D01*
X025839Y017535D01*
X025839Y017382D02*
X025839Y017075D01*
X026070Y017075D01*
X025993Y017228D01*
X025993Y017305D01*
X026070Y017382D01*
X026223Y017382D01*
X026300Y017305D01*
X026300Y017152D01*
X026223Y017075D01*
X026300Y017689D02*
X026146Y017842D01*
X025839Y017842D01*
X025306Y017835D02*
X025306Y017661D01*
X025220Y017575D01*
X025046Y017575D01*
X025046Y017835D01*
X025133Y017922D01*
X025220Y017922D01*
X025306Y017835D01*
X025046Y017575D02*
X024873Y017748D01*
X024786Y017922D01*
X024873Y017406D02*
X024786Y017319D01*
X024786Y017059D01*
X025306Y017059D01*
X025306Y017319D01*
X025220Y017406D01*
X024873Y017406D01*
X022717Y017305D02*
X022717Y017152D01*
X022640Y017075D01*
X022487Y017075D02*
X022410Y017228D01*
X022410Y017305D01*
X022487Y017382D01*
X022640Y017382D01*
X022717Y017305D01*
X022564Y017535D02*
X022257Y017535D01*
X022257Y017382D02*
X022257Y017075D01*
X022487Y017075D01*
X022564Y017535D02*
X022717Y017689D01*
X022564Y017842D01*
X022257Y017842D01*
X021763Y017575D02*
X021676Y017575D01*
X021329Y017922D01*
X021243Y017922D01*
X021243Y017575D01*
X021329Y017406D02*
X021243Y017319D01*
X021243Y017059D01*
X021763Y017059D01*
X021763Y017319D01*
X021676Y017406D01*
X021329Y017406D01*
X019213Y017344D02*
X019213Y017191D01*
X019137Y017114D01*
X018983Y017114D02*
X018906Y017268D01*
X018906Y017344D01*
X018983Y017421D01*
X019137Y017421D01*
X019213Y017344D01*
X019060Y017575D02*
X019213Y017728D01*
X019060Y017882D01*
X018753Y017882D01*
X018753Y017575D02*
X019060Y017575D01*
X018753Y017421D02*
X018753Y017114D01*
X018983Y017114D01*
X018220Y017059D02*
X018220Y017319D01*
X018133Y017406D01*
X017786Y017406D01*
X017699Y017319D01*
X017699Y017059D01*
X018220Y017059D01*
X018133Y017575D02*
X018046Y017575D01*
X017959Y017661D01*
X017959Y017835D01*
X018046Y017922D01*
X018133Y017922D01*
X018220Y017835D01*
X018220Y017661D01*
X018133Y017575D01*
X017959Y017661D02*
X017873Y017575D01*
X017786Y017575D01*
X017699Y017661D01*
X017699Y017835D01*
X017786Y017922D01*
X017873Y017922D01*
X017959Y017835D01*
X004042Y013671D02*
X004042Y013594D01*
X003966Y013517D01*
X004042Y013441D01*
X004042Y013364D01*
X003966Y013287D01*
X003812Y013287D01*
X003735Y013364D01*
X003582Y013287D02*
X003275Y013287D01*
X003428Y013287D02*
X003428Y013748D01*
X003275Y013594D01*
X003735Y013671D02*
X003812Y013748D01*
X003966Y013748D01*
X004042Y013671D01*
X003966Y013517D02*
X003889Y013517D01*
D12*
X003418Y014141D02*
X003171Y014141D01*
X003418Y014388D01*
X003418Y014450D01*
X003357Y014512D01*
X003233Y014512D01*
X003171Y014450D01*
X003050Y014450D02*
X002988Y014512D01*
X002865Y014512D01*
X002803Y014450D01*
X002803Y014203D01*
X002865Y014141D01*
X002988Y014141D01*
X003050Y014203D01*
X005205Y014164D02*
X005266Y014102D01*
X005390Y014102D01*
X005452Y014164D01*
X005573Y014102D02*
X005820Y014102D01*
X005697Y014102D02*
X005697Y014472D01*
X005573Y014349D01*
X005452Y014410D02*
X005390Y014472D01*
X005266Y014472D01*
X005205Y014410D01*
X005205Y014164D01*
X004620Y012623D02*
X004430Y012623D01*
X004525Y012623D02*
X004525Y012337D01*
X004330Y012337D02*
X004140Y012337D01*
X004140Y012623D01*
X004330Y012623D01*
X004235Y012480D02*
X004140Y012480D01*
X004040Y012432D02*
X004040Y012385D01*
X003993Y012337D01*
X003897Y012337D01*
X003850Y012385D01*
X003897Y012480D02*
X003993Y012480D01*
X004040Y012432D01*
X004040Y012575D02*
X003993Y012623D01*
X003897Y012623D01*
X003850Y012575D01*
X003850Y012527D01*
X003897Y012480D01*
X003750Y012623D02*
X003560Y012623D01*
X003560Y012337D01*
X003750Y012337D01*
X003655Y012480D02*
X003560Y012480D01*
X003460Y012480D02*
X003413Y012432D01*
X003270Y012432D01*
X003270Y012337D02*
X003270Y012623D01*
X003413Y012623D01*
X003460Y012575D01*
X003460Y012480D01*
X003365Y012432D02*
X003460Y012337D01*
X003413Y011638D02*
X003460Y011591D01*
X003460Y011543D01*
X003413Y011496D01*
X003460Y011448D01*
X003460Y011401D01*
X003413Y011353D01*
X003317Y011353D01*
X003270Y011401D01*
X003365Y011496D02*
X003413Y011496D01*
X003413Y011638D02*
X003317Y011638D01*
X003270Y011591D01*
X003560Y011401D02*
X003607Y011401D01*
X003607Y011353D01*
X003560Y011353D01*
X003560Y011401D01*
X003705Y011401D02*
X003752Y011353D01*
X003848Y011353D01*
X003895Y011401D01*
X003895Y011448D01*
X003848Y011496D01*
X003800Y011496D01*
X003848Y011496D02*
X003895Y011543D01*
X003895Y011591D01*
X003848Y011638D01*
X003752Y011638D01*
X003705Y011591D01*
X003995Y011638D02*
X003995Y011448D01*
X004090Y011353D01*
X004185Y011448D01*
X004185Y011638D01*
X003750Y010575D02*
X003750Y010385D01*
X003655Y010290D01*
X003560Y010385D01*
X003560Y010575D01*
X003460Y010575D02*
X003270Y010575D01*
X003270Y010433D01*
X003365Y010480D01*
X003413Y010480D01*
X003460Y010433D01*
X003460Y010338D01*
X003413Y010290D01*
X003317Y010290D01*
X003270Y010338D01*
X003317Y009552D02*
X003270Y009504D01*
X003270Y009314D01*
X003317Y009266D01*
X003413Y009266D01*
X003460Y009314D01*
X003460Y009409D01*
X003365Y009409D01*
X003460Y009504D02*
X003413Y009552D01*
X003317Y009552D01*
X003560Y009552D02*
X003750Y009266D01*
X003750Y009552D01*
X003850Y009552D02*
X003993Y009552D01*
X004040Y009504D01*
X004040Y009314D01*
X003993Y009266D01*
X003850Y009266D01*
X003850Y009552D01*
X003560Y009552D02*
X003560Y009266D01*
X003560Y008567D02*
X003750Y008282D01*
X003750Y008567D01*
X003850Y008567D02*
X003993Y008567D01*
X004040Y008520D01*
X004040Y008330D01*
X003993Y008282D01*
X003850Y008282D01*
X003850Y008567D01*
X003560Y008567D02*
X003560Y008282D01*
X003460Y008330D02*
X003460Y008425D01*
X003365Y008425D01*
X003460Y008520D02*
X003413Y008567D01*
X003317Y008567D01*
X003270Y008520D01*
X003270Y008330D01*
X003317Y008282D01*
X003413Y008282D01*
X003460Y008330D01*
X003460Y007567D02*
X003460Y007377D01*
X003365Y007282D01*
X003270Y007377D01*
X003270Y007567D01*
X003560Y007567D02*
X003655Y007567D01*
X003607Y007567D02*
X003607Y007282D01*
X003560Y007282D02*
X003655Y007282D01*
X003753Y007282D02*
X003753Y007567D01*
X003943Y007282D01*
X003943Y007567D01*
X003823Y006641D02*
X003885Y006579D01*
X003638Y006332D01*
X003700Y006270D01*
X003823Y006270D01*
X003885Y006332D01*
X003885Y006579D01*
X003823Y006641D02*
X003700Y006641D01*
X003638Y006579D01*
X003638Y006332D01*
X003517Y006270D02*
X003517Y006517D01*
X003393Y006641D01*
X003270Y006517D01*
X003270Y006270D01*
X003270Y006456D02*
X003517Y006456D01*
X003393Y005649D02*
X003517Y005525D01*
X003517Y005278D01*
X003638Y005278D02*
X003885Y005278D01*
X003762Y005278D02*
X003762Y005649D01*
X003638Y005525D01*
X003517Y005463D02*
X003270Y005463D01*
X003270Y005525D02*
X003270Y005278D01*
X003270Y005525D02*
X003393Y005649D01*
X003393Y004629D02*
X003517Y004505D01*
X003517Y004259D01*
X003638Y004259D02*
X003885Y004505D01*
X003885Y004567D01*
X003823Y004629D01*
X003700Y004629D01*
X003638Y004567D01*
X003517Y004444D02*
X003270Y004444D01*
X003270Y004505D02*
X003393Y004629D01*
X003270Y004505D02*
X003270Y004259D01*
X003638Y004259D02*
X003885Y004259D01*
X003823Y003601D02*
X003885Y003540D01*
X003885Y003478D01*
X003823Y003416D01*
X003885Y003354D01*
X003885Y003293D01*
X003823Y003231D01*
X003700Y003231D01*
X003638Y003293D01*
X003517Y003231D02*
X003517Y003478D01*
X003393Y003601D01*
X003270Y003478D01*
X003270Y003231D01*
X003270Y003416D02*
X003517Y003416D01*
X003638Y003540D02*
X003700Y003601D01*
X003823Y003601D01*
X003823Y003416D02*
X003762Y003416D01*
X003823Y002653D02*
X003638Y002467D01*
X003885Y002467D01*
X003823Y002282D02*
X003823Y002653D01*
X003517Y002529D02*
X003517Y002282D01*
X003517Y002467D02*
X003270Y002467D01*
X003270Y002529D02*
X003393Y002653D01*
X003517Y002529D01*
X003270Y002529D02*
X003270Y002282D01*
X003393Y001660D02*
X003517Y001537D01*
X003517Y001290D01*
X003638Y001352D02*
X003700Y001290D01*
X003823Y001290D01*
X003885Y001352D01*
X003885Y001475D01*
X003823Y001537D01*
X003762Y001537D01*
X003638Y001475D01*
X003638Y001660D01*
X003885Y001660D01*
X003517Y001475D02*
X003270Y001475D01*
X003270Y001537D02*
X003270Y001290D01*
X003270Y001537D02*
X003393Y001660D01*
X007944Y001362D02*
X007944Y001115D01*
X008068Y000992D01*
X008191Y001115D01*
X008191Y001362D01*
X008374Y001239D02*
X008312Y001177D01*
X008312Y001053D01*
X008374Y000992D01*
X008498Y000992D01*
X008559Y001115D02*
X008312Y001115D01*
X008374Y001239D02*
X008498Y001239D01*
X008559Y001177D01*
X008559Y001115D01*
X008681Y001115D02*
X008804Y001239D01*
X008866Y001239D01*
X008988Y001177D02*
X009049Y001239D01*
X009235Y001239D01*
X009356Y001239D02*
X009418Y001239D01*
X009418Y000992D01*
X009479Y000992D02*
X009356Y000992D01*
X009235Y001053D02*
X009173Y001115D01*
X009049Y001115D01*
X008988Y001177D01*
X008988Y000992D02*
X009173Y000992D01*
X009235Y001053D01*
X009602Y001053D02*
X009602Y001177D01*
X009663Y001239D01*
X009787Y001239D01*
X009848Y001177D01*
X009848Y001053D01*
X009787Y000992D01*
X009663Y000992D01*
X009602Y001053D01*
X009970Y000992D02*
X009970Y001239D01*
X010155Y001239D01*
X010217Y001177D01*
X010217Y000992D01*
X010706Y000992D02*
X010953Y000992D01*
X011075Y000992D02*
X011136Y000992D01*
X011136Y001053D01*
X011075Y001053D01*
X011075Y000992D01*
X011259Y001053D02*
X011506Y001300D01*
X011506Y001053D01*
X011444Y000992D01*
X011321Y000992D01*
X011259Y001053D01*
X011259Y001300D01*
X011321Y001362D01*
X011444Y001362D01*
X011506Y001300D01*
X010830Y001362D02*
X010830Y000992D01*
X010706Y001239D02*
X010830Y001362D01*
X009418Y001362D02*
X009418Y001424D01*
X008681Y001239D02*
X008681Y000992D01*
X005349Y004839D02*
X004979Y004839D01*
X004979Y005024D01*
X005041Y005086D01*
X005288Y005086D01*
X005349Y005024D01*
X005349Y004839D01*
X005288Y005207D02*
X005349Y005269D01*
X005349Y005393D01*
X005288Y005454D01*
X005226Y005454D01*
X005164Y005393D01*
X005164Y005331D01*
X005164Y005393D02*
X005102Y005454D01*
X005041Y005454D01*
X004979Y005393D01*
X004979Y005269D01*
X005041Y005207D01*
X015565Y002607D02*
X015812Y002607D01*
X015933Y002607D02*
X016180Y002237D01*
X015933Y002237D02*
X016180Y002607D01*
X015688Y002607D02*
X015688Y002237D01*
X015750Y001583D02*
X015565Y001583D01*
X015565Y001213D01*
X015565Y001336D02*
X015750Y001336D01*
X015812Y001398D01*
X015812Y001522D01*
X015750Y001583D01*
X015933Y001583D02*
X016180Y001213D01*
X015933Y001213D02*
X016180Y001583D01*
X015812Y001213D02*
X015688Y001336D01*
X018512Y001205D02*
X018512Y000834D01*
X018512Y000958D02*
X018697Y000958D01*
X018759Y001019D01*
X018759Y001143D01*
X018697Y001205D01*
X018512Y001205D01*
X018635Y000958D02*
X018759Y000834D01*
X018880Y000896D02*
X018942Y000834D01*
X019065Y000834D01*
X019127Y000896D01*
X019127Y000958D01*
X019065Y001019D01*
X018880Y001019D01*
X018880Y000896D01*
X018880Y001019D02*
X019004Y001143D01*
X019127Y001205D01*
X020559Y001598D02*
X020806Y001598D01*
X020683Y001598D02*
X020683Y001228D01*
X020927Y001228D02*
X021174Y001475D01*
X021174Y001536D01*
X021113Y001598D01*
X020989Y001598D01*
X020927Y001536D01*
X020927Y001228D02*
X021174Y001228D01*
X019065Y002212D02*
X019065Y002582D01*
X018880Y002397D01*
X019127Y002397D01*
X018759Y002397D02*
X018759Y002521D01*
X018697Y002582D01*
X018512Y002582D01*
X018512Y002212D01*
X018512Y002336D02*
X018697Y002336D01*
X018759Y002397D01*
X018635Y002336D02*
X018759Y002212D01*
X018719Y004141D02*
X018596Y004265D01*
X018658Y004265D02*
X018472Y004265D01*
X018472Y004141D02*
X018472Y004512D01*
X018658Y004512D01*
X018719Y004450D01*
X018719Y004326D01*
X018658Y004265D01*
X018841Y004326D02*
X018841Y004512D01*
X019088Y004512D01*
X019026Y004388D02*
X019088Y004326D01*
X019088Y004203D01*
X019026Y004141D01*
X018903Y004141D01*
X018841Y004203D01*
X018841Y004326D02*
X018964Y004388D01*
X019026Y004388D01*
X021278Y004642D02*
X021278Y004827D01*
X021340Y004889D01*
X021587Y004889D01*
X021649Y004827D01*
X021649Y004642D01*
X021278Y004642D01*
X021340Y005011D02*
X021278Y005072D01*
X021278Y005196D01*
X021340Y005257D01*
X021402Y005257D01*
X021649Y005011D01*
X021649Y005257D01*
X019495Y005795D02*
X019248Y005795D01*
X019495Y006042D01*
X019495Y006103D01*
X019434Y006165D01*
X019310Y006165D01*
X019248Y006103D01*
X019127Y006103D02*
X019127Y005857D01*
X019065Y005795D01*
X018880Y005795D01*
X018880Y006165D01*
X019065Y006165D01*
X019127Y006103D01*
X018759Y006165D02*
X018512Y006165D01*
X018512Y005795D01*
X018759Y005795D01*
X018635Y005980D02*
X018512Y005980D01*
X018390Y005795D02*
X018144Y005795D01*
X018144Y006165D01*
X018433Y007409D02*
X018433Y007779D01*
X018618Y007779D01*
X018680Y007718D01*
X018680Y007594D01*
X018618Y007532D01*
X018433Y007532D01*
X018557Y007532D02*
X018680Y007409D01*
X018801Y007471D02*
X018863Y007409D01*
X018987Y007409D01*
X019048Y007471D01*
X019048Y007532D01*
X018987Y007594D01*
X018925Y007594D01*
X018987Y007594D02*
X019048Y007656D01*
X019048Y007718D01*
X018987Y007779D01*
X018863Y007779D01*
X018801Y007718D01*
X020559Y008449D02*
X020806Y008449D01*
X020683Y008449D02*
X020683Y008078D01*
X020927Y008078D02*
X021174Y008078D01*
X021051Y008078D02*
X021051Y008449D01*
X020927Y008325D01*
X019088Y009102D02*
X018841Y009102D01*
X018719Y009102D02*
X018596Y009225D01*
X018658Y009225D02*
X018472Y009225D01*
X018472Y009102D02*
X018472Y009472D01*
X018658Y009472D01*
X018719Y009410D01*
X018719Y009287D01*
X018658Y009225D01*
X018841Y009349D02*
X018964Y009472D01*
X018964Y009102D01*
X019048Y011070D02*
X018801Y011070D01*
X019048Y011317D01*
X019048Y011379D01*
X018987Y011441D01*
X018863Y011441D01*
X018801Y011379D01*
X018680Y011379D02*
X018680Y011256D01*
X018618Y011194D01*
X018433Y011194D01*
X018557Y011194D02*
X018680Y011070D01*
X018433Y011070D02*
X018433Y011441D01*
X018618Y011441D01*
X018680Y011379D01*
X021278Y011808D02*
X021278Y011993D01*
X021340Y012054D01*
X021587Y012054D01*
X021649Y011993D01*
X021649Y011808D01*
X021278Y011808D01*
X021402Y012176D02*
X021278Y012299D01*
X021649Y012299D01*
X021649Y012176D02*
X021649Y012423D01*
X019417Y014023D02*
X019170Y014023D01*
X019293Y014023D02*
X019293Y014393D01*
X019170Y014270D01*
X019048Y014332D02*
X018987Y014393D01*
X018801Y014393D01*
X018801Y014023D01*
X018987Y014023D01*
X019048Y014085D01*
X019048Y014332D01*
X018680Y014393D02*
X018433Y014393D01*
X018433Y014023D01*
X018680Y014023D01*
X018557Y014208D02*
X018433Y014208D01*
X018312Y014023D02*
X018065Y014023D01*
X018065Y014393D01*
X016547Y017057D02*
X016609Y017118D01*
X016609Y017242D01*
X016547Y017303D01*
X016424Y017303D01*
X016424Y017180D01*
X016301Y017303D02*
X016239Y017242D01*
X016239Y017118D01*
X016301Y017057D01*
X016547Y017057D01*
X016609Y017425D02*
X016239Y017425D01*
X016609Y017672D01*
X016239Y017672D01*
X016239Y017793D02*
X016239Y017978D01*
X016301Y018040D01*
X016547Y018040D01*
X016609Y017978D01*
X016609Y017793D01*
X016239Y017793D01*
X013066Y017793D02*
X013066Y017978D01*
X013004Y018040D01*
X012757Y018040D01*
X012696Y017978D01*
X012696Y017793D01*
X013066Y017793D01*
X013066Y017672D02*
X012696Y017672D01*
X012696Y017425D02*
X013066Y017672D01*
X013066Y017425D02*
X012696Y017425D01*
X012757Y017303D02*
X012696Y017242D01*
X012696Y017118D01*
X012757Y017057D01*
X013004Y017057D01*
X013066Y017118D01*
X013066Y017242D01*
X013004Y017303D01*
X012881Y017303D01*
X012881Y017180D01*
X009523Y017118D02*
X009523Y017242D01*
X009461Y017303D01*
X009337Y017303D01*
X009337Y017180D01*
X009214Y017303D02*
X009152Y017242D01*
X009152Y017118D01*
X009214Y017057D01*
X009461Y017057D01*
X009523Y017118D01*
X009523Y017425D02*
X009152Y017425D01*
X009523Y017672D01*
X009152Y017672D01*
X009152Y017793D02*
X009152Y017978D01*
X009214Y018040D01*
X009461Y018040D01*
X009523Y017978D01*
X009523Y017793D01*
X009152Y017793D01*
X009214Y020600D02*
X009461Y020600D01*
X009523Y020662D01*
X009523Y020785D01*
X009461Y020847D01*
X009337Y020847D01*
X009337Y020723D01*
X009214Y020600D02*
X009152Y020662D01*
X009152Y020785D01*
X009214Y020847D01*
X009152Y020968D02*
X009523Y021215D01*
X009152Y021215D01*
X009152Y021336D02*
X009152Y021522D01*
X009214Y021583D01*
X009461Y021583D01*
X009523Y021522D01*
X009523Y021336D01*
X009152Y021336D01*
X009152Y020968D02*
X009523Y020968D01*
X012696Y020968D02*
X013066Y021215D01*
X012696Y021215D01*
X012696Y021336D02*
X012696Y021522D01*
X012757Y021583D01*
X013004Y021583D01*
X013066Y021522D01*
X013066Y021336D01*
X012696Y021336D01*
X012696Y020968D02*
X013066Y020968D01*
X013004Y020847D02*
X012881Y020847D01*
X012881Y020723D01*
X013004Y020600D02*
X013066Y020662D01*
X013066Y020785D01*
X013004Y020847D01*
X012757Y020847D02*
X012696Y020785D01*
X012696Y020662D01*
X012757Y020600D01*
X013004Y020600D01*
X016239Y020662D02*
X016301Y020600D01*
X016547Y020600D01*
X016609Y020662D01*
X016609Y020785D01*
X016547Y020847D01*
X016424Y020847D01*
X016424Y020723D01*
X016301Y020847D02*
X016239Y020785D01*
X016239Y020662D01*
X016239Y020968D02*
X016609Y021215D01*
X016239Y021215D01*
X016239Y021336D02*
X016239Y021522D01*
X016301Y021583D01*
X016547Y021583D01*
X016609Y021522D01*
X016609Y021336D01*
X016239Y021336D01*
X016239Y020968D02*
X016609Y020968D01*
X017774Y021092D02*
X017898Y020968D01*
X017836Y020847D02*
X017774Y020785D01*
X017774Y020600D01*
X018145Y020600D01*
X018145Y020785D01*
X018083Y020847D01*
X017836Y020847D01*
X018145Y020968D02*
X018145Y021215D01*
X018145Y021092D02*
X017774Y021092D01*
X017836Y021336D02*
X017774Y021398D01*
X017774Y021522D01*
X017836Y021583D01*
X017898Y021583D01*
X017959Y021522D01*
X018021Y021583D01*
X018083Y021583D01*
X018145Y021522D01*
X018145Y021398D01*
X018083Y021336D01*
X017959Y021460D02*
X017959Y021522D01*
X019782Y021482D02*
X019782Y021297D01*
X020153Y021297D01*
X020153Y021482D01*
X020091Y021544D01*
X019844Y021544D01*
X019782Y021482D01*
X019782Y021297D01*
X020153Y021297D01*
X020153Y021482D01*
X020091Y021544D01*
X019844Y021544D01*
X019782Y021482D01*
X019782Y021176D02*
X020153Y021176D01*
X019782Y020929D01*
X020153Y020929D01*
X019782Y020929D01*
X020153Y021176D01*
X019782Y021176D01*
X019844Y020807D02*
X019782Y020746D01*
X019782Y020622D01*
X019844Y020560D01*
X020091Y020560D01*
X020153Y020622D01*
X020153Y020746D01*
X020091Y020807D01*
X019967Y020807D01*
X019967Y020684D01*
X019967Y020807D01*
X020091Y020807D01*
X020153Y020746D01*
X020153Y020622D01*
X020091Y020560D01*
X019844Y020560D01*
X019782Y020622D01*
X019782Y020746D01*
X019844Y020807D01*
X021318Y020785D02*
X021318Y020600D01*
X021688Y020600D01*
X021688Y020785D01*
X021626Y020847D01*
X021379Y020847D01*
X021318Y020785D01*
X021441Y020968D02*
X021318Y021092D01*
X021688Y021092D01*
X021688Y021215D02*
X021688Y020968D01*
X021688Y021336D02*
X021441Y021583D01*
X021379Y021583D01*
X021318Y021522D01*
X021318Y021398D01*
X021379Y021336D01*
X021688Y021336D02*
X021688Y021583D01*
X023326Y021522D02*
X023326Y021336D01*
X023696Y021336D01*
X023696Y021522D01*
X023634Y021583D01*
X023387Y021583D01*
X023326Y021522D01*
X023326Y021215D02*
X023696Y021215D01*
X023326Y020968D01*
X023696Y020968D01*
X023634Y020847D02*
X023511Y020847D01*
X023511Y020723D01*
X023634Y020600D02*
X023387Y020600D01*
X023326Y020662D01*
X023326Y020785D01*
X023387Y020847D01*
X023634Y020847D02*
X023696Y020785D01*
X023696Y020662D01*
X023634Y020600D01*
X024861Y020600D02*
X024861Y020785D01*
X024923Y020847D01*
X025170Y020847D01*
X025231Y020785D01*
X025231Y020600D01*
X024861Y020600D01*
X024984Y020968D02*
X024861Y021092D01*
X025231Y021092D01*
X025231Y021215D02*
X025231Y020968D01*
X025231Y021336D02*
X025231Y021583D01*
X025231Y021460D02*
X024861Y021460D01*
X024984Y021336D01*
X026869Y021336D02*
X026869Y021522D01*
X026931Y021583D01*
X027177Y021583D01*
X027239Y021522D01*
X027239Y021336D01*
X026869Y021336D01*
X026869Y021215D02*
X027239Y021215D01*
X026869Y020968D01*
X027239Y020968D01*
X027177Y020847D02*
X027054Y020847D01*
X027054Y020723D01*
X026931Y020600D02*
X027177Y020600D01*
X027239Y020662D01*
X027239Y020785D01*
X027177Y020847D01*
X026931Y020847D02*
X026869Y020785D01*
X026869Y020662D01*
X026931Y020600D01*
X028404Y020600D02*
X028404Y020785D01*
X028466Y020847D01*
X028713Y020847D01*
X028775Y020785D01*
X028775Y020600D01*
X028404Y020600D01*
X028528Y020968D02*
X028404Y021092D01*
X028775Y021092D01*
X028775Y021215D02*
X028775Y020968D01*
X028713Y021336D02*
X028466Y021336D01*
X028404Y021398D01*
X028404Y021522D01*
X028466Y021583D01*
X028713Y021336D01*
X028775Y021398D01*
X028775Y021522D01*
X028713Y021583D01*
X028466Y021583D01*
X030412Y021522D02*
X030412Y021336D01*
X030782Y021336D01*
X030782Y021522D01*
X030721Y021583D01*
X030474Y021583D01*
X030412Y021522D01*
X030412Y021215D02*
X030782Y021215D01*
X030412Y020968D01*
X030782Y020968D01*
X030721Y020847D02*
X030597Y020847D01*
X030597Y020723D01*
X030474Y020600D02*
X030721Y020600D01*
X030782Y020662D01*
X030782Y020785D01*
X030721Y020847D01*
X030474Y020847D02*
X030412Y020785D01*
X030412Y020662D01*
X030474Y020600D01*
X033955Y020662D02*
X034017Y020600D01*
X034264Y020600D01*
X034326Y020662D01*
X034326Y020785D01*
X034264Y020847D01*
X034141Y020847D01*
X034141Y020723D01*
X034017Y020847D02*
X033955Y020785D01*
X033955Y020662D01*
X033955Y020968D02*
X034326Y021215D01*
X033955Y021215D01*
X033955Y021336D02*
X033955Y021522D01*
X034017Y021583D01*
X034264Y021583D01*
X034326Y021522D01*
X034326Y021336D01*
X033955Y021336D01*
X033955Y020968D02*
X034326Y020968D01*
X034264Y018040D02*
X034017Y018040D01*
X033955Y017978D01*
X033955Y017793D01*
X034326Y017793D01*
X034326Y017978D01*
X034264Y018040D01*
X034326Y017672D02*
X033955Y017672D01*
X033955Y017425D02*
X034326Y017672D01*
X034326Y017425D02*
X033955Y017425D01*
X034017Y017303D02*
X033955Y017242D01*
X033955Y017118D01*
X034017Y017057D01*
X034264Y017057D01*
X034326Y017118D01*
X034326Y017242D01*
X034264Y017303D01*
X034141Y017303D01*
X034141Y017180D01*
X030782Y017118D02*
X030782Y017242D01*
X030721Y017303D01*
X030597Y017303D01*
X030597Y017180D01*
X030474Y017303D02*
X030412Y017242D01*
X030412Y017118D01*
X030474Y017057D01*
X030721Y017057D01*
X030782Y017118D01*
X030782Y017425D02*
X030412Y017425D01*
X030782Y017672D01*
X030412Y017672D01*
X030412Y017793D02*
X030412Y017978D01*
X030474Y018040D01*
X030721Y018040D01*
X030782Y017978D01*
X030782Y017793D01*
X030412Y017793D01*
X027239Y017793D02*
X027239Y017978D01*
X027177Y018040D01*
X026931Y018040D01*
X026869Y017978D01*
X026869Y017793D01*
X027239Y017793D01*
X027239Y017672D02*
X026869Y017672D01*
X026869Y017425D02*
X027239Y017672D01*
X027239Y017425D02*
X026869Y017425D01*
X026931Y017303D02*
X026869Y017242D01*
X026869Y017118D01*
X026931Y017057D01*
X027177Y017057D01*
X027239Y017118D01*
X027239Y017242D01*
X027177Y017303D01*
X027054Y017303D01*
X027054Y017180D01*
X023696Y017118D02*
X023696Y017242D01*
X023634Y017303D01*
X023511Y017303D01*
X023511Y017180D01*
X023634Y017057D02*
X023387Y017057D01*
X023326Y017118D01*
X023326Y017242D01*
X023387Y017303D01*
X023326Y017425D02*
X023696Y017672D01*
X023326Y017672D01*
X023326Y017793D02*
X023326Y017978D01*
X023387Y018040D01*
X023634Y018040D01*
X023696Y017978D01*
X023696Y017793D01*
X023326Y017793D01*
X023326Y017425D02*
X023696Y017425D01*
X023696Y017118D02*
X023634Y017057D01*
X020153Y017118D02*
X020153Y017242D01*
X020091Y017303D01*
X019967Y017303D01*
X019967Y017180D01*
X019844Y017303D02*
X019782Y017242D01*
X019782Y017118D01*
X019844Y017057D01*
X020091Y017057D01*
X020153Y017118D01*
X020153Y017425D02*
X019782Y017425D01*
X020153Y017672D01*
X019782Y017672D01*
X019782Y017793D02*
X019782Y017978D01*
X019844Y018040D01*
X020091Y018040D01*
X020153Y017978D01*
X020153Y017793D01*
X019782Y017793D01*
D13*
X035125Y000507D02*
X001857Y000507D01*
X001857Y021767D01*
X034377Y021767D01*
X035125Y020980D01*
X035125Y014287D01*
X036031Y013539D01*
X036031Y001334D01*
X035125Y000507D01*
X008688Y010459D02*
X008690Y010509D01*
X008696Y010559D01*
X008706Y010609D01*
X008719Y010657D01*
X008736Y010705D01*
X008757Y010751D01*
X008781Y010795D01*
X008809Y010837D01*
X008840Y010877D01*
X008874Y010914D01*
X008911Y010949D01*
X008950Y010980D01*
X008991Y011009D01*
X009035Y011034D01*
X009081Y011056D01*
X009128Y011074D01*
X009176Y011088D01*
X009225Y011099D01*
X009275Y011106D01*
X009325Y011109D01*
X009376Y011108D01*
X009426Y011103D01*
X009476Y011094D01*
X009524Y011082D01*
X009572Y011065D01*
X009618Y011045D01*
X009663Y011022D01*
X009706Y010995D01*
X009746Y010965D01*
X009784Y010932D01*
X009819Y010896D01*
X009852Y010857D01*
X009881Y010816D01*
X009907Y010773D01*
X009930Y010728D01*
X009949Y010681D01*
X009964Y010633D01*
X009976Y010584D01*
X009984Y010534D01*
X009988Y010484D01*
X009988Y010434D01*
X009984Y010384D01*
X009976Y010334D01*
X009964Y010285D01*
X009949Y010237D01*
X009930Y010190D01*
X009907Y010145D01*
X009881Y010102D01*
X009852Y010061D01*
X009819Y010022D01*
X009784Y009986D01*
X009746Y009953D01*
X009706Y009923D01*
X009663Y009896D01*
X009618Y009873D01*
X009572Y009853D01*
X009524Y009836D01*
X009476Y009824D01*
X009426Y009815D01*
X009376Y009810D01*
X009325Y009809D01*
X009275Y009812D01*
X009225Y009819D01*
X009176Y009830D01*
X009128Y009844D01*
X009081Y009862D01*
X009035Y009884D01*
X008991Y009909D01*
X008950Y009938D01*
X008911Y009969D01*
X008874Y010004D01*
X008840Y010041D01*
X008809Y010081D01*
X008781Y010123D01*
X008757Y010167D01*
X008736Y010213D01*
X008719Y010261D01*
X008706Y010309D01*
X008696Y010359D01*
X008690Y010409D01*
X008688Y010459D01*
D14*
X018519Y013415D02*
X018545Y013439D01*
X018568Y013416D01*
X018594Y013396D01*
X018622Y013380D01*
X018652Y013367D01*
X018683Y013358D01*
X018715Y013352D01*
X018747Y013350D01*
X018779Y013352D01*
X018811Y013358D01*
X018842Y013367D01*
X018872Y013380D01*
X018900Y013396D01*
X018926Y013416D01*
X018949Y013439D01*
X018975Y013415D01*
X018976Y013414D01*
X018951Y013390D01*
X018924Y013369D01*
X018895Y013351D01*
X018864Y013337D01*
X018832Y013326D01*
X018798Y013318D01*
X018764Y013314D01*
X018730Y013314D01*
X018696Y013318D01*
X018662Y013326D01*
X018630Y013337D01*
X018599Y013351D01*
X018570Y013369D01*
X018543Y013390D01*
X018518Y013414D01*
X018520Y013416D01*
X018545Y013393D01*
X018572Y013372D01*
X018600Y013354D01*
X018631Y013340D01*
X018663Y013329D01*
X018696Y013321D01*
X018730Y013317D01*
X018764Y013317D01*
X018798Y013321D01*
X018831Y013329D01*
X018863Y013340D01*
X018894Y013354D01*
X018922Y013372D01*
X018949Y013393D01*
X018974Y013416D01*
X018971Y013418D01*
X018947Y013395D01*
X018921Y013374D01*
X018892Y013357D01*
X018862Y013342D01*
X018830Y013331D01*
X018797Y013324D01*
X018764Y013320D01*
X018730Y013320D01*
X018697Y013324D01*
X018664Y013331D01*
X018632Y013342D01*
X018602Y013357D01*
X018573Y013374D01*
X018547Y013395D01*
X018523Y013418D01*
X018525Y013420D01*
X018549Y013397D01*
X018575Y013377D01*
X018603Y013359D01*
X018633Y013345D01*
X018665Y013334D01*
X018697Y013327D01*
X018730Y013323D01*
X018764Y013323D01*
X018797Y013327D01*
X018829Y013334D01*
X018861Y013345D01*
X018891Y013359D01*
X018919Y013377D01*
X018945Y013397D01*
X018969Y013420D01*
X018967Y013422D01*
X018943Y013399D01*
X018917Y013379D01*
X018889Y013362D01*
X018859Y013348D01*
X018828Y013337D01*
X018796Y013330D01*
X018763Y013326D01*
X018731Y013326D01*
X018698Y013330D01*
X018666Y013337D01*
X018635Y013348D01*
X018605Y013362D01*
X018577Y013379D01*
X018551Y013399D01*
X018527Y013422D01*
X018529Y013424D01*
X018553Y013402D01*
X018578Y013382D01*
X018606Y013365D01*
X018636Y013351D01*
X018667Y013340D01*
X018698Y013333D01*
X018731Y013329D01*
X018763Y013329D01*
X018796Y013333D01*
X018827Y013340D01*
X018858Y013351D01*
X018888Y013365D01*
X018916Y013382D01*
X018941Y013402D01*
X018965Y013424D01*
X018962Y013426D01*
X018939Y013404D01*
X018914Y013384D01*
X018886Y013367D01*
X018857Y013354D01*
X018827Y013343D01*
X018795Y013336D01*
X018763Y013332D01*
X018731Y013332D01*
X018699Y013336D01*
X018667Y013343D01*
X018637Y013354D01*
X018608Y013367D01*
X018580Y013384D01*
X018555Y013404D01*
X018532Y013426D01*
X018534Y013428D01*
X018557Y013406D01*
X018582Y013387D01*
X018609Y013370D01*
X018638Y013356D01*
X018668Y013346D01*
X018699Y013339D01*
X018731Y013335D01*
X018763Y013335D01*
X018795Y013339D01*
X018826Y013346D01*
X018856Y013356D01*
X018885Y013370D01*
X018912Y013387D01*
X018937Y013406D01*
X018960Y013428D01*
X018958Y013430D01*
X018935Y013408D01*
X018910Y013389D01*
X018883Y013373D01*
X018855Y013359D01*
X018825Y013349D01*
X018794Y013342D01*
X018763Y013338D01*
X018731Y013338D01*
X018700Y013342D01*
X018669Y013349D01*
X018639Y013359D01*
X018611Y013373D01*
X018584Y013389D01*
X018559Y013408D01*
X018536Y013430D01*
X018538Y013432D01*
X018562Y013409D01*
X018589Y013389D01*
X018618Y013372D01*
X018649Y013359D01*
X018681Y013349D01*
X018714Y013343D01*
X018747Y013341D01*
X018780Y013343D01*
X018813Y013349D01*
X018845Y013359D01*
X018876Y013372D01*
X018905Y013389D01*
X018932Y013409D01*
X018956Y013432D01*
X018954Y013435D01*
X018930Y013412D01*
X018903Y013391D01*
X018875Y013375D01*
X018844Y013361D01*
X018813Y013352D01*
X018780Y013346D01*
X018747Y013344D01*
X018714Y013346D01*
X018681Y013352D01*
X018650Y013361D01*
X018619Y013375D01*
X018591Y013391D01*
X018564Y013412D01*
X018540Y013435D01*
X018543Y013437D01*
X018566Y013414D01*
X018592Y013394D01*
X018621Y013377D01*
X018651Y013364D01*
X018682Y013355D01*
X018714Y013349D01*
X018747Y013347D01*
X018780Y013349D01*
X018812Y013355D01*
X018843Y013364D01*
X018873Y013377D01*
X018902Y013394D01*
X018928Y013414D01*
X018951Y013437D01*
X018975Y013835D02*
X018949Y013811D01*
X018926Y013834D01*
X018900Y013854D01*
X018872Y013870D01*
X018842Y013883D01*
X018811Y013892D01*
X018779Y013898D01*
X018747Y013900D01*
X018715Y013898D01*
X018683Y013892D01*
X018652Y013883D01*
X018622Y013870D01*
X018594Y013854D01*
X018568Y013834D01*
X018545Y013811D01*
X018519Y013835D01*
X018518Y013836D01*
X018543Y013860D01*
X018570Y013881D01*
X018599Y013899D01*
X018630Y013913D01*
X018662Y013924D01*
X018696Y013932D01*
X018730Y013936D01*
X018764Y013936D01*
X018798Y013932D01*
X018832Y013924D01*
X018864Y013913D01*
X018895Y013899D01*
X018924Y013881D01*
X018951Y013860D01*
X018976Y013836D01*
X018974Y013834D01*
X018949Y013857D01*
X018922Y013878D01*
X018894Y013896D01*
X018863Y013910D01*
X018831Y013921D01*
X018798Y013929D01*
X018764Y013933D01*
X018730Y013933D01*
X018696Y013929D01*
X018663Y013921D01*
X018631Y013910D01*
X018600Y013896D01*
X018572Y013878D01*
X018545Y013857D01*
X018520Y013834D01*
X018523Y013832D01*
X018547Y013855D01*
X018573Y013876D01*
X018602Y013893D01*
X018632Y013908D01*
X018664Y013919D01*
X018697Y013926D01*
X018730Y013930D01*
X018764Y013930D01*
X018797Y013926D01*
X018830Y013919D01*
X018862Y013908D01*
X018892Y013893D01*
X018921Y013876D01*
X018947Y013855D01*
X018971Y013832D01*
X018969Y013830D01*
X018945Y013853D01*
X018919Y013873D01*
X018891Y013891D01*
X018861Y013905D01*
X018829Y013916D01*
X018797Y013923D01*
X018764Y013927D01*
X018730Y013927D01*
X018697Y013923D01*
X018665Y013916D01*
X018633Y013905D01*
X018603Y013891D01*
X018575Y013873D01*
X018549Y013853D01*
X018525Y013830D01*
X018527Y013828D01*
X018551Y013851D01*
X018577Y013871D01*
X018605Y013888D01*
X018635Y013902D01*
X018666Y013913D01*
X018698Y013920D01*
X018731Y013924D01*
X018763Y013924D01*
X018796Y013920D01*
X018828Y013913D01*
X018859Y013902D01*
X018889Y013888D01*
X018917Y013871D01*
X018943Y013851D01*
X018967Y013828D01*
X018965Y013826D01*
X018941Y013848D01*
X018916Y013868D01*
X018888Y013885D01*
X018858Y013899D01*
X018827Y013910D01*
X018796Y013917D01*
X018763Y013921D01*
X018731Y013921D01*
X018698Y013917D01*
X018667Y013910D01*
X018636Y013899D01*
X018606Y013885D01*
X018578Y013868D01*
X018553Y013848D01*
X018529Y013826D01*
X018532Y013824D01*
X018555Y013846D01*
X018580Y013866D01*
X018608Y013883D01*
X018637Y013896D01*
X018667Y013907D01*
X018699Y013914D01*
X018731Y013918D01*
X018763Y013918D01*
X018795Y013914D01*
X018827Y013907D01*
X018857Y013896D01*
X018886Y013883D01*
X018914Y013866D01*
X018939Y013846D01*
X018962Y013824D01*
X018960Y013822D01*
X018937Y013844D01*
X018912Y013863D01*
X018885Y013880D01*
X018856Y013894D01*
X018826Y013904D01*
X018795Y013911D01*
X018763Y013915D01*
X018731Y013915D01*
X018699Y013911D01*
X018668Y013904D01*
X018638Y013894D01*
X018609Y013880D01*
X018582Y013863D01*
X018557Y013844D01*
X018534Y013822D01*
X018536Y013820D01*
X018559Y013842D01*
X018584Y013861D01*
X018611Y013877D01*
X018639Y013891D01*
X018669Y013901D01*
X018700Y013908D01*
X018731Y013912D01*
X018763Y013912D01*
X018794Y013908D01*
X018825Y013901D01*
X018855Y013891D01*
X018883Y013877D01*
X018910Y013861D01*
X018935Y013842D01*
X018958Y013820D01*
X018956Y013818D01*
X018932Y013841D01*
X018905Y013861D01*
X018876Y013878D01*
X018845Y013891D01*
X018813Y013901D01*
X018780Y013907D01*
X018747Y013909D01*
X018714Y013907D01*
X018681Y013901D01*
X018649Y013891D01*
X018618Y013878D01*
X018589Y013861D01*
X018562Y013841D01*
X018538Y013818D01*
X018540Y013815D01*
X018564Y013838D01*
X018591Y013859D01*
X018619Y013875D01*
X018650Y013889D01*
X018681Y013898D01*
X018714Y013904D01*
X018747Y013906D01*
X018780Y013904D01*
X018813Y013898D01*
X018844Y013889D01*
X018875Y013875D01*
X018903Y013859D01*
X018930Y013838D01*
X018954Y013815D01*
X018951Y013813D01*
X018928Y013836D01*
X018902Y013856D01*
X018873Y013873D01*
X018843Y013886D01*
X018812Y013895D01*
X018780Y013901D01*
X018747Y013903D01*
X018714Y013901D01*
X018682Y013895D01*
X018651Y013886D01*
X018621Y013873D01*
X018592Y013856D01*
X018566Y013836D01*
X018543Y013813D01*
X019014Y006859D02*
X018988Y006835D01*
X018965Y006858D01*
X018939Y006878D01*
X018911Y006894D01*
X018881Y006907D01*
X018850Y006916D01*
X018818Y006922D01*
X018786Y006924D01*
X018754Y006922D01*
X018722Y006916D01*
X018691Y006907D01*
X018661Y006894D01*
X018633Y006878D01*
X018607Y006858D01*
X018584Y006835D01*
X018558Y006859D01*
X018557Y006860D01*
X018582Y006884D01*
X018609Y006905D01*
X018638Y006923D01*
X018669Y006937D01*
X018701Y006948D01*
X018735Y006956D01*
X018769Y006960D01*
X018803Y006960D01*
X018837Y006956D01*
X018871Y006948D01*
X018903Y006937D01*
X018934Y006923D01*
X018963Y006905D01*
X018990Y006884D01*
X019015Y006860D01*
X019013Y006858D01*
X018988Y006881D01*
X018961Y006902D01*
X018933Y006920D01*
X018902Y006934D01*
X018870Y006945D01*
X018837Y006953D01*
X018803Y006957D01*
X018769Y006957D01*
X018735Y006953D01*
X018702Y006945D01*
X018670Y006934D01*
X018639Y006920D01*
X018611Y006902D01*
X018584Y006881D01*
X018559Y006858D01*
X018562Y006856D01*
X018586Y006879D01*
X018612Y006900D01*
X018641Y006917D01*
X018671Y006932D01*
X018703Y006943D01*
X018736Y006950D01*
X018769Y006954D01*
X018803Y006954D01*
X018836Y006950D01*
X018869Y006943D01*
X018901Y006932D01*
X018931Y006917D01*
X018960Y006900D01*
X018986Y006879D01*
X019010Y006856D01*
X019008Y006854D01*
X018984Y006877D01*
X018958Y006897D01*
X018930Y006915D01*
X018900Y006929D01*
X018868Y006940D01*
X018836Y006947D01*
X018803Y006951D01*
X018769Y006951D01*
X018736Y006947D01*
X018704Y006940D01*
X018672Y006929D01*
X018642Y006915D01*
X018614Y006897D01*
X018588Y006877D01*
X018564Y006854D01*
X018566Y006852D01*
X018590Y006875D01*
X018616Y006895D01*
X018644Y006912D01*
X018674Y006926D01*
X018705Y006937D01*
X018737Y006944D01*
X018770Y006948D01*
X018802Y006948D01*
X018835Y006944D01*
X018867Y006937D01*
X018898Y006926D01*
X018928Y006912D01*
X018956Y006895D01*
X018982Y006875D01*
X019006Y006852D01*
X019004Y006850D01*
X018980Y006872D01*
X018955Y006892D01*
X018927Y006909D01*
X018897Y006923D01*
X018866Y006934D01*
X018835Y006941D01*
X018802Y006945D01*
X018770Y006945D01*
X018737Y006941D01*
X018706Y006934D01*
X018675Y006923D01*
X018645Y006909D01*
X018617Y006892D01*
X018592Y006872D01*
X018568Y006850D01*
X018571Y006848D01*
X018594Y006870D01*
X018619Y006890D01*
X018647Y006907D01*
X018676Y006920D01*
X018706Y006931D01*
X018738Y006938D01*
X018770Y006942D01*
X018802Y006942D01*
X018834Y006938D01*
X018866Y006931D01*
X018896Y006920D01*
X018925Y006907D01*
X018953Y006890D01*
X018978Y006870D01*
X019001Y006848D01*
X018999Y006846D01*
X018976Y006868D01*
X018951Y006887D01*
X018924Y006904D01*
X018895Y006918D01*
X018865Y006928D01*
X018834Y006935D01*
X018802Y006939D01*
X018770Y006939D01*
X018738Y006935D01*
X018707Y006928D01*
X018677Y006918D01*
X018648Y006904D01*
X018621Y006887D01*
X018596Y006868D01*
X018573Y006846D01*
X018575Y006844D01*
X018598Y006866D01*
X018623Y006885D01*
X018650Y006901D01*
X018678Y006915D01*
X018708Y006925D01*
X018739Y006932D01*
X018770Y006936D01*
X018802Y006936D01*
X018833Y006932D01*
X018864Y006925D01*
X018894Y006915D01*
X018922Y006901D01*
X018949Y006885D01*
X018974Y006866D01*
X018997Y006844D01*
X018995Y006842D01*
X018971Y006865D01*
X018944Y006885D01*
X018915Y006902D01*
X018884Y006915D01*
X018852Y006925D01*
X018819Y006931D01*
X018786Y006933D01*
X018753Y006931D01*
X018720Y006925D01*
X018688Y006915D01*
X018657Y006902D01*
X018628Y006885D01*
X018601Y006865D01*
X018577Y006842D01*
X018579Y006839D01*
X018603Y006862D01*
X018630Y006883D01*
X018658Y006899D01*
X018689Y006913D01*
X018720Y006922D01*
X018753Y006928D01*
X018786Y006930D01*
X018819Y006928D01*
X018852Y006922D01*
X018883Y006913D01*
X018914Y006899D01*
X018942Y006883D01*
X018969Y006862D01*
X018993Y006839D01*
X018990Y006837D01*
X018967Y006860D01*
X018941Y006880D01*
X018912Y006897D01*
X018882Y006910D01*
X018851Y006919D01*
X018819Y006925D01*
X018786Y006927D01*
X018753Y006925D01*
X018721Y006919D01*
X018690Y006910D01*
X018660Y006897D01*
X018631Y006880D01*
X018605Y006860D01*
X018582Y006837D01*
X018558Y006439D02*
X018584Y006463D01*
X018607Y006440D01*
X018633Y006420D01*
X018661Y006404D01*
X018691Y006391D01*
X018722Y006382D01*
X018754Y006376D01*
X018786Y006374D01*
X018818Y006376D01*
X018850Y006382D01*
X018881Y006391D01*
X018911Y006404D01*
X018939Y006420D01*
X018965Y006440D01*
X018988Y006463D01*
X019014Y006439D01*
X019015Y006438D01*
X018990Y006414D01*
X018963Y006393D01*
X018934Y006375D01*
X018903Y006361D01*
X018871Y006350D01*
X018837Y006342D01*
X018803Y006338D01*
X018769Y006338D01*
X018735Y006342D01*
X018701Y006350D01*
X018669Y006361D01*
X018638Y006375D01*
X018609Y006393D01*
X018582Y006414D01*
X018557Y006438D01*
X018559Y006440D01*
X018584Y006417D01*
X018611Y006396D01*
X018639Y006378D01*
X018670Y006364D01*
X018702Y006353D01*
X018735Y006345D01*
X018769Y006341D01*
X018803Y006341D01*
X018837Y006345D01*
X018870Y006353D01*
X018902Y006364D01*
X018933Y006378D01*
X018961Y006396D01*
X018988Y006417D01*
X019013Y006440D01*
X019010Y006442D01*
X018986Y006419D01*
X018960Y006398D01*
X018931Y006381D01*
X018901Y006366D01*
X018869Y006355D01*
X018836Y006348D01*
X018803Y006344D01*
X018769Y006344D01*
X018736Y006348D01*
X018703Y006355D01*
X018671Y006366D01*
X018641Y006381D01*
X018612Y006398D01*
X018586Y006419D01*
X018562Y006442D01*
X018564Y006444D01*
X018588Y006421D01*
X018614Y006401D01*
X018642Y006383D01*
X018672Y006369D01*
X018704Y006358D01*
X018736Y006351D01*
X018769Y006347D01*
X018803Y006347D01*
X018836Y006351D01*
X018868Y006358D01*
X018900Y006369D01*
X018930Y006383D01*
X018958Y006401D01*
X018984Y006421D01*
X019008Y006444D01*
X019006Y006446D01*
X018982Y006423D01*
X018956Y006403D01*
X018928Y006386D01*
X018898Y006372D01*
X018867Y006361D01*
X018835Y006354D01*
X018802Y006350D01*
X018770Y006350D01*
X018737Y006354D01*
X018705Y006361D01*
X018674Y006372D01*
X018644Y006386D01*
X018616Y006403D01*
X018590Y006423D01*
X018566Y006446D01*
X018568Y006448D01*
X018592Y006426D01*
X018617Y006406D01*
X018645Y006389D01*
X018675Y006375D01*
X018706Y006364D01*
X018737Y006357D01*
X018770Y006353D01*
X018802Y006353D01*
X018835Y006357D01*
X018866Y006364D01*
X018897Y006375D01*
X018927Y006389D01*
X018955Y006406D01*
X018980Y006426D01*
X019004Y006448D01*
X019001Y006450D01*
X018978Y006428D01*
X018953Y006408D01*
X018925Y006391D01*
X018896Y006378D01*
X018866Y006367D01*
X018834Y006360D01*
X018802Y006356D01*
X018770Y006356D01*
X018738Y006360D01*
X018706Y006367D01*
X018676Y006378D01*
X018647Y006391D01*
X018619Y006408D01*
X018594Y006428D01*
X018571Y006450D01*
X018573Y006452D01*
X018596Y006430D01*
X018621Y006411D01*
X018648Y006394D01*
X018677Y006380D01*
X018707Y006370D01*
X018738Y006363D01*
X018770Y006359D01*
X018802Y006359D01*
X018834Y006363D01*
X018865Y006370D01*
X018895Y006380D01*
X018924Y006394D01*
X018951Y006411D01*
X018976Y006430D01*
X018999Y006452D01*
X018997Y006454D01*
X018974Y006432D01*
X018949Y006413D01*
X018922Y006397D01*
X018894Y006383D01*
X018864Y006373D01*
X018833Y006366D01*
X018802Y006362D01*
X018770Y006362D01*
X018739Y006366D01*
X018708Y006373D01*
X018678Y006383D01*
X018650Y006397D01*
X018623Y006413D01*
X018598Y006432D01*
X018575Y006454D01*
X018577Y006456D01*
X018601Y006433D01*
X018628Y006413D01*
X018657Y006396D01*
X018688Y006383D01*
X018720Y006373D01*
X018753Y006367D01*
X018786Y006365D01*
X018819Y006367D01*
X018852Y006373D01*
X018884Y006383D01*
X018915Y006396D01*
X018944Y006413D01*
X018971Y006433D01*
X018995Y006456D01*
X018993Y006459D01*
X018969Y006436D01*
X018942Y006415D01*
X018914Y006399D01*
X018883Y006385D01*
X018852Y006376D01*
X018819Y006370D01*
X018786Y006368D01*
X018753Y006370D01*
X018720Y006376D01*
X018689Y006385D01*
X018658Y006399D01*
X018630Y006415D01*
X018603Y006436D01*
X018579Y006459D01*
X018582Y006461D01*
X018605Y006438D01*
X018631Y006418D01*
X018660Y006401D01*
X018690Y006388D01*
X018721Y006379D01*
X018753Y006373D01*
X018786Y006371D01*
X018819Y006373D01*
X018851Y006379D01*
X018882Y006388D01*
X018912Y006401D01*
X018941Y006418D01*
X018967Y006438D01*
X018990Y006461D01*
D15*
X018786Y006649D03*
X018747Y013625D03*
D16*
X018540Y013852D03*
X018580Y006875D03*
D17*
X020649Y005079D02*
X020999Y005079D01*
X020824Y005029D02*
X020649Y004879D01*
X020999Y004879D01*
X020824Y005029D01*
X031433Y005676D02*
X031433Y005826D01*
X031508Y005902D01*
X031583Y005902D01*
X031658Y005826D01*
X031733Y005902D01*
X031808Y005902D01*
X031883Y005826D01*
X031883Y005676D01*
X031808Y005601D01*
X031658Y005751D02*
X031658Y005826D01*
X031508Y005601D02*
X031433Y005676D01*
X031508Y003902D02*
X031433Y003826D01*
X031433Y003676D01*
X031508Y003601D01*
X031508Y003902D02*
X031583Y003902D01*
X031883Y003601D01*
X031883Y003902D01*
X031883Y001902D02*
X031883Y001601D01*
X031883Y001751D02*
X031433Y001751D01*
X031583Y001601D01*
X031583Y008463D02*
X031433Y008614D01*
X031883Y008614D01*
X031883Y008764D02*
X031883Y008463D01*
X031883Y010463D02*
X031583Y010764D01*
X031508Y010764D01*
X031433Y010689D01*
X031433Y010539D01*
X031508Y010463D01*
X031883Y010463D02*
X031883Y010764D01*
X031808Y012463D02*
X031883Y012539D01*
X031883Y012689D01*
X031808Y012764D01*
X031733Y012764D01*
X031658Y012689D01*
X031658Y012614D01*
X031658Y012689D02*
X031583Y012764D01*
X031508Y012764D01*
X031433Y012689D01*
X031433Y012539D01*
X031508Y012463D01*
X031641Y014662D02*
X034641Y014662D01*
X034641Y016862D01*
X034141Y016862D01*
X034141Y016362D01*
X032141Y016362D01*
X032141Y016862D01*
X034141Y016862D01*
X034641Y018205D02*
X031641Y018205D01*
X031641Y020405D01*
X032141Y020405D01*
X032141Y019905D01*
X034141Y019905D01*
X034141Y020405D01*
X034641Y020405D01*
X034641Y018205D01*
X032141Y016862D02*
X031641Y016862D01*
X031641Y014662D01*
X031097Y014662D02*
X028097Y014662D01*
X028097Y016862D01*
X028597Y016862D01*
X028597Y016362D01*
X030597Y016362D01*
X030597Y016862D01*
X031097Y016862D01*
X031097Y014662D01*
X027554Y014662D02*
X024554Y014662D01*
X024554Y016862D01*
X025054Y016862D01*
X025054Y016362D01*
X027054Y016362D01*
X027054Y016862D01*
X027554Y016862D01*
X027554Y014662D01*
X027054Y016862D02*
X025054Y016862D01*
X024011Y016862D02*
X023511Y016862D01*
X023511Y016362D01*
X021511Y016362D01*
X021511Y016862D01*
X023511Y016862D01*
X024011Y016862D02*
X024011Y014662D01*
X021011Y014662D01*
X021011Y016862D01*
X021511Y016862D01*
X020468Y016862D02*
X019968Y016862D01*
X019968Y016362D01*
X017968Y016362D01*
X017968Y016862D01*
X019968Y016862D01*
X020468Y016862D02*
X020468Y014662D01*
X017468Y014662D01*
X017468Y016862D01*
X017968Y016862D01*
X016924Y016862D02*
X016424Y016862D01*
X016424Y016362D01*
X014424Y016362D01*
X014424Y016862D01*
X016424Y016862D01*
X016924Y016862D02*
X016924Y014662D01*
X013924Y014662D01*
X013924Y016862D01*
X014424Y016862D01*
X013381Y016862D02*
X012881Y016862D01*
X012881Y016362D01*
X010881Y016362D01*
X010881Y016862D01*
X012881Y016862D01*
X013381Y016862D02*
X013381Y014662D01*
X010381Y014662D01*
X010381Y016862D01*
X010881Y016862D01*
X009838Y016862D02*
X009338Y016862D01*
X009338Y016362D01*
X007338Y016362D01*
X007338Y016862D01*
X009338Y016862D01*
X009838Y016862D02*
X009838Y014662D01*
X006838Y014662D01*
X006838Y016862D01*
X007338Y016862D01*
X006838Y018205D02*
X009838Y018205D01*
X009838Y020405D01*
X009338Y020405D01*
X009338Y019905D01*
X007338Y019905D01*
X007338Y020405D01*
X009338Y020405D01*
X010381Y020405D02*
X010881Y020405D01*
X010881Y019905D01*
X012881Y019905D01*
X012881Y020405D01*
X013381Y020405D01*
X013381Y018205D01*
X010381Y018205D01*
X010381Y020405D01*
X010881Y020405D02*
X012881Y020405D01*
X013924Y020405D02*
X014424Y020405D01*
X014424Y019905D01*
X016424Y019905D01*
X016424Y020405D01*
X016924Y020405D01*
X016924Y018205D01*
X013924Y018205D01*
X013924Y020405D01*
X014424Y020405D02*
X016424Y020405D01*
X017468Y020405D02*
X017968Y020405D01*
X017968Y019905D01*
X019968Y019905D01*
X019968Y020405D01*
X020468Y020405D01*
X020468Y018205D01*
X017468Y018205D01*
X017468Y020405D01*
X017968Y020405D02*
X019968Y020405D01*
X021011Y020405D02*
X021511Y020405D01*
X021511Y019905D01*
X023511Y019905D01*
X023511Y020405D01*
X024011Y020405D01*
X024011Y018205D01*
X021011Y018205D01*
X021011Y020405D01*
X021511Y020405D02*
X023511Y020405D01*
X024554Y020405D02*
X025054Y020405D01*
X025054Y019905D01*
X027054Y019905D01*
X027054Y020405D01*
X027554Y020405D01*
X027554Y018205D01*
X024554Y018205D01*
X024554Y020405D01*
X025054Y020405D02*
X027054Y020405D01*
X028097Y020405D02*
X028597Y020405D01*
X028597Y019905D01*
X030597Y019905D01*
X030597Y020405D01*
X031097Y020405D01*
X031097Y018205D01*
X028097Y018205D01*
X028097Y020405D01*
X028597Y020405D02*
X030597Y020405D01*
X032141Y020405D02*
X034141Y020405D01*
X030597Y016862D02*
X028597Y016862D01*
X020999Y012240D02*
X020649Y012240D01*
X020824Y012190D02*
X020649Y012040D01*
X020999Y012040D01*
X020824Y012190D01*
X007338Y020405D02*
X006838Y020405D01*
X006838Y018205D01*
X005873Y018027D02*
X000125Y018027D01*
X000125Y021570D01*
X005873Y021570D01*
X005873Y018027D01*
X005979Y006097D02*
X005629Y006097D01*
X005804Y005947D01*
X005979Y006097D01*
X005979Y005897D02*
X005629Y005897D01*
D18*
X005440Y004956D02*
X006188Y004956D01*
X006188Y007043D01*
X005440Y007043D01*
X005440Y004956D01*
X020440Y003933D02*
X021188Y003933D01*
X021188Y006019D01*
X020440Y006019D01*
X020440Y003933D01*
X020440Y011094D02*
X021188Y011094D01*
X021188Y013181D01*
X020440Y013181D01*
X020440Y011094D01*
D19*
X022094Y008472D02*
X022094Y013905D01*
X022097Y013940D01*
X022105Y013974D01*
X022116Y014007D01*
X022130Y014039D01*
X022148Y014069D01*
X022169Y014097D01*
X022193Y014123D01*
X022219Y014147D01*
X022247Y014167D01*
X022278Y014184D01*
X022310Y014199D01*
X022343Y014209D01*
X022378Y014216D01*
X022413Y014220D01*
X022448Y014219D01*
X022448Y014220D02*
X029259Y014220D01*
X029292Y014218D01*
X029324Y014213D01*
X029356Y014205D01*
X029387Y014193D01*
X029417Y014178D01*
X029444Y014160D01*
X029470Y014139D01*
X029493Y014116D01*
X029514Y014090D01*
X029532Y014063D01*
X029547Y014033D01*
X029559Y014002D01*
X029567Y013970D01*
X029572Y013938D01*
X029574Y013905D01*
X029574Y008472D01*
X029572Y008439D01*
X029567Y008407D01*
X029559Y008375D01*
X029547Y008344D01*
X029532Y008315D01*
X029514Y008287D01*
X029493Y008261D01*
X029470Y008238D01*
X029444Y008217D01*
X029417Y008199D01*
X029387Y008184D01*
X029356Y008172D01*
X029324Y008164D01*
X029292Y008159D01*
X029259Y008157D01*
X022448Y008157D01*
X022448Y008158D02*
X022413Y008157D01*
X022378Y008161D01*
X022343Y008168D01*
X022310Y008178D01*
X022278Y008193D01*
X022247Y008210D01*
X022219Y008230D01*
X022193Y008254D01*
X022169Y008280D01*
X022148Y008308D01*
X022130Y008338D01*
X022116Y008370D01*
X022105Y008403D01*
X022097Y008437D01*
X022094Y008472D01*
X022448Y007358D02*
X029259Y007358D01*
X029292Y007356D01*
X029324Y007351D01*
X029356Y007343D01*
X029387Y007331D01*
X029417Y007316D01*
X029444Y007298D01*
X029470Y007277D01*
X029493Y007254D01*
X029514Y007228D01*
X029532Y007201D01*
X029547Y007171D01*
X029559Y007140D01*
X029567Y007108D01*
X029572Y007076D01*
X029574Y007043D01*
X029574Y001610D01*
X029572Y001577D01*
X029567Y001545D01*
X029559Y001513D01*
X029547Y001482D01*
X029532Y001452D01*
X029514Y001425D01*
X029493Y001399D01*
X029470Y001376D01*
X029444Y001355D01*
X029417Y001337D01*
X029387Y001322D01*
X029356Y001310D01*
X029324Y001302D01*
X029292Y001297D01*
X029259Y001295D01*
X022448Y001295D01*
X022413Y001294D01*
X022378Y001298D01*
X022343Y001305D01*
X022310Y001315D01*
X022278Y001330D01*
X022247Y001347D01*
X022219Y001367D01*
X022193Y001391D01*
X022169Y001417D01*
X022148Y001445D01*
X022130Y001475D01*
X022116Y001507D01*
X022105Y001540D01*
X022097Y001574D01*
X022094Y001609D01*
X022094Y001610D02*
X022094Y007043D01*
X022097Y007078D01*
X022105Y007112D01*
X022116Y007145D01*
X022130Y007177D01*
X022148Y007207D01*
X022169Y007235D01*
X022193Y007261D01*
X022219Y007285D01*
X022247Y007305D01*
X022278Y007322D01*
X022310Y007337D01*
X022343Y007347D01*
X022378Y007354D01*
X022413Y007358D01*
X022448Y007357D01*
D20*
X011138Y005809D02*
X011138Y009059D01*
X007538Y009059D01*
X007538Y005809D01*
X011138Y005809D01*
D21*
X010338Y005384D03*
X009338Y005384D03*
X008338Y005384D03*
D22*
X015834Y006114D02*
X016188Y006114D01*
X016188Y007098D02*
X015834Y007098D01*
X015834Y004106D02*
X016188Y004106D01*
X016188Y010129D02*
X015834Y010129D01*
X016109Y011074D02*
X015440Y011074D01*
X015440Y012098D02*
X016109Y012098D01*
X003983Y013161D02*
X003314Y013161D01*
M02*
