%
M48
M72
T01C0.0236
T02C0.0240
T03C0.0320
T04C0.0394
T05C0.0400
T06C0.0512
T07C0.0520
T08C0.0551
T09C0.1181
T10C0.1300
%
T01
X13826Y8145
X13826Y9720
T02
X14101Y11610
X14101Y12279
X13708Y12673
X13117Y12673
X15716Y13972
X15558Y14523
X17133Y14444
X17684Y14996
X20558Y13657
X21700Y13657
X22290Y13066
X24574Y13933
X23786Y14681
X23196Y14681
X21188Y14877
X18905Y12909
X18629Y10822
X21897Y9129
X26188Y11216
X28353Y11177
X27920Y14759
X27920Y16846
X26031Y18027
X25440Y18618
X24141Y18499
X23078Y20389
X24495Y20980
X21031Y18499
X18511Y17555
X17408Y16964
X15243Y17909
X13314Y18303
X12881Y17870
X12408Y18578
X11936Y17870
X10912Y17948
X10046Y18303
X11345Y18657
X10204Y19956
X10204Y20980
X7369Y20389
X6503Y18814
X5716Y18027
X6503Y17988
X6503Y17437
X5716Y17082
X6503Y16413
X4023Y15665
X4023Y14877
X4219Y14051
X5676Y13933
X7408Y14366
X9692Y14877
X10086Y15271
X11031Y16767
X10401Y17161
X11818Y16767
X13708Y14799
X8038Y18303
X13629Y19208
X13944Y20311
X7408Y12673
X6070Y11925
X5282Y12476
X4692Y12476
X4574Y11885
X4574Y11098
X5637Y11177
X6070Y8499
X6857Y6767
X6464Y5311
X7330Y5035
X6345Y4051
X11897Y6570
X12566Y5901
X13235Y5901
X14377Y5901
X14928Y5901
X15322Y6807
X14377Y6964
X15755Y7870
X20282Y6216
X18235Y3696
X21306Y2830
X10597Y7515
X10597Y8185
X10597Y8854
X31385Y15232
T03
X5479Y15244
X5479Y16244
X3117Y16283
X3117Y15283
T04
X2645Y1452
X2645Y2452
X2645Y3452
X2645Y4452
X2645Y5452
X2645Y6452
X2645Y7452
X2645Y8484
X2645Y9484
X2645Y10484
X2645Y11484
X2645Y12484
X2645Y13484
X16818Y13452
X16818Y12452
X16818Y11452
X16818Y10452
X16818Y9452
X16818Y8452
X16818Y7437
X16818Y6437
X16818Y5437
X16818Y4437
X16818Y3437
X16818Y2437
X16818Y1452
X23393Y1964
X23393Y6688
X23393Y8826
X23393Y13551
T05
X23511Y15862
X22511Y15862
X21511Y15862
X19968Y15862
X18968Y15862
X17968Y15862
X16424Y15862
X15424Y15862
X14424Y15862
X12881Y15862
X11881Y15862
X10881Y15862
X9338Y15862
X8338Y15862
X7338Y15862
X7338Y19405
X8338Y19405
X9338Y19405
X10881Y19405
X11881Y19405
X12881Y19405
X14424Y19405
X15424Y19405
X16424Y19405
X17968Y19405
X18968Y19405
X19968Y19405
X21511Y19405
X22511Y19405
X23511Y19405
X25054Y19405
X26054Y19405
X27054Y19405
X28597Y19405
X29597Y19405
X30597Y19405
X32141Y19405
X33141Y19405
X34141Y19405
X34141Y15862
X33141Y15862
X32141Y15862
X30597Y15862
X29597Y15862
X28597Y15862
X27054Y15862
X26054Y15862
X25054Y15862
X10338Y4559
X9338Y4559
X8338Y4559
T06
X28196Y6688
X28196Y8826
X28196Y13551
X28196Y1964
T07
X32408Y2356
X32408Y4326
X32408Y6296
X32408Y9218
X32408Y11188
X32408Y13158
T08
X22607Y11188
X22607Y4326
T09
X4334Y18027
X3192Y19877
X5515Y19877
T10
X9338Y10459
M30
