%
M48
M72
T01C0.0118
T02C0.0320
T03C0.0394
T04C0.0400
T05C0.0512
T06C0.0520
T07C0.0551
T08C0.0787
T09C0.1181
T10C0.1300
%
T01
X3865Y6137
X4219Y7358
X4495Y8224
X6660Y8933
X5322Y10271
X4692Y10901
X3314Y11098
X3314Y10507
X8314Y6688
X17133Y3893
X17527Y10822
X18117Y12594
X19849Y14326
X20794Y15862
X24023Y14484
X25794Y14484
X23511Y11374
X15440Y13027
X12605Y13263
X10479Y13381
X11424Y14602
X10440Y14838
X9653Y14799
X9889Y16334
X12172Y17633
X13156Y17240
X14968Y15074
X18550Y18027
X18550Y18618
X5873Y16413
X5479Y16177
X4653Y15350
T02
X5401Y15259
X5401Y14259
X3038Y14259
X3038Y15259
T03
X3897Y12515
X4897Y12515
X5897Y12515
X6897Y12515
X7897Y12515
X8897Y12515
X9897Y12531
X10897Y12531
X11897Y12531
X12897Y12531
X13897Y12531
X14897Y12531
X15897Y9499
X15897Y8499
X15897Y7499
X15897Y6499
X15897Y5499
X15897Y4499
X15897Y3499
X23393Y1767
X23393Y6492
X23393Y8629
X23393Y13354
X2897Y9499
X2897Y8499
X2897Y7499
X2897Y6499
X2897Y5499
X2897Y4499
X2897Y3515
T04
X8338Y3535
X9338Y3535
X10338Y3535
X10881Y15665
X11881Y15665
X12881Y15665
X14424Y15665
X15424Y15665
X16424Y15665
X17968Y15665
X18968Y15665
X19968Y15665
X21511Y15665
X22511Y15665
X23511Y15665
X25054Y15665
X26054Y15665
X27054Y15665
X28597Y15665
X29597Y15665
X30597Y15665
X32141Y15665
X33141Y15665
X34141Y15665
X34141Y19208
X33141Y19208
X32141Y19208
X30597Y19208
X29597Y19208
X28597Y19208
X27054Y19208
X26054Y19208
X25054Y19208
X23511Y19208
X22511Y19208
X21511Y19208
X19968Y19208
X18968Y19208
X17968Y19208
X16424Y19208
X15424Y19208
X14424Y19208
X12881Y19208
X11881Y19208
X10881Y19208
X9338Y19208
X8338Y19208
X7338Y19208
X7338Y15665
X8338Y15665
X9338Y15665
T05
X28196Y13354
X28196Y8629
X28196Y6492
X28196Y1767
T06
X32408Y2159
X32408Y4129
X32408Y6099
X32408Y9022
X32408Y10992
X32408Y12962
T07
X22607Y10992
X22607Y4129
T08
X2968Y2082
X15763Y10889
T09
X4334Y17003
X3192Y18854
X5515Y18854
T10
X9338Y9435
M30
