G75*
%MOIN*%
%OFA0B0*%
%FSLAX24Y24*%
%IPPOS*%
%LPD*%
%AMOC8*
5,1,8,0,0,1.08239X$1,22.5*
%
%ADD10C,0.0840*%
%ADD11OC8,0.0840*%
%ADD12C,0.0867*%
%ADD13C,0.1970*%
%ADD14C,0.0680*%
%ADD15C,0.1380*%
%ADD16R,0.0671X0.0680*%
%ADD17OC8,0.0780*%
%ADD18C,0.0780*%
%ADD19OC8,0.0740*%
%ADD20R,0.0780X0.0780*%
%ADD21OC8,0.0476*%
D10*
X002075Y007189D03*
X002075Y008189D03*
X002075Y009189D03*
X002075Y010189D03*
X002075Y011189D03*
X002075Y012189D03*
X002075Y013189D03*
X003075Y016221D03*
X004075Y016221D03*
X005075Y016221D03*
X006075Y016221D03*
X007075Y016221D03*
X008075Y016221D03*
X009075Y016205D03*
X010075Y016205D03*
X011075Y016205D03*
X012075Y016205D03*
X013075Y016205D03*
X014075Y016205D03*
X015075Y013189D03*
X015075Y012189D03*
X015075Y011189D03*
X015075Y010189D03*
X015075Y009189D03*
X015075Y008189D03*
X015075Y007205D03*
D11*
X009075Y006185D03*
X008075Y006185D03*
X008075Y005185D03*
X008075Y004185D03*
X009075Y004185D03*
X009075Y005185D03*
D12*
X015004Y005772D03*
X002209Y014579D03*
D13*
X004398Y019599D03*
X003256Y021449D03*
X005579Y021449D03*
D14*
X010161Y021229D02*
X010761Y021229D01*
X010761Y020229D02*
X010161Y020229D01*
X010161Y019229D02*
X010761Y019229D01*
D15*
X016361Y020229D03*
D16*
X008772Y020248D03*
X007394Y020248D03*
D17*
X007524Y022197D03*
X007524Y018260D03*
X027237Y002108D03*
X028237Y002108D03*
X028237Y001108D03*
X029237Y001108D03*
X027237Y001108D03*
D18*
X008524Y018260D03*
X008524Y022197D03*
D19*
X018237Y016158D03*
X018237Y015158D03*
X018237Y014158D03*
X018237Y013158D03*
X018237Y012158D03*
X018237Y011158D03*
X018237Y010158D03*
X018237Y009158D03*
X018237Y007158D03*
X018237Y006158D03*
X018237Y005158D03*
X018237Y004158D03*
X018237Y003158D03*
X018237Y002158D03*
X037237Y002158D03*
X037237Y003158D03*
X037237Y004158D03*
X037237Y005158D03*
X037237Y006158D03*
X037237Y007158D03*
X037237Y008158D03*
X037237Y009158D03*
X037237Y010758D03*
X037237Y011758D03*
X037237Y012758D03*
X037237Y013758D03*
X037237Y014758D03*
X037237Y015758D03*
X037237Y016758D03*
X037237Y017758D03*
X037237Y018758D03*
X037237Y019758D03*
D20*
X029237Y002108D03*
D21*
X006449Y005189D03*
X006449Y007433D03*
X012040Y007433D03*
X012040Y004678D03*
X012079Y013142D03*
X011056Y013615D03*
X008063Y013142D03*
X015977Y017630D03*
X016607Y014166D03*
X025307Y010583D03*
X025307Y002119D03*
X029993Y020111D03*
X030386Y020504D03*
X030780Y020898D03*
X031174Y021292D03*
X031607Y021725D03*
X032473Y021725D03*
X032906Y021292D03*
X033300Y020898D03*
X033693Y020504D03*
X034087Y020111D03*
M02*
