G75*
%MOIN*%
%OFA0B0*%
%FSLAX24Y24*%
%IPPOS*%
%LPD*%
%AMOC8*
5,1,8,0,0,1.08239X$1,22.5*
%
%ADD10C,0.0100*%
%ADD11C,0.0030*%
%ADD12C,0.0020*%
%ADD13C,0.0000*%
D10*
X000150Y003300D02*
X000150Y023772D01*
X014717Y023772D01*
X017079Y026922D01*
X038260Y026922D01*
X038260Y000150D01*
X017079Y000150D01*
X014717Y003300D01*
X000150Y003300D01*
D11*
X024059Y012760D02*
X024121Y012822D01*
X024121Y013069D01*
X024182Y013007D02*
X024059Y013007D01*
X024304Y013007D02*
X024366Y013007D01*
X024489Y012884D01*
X024611Y012884D02*
X024796Y012884D01*
X024858Y012822D01*
X024796Y012760D01*
X024611Y012760D01*
X024611Y012945D01*
X024672Y013007D01*
X024796Y013007D01*
X024980Y013007D02*
X025103Y013007D01*
X025041Y013069D02*
X025041Y012822D01*
X024980Y012760D01*
X025225Y012822D02*
X025286Y012884D01*
X025410Y012884D01*
X025471Y012945D01*
X025410Y013007D01*
X025225Y013007D01*
X025225Y012822D02*
X025286Y012760D01*
X025471Y012760D01*
X025840Y012760D02*
X025593Y013131D01*
X025594Y013390D02*
X025656Y013452D01*
X025594Y013514D01*
X025409Y013514D01*
X025409Y013575D02*
X025409Y013390D01*
X025594Y013390D01*
X025778Y013390D02*
X025901Y013390D01*
X025839Y013390D02*
X025839Y013637D01*
X025901Y013637D01*
X026023Y013637D02*
X026208Y013637D01*
X026269Y013575D01*
X026269Y013452D01*
X026208Y013390D01*
X026023Y013390D01*
X026023Y013761D01*
X025839Y013761D02*
X025839Y013822D01*
X025594Y013637D02*
X025470Y013637D01*
X025409Y013575D01*
X026023Y013007D02*
X026146Y013007D01*
X026208Y012945D01*
X026208Y012822D01*
X026146Y012760D01*
X026023Y012760D01*
X025961Y012822D01*
X025961Y012945D01*
X026023Y013007D01*
X026392Y013007D02*
X026392Y012760D01*
X026454Y012760D02*
X026330Y012760D01*
X026576Y012760D02*
X026638Y012760D01*
X026638Y012822D01*
X026576Y012822D01*
X026576Y012760D01*
X026759Y012760D02*
X026759Y012945D01*
X026821Y013007D01*
X026944Y013007D01*
X027006Y012945D01*
X027128Y012945D02*
X027128Y012760D01*
X027313Y012760D01*
X027374Y012822D01*
X027313Y012884D01*
X027128Y012884D01*
X027128Y012945D02*
X027189Y013007D01*
X027313Y013007D01*
X027497Y013007D02*
X027620Y013007D01*
X027558Y013069D02*
X027558Y012822D01*
X027497Y012760D01*
X027742Y012760D02*
X027804Y012760D01*
X027804Y012822D01*
X027742Y012822D01*
X027742Y012760D01*
X027926Y012822D02*
X027926Y013007D01*
X027926Y012822D02*
X027987Y012760D01*
X028049Y012822D01*
X028111Y012760D01*
X028172Y012822D01*
X028172Y013007D01*
X028294Y013007D02*
X028294Y012822D01*
X028356Y012760D01*
X028417Y012822D01*
X028479Y012760D01*
X028541Y012822D01*
X028541Y013007D01*
X028662Y013007D02*
X028662Y012822D01*
X028724Y012760D01*
X028786Y012822D01*
X028847Y012760D01*
X028909Y012822D01*
X028909Y013007D01*
X029031Y013131D02*
X029277Y012760D01*
X029646Y012760D02*
X029399Y013131D01*
X029460Y013390D02*
X029460Y013761D01*
X029584Y013637D01*
X029707Y013761D01*
X029707Y013390D01*
X029339Y013452D02*
X029277Y013514D01*
X029092Y013514D01*
X029092Y013575D02*
X029092Y013390D01*
X029277Y013390D01*
X029339Y013452D01*
X029277Y013637D02*
X029154Y013637D01*
X029092Y013575D01*
X028970Y013575D02*
X028909Y013637D01*
X028724Y013637D01*
X028724Y013761D02*
X028724Y013390D01*
X028909Y013390D01*
X028970Y013452D01*
X028970Y013575D01*
X028602Y013575D02*
X028602Y013452D01*
X028540Y013390D01*
X028417Y013390D01*
X028355Y013514D02*
X028602Y013514D01*
X028602Y013575D02*
X028540Y013637D01*
X028417Y013637D01*
X028355Y013575D01*
X028355Y013514D01*
X027866Y013390D02*
X027742Y013390D01*
X027804Y013390D02*
X027804Y013761D01*
X027866Y013761D02*
X027742Y013761D01*
X027620Y013637D02*
X027620Y013390D01*
X027373Y013390D02*
X027373Y013575D01*
X027435Y013637D01*
X027620Y013637D01*
X026883Y013761D02*
X026760Y013761D01*
X026822Y013761D02*
X026822Y013390D01*
X026883Y013390D02*
X026760Y013390D01*
X026638Y013390D02*
X026638Y013637D01*
X026453Y013637D01*
X026391Y013575D01*
X026391Y013390D01*
X026392Y013192D02*
X026392Y013131D01*
X026392Y013007D02*
X026454Y013007D01*
X027006Y013131D02*
X027006Y012760D01*
X024489Y012760D02*
X024489Y013007D01*
X029768Y013007D02*
X029768Y012945D01*
X029830Y012945D01*
X029830Y013007D01*
X029768Y013007D01*
X029768Y012822D02*
X029768Y012760D01*
X029830Y012760D01*
X029830Y012822D01*
X029768Y012822D01*
X029951Y012822D02*
X030013Y012760D01*
X030198Y012760D01*
X030320Y012760D02*
X030382Y012822D01*
X030382Y013069D01*
X030444Y013007D02*
X030320Y013007D01*
X030198Y013007D02*
X030013Y013007D01*
X029951Y012945D01*
X029951Y012822D01*
X030198Y012637D02*
X030198Y013007D01*
X030566Y013007D02*
X030689Y013007D01*
X030628Y013069D02*
X030628Y012822D01*
X030566Y012760D01*
X030811Y012760D02*
X030811Y012945D01*
X030872Y013007D01*
X030996Y013007D01*
X031058Y012945D01*
X031058Y012760D02*
X031058Y013131D01*
D12*
X028771Y012483D02*
X028771Y012312D01*
X028686Y012227D01*
X028600Y012312D01*
X028600Y012483D01*
X028475Y012397D02*
X028389Y012397D01*
X028347Y012355D01*
X028347Y012312D01*
X028517Y012312D01*
X028517Y012270D02*
X028517Y012355D01*
X028475Y012397D01*
X028517Y012270D02*
X028475Y012227D01*
X028389Y012227D01*
X028263Y012227D02*
X028263Y012397D01*
X028178Y012397D02*
X028136Y012397D01*
X028178Y012397D02*
X028263Y012312D01*
X028052Y012355D02*
X028009Y012397D01*
X027881Y012397D01*
X027798Y012397D02*
X027756Y012397D01*
X027756Y012227D01*
X027798Y012227D02*
X027713Y012227D01*
X027629Y012270D02*
X027586Y012227D01*
X027501Y012227D01*
X027459Y012270D01*
X027459Y012355D01*
X027501Y012397D01*
X027586Y012397D01*
X027629Y012355D01*
X027629Y012270D01*
X027756Y012483D02*
X027756Y012525D01*
X027924Y012312D02*
X028009Y012312D01*
X028052Y012355D01*
X028052Y012227D02*
X027924Y012227D01*
X027881Y012270D01*
X027924Y012312D01*
X027375Y012227D02*
X027375Y012397D01*
X027247Y012397D01*
X027205Y012355D01*
X027205Y012227D01*
X026868Y012227D02*
X026697Y012227D01*
X026614Y012227D02*
X026571Y012227D01*
X026571Y012270D01*
X026614Y012270D01*
X026614Y012227D01*
X026487Y012270D02*
X026317Y012440D01*
X026317Y012270D01*
X026359Y012227D01*
X026445Y012227D01*
X026487Y012270D01*
X026487Y012440D01*
X026445Y012483D01*
X026359Y012483D01*
X026317Y012440D01*
X026783Y012483D02*
X026783Y012227D01*
X026868Y012397D02*
X026783Y012483D01*
D13*
X015711Y020229D02*
X015713Y020279D01*
X015719Y020329D01*
X015729Y020379D01*
X015742Y020427D01*
X015759Y020475D01*
X015780Y020521D01*
X015804Y020565D01*
X015832Y020607D01*
X015863Y020647D01*
X015897Y020684D01*
X015934Y020719D01*
X015973Y020750D01*
X016014Y020779D01*
X016058Y020804D01*
X016104Y020826D01*
X016151Y020844D01*
X016199Y020858D01*
X016248Y020869D01*
X016298Y020876D01*
X016348Y020879D01*
X016399Y020878D01*
X016449Y020873D01*
X016499Y020864D01*
X016547Y020852D01*
X016595Y020835D01*
X016641Y020815D01*
X016686Y020792D01*
X016729Y020765D01*
X016769Y020735D01*
X016807Y020702D01*
X016842Y020666D01*
X016875Y020627D01*
X016904Y020586D01*
X016930Y020543D01*
X016953Y020498D01*
X016972Y020451D01*
X016987Y020403D01*
X016999Y020354D01*
X017007Y020304D01*
X017011Y020254D01*
X017011Y020204D01*
X017007Y020154D01*
X016999Y020104D01*
X016987Y020055D01*
X016972Y020007D01*
X016953Y019960D01*
X016930Y019915D01*
X016904Y019872D01*
X016875Y019831D01*
X016842Y019792D01*
X016807Y019756D01*
X016769Y019723D01*
X016729Y019693D01*
X016686Y019666D01*
X016641Y019643D01*
X016595Y019623D01*
X016547Y019606D01*
X016499Y019594D01*
X016449Y019585D01*
X016399Y019580D01*
X016348Y019579D01*
X016298Y019582D01*
X016248Y019589D01*
X016199Y019600D01*
X016151Y019614D01*
X016104Y019632D01*
X016058Y019654D01*
X016014Y019679D01*
X015973Y019708D01*
X015934Y019739D01*
X015897Y019774D01*
X015863Y019811D01*
X015832Y019851D01*
X015804Y019893D01*
X015780Y019937D01*
X015759Y019983D01*
X015742Y020031D01*
X015729Y020079D01*
X015719Y020129D01*
X015713Y020179D01*
X015711Y020229D01*
X001815Y014579D02*
X001817Y014618D01*
X001823Y014657D01*
X001833Y014695D01*
X001846Y014732D01*
X001863Y014767D01*
X001883Y014801D01*
X001907Y014832D01*
X001934Y014861D01*
X001963Y014887D01*
X001995Y014910D01*
X002029Y014930D01*
X002065Y014946D01*
X002102Y014958D01*
X002141Y014967D01*
X002180Y014972D01*
X002219Y014973D01*
X002258Y014970D01*
X002297Y014963D01*
X002334Y014952D01*
X002371Y014938D01*
X002406Y014920D01*
X002439Y014899D01*
X002470Y014874D01*
X002498Y014847D01*
X002523Y014817D01*
X002545Y014784D01*
X002564Y014750D01*
X002579Y014714D01*
X002591Y014676D01*
X002599Y014638D01*
X002603Y014599D01*
X002603Y014559D01*
X002599Y014520D01*
X002591Y014482D01*
X002579Y014444D01*
X002564Y014408D01*
X002545Y014374D01*
X002523Y014341D01*
X002498Y014311D01*
X002470Y014284D01*
X002439Y014259D01*
X002406Y014238D01*
X002371Y014220D01*
X002334Y014206D01*
X002297Y014195D01*
X002258Y014188D01*
X002219Y014185D01*
X002180Y014186D01*
X002141Y014191D01*
X002102Y014200D01*
X002065Y014212D01*
X002029Y014228D01*
X001995Y014248D01*
X001963Y014271D01*
X001934Y014297D01*
X001907Y014326D01*
X001883Y014357D01*
X001863Y014391D01*
X001846Y014426D01*
X001833Y014463D01*
X001823Y014501D01*
X001817Y014540D01*
X001815Y014579D01*
X014610Y005772D02*
X014612Y005811D01*
X014618Y005850D01*
X014628Y005888D01*
X014641Y005925D01*
X014658Y005960D01*
X014678Y005994D01*
X014702Y006025D01*
X014729Y006054D01*
X014758Y006080D01*
X014790Y006103D01*
X014824Y006123D01*
X014860Y006139D01*
X014897Y006151D01*
X014936Y006160D01*
X014975Y006165D01*
X015014Y006166D01*
X015053Y006163D01*
X015092Y006156D01*
X015129Y006145D01*
X015166Y006131D01*
X015201Y006113D01*
X015234Y006092D01*
X015265Y006067D01*
X015293Y006040D01*
X015318Y006010D01*
X015340Y005977D01*
X015359Y005943D01*
X015374Y005907D01*
X015386Y005869D01*
X015394Y005831D01*
X015398Y005792D01*
X015398Y005752D01*
X015394Y005713D01*
X015386Y005675D01*
X015374Y005637D01*
X015359Y005601D01*
X015340Y005567D01*
X015318Y005534D01*
X015293Y005504D01*
X015265Y005477D01*
X015234Y005452D01*
X015201Y005431D01*
X015166Y005413D01*
X015129Y005399D01*
X015092Y005388D01*
X015053Y005381D01*
X015014Y005378D01*
X014975Y005379D01*
X014936Y005384D01*
X014897Y005393D01*
X014860Y005405D01*
X014824Y005421D01*
X014790Y005441D01*
X014758Y005464D01*
X014729Y005490D01*
X014702Y005519D01*
X014678Y005550D01*
X014658Y005584D01*
X014641Y005619D01*
X014628Y005656D01*
X014618Y005694D01*
X014612Y005733D01*
X014610Y005772D01*
M02*
