%
M48
M72
T01C0.0236
T02C0.0320
T03C0.0394
T04C0.0400
T05C0.0787
T06C0.1181
T07C0.1300
%
T01
X6449Y5189
X6449Y7433
X12040Y7433
X12040Y4678
X12079Y13142
X11056Y13615
X8063Y13142
X15977Y17630
X16607Y14166
X25307Y10583
X25307Y2119
X29993Y20111
X30386Y20504
X30780Y20898
X31174Y21292
X31607Y21725
X32473Y21725
X32906Y21292
X33300Y20898
X33693Y20504
X34087Y20111
T02
X8524Y18260
X7524Y18260
X7524Y22197
X8524Y22197
T03
X8075Y16221
X7075Y16221
X6075Y16221
X5075Y16221
X4075Y16221
X3075Y16221
X2075Y13189
X2075Y12189
X2075Y11189
X2075Y10189
X2075Y9189
X2075Y8189
X2075Y7189
X8075Y6185
X9075Y6185
X9075Y5185
X9075Y4185
X8075Y4185
X8075Y5185
X15075Y7205
X15075Y8189
X15075Y9189
X15075Y10189
X15075Y11189
X15075Y12189
X15075Y13189
X18237Y13158
X18237Y14158
X18237Y15158
X18237Y16158
X14075Y16205
X13075Y16205
X12075Y16205
X11075Y16205
X10075Y16205
X9075Y16205
X18237Y12158
X18237Y11158
X18237Y10158
X18237Y9158
X18237Y7158
X18237Y6158
X18237Y5158
X18237Y4158
X18237Y3158
X18237Y2158
X27237Y2108
X28237Y2108
X29237Y2108
X29237Y1108
X28237Y1108
X27237Y1108
X37237Y2158
X37237Y3158
X37237Y4158
X37237Y5158
X37237Y6158
X37237Y7158
X37237Y8158
X37237Y9158
X37237Y10758
X37237Y11758
X37237Y12758
X37237Y13758
X37237Y14758
X37237Y15758
X37237Y16758
X37237Y17758
X37237Y18758
X37237Y19758
T04
X10461Y20229
X10461Y21229
X10461Y19229
T05
X2209Y14579
X15004Y5772
T06
X4398Y19599
X3256Y21449
X5579Y21449
T07
X16361Y20229
M30
