%
M48
M72
T01C0.0236
T02C0.0240
T03C0.0320
T04C0.0394
T05C0.0400
T06C0.1181
T07C0.1300
%
T01
X11331Y3221
X22237Y3142
X24048Y3181
X22079Y8536
X14599Y13024
T02
X5317Y11223
X25937Y9205
T03
X8524Y18260
X7524Y18260
X7524Y22197
X8524Y22197
T04
X1646Y4166
X1646Y5166
X1646Y6166
X1646Y7166
X1646Y8166
X1646Y9166
X1646Y10166
X1646Y11197
X1646Y12197
X1646Y13197
X1646Y14197
X1646Y15197
X1646Y16197
X15819Y16166
X15819Y15166
X15819Y14166
X15819Y13166
X15819Y12166
X15819Y11166
X15819Y10150
X15819Y9150
X15819Y8150
X15819Y7150
X15819Y6150
X15819Y5150
X15819Y4166
X18237Y4158
X18237Y5158
X18237Y6158
X18237Y7158
X18237Y9158
X18237Y10158
X18237Y11158
X18237Y12158
X18237Y13158
X18237Y14158
X18237Y15158
X18237Y16158
X9756Y3591
X8756Y3591
X7756Y3591
X7756Y2591
X8756Y2591
X9756Y2591
X18237Y2158
X18237Y3158
X27237Y2108
X28237Y2108
X29237Y2108
X29237Y1108
X28237Y1108
X27237Y1108
X37237Y2158
X37237Y3158
X37237Y4158
X37237Y5158
X37237Y6158
X37237Y7158
X37237Y8158
X37237Y9158
X37237Y10758
X37237Y11758
X37237Y12758
X37237Y13758
X37237Y14758
X37237Y15758
X37237Y16758
X37237Y17758
X37237Y18758
X37237Y19758
T05
X10067Y19268
X10067Y20268
X10067Y21268
T06
X5579Y21449
X3256Y21449
X4398Y19599
T07
X15967Y20268
M30
