G75*
%MOIN*%
%OFA0B0*%
%FSLAX24Y24*%
%IPPOS*%
%LPD*%
%AMOC8*
5,1,8,0,0,1.08239X$1,22.5*
%
%ADD10C,0.0760*%
%ADD11OC8,0.0760*%
%ADD12C,0.1890*%
%ADD13C,0.0600*%
%ADD14OC8,0.0700*%
%ADD15C,0.0700*%
%ADD16OC8,0.0660*%
%ADD17R,0.0700X0.0700*%
%ADD18C,0.0100*%
%ADD19OC8,0.0396*%
%ADD20OC8,0.0400*%
D10*
X001646Y004166D03*
X001646Y005166D03*
X001646Y006166D03*
X001646Y007166D03*
X001646Y008166D03*
X001646Y009166D03*
X001646Y010166D03*
X001646Y011197D03*
X001646Y012197D03*
X001646Y013197D03*
X001646Y014197D03*
X001646Y015197D03*
X001646Y016197D03*
X008189Y020347D03*
X012189Y020347D03*
X015819Y016166D03*
X015819Y015166D03*
X015819Y014166D03*
X015819Y013166D03*
X015819Y012166D03*
X015819Y011166D03*
X015819Y010150D03*
X015819Y009150D03*
X015819Y008150D03*
X015819Y007150D03*
X015819Y006150D03*
X015819Y005150D03*
X015819Y004166D03*
D11*
X009756Y003591D03*
X008756Y003591D03*
X007756Y003591D03*
X007756Y002591D03*
X008756Y002591D03*
X009756Y002591D03*
D12*
X004398Y019599D03*
X003256Y021449D03*
X005579Y021449D03*
D13*
X013862Y021268D02*
X014462Y021268D01*
X014462Y020268D02*
X013862Y020268D01*
X013862Y019268D02*
X014462Y019268D01*
D14*
X007524Y018260D03*
X007524Y022197D03*
X027237Y002108D03*
X028237Y002108D03*
X028237Y001108D03*
X029237Y001108D03*
X027237Y001108D03*
D15*
X008524Y018260D03*
X008524Y022197D03*
D16*
X018237Y016158D03*
X018237Y015158D03*
X018237Y014158D03*
X018237Y013158D03*
X018237Y012158D03*
X018237Y011158D03*
X018237Y010158D03*
X018237Y009158D03*
X018237Y007158D03*
X018237Y006158D03*
X018237Y005158D03*
X018237Y004158D03*
X018237Y003158D03*
X018237Y002158D03*
X037237Y002158D03*
X037237Y003158D03*
X037237Y004158D03*
X037237Y005158D03*
X037237Y006158D03*
X037237Y007158D03*
X037237Y008158D03*
X037237Y009158D03*
X037237Y010758D03*
X037237Y011758D03*
X037237Y012758D03*
X037237Y013758D03*
X037237Y014758D03*
X037237Y015758D03*
X037237Y016758D03*
X037237Y017758D03*
X037237Y018758D03*
X037237Y019758D03*
D17*
X029237Y002108D03*
D18*
X000650Y003248D02*
X000650Y023272D01*
X003100Y023272D01*
X001540Y021712D01*
X001472Y021644D01*
X001436Y021556D01*
X001436Y016727D01*
X001323Y016680D01*
X001163Y016520D01*
X001076Y016311D01*
X001076Y016084D01*
X001163Y015874D01*
X001323Y015714D01*
X001364Y015697D01*
X001323Y015680D01*
X001163Y015520D01*
X001076Y015311D01*
X001076Y015084D01*
X001163Y014874D01*
X001323Y014714D01*
X001364Y014697D01*
X001323Y014680D01*
X001163Y014520D01*
X001076Y014311D01*
X001076Y014084D01*
X001163Y013874D01*
X001323Y013714D01*
X001364Y013697D01*
X001323Y013680D01*
X001163Y013520D01*
X001076Y013311D01*
X001076Y013084D01*
X001163Y012874D01*
X001323Y012714D01*
X001364Y012697D01*
X001323Y012680D01*
X001163Y012520D01*
X001076Y012311D01*
X001076Y012084D01*
X001163Y011874D01*
X001323Y011714D01*
X001364Y011697D01*
X001323Y011680D01*
X001163Y011520D01*
X001076Y011311D01*
X001076Y011084D01*
X001163Y010874D01*
X001323Y010714D01*
X001402Y010681D01*
X001323Y010649D01*
X001163Y010488D01*
X001076Y010279D01*
X001076Y010052D01*
X001163Y009843D01*
X001323Y009683D01*
X001364Y009666D01*
X001323Y009649D01*
X001163Y009488D01*
X001076Y009279D01*
X001076Y009052D01*
X001163Y008843D01*
X001323Y008683D01*
X001364Y008666D01*
X001323Y008649D01*
X001163Y008488D01*
X001076Y008279D01*
X001076Y008052D01*
X001163Y007843D01*
X001323Y007683D01*
X001364Y007666D01*
X001323Y007649D01*
X001163Y007488D01*
X001076Y007279D01*
X001076Y007052D01*
X001163Y006843D01*
X001323Y006683D01*
X001364Y006666D01*
X001323Y006649D01*
X001163Y006488D01*
X001076Y006279D01*
X001076Y006052D01*
X001163Y005843D01*
X001323Y005683D01*
X001364Y005666D01*
X000650Y005666D01*
X000650Y005568D02*
X001242Y005568D01*
X001163Y005488D02*
X001323Y005649D01*
X001364Y005666D01*
X001242Y005765D02*
X000650Y005765D01*
X000650Y005863D02*
X001155Y005863D01*
X001114Y005962D02*
X000650Y005962D01*
X000650Y006060D02*
X001076Y006060D01*
X001076Y006159D02*
X000650Y006159D01*
X000650Y006257D02*
X001076Y006257D01*
X001108Y006356D02*
X000650Y006356D01*
X000650Y006454D02*
X001149Y006454D01*
X001227Y006553D02*
X000650Y006553D01*
X000650Y006651D02*
X001329Y006651D01*
X001257Y006750D02*
X000650Y006750D01*
X000650Y006848D02*
X001161Y006848D01*
X001120Y006947D02*
X000650Y006947D01*
X000650Y007045D02*
X001079Y007045D01*
X001076Y007144D02*
X000650Y007144D01*
X000650Y007242D02*
X001076Y007242D01*
X001102Y007341D02*
X000650Y007341D01*
X000650Y007439D02*
X001143Y007439D01*
X001212Y007538D02*
X000650Y007538D01*
X000650Y007636D02*
X001311Y007636D01*
X001272Y007735D02*
X000650Y007735D01*
X000650Y007833D02*
X001173Y007833D01*
X001126Y007932D02*
X000650Y007932D01*
X000650Y008030D02*
X001086Y008030D01*
X001076Y008129D02*
X000650Y008129D01*
X000650Y008227D02*
X001076Y008227D01*
X001096Y008326D02*
X000650Y008326D01*
X000650Y008424D02*
X001136Y008424D01*
X001197Y008523D02*
X000650Y008523D01*
X000650Y008621D02*
X001296Y008621D01*
X001287Y008720D02*
X000650Y008720D01*
X000650Y008818D02*
X001188Y008818D01*
X001133Y008917D02*
X000650Y008917D01*
X000650Y009015D02*
X001092Y009015D01*
X001076Y009114D02*
X000650Y009114D01*
X000650Y009212D02*
X001076Y009212D01*
X001089Y009311D02*
X000650Y009311D01*
X000650Y009409D02*
X001130Y009409D01*
X001182Y009508D02*
X000650Y009508D01*
X000650Y009606D02*
X001281Y009606D01*
X001302Y009705D02*
X000650Y009705D01*
X000650Y009803D02*
X001203Y009803D01*
X001139Y009902D02*
X000650Y009902D01*
X000650Y010000D02*
X001098Y010000D01*
X001076Y010099D02*
X000650Y010099D01*
X000650Y010197D02*
X001076Y010197D01*
X001083Y010296D02*
X000650Y010296D01*
X000650Y010394D02*
X001124Y010394D01*
X001167Y010493D02*
X000650Y010493D01*
X000650Y010591D02*
X001266Y010591D01*
X001383Y010690D02*
X000650Y010690D01*
X000650Y010788D02*
X001250Y010788D01*
X001158Y010887D02*
X000650Y010887D01*
X000650Y010985D02*
X001117Y010985D01*
X001076Y011084D02*
X000650Y011084D01*
X000650Y011182D02*
X001076Y011182D01*
X001076Y011281D02*
X000650Y011281D01*
X000650Y011379D02*
X001105Y011379D01*
X001145Y011478D02*
X000650Y011478D01*
X000650Y011576D02*
X001219Y011576D01*
X001318Y011675D02*
X000650Y011675D01*
X000650Y011773D02*
X001265Y011773D01*
X001166Y011872D02*
X000650Y011872D01*
X000650Y011970D02*
X001123Y011970D01*
X001083Y012069D02*
X000650Y012069D01*
X000650Y012167D02*
X001076Y012167D01*
X001076Y012266D02*
X000650Y012266D01*
X000650Y012364D02*
X001098Y012364D01*
X001139Y012463D02*
X000650Y012463D01*
X000650Y012561D02*
X001204Y012561D01*
X001303Y012660D02*
X000650Y012660D01*
X000650Y012758D02*
X001280Y012758D01*
X001181Y012857D02*
X000650Y012857D01*
X000650Y012955D02*
X001130Y012955D01*
X001089Y013054D02*
X000650Y013054D01*
X000650Y013152D02*
X001076Y013152D01*
X001076Y013251D02*
X000650Y013251D01*
X000650Y013349D02*
X001092Y013349D01*
X001133Y013448D02*
X000650Y013448D01*
X000650Y013546D02*
X001189Y013546D01*
X001288Y013645D02*
X000650Y013645D01*
X000650Y013743D02*
X001295Y013743D01*
X001196Y013842D02*
X000650Y013842D01*
X000650Y013940D02*
X001136Y013940D01*
X001095Y014039D02*
X000650Y014039D01*
X000650Y014137D02*
X001076Y014137D01*
X001076Y014236D02*
X000650Y014236D01*
X000650Y014334D02*
X001086Y014334D01*
X001127Y014433D02*
X000650Y014433D01*
X000650Y014531D02*
X001174Y014531D01*
X001273Y014630D02*
X000650Y014630D01*
X000650Y014728D02*
X001310Y014728D01*
X001211Y014827D02*
X000650Y014827D01*
X000650Y014925D02*
X001142Y014925D01*
X001101Y015024D02*
X000650Y015024D01*
X000650Y015122D02*
X001076Y015122D01*
X001076Y015221D02*
X000650Y015221D01*
X000650Y015319D02*
X001080Y015319D01*
X001121Y015418D02*
X000650Y015418D01*
X000650Y015516D02*
X001161Y015516D01*
X001258Y015615D02*
X000650Y015615D01*
X000650Y015713D02*
X001326Y015713D01*
X001226Y015812D02*
X000650Y015812D01*
X000650Y015910D02*
X001148Y015910D01*
X001108Y016009D02*
X000650Y016009D01*
X000650Y016107D02*
X001076Y016107D01*
X001076Y016206D02*
X000650Y016206D01*
X000650Y016304D02*
X001076Y016304D01*
X001114Y016403D02*
X000650Y016403D01*
X000650Y016501D02*
X001155Y016501D01*
X001243Y016600D02*
X000650Y016600D01*
X000650Y016698D02*
X001366Y016698D01*
X001436Y016797D02*
X000650Y016797D01*
X000650Y016895D02*
X001436Y016895D01*
X001436Y016994D02*
X000650Y016994D01*
X000650Y017092D02*
X001436Y017092D01*
X001436Y017191D02*
X000650Y017191D01*
X000650Y017289D02*
X001436Y017289D01*
X001436Y017388D02*
X000650Y017388D01*
X000650Y017486D02*
X001436Y017486D01*
X001436Y017585D02*
X000650Y017585D01*
X000650Y017683D02*
X001436Y017683D01*
X001436Y017782D02*
X000650Y017782D01*
X000650Y017880D02*
X001436Y017880D01*
X001436Y017979D02*
X000650Y017979D01*
X000650Y018077D02*
X001436Y018077D01*
X001436Y018176D02*
X000650Y018176D01*
X000650Y018274D02*
X001436Y018274D01*
X001436Y018373D02*
X000650Y018373D01*
X000650Y018471D02*
X001436Y018471D01*
X001436Y018570D02*
X000650Y018570D01*
X000650Y018668D02*
X001436Y018668D01*
X001436Y018767D02*
X000650Y018767D01*
X000650Y018865D02*
X001436Y018865D01*
X001436Y018964D02*
X000650Y018964D01*
X000650Y019062D02*
X001436Y019062D01*
X001436Y019161D02*
X000650Y019161D01*
X000650Y019259D02*
X001436Y019259D01*
X001436Y019358D02*
X000650Y019358D01*
X000650Y019456D02*
X001436Y019456D01*
X001436Y019555D02*
X000650Y019555D01*
X000650Y019653D02*
X001436Y019653D01*
X001436Y019752D02*
X000650Y019752D01*
X000650Y019850D02*
X001436Y019850D01*
X001436Y019949D02*
X000650Y019949D01*
X000650Y020047D02*
X001436Y020047D01*
X001436Y020146D02*
X000650Y020146D01*
X000650Y020244D02*
X001436Y020244D01*
X001436Y020343D02*
X000650Y020343D01*
X000650Y020441D02*
X001436Y020441D01*
X001436Y020540D02*
X000650Y020540D01*
X000650Y020638D02*
X001436Y020638D01*
X001436Y020737D02*
X000650Y020737D01*
X000650Y020835D02*
X001436Y020835D01*
X001436Y020934D02*
X000650Y020934D01*
X000650Y021032D02*
X001436Y021032D01*
X001436Y021131D02*
X000650Y021131D01*
X000650Y021229D02*
X001436Y021229D01*
X001436Y021328D02*
X000650Y021328D01*
X000650Y021426D02*
X001436Y021426D01*
X001436Y021525D02*
X000650Y021525D01*
X000650Y021623D02*
X001464Y021623D01*
X001550Y021722D02*
X000650Y021722D01*
X000650Y021820D02*
X001648Y021820D01*
X001747Y021919D02*
X000650Y021919D01*
X000650Y022017D02*
X001845Y022017D01*
X001944Y022116D02*
X000650Y022116D01*
X000650Y022214D02*
X002042Y022214D01*
X002141Y022313D02*
X000650Y022313D01*
X000650Y022411D02*
X002239Y022411D01*
X002338Y022510D02*
X000650Y022510D01*
X000650Y022608D02*
X002436Y022608D01*
X002535Y022707D02*
X000650Y022707D01*
X000650Y022805D02*
X002633Y022805D01*
X002732Y022904D02*
X000650Y022904D01*
X000650Y023002D02*
X002830Y023002D01*
X002929Y023101D02*
X000650Y023101D01*
X000650Y023199D02*
X003027Y023199D01*
X003398Y023231D02*
X001676Y021508D01*
X001676Y016243D01*
X001646Y016197D01*
X002216Y016206D02*
X002568Y016206D01*
X002665Y016304D02*
X002216Y016304D01*
X002216Y016311D02*
X002129Y016520D01*
X001969Y016680D01*
X001915Y016702D01*
X001915Y021409D01*
X002186Y021679D01*
X002175Y021633D01*
X002161Y021511D01*
X002161Y021499D01*
X003206Y021499D01*
X003206Y021399D01*
X002161Y021399D01*
X002161Y021388D01*
X002175Y021266D01*
X002203Y021146D01*
X002243Y021030D01*
X002297Y020919D01*
X002362Y020815D01*
X002439Y020718D01*
X002526Y020632D01*
X002622Y020555D01*
X002726Y020489D01*
X002837Y020436D01*
X002953Y020395D01*
X003073Y020368D01*
X003195Y020354D01*
X003206Y020354D01*
X003206Y021399D01*
X003306Y021399D01*
X003306Y020354D01*
X003318Y020354D01*
X003440Y020368D01*
X003560Y020395D01*
X003676Y020436D01*
X003716Y020455D01*
X003667Y020416D01*
X003580Y020330D01*
X003504Y020233D01*
X003438Y020129D01*
X003385Y020018D01*
X003344Y019902D01*
X003317Y019783D01*
X003303Y019660D01*
X003303Y019649D01*
X004348Y019649D01*
X004348Y020694D01*
X004337Y020694D01*
X004214Y020680D01*
X004094Y020653D01*
X003978Y020612D01*
X003938Y020593D01*
X003987Y020632D01*
X004074Y020718D01*
X004151Y020815D01*
X004216Y020919D01*
X004269Y021030D01*
X004310Y021146D01*
X004337Y021266D01*
X004351Y021388D01*
X004351Y021399D01*
X003306Y021399D01*
X003306Y021499D01*
X003206Y021499D01*
X003206Y022544D01*
X003195Y022544D01*
X003073Y022530D01*
X003026Y022520D01*
X003497Y022991D01*
X015752Y022991D01*
X015771Y022986D01*
X015799Y022991D01*
X015828Y022991D01*
X015846Y022998D01*
X015865Y023001D01*
X015889Y023016D01*
X015916Y023027D01*
X015929Y023041D01*
X015946Y023051D01*
X015963Y023075D01*
X015983Y023095D01*
X015991Y023113D01*
X018186Y026141D01*
X025100Y026141D01*
X036678Y014563D01*
X036717Y014547D01*
X036717Y014543D01*
X037002Y014258D01*
X036765Y014022D01*
X035338Y014022D01*
X027174Y022185D01*
X027174Y022186D01*
X027140Y022220D01*
X027107Y022253D01*
X027107Y022253D01*
X027107Y022253D01*
X027062Y022271D01*
X027019Y022289D01*
X027018Y022289D01*
X026971Y022289D01*
X026923Y022289D01*
X012315Y022280D01*
X012268Y022280D01*
X012268Y022279D01*
X012268Y022279D01*
X012223Y022261D01*
X012180Y022243D01*
X012179Y022243D01*
X012145Y022209D01*
X011045Y021108D01*
X007549Y021108D01*
X007548Y021109D01*
X007501Y021108D01*
X007455Y021108D01*
X007454Y021108D01*
X007453Y021108D01*
X007410Y021090D01*
X007367Y021072D01*
X007366Y021071D01*
X007365Y021071D01*
X007332Y021037D01*
X007299Y021004D01*
X007299Y021004D01*
X005300Y018977D01*
X005358Y019068D01*
X005411Y019179D01*
X005452Y019295D01*
X005479Y019415D01*
X005493Y019537D01*
X005493Y019549D01*
X004448Y019549D01*
X004448Y019649D01*
X004348Y019649D01*
X004348Y019549D01*
X003303Y019549D01*
X003303Y019537D01*
X003317Y019415D01*
X003344Y019295D01*
X003385Y019179D01*
X003438Y019068D01*
X003504Y018964D01*
X003580Y018868D01*
X003667Y018781D01*
X003763Y018704D01*
X003868Y018639D01*
X003978Y018586D01*
X004094Y018545D01*
X004214Y018518D01*
X004337Y018504D01*
X004348Y018504D01*
X004348Y019549D01*
X004448Y019549D01*
X004448Y018504D01*
X004460Y018504D01*
X004582Y018518D01*
X004702Y018545D01*
X004818Y018586D01*
X004928Y018639D01*
X005030Y018703D01*
X002009Y015640D01*
X001969Y015680D01*
X001928Y015697D01*
X001969Y015714D01*
X002129Y015874D01*
X002216Y016084D01*
X002216Y016311D01*
X002178Y016403D02*
X002762Y016403D01*
X002859Y016501D02*
X002137Y016501D01*
X002050Y016600D02*
X002956Y016600D01*
X003053Y016698D02*
X001926Y016698D01*
X001915Y016797D02*
X003150Y016797D01*
X003247Y016895D02*
X001915Y016895D01*
X001915Y016994D02*
X003345Y016994D01*
X003442Y017092D02*
X001915Y017092D01*
X001915Y017191D02*
X003539Y017191D01*
X003636Y017289D02*
X001915Y017289D01*
X001915Y017388D02*
X003733Y017388D01*
X003830Y017486D02*
X001915Y017486D01*
X001915Y017585D02*
X003927Y017585D01*
X004024Y017683D02*
X001915Y017683D01*
X001915Y017782D02*
X004122Y017782D01*
X004219Y017880D02*
X001915Y017880D01*
X001915Y017979D02*
X004316Y017979D01*
X004413Y018077D02*
X001915Y018077D01*
X001915Y018176D02*
X004510Y018176D01*
X004607Y018274D02*
X001915Y018274D01*
X001915Y018373D02*
X004704Y018373D01*
X004802Y018471D02*
X001915Y018471D01*
X001915Y018570D02*
X004025Y018570D01*
X003821Y018668D02*
X001915Y018668D01*
X001915Y018767D02*
X003686Y018767D01*
X003583Y018865D02*
X001915Y018865D01*
X001915Y018964D02*
X003504Y018964D01*
X003442Y019062D02*
X001915Y019062D01*
X001915Y019161D02*
X003394Y019161D01*
X003357Y019259D02*
X001915Y019259D01*
X001915Y019358D02*
X003330Y019358D01*
X003312Y019456D02*
X001915Y019456D01*
X001915Y019555D02*
X004348Y019555D01*
X004348Y019653D02*
X004448Y019653D01*
X004448Y019649D02*
X004448Y020694D01*
X004460Y020694D01*
X004582Y020680D01*
X004702Y020653D01*
X004809Y020615D01*
X004671Y020753D01*
X004522Y021011D01*
X004444Y021300D01*
X004444Y021599D01*
X004522Y021887D01*
X004671Y022146D01*
X004882Y022357D01*
X005141Y022507D01*
X005430Y022584D01*
X005729Y022584D01*
X006017Y022507D01*
X006276Y022357D01*
X006487Y022146D01*
X006636Y021887D01*
X006714Y021599D01*
X006714Y021300D01*
X006636Y021011D01*
X006487Y020753D01*
X006276Y020541D01*
X006017Y020392D01*
X005729Y020315D01*
X005430Y020315D01*
X005158Y020387D01*
X005216Y020330D01*
X005292Y020233D01*
X005358Y020129D01*
X005411Y020018D01*
X005452Y019902D01*
X005479Y019783D01*
X005493Y019660D01*
X005493Y019649D01*
X004448Y019649D01*
X004448Y019555D02*
X005870Y019555D01*
X005967Y019653D02*
X005493Y019653D01*
X005483Y019752D02*
X006064Y019752D01*
X006161Y019850D02*
X005464Y019850D01*
X005436Y019949D02*
X006258Y019949D01*
X006356Y020047D02*
X005397Y020047D01*
X005348Y020146D02*
X006453Y020146D01*
X006550Y020244D02*
X005284Y020244D01*
X005325Y020343D02*
X005203Y020343D01*
X004786Y020638D02*
X004743Y020638D01*
X004687Y020737D02*
X004088Y020737D01*
X004053Y020638D02*
X003994Y020638D01*
X004163Y020835D02*
X004624Y020835D01*
X004567Y020934D02*
X004223Y020934D01*
X004270Y021032D02*
X004516Y021032D01*
X004490Y021131D02*
X004305Y021131D01*
X004329Y021229D02*
X004463Y021229D01*
X004444Y021328D02*
X004344Y021328D01*
X004444Y021426D02*
X003306Y021426D01*
X003306Y021499D02*
X004351Y021499D01*
X004351Y021511D01*
X004337Y021633D01*
X004310Y021753D01*
X004269Y021869D01*
X004216Y021980D01*
X004151Y022084D01*
X004074Y022180D01*
X003987Y022267D01*
X003891Y022344D01*
X003787Y022409D01*
X003676Y022462D01*
X003560Y022503D01*
X003440Y022530D01*
X003318Y022544D01*
X003306Y022544D01*
X003306Y021499D01*
X003306Y021525D02*
X003206Y021525D01*
X003206Y021623D02*
X003306Y021623D01*
X003306Y021722D02*
X003206Y021722D01*
X003206Y021820D02*
X003306Y021820D01*
X003306Y021919D02*
X003206Y021919D01*
X003206Y022017D02*
X003306Y022017D01*
X003306Y022116D02*
X003206Y022116D01*
X003206Y022214D02*
X003306Y022214D01*
X003306Y022313D02*
X003206Y022313D01*
X003206Y022411D02*
X003306Y022411D01*
X003306Y022510D02*
X003206Y022510D01*
X003114Y022608D02*
X007228Y022608D01*
X007317Y022697D02*
X007024Y022404D01*
X007024Y022227D01*
X007494Y022227D01*
X007494Y022167D01*
X007554Y022167D01*
X007554Y021697D01*
X007731Y021697D01*
X008024Y021990D01*
X008024Y021994D01*
X008066Y021891D01*
X008218Y021740D01*
X008417Y021657D01*
X008631Y021657D01*
X008830Y021740D01*
X008982Y021891D01*
X009064Y022090D01*
X009064Y022305D01*
X008982Y022503D01*
X008830Y022655D01*
X008631Y022737D01*
X008417Y022737D01*
X008218Y022655D01*
X008066Y022503D01*
X008024Y022401D01*
X008024Y022404D01*
X007731Y022697D01*
X007554Y022697D01*
X007554Y022227D01*
X007494Y022227D01*
X007494Y022697D01*
X007317Y022697D01*
X007494Y022608D02*
X007554Y022608D01*
X007554Y022510D02*
X007494Y022510D01*
X007494Y022411D02*
X007554Y022411D01*
X007554Y022313D02*
X007494Y022313D01*
X007494Y022214D02*
X006419Y022214D01*
X006505Y022116D02*
X007024Y022116D01*
X007024Y022167D02*
X007024Y021990D01*
X007317Y021697D01*
X007494Y021697D01*
X007494Y022167D01*
X007024Y022167D01*
X007024Y022313D02*
X006320Y022313D01*
X006182Y022411D02*
X007031Y022411D01*
X007129Y022510D02*
X006006Y022510D01*
X006561Y022017D02*
X007024Y022017D01*
X007096Y021919D02*
X006618Y021919D01*
X006654Y021820D02*
X007194Y021820D01*
X007293Y021722D02*
X006681Y021722D01*
X006707Y021623D02*
X011560Y021623D01*
X011658Y021722D02*
X008786Y021722D01*
X008910Y021820D02*
X011757Y021820D01*
X011855Y021919D02*
X008993Y021919D01*
X009034Y022017D02*
X011954Y022017D01*
X012052Y022116D02*
X009064Y022116D01*
X009064Y022214D02*
X012151Y022214D01*
X012179Y022243D02*
X012179Y022243D01*
X012315Y022040D02*
X026971Y022050D01*
X035239Y013782D01*
X037207Y013782D01*
X037237Y013758D01*
X037627Y014103D02*
X037472Y014258D01*
X037627Y014413D01*
X037627Y014103D01*
X037627Y014137D02*
X037593Y014137D01*
X037627Y014236D02*
X037494Y014236D01*
X037548Y014334D02*
X037627Y014334D01*
X036979Y014236D02*
X035124Y014236D01*
X035026Y014334D02*
X036925Y014334D01*
X036827Y014433D02*
X034927Y014433D01*
X034829Y014531D02*
X036728Y014531D01*
X036611Y014630D02*
X034730Y014630D01*
X034632Y014728D02*
X036512Y014728D01*
X036414Y014827D02*
X034533Y014827D01*
X034435Y014925D02*
X036315Y014925D01*
X036217Y015024D02*
X034336Y015024D01*
X034238Y015122D02*
X036118Y015122D01*
X036020Y015221D02*
X034139Y015221D01*
X034041Y015319D02*
X035921Y015319D01*
X035823Y015418D02*
X033942Y015418D01*
X033844Y015516D02*
X035724Y015516D01*
X035626Y015615D02*
X033745Y015615D01*
X033647Y015713D02*
X035527Y015713D01*
X035429Y015812D02*
X033548Y015812D01*
X033450Y015910D02*
X035330Y015910D01*
X035232Y016009D02*
X033351Y016009D01*
X033253Y016107D02*
X035133Y016107D01*
X035035Y016206D02*
X033154Y016206D01*
X033056Y016304D02*
X034936Y016304D01*
X034838Y016403D02*
X032957Y016403D01*
X032859Y016501D02*
X034739Y016501D01*
X034641Y016600D02*
X032760Y016600D01*
X032662Y016698D02*
X034542Y016698D01*
X034444Y016797D02*
X032563Y016797D01*
X032465Y016895D02*
X034345Y016895D01*
X034247Y016994D02*
X032366Y016994D01*
X032268Y017092D02*
X034148Y017092D01*
X034050Y017191D02*
X032169Y017191D01*
X032071Y017289D02*
X033951Y017289D01*
X033853Y017388D02*
X031972Y017388D01*
X031874Y017486D02*
X033754Y017486D01*
X033656Y017585D02*
X031775Y017585D01*
X031677Y017683D02*
X033557Y017683D01*
X033459Y017782D02*
X031578Y017782D01*
X031480Y017880D02*
X033360Y017880D01*
X033262Y017979D02*
X031381Y017979D01*
X031283Y018077D02*
X033163Y018077D01*
X033065Y018176D02*
X031184Y018176D01*
X031086Y018274D02*
X032966Y018274D01*
X032868Y018373D02*
X030987Y018373D01*
X030889Y018471D02*
X032769Y018471D01*
X032671Y018570D02*
X030790Y018570D01*
X030692Y018668D02*
X032572Y018668D01*
X032474Y018767D02*
X030593Y018767D01*
X030495Y018865D02*
X032375Y018865D01*
X032277Y018964D02*
X030396Y018964D01*
X030298Y019062D02*
X032178Y019062D01*
X032080Y019161D02*
X030199Y019161D01*
X030100Y019259D02*
X031981Y019259D01*
X031883Y019358D02*
X030002Y019358D01*
X029903Y019456D02*
X031784Y019456D01*
X031686Y019555D02*
X029805Y019555D01*
X029706Y019653D02*
X031587Y019653D01*
X031489Y019752D02*
X029608Y019752D01*
X029509Y019850D02*
X031390Y019850D01*
X031292Y019949D02*
X029411Y019949D01*
X029312Y020047D02*
X031193Y020047D01*
X031095Y020146D02*
X029214Y020146D01*
X029115Y020244D02*
X030996Y020244D01*
X030898Y020343D02*
X029017Y020343D01*
X028918Y020441D02*
X030799Y020441D01*
X030701Y020540D02*
X028820Y020540D01*
X028721Y020638D02*
X030602Y020638D01*
X030504Y020737D02*
X028623Y020737D01*
X028524Y020835D02*
X030405Y020835D01*
X030307Y020934D02*
X028426Y020934D01*
X028327Y021032D02*
X030208Y021032D01*
X030110Y021131D02*
X028229Y021131D01*
X028130Y021229D02*
X030011Y021229D01*
X029913Y021328D02*
X028032Y021328D01*
X027933Y021426D02*
X029814Y021426D01*
X029716Y021525D02*
X027835Y021525D01*
X027736Y021623D02*
X029617Y021623D01*
X029519Y021722D02*
X027638Y021722D01*
X027539Y021820D02*
X029420Y021820D01*
X029322Y021919D02*
X027441Y021919D01*
X027342Y022017D02*
X029223Y022017D01*
X029125Y022116D02*
X027244Y022116D01*
X027146Y022214D02*
X029026Y022214D01*
X028928Y022313D02*
X009060Y022313D01*
X009020Y022411D02*
X028829Y022411D01*
X028731Y022510D02*
X008975Y022510D01*
X008877Y022608D02*
X028632Y022608D01*
X028534Y022707D02*
X008705Y022707D01*
X008343Y022707D02*
X003213Y022707D01*
X003311Y022805D02*
X028435Y022805D01*
X028337Y022904D02*
X003410Y022904D01*
X003398Y023231D02*
X015780Y023231D01*
X018063Y026380D01*
X025199Y026380D01*
X036813Y014766D01*
X037207Y014766D01*
X037237Y014758D01*
X037608Y015122D02*
X037627Y015122D01*
X037627Y015103D02*
X037472Y015258D01*
X037627Y015413D01*
X037627Y015103D01*
X037627Y015221D02*
X037509Y015221D01*
X037533Y015319D02*
X037627Y015319D01*
X037002Y015258D02*
X036831Y015087D01*
X025497Y026422D01*
X037760Y026422D01*
X037760Y019998D01*
X037732Y019998D01*
X037452Y020278D01*
X037021Y020278D01*
X036717Y019973D01*
X036717Y019543D01*
X037002Y019258D01*
X036717Y018973D01*
X036717Y018543D01*
X037002Y018258D01*
X036717Y017973D01*
X036717Y017543D01*
X037021Y017238D01*
X037452Y017238D01*
X037627Y017413D01*
X037627Y017047D01*
X037435Y017238D01*
X037285Y017238D01*
X037285Y016806D01*
X037188Y016806D01*
X037188Y016709D01*
X037285Y016709D01*
X037285Y016278D01*
X037435Y016278D01*
X037627Y016469D01*
X037627Y016103D01*
X037452Y016278D01*
X037021Y016278D01*
X036717Y015973D01*
X036717Y015543D01*
X037002Y015258D01*
X036964Y015221D02*
X036698Y015221D01*
X036600Y015319D02*
X036940Y015319D01*
X036842Y015418D02*
X036501Y015418D01*
X036403Y015516D02*
X036743Y015516D01*
X036717Y015615D02*
X036304Y015615D01*
X036206Y015713D02*
X036717Y015713D01*
X036717Y015812D02*
X036107Y015812D01*
X036009Y015910D02*
X036717Y015910D01*
X036752Y016009D02*
X035910Y016009D01*
X035812Y016107D02*
X036851Y016107D01*
X036949Y016206D02*
X035713Y016206D01*
X035615Y016304D02*
X037012Y016304D01*
X037038Y016278D02*
X037188Y016278D01*
X037188Y016709D01*
X036757Y016709D01*
X036757Y016559D01*
X037038Y016278D01*
X037188Y016304D02*
X037285Y016304D01*
X037285Y016403D02*
X037188Y016403D01*
X037188Y016501D02*
X037285Y016501D01*
X037285Y016600D02*
X037188Y016600D01*
X037188Y016698D02*
X037285Y016698D01*
X037188Y016797D02*
X035122Y016797D01*
X035024Y016895D02*
X036757Y016895D01*
X036757Y016957D02*
X036757Y016806D01*
X037188Y016806D01*
X037188Y017238D01*
X037038Y017238D01*
X036757Y016957D01*
X036793Y016994D02*
X034925Y016994D01*
X034827Y017092D02*
X036892Y017092D01*
X036990Y017191D02*
X034728Y017191D01*
X034630Y017289D02*
X036970Y017289D01*
X036872Y017388D02*
X034531Y017388D01*
X034433Y017486D02*
X036773Y017486D01*
X036717Y017585D02*
X034334Y017585D01*
X034236Y017683D02*
X036717Y017683D01*
X036717Y017782D02*
X034137Y017782D01*
X034039Y017880D02*
X036717Y017880D01*
X036722Y017979D02*
X033940Y017979D01*
X033842Y018077D02*
X036821Y018077D01*
X036919Y018176D02*
X033743Y018176D01*
X033645Y018274D02*
X036985Y018274D01*
X036887Y018373D02*
X033546Y018373D01*
X033448Y018471D02*
X036788Y018471D01*
X036717Y018570D02*
X033349Y018570D01*
X033251Y018668D02*
X036717Y018668D01*
X036717Y018767D02*
X033152Y018767D01*
X033054Y018865D02*
X036717Y018865D01*
X036717Y018964D02*
X032955Y018964D01*
X032857Y019062D02*
X036806Y019062D01*
X036904Y019161D02*
X032758Y019161D01*
X032660Y019259D02*
X037000Y019259D01*
X036902Y019358D02*
X032561Y019358D01*
X032463Y019456D02*
X036803Y019456D01*
X036717Y019555D02*
X032364Y019555D01*
X032266Y019653D02*
X036717Y019653D01*
X036717Y019752D02*
X032167Y019752D01*
X032069Y019850D02*
X036717Y019850D01*
X036717Y019949D02*
X031970Y019949D01*
X031872Y020047D02*
X036791Y020047D01*
X036889Y020146D02*
X031773Y020146D01*
X031675Y020244D02*
X036988Y020244D01*
X037485Y020244D02*
X037760Y020244D01*
X037760Y020146D02*
X037584Y020146D01*
X037682Y020047D02*
X037760Y020047D01*
X037747Y019758D02*
X037867Y019638D01*
X037867Y005347D01*
X037670Y005150D01*
X037244Y005150D01*
X037237Y005158D01*
X037593Y004780D02*
X037760Y004780D01*
X037760Y004878D02*
X037692Y004878D01*
X037729Y004915D02*
X037472Y004658D01*
X037756Y004373D01*
X037756Y003943D01*
X037472Y003658D01*
X037756Y003373D01*
X037756Y002943D01*
X037472Y002658D01*
X037756Y002373D01*
X037756Y001943D01*
X037452Y001638D01*
X037021Y001638D01*
X036717Y001943D01*
X036717Y002373D01*
X037002Y002658D01*
X036717Y002943D01*
X036717Y003373D01*
X037002Y003658D01*
X036763Y003896D01*
X035077Y003896D01*
X035036Y003894D01*
X035030Y003896D01*
X035024Y003896D01*
X034985Y003912D01*
X034946Y003926D01*
X034941Y003931D01*
X034935Y003933D01*
X034906Y003962D01*
X033375Y005343D01*
X028490Y005343D01*
X028342Y005195D01*
X028021Y005195D01*
X027794Y005422D01*
X027794Y005744D01*
X028021Y005971D01*
X028342Y005971D01*
X028490Y005823D01*
X033461Y005823D01*
X033502Y005825D01*
X033508Y005823D01*
X033515Y005823D01*
X033553Y005807D01*
X033592Y005793D01*
X033597Y005789D01*
X033603Y005786D01*
X033632Y005757D01*
X035163Y004376D01*
X036720Y004376D01*
X037002Y004658D01*
X036717Y004943D01*
X036717Y005373D01*
X037002Y005658D01*
X036717Y005943D01*
X036717Y005963D01*
X029482Y005963D01*
X029394Y006000D01*
X026327Y009067D01*
X026327Y009044D01*
X026099Y008815D01*
X025776Y008815D01*
X025548Y009044D01*
X025548Y009256D01*
X018756Y016047D01*
X018756Y015943D01*
X018472Y015658D01*
X018756Y015373D01*
X018756Y014943D01*
X018472Y014658D01*
X018756Y014373D01*
X018756Y013943D01*
X018472Y013658D01*
X018756Y013373D01*
X018756Y012943D01*
X018472Y012658D01*
X018756Y012373D01*
X018756Y011943D01*
X018452Y011638D01*
X018021Y011638D01*
X017717Y011943D01*
X017717Y012373D01*
X018002Y012658D01*
X017717Y012943D01*
X017717Y012952D01*
X016736Y012952D01*
X016648Y012988D01*
X016389Y013247D01*
X016389Y013052D01*
X016302Y012843D01*
X016142Y012683D01*
X016048Y012644D01*
X016097Y012619D01*
X016165Y012570D01*
X016224Y012511D01*
X016273Y012444D01*
X016310Y012369D01*
X016336Y012290D01*
X016348Y012214D01*
X015868Y012214D01*
X015868Y012117D01*
X016348Y012117D01*
X016336Y012042D01*
X016310Y011962D01*
X016273Y011888D01*
X016224Y011820D01*
X016165Y011761D01*
X016097Y011712D01*
X016023Y011675D01*
X015996Y011666D01*
X016023Y011657D01*
X016097Y011619D01*
X016165Y011570D01*
X016224Y011511D01*
X016273Y011444D01*
X016310Y011369D01*
X016336Y011290D01*
X016348Y011214D01*
X015868Y011214D01*
X015868Y011117D01*
X016348Y011117D01*
X016336Y011042D01*
X016310Y010962D01*
X016273Y010888D01*
X016224Y010820D01*
X016165Y010761D01*
X016097Y010712D01*
X016031Y010679D01*
X016142Y010633D01*
X016302Y010473D01*
X016389Y010263D01*
X016389Y010037D01*
X016302Y009827D01*
X016142Y009667D01*
X016101Y009650D01*
X016142Y009633D01*
X016302Y009473D01*
X016389Y009263D01*
X016389Y009037D01*
X016302Y008827D01*
X016142Y008667D01*
X016101Y008650D01*
X016142Y008633D01*
X016302Y008473D01*
X016389Y008263D01*
X016389Y008037D01*
X016302Y007827D01*
X016142Y007667D01*
X016101Y007650D01*
X016142Y007633D01*
X016302Y007473D01*
X016389Y007263D01*
X016389Y007037D01*
X016302Y006827D01*
X016142Y006667D01*
X016101Y006650D01*
X016142Y006633D01*
X016302Y006473D01*
X016389Y006263D01*
X016389Y006037D01*
X016302Y005827D01*
X016142Y005667D01*
X016101Y005650D01*
X016142Y005633D01*
X016302Y005473D01*
X016389Y005263D01*
X016389Y005037D01*
X016302Y004827D01*
X016142Y004667D01*
X016120Y004658D01*
X016142Y004649D01*
X016302Y004488D01*
X016389Y004279D01*
X016389Y004052D01*
X016302Y003843D01*
X016142Y003683D01*
X015933Y003596D01*
X015706Y003596D01*
X015497Y003683D01*
X015336Y003843D01*
X015250Y004052D01*
X015250Y004279D01*
X015336Y004488D01*
X015497Y004649D01*
X015519Y004658D01*
X015497Y004667D01*
X015336Y004827D01*
X015250Y005037D01*
X015250Y005263D01*
X015336Y005473D01*
X015497Y005633D01*
X015538Y005650D01*
X015497Y005667D01*
X015336Y005827D01*
X015250Y006037D01*
X015250Y006263D01*
X015336Y006473D01*
X015497Y006633D01*
X015538Y006650D01*
X015497Y006667D01*
X015336Y006827D01*
X015250Y007037D01*
X015250Y007263D01*
X015336Y007473D01*
X015497Y007633D01*
X015538Y007650D01*
X015497Y007667D01*
X015336Y007827D01*
X015250Y008037D01*
X015250Y008263D01*
X015336Y008473D01*
X015497Y008633D01*
X015538Y008650D01*
X015497Y008667D01*
X015336Y008827D01*
X015250Y009037D01*
X015250Y009263D01*
X015336Y009473D01*
X015497Y009633D01*
X015538Y009650D01*
X015497Y009667D01*
X015336Y009827D01*
X015250Y010037D01*
X015250Y010263D01*
X015336Y010473D01*
X015497Y010633D01*
X015607Y010679D01*
X015542Y010712D01*
X015474Y010761D01*
X015415Y010820D01*
X015366Y010888D01*
X015328Y010962D01*
X015302Y011042D01*
X015290Y011117D01*
X015771Y011117D01*
X015771Y011214D01*
X015290Y011214D01*
X015302Y011290D01*
X015328Y011369D01*
X015366Y011444D01*
X015415Y011511D01*
X015474Y011570D01*
X015542Y011619D01*
X015616Y011657D01*
X015643Y011666D01*
X015616Y011675D01*
X015542Y011712D01*
X015474Y011761D01*
X015415Y011820D01*
X015366Y011888D01*
X015328Y011962D01*
X015302Y012042D01*
X015290Y012117D01*
X015771Y012117D01*
X015868Y012117D01*
X015868Y011637D01*
X015868Y011214D01*
X015771Y011214D01*
X015771Y012117D01*
X015771Y012214D01*
X015290Y012214D01*
X015302Y012290D01*
X015310Y012313D01*
X010035Y007039D01*
X010035Y004118D01*
X010326Y003827D01*
X010326Y003355D01*
X010062Y003091D01*
X010326Y002827D01*
X010326Y002370D01*
X010830Y001866D01*
X017793Y001866D01*
X017717Y001943D01*
X017717Y002373D01*
X018002Y002658D01*
X017717Y002943D01*
X017717Y003373D01*
X018002Y003658D01*
X017717Y003943D01*
X017717Y004373D01*
X018002Y004658D01*
X017717Y004943D01*
X017717Y005373D01*
X018002Y005658D01*
X017717Y005943D01*
X017717Y006373D01*
X018002Y006658D01*
X017717Y006943D01*
X017717Y007373D01*
X018021Y007678D01*
X018452Y007678D01*
X018756Y007373D01*
X018756Y006943D01*
X018472Y006658D01*
X018756Y006373D01*
X018756Y005943D01*
X018472Y005658D01*
X018756Y005373D01*
X018756Y004943D01*
X018472Y004658D01*
X018756Y004373D01*
X018756Y003943D01*
X018472Y003658D01*
X018756Y003373D01*
X018756Y002943D01*
X018472Y002658D01*
X018756Y002373D01*
X018756Y002265D01*
X019325Y002834D01*
X019413Y002870D01*
X021960Y002870D01*
X021849Y002981D01*
X021849Y003303D01*
X021997Y003451D01*
X021997Y006114D01*
X020287Y007824D01*
X018084Y007824D01*
X017476Y007216D01*
X017476Y003803D01*
X017440Y003715D01*
X017372Y003648D01*
X016743Y003018D01*
X016654Y002981D01*
X011640Y002981D01*
X011492Y002833D01*
X011170Y002833D01*
X010943Y003060D01*
X010943Y003382D01*
X011170Y003609D01*
X011492Y003609D01*
X011640Y003461D01*
X016507Y003461D01*
X016997Y003950D01*
X016997Y007363D01*
X017033Y007451D01*
X017781Y008199D01*
X017849Y008267D01*
X017937Y008303D01*
X020434Y008303D01*
X020522Y008267D01*
X022372Y006416D01*
X022440Y006349D01*
X022476Y006261D01*
X022476Y003451D01*
X022624Y003303D01*
X022624Y002981D01*
X022513Y002870D01*
X024421Y002870D01*
X024592Y003042D01*
X024660Y003109D01*
X024748Y003146D01*
X028298Y003146D01*
X028386Y003109D01*
X028454Y003042D01*
X028454Y003042D01*
X028848Y002648D01*
X029351Y002648D01*
X023082Y008916D01*
X018730Y008916D01*
X018452Y008638D01*
X018021Y008638D01*
X017717Y008943D01*
X017717Y009373D01*
X018021Y009678D01*
X018452Y009678D01*
X018734Y009396D01*
X023229Y009396D01*
X023317Y009359D01*
X023385Y009292D01*
X023385Y009292D01*
X030028Y002648D01*
X030065Y002560D01*
X030065Y001628D01*
X030028Y001540D01*
X029776Y001288D01*
X029776Y000884D01*
X029542Y000650D01*
X037760Y000650D01*
X037760Y004928D01*
X037729Y004915D01*
X037760Y004681D02*
X037495Y004681D01*
X037547Y004583D02*
X037760Y004583D01*
X037760Y004484D02*
X037646Y004484D01*
X037744Y004386D02*
X037760Y004386D01*
X037756Y004287D02*
X037760Y004287D01*
X037756Y004189D02*
X037760Y004189D01*
X037756Y004090D02*
X037760Y004090D01*
X037756Y003992D02*
X037760Y003992D01*
X037760Y003893D02*
X037707Y003893D01*
X037760Y003795D02*
X037608Y003795D01*
X037510Y003696D02*
X037760Y003696D01*
X037760Y003598D02*
X037532Y003598D01*
X037631Y003499D02*
X037760Y003499D01*
X037760Y003401D02*
X037729Y003401D01*
X037756Y003302D02*
X037760Y003302D01*
X037756Y003204D02*
X037760Y003204D01*
X037756Y003105D02*
X037760Y003105D01*
X037756Y003007D02*
X037760Y003007D01*
X037760Y002908D02*
X037722Y002908D01*
X037760Y002810D02*
X037623Y002810D01*
X037525Y002711D02*
X037760Y002711D01*
X037760Y002613D02*
X037517Y002613D01*
X037616Y002514D02*
X037760Y002514D01*
X037760Y002416D02*
X037714Y002416D01*
X037756Y002317D02*
X037760Y002317D01*
X037756Y002219D02*
X037760Y002219D01*
X037756Y002120D02*
X037760Y002120D01*
X037756Y002022D02*
X037760Y002022D01*
X037760Y001923D02*
X037737Y001923D01*
X037760Y001825D02*
X037638Y001825D01*
X037540Y001726D02*
X037760Y001726D01*
X037760Y001628D02*
X030065Y001628D01*
X030065Y001726D02*
X036933Y001726D01*
X036835Y001825D02*
X030065Y001825D01*
X030065Y001923D02*
X036736Y001923D01*
X036717Y002022D02*
X030065Y002022D01*
X030065Y002120D02*
X036717Y002120D01*
X036717Y002219D02*
X030065Y002219D01*
X030065Y002317D02*
X036717Y002317D01*
X036759Y002416D02*
X030065Y002416D01*
X030065Y002514D02*
X036858Y002514D01*
X036956Y002613D02*
X030043Y002613D01*
X029965Y002711D02*
X036948Y002711D01*
X036850Y002810D02*
X029867Y002810D01*
X029768Y002908D02*
X036751Y002908D01*
X036717Y003007D02*
X029670Y003007D01*
X029571Y003105D02*
X036717Y003105D01*
X036717Y003204D02*
X029473Y003204D01*
X029374Y003302D02*
X036717Y003302D01*
X036744Y003401D02*
X029276Y003401D01*
X029177Y003499D02*
X036843Y003499D01*
X036941Y003598D02*
X029079Y003598D01*
X028980Y003696D02*
X036963Y003696D01*
X036865Y003795D02*
X028882Y003795D01*
X028783Y003893D02*
X036766Y003893D01*
X036729Y004386D02*
X035153Y004386D01*
X035044Y004484D02*
X036828Y004484D01*
X036926Y004583D02*
X034934Y004583D01*
X034825Y004681D02*
X036978Y004681D01*
X036880Y004780D02*
X034716Y004780D01*
X034607Y004878D02*
X036781Y004878D01*
X036717Y004977D02*
X034498Y004977D01*
X034388Y005075D02*
X036717Y005075D01*
X036717Y005174D02*
X034279Y005174D01*
X034170Y005272D02*
X036717Y005272D01*
X036717Y005371D02*
X034061Y005371D01*
X033951Y005469D02*
X036813Y005469D01*
X036911Y005568D02*
X033842Y005568D01*
X033733Y005666D02*
X036993Y005666D01*
X036895Y005765D02*
X033625Y005765D01*
X033467Y005583D02*
X035071Y004136D01*
X037215Y004136D01*
X037237Y004158D01*
X037627Y005503D02*
X037472Y005658D01*
X037627Y005813D01*
X037627Y005503D01*
X037627Y005568D02*
X037562Y005568D01*
X037627Y005666D02*
X037480Y005666D01*
X037578Y005765D02*
X037627Y005765D01*
X037237Y006158D02*
X037207Y006203D01*
X029530Y006203D01*
X018703Y017030D01*
X010534Y017030D01*
X001676Y008172D01*
X001646Y008166D01*
X002166Y007932D02*
X008429Y007932D01*
X008528Y008030D02*
X002207Y008030D01*
X002216Y008052D02*
X002216Y008279D01*
X002188Y008345D01*
X004928Y011085D01*
X004928Y011061D01*
X005156Y010833D01*
X005479Y010833D01*
X005707Y011061D01*
X005707Y011274D01*
X010978Y016544D01*
X015392Y016544D01*
X015336Y016488D01*
X015250Y016279D01*
X015250Y016052D01*
X015336Y015843D01*
X015497Y015683D01*
X015538Y015666D01*
X015497Y015649D01*
X015336Y015488D01*
X015250Y015279D01*
X015250Y015052D01*
X015336Y014843D01*
X015338Y014841D01*
X007002Y006505D01*
X006935Y006437D01*
X006898Y006349D01*
X006898Y003153D01*
X006935Y003065D01*
X007187Y002814D01*
X007187Y002355D01*
X007520Y002021D01*
X007979Y002021D01*
X009069Y000931D01*
X009157Y000894D01*
X018702Y000894D01*
X018790Y000931D01*
X018857Y000998D01*
X019688Y001830D01*
X026752Y001830D01*
X027001Y001580D01*
X026737Y001315D01*
X026737Y001156D01*
X027188Y001156D01*
X027188Y001059D01*
X026737Y001059D01*
X026737Y000901D01*
X026987Y000650D01*
X008310Y000650D01*
X005788Y003172D01*
X005604Y003248D01*
X000650Y003248D01*
X000650Y003302D02*
X006898Y003302D01*
X006898Y003204D02*
X005712Y003204D01*
X005855Y003105D02*
X006919Y003105D01*
X006994Y003007D02*
X005953Y003007D01*
X006052Y002908D02*
X007092Y002908D01*
X007187Y002810D02*
X006150Y002810D01*
X006249Y002711D02*
X007187Y002711D01*
X007187Y002613D02*
X006347Y002613D01*
X006446Y002514D02*
X007187Y002514D01*
X007187Y002416D02*
X006544Y002416D01*
X006643Y002317D02*
X007224Y002317D01*
X007323Y002219D02*
X006741Y002219D01*
X006840Y002120D02*
X007421Y002120D01*
X007520Y002022D02*
X006938Y002022D01*
X007037Y001923D02*
X008077Y001923D01*
X008176Y001825D02*
X007135Y001825D01*
X007234Y001726D02*
X008274Y001726D01*
X008373Y001628D02*
X007332Y001628D01*
X007431Y001529D02*
X008471Y001529D01*
X008570Y001431D02*
X007529Y001431D01*
X007628Y001332D02*
X008668Y001332D01*
X008767Y001234D02*
X007726Y001234D01*
X007825Y001135D02*
X008865Y001135D01*
X008964Y001037D02*
X007923Y001037D01*
X008022Y000938D02*
X009062Y000938D01*
X009205Y001134D02*
X007778Y002561D01*
X007756Y002591D01*
X007729Y002611D01*
X007138Y003201D01*
X007138Y006302D01*
X015800Y014963D01*
X015800Y015160D01*
X015819Y015166D01*
X016336Y014925D02*
X017734Y014925D01*
X017717Y014943D02*
X018002Y014658D01*
X017717Y014373D01*
X017717Y013943D01*
X018002Y013658D01*
X017775Y013431D01*
X016883Y013431D01*
X016352Y013962D01*
X016389Y014052D01*
X016389Y014279D01*
X016302Y014488D01*
X016142Y014649D01*
X016101Y014666D01*
X016142Y014683D01*
X016302Y014843D01*
X016389Y015052D01*
X016389Y015279D01*
X016302Y015488D01*
X016142Y015649D01*
X016101Y015666D01*
X016142Y015683D01*
X016302Y015843D01*
X016389Y016052D01*
X016389Y016279D01*
X016302Y016488D01*
X016247Y016544D01*
X017888Y016544D01*
X017717Y016373D01*
X017717Y015943D01*
X018002Y015658D01*
X017717Y015373D01*
X017717Y014943D01*
X017717Y015024D02*
X016377Y015024D01*
X016389Y015122D02*
X017717Y015122D01*
X017717Y015221D02*
X016389Y015221D01*
X016373Y015319D02*
X017717Y015319D01*
X017761Y015418D02*
X016332Y015418D01*
X016275Y015516D02*
X017860Y015516D01*
X017958Y015615D02*
X016176Y015615D01*
X016172Y015713D02*
X017946Y015713D01*
X017848Y015812D02*
X016271Y015812D01*
X016330Y015910D02*
X017749Y015910D01*
X017717Y016009D02*
X016371Y016009D01*
X016389Y016107D02*
X017717Y016107D01*
X017717Y016206D02*
X016389Y016206D01*
X016379Y016304D02*
X017717Y016304D01*
X017746Y016403D02*
X016338Y016403D01*
X016290Y016501D02*
X017845Y016501D01*
X018359Y016784D02*
X010878Y016784D01*
X005317Y011223D01*
X005707Y011182D02*
X011680Y011182D01*
X011778Y011281D02*
X005714Y011281D01*
X005813Y011379D02*
X011877Y011379D01*
X011975Y011478D02*
X005911Y011478D01*
X006010Y011576D02*
X012074Y011576D01*
X012172Y011675D02*
X006108Y011675D01*
X006207Y011773D02*
X012271Y011773D01*
X012369Y011872D02*
X006305Y011872D01*
X006404Y011970D02*
X012468Y011970D01*
X012566Y012069D02*
X006502Y012069D01*
X006601Y012167D02*
X012665Y012167D01*
X012763Y012266D02*
X006699Y012266D01*
X006798Y012364D02*
X012862Y012364D01*
X012960Y012463D02*
X006896Y012463D01*
X006995Y012561D02*
X013059Y012561D01*
X013157Y012660D02*
X007093Y012660D01*
X007192Y012758D02*
X013256Y012758D01*
X013354Y012857D02*
X007290Y012857D01*
X007389Y012955D02*
X013453Y012955D01*
X013551Y013054D02*
X007487Y013054D01*
X007586Y013152D02*
X013650Y013152D01*
X013748Y013251D02*
X007684Y013251D01*
X007783Y013349D02*
X013847Y013349D01*
X013945Y013448D02*
X007881Y013448D01*
X007980Y013546D02*
X014044Y013546D01*
X014142Y013645D02*
X008078Y013645D01*
X008177Y013743D02*
X014241Y013743D01*
X014339Y013842D02*
X008275Y013842D01*
X008374Y013940D02*
X014438Y013940D01*
X014536Y014039D02*
X008472Y014039D01*
X008571Y014137D02*
X014635Y014137D01*
X014733Y014236D02*
X008669Y014236D01*
X008768Y014334D02*
X014832Y014334D01*
X014930Y014433D02*
X008866Y014433D01*
X008965Y014531D02*
X015029Y014531D01*
X015127Y014630D02*
X009063Y014630D01*
X009162Y014728D02*
X015226Y014728D01*
X015324Y014827D02*
X009260Y014827D01*
X009359Y014925D02*
X015302Y014925D01*
X015261Y015024D02*
X009457Y015024D01*
X009556Y015122D02*
X015250Y015122D01*
X015250Y015221D02*
X009654Y015221D01*
X009753Y015319D02*
X015266Y015319D01*
X015307Y015418D02*
X009851Y015418D01*
X009950Y015516D02*
X015364Y015516D01*
X015462Y015615D02*
X010048Y015615D01*
X010147Y015713D02*
X015466Y015713D01*
X015368Y015812D02*
X010245Y015812D01*
X010344Y015910D02*
X015309Y015910D01*
X015268Y016009D02*
X010442Y016009D01*
X010541Y016107D02*
X015250Y016107D01*
X015250Y016206D02*
X010639Y016206D01*
X010738Y016304D02*
X015260Y016304D01*
X015301Y016403D02*
X010836Y016403D01*
X010935Y016501D02*
X015349Y016501D01*
X016286Y014827D02*
X017833Y014827D01*
X017931Y014728D02*
X016187Y014728D01*
X016161Y014630D02*
X017973Y014630D01*
X017875Y014531D02*
X016260Y014531D01*
X016325Y014433D02*
X017776Y014433D01*
X017717Y014334D02*
X016366Y014334D01*
X016389Y014236D02*
X017717Y014236D01*
X017717Y014137D02*
X016389Y014137D01*
X016383Y014039D02*
X017717Y014039D01*
X017719Y013940D02*
X016374Y013940D01*
X016473Y013842D02*
X017818Y013842D01*
X017916Y013743D02*
X016571Y013743D01*
X016670Y013645D02*
X017988Y013645D01*
X017890Y013546D02*
X016768Y013546D01*
X016867Y013448D02*
X017791Y013448D01*
X018211Y013191D02*
X018237Y013158D01*
X018211Y013191D02*
X016784Y013191D01*
X015849Y014126D01*
X015819Y014166D01*
X015296Y013940D02*
X015116Y013940D01*
X015214Y014039D02*
X015255Y014039D01*
X015250Y014052D02*
X015336Y013843D01*
X015497Y013683D01*
X015538Y013666D01*
X015497Y013649D01*
X015336Y013488D01*
X015250Y013279D01*
X015250Y013052D01*
X015285Y012967D01*
X009592Y007274D01*
X009556Y007186D01*
X009556Y004161D01*
X009520Y004161D01*
X009256Y003897D01*
X008992Y004161D01*
X008520Y004161D01*
X008228Y003869D01*
X007976Y004121D01*
X007805Y004121D01*
X007805Y003639D01*
X007708Y003639D01*
X007708Y004121D01*
X007537Y004121D01*
X007378Y003962D01*
X007378Y006202D01*
X015250Y014074D01*
X015250Y014052D01*
X015338Y013842D02*
X015017Y013842D01*
X014919Y013743D02*
X015436Y013743D01*
X015492Y013645D02*
X014820Y013645D01*
X014722Y013546D02*
X015394Y013546D01*
X015319Y013448D02*
X014623Y013448D01*
X014525Y013349D02*
X015279Y013349D01*
X015250Y013251D02*
X014426Y013251D01*
X014328Y013152D02*
X015250Y013152D01*
X015250Y013054D02*
X014229Y013054D01*
X014131Y012955D02*
X015273Y012955D01*
X015175Y012857D02*
X014032Y012857D01*
X013934Y012758D02*
X015076Y012758D01*
X014978Y012660D02*
X013835Y012660D01*
X013737Y012561D02*
X014879Y012561D01*
X014781Y012463D02*
X013638Y012463D01*
X013540Y012364D02*
X014682Y012364D01*
X014584Y012266D02*
X013441Y012266D01*
X013343Y012167D02*
X014485Y012167D01*
X014387Y012069D02*
X013244Y012069D01*
X013146Y011970D02*
X014288Y011970D01*
X014190Y011872D02*
X013047Y011872D01*
X012949Y011773D02*
X014091Y011773D01*
X013993Y011675D02*
X012850Y011675D01*
X012752Y011576D02*
X013894Y011576D01*
X013796Y011478D02*
X012653Y011478D01*
X012555Y011379D02*
X013697Y011379D01*
X013599Y011281D02*
X012456Y011281D01*
X012358Y011182D02*
X013500Y011182D01*
X013402Y011084D02*
X012259Y011084D01*
X012161Y010985D02*
X013303Y010985D01*
X013205Y010887D02*
X012062Y010887D01*
X011964Y010788D02*
X013106Y010788D01*
X013008Y010690D02*
X011865Y010690D01*
X011767Y010591D02*
X012909Y010591D01*
X012811Y010493D02*
X011668Y010493D01*
X011570Y010394D02*
X012712Y010394D01*
X012614Y010296D02*
X011471Y010296D01*
X011373Y010197D02*
X012515Y010197D01*
X012417Y010099D02*
X011274Y010099D01*
X011176Y010000D02*
X012318Y010000D01*
X012220Y009902D02*
X011077Y009902D01*
X010979Y009803D02*
X012121Y009803D01*
X012023Y009705D02*
X010880Y009705D01*
X010782Y009606D02*
X011924Y009606D01*
X011826Y009508D02*
X010683Y009508D01*
X010585Y009409D02*
X011727Y009409D01*
X011629Y009311D02*
X010486Y009311D01*
X010388Y009212D02*
X011530Y009212D01*
X011432Y009114D02*
X010289Y009114D01*
X010191Y009015D02*
X011333Y009015D01*
X011235Y008917D02*
X010092Y008917D01*
X009994Y008818D02*
X011136Y008818D01*
X011038Y008720D02*
X009895Y008720D01*
X009797Y008621D02*
X010939Y008621D01*
X010841Y008523D02*
X009698Y008523D01*
X009600Y008424D02*
X010742Y008424D01*
X010644Y008326D02*
X009501Y008326D01*
X009403Y008227D02*
X010545Y008227D01*
X010447Y008129D02*
X009304Y008129D01*
X009206Y008030D02*
X010348Y008030D01*
X010250Y007932D02*
X009107Y007932D01*
X009009Y007833D02*
X010151Y007833D01*
X010053Y007735D02*
X008910Y007735D01*
X008812Y007636D02*
X009954Y007636D01*
X009856Y007538D02*
X008713Y007538D01*
X008615Y007439D02*
X009757Y007439D01*
X009659Y007341D02*
X008516Y007341D01*
X008418Y007242D02*
X009579Y007242D01*
X009556Y007144D02*
X008319Y007144D01*
X008221Y007045D02*
X009556Y007045D01*
X009556Y006947D02*
X008122Y006947D01*
X008024Y006848D02*
X009556Y006848D01*
X009556Y006750D02*
X007925Y006750D01*
X007827Y006651D02*
X009556Y006651D01*
X009556Y006553D02*
X007728Y006553D01*
X007630Y006454D02*
X009556Y006454D01*
X009556Y006356D02*
X007531Y006356D01*
X007433Y006257D02*
X009556Y006257D01*
X009556Y006159D02*
X007378Y006159D01*
X007378Y006060D02*
X009556Y006060D01*
X009556Y005962D02*
X007378Y005962D01*
X007378Y005863D02*
X009556Y005863D01*
X009556Y005765D02*
X007378Y005765D01*
X007378Y005666D02*
X009556Y005666D01*
X009556Y005568D02*
X007378Y005568D01*
X007378Y005469D02*
X009556Y005469D01*
X009556Y005371D02*
X007378Y005371D01*
X007378Y005272D02*
X009556Y005272D01*
X009556Y005174D02*
X007378Y005174D01*
X007378Y005075D02*
X009556Y005075D01*
X009556Y004977D02*
X007378Y004977D01*
X007378Y004878D02*
X009556Y004878D01*
X009556Y004780D02*
X007378Y004780D01*
X007378Y004681D02*
X009556Y004681D01*
X009556Y004583D02*
X007378Y004583D01*
X007378Y004484D02*
X009556Y004484D01*
X009556Y004386D02*
X007378Y004386D01*
X007378Y004287D02*
X009556Y004287D01*
X009556Y004189D02*
X007378Y004189D01*
X007378Y004090D02*
X007506Y004090D01*
X007407Y003992D02*
X007378Y003992D01*
X007708Y003992D02*
X007805Y003992D01*
X007805Y004090D02*
X007708Y004090D01*
X007708Y003893D02*
X007805Y003893D01*
X007805Y003795D02*
X007708Y003795D01*
X007708Y003696D02*
X007805Y003696D01*
X007756Y003591D02*
X007756Y006181D01*
X014599Y013024D01*
X015262Y012266D02*
X015298Y012266D01*
X015164Y012167D02*
X015771Y012167D01*
X015868Y012167D02*
X017717Y012167D01*
X017717Y012069D02*
X016340Y012069D01*
X016313Y011970D02*
X017717Y011970D01*
X017788Y011872D02*
X016261Y011872D01*
X016176Y011773D02*
X017886Y011773D01*
X017985Y011675D02*
X016023Y011675D01*
X015868Y011675D02*
X015771Y011675D01*
X015771Y011773D02*
X015868Y011773D01*
X015868Y011872D02*
X015771Y011872D01*
X015771Y011970D02*
X015868Y011970D01*
X015868Y012069D02*
X015771Y012069D01*
X015616Y011675D02*
X014671Y011675D01*
X014770Y011773D02*
X015462Y011773D01*
X015378Y011872D02*
X014868Y011872D01*
X014967Y011970D02*
X015326Y011970D01*
X015298Y012069D02*
X015065Y012069D01*
X015482Y011576D02*
X014573Y011576D01*
X014474Y011478D02*
X015391Y011478D01*
X015333Y011379D02*
X014376Y011379D01*
X014277Y011281D02*
X015301Y011281D01*
X015296Y011084D02*
X014080Y011084D01*
X014179Y011182D02*
X015771Y011182D01*
X015868Y011182D02*
X018188Y011182D01*
X018188Y011206D02*
X018188Y011109D01*
X018285Y011109D01*
X018285Y010678D01*
X018435Y010678D01*
X018717Y010959D01*
X018717Y011109D01*
X018285Y011109D01*
X018285Y011206D01*
X018717Y011206D01*
X018717Y011357D01*
X018435Y011638D01*
X018285Y011638D01*
X018285Y011206D01*
X018188Y011206D01*
X017757Y011206D01*
X017757Y011357D01*
X018038Y011638D01*
X018188Y011638D01*
X018188Y011206D01*
X018188Y011281D02*
X018285Y011281D01*
X018285Y011379D02*
X018188Y011379D01*
X018188Y011478D02*
X018285Y011478D01*
X018285Y011576D02*
X018188Y011576D01*
X017976Y011576D02*
X016156Y011576D01*
X016248Y011478D02*
X017877Y011478D01*
X017779Y011379D02*
X016305Y011379D01*
X016338Y011281D02*
X017757Y011281D01*
X017757Y011109D02*
X017757Y010959D01*
X018038Y010678D01*
X018188Y010678D01*
X018188Y011109D01*
X017757Y011109D01*
X017757Y011084D02*
X016343Y011084D01*
X016318Y010985D02*
X017757Y010985D01*
X017829Y010887D02*
X016272Y010887D01*
X016191Y010788D02*
X017928Y010788D01*
X018026Y010690D02*
X016052Y010690D01*
X016184Y010591D02*
X017991Y010591D01*
X018038Y010638D02*
X017757Y010357D01*
X017757Y010206D01*
X018188Y010206D01*
X018188Y010109D01*
X018285Y010109D01*
X018285Y009678D01*
X018435Y009678D01*
X018717Y009959D01*
X018717Y010109D01*
X018285Y010109D01*
X018285Y010206D01*
X018717Y010206D01*
X018717Y010357D01*
X018435Y010638D01*
X018285Y010638D01*
X018285Y010206D01*
X018188Y010206D01*
X018188Y010638D01*
X018038Y010638D01*
X018188Y010591D02*
X018285Y010591D01*
X018285Y010493D02*
X018188Y010493D01*
X018188Y010394D02*
X018285Y010394D01*
X018285Y010296D02*
X018188Y010296D01*
X018188Y010197D02*
X016389Y010197D01*
X016389Y010099D02*
X017757Y010099D01*
X017757Y010109D02*
X017757Y009959D01*
X018038Y009678D01*
X018188Y009678D01*
X018188Y010109D01*
X017757Y010109D01*
X017757Y010000D02*
X016374Y010000D01*
X016333Y009902D02*
X017814Y009902D01*
X017913Y009803D02*
X016278Y009803D01*
X016180Y009705D02*
X018011Y009705D01*
X017950Y009606D02*
X016169Y009606D01*
X016268Y009508D02*
X017851Y009508D01*
X017753Y009409D02*
X016329Y009409D01*
X016370Y009311D02*
X017717Y009311D01*
X017717Y009212D02*
X016389Y009212D01*
X016389Y009114D02*
X017717Y009114D01*
X017717Y009015D02*
X016380Y009015D01*
X016339Y008917D02*
X017743Y008917D01*
X017841Y008818D02*
X016293Y008818D01*
X016195Y008720D02*
X017940Y008720D01*
X017809Y008227D02*
X016389Y008227D01*
X016389Y008129D02*
X017711Y008129D01*
X017612Y008030D02*
X016386Y008030D01*
X016346Y007932D02*
X017514Y007932D01*
X017415Y007833D02*
X016305Y007833D01*
X016210Y007735D02*
X017317Y007735D01*
X017218Y007636D02*
X016135Y007636D01*
X016238Y007538D02*
X017120Y007538D01*
X017028Y007439D02*
X016316Y007439D01*
X016357Y007341D02*
X016997Y007341D01*
X016997Y007242D02*
X016389Y007242D01*
X016389Y007144D02*
X016997Y007144D01*
X016997Y007045D02*
X016389Y007045D01*
X016352Y006947D02*
X016997Y006947D01*
X016997Y006848D02*
X016311Y006848D01*
X016225Y006750D02*
X016997Y006750D01*
X016997Y006651D02*
X016104Y006651D01*
X016223Y006553D02*
X016997Y006553D01*
X016997Y006454D02*
X016310Y006454D01*
X016351Y006356D02*
X016997Y006356D01*
X016997Y006257D02*
X016389Y006257D01*
X016389Y006159D02*
X016997Y006159D01*
X016997Y006060D02*
X016389Y006060D01*
X016358Y005962D02*
X016997Y005962D01*
X016997Y005863D02*
X016317Y005863D01*
X016240Y005765D02*
X016997Y005765D01*
X016997Y005666D02*
X016140Y005666D01*
X016208Y005568D02*
X016997Y005568D01*
X016997Y005469D02*
X016304Y005469D01*
X016345Y005371D02*
X016997Y005371D01*
X016997Y005272D02*
X016385Y005272D01*
X016389Y005174D02*
X016997Y005174D01*
X016997Y005075D02*
X016389Y005075D01*
X016364Y004977D02*
X016997Y004977D01*
X016997Y004878D02*
X016323Y004878D01*
X016255Y004780D02*
X016997Y004780D01*
X016997Y004681D02*
X016156Y004681D01*
X016208Y004583D02*
X016997Y004583D01*
X016997Y004484D02*
X016304Y004484D01*
X016345Y004386D02*
X016997Y004386D01*
X016997Y004287D02*
X016386Y004287D01*
X016389Y004189D02*
X016997Y004189D01*
X016997Y004090D02*
X016389Y004090D01*
X016364Y003992D02*
X016997Y003992D01*
X016940Y003893D02*
X016323Y003893D01*
X016254Y003795D02*
X016841Y003795D01*
X016743Y003696D02*
X016155Y003696D01*
X015936Y003598D02*
X016644Y003598D01*
X016546Y003499D02*
X011601Y003499D01*
X011503Y003598D02*
X015702Y003598D01*
X015483Y003696D02*
X010326Y003696D01*
X010326Y003598D02*
X011159Y003598D01*
X011061Y003499D02*
X010326Y003499D01*
X010326Y003401D02*
X010962Y003401D01*
X010943Y003302D02*
X010273Y003302D01*
X010175Y003204D02*
X010943Y003204D01*
X010943Y003105D02*
X010076Y003105D01*
X010147Y003007D02*
X010997Y003007D01*
X011095Y002908D02*
X010245Y002908D01*
X010326Y002810D02*
X017850Y002810D01*
X017751Y002908D02*
X011567Y002908D01*
X011331Y003221D02*
X016607Y003221D01*
X017237Y003851D01*
X017237Y007315D01*
X017985Y008063D01*
X020386Y008063D01*
X022237Y006213D01*
X022237Y003142D01*
X022527Y003401D02*
X028598Y003401D01*
X028499Y003499D02*
X022476Y003499D01*
X022476Y003598D02*
X028401Y003598D01*
X028302Y003696D02*
X022476Y003696D01*
X022476Y003795D02*
X028204Y003795D01*
X028105Y003893D02*
X022476Y003893D01*
X022476Y003992D02*
X028007Y003992D01*
X027908Y004090D02*
X022476Y004090D01*
X022476Y004189D02*
X027810Y004189D01*
X027711Y004287D02*
X022476Y004287D01*
X022476Y004386D02*
X027613Y004386D01*
X027514Y004484D02*
X022476Y004484D01*
X022476Y004583D02*
X027416Y004583D01*
X027317Y004681D02*
X022476Y004681D01*
X022476Y004780D02*
X027219Y004780D01*
X027120Y004878D02*
X022476Y004878D01*
X022476Y004977D02*
X027022Y004977D01*
X026923Y005075D02*
X022476Y005075D01*
X022476Y005174D02*
X026825Y005174D01*
X026726Y005272D02*
X022476Y005272D01*
X022476Y005371D02*
X026628Y005371D01*
X026529Y005469D02*
X022476Y005469D01*
X022476Y005568D02*
X026431Y005568D01*
X026332Y005666D02*
X022476Y005666D01*
X022476Y005765D02*
X026234Y005765D01*
X026135Y005863D02*
X022476Y005863D01*
X022476Y005962D02*
X026037Y005962D01*
X025938Y006060D02*
X022476Y006060D01*
X022476Y006159D02*
X025840Y006159D01*
X025741Y006257D02*
X022476Y006257D01*
X022433Y006356D02*
X025643Y006356D01*
X025544Y006454D02*
X022335Y006454D01*
X022236Y006553D02*
X025446Y006553D01*
X025347Y006651D02*
X022138Y006651D01*
X022039Y006750D02*
X025249Y006750D01*
X025150Y006848D02*
X021941Y006848D01*
X021842Y006947D02*
X025052Y006947D01*
X024953Y007045D02*
X021744Y007045D01*
X021645Y007144D02*
X024855Y007144D01*
X024756Y007242D02*
X021547Y007242D01*
X021448Y007341D02*
X024658Y007341D01*
X024559Y007439D02*
X021350Y007439D01*
X021251Y007538D02*
X024461Y007538D01*
X024362Y007636D02*
X021153Y007636D01*
X021054Y007735D02*
X024264Y007735D01*
X024165Y007833D02*
X020956Y007833D01*
X020857Y007932D02*
X024067Y007932D01*
X023968Y008030D02*
X020759Y008030D01*
X020660Y008129D02*
X023870Y008129D01*
X023771Y008227D02*
X020562Y008227D01*
X020376Y007735D02*
X017995Y007735D01*
X017980Y007636D02*
X017896Y007636D01*
X017881Y007538D02*
X017798Y007538D01*
X017783Y007439D02*
X017699Y007439D01*
X017717Y007341D02*
X017601Y007341D01*
X017502Y007242D02*
X017717Y007242D01*
X017717Y007144D02*
X017476Y007144D01*
X017476Y007045D02*
X017717Y007045D01*
X017717Y006947D02*
X017476Y006947D01*
X017476Y006848D02*
X017811Y006848D01*
X017910Y006750D02*
X017476Y006750D01*
X017476Y006651D02*
X017995Y006651D01*
X017896Y006553D02*
X017476Y006553D01*
X017476Y006454D02*
X017798Y006454D01*
X017717Y006356D02*
X017476Y006356D01*
X017476Y006257D02*
X017717Y006257D01*
X017717Y006159D02*
X017476Y006159D01*
X017476Y006060D02*
X017717Y006060D01*
X017717Y005962D02*
X017476Y005962D01*
X017476Y005863D02*
X017796Y005863D01*
X017895Y005765D02*
X017476Y005765D01*
X017476Y005666D02*
X017993Y005666D01*
X017911Y005568D02*
X017476Y005568D01*
X017476Y005469D02*
X017813Y005469D01*
X017717Y005371D02*
X017476Y005371D01*
X017476Y005272D02*
X017717Y005272D01*
X017717Y005174D02*
X017476Y005174D01*
X017476Y005075D02*
X017717Y005075D01*
X017717Y004977D02*
X017476Y004977D01*
X017476Y004878D02*
X017781Y004878D01*
X017880Y004780D02*
X017476Y004780D01*
X017476Y004681D02*
X017978Y004681D01*
X017926Y004583D02*
X017476Y004583D01*
X017476Y004484D02*
X017828Y004484D01*
X017729Y004386D02*
X017476Y004386D01*
X017476Y004287D02*
X017717Y004287D01*
X017717Y004189D02*
X017476Y004189D01*
X017476Y004090D02*
X017717Y004090D01*
X017717Y003992D02*
X017476Y003992D01*
X017476Y003893D02*
X017766Y003893D01*
X017865Y003795D02*
X017473Y003795D01*
X017421Y003696D02*
X017963Y003696D01*
X017941Y003598D02*
X017322Y003598D01*
X017224Y003499D02*
X017843Y003499D01*
X017744Y003401D02*
X017125Y003401D01*
X017027Y003302D02*
X017717Y003302D01*
X017717Y003204D02*
X016928Y003204D01*
X016830Y003105D02*
X017717Y003105D01*
X017717Y003007D02*
X016716Y003007D01*
X017759Y002416D02*
X010326Y002416D01*
X010326Y002514D02*
X017858Y002514D01*
X017956Y002613D02*
X010326Y002613D01*
X010326Y002711D02*
X017948Y002711D01*
X017717Y002317D02*
X010379Y002317D01*
X010478Y002219D02*
X017717Y002219D01*
X017717Y002120D02*
X010576Y002120D01*
X010675Y002022D02*
X017717Y002022D01*
X017736Y001923D02*
X010773Y001923D01*
X010731Y001626D02*
X009796Y002561D01*
X009756Y002591D01*
X009366Y003007D02*
X009147Y003007D01*
X009062Y003091D02*
X009256Y003285D01*
X009451Y003091D01*
X009256Y002897D01*
X009062Y003091D01*
X009076Y003105D02*
X009436Y003105D01*
X009338Y003204D02*
X009175Y003204D01*
X009245Y002908D02*
X009268Y002908D01*
X008756Y002591D02*
X008762Y002561D01*
X009943Y001380D01*
X018556Y001380D01*
X019559Y002384D01*
X023506Y002384D01*
X023615Y002394D01*
X024599Y002394D01*
X024874Y002670D01*
X027463Y002660D01*
X028004Y002119D01*
X028201Y002119D01*
X028237Y002108D01*
X028618Y001726D02*
X028697Y001726D01*
X028697Y001679D02*
X028808Y001568D01*
X028934Y001568D01*
X028737Y001371D01*
X028500Y001608D01*
X028697Y001805D01*
X028697Y001679D01*
X028749Y001628D02*
X028520Y001628D01*
X028579Y001529D02*
X028894Y001529D01*
X028796Y001431D02*
X028677Y001431D01*
X029237Y001108D02*
X029284Y001134D01*
X029825Y001676D01*
X029825Y002512D01*
X023181Y009156D01*
X018260Y009156D01*
X018237Y009158D01*
X018622Y009508D02*
X025296Y009508D01*
X025197Y009606D02*
X018524Y009606D01*
X018462Y009705D02*
X025099Y009705D01*
X025000Y009803D02*
X018561Y009803D01*
X018659Y009902D02*
X024902Y009902D01*
X024803Y010000D02*
X018717Y010000D01*
X018717Y010099D02*
X024705Y010099D01*
X024606Y010197D02*
X018285Y010197D01*
X018285Y010099D02*
X018188Y010099D01*
X018188Y010000D02*
X018285Y010000D01*
X018285Y009902D02*
X018188Y009902D01*
X018188Y009803D02*
X018285Y009803D01*
X018285Y009705D02*
X018188Y009705D01*
X018721Y009409D02*
X025394Y009409D01*
X025493Y009311D02*
X023366Y009311D01*
X023464Y009212D02*
X025548Y009212D01*
X025548Y009114D02*
X023563Y009114D01*
X023661Y009015D02*
X025576Y009015D01*
X025675Y008917D02*
X023760Y008917D01*
X023858Y008818D02*
X025773Y008818D01*
X026102Y008818D02*
X026576Y008818D01*
X026674Y008720D02*
X023957Y008720D01*
X024055Y008621D02*
X026773Y008621D01*
X026871Y008523D02*
X024154Y008523D01*
X024252Y008424D02*
X026970Y008424D01*
X027068Y008326D02*
X024351Y008326D01*
X024449Y008227D02*
X027167Y008227D01*
X027265Y008129D02*
X024548Y008129D01*
X024646Y008030D02*
X027364Y008030D01*
X027462Y007932D02*
X024745Y007932D01*
X024843Y007833D02*
X027561Y007833D01*
X027659Y007735D02*
X024942Y007735D01*
X025040Y007636D02*
X027758Y007636D01*
X027856Y007538D02*
X025139Y007538D01*
X025237Y007439D02*
X027955Y007439D01*
X028053Y007341D02*
X025336Y007341D01*
X025434Y007242D02*
X028152Y007242D01*
X028250Y007144D02*
X025533Y007144D01*
X025631Y007045D02*
X028349Y007045D01*
X028447Y006947D02*
X025730Y006947D01*
X025828Y006848D02*
X028546Y006848D01*
X028644Y006750D02*
X025927Y006750D01*
X026025Y006651D02*
X028743Y006651D01*
X028841Y006553D02*
X026124Y006553D01*
X026222Y006454D02*
X028940Y006454D01*
X029038Y006356D02*
X026321Y006356D01*
X026419Y006257D02*
X029137Y006257D01*
X029235Y006159D02*
X026518Y006159D01*
X026616Y006060D02*
X029334Y006060D01*
X029629Y006443D02*
X029125Y006948D01*
X036717Y006948D01*
X036717Y006943D01*
X037002Y006658D01*
X036787Y006443D01*
X029629Y006443D01*
X029618Y006454D02*
X036798Y006454D01*
X036896Y006553D02*
X029520Y006553D01*
X029421Y006651D02*
X036995Y006651D01*
X036910Y006750D02*
X029323Y006750D01*
X029224Y006848D02*
X036811Y006848D01*
X036717Y006947D02*
X029126Y006947D01*
X028890Y007187D02*
X018802Y017276D01*
X009746Y017276D01*
X001676Y009205D01*
X001646Y009166D01*
X002179Y009369D02*
X009846Y017036D01*
X010201Y017036D01*
X002215Y009050D01*
X002216Y009052D01*
X002216Y009279D01*
X002179Y009369D01*
X002219Y009409D02*
X002574Y009409D01*
X002672Y009508D02*
X002317Y009508D01*
X002416Y009606D02*
X002771Y009606D01*
X002869Y009705D02*
X002514Y009705D01*
X002613Y009803D02*
X002968Y009803D01*
X003066Y009902D02*
X002711Y009902D01*
X002810Y010000D02*
X003165Y010000D01*
X003263Y010099D02*
X002908Y010099D01*
X003007Y010197D02*
X003362Y010197D01*
X003460Y010296D02*
X003105Y010296D01*
X003204Y010394D02*
X003559Y010394D01*
X003657Y010493D02*
X003302Y010493D01*
X003401Y010591D02*
X003756Y010591D01*
X003854Y010690D02*
X003499Y010690D01*
X003598Y010788D02*
X003953Y010788D01*
X004051Y010887D02*
X003696Y010887D01*
X003795Y010985D02*
X004150Y010985D01*
X004248Y011084D02*
X003893Y011084D01*
X003992Y011182D02*
X004347Y011182D01*
X004445Y011281D02*
X004090Y011281D01*
X004189Y011379D02*
X004544Y011379D01*
X004642Y011478D02*
X004287Y011478D01*
X004386Y011576D02*
X004741Y011576D01*
X004839Y011675D02*
X004484Y011675D01*
X004583Y011773D02*
X004938Y011773D01*
X005036Y011872D02*
X004681Y011872D01*
X004780Y011970D02*
X005135Y011970D01*
X005233Y012069D02*
X004878Y012069D01*
X004977Y012167D02*
X005332Y012167D01*
X005430Y012266D02*
X005075Y012266D01*
X005174Y012364D02*
X005529Y012364D01*
X005627Y012463D02*
X005272Y012463D01*
X005371Y012561D02*
X005726Y012561D01*
X005824Y012660D02*
X005469Y012660D01*
X005568Y012758D02*
X005923Y012758D01*
X006021Y012857D02*
X005666Y012857D01*
X005765Y012955D02*
X006120Y012955D01*
X006218Y013054D02*
X005863Y013054D01*
X005962Y013152D02*
X006317Y013152D01*
X006415Y013251D02*
X006060Y013251D01*
X006159Y013349D02*
X006514Y013349D01*
X006612Y013448D02*
X006257Y013448D01*
X006356Y013546D02*
X006711Y013546D01*
X006809Y013645D02*
X006454Y013645D01*
X006553Y013743D02*
X006908Y013743D01*
X007006Y013842D02*
X006651Y013842D01*
X006750Y013940D02*
X007105Y013940D01*
X007203Y014039D02*
X006848Y014039D01*
X006947Y014137D02*
X007302Y014137D01*
X007400Y014236D02*
X007045Y014236D01*
X007144Y014334D02*
X007499Y014334D01*
X007597Y014433D02*
X007242Y014433D01*
X007341Y014531D02*
X007696Y014531D01*
X007794Y014630D02*
X007439Y014630D01*
X007538Y014728D02*
X007893Y014728D01*
X007991Y014827D02*
X007636Y014827D01*
X007735Y014925D02*
X008090Y014925D01*
X008188Y015024D02*
X007833Y015024D01*
X007932Y015122D02*
X008287Y015122D01*
X008385Y015221D02*
X008030Y015221D01*
X008129Y015319D02*
X008484Y015319D01*
X008582Y015418D02*
X008227Y015418D01*
X008326Y015516D02*
X008681Y015516D01*
X008779Y015615D02*
X008424Y015615D01*
X008523Y015713D02*
X008878Y015713D01*
X008976Y015812D02*
X008621Y015812D01*
X008720Y015910D02*
X009075Y015910D01*
X009173Y016009D02*
X008818Y016009D01*
X008917Y016107D02*
X009272Y016107D01*
X009370Y016206D02*
X009015Y016206D01*
X009114Y016304D02*
X009469Y016304D01*
X009567Y016403D02*
X009212Y016403D01*
X009311Y016501D02*
X009666Y016501D01*
X009764Y016600D02*
X009409Y016600D01*
X009508Y016698D02*
X009863Y016698D01*
X009961Y016797D02*
X009606Y016797D01*
X009705Y016895D02*
X010060Y016895D01*
X010158Y016994D02*
X009803Y016994D01*
X009414Y017282D02*
X009354Y017282D01*
X002216Y010144D01*
X002216Y010084D01*
X009414Y017282D01*
X009322Y017191D02*
X009262Y017191D01*
X009223Y017092D02*
X009163Y017092D01*
X009125Y016994D02*
X009065Y016994D01*
X009026Y016895D02*
X008966Y016895D01*
X008928Y016797D02*
X008868Y016797D01*
X008829Y016698D02*
X008769Y016698D01*
X008731Y016600D02*
X008671Y016600D01*
X008632Y016501D02*
X008572Y016501D01*
X008534Y016403D02*
X008474Y016403D01*
X008435Y016304D02*
X008375Y016304D01*
X008337Y016206D02*
X008277Y016206D01*
X008238Y016107D02*
X008178Y016107D01*
X008140Y016009D02*
X008080Y016009D01*
X008041Y015910D02*
X007981Y015910D01*
X007943Y015812D02*
X007883Y015812D01*
X007844Y015713D02*
X007784Y015713D01*
X007746Y015615D02*
X007686Y015615D01*
X007647Y015516D02*
X007587Y015516D01*
X007549Y015418D02*
X007489Y015418D01*
X007450Y015319D02*
X007390Y015319D01*
X007352Y015221D02*
X007292Y015221D01*
X007253Y015122D02*
X007193Y015122D01*
X007155Y015024D02*
X007095Y015024D01*
X007056Y014925D02*
X006996Y014925D01*
X006958Y014827D02*
X006898Y014827D01*
X006859Y014728D02*
X006799Y014728D01*
X006761Y014630D02*
X006701Y014630D01*
X006662Y014531D02*
X006602Y014531D01*
X006564Y014433D02*
X006504Y014433D01*
X006465Y014334D02*
X006405Y014334D01*
X006367Y014236D02*
X006307Y014236D01*
X006268Y014137D02*
X006208Y014137D01*
X006170Y014039D02*
X006110Y014039D01*
X006071Y013940D02*
X006011Y013940D01*
X005973Y013842D02*
X005913Y013842D01*
X005874Y013743D02*
X005814Y013743D01*
X005776Y013645D02*
X005716Y013645D01*
X005677Y013546D02*
X005617Y013546D01*
X005579Y013448D02*
X005519Y013448D01*
X005480Y013349D02*
X005420Y013349D01*
X005382Y013251D02*
X005322Y013251D01*
X005283Y013152D02*
X005223Y013152D01*
X005185Y013054D02*
X005125Y013054D01*
X005086Y012955D02*
X005026Y012955D01*
X004988Y012857D02*
X004928Y012857D01*
X004889Y012758D02*
X004829Y012758D01*
X004791Y012660D02*
X004731Y012660D01*
X004692Y012561D02*
X004632Y012561D01*
X004594Y012463D02*
X004534Y012463D01*
X004495Y012364D02*
X004435Y012364D01*
X004397Y012266D02*
X004337Y012266D01*
X004298Y012167D02*
X004238Y012167D01*
X004200Y012069D02*
X004140Y012069D01*
X004101Y011970D02*
X004041Y011970D01*
X004003Y011872D02*
X003943Y011872D01*
X003904Y011773D02*
X003844Y011773D01*
X003806Y011675D02*
X003746Y011675D01*
X003707Y011576D02*
X003647Y011576D01*
X003609Y011478D02*
X003549Y011478D01*
X003510Y011379D02*
X003450Y011379D01*
X003412Y011281D02*
X003352Y011281D01*
X003313Y011182D02*
X003253Y011182D01*
X003215Y011084D02*
X003155Y011084D01*
X003116Y010985D02*
X003056Y010985D01*
X003018Y010887D02*
X002958Y010887D01*
X002919Y010788D02*
X002859Y010788D01*
X002821Y010690D02*
X002761Y010690D01*
X002722Y010591D02*
X002662Y010591D01*
X002624Y010493D02*
X002564Y010493D01*
X002525Y010394D02*
X002465Y010394D01*
X002427Y010296D02*
X002367Y010296D01*
X002328Y010197D02*
X002268Y010197D01*
X002230Y010099D02*
X002216Y010099D01*
X001922Y010189D02*
X001676Y010189D01*
X001646Y010166D01*
X001922Y010189D02*
X009254Y017522D01*
X018900Y017522D01*
X028250Y008172D01*
X037207Y008172D01*
X037237Y008158D01*
X037607Y008523D02*
X037627Y008523D01*
X037627Y008503D02*
X037472Y008658D01*
X037627Y008813D01*
X037627Y008503D01*
X037627Y008621D02*
X037509Y008621D01*
X037533Y008720D02*
X037627Y008720D01*
X037002Y008658D02*
X036755Y008411D01*
X028350Y008411D01*
X019233Y017528D01*
X020080Y017528D01*
X027032Y010577D01*
X027120Y010540D01*
X036719Y010540D01*
X037021Y010238D01*
X037452Y010238D01*
X037627Y010413D01*
X037627Y009503D01*
X037452Y009678D01*
X037021Y009678D01*
X036717Y009373D01*
X036717Y008943D01*
X037002Y008658D01*
X036965Y008621D02*
X028140Y008621D01*
X028042Y008720D02*
X036940Y008720D01*
X036841Y008818D02*
X027943Y008818D01*
X027845Y008917D02*
X036743Y008917D01*
X036717Y009015D02*
X027746Y009015D01*
X027648Y009114D02*
X036717Y009114D01*
X036717Y009212D02*
X027549Y009212D01*
X027451Y009311D02*
X036717Y009311D01*
X036753Y009409D02*
X027352Y009409D01*
X027254Y009508D02*
X036851Y009508D01*
X036950Y009606D02*
X027155Y009606D01*
X027057Y009705D02*
X037627Y009705D01*
X037627Y009803D02*
X026958Y009803D01*
X026860Y009902D02*
X037627Y009902D01*
X037627Y010000D02*
X026761Y010000D01*
X026663Y010099D02*
X037627Y010099D01*
X037627Y010197D02*
X026564Y010197D01*
X026466Y010296D02*
X036964Y010296D01*
X036865Y010394D02*
X026367Y010394D01*
X026269Y010493D02*
X036767Y010493D01*
X037207Y010780D02*
X037237Y010758D01*
X037207Y010780D02*
X027168Y010780D01*
X020180Y017768D01*
X009156Y017768D01*
X007384Y015996D01*
X005465Y015996D01*
X001676Y012207D01*
X001646Y012197D01*
X002169Y011970D02*
X003363Y011970D01*
X003265Y011872D02*
X002126Y011872D01*
X002129Y011874D02*
X002216Y012084D01*
X002216Y012311D01*
X002187Y012380D01*
X005564Y015757D01*
X007150Y015757D01*
X002005Y010612D01*
X001969Y010649D01*
X001890Y010681D01*
X001969Y010714D01*
X002129Y010874D01*
X002216Y011084D01*
X002216Y011311D01*
X002129Y011520D01*
X001969Y011680D01*
X001928Y011697D01*
X001969Y011714D01*
X002129Y011874D01*
X002028Y011773D02*
X003166Y011773D01*
X003068Y011675D02*
X001975Y011675D01*
X002073Y011576D02*
X002969Y011576D01*
X002871Y011478D02*
X002147Y011478D01*
X002187Y011379D02*
X002772Y011379D01*
X002674Y011281D02*
X002216Y011281D01*
X002216Y011182D02*
X002575Y011182D01*
X002477Y011084D02*
X002216Y011084D01*
X002175Y010985D02*
X002378Y010985D01*
X002280Y010887D02*
X002134Y010887D01*
X002181Y010788D02*
X002043Y010788D01*
X002083Y010690D02*
X001909Y010690D01*
X003252Y009409D02*
X009907Y009409D01*
X010005Y009508D02*
X003351Y009508D01*
X003449Y009606D02*
X010104Y009606D01*
X010202Y009705D02*
X003548Y009705D01*
X003646Y009803D02*
X010301Y009803D01*
X010399Y009902D02*
X003745Y009902D01*
X003843Y010000D02*
X010498Y010000D01*
X010596Y010099D02*
X003942Y010099D01*
X004040Y010197D02*
X010695Y010197D01*
X010793Y010296D02*
X004139Y010296D01*
X004237Y010394D02*
X010892Y010394D01*
X010990Y010493D02*
X004336Y010493D01*
X004434Y010591D02*
X011089Y010591D01*
X011187Y010690D02*
X004533Y010690D01*
X004631Y010788D02*
X011286Y010788D01*
X011384Y010887D02*
X005532Y010887D01*
X005631Y010985D02*
X011483Y010985D01*
X011581Y011084D02*
X005707Y011084D01*
X005102Y010887D02*
X004730Y010887D01*
X004828Y010985D02*
X005004Y010985D01*
X004928Y011084D02*
X004927Y011084D01*
X003560Y012167D02*
X002216Y012167D01*
X002216Y012266D02*
X003659Y012266D01*
X003757Y012364D02*
X002194Y012364D01*
X002270Y012463D02*
X003856Y012463D01*
X003954Y012561D02*
X002369Y012561D01*
X002467Y012660D02*
X004053Y012660D01*
X004151Y012758D02*
X002566Y012758D01*
X002664Y012857D02*
X004250Y012857D01*
X004348Y012955D02*
X002763Y012955D01*
X002861Y013054D02*
X004447Y013054D01*
X004545Y013152D02*
X002960Y013152D01*
X003058Y013251D02*
X004644Y013251D01*
X004742Y013349D02*
X003157Y013349D01*
X003255Y013448D02*
X004841Y013448D01*
X004939Y013546D02*
X003354Y013546D01*
X003452Y013645D02*
X005038Y013645D01*
X005136Y013743D02*
X003551Y013743D01*
X003649Y013842D02*
X005235Y013842D01*
X005333Y013940D02*
X003748Y013940D01*
X003846Y014039D02*
X005432Y014039D01*
X005530Y014137D02*
X003945Y014137D01*
X004043Y014236D02*
X005629Y014236D01*
X005727Y014334D02*
X004142Y014334D01*
X004240Y014433D02*
X005826Y014433D01*
X005924Y014531D02*
X004339Y014531D01*
X004437Y014630D02*
X006023Y014630D01*
X006121Y014728D02*
X004536Y014728D01*
X004634Y014827D02*
X006220Y014827D01*
X006318Y014925D02*
X004733Y014925D01*
X004831Y015024D02*
X006417Y015024D01*
X006515Y015122D02*
X004930Y015122D01*
X005028Y015221D02*
X006614Y015221D01*
X006712Y015319D02*
X005127Y015319D01*
X005225Y015418D02*
X006811Y015418D01*
X006909Y015516D02*
X005324Y015516D01*
X005422Y015615D02*
X007008Y015615D01*
X007106Y015713D02*
X005521Y015713D01*
X005132Y016003D02*
X004777Y016003D01*
X002177Y013403D01*
X002216Y013311D01*
X002216Y013086D01*
X005132Y016003D01*
X005039Y015910D02*
X004684Y015910D01*
X004586Y015812D02*
X004941Y015812D01*
X004842Y015713D02*
X004487Y015713D01*
X004389Y015615D02*
X004744Y015615D01*
X004645Y015516D02*
X004290Y015516D01*
X004192Y015418D02*
X004547Y015418D01*
X004448Y015319D02*
X004093Y015319D01*
X003995Y015221D02*
X004350Y015221D01*
X004251Y015122D02*
X003896Y015122D01*
X003798Y015024D02*
X004153Y015024D01*
X004054Y014925D02*
X003699Y014925D01*
X003601Y014827D02*
X003956Y014827D01*
X003857Y014728D02*
X003502Y014728D01*
X003404Y014630D02*
X003759Y014630D01*
X003660Y014531D02*
X003305Y014531D01*
X003207Y014433D02*
X003562Y014433D01*
X003463Y014334D02*
X003108Y014334D01*
X003010Y014236D02*
X003365Y014236D01*
X003266Y014137D02*
X002911Y014137D01*
X002813Y014039D02*
X003168Y014039D01*
X003069Y013940D02*
X002714Y013940D01*
X002616Y013842D02*
X002971Y013842D01*
X002872Y013743D02*
X002517Y013743D01*
X002419Y013645D02*
X002774Y013645D01*
X002675Y013546D02*
X002320Y013546D01*
X002222Y013448D02*
X002577Y013448D01*
X002478Y013349D02*
X002200Y013349D01*
X002216Y013251D02*
X002380Y013251D01*
X002281Y013152D02*
X002216Y013152D01*
X001676Y013241D02*
X001646Y013197D01*
X001676Y013241D02*
X004678Y016243D01*
X007286Y016243D01*
X009057Y018014D01*
X020278Y018014D01*
X026528Y011764D01*
X037207Y011764D01*
X037237Y011758D01*
X037593Y011379D02*
X037627Y011379D01*
X037627Y011413D02*
X037627Y011103D01*
X037472Y011258D01*
X037627Y011413D01*
X037627Y011281D02*
X037494Y011281D01*
X037548Y011182D02*
X037627Y011182D01*
X037002Y011258D02*
X036735Y011524D01*
X026762Y011524D01*
X027267Y011020D01*
X036763Y011020D01*
X037002Y011258D01*
X036979Y011281D02*
X027006Y011281D01*
X026908Y011379D02*
X036880Y011379D01*
X036782Y011478D02*
X026809Y011478D01*
X027105Y011182D02*
X036926Y011182D01*
X036827Y011084D02*
X027203Y011084D01*
X026821Y010788D02*
X025973Y010788D01*
X025875Y010887D02*
X026722Y010887D01*
X026624Y010985D02*
X025776Y010985D01*
X025678Y011084D02*
X026525Y011084D01*
X026427Y011182D02*
X025579Y011182D01*
X025481Y011281D02*
X026328Y011281D01*
X026230Y011379D02*
X025382Y011379D01*
X025284Y011478D02*
X026131Y011478D01*
X026033Y011576D02*
X025185Y011576D01*
X025087Y011675D02*
X025934Y011675D01*
X025836Y011773D02*
X024988Y011773D01*
X024890Y011872D02*
X025737Y011872D01*
X025639Y011970D02*
X024791Y011970D01*
X024693Y012069D02*
X025540Y012069D01*
X025442Y012167D02*
X024594Y012167D01*
X024496Y012266D02*
X025343Y012266D01*
X025245Y012364D02*
X024397Y012364D01*
X024299Y012463D02*
X025146Y012463D01*
X025048Y012561D02*
X024200Y012561D01*
X024102Y012660D02*
X024949Y012660D01*
X024851Y012758D02*
X024003Y012758D01*
X023905Y012857D02*
X024752Y012857D01*
X024654Y012955D02*
X023806Y012955D01*
X023708Y013054D02*
X024555Y013054D01*
X024457Y013152D02*
X023609Y013152D01*
X023511Y013251D02*
X024358Y013251D01*
X024260Y013349D02*
X023412Y013349D01*
X023314Y013448D02*
X024161Y013448D01*
X024063Y013546D02*
X023215Y013546D01*
X023117Y013645D02*
X023964Y013645D01*
X023866Y013743D02*
X023018Y013743D01*
X022920Y013842D02*
X023767Y013842D01*
X023669Y013940D02*
X022821Y013940D01*
X022723Y014039D02*
X023570Y014039D01*
X023472Y014137D02*
X022624Y014137D01*
X022526Y014236D02*
X023373Y014236D01*
X023275Y014334D02*
X022427Y014334D01*
X022329Y014433D02*
X023176Y014433D01*
X023078Y014531D02*
X022230Y014531D01*
X022132Y014630D02*
X022979Y014630D01*
X022881Y014728D02*
X022033Y014728D01*
X021935Y014827D02*
X022782Y014827D01*
X022684Y014925D02*
X021836Y014925D01*
X021738Y015024D02*
X022585Y015024D01*
X022487Y015122D02*
X021639Y015122D01*
X021541Y015221D02*
X022388Y015221D01*
X022290Y015319D02*
X021442Y015319D01*
X021344Y015418D02*
X022191Y015418D01*
X022093Y015516D02*
X021245Y015516D01*
X021147Y015615D02*
X021994Y015615D01*
X021896Y015713D02*
X021048Y015713D01*
X020950Y015812D02*
X021797Y015812D01*
X021699Y015910D02*
X020851Y015910D01*
X020753Y016009D02*
X021600Y016009D01*
X021502Y016107D02*
X020654Y016107D01*
X020556Y016206D02*
X021403Y016206D01*
X021305Y016304D02*
X020457Y016304D01*
X020359Y016403D02*
X021206Y016403D01*
X021108Y016501D02*
X020260Y016501D01*
X020162Y016600D02*
X021009Y016600D01*
X020911Y016698D02*
X020063Y016698D01*
X019965Y016797D02*
X020812Y016797D01*
X020714Y016895D02*
X019866Y016895D01*
X019768Y016994D02*
X020615Y016994D01*
X020517Y017092D02*
X019669Y017092D01*
X019571Y017191D02*
X020418Y017191D01*
X020320Y017289D02*
X019472Y017289D01*
X019374Y017388D02*
X020221Y017388D01*
X020123Y017486D02*
X019275Y017486D01*
X020326Y018254D02*
X009064Y018254D01*
X009064Y018368D01*
X009004Y018513D01*
X029824Y018513D01*
X035743Y012594D01*
X035831Y012558D01*
X036717Y012558D01*
X036717Y012543D01*
X037002Y012258D01*
X036748Y012004D01*
X026627Y012004D01*
X020481Y018150D01*
X020414Y018217D01*
X020326Y018254D01*
X020456Y018176D02*
X030161Y018176D01*
X030063Y018274D02*
X009064Y018274D01*
X009062Y018373D02*
X029964Y018373D01*
X029866Y018471D02*
X009021Y018471D01*
X008811Y018752D02*
X008762Y018802D01*
X006252Y018802D01*
X001676Y014225D01*
X001646Y014197D01*
X002182Y014392D02*
X006352Y018562D01*
X007118Y018562D01*
X007024Y018467D01*
X007024Y018290D01*
X007494Y018290D01*
X007494Y018230D01*
X007554Y018230D01*
X007554Y017760D01*
X007731Y017760D01*
X008024Y018053D01*
X008024Y018057D01*
X008066Y017954D01*
X008218Y017803D01*
X008417Y017720D01*
X008425Y017720D01*
X007187Y016482D01*
X004630Y016482D01*
X004542Y016446D01*
X002216Y014120D01*
X002216Y014311D01*
X002182Y014392D01*
X002222Y014433D02*
X002529Y014433D01*
X002627Y014531D02*
X002321Y014531D01*
X002419Y014630D02*
X002726Y014630D01*
X002824Y014728D02*
X002518Y014728D01*
X002616Y014827D02*
X002923Y014827D01*
X003021Y014925D02*
X002715Y014925D01*
X002813Y015024D02*
X003120Y015024D01*
X003218Y015122D02*
X002912Y015122D01*
X003010Y015221D02*
X003317Y015221D01*
X003415Y015319D02*
X003109Y015319D01*
X003207Y015418D02*
X003514Y015418D01*
X003612Y015516D02*
X003306Y015516D01*
X003404Y015615D02*
X003711Y015615D01*
X003809Y015713D02*
X003503Y015713D01*
X003601Y015812D02*
X003908Y015812D01*
X004006Y015910D02*
X003700Y015910D01*
X003798Y016009D02*
X004105Y016009D01*
X004203Y016107D02*
X003897Y016107D01*
X003995Y016206D02*
X004302Y016206D01*
X004400Y016304D02*
X004094Y016304D01*
X004192Y016403D02*
X004499Y016403D01*
X004389Y016600D02*
X007304Y016600D01*
X007402Y016698D02*
X004488Y016698D01*
X004586Y016797D02*
X007501Y016797D01*
X007599Y016895D02*
X004685Y016895D01*
X004783Y016994D02*
X007698Y016994D01*
X007796Y017092D02*
X004882Y017092D01*
X004980Y017191D02*
X007895Y017191D01*
X007993Y017289D02*
X005079Y017289D01*
X005177Y017388D02*
X008092Y017388D01*
X008190Y017486D02*
X005276Y017486D01*
X005374Y017585D02*
X008289Y017585D01*
X008387Y017683D02*
X005473Y017683D01*
X005571Y017782D02*
X007296Y017782D01*
X007317Y017760D02*
X007024Y018053D01*
X007024Y018230D01*
X007494Y018230D01*
X007494Y017760D01*
X007317Y017760D01*
X007197Y017880D02*
X005670Y017880D01*
X005768Y017979D02*
X007099Y017979D01*
X007024Y018077D02*
X005867Y018077D01*
X005965Y018176D02*
X007024Y018176D01*
X007024Y018373D02*
X006162Y018373D01*
X006261Y018471D02*
X007028Y018471D01*
X007494Y018274D02*
X006064Y018274D01*
X005681Y018570D02*
X005572Y018570D01*
X005583Y018471D02*
X005475Y018471D01*
X005484Y018373D02*
X005378Y018373D01*
X005386Y018274D02*
X005281Y018274D01*
X005287Y018176D02*
X005184Y018176D01*
X005189Y018077D02*
X005086Y018077D01*
X005090Y017979D02*
X004989Y017979D01*
X004992Y017880D02*
X004892Y017880D01*
X004893Y017782D02*
X004795Y017782D01*
X004795Y017683D02*
X004698Y017683D01*
X004696Y017585D02*
X004601Y017585D01*
X004598Y017486D02*
X004504Y017486D01*
X004499Y017388D02*
X004407Y017388D01*
X004401Y017289D02*
X004309Y017289D01*
X004302Y017191D02*
X004212Y017191D01*
X004204Y017092D02*
X004115Y017092D01*
X004105Y016994D02*
X004018Y016994D01*
X004007Y016895D02*
X003921Y016895D01*
X003908Y016797D02*
X003824Y016797D01*
X003810Y016698D02*
X003727Y016698D01*
X003711Y016600D02*
X003630Y016600D01*
X003613Y016501D02*
X003532Y016501D01*
X003514Y016403D02*
X003435Y016403D01*
X003416Y016304D02*
X003338Y016304D01*
X003317Y016206D02*
X003241Y016206D01*
X003219Y016107D02*
X003144Y016107D01*
X003120Y016009D02*
X003047Y016009D01*
X003022Y015910D02*
X002950Y015910D01*
X002923Y015812D02*
X002852Y015812D01*
X002825Y015713D02*
X002755Y015713D01*
X002726Y015615D02*
X002658Y015615D01*
X002628Y015516D02*
X002561Y015516D01*
X002529Y015418D02*
X002464Y015418D01*
X002431Y015319D02*
X002367Y015319D01*
X002332Y015221D02*
X002270Y015221D01*
X002216Y015166D02*
X007603Y020629D01*
X007689Y020629D01*
X007620Y020460D01*
X007620Y020234D01*
X007706Y020024D01*
X007867Y019864D01*
X008076Y019777D01*
X008303Y019777D01*
X008512Y019864D01*
X008672Y020024D01*
X008759Y020234D01*
X008759Y020460D01*
X008689Y020629D01*
X011192Y020629D01*
X011280Y020665D01*
X012415Y021800D01*
X026872Y021810D01*
X029689Y018992D01*
X014878Y018992D01*
X014952Y019171D01*
X014952Y019366D01*
X014877Y019546D01*
X014739Y019683D01*
X014559Y019758D01*
X013764Y019758D01*
X013584Y019683D01*
X013447Y019546D01*
X013372Y019366D01*
X013372Y019171D01*
X013446Y018992D01*
X008911Y018992D01*
X008898Y019005D01*
X008810Y019041D01*
X006205Y019041D01*
X006117Y019005D01*
X002216Y015104D01*
X002216Y015166D01*
X002216Y015122D02*
X002234Y015122D01*
X001922Y015209D02*
X001676Y015209D01*
X001646Y015197D01*
X001922Y015209D02*
X007502Y020869D01*
X011144Y020869D01*
X012315Y022040D01*
X012336Y021722D02*
X013677Y021722D01*
X013764Y021758D02*
X013584Y021683D01*
X013447Y021546D01*
X013372Y021366D01*
X013372Y021171D01*
X013447Y020991D01*
X013584Y020853D01*
X013764Y020778D01*
X014559Y020778D01*
X014739Y020853D01*
X014877Y020991D01*
X014952Y021171D01*
X014952Y021366D01*
X014877Y021546D01*
X014739Y021683D01*
X014559Y021758D01*
X013764Y021758D01*
X013524Y021623D02*
X012238Y021623D01*
X012139Y021525D02*
X013438Y021525D01*
X013397Y021426D02*
X012041Y021426D01*
X011942Y021328D02*
X013372Y021328D01*
X013372Y021229D02*
X011844Y021229D01*
X011745Y021131D02*
X013389Y021131D01*
X013429Y021032D02*
X011647Y021032D01*
X011548Y020934D02*
X013504Y020934D01*
X013627Y020835D02*
X012500Y020835D01*
X012512Y020830D02*
X012303Y020917D01*
X012076Y020917D01*
X011867Y020830D01*
X011706Y020670D01*
X011620Y020460D01*
X011620Y020234D01*
X011706Y020024D01*
X011867Y019864D01*
X012076Y019777D01*
X012303Y019777D01*
X012512Y019864D01*
X012672Y020024D01*
X012759Y020234D01*
X012759Y020460D01*
X012672Y020670D01*
X012512Y020830D01*
X012605Y020737D02*
X018893Y020737D01*
X018897Y020751D02*
X018812Y020433D01*
X018812Y020104D01*
X018897Y019786D01*
X019062Y019501D01*
X019294Y019268D01*
X019579Y019103D01*
X019897Y019018D01*
X020226Y019018D01*
X020544Y019103D01*
X020829Y019268D01*
X021062Y019501D01*
X021227Y019786D01*
X021312Y020104D01*
X021312Y020433D01*
X021227Y020751D01*
X021062Y021036D01*
X020829Y021268D01*
X020544Y021433D01*
X020226Y021518D01*
X019897Y021518D01*
X019579Y021433D01*
X019294Y021268D01*
X019062Y021036D01*
X018897Y020751D01*
X018946Y020835D02*
X014696Y020835D01*
X014820Y020934D02*
X019003Y020934D01*
X019059Y021032D02*
X014894Y021032D01*
X014935Y021131D02*
X019156Y021131D01*
X019255Y021229D02*
X014952Y021229D01*
X014952Y021328D02*
X019397Y021328D01*
X019567Y021426D02*
X014927Y021426D01*
X014886Y021525D02*
X027157Y021525D01*
X027058Y021623D02*
X014799Y021623D01*
X014647Y021722D02*
X026960Y021722D01*
X027255Y021426D02*
X020556Y021426D01*
X020727Y021328D02*
X027354Y021328D01*
X027452Y021229D02*
X020869Y021229D01*
X020967Y021131D02*
X027551Y021131D01*
X027649Y021032D02*
X021064Y021032D01*
X021121Y020934D02*
X027748Y020934D01*
X027846Y020835D02*
X021178Y020835D01*
X021230Y020737D02*
X027945Y020737D01*
X028043Y020638D02*
X021257Y020638D01*
X021283Y020540D02*
X028142Y020540D01*
X028240Y020441D02*
X021310Y020441D01*
X021312Y020343D02*
X028339Y020343D01*
X028437Y020244D02*
X021312Y020244D01*
X021312Y020146D02*
X028536Y020146D01*
X028634Y020047D02*
X021297Y020047D01*
X021270Y019949D02*
X028733Y019949D01*
X028831Y019850D02*
X021244Y019850D01*
X021207Y019752D02*
X028930Y019752D01*
X029028Y019653D02*
X021150Y019653D01*
X021093Y019555D02*
X029127Y019555D01*
X029225Y019456D02*
X021018Y019456D01*
X020919Y019358D02*
X029324Y019358D01*
X029422Y019259D02*
X020814Y019259D01*
X020643Y019161D02*
X029521Y019161D01*
X029619Y019062D02*
X020390Y019062D01*
X019733Y019062D02*
X014907Y019062D01*
X014947Y019161D02*
X019480Y019161D01*
X019310Y019259D02*
X014952Y019259D01*
X014952Y019358D02*
X019205Y019358D01*
X019106Y019456D02*
X014914Y019456D01*
X014868Y019555D02*
X019030Y019555D01*
X018974Y019653D02*
X014770Y019653D01*
X014574Y019752D02*
X018917Y019752D01*
X018880Y019850D02*
X014631Y019850D01*
X014635Y019851D02*
X014698Y019883D01*
X014755Y019925D01*
X014805Y019975D01*
X014847Y020032D01*
X014879Y020095D01*
X014901Y020163D01*
X014909Y020218D01*
X014212Y020218D01*
X014212Y020318D01*
X014909Y020318D01*
X014901Y020373D01*
X014879Y020441D01*
X014847Y020504D01*
X014805Y020561D01*
X014755Y020611D01*
X014698Y020653D01*
X014635Y020685D01*
X014567Y020707D01*
X014497Y020718D01*
X014212Y020718D01*
X014212Y020318D01*
X014112Y020318D01*
X014112Y020718D01*
X013826Y020718D01*
X013756Y020707D01*
X013689Y020685D01*
X013626Y020653D01*
X013569Y020611D01*
X013519Y020561D01*
X013477Y020504D01*
X013445Y020441D01*
X012759Y020441D01*
X012759Y020343D02*
X013418Y020343D01*
X013414Y020318D02*
X014112Y020318D01*
X014112Y020218D01*
X014212Y020218D01*
X014212Y019818D01*
X014497Y019818D01*
X014567Y019829D01*
X014635Y019851D01*
X014779Y019949D02*
X018853Y019949D01*
X018827Y020047D02*
X014854Y020047D01*
X014895Y020146D02*
X018812Y020146D01*
X018812Y020244D02*
X014212Y020244D01*
X014212Y020146D02*
X014112Y020146D01*
X014112Y020218D02*
X014112Y019818D01*
X013826Y019818D01*
X013756Y019829D01*
X013689Y019851D01*
X013626Y019883D01*
X013569Y019925D01*
X013519Y019975D01*
X013477Y020032D01*
X013445Y020095D01*
X013423Y020163D01*
X013414Y020218D01*
X014112Y020218D01*
X014112Y020244D02*
X012759Y020244D01*
X012723Y020146D02*
X013428Y020146D01*
X013469Y020047D02*
X012682Y020047D01*
X012597Y019949D02*
X013545Y019949D01*
X013692Y019850D02*
X012479Y019850D01*
X011900Y019850D02*
X008479Y019850D01*
X008597Y019949D02*
X011782Y019949D01*
X011697Y020047D02*
X008682Y020047D01*
X008723Y020146D02*
X011656Y020146D01*
X011620Y020244D02*
X008759Y020244D01*
X008759Y020343D02*
X011620Y020343D01*
X011620Y020441D02*
X008759Y020441D01*
X008726Y020540D02*
X011652Y020540D01*
X011693Y020638D02*
X011214Y020638D01*
X011351Y020737D02*
X011773Y020737D01*
X011879Y020835D02*
X011450Y020835D01*
X011067Y021131D02*
X006668Y021131D01*
X006695Y021229D02*
X011166Y021229D01*
X011264Y021328D02*
X006714Y021328D01*
X006714Y021426D02*
X011363Y021426D01*
X011461Y021525D02*
X006714Y021525D01*
X006642Y021032D02*
X007327Y021032D01*
X007230Y020934D02*
X006592Y020934D01*
X006535Y020835D02*
X007133Y020835D01*
X007036Y020737D02*
X006471Y020737D01*
X006373Y020638D02*
X006938Y020638D01*
X006841Y020540D02*
X006273Y020540D01*
X006102Y020441D02*
X006744Y020441D01*
X006647Y020343D02*
X005833Y020343D01*
X006641Y019653D02*
X013554Y019653D01*
X013456Y019555D02*
X006543Y019555D01*
X006446Y019456D02*
X013410Y019456D01*
X013372Y019358D02*
X006349Y019358D01*
X006252Y019259D02*
X013372Y019259D01*
X013376Y019161D02*
X006155Y019161D01*
X006058Y019062D02*
X013417Y019062D01*
X013749Y019752D02*
X006738Y019752D01*
X006835Y019850D02*
X007900Y019850D01*
X007782Y019949D02*
X006932Y019949D01*
X007029Y020047D02*
X007697Y020047D01*
X007656Y020146D02*
X007126Y020146D01*
X007223Y020244D02*
X007620Y020244D01*
X007620Y020343D02*
X007320Y020343D01*
X007418Y020441D02*
X007620Y020441D01*
X007652Y020540D02*
X007515Y020540D01*
X007494Y021722D02*
X007554Y021722D01*
X007554Y021820D02*
X007494Y021820D01*
X007494Y021919D02*
X007554Y021919D01*
X007554Y022017D02*
X007494Y022017D01*
X007494Y022116D02*
X007554Y022116D01*
X007854Y021820D02*
X008138Y021820D01*
X008055Y021919D02*
X007952Y021919D01*
X007755Y021722D02*
X008262Y021722D01*
X008028Y022411D02*
X008017Y022411D01*
X008073Y022510D02*
X007919Y022510D01*
X007820Y022608D02*
X008171Y022608D01*
X005152Y022510D02*
X003531Y022510D01*
X003782Y022411D02*
X004976Y022411D01*
X004838Y022313D02*
X003930Y022313D01*
X004040Y022214D02*
X004739Y022214D01*
X004654Y022116D02*
X004125Y022116D01*
X004193Y022017D02*
X004597Y022017D01*
X004540Y021919D02*
X004246Y021919D01*
X004287Y021820D02*
X004504Y021820D01*
X004477Y021722D02*
X004317Y021722D01*
X004339Y021623D02*
X004451Y021623D01*
X004444Y021525D02*
X004350Y021525D01*
X004348Y020638D02*
X004448Y020638D01*
X004448Y020540D02*
X004348Y020540D01*
X004348Y020441D02*
X004448Y020441D01*
X004448Y020343D02*
X004348Y020343D01*
X004348Y020244D02*
X004448Y020244D01*
X004448Y020146D02*
X004348Y020146D01*
X004348Y020047D02*
X004448Y020047D01*
X004448Y019949D02*
X004348Y019949D01*
X004348Y019850D02*
X004448Y019850D01*
X004448Y019752D02*
X004348Y019752D01*
X004348Y019456D02*
X004448Y019456D01*
X004448Y019358D02*
X004348Y019358D01*
X004348Y019259D02*
X004448Y019259D01*
X004448Y019161D02*
X004348Y019161D01*
X004348Y019062D02*
X004448Y019062D01*
X004448Y018964D02*
X004348Y018964D01*
X004348Y018865D02*
X004448Y018865D01*
X004448Y018767D02*
X004348Y018767D01*
X004348Y018668D02*
X004448Y018668D01*
X004448Y018570D02*
X004348Y018570D01*
X004772Y018570D02*
X004899Y018570D01*
X004975Y018668D02*
X004996Y018668D01*
X005354Y019062D02*
X005384Y019062D01*
X005402Y019161D02*
X005481Y019161D01*
X005439Y019259D02*
X005579Y019259D01*
X005676Y019358D02*
X005466Y019358D01*
X005484Y019456D02*
X005773Y019456D01*
X005961Y018964D02*
X006075Y018964D01*
X005977Y018865D02*
X005864Y018865D01*
X005878Y018767D02*
X005766Y018767D01*
X005780Y018668D02*
X005669Y018668D01*
X007494Y018176D02*
X007554Y018176D01*
X007554Y018077D02*
X007494Y018077D01*
X007494Y017979D02*
X007554Y017979D01*
X007554Y017880D02*
X007494Y017880D01*
X007494Y017782D02*
X007554Y017782D01*
X007752Y017782D02*
X008269Y017782D01*
X008141Y017880D02*
X007851Y017880D01*
X007949Y017979D02*
X008056Y017979D01*
X008024Y018464D02*
X008065Y018562D01*
X007930Y018562D01*
X008024Y018467D01*
X008024Y018464D01*
X008027Y018471D02*
X008020Y018471D01*
X008811Y018752D02*
X029924Y018752D01*
X035878Y012798D01*
X037207Y012798D01*
X037237Y012758D01*
X037627Y013103D02*
X037472Y013258D01*
X037627Y013413D01*
X037627Y013103D01*
X037627Y013152D02*
X037578Y013152D01*
X037627Y013251D02*
X037479Y013251D01*
X037563Y013349D02*
X037627Y013349D01*
X037002Y013258D02*
X036717Y013542D01*
X035473Y013542D01*
X035978Y013037D01*
X036781Y013037D01*
X037002Y013258D01*
X036994Y013251D02*
X035765Y013251D01*
X035863Y013152D02*
X036896Y013152D01*
X036797Y013054D02*
X035962Y013054D01*
X035666Y013349D02*
X036910Y013349D01*
X036812Y013448D02*
X035568Y013448D01*
X035185Y013152D02*
X025479Y013152D01*
X025381Y013251D02*
X035086Y013251D01*
X034988Y013349D02*
X025282Y013349D01*
X025184Y013448D02*
X034889Y013448D01*
X034791Y013546D02*
X025085Y013546D01*
X024987Y013645D02*
X034692Y013645D01*
X034594Y013743D02*
X024888Y013743D01*
X024790Y013842D02*
X034495Y013842D01*
X034397Y013940D02*
X024691Y013940D01*
X024593Y014039D02*
X034298Y014039D01*
X034200Y014137D02*
X024494Y014137D01*
X024396Y014236D02*
X034101Y014236D01*
X034003Y014334D02*
X025985Y014334D01*
X025901Y014250D02*
X026128Y014478D01*
X026128Y014687D01*
X027848Y016406D01*
X029014Y016406D01*
X029163Y016258D01*
X029484Y016258D01*
X029711Y016485D01*
X029711Y016807D01*
X029484Y017034D01*
X029163Y017034D01*
X029014Y016886D01*
X027701Y016886D01*
X027613Y016849D01*
X025789Y015026D01*
X025580Y015026D01*
X025353Y014799D01*
X025353Y014478D01*
X025580Y014250D01*
X025901Y014250D01*
X026083Y014433D02*
X033904Y014433D01*
X033806Y014531D02*
X026128Y014531D01*
X026128Y014630D02*
X033707Y014630D01*
X033609Y014728D02*
X026169Y014728D01*
X026268Y014827D02*
X033510Y014827D01*
X033412Y014925D02*
X026366Y014925D01*
X026465Y015024D02*
X033313Y015024D01*
X033215Y015122D02*
X026563Y015122D01*
X026662Y015221D02*
X033116Y015221D01*
X033018Y015319D02*
X026760Y015319D01*
X026859Y015418D02*
X032919Y015418D01*
X032821Y015516D02*
X026957Y015516D01*
X027056Y015615D02*
X032722Y015615D01*
X032624Y015713D02*
X027154Y015713D01*
X027253Y015812D02*
X032525Y015812D01*
X032427Y015910D02*
X027351Y015910D01*
X027450Y016009D02*
X032328Y016009D01*
X032230Y016107D02*
X027548Y016107D01*
X027647Y016206D02*
X032131Y016206D01*
X032033Y016304D02*
X029530Y016304D01*
X029628Y016403D02*
X031934Y016403D01*
X031836Y016501D02*
X029711Y016501D01*
X029711Y016600D02*
X031737Y016600D01*
X031639Y016698D02*
X029711Y016698D01*
X029711Y016797D02*
X031540Y016797D01*
X031442Y016895D02*
X029623Y016895D01*
X029524Y016994D02*
X031343Y016994D01*
X031245Y017092D02*
X021539Y017092D01*
X021441Y017191D02*
X031146Y017191D01*
X031048Y017289D02*
X021342Y017289D01*
X021244Y017388D02*
X030949Y017388D01*
X030851Y017486D02*
X021145Y017486D01*
X021047Y017585D02*
X030752Y017585D01*
X030654Y017683D02*
X020948Y017683D01*
X020850Y017782D02*
X030555Y017782D01*
X030457Y017880D02*
X020751Y017880D01*
X020653Y017979D02*
X030358Y017979D01*
X030260Y018077D02*
X020554Y018077D01*
X021638Y016994D02*
X029122Y016994D01*
X029024Y016895D02*
X021736Y016895D01*
X021835Y016797D02*
X027560Y016797D01*
X027461Y016698D02*
X021933Y016698D01*
X022032Y016600D02*
X027363Y016600D01*
X027264Y016501D02*
X022130Y016501D01*
X022229Y016403D02*
X027166Y016403D01*
X027067Y016304D02*
X022327Y016304D01*
X022426Y016206D02*
X026969Y016206D01*
X026870Y016107D02*
X022524Y016107D01*
X022623Y016009D02*
X026772Y016009D01*
X026673Y015910D02*
X022721Y015910D01*
X022820Y015812D02*
X026575Y015812D01*
X026476Y015713D02*
X022918Y015713D01*
X023017Y015615D02*
X026378Y015615D01*
X026279Y015516D02*
X023115Y015516D01*
X023214Y015418D02*
X026181Y015418D01*
X026082Y015319D02*
X023312Y015319D01*
X023411Y015221D02*
X025984Y015221D01*
X025885Y015122D02*
X023509Y015122D01*
X023608Y015024D02*
X025577Y015024D01*
X025479Y014925D02*
X023706Y014925D01*
X023805Y014827D02*
X025380Y014827D01*
X025353Y014728D02*
X023903Y014728D01*
X024002Y014630D02*
X025353Y014630D01*
X025353Y014531D02*
X024100Y014531D01*
X024199Y014433D02*
X025398Y014433D01*
X025496Y014334D02*
X024297Y014334D01*
X025741Y014638D02*
X027748Y016646D01*
X029323Y016646D01*
X029018Y016403D02*
X027844Y016403D01*
X027745Y016304D02*
X029117Y016304D01*
X025578Y013054D02*
X035283Y013054D01*
X035382Y012955D02*
X025676Y012955D01*
X025775Y012857D02*
X035480Y012857D01*
X035579Y012758D02*
X025873Y012758D01*
X025972Y012660D02*
X035677Y012660D01*
X035823Y012561D02*
X026070Y012561D01*
X026169Y012463D02*
X036797Y012463D01*
X036895Y012364D02*
X026267Y012364D01*
X026366Y012266D02*
X036994Y012266D01*
X036911Y012167D02*
X026464Y012167D01*
X026563Y012069D02*
X036812Y012069D01*
X037472Y012258D02*
X037627Y012103D01*
X037627Y012413D01*
X037472Y012258D01*
X037479Y012266D02*
X037627Y012266D01*
X037627Y012364D02*
X037578Y012364D01*
X037563Y012167D02*
X037627Y012167D01*
X037608Y010394D02*
X037627Y010394D01*
X037627Y010296D02*
X037509Y010296D01*
X037524Y009606D02*
X037627Y009606D01*
X037622Y009508D02*
X037627Y009508D01*
X036866Y008523D02*
X028239Y008523D01*
X028337Y008424D02*
X036768Y008424D01*
X036728Y007932D02*
X037002Y007658D01*
X036771Y007427D01*
X028989Y007427D01*
X028485Y007932D01*
X036728Y007932D01*
X028485Y007932D01*
X028584Y007833D02*
X036826Y007833D01*
X036925Y007735D02*
X028682Y007735D01*
X028781Y007636D02*
X036980Y007636D01*
X036881Y007538D02*
X028879Y007538D01*
X028978Y007439D02*
X036783Y007439D01*
X037207Y007187D02*
X037237Y007158D01*
X037207Y007187D02*
X028890Y007187D01*
X028352Y005962D02*
X036717Y005962D01*
X036796Y005863D02*
X028450Y005863D01*
X028181Y005583D02*
X033467Y005583D01*
X033454Y005272D02*
X028419Y005272D01*
X027944Y005272D02*
X027404Y005272D01*
X027306Y005371D02*
X027846Y005371D01*
X027794Y005469D02*
X027207Y005469D01*
X027109Y005568D02*
X027794Y005568D01*
X027794Y005666D02*
X027010Y005666D01*
X026912Y005765D02*
X027814Y005765D01*
X027913Y005863D02*
X026813Y005863D01*
X026715Y005962D02*
X028011Y005962D01*
X027503Y005174D02*
X033563Y005174D01*
X033672Y005075D02*
X027601Y005075D01*
X027700Y004977D02*
X033782Y004977D01*
X033891Y004878D02*
X027798Y004878D01*
X027897Y004780D02*
X034000Y004780D01*
X034109Y004681D02*
X027995Y004681D01*
X028094Y004583D02*
X034218Y004583D01*
X034328Y004484D02*
X028192Y004484D01*
X028291Y004386D02*
X034437Y004386D01*
X034546Y004287D02*
X028389Y004287D01*
X028488Y004189D02*
X034655Y004189D01*
X034764Y004090D02*
X028586Y004090D01*
X028685Y003992D02*
X034874Y003992D01*
X037472Y006658D02*
X037627Y006503D01*
X037627Y006813D01*
X037472Y006658D01*
X037479Y006651D02*
X037627Y006651D01*
X037627Y006553D02*
X037577Y006553D01*
X037563Y006750D02*
X037627Y006750D01*
X037627Y007503D02*
X037472Y007658D01*
X037627Y007813D01*
X037627Y007503D01*
X037627Y007538D02*
X037592Y007538D01*
X037627Y007636D02*
X037494Y007636D01*
X037548Y007735D02*
X037627Y007735D01*
X029287Y002711D02*
X028784Y002711D01*
X028686Y002810D02*
X029189Y002810D01*
X029090Y002908D02*
X028587Y002908D01*
X028489Y003007D02*
X028992Y003007D01*
X028893Y003105D02*
X028390Y003105D01*
X028250Y002906D02*
X024796Y002906D01*
X024520Y002630D01*
X019461Y002630D01*
X018457Y001626D01*
X010731Y001626D01*
X010398Y001620D02*
X010043Y001620D01*
X009642Y002021D01*
X009992Y002021D01*
X009995Y002023D01*
X010398Y001620D01*
X010391Y001628D02*
X010035Y001628D01*
X009937Y001726D02*
X010292Y001726D01*
X010194Y001825D02*
X009838Y001825D01*
X009740Y001923D02*
X010095Y001923D01*
X009997Y002022D02*
X009993Y002022D01*
X009259Y001726D02*
X008952Y001726D01*
X008854Y001825D02*
X009160Y001825D01*
X009062Y001923D02*
X008755Y001923D01*
X008657Y002021D02*
X008963Y002021D01*
X009611Y001374D01*
X009304Y001374D01*
X008657Y002021D01*
X009051Y001628D02*
X009357Y001628D01*
X009456Y001529D02*
X009149Y001529D01*
X009248Y001431D02*
X009554Y001431D01*
X009205Y001134D02*
X018654Y001134D01*
X019589Y002069D01*
X027217Y002069D01*
X027237Y002108D01*
X027618Y001726D02*
X027855Y001726D01*
X027757Y001825D02*
X027717Y001825D01*
X027737Y001845D02*
X027973Y001608D01*
X027708Y001343D01*
X027472Y001580D01*
X027737Y001845D01*
X027520Y001628D02*
X027954Y001628D01*
X027894Y001529D02*
X027523Y001529D01*
X027621Y001431D02*
X027796Y001431D01*
X027708Y000873D02*
X027931Y000650D01*
X027486Y000650D01*
X027708Y000873D01*
X027675Y000840D02*
X027742Y000840D01*
X027840Y000741D02*
X027577Y000741D01*
X027188Y001135D02*
X018994Y001135D01*
X019092Y001234D02*
X026737Y001234D01*
X026754Y001332D02*
X019191Y001332D01*
X019289Y001431D02*
X026852Y001431D01*
X026951Y001529D02*
X019388Y001529D01*
X019486Y001628D02*
X026954Y001628D01*
X026855Y001726D02*
X019585Y001726D01*
X019683Y001825D02*
X026757Y001825D01*
X026697Y002309D02*
X024853Y002309D01*
X024973Y002430D01*
X026788Y002423D01*
X026697Y002331D01*
X026697Y002309D01*
X026697Y002317D02*
X024861Y002317D01*
X024959Y002416D02*
X026781Y002416D01*
X027796Y002666D02*
X028151Y002666D01*
X028170Y002648D01*
X028013Y002648D01*
X027914Y002548D01*
X027796Y002666D01*
X027849Y002613D02*
X027978Y002613D01*
X028250Y002906D02*
X029038Y002119D01*
X029235Y002119D01*
X029237Y002108D01*
X029919Y001431D02*
X037760Y001431D01*
X037760Y001529D02*
X030018Y001529D01*
X029821Y001332D02*
X037760Y001332D01*
X037760Y001234D02*
X029776Y001234D01*
X029776Y001135D02*
X037760Y001135D01*
X037760Y001037D02*
X029776Y001037D01*
X029776Y000938D02*
X037760Y000938D01*
X037760Y000840D02*
X029732Y000840D01*
X029633Y000741D02*
X037760Y000741D01*
X028931Y000650D02*
X028542Y000650D01*
X028737Y000845D01*
X028931Y000650D01*
X028840Y000741D02*
X028633Y000741D01*
X028732Y000840D02*
X028742Y000840D01*
X026896Y000741D02*
X008219Y000741D01*
X008120Y000840D02*
X026798Y000840D01*
X026737Y000938D02*
X018797Y000938D01*
X018895Y001037D02*
X026737Y001037D01*
X024557Y003007D02*
X022624Y003007D01*
X022624Y003105D02*
X024656Y003105D01*
X024459Y002908D02*
X022551Y002908D01*
X022624Y003204D02*
X028795Y003204D01*
X028696Y003302D02*
X022624Y003302D01*
X021997Y003499D02*
X018631Y003499D01*
X018729Y003401D02*
X021946Y003401D01*
X021849Y003302D02*
X018756Y003302D01*
X018756Y003204D02*
X021849Y003204D01*
X021849Y003105D02*
X018756Y003105D01*
X018756Y003007D02*
X021849Y003007D01*
X021922Y002908D02*
X018722Y002908D01*
X018623Y002810D02*
X019301Y002810D01*
X019203Y002711D02*
X018525Y002711D01*
X018517Y002613D02*
X019104Y002613D01*
X019006Y002514D02*
X018616Y002514D01*
X018714Y002416D02*
X018907Y002416D01*
X018809Y002317D02*
X018756Y002317D01*
X018532Y003598D02*
X021997Y003598D01*
X021997Y003696D02*
X018510Y003696D01*
X018608Y003795D02*
X021997Y003795D01*
X021997Y003893D02*
X018707Y003893D01*
X018756Y003992D02*
X021997Y003992D01*
X021997Y004090D02*
X018756Y004090D01*
X018756Y004189D02*
X021997Y004189D01*
X021997Y004287D02*
X018756Y004287D01*
X018744Y004386D02*
X021997Y004386D01*
X021997Y004484D02*
X018646Y004484D01*
X018547Y004583D02*
X021997Y004583D01*
X021997Y004681D02*
X018495Y004681D01*
X018593Y004780D02*
X021997Y004780D01*
X021997Y004878D02*
X018692Y004878D01*
X018756Y004977D02*
X021997Y004977D01*
X021997Y005075D02*
X018756Y005075D01*
X018756Y005174D02*
X021997Y005174D01*
X021997Y005272D02*
X018756Y005272D01*
X018756Y005371D02*
X021997Y005371D01*
X021997Y005469D02*
X018661Y005469D01*
X018562Y005568D02*
X021997Y005568D01*
X021997Y005666D02*
X018480Y005666D01*
X018578Y005765D02*
X021997Y005765D01*
X021997Y005863D02*
X018677Y005863D01*
X018756Y005962D02*
X021997Y005962D01*
X021997Y006060D02*
X018756Y006060D01*
X018756Y006159D02*
X021952Y006159D01*
X021854Y006257D02*
X018756Y006257D01*
X018756Y006356D02*
X021755Y006356D01*
X021657Y006454D02*
X018676Y006454D01*
X018577Y006553D02*
X021558Y006553D01*
X021460Y006651D02*
X018479Y006651D01*
X018563Y006750D02*
X021361Y006750D01*
X021263Y006848D02*
X018662Y006848D01*
X018756Y006947D02*
X021164Y006947D01*
X021066Y007045D02*
X018756Y007045D01*
X018756Y007144D02*
X020967Y007144D01*
X020869Y007242D02*
X018756Y007242D01*
X018756Y007341D02*
X020770Y007341D01*
X020672Y007439D02*
X018691Y007439D01*
X018592Y007538D02*
X020573Y007538D01*
X020475Y007636D02*
X018494Y007636D01*
X018533Y008720D02*
X023279Y008720D01*
X023180Y008818D02*
X018632Y008818D01*
X018717Y010296D02*
X024508Y010296D01*
X024409Y010394D02*
X018679Y010394D01*
X018581Y010493D02*
X024311Y010493D01*
X024212Y010591D02*
X018482Y010591D01*
X018447Y010690D02*
X024114Y010690D01*
X024015Y010788D02*
X018546Y010788D01*
X018644Y010887D02*
X023917Y010887D01*
X023818Y010985D02*
X018717Y010985D01*
X018717Y011084D02*
X023720Y011084D01*
X023621Y011182D02*
X018285Y011182D01*
X018285Y011084D02*
X018188Y011084D01*
X018188Y010985D02*
X018285Y010985D01*
X018285Y010887D02*
X018188Y010887D01*
X018188Y010788D02*
X018285Y010788D01*
X018285Y010690D02*
X018188Y010690D01*
X017892Y010493D02*
X016283Y010493D01*
X016335Y010394D02*
X017794Y010394D01*
X017757Y010296D02*
X016376Y010296D01*
X015587Y010690D02*
X013686Y010690D01*
X013785Y010788D02*
X015447Y010788D01*
X015367Y010887D02*
X013883Y010887D01*
X013982Y010985D02*
X015321Y010985D01*
X015455Y010591D02*
X013588Y010591D01*
X013489Y010493D02*
X015356Y010493D01*
X015304Y010394D02*
X013391Y010394D01*
X013292Y010296D02*
X015263Y010296D01*
X015250Y010197D02*
X013194Y010197D01*
X013095Y010099D02*
X015250Y010099D01*
X015265Y010000D02*
X012997Y010000D01*
X012898Y009902D02*
X015306Y009902D01*
X015360Y009803D02*
X012800Y009803D01*
X012701Y009705D02*
X015459Y009705D01*
X015470Y009606D02*
X012603Y009606D01*
X012504Y009508D02*
X015371Y009508D01*
X015310Y009409D02*
X012406Y009409D01*
X012307Y009311D02*
X015269Y009311D01*
X015250Y009212D02*
X012209Y009212D01*
X012110Y009114D02*
X015250Y009114D01*
X015258Y009015D02*
X012012Y009015D01*
X011913Y008917D02*
X015299Y008917D01*
X015346Y008818D02*
X011815Y008818D01*
X011716Y008720D02*
X015444Y008720D01*
X015485Y008621D02*
X011618Y008621D01*
X011519Y008523D02*
X015386Y008523D01*
X015316Y008424D02*
X011421Y008424D01*
X011322Y008326D02*
X015275Y008326D01*
X015250Y008227D02*
X011224Y008227D01*
X011125Y008129D02*
X015250Y008129D01*
X015252Y008030D02*
X011027Y008030D01*
X010928Y007932D02*
X015293Y007932D01*
X015334Y007833D02*
X010830Y007833D01*
X010731Y007735D02*
X015429Y007735D01*
X015504Y007636D02*
X010633Y007636D01*
X010534Y007538D02*
X015401Y007538D01*
X015322Y007439D02*
X010436Y007439D01*
X010337Y007341D02*
X015281Y007341D01*
X015250Y007242D02*
X010239Y007242D01*
X010140Y007144D02*
X015250Y007144D01*
X015250Y007045D02*
X010042Y007045D01*
X010035Y006947D02*
X015287Y006947D01*
X015328Y006848D02*
X010035Y006848D01*
X010035Y006750D02*
X015414Y006750D01*
X015535Y006651D02*
X010035Y006651D01*
X010035Y006553D02*
X015416Y006553D01*
X015329Y006454D02*
X010035Y006454D01*
X010035Y006356D02*
X015288Y006356D01*
X015250Y006257D02*
X010035Y006257D01*
X010035Y006159D02*
X015250Y006159D01*
X015250Y006060D02*
X010035Y006060D01*
X010035Y005962D02*
X015281Y005962D01*
X015321Y005863D02*
X010035Y005863D01*
X010035Y005765D02*
X015399Y005765D01*
X015499Y005666D02*
X010035Y005666D01*
X010035Y005568D02*
X015431Y005568D01*
X015335Y005469D02*
X010035Y005469D01*
X010035Y005371D02*
X015294Y005371D01*
X015253Y005272D02*
X010035Y005272D01*
X010035Y005174D02*
X015250Y005174D01*
X015250Y005075D02*
X010035Y005075D01*
X010035Y004977D02*
X015274Y004977D01*
X015315Y004878D02*
X010035Y004878D01*
X010035Y004780D02*
X015384Y004780D01*
X015483Y004681D02*
X010035Y004681D01*
X010035Y004583D02*
X015430Y004583D01*
X015334Y004484D02*
X010035Y004484D01*
X010035Y004386D02*
X015294Y004386D01*
X015253Y004287D02*
X010035Y004287D01*
X010035Y004189D02*
X015250Y004189D01*
X015250Y004090D02*
X010063Y004090D01*
X010161Y003992D02*
X015275Y003992D01*
X015316Y003893D02*
X010260Y003893D01*
X010326Y003795D02*
X015385Y003795D01*
X009796Y003595D02*
X009756Y003591D01*
X009796Y003595D02*
X009796Y007138D01*
X015800Y013142D01*
X015819Y013166D01*
X016349Y012955D02*
X016728Y012955D01*
X016583Y013054D02*
X016389Y013054D01*
X016389Y013152D02*
X016484Y013152D01*
X016308Y012857D02*
X017803Y012857D01*
X017901Y012758D02*
X016217Y012758D01*
X016086Y012660D02*
X018000Y012660D01*
X017905Y012561D02*
X016174Y012561D01*
X016259Y012463D02*
X017806Y012463D01*
X017717Y012364D02*
X016312Y012364D01*
X016340Y012266D02*
X017717Y012266D01*
X018473Y012660D02*
X022144Y012660D01*
X022045Y012758D02*
X018572Y012758D01*
X018670Y012857D02*
X021947Y012857D01*
X021848Y012955D02*
X018756Y012955D01*
X018756Y013054D02*
X021750Y013054D01*
X021651Y013152D02*
X018756Y013152D01*
X018756Y013251D02*
X021553Y013251D01*
X021454Y013349D02*
X018756Y013349D01*
X018682Y013448D02*
X021356Y013448D01*
X021257Y013546D02*
X018584Y013546D01*
X018485Y013645D02*
X021159Y013645D01*
X021060Y013743D02*
X018557Y013743D01*
X018655Y013842D02*
X020962Y013842D01*
X020863Y013940D02*
X018754Y013940D01*
X018756Y014039D02*
X020765Y014039D01*
X020666Y014137D02*
X018756Y014137D01*
X018756Y014236D02*
X020568Y014236D01*
X020469Y014334D02*
X018756Y014334D01*
X018697Y014433D02*
X020371Y014433D01*
X020272Y014531D02*
X018599Y014531D01*
X018500Y014630D02*
X020174Y014630D01*
X020075Y014728D02*
X018542Y014728D01*
X018640Y014827D02*
X019977Y014827D01*
X019878Y014925D02*
X018739Y014925D01*
X018756Y015024D02*
X019780Y015024D01*
X019681Y015122D02*
X018756Y015122D01*
X018756Y015221D02*
X019583Y015221D01*
X019484Y015319D02*
X018756Y015319D01*
X018712Y015418D02*
X019386Y015418D01*
X019287Y015516D02*
X018614Y015516D01*
X018515Y015615D02*
X019189Y015615D01*
X019090Y015713D02*
X018527Y015713D01*
X018625Y015812D02*
X018992Y015812D01*
X018893Y015910D02*
X018724Y015910D01*
X018756Y016009D02*
X018795Y016009D01*
X018359Y016784D02*
X025937Y009205D01*
X026200Y008917D02*
X026477Y008917D01*
X026379Y009015D02*
X026299Y009015D01*
X026170Y010591D02*
X027018Y010591D01*
X026919Y010690D02*
X026072Y010690D01*
X023523Y011281D02*
X018717Y011281D01*
X018694Y011379D02*
X023424Y011379D01*
X023326Y011478D02*
X018596Y011478D01*
X018497Y011576D02*
X023227Y011576D01*
X023129Y011675D02*
X018488Y011675D01*
X018587Y011773D02*
X023030Y011773D01*
X022932Y011872D02*
X018685Y011872D01*
X018756Y011970D02*
X022833Y011970D01*
X022735Y012069D02*
X018756Y012069D01*
X018756Y012167D02*
X022636Y012167D01*
X022538Y012266D02*
X018756Y012266D01*
X018756Y012364D02*
X022439Y012364D01*
X022341Y012463D02*
X018667Y012463D01*
X018569Y012561D02*
X022242Y012561D01*
X023377Y008621D02*
X016154Y008621D01*
X016253Y008523D02*
X023476Y008523D01*
X023574Y008424D02*
X016322Y008424D01*
X016363Y008326D02*
X023673Y008326D01*
X022079Y008536D02*
X024048Y006567D01*
X024048Y003181D01*
X015868Y011281D02*
X015771Y011281D01*
X015771Y011379D02*
X015868Y011379D01*
X015868Y011478D02*
X015771Y011478D01*
X015771Y011576D02*
X015868Y011576D01*
X009808Y009311D02*
X003154Y009311D01*
X003055Y009212D02*
X009710Y009212D01*
X009611Y009114D02*
X002957Y009114D01*
X002858Y009015D02*
X009513Y009015D01*
X009414Y008917D02*
X002760Y008917D01*
X002661Y008818D02*
X009316Y008818D01*
X009217Y008720D02*
X002563Y008720D01*
X002464Y008621D02*
X009119Y008621D01*
X009020Y008523D02*
X002366Y008523D01*
X002267Y008424D02*
X008922Y008424D01*
X008823Y008326D02*
X002197Y008326D01*
X002216Y008227D02*
X008725Y008227D01*
X008626Y008129D02*
X002216Y008129D01*
X002216Y008052D02*
X002129Y007843D01*
X001969Y007683D01*
X001928Y007666D01*
X001969Y007649D01*
X002129Y007488D01*
X002216Y007279D01*
X002216Y007052D01*
X002129Y006843D01*
X001969Y006683D01*
X001928Y006666D01*
X001969Y006649D01*
X002129Y006488D01*
X002216Y006279D01*
X002216Y006052D01*
X002129Y005843D01*
X001969Y005683D01*
X001928Y005666D01*
X001969Y005649D01*
X002129Y005488D01*
X002216Y005279D01*
X002216Y005052D01*
X002129Y004843D01*
X001969Y004683D01*
X001928Y004666D01*
X001969Y004649D01*
X002129Y004488D01*
X002216Y004279D01*
X002216Y004052D01*
X002129Y003843D01*
X001969Y003683D01*
X001759Y003596D01*
X001533Y003596D01*
X001323Y003683D01*
X001163Y003843D01*
X001076Y004052D01*
X001076Y004279D01*
X001163Y004488D01*
X001323Y004649D01*
X001364Y004666D01*
X001323Y004683D01*
X001163Y004843D01*
X001076Y005052D01*
X001076Y005279D01*
X001163Y005488D01*
X001155Y005469D02*
X000650Y005469D01*
X000650Y005371D02*
X001114Y005371D01*
X001076Y005272D02*
X000650Y005272D01*
X000650Y005174D02*
X001076Y005174D01*
X001076Y005075D02*
X000650Y005075D01*
X000650Y004977D02*
X001108Y004977D01*
X001149Y004878D02*
X000650Y004878D01*
X000650Y004780D02*
X001227Y004780D01*
X001327Y004681D02*
X000650Y004681D01*
X000650Y004583D02*
X001257Y004583D01*
X001161Y004484D02*
X000650Y004484D01*
X000650Y004386D02*
X001120Y004386D01*
X001080Y004287D02*
X000650Y004287D01*
X000650Y004189D02*
X001076Y004189D01*
X001076Y004090D02*
X000650Y004090D01*
X000650Y003992D02*
X001102Y003992D01*
X001142Y003893D02*
X000650Y003893D01*
X000650Y003795D02*
X001212Y003795D01*
X001310Y003696D02*
X000650Y003696D01*
X000650Y003598D02*
X001529Y003598D01*
X001763Y003598D02*
X006898Y003598D01*
X006898Y003696D02*
X001982Y003696D01*
X002081Y003795D02*
X006898Y003795D01*
X006898Y003893D02*
X002150Y003893D01*
X002191Y003992D02*
X006898Y003992D01*
X006898Y004090D02*
X002216Y004090D01*
X002216Y004189D02*
X006898Y004189D01*
X006898Y004287D02*
X002213Y004287D01*
X002172Y004386D02*
X006898Y004386D01*
X006898Y004484D02*
X002131Y004484D01*
X002035Y004583D02*
X006898Y004583D01*
X006898Y004681D02*
X001965Y004681D01*
X002066Y004780D02*
X006898Y004780D01*
X006898Y004878D02*
X002144Y004878D01*
X002184Y004977D02*
X006898Y004977D01*
X006898Y005075D02*
X002216Y005075D01*
X002216Y005174D02*
X006898Y005174D01*
X006898Y005272D02*
X002216Y005272D01*
X002178Y005371D02*
X006898Y005371D01*
X006898Y005469D02*
X002137Y005469D01*
X002050Y005568D02*
X006898Y005568D01*
X006898Y005666D02*
X001928Y005666D01*
X002051Y005765D02*
X006898Y005765D01*
X006898Y005863D02*
X002137Y005863D01*
X002178Y005962D02*
X006898Y005962D01*
X006898Y006060D02*
X002216Y006060D01*
X002216Y006159D02*
X006898Y006159D01*
X006898Y006257D02*
X002216Y006257D01*
X002184Y006356D02*
X006901Y006356D01*
X006952Y006454D02*
X002143Y006454D01*
X002065Y006553D02*
X007050Y006553D01*
X007149Y006651D02*
X001963Y006651D01*
X002036Y006750D02*
X007247Y006750D01*
X007346Y006848D02*
X002131Y006848D01*
X002172Y006947D02*
X007444Y006947D01*
X007543Y007045D02*
X002213Y007045D01*
X002216Y007144D02*
X007641Y007144D01*
X007740Y007242D02*
X002216Y007242D01*
X002190Y007341D02*
X007838Y007341D01*
X007937Y007439D02*
X002150Y007439D01*
X002080Y007538D02*
X008035Y007538D01*
X008134Y007636D02*
X001982Y007636D01*
X002021Y007735D02*
X008232Y007735D01*
X008331Y007833D02*
X002119Y007833D01*
X002216Y009114D02*
X002278Y009114D01*
X002216Y009212D02*
X002377Y009212D01*
X002475Y009311D02*
X002203Y009311D01*
X002209Y012069D02*
X003462Y012069D01*
X002233Y014137D02*
X002216Y014137D01*
X002216Y014236D02*
X002331Y014236D01*
X002430Y014334D02*
X002206Y014334D01*
X002082Y015713D02*
X001966Y015713D01*
X002066Y015812D02*
X002179Y015812D01*
X002144Y015910D02*
X002276Y015910D01*
X002185Y016009D02*
X002373Y016009D01*
X002470Y016107D02*
X002216Y016107D01*
X004291Y016501D02*
X007205Y016501D01*
X003303Y019653D02*
X001915Y019653D01*
X001915Y019752D02*
X003313Y019752D01*
X003332Y019850D02*
X001915Y019850D01*
X001915Y019949D02*
X003360Y019949D01*
X003399Y020047D02*
X001915Y020047D01*
X001915Y020146D02*
X003448Y020146D01*
X003512Y020244D02*
X001915Y020244D01*
X001915Y020343D02*
X003593Y020343D01*
X003686Y020441D02*
X003698Y020441D01*
X003306Y020441D02*
X003206Y020441D01*
X003206Y020540D02*
X003306Y020540D01*
X003306Y020638D02*
X003206Y020638D01*
X003206Y020737D02*
X003306Y020737D01*
X003306Y020835D02*
X003206Y020835D01*
X003206Y020934D02*
X003306Y020934D01*
X003306Y021032D02*
X003206Y021032D01*
X003206Y021131D02*
X003306Y021131D01*
X003306Y021229D02*
X003206Y021229D01*
X003206Y021328D02*
X003306Y021328D01*
X003206Y021426D02*
X001932Y021426D01*
X001915Y021328D02*
X002168Y021328D01*
X002184Y021229D02*
X001915Y021229D01*
X001915Y021131D02*
X002208Y021131D01*
X002242Y021032D02*
X001915Y021032D01*
X001915Y020934D02*
X002289Y020934D01*
X002349Y020835D02*
X001915Y020835D01*
X001915Y020737D02*
X002424Y020737D01*
X002519Y020638D02*
X001915Y020638D01*
X001915Y020540D02*
X002646Y020540D01*
X002826Y020441D02*
X001915Y020441D01*
X002031Y021525D02*
X002163Y021525D01*
X002174Y021623D02*
X002129Y021623D01*
X012685Y020638D02*
X013605Y020638D01*
X013503Y020540D02*
X012726Y020540D01*
X013423Y020373D02*
X013414Y020318D01*
X013423Y020373D02*
X013445Y020441D01*
X014112Y020441D02*
X014212Y020441D01*
X014212Y020343D02*
X014112Y020343D01*
X014112Y020540D02*
X014212Y020540D01*
X014212Y020638D02*
X014112Y020638D01*
X014112Y020047D02*
X014212Y020047D01*
X014212Y019949D02*
X014112Y019949D01*
X014112Y019850D02*
X014212Y019850D01*
X014906Y020343D02*
X018812Y020343D01*
X018814Y020441D02*
X014879Y020441D01*
X014821Y020540D02*
X018840Y020540D01*
X018867Y020638D02*
X014718Y020638D01*
X015866Y023002D02*
X028238Y023002D01*
X028140Y023101D02*
X015986Y023101D01*
X016053Y023199D02*
X028041Y023199D01*
X027943Y023298D02*
X016125Y023298D01*
X016196Y023396D02*
X027844Y023396D01*
X027746Y023495D02*
X016267Y023495D01*
X016339Y023593D02*
X027647Y023593D01*
X027549Y023692D02*
X016410Y023692D01*
X016482Y023790D02*
X027450Y023790D01*
X027352Y023889D02*
X016553Y023889D01*
X016624Y023987D02*
X027253Y023987D01*
X027155Y024086D02*
X016696Y024086D01*
X016767Y024184D02*
X027056Y024184D01*
X026958Y024283D02*
X016839Y024283D01*
X016910Y024381D02*
X026859Y024381D01*
X026761Y024480D02*
X016981Y024480D01*
X017053Y024578D02*
X026662Y024578D01*
X026564Y024677D02*
X017124Y024677D01*
X017196Y024775D02*
X026465Y024775D01*
X026367Y024874D02*
X017267Y024874D01*
X017339Y024972D02*
X026268Y024972D01*
X026170Y025071D02*
X017410Y025071D01*
X017481Y025169D02*
X026071Y025169D01*
X025973Y025268D02*
X017553Y025268D01*
X017624Y025366D02*
X025874Y025366D01*
X025776Y025465D02*
X017696Y025465D01*
X017767Y025563D02*
X025677Y025563D01*
X025579Y025662D02*
X017838Y025662D01*
X017910Y025760D02*
X025480Y025760D01*
X025382Y025859D02*
X017981Y025859D01*
X018053Y025957D02*
X025283Y025957D01*
X025185Y026056D02*
X018124Y026056D01*
X017746Y026351D02*
X017276Y026351D01*
X017329Y026422D02*
X017797Y026422D01*
X015658Y023470D01*
X015122Y023470D01*
X015141Y023489D01*
X015155Y023522D01*
X017329Y026422D01*
X017202Y026253D02*
X017675Y026253D01*
X017603Y026154D02*
X017128Y026154D01*
X017055Y026056D02*
X017532Y026056D01*
X017460Y025957D02*
X016981Y025957D01*
X016907Y025859D02*
X017389Y025859D01*
X017318Y025760D02*
X016833Y025760D01*
X016759Y025662D02*
X017246Y025662D01*
X017175Y025563D02*
X016685Y025563D01*
X016611Y025465D02*
X017103Y025465D01*
X017032Y025366D02*
X016537Y025366D01*
X016464Y025268D02*
X016960Y025268D01*
X016889Y025169D02*
X016390Y025169D01*
X016316Y025071D02*
X016818Y025071D01*
X016746Y024972D02*
X016242Y024972D01*
X016168Y024874D02*
X016675Y024874D01*
X016603Y024775D02*
X016094Y024775D01*
X016020Y024677D02*
X016532Y024677D01*
X016461Y024578D02*
X015946Y024578D01*
X015873Y024480D02*
X016389Y024480D01*
X016318Y024381D02*
X015799Y024381D01*
X015725Y024283D02*
X016246Y024283D01*
X016175Y024184D02*
X015651Y024184D01*
X015577Y024086D02*
X016104Y024086D01*
X016032Y023987D02*
X015503Y023987D01*
X015429Y023889D02*
X015961Y023889D01*
X015889Y023790D02*
X015355Y023790D01*
X015282Y023692D02*
X015818Y023692D01*
X015746Y023593D02*
X015208Y023593D01*
X015143Y023495D02*
X015675Y023495D01*
X025568Y026351D02*
X037760Y026351D01*
X037760Y026253D02*
X025666Y026253D01*
X025765Y026154D02*
X037760Y026154D01*
X037760Y026056D02*
X025863Y026056D01*
X025962Y025957D02*
X037760Y025957D01*
X037760Y025859D02*
X026060Y025859D01*
X026159Y025760D02*
X037760Y025760D01*
X037760Y025662D02*
X026257Y025662D01*
X026356Y025563D02*
X037760Y025563D01*
X037760Y025465D02*
X026454Y025465D01*
X026553Y025366D02*
X037760Y025366D01*
X037760Y025268D02*
X026651Y025268D01*
X026750Y025169D02*
X037760Y025169D01*
X037760Y025071D02*
X026848Y025071D01*
X026947Y024972D02*
X037760Y024972D01*
X037760Y024874D02*
X027045Y024874D01*
X027144Y024775D02*
X037760Y024775D01*
X037760Y024677D02*
X027242Y024677D01*
X027341Y024578D02*
X037760Y024578D01*
X037760Y024480D02*
X027439Y024480D01*
X027538Y024381D02*
X037760Y024381D01*
X037760Y024283D02*
X027636Y024283D01*
X027735Y024184D02*
X037760Y024184D01*
X037760Y024086D02*
X027833Y024086D01*
X027932Y023987D02*
X037760Y023987D01*
X037760Y023889D02*
X028030Y023889D01*
X028129Y023790D02*
X037760Y023790D01*
X037760Y023692D02*
X028227Y023692D01*
X028326Y023593D02*
X037760Y023593D01*
X037760Y023495D02*
X028424Y023495D01*
X028523Y023396D02*
X037760Y023396D01*
X037760Y023298D02*
X028621Y023298D01*
X028720Y023199D02*
X037760Y023199D01*
X037760Y023101D02*
X028818Y023101D01*
X028917Y023002D02*
X037760Y023002D01*
X037760Y022904D02*
X029015Y022904D01*
X029114Y022805D02*
X037760Y022805D01*
X037760Y022707D02*
X029212Y022707D01*
X029311Y022608D02*
X037760Y022608D01*
X037760Y022510D02*
X029409Y022510D01*
X029508Y022411D02*
X037760Y022411D01*
X037760Y022313D02*
X029606Y022313D01*
X029705Y022214D02*
X037760Y022214D01*
X037760Y022116D02*
X029803Y022116D01*
X029902Y022017D02*
X037760Y022017D01*
X037760Y021919D02*
X030000Y021919D01*
X030099Y021820D02*
X037760Y021820D01*
X037760Y021722D02*
X030197Y021722D01*
X030296Y021623D02*
X037760Y021623D01*
X037760Y021525D02*
X030394Y021525D01*
X030493Y021426D02*
X037760Y021426D01*
X037760Y021328D02*
X030591Y021328D01*
X030690Y021229D02*
X037760Y021229D01*
X037760Y021131D02*
X030788Y021131D01*
X030887Y021032D02*
X037760Y021032D01*
X037760Y020934D02*
X030985Y020934D01*
X031084Y020835D02*
X037760Y020835D01*
X037760Y020737D02*
X031182Y020737D01*
X031281Y020638D02*
X037760Y020638D01*
X037760Y020540D02*
X031379Y020540D01*
X031478Y020441D02*
X037760Y020441D01*
X037760Y020343D02*
X031576Y020343D01*
X027018Y022289D02*
X027018Y022289D01*
X026923Y022289D02*
X026923Y022289D01*
X035221Y016698D02*
X036757Y016698D01*
X036757Y016600D02*
X035319Y016600D01*
X035418Y016501D02*
X036815Y016501D01*
X036913Y016403D02*
X035516Y016403D01*
X037188Y016895D02*
X037285Y016895D01*
X037285Y016994D02*
X037188Y016994D01*
X037188Y017092D02*
X037285Y017092D01*
X037285Y017191D02*
X037188Y017191D01*
X037483Y017191D02*
X037627Y017191D01*
X037627Y017289D02*
X037503Y017289D01*
X037601Y017388D02*
X037627Y017388D01*
X037627Y017092D02*
X037581Y017092D01*
X037560Y016403D02*
X037627Y016403D01*
X037627Y016304D02*
X037462Y016304D01*
X037524Y016206D02*
X037627Y016206D01*
X037623Y016107D02*
X037627Y016107D01*
X036866Y015122D02*
X036797Y015122D01*
X036881Y014137D02*
X035223Y014137D01*
X035321Y014039D02*
X036782Y014039D01*
X037627Y018103D02*
X037472Y018258D01*
X037627Y018413D01*
X037627Y018103D01*
X037627Y018176D02*
X037554Y018176D01*
X037488Y018274D02*
X037627Y018274D01*
X037627Y018373D02*
X037586Y018373D01*
X037627Y019103D02*
X037472Y019258D01*
X037627Y019413D01*
X037627Y019103D01*
X037627Y019161D02*
X037569Y019161D01*
X037627Y019259D02*
X037473Y019259D01*
X037571Y019358D02*
X037627Y019358D01*
X037747Y019758D02*
X037237Y019758D01*
X009450Y004090D02*
X009063Y004090D01*
X009161Y003992D02*
X009351Y003992D01*
X008450Y004090D02*
X008007Y004090D01*
X008105Y003992D02*
X008351Y003992D01*
X008253Y003893D02*
X008204Y003893D01*
X008228Y003313D02*
X008034Y003119D01*
X008256Y002897D01*
X008451Y003091D01*
X008228Y003313D01*
X008217Y003302D02*
X008239Y003302D01*
X008338Y003204D02*
X008118Y003204D01*
X008048Y003105D02*
X008436Y003105D01*
X008366Y003007D02*
X008147Y003007D01*
X008245Y002908D02*
X008268Y002908D01*
X006898Y003401D02*
X000650Y003401D01*
X000650Y003499D02*
X006898Y003499D01*
D19*
X011331Y003221D03*
X022237Y003142D03*
X024048Y003181D03*
X028181Y005583D03*
X022079Y008536D03*
X014599Y013024D03*
X025741Y014638D03*
X029323Y016646D03*
D20*
X025937Y009205D03*
X005317Y011223D03*
M02*
