G75*
%MOIN*%
%OFA0B0*%
%FSLAX24Y24*%
%IPPOS*%
%LPD*%
%AMOC8*
5,1,8,0,0,1.08239X$1,22.5*
%
%ADD10C,0.0760*%
%ADD11OC8,0.0760*%
%ADD12C,0.1890*%
%ADD13C,0.0600*%
%ADD14R,0.0591X0.0600*%
%ADD15OC8,0.0700*%
%ADD16C,0.0700*%
%ADD17OC8,0.0660*%
%ADD18R,0.0700X0.0700*%
%ADD19C,0.0100*%
%ADD20OC8,0.0396*%
%ADD21C,0.0400*%
D10*
X002075Y007189D03*
X002075Y008189D03*
X002075Y009189D03*
X002075Y010189D03*
X002075Y011189D03*
X002075Y012189D03*
X002075Y013189D03*
X003075Y016221D03*
X004075Y016221D03*
X005075Y016221D03*
X006075Y016221D03*
X007075Y016221D03*
X008075Y016221D03*
X009075Y016205D03*
X010075Y016205D03*
X011075Y016205D03*
X012075Y016205D03*
X013075Y016205D03*
X014075Y016205D03*
X015075Y013189D03*
X015075Y012189D03*
X015075Y011189D03*
X015075Y010189D03*
X015075Y009189D03*
X015075Y008189D03*
X015075Y007205D03*
D11*
X009075Y006185D03*
X008075Y006185D03*
X008075Y005185D03*
X008075Y004185D03*
X009075Y004185D03*
X009075Y005185D03*
D12*
X004398Y019599D03*
X003256Y021449D03*
X005579Y021449D03*
D13*
X010161Y021229D02*
X010761Y021229D01*
X010761Y020229D02*
X010161Y020229D01*
X010161Y019229D02*
X010761Y019229D01*
D14*
X008772Y020248D03*
X007394Y020248D03*
D15*
X007524Y022197D03*
X007524Y018260D03*
X027237Y002108D03*
X028237Y002108D03*
X028237Y001108D03*
X029237Y001108D03*
X027237Y001108D03*
D16*
X008524Y018260D03*
X008524Y022197D03*
D17*
X018237Y016158D03*
X018237Y015158D03*
X018237Y014158D03*
X018237Y013158D03*
X018237Y012158D03*
X018237Y011158D03*
X018237Y010158D03*
X018237Y009158D03*
X018237Y007158D03*
X018237Y006158D03*
X018237Y005158D03*
X018237Y004158D03*
X018237Y003158D03*
X018237Y002158D03*
X037237Y002158D03*
X037237Y003158D03*
X037237Y004158D03*
X037237Y005158D03*
X037237Y006158D03*
X037237Y007158D03*
X037237Y008158D03*
X037237Y009158D03*
X037237Y010758D03*
X037237Y011758D03*
X037237Y012758D03*
X037237Y013758D03*
X037237Y014758D03*
X037237Y015758D03*
X037237Y016758D03*
X037237Y017758D03*
X037237Y018758D03*
X037237Y019758D03*
D18*
X029237Y002108D03*
D19*
X000650Y003800D02*
X000650Y023272D01*
X014654Y023272D01*
X014689Y023263D01*
X014752Y023272D01*
X014816Y023272D01*
X014850Y023286D01*
X014886Y023291D01*
X014941Y023324D01*
X015000Y023348D01*
X015026Y023374D01*
X015057Y023392D01*
X015096Y023444D01*
X015141Y023489D01*
X015155Y023522D01*
X017329Y026422D01*
X037760Y026422D01*
X037760Y000650D01*
X029542Y000650D01*
X029760Y000868D01*
X030014Y000868D01*
X030102Y000905D01*
X030365Y001167D01*
X030432Y001235D01*
X030469Y001323D01*
X030469Y005867D01*
X030432Y005955D01*
X027086Y009302D01*
X027018Y009369D01*
X026930Y009406D01*
X018724Y009406D01*
X018452Y009678D01*
X018021Y009678D01*
X017717Y009373D01*
X017717Y008943D01*
X018021Y008638D01*
X018452Y008638D01*
X018740Y008926D01*
X026783Y008926D01*
X029989Y005720D01*
X029989Y001470D01*
X029867Y001348D01*
X029760Y001348D01*
X029540Y001568D01*
X029665Y001568D01*
X029776Y001679D01*
X029776Y002536D01*
X029665Y002648D01*
X029484Y002648D01*
X029484Y002875D01*
X029448Y002963D01*
X029380Y003030D01*
X028396Y004015D01*
X028308Y004051D01*
X020850Y004051D01*
X020762Y004015D01*
X020695Y003947D01*
X018756Y002009D01*
X018756Y002373D01*
X018472Y002658D01*
X018756Y002943D01*
X018756Y003373D01*
X018472Y003658D01*
X018756Y003943D01*
X018756Y004373D01*
X018472Y004658D01*
X018756Y004943D01*
X018756Y005373D01*
X018472Y005658D01*
X018756Y005943D01*
X018756Y006373D01*
X018472Y006658D01*
X018756Y006943D01*
X018756Y007373D01*
X018452Y007678D01*
X018056Y007678D01*
X017161Y008572D01*
X017161Y011497D01*
X017125Y011585D01*
X017057Y011652D01*
X016317Y012393D01*
X016229Y012429D01*
X015593Y012429D01*
X015558Y012512D01*
X015398Y012672D01*
X015357Y012689D01*
X015398Y012706D01*
X015558Y012867D01*
X015645Y013076D01*
X015645Y013303D01*
X015558Y013512D01*
X015472Y013598D01*
X015475Y013604D01*
X015652Y013808D01*
X015681Y013808D01*
X017466Y012022D01*
X017534Y011955D01*
X017622Y011918D01*
X017741Y011918D01*
X018021Y011638D01*
X018452Y011638D01*
X018756Y011943D01*
X018756Y012373D01*
X018472Y012658D01*
X018756Y012943D01*
X018756Y013373D01*
X018472Y013658D01*
X018740Y013926D01*
X022374Y013926D01*
X025068Y011232D01*
X025068Y010892D01*
X024920Y010744D01*
X024920Y010422D01*
X025147Y010195D01*
X025468Y010195D01*
X025695Y010422D01*
X025695Y010744D01*
X025547Y010892D01*
X025547Y011379D01*
X026023Y011379D01*
X026121Y011281D02*
X025547Y011281D01*
X025547Y011379D02*
X025511Y011467D01*
X022676Y014302D01*
X022609Y014369D01*
X022521Y014406D01*
X018724Y014406D01*
X018472Y014658D01*
X018756Y014943D01*
X018756Y015373D01*
X018472Y015658D01*
X018756Y015943D01*
X018756Y016373D01*
X018526Y016603D01*
X020799Y016603D01*
X035340Y002061D01*
X035408Y001994D01*
X035496Y001957D01*
X036717Y001957D01*
X036717Y001943D01*
X037021Y001638D01*
X037452Y001638D01*
X037756Y001943D01*
X037756Y002373D01*
X037472Y002658D01*
X037756Y002943D01*
X037756Y003373D01*
X037472Y003658D01*
X037756Y003943D01*
X037756Y004373D01*
X037472Y004658D01*
X037756Y004943D01*
X037756Y005373D01*
X037472Y005658D01*
X037756Y005943D01*
X037756Y006373D01*
X037472Y006658D01*
X037756Y006943D01*
X037756Y007373D01*
X037472Y007658D01*
X037756Y007943D01*
X037756Y008373D01*
X037472Y008658D01*
X037756Y008943D01*
X037756Y009373D01*
X037452Y009678D01*
X037021Y009678D01*
X036741Y009398D01*
X035297Y009398D01*
X026456Y018239D01*
X026388Y018306D01*
X026300Y018343D01*
X017150Y018343D01*
X017061Y018306D01*
X016365Y017609D01*
X016365Y017791D01*
X016137Y018018D01*
X015816Y018018D01*
X015668Y017870D01*
X012304Y017870D01*
X013632Y019199D01*
X013700Y019266D01*
X013736Y019354D01*
X013736Y021192D01*
X013753Y021209D01*
X015552Y021209D01*
X015640Y021246D01*
X017769Y023375D01*
X026153Y023375D01*
X029553Y019975D01*
X029620Y019907D01*
X029666Y019888D01*
X029832Y019723D01*
X030153Y019723D01*
X030380Y019950D01*
X030380Y020116D01*
X030547Y020116D01*
X030774Y020344D01*
X030774Y020510D01*
X030941Y020510D01*
X031168Y020737D01*
X031168Y020904D01*
X031334Y020904D01*
X031561Y021131D01*
X031761Y021131D01*
X031761Y021229D02*
X031561Y021229D01*
X031561Y021131D02*
X031561Y021337D01*
X031761Y021337D01*
X031761Y013094D01*
X031797Y013006D01*
X031865Y012939D01*
X034249Y010555D01*
X034337Y010518D01*
X036741Y010518D01*
X037021Y010238D01*
X037452Y010238D01*
X037756Y010543D01*
X037756Y010973D01*
X037472Y011258D01*
X037756Y011543D01*
X037756Y011973D01*
X037472Y012258D01*
X037756Y012543D01*
X037756Y012973D01*
X037472Y013258D01*
X037756Y013543D01*
X037756Y013973D01*
X037472Y014258D01*
X037756Y014543D01*
X037756Y014973D01*
X037472Y015258D01*
X037756Y015543D01*
X037756Y015973D01*
X037452Y016278D01*
X037021Y016278D01*
X036741Y015998D01*
X033500Y015998D01*
X033224Y016273D01*
X033224Y018909D01*
X034038Y019723D01*
X034248Y019723D01*
X034475Y019950D01*
X034475Y020271D01*
X034248Y020499D01*
X034081Y020499D01*
X034081Y020665D01*
X033854Y020892D01*
X033687Y020892D01*
X033687Y021059D01*
X033460Y021286D01*
X033294Y021286D01*
X033294Y021452D01*
X033067Y021680D01*
X032861Y021680D01*
X032861Y021885D01*
X032633Y022113D01*
X032312Y022113D01*
X032240Y022041D01*
X032240Y024056D01*
X032204Y024144D01*
X031652Y024695D01*
X031585Y024763D01*
X031497Y024799D01*
X017189Y024799D01*
X017101Y024763D01*
X014893Y022555D01*
X013094Y022555D01*
X013006Y022519D01*
X012376Y021889D01*
X012309Y021821D01*
X012272Y021733D01*
X012272Y019738D01*
X011035Y018500D01*
X010071Y018500D01*
X010310Y018739D01*
X010858Y018739D01*
X011038Y018814D01*
X011176Y018951D01*
X011251Y019131D01*
X011251Y019326D01*
X011176Y019506D01*
X011038Y019644D01*
X010858Y019719D01*
X010064Y019719D01*
X009884Y019644D01*
X009746Y019506D01*
X009671Y019326D01*
X009671Y019131D01*
X009746Y018951D01*
X009795Y018902D01*
X009393Y018500D01*
X009009Y018500D01*
X008982Y018566D01*
X008830Y018718D01*
X008631Y018800D01*
X008417Y018800D01*
X008218Y018718D01*
X008066Y018566D01*
X008024Y018464D01*
X008024Y018467D01*
X007731Y018760D01*
X007554Y018760D01*
X007554Y018290D01*
X007494Y018290D01*
X007494Y018230D01*
X007024Y018230D01*
X007024Y018053D01*
X007089Y017988D01*
X004709Y017988D01*
X004620Y017952D01*
X003951Y017282D01*
X003884Y017215D01*
X003847Y017127D01*
X003847Y016743D01*
X003752Y016704D01*
X003592Y016544D01*
X003575Y016503D01*
X003558Y016544D01*
X003398Y016704D01*
X003189Y016791D01*
X002962Y016791D01*
X002752Y016704D01*
X002592Y016544D01*
X002505Y016334D01*
X002505Y016108D01*
X002592Y015898D01*
X002752Y015738D01*
X002962Y015651D01*
X003189Y015651D01*
X003272Y015685D01*
X003695Y015262D01*
X003783Y015225D01*
X004453Y015225D01*
X002657Y013429D01*
X002593Y013429D01*
X002558Y013512D01*
X002398Y013672D01*
X002246Y013735D01*
X002377Y013735D01*
X002687Y013864D01*
X002924Y014101D01*
X003053Y014411D01*
X003053Y014747D01*
X002924Y015057D01*
X002687Y015294D01*
X002377Y015423D01*
X002041Y015423D01*
X001731Y015294D01*
X001494Y015057D01*
X001365Y014747D01*
X001365Y014411D01*
X001494Y014101D01*
X001731Y013864D01*
X001984Y013759D01*
X001962Y013759D01*
X001752Y013672D01*
X001592Y013512D01*
X001505Y013303D01*
X001505Y013076D01*
X001592Y012867D01*
X001752Y012706D01*
X001793Y012689D01*
X001752Y012672D01*
X001592Y012512D01*
X001505Y012303D01*
X001505Y012076D01*
X001592Y011867D01*
X001752Y011706D01*
X001793Y011689D01*
X001752Y011672D01*
X001592Y011512D01*
X001505Y011303D01*
X001505Y011076D01*
X001592Y010867D01*
X001752Y010706D01*
X001793Y010689D01*
X001793Y010690D02*
X000650Y010690D01*
X000650Y010788D02*
X001671Y010788D01*
X001584Y010887D02*
X000650Y010887D01*
X000650Y010985D02*
X001543Y010985D01*
X001505Y011084D02*
X000650Y011084D01*
X000650Y011182D02*
X001505Y011182D01*
X001505Y011281D02*
X000650Y011281D01*
X000650Y011379D02*
X001537Y011379D01*
X001578Y011478D02*
X000650Y011478D01*
X000650Y011576D02*
X001656Y011576D01*
X001758Y011675D02*
X000650Y011675D01*
X000650Y011773D02*
X001686Y011773D01*
X001590Y011872D02*
X000650Y011872D01*
X000650Y011970D02*
X001549Y011970D01*
X001509Y012069D02*
X000650Y012069D01*
X000650Y012167D02*
X001505Y012167D01*
X001505Y012266D02*
X000650Y012266D01*
X000650Y012364D02*
X001531Y012364D01*
X001572Y012463D02*
X000650Y012463D01*
X000650Y012561D02*
X001641Y012561D01*
X001740Y012660D02*
X000650Y012660D01*
X000650Y012758D02*
X001701Y012758D01*
X001602Y012857D02*
X000650Y012857D01*
X000650Y012955D02*
X001556Y012955D01*
X001515Y013054D02*
X000650Y013054D01*
X000650Y013152D02*
X001505Y013152D01*
X001505Y013251D02*
X000650Y013251D01*
X000650Y013349D02*
X001525Y013349D01*
X001565Y013448D02*
X000650Y013448D01*
X000650Y013546D02*
X001626Y013546D01*
X001725Y013645D02*
X000650Y013645D01*
X000650Y013743D02*
X001923Y013743D01*
X001785Y013842D02*
X000650Y013842D01*
X000650Y013940D02*
X001655Y013940D01*
X001556Y014039D02*
X000650Y014039D01*
X000650Y014137D02*
X001479Y014137D01*
X001438Y014236D02*
X000650Y014236D01*
X000650Y014334D02*
X001397Y014334D01*
X001365Y014433D02*
X000650Y014433D01*
X000650Y014531D02*
X001365Y014531D01*
X001365Y014630D02*
X000650Y014630D01*
X000650Y014728D02*
X001365Y014728D01*
X001398Y014827D02*
X000650Y014827D01*
X000650Y014925D02*
X001439Y014925D01*
X001480Y015024D02*
X000650Y015024D01*
X000650Y015122D02*
X001559Y015122D01*
X001657Y015221D02*
X000650Y015221D01*
X000650Y015319D02*
X001791Y015319D01*
X002028Y015418D02*
X000650Y015418D01*
X000650Y015516D02*
X003441Y015516D01*
X003539Y015418D02*
X002390Y015418D01*
X002627Y015319D02*
X003638Y015319D01*
X003831Y015465D02*
X003075Y016221D01*
X002546Y016009D02*
X000650Y016009D01*
X000650Y016107D02*
X002506Y016107D01*
X002505Y016206D02*
X000650Y016206D01*
X000650Y016304D02*
X002505Y016304D01*
X002534Y016403D02*
X000650Y016403D01*
X000650Y016501D02*
X002575Y016501D01*
X002648Y016600D02*
X000650Y016600D01*
X000650Y016698D02*
X002747Y016698D01*
X003404Y016698D02*
X003747Y016698D01*
X003648Y016600D02*
X003502Y016600D01*
X003847Y016797D02*
X000650Y016797D01*
X000650Y016895D02*
X003847Y016895D01*
X003847Y016994D02*
X000650Y016994D01*
X000650Y017092D02*
X003847Y017092D01*
X003874Y017191D02*
X000650Y017191D01*
X000650Y017289D02*
X003958Y017289D01*
X004056Y017388D02*
X000650Y017388D01*
X000650Y017486D02*
X004155Y017486D01*
X004253Y017585D02*
X000650Y017585D01*
X000650Y017683D02*
X004352Y017683D01*
X004450Y017782D02*
X000650Y017782D01*
X000650Y017880D02*
X004549Y017880D01*
X004685Y017979D02*
X000650Y017979D01*
X000650Y018077D02*
X007024Y018077D01*
X007024Y018176D02*
X000650Y018176D01*
X000650Y018274D02*
X007494Y018274D01*
X007494Y018290D02*
X007024Y018290D01*
X007024Y018467D01*
X007317Y018760D01*
X007494Y018760D01*
X007494Y018290D01*
X007494Y018373D02*
X007554Y018373D01*
X007554Y018471D02*
X007494Y018471D01*
X007494Y018570D02*
X007554Y018570D01*
X007554Y018668D02*
X007494Y018668D01*
X007225Y018668D02*
X004975Y018668D01*
X004928Y018639D02*
X005033Y018704D01*
X005129Y018781D01*
X005216Y018868D01*
X005292Y018964D01*
X005358Y019068D01*
X005411Y019179D01*
X005452Y019295D01*
X005479Y019415D01*
X005493Y019537D01*
X005493Y019549D01*
X004448Y019549D01*
X004448Y019649D01*
X004348Y019649D01*
X004348Y020694D01*
X004337Y020694D01*
X004214Y020680D01*
X004094Y020653D01*
X003978Y020612D01*
X003938Y020593D01*
X003987Y020632D01*
X004074Y020718D01*
X004151Y020815D01*
X004216Y020919D01*
X004269Y021030D01*
X004310Y021146D01*
X004337Y021266D01*
X004351Y021388D01*
X004351Y021399D01*
X003306Y021399D01*
X003306Y020354D01*
X003318Y020354D01*
X003440Y020368D01*
X003560Y020395D01*
X003676Y020436D01*
X003716Y020455D01*
X003667Y020416D01*
X003580Y020330D01*
X003504Y020233D01*
X003438Y020129D01*
X003385Y020018D01*
X003344Y019902D01*
X003317Y019783D01*
X003303Y019660D01*
X003303Y019649D01*
X004348Y019649D01*
X004348Y019549D01*
X003303Y019549D01*
X003303Y019537D01*
X003317Y019415D01*
X003344Y019295D01*
X003385Y019179D01*
X003438Y019068D01*
X003504Y018964D01*
X003580Y018868D01*
X003667Y018781D01*
X003763Y018704D01*
X003868Y018639D01*
X003978Y018586D01*
X004094Y018545D01*
X004214Y018518D01*
X004337Y018504D01*
X004348Y018504D01*
X004348Y019549D01*
X004448Y019549D01*
X004448Y018504D01*
X004460Y018504D01*
X004582Y018518D01*
X004702Y018545D01*
X004818Y018586D01*
X004928Y018639D01*
X004772Y018570D02*
X007126Y018570D01*
X007028Y018471D02*
X000650Y018471D01*
X000650Y018373D02*
X007024Y018373D01*
X007823Y018668D02*
X008168Y018668D01*
X008070Y018570D02*
X007922Y018570D01*
X008020Y018471D02*
X008027Y018471D01*
X008024Y018057D02*
X008052Y017988D01*
X007959Y017988D01*
X008024Y018053D01*
X008024Y018057D01*
X008524Y018260D02*
X009493Y018260D01*
X010461Y019229D01*
X011090Y018865D02*
X011400Y018865D01*
X011301Y018767D02*
X010925Y018767D01*
X011104Y018570D02*
X010141Y018570D01*
X010239Y018668D02*
X011203Y018668D01*
X011181Y018964D02*
X011498Y018964D01*
X011597Y019062D02*
X011222Y019062D01*
X011251Y019161D02*
X011695Y019161D01*
X011794Y019259D02*
X011251Y019259D01*
X011238Y019358D02*
X011892Y019358D01*
X011991Y019456D02*
X011197Y019456D01*
X011128Y019555D02*
X012089Y019555D01*
X012188Y019653D02*
X011016Y019653D01*
X010934Y019812D02*
X010997Y019844D01*
X011054Y019885D01*
X011104Y019936D01*
X011146Y019993D01*
X011178Y020056D01*
X011200Y020123D01*
X011209Y020179D01*
X010511Y020179D01*
X010511Y020279D01*
X010411Y020279D01*
X010411Y020679D01*
X010126Y020679D01*
X010056Y020668D01*
X009988Y020646D01*
X009925Y020614D01*
X009868Y020572D01*
X009818Y020522D01*
X009776Y020465D01*
X009744Y020401D01*
X009722Y020334D01*
X009713Y020279D01*
X010411Y020279D01*
X010411Y020179D01*
X009713Y020179D01*
X009722Y020123D01*
X009744Y020056D01*
X009776Y019993D01*
X009818Y019936D01*
X009868Y019885D01*
X009925Y019844D01*
X009988Y019812D01*
X010056Y019790D01*
X010126Y019779D01*
X010411Y019779D01*
X010411Y020179D01*
X010511Y020179D01*
X010511Y019779D01*
X010796Y019779D01*
X010866Y019790D01*
X010934Y019812D01*
X011005Y019850D02*
X012272Y019850D01*
X012272Y019752D02*
X005483Y019752D01*
X005479Y019783D02*
X005452Y019902D01*
X005411Y020018D01*
X005358Y020129D01*
X005292Y020233D01*
X005216Y020330D01*
X005158Y020387D01*
X005430Y020315D01*
X005729Y020315D01*
X005857Y020349D01*
X006158Y020047D01*
X006268Y019938D01*
X006411Y019878D01*
X006909Y019878D01*
X006909Y019870D01*
X007020Y019759D01*
X007768Y019759D01*
X007879Y019870D01*
X007879Y020627D01*
X007768Y020738D01*
X007020Y020738D01*
X006940Y020658D01*
X006650Y020658D01*
X006512Y020796D01*
X006636Y021011D01*
X006714Y021300D01*
X006714Y021599D01*
X006636Y021887D01*
X006487Y022146D01*
X006276Y022357D01*
X006017Y022507D01*
X005729Y022584D01*
X005430Y022584D01*
X005141Y022507D01*
X004882Y022357D01*
X004671Y022146D01*
X004522Y021887D01*
X004444Y021599D01*
X004444Y021300D01*
X004522Y021011D01*
X004671Y020753D01*
X004809Y020615D01*
X004702Y020653D01*
X004582Y020680D01*
X004460Y020694D01*
X004448Y020694D01*
X004448Y019649D01*
X005493Y019649D01*
X005493Y019660D01*
X005479Y019783D01*
X005464Y019850D02*
X006929Y019850D01*
X006257Y019949D02*
X005436Y019949D01*
X005397Y020047D02*
X006158Y020047D01*
X006060Y020146D02*
X005348Y020146D01*
X005284Y020244D02*
X005961Y020244D01*
X005863Y020343D02*
X005833Y020343D01*
X005325Y020343D02*
X005203Y020343D01*
X004786Y020638D02*
X004743Y020638D01*
X004687Y020737D02*
X004088Y020737D01*
X004053Y020638D02*
X003994Y020638D01*
X004163Y020835D02*
X004624Y020835D01*
X004567Y020934D02*
X004223Y020934D01*
X004270Y021032D02*
X004516Y021032D01*
X004490Y021131D02*
X004305Y021131D01*
X004329Y021229D02*
X004463Y021229D01*
X004444Y021328D02*
X004344Y021328D01*
X004444Y021426D02*
X003306Y021426D01*
X003306Y021399D02*
X003306Y021499D01*
X003206Y021499D01*
X003206Y021399D01*
X002161Y021399D01*
X002161Y021388D01*
X002175Y021266D01*
X002203Y021146D01*
X002243Y021030D01*
X002297Y020919D01*
X002362Y020815D01*
X002439Y020718D01*
X002526Y020632D01*
X002622Y020555D01*
X002726Y020489D01*
X002837Y020436D01*
X002953Y020395D01*
X003073Y020368D01*
X003195Y020354D01*
X003206Y020354D01*
X003206Y021399D01*
X003306Y021399D01*
X003306Y021328D02*
X003206Y021328D01*
X003206Y021426D02*
X000650Y021426D01*
X000650Y021328D02*
X002168Y021328D01*
X002184Y021229D02*
X000650Y021229D01*
X000650Y021131D02*
X002208Y021131D01*
X002242Y021032D02*
X000650Y021032D01*
X000650Y020934D02*
X002289Y020934D01*
X002349Y020835D02*
X000650Y020835D01*
X000650Y020737D02*
X002424Y020737D01*
X002519Y020638D02*
X000650Y020638D01*
X000650Y020540D02*
X002646Y020540D01*
X002826Y020441D02*
X000650Y020441D01*
X000650Y020343D02*
X003593Y020343D01*
X003512Y020244D02*
X000650Y020244D01*
X000650Y020146D02*
X003448Y020146D01*
X003399Y020047D02*
X000650Y020047D01*
X000650Y019949D02*
X003360Y019949D01*
X003332Y019850D02*
X000650Y019850D01*
X000650Y019752D02*
X003313Y019752D01*
X003303Y019653D02*
X000650Y019653D01*
X000650Y019555D02*
X004348Y019555D01*
X004348Y019653D02*
X004448Y019653D01*
X004448Y019555D02*
X009794Y019555D01*
X009725Y019456D02*
X005484Y019456D01*
X005466Y019358D02*
X009684Y019358D01*
X009671Y019259D02*
X005439Y019259D01*
X005402Y019161D02*
X009671Y019161D01*
X009700Y019062D02*
X005354Y019062D01*
X005292Y018964D02*
X009741Y018964D01*
X009758Y018865D02*
X005213Y018865D01*
X005110Y018767D02*
X008336Y018767D01*
X008712Y018767D02*
X009660Y018767D01*
X009561Y018668D02*
X008880Y018668D01*
X008978Y018570D02*
X009463Y018570D01*
X009835Y018260D02*
X009323Y017748D01*
X004756Y017748D01*
X004087Y017079D01*
X004087Y016233D01*
X004075Y016221D01*
X004472Y015812D02*
X004679Y015812D01*
X004752Y015738D02*
X004832Y015705D01*
X004318Y015705D01*
X004398Y015738D01*
X004558Y015898D01*
X004575Y015939D01*
X004592Y015898D01*
X004752Y015738D01*
X004812Y015713D02*
X004338Y015713D01*
X004563Y015910D02*
X004587Y015910D01*
X005075Y016221D02*
X005075Y017241D01*
X005426Y017591D01*
X009402Y017591D01*
X009914Y018103D01*
X011213Y018103D01*
X012709Y019599D01*
X012709Y021607D01*
X013260Y022158D01*
X015111Y022158D01*
X017315Y024363D01*
X028536Y024363D01*
X031174Y021725D01*
X031607Y021725D01*
X031350Y022017D02*
X031220Y022017D01*
X031273Y021965D02*
X028918Y024320D01*
X031350Y024320D01*
X031761Y023909D01*
X031761Y022113D01*
X031446Y022113D01*
X031298Y021965D01*
X031273Y021965D01*
X031122Y022116D02*
X031761Y022116D01*
X031761Y022214D02*
X031023Y022214D01*
X030925Y022313D02*
X031761Y022313D01*
X031761Y022411D02*
X030826Y022411D01*
X030728Y022510D02*
X031761Y022510D01*
X031761Y022608D02*
X030629Y022608D01*
X030531Y022707D02*
X031761Y022707D01*
X031761Y022805D02*
X030432Y022805D01*
X030334Y022904D02*
X031761Y022904D01*
X031761Y023002D02*
X030235Y023002D01*
X030137Y023101D02*
X031761Y023101D01*
X031761Y023199D02*
X030038Y023199D01*
X029940Y023298D02*
X031761Y023298D01*
X031761Y023396D02*
X029841Y023396D01*
X029743Y023495D02*
X031761Y023495D01*
X031761Y023593D02*
X029644Y023593D01*
X029546Y023692D02*
X031761Y023692D01*
X031761Y023790D02*
X029447Y023790D01*
X029349Y023889D02*
X031761Y023889D01*
X031683Y023987D02*
X029250Y023987D01*
X029152Y024086D02*
X031584Y024086D01*
X031486Y024184D02*
X029053Y024184D01*
X028955Y024283D02*
X031387Y024283D01*
X031449Y024559D02*
X017237Y024559D01*
X014993Y022315D01*
X013142Y022315D01*
X012512Y021685D01*
X012512Y019638D01*
X011134Y018260D01*
X009835Y018260D01*
X009256Y018020D02*
X009224Y017988D01*
X008996Y017988D01*
X009009Y018020D01*
X009256Y018020D01*
X009481Y017433D02*
X009993Y017945D01*
X011292Y017945D01*
X012906Y019559D01*
X012906Y021528D01*
X013378Y022000D01*
X015189Y022000D01*
X017394Y024205D01*
X027867Y024205D01*
X030780Y021292D01*
X031174Y021292D01*
X031095Y021292D01*
X030872Y021539D02*
X028288Y024123D01*
X028437Y024123D01*
X030946Y021613D01*
X030872Y021539D01*
X030936Y021623D02*
X030788Y021623D01*
X030838Y021722D02*
X030689Y021722D01*
X030739Y021820D02*
X030591Y021820D01*
X030641Y021919D02*
X030492Y021919D01*
X030542Y022017D02*
X030394Y022017D01*
X030444Y022116D02*
X030295Y022116D01*
X030345Y022214D02*
X030197Y022214D01*
X030247Y022313D02*
X030098Y022313D01*
X030148Y022411D02*
X030000Y022411D01*
X030050Y022510D02*
X029901Y022510D01*
X029951Y022608D02*
X029803Y022608D01*
X029853Y022707D02*
X029704Y022707D01*
X029754Y022805D02*
X029606Y022805D01*
X029656Y022904D02*
X029507Y022904D01*
X029557Y023002D02*
X029409Y023002D01*
X029459Y023101D02*
X029310Y023101D01*
X029360Y023199D02*
X029212Y023199D01*
X029262Y023298D02*
X029113Y023298D01*
X029163Y023396D02*
X029015Y023396D01*
X029065Y023495D02*
X028916Y023495D01*
X028966Y023593D02*
X028818Y023593D01*
X028868Y023692D02*
X028719Y023692D01*
X028769Y023790D02*
X028621Y023790D01*
X028671Y023889D02*
X028522Y023889D01*
X028572Y023987D02*
X028424Y023987D01*
X028474Y024086D02*
X028325Y024086D01*
X027433Y024008D02*
X030544Y020898D01*
X030780Y020898D01*
X030701Y020898D01*
X030970Y020540D02*
X031761Y020540D01*
X031761Y020638D02*
X031068Y020638D01*
X031167Y020737D02*
X031761Y020737D01*
X031761Y020835D02*
X031168Y020835D01*
X031364Y020934D02*
X031761Y020934D01*
X031761Y021032D02*
X031462Y021032D01*
X031561Y021328D02*
X031761Y021328D01*
X032197Y021449D02*
X032473Y021725D01*
X032861Y021722D02*
X037760Y021722D01*
X037760Y021820D02*
X032861Y021820D01*
X032828Y021919D02*
X037760Y021919D01*
X037760Y022017D02*
X032729Y022017D01*
X033123Y021623D02*
X037760Y021623D01*
X037760Y021525D02*
X033222Y021525D01*
X033294Y021426D02*
X037760Y021426D01*
X037760Y021328D02*
X033294Y021328D01*
X033517Y021229D02*
X037760Y021229D01*
X037760Y021131D02*
X033616Y021131D01*
X033687Y021032D02*
X037760Y021032D01*
X037760Y020934D02*
X033687Y020934D01*
X033911Y020835D02*
X037760Y020835D01*
X037760Y020737D02*
X034010Y020737D01*
X034081Y020638D02*
X037760Y020638D01*
X037760Y020540D02*
X034081Y020540D01*
X034305Y020441D02*
X037760Y020441D01*
X037760Y020343D02*
X034404Y020343D01*
X034475Y020244D02*
X036988Y020244D01*
X037021Y020278D02*
X036717Y019973D01*
X036717Y019543D01*
X037002Y019258D01*
X036717Y018973D01*
X036717Y018543D01*
X037002Y018258D01*
X036717Y017973D01*
X036717Y017543D01*
X037021Y017238D01*
X037452Y017238D01*
X037756Y017543D01*
X037756Y017973D01*
X037472Y018258D01*
X037756Y018543D01*
X037756Y018973D01*
X037472Y019258D01*
X037756Y019543D01*
X037756Y019973D01*
X037452Y020278D01*
X037021Y020278D01*
X036889Y020146D02*
X034475Y020146D01*
X034475Y020047D02*
X036791Y020047D01*
X036717Y019949D02*
X034473Y019949D01*
X034375Y019850D02*
X036717Y019850D01*
X036717Y019752D02*
X034276Y019752D01*
X033969Y019653D02*
X036717Y019653D01*
X036717Y019555D02*
X033870Y019555D01*
X033772Y019456D02*
X036803Y019456D01*
X036902Y019358D02*
X033673Y019358D01*
X033575Y019259D02*
X037000Y019259D01*
X036904Y019161D02*
X033476Y019161D01*
X033378Y019062D02*
X036806Y019062D01*
X036717Y018964D02*
X033279Y018964D01*
X033224Y018865D02*
X036717Y018865D01*
X036717Y018767D02*
X033224Y018767D01*
X033224Y018668D02*
X036717Y018668D01*
X036717Y018570D02*
X033224Y018570D01*
X033224Y018471D02*
X036788Y018471D01*
X036887Y018373D02*
X033224Y018373D01*
X033224Y018274D02*
X036985Y018274D01*
X036919Y018176D02*
X033224Y018176D01*
X033224Y018077D02*
X036821Y018077D01*
X036722Y017979D02*
X033224Y017979D01*
X033224Y017880D02*
X036717Y017880D01*
X036717Y017782D02*
X033224Y017782D01*
X033224Y017683D02*
X036717Y017683D01*
X036717Y017585D02*
X033224Y017585D01*
X033224Y017486D02*
X036773Y017486D01*
X036872Y017388D02*
X033224Y017388D01*
X033224Y017289D02*
X036970Y017289D01*
X037038Y017238D02*
X036757Y016957D01*
X036757Y016806D01*
X037188Y016806D01*
X037188Y016709D01*
X037285Y016709D01*
X037285Y016278D01*
X037435Y016278D01*
X037717Y016559D01*
X037717Y016709D01*
X037285Y016709D01*
X037285Y016806D01*
X037717Y016806D01*
X037717Y016957D01*
X037435Y017238D01*
X037285Y017238D01*
X037285Y016806D01*
X037188Y016806D01*
X037188Y017238D01*
X037038Y017238D01*
X036990Y017191D02*
X033224Y017191D01*
X033224Y017092D02*
X036892Y017092D01*
X036793Y016994D02*
X033224Y016994D01*
X033224Y016895D02*
X036757Y016895D01*
X036757Y016709D02*
X036757Y016559D01*
X037038Y016278D01*
X037188Y016278D01*
X037188Y016709D01*
X036757Y016709D01*
X036757Y016698D02*
X033224Y016698D01*
X033224Y016600D02*
X036757Y016600D01*
X036815Y016501D02*
X033224Y016501D01*
X033224Y016403D02*
X036913Y016403D01*
X037012Y016304D02*
X033224Y016304D01*
X033292Y016206D02*
X036949Y016206D01*
X036851Y016107D02*
X033390Y016107D01*
X033489Y016009D02*
X036752Y016009D01*
X036741Y015518D02*
X033448Y015518D01*
X033353Y015518D01*
X033265Y015555D01*
X033028Y015792D01*
X033028Y015525D01*
X033555Y014998D01*
X036741Y014998D01*
X037002Y015258D01*
X036741Y015518D01*
X036743Y015516D02*
X033036Y015516D01*
X033028Y015615D02*
X033205Y015615D01*
X033106Y015713D02*
X033028Y015713D01*
X033135Y015418D02*
X036842Y015418D01*
X036940Y015319D02*
X033233Y015319D01*
X033332Y015221D02*
X036964Y015221D01*
X036866Y015122D02*
X033430Y015122D01*
X033529Y015024D02*
X036767Y015024D01*
X037237Y014758D02*
X033456Y014758D01*
X032788Y015426D01*
X032788Y019599D01*
X033693Y020504D01*
X033305Y020510D02*
X033305Y020456D01*
X032831Y019981D01*
X032831Y020090D01*
X033251Y020510D01*
X033305Y020510D01*
X033291Y020441D02*
X033182Y020441D01*
X033192Y020343D02*
X033083Y020343D01*
X033094Y020244D02*
X032985Y020244D01*
X032995Y020146D02*
X032886Y020146D01*
X032897Y020047D02*
X032831Y020047D01*
X032591Y020189D02*
X033300Y020898D01*
X032912Y020904D02*
X032912Y020849D01*
X032634Y020571D01*
X032634Y020681D01*
X032857Y020904D01*
X032912Y020904D01*
X032898Y020835D02*
X032788Y020835D01*
X032799Y020737D02*
X032690Y020737D01*
X032701Y020638D02*
X032634Y020638D01*
X032394Y020780D02*
X032906Y021292D01*
X032518Y021328D02*
X032437Y021328D01*
X032437Y021337D02*
X032437Y021162D01*
X032518Y021243D01*
X032518Y021337D01*
X032437Y021337D01*
X032437Y021229D02*
X032504Y021229D01*
X032197Y021449D02*
X032197Y013221D01*
X033660Y011758D01*
X037237Y011758D01*
X037593Y011379D02*
X037760Y011379D01*
X037760Y011281D02*
X037494Y011281D01*
X037548Y011182D02*
X037760Y011182D01*
X037760Y011084D02*
X037646Y011084D01*
X037745Y010985D02*
X037760Y010985D01*
X037756Y010887D02*
X037760Y010887D01*
X037756Y010788D02*
X037760Y010788D01*
X037756Y010690D02*
X037760Y010690D01*
X037756Y010591D02*
X037760Y010591D01*
X037760Y010493D02*
X037706Y010493D01*
X037760Y010394D02*
X037608Y010394D01*
X037509Y010296D02*
X037760Y010296D01*
X037760Y010197D02*
X034497Y010197D01*
X034399Y010296D02*
X036964Y010296D01*
X036865Y010394D02*
X034300Y010394D01*
X034202Y010493D02*
X036767Y010493D01*
X037237Y010758D02*
X034385Y010758D01*
X032000Y013142D01*
X032000Y024008D01*
X031449Y024559D01*
X031555Y024775D02*
X037760Y024775D01*
X037760Y024677D02*
X031671Y024677D01*
X031770Y024578D02*
X037760Y024578D01*
X037760Y024480D02*
X031868Y024480D01*
X031967Y024381D02*
X037760Y024381D01*
X037760Y024283D02*
X032065Y024283D01*
X032164Y024184D02*
X037760Y024184D01*
X037760Y024086D02*
X032228Y024086D01*
X032240Y023987D02*
X037760Y023987D01*
X037760Y023889D02*
X032240Y023889D01*
X032240Y023790D02*
X037760Y023790D01*
X037760Y023692D02*
X032240Y023692D01*
X032240Y023593D02*
X037760Y023593D01*
X037760Y023495D02*
X032240Y023495D01*
X032240Y023396D02*
X037760Y023396D01*
X037760Y023298D02*
X032240Y023298D01*
X032240Y023199D02*
X037760Y023199D01*
X037760Y023101D02*
X032240Y023101D01*
X032240Y023002D02*
X037760Y023002D01*
X037760Y022904D02*
X032240Y022904D01*
X032240Y022805D02*
X037760Y022805D01*
X037760Y022707D02*
X032240Y022707D01*
X032240Y022608D02*
X037760Y022608D01*
X037760Y022510D02*
X032240Y022510D01*
X032240Y022411D02*
X037760Y022411D01*
X037760Y022313D02*
X032240Y022313D01*
X032240Y022214D02*
X037760Y022214D01*
X037760Y022116D02*
X032240Y022116D01*
X032394Y020780D02*
X032394Y013300D01*
X032936Y012758D01*
X037237Y012758D01*
X037578Y013152D02*
X037760Y013152D01*
X037760Y013054D02*
X037676Y013054D01*
X037756Y012955D02*
X037760Y012955D01*
X037756Y012857D02*
X037760Y012857D01*
X037756Y012758D02*
X037760Y012758D01*
X037756Y012660D02*
X037760Y012660D01*
X037756Y012561D02*
X037760Y012561D01*
X037760Y012463D02*
X037676Y012463D01*
X037760Y012364D02*
X037578Y012364D01*
X037479Y012266D02*
X037760Y012266D01*
X037760Y012167D02*
X037563Y012167D01*
X037661Y012069D02*
X037760Y012069D01*
X037756Y011970D02*
X037760Y011970D01*
X037756Y011872D02*
X037760Y011872D01*
X037756Y011773D02*
X037760Y011773D01*
X037756Y011675D02*
X037760Y011675D01*
X037756Y011576D02*
X037760Y011576D01*
X037760Y011478D02*
X037691Y011478D01*
X037002Y011258D02*
X036741Y011518D01*
X033963Y011518D01*
X034484Y010998D01*
X036741Y010998D01*
X037002Y011258D01*
X036979Y011281D02*
X034201Y011281D01*
X034103Y011379D02*
X036880Y011379D01*
X036782Y011478D02*
X034004Y011478D01*
X034300Y011182D02*
X036926Y011182D01*
X036827Y011084D02*
X034398Y011084D01*
X034015Y010788D02*
X033906Y010788D01*
X033917Y010887D02*
X033808Y010887D01*
X033818Y010985D02*
X033709Y010985D01*
X033720Y011084D02*
X033611Y011084D01*
X033621Y011182D02*
X033512Y011182D01*
X033523Y011281D02*
X033414Y011281D01*
X033424Y011379D02*
X033315Y011379D01*
X033326Y011478D02*
X033217Y011478D01*
X033227Y011576D02*
X033118Y011576D01*
X033129Y011675D02*
X033020Y011675D01*
X033030Y011773D02*
X032921Y011773D01*
X032932Y011872D02*
X032823Y011872D01*
X032833Y011970D02*
X032724Y011970D01*
X032735Y012069D02*
X032626Y012069D01*
X032636Y012167D02*
X032527Y012167D01*
X032538Y012266D02*
X032429Y012266D01*
X032439Y012364D02*
X032330Y012364D01*
X032341Y012463D02*
X032232Y012463D01*
X032242Y012561D02*
X032133Y012561D01*
X032144Y012660D02*
X032035Y012660D01*
X032045Y012758D02*
X031936Y012758D01*
X031947Y012857D02*
X031838Y012857D01*
X031848Y012955D02*
X031739Y012955D01*
X031778Y013054D02*
X031641Y013054D01*
X031542Y013152D02*
X031761Y013152D01*
X031761Y013251D02*
X031444Y013251D01*
X031345Y013349D02*
X031761Y013349D01*
X031761Y013448D02*
X031247Y013448D01*
X031148Y013546D02*
X031761Y013546D01*
X031761Y013645D02*
X031050Y013645D01*
X030951Y013743D02*
X031761Y013743D01*
X031761Y013842D02*
X030853Y013842D01*
X030754Y013940D02*
X031761Y013940D01*
X031761Y014039D02*
X030656Y014039D01*
X030557Y014137D02*
X031761Y014137D01*
X031761Y014236D02*
X030459Y014236D01*
X030360Y014334D02*
X031761Y014334D01*
X031761Y014433D02*
X030262Y014433D01*
X030163Y014531D02*
X031761Y014531D01*
X031761Y014630D02*
X030065Y014630D01*
X029966Y014728D02*
X031761Y014728D01*
X031761Y014827D02*
X029868Y014827D01*
X029769Y014925D02*
X031761Y014925D01*
X031761Y015024D02*
X029671Y015024D01*
X029572Y015122D02*
X031761Y015122D01*
X031761Y015221D02*
X029474Y015221D01*
X029375Y015319D02*
X031761Y015319D01*
X031761Y015418D02*
X029277Y015418D01*
X029178Y015516D02*
X031761Y015516D01*
X031761Y015615D02*
X029080Y015615D01*
X028981Y015713D02*
X031761Y015713D01*
X031761Y015812D02*
X028883Y015812D01*
X028784Y015910D02*
X031761Y015910D01*
X031761Y016009D02*
X028686Y016009D01*
X028587Y016107D02*
X031761Y016107D01*
X031761Y016206D02*
X028489Y016206D01*
X028390Y016304D02*
X031761Y016304D01*
X031761Y016403D02*
X028292Y016403D01*
X028193Y016501D02*
X031761Y016501D01*
X031761Y016600D02*
X028095Y016600D01*
X027996Y016698D02*
X031761Y016698D01*
X031761Y016797D02*
X027898Y016797D01*
X027799Y016895D02*
X031761Y016895D01*
X031761Y016994D02*
X027701Y016994D01*
X027602Y017092D02*
X031761Y017092D01*
X031761Y017191D02*
X027504Y017191D01*
X027405Y017289D02*
X031761Y017289D01*
X031761Y017388D02*
X027307Y017388D01*
X027208Y017486D02*
X031761Y017486D01*
X031761Y017585D02*
X027110Y017585D01*
X027011Y017683D02*
X031761Y017683D01*
X031761Y017782D02*
X026913Y017782D01*
X026814Y017880D02*
X031761Y017880D01*
X031761Y017979D02*
X026716Y017979D01*
X026617Y018077D02*
X031761Y018077D01*
X031761Y018176D02*
X026519Y018176D01*
X026420Y018274D02*
X031761Y018274D01*
X031761Y018373D02*
X012806Y018373D01*
X012905Y018471D02*
X031761Y018471D01*
X031761Y018570D02*
X013003Y018570D01*
X013102Y018668D02*
X031761Y018668D01*
X031761Y018767D02*
X013200Y018767D01*
X013299Y018865D02*
X031761Y018865D01*
X031761Y018964D02*
X013397Y018964D01*
X013496Y019062D02*
X031761Y019062D01*
X031761Y019161D02*
X016625Y019161D01*
X016506Y019129D02*
X016786Y019204D01*
X017036Y019349D01*
X017241Y019553D01*
X017386Y019804D01*
X017461Y020084D01*
X017461Y020374D01*
X017386Y020653D01*
X017241Y020904D01*
X017036Y021109D01*
X016786Y021254D01*
X016506Y021329D01*
X016216Y021329D01*
X015936Y021254D01*
X015686Y021109D01*
X015481Y020904D01*
X015336Y020653D01*
X015261Y020374D01*
X015261Y020084D01*
X015336Y019804D01*
X015481Y019553D01*
X015686Y019349D01*
X015936Y019204D01*
X016216Y019129D01*
X016506Y019129D01*
X016881Y019259D02*
X031761Y019259D01*
X031761Y019358D02*
X017045Y019358D01*
X017144Y019456D02*
X031761Y019456D01*
X031761Y019555D02*
X017242Y019555D01*
X017299Y019653D02*
X031761Y019653D01*
X031761Y019752D02*
X030182Y019752D01*
X030280Y019850D02*
X031761Y019850D01*
X031761Y019949D02*
X030379Y019949D01*
X030380Y020047D02*
X031761Y020047D01*
X031761Y020146D02*
X030576Y020146D01*
X030674Y020244D02*
X031761Y020244D01*
X031761Y020343D02*
X030773Y020343D01*
X030774Y020441D02*
X031761Y020441D01*
X032591Y020189D02*
X032591Y014244D01*
X033078Y013758D01*
X037237Y013758D01*
X037563Y013349D02*
X037760Y013349D01*
X037760Y013251D02*
X037479Y013251D01*
X037661Y013448D02*
X037760Y013448D01*
X037756Y013546D02*
X037760Y013546D01*
X037756Y013645D02*
X037760Y013645D01*
X037756Y013743D02*
X037760Y013743D01*
X037756Y013842D02*
X037760Y013842D01*
X037756Y013940D02*
X037760Y013940D01*
X037760Y014039D02*
X037691Y014039D01*
X037760Y014137D02*
X037593Y014137D01*
X037494Y014236D02*
X037760Y014236D01*
X037760Y014334D02*
X037548Y014334D01*
X037646Y014433D02*
X037760Y014433D01*
X037760Y014531D02*
X037745Y014531D01*
X037756Y014630D02*
X037760Y014630D01*
X037756Y014728D02*
X037760Y014728D01*
X037756Y014827D02*
X037760Y014827D01*
X037756Y014925D02*
X037760Y014925D01*
X037760Y015024D02*
X037706Y015024D01*
X037760Y015122D02*
X037608Y015122D01*
X037509Y015221D02*
X037760Y015221D01*
X037760Y015319D02*
X037533Y015319D01*
X037631Y015418D02*
X037760Y015418D01*
X037760Y015516D02*
X037730Y015516D01*
X037756Y015615D02*
X037760Y015615D01*
X037756Y015713D02*
X037760Y015713D01*
X037756Y015812D02*
X037760Y015812D01*
X037756Y015910D02*
X037760Y015910D01*
X037760Y016009D02*
X037721Y016009D01*
X037760Y016107D02*
X037623Y016107D01*
X037524Y016206D02*
X037760Y016206D01*
X037760Y016304D02*
X037462Y016304D01*
X037560Y016403D02*
X037760Y016403D01*
X037760Y016501D02*
X037659Y016501D01*
X037717Y016600D02*
X037760Y016600D01*
X037760Y016698D02*
X037717Y016698D01*
X037760Y016797D02*
X037285Y016797D01*
X037188Y016797D02*
X033224Y016797D01*
X032985Y016174D02*
X032985Y019008D01*
X034087Y020111D01*
X033699Y020116D02*
X033699Y020062D01*
X033028Y019390D01*
X033028Y019500D01*
X033645Y020116D01*
X033699Y020116D01*
X033684Y020047D02*
X033575Y020047D01*
X033586Y019949D02*
X033477Y019949D01*
X033487Y019850D02*
X033378Y019850D01*
X033389Y019752D02*
X033280Y019752D01*
X033290Y019653D02*
X033181Y019653D01*
X033192Y019555D02*
X033083Y019555D01*
X033093Y019456D02*
X033028Y019456D01*
X030386Y020504D02*
X030150Y020504D01*
X026843Y023811D01*
X017591Y023811D01*
X015426Y021646D01*
X013575Y021646D01*
X013300Y021370D01*
X013300Y019481D01*
X011528Y017709D01*
X011528Y017670D01*
X011489Y017630D01*
X010189Y017630D01*
X009678Y017119D01*
X008536Y017119D01*
X008075Y016658D01*
X008075Y016221D01*
X007679Y015812D02*
X007472Y015812D01*
X007398Y015738D02*
X007558Y015898D01*
X007575Y015939D01*
X007592Y015898D01*
X007752Y015738D01*
X007832Y015705D01*
X007318Y015705D01*
X007398Y015738D01*
X007338Y015713D02*
X007812Y015713D01*
X007587Y015910D02*
X007563Y015910D01*
X007075Y016221D02*
X007075Y016878D01*
X007473Y017276D01*
X009559Y017276D01*
X010071Y017788D01*
X011370Y017788D01*
X013103Y019520D01*
X013103Y021449D01*
X013496Y021843D01*
X015347Y021843D01*
X017512Y024008D01*
X027433Y024008D01*
X027334Y023769D02*
X027225Y023769D01*
X030163Y020830D01*
X030218Y020885D01*
X027334Y023769D01*
X027302Y023692D02*
X027411Y023692D01*
X027400Y023593D02*
X027510Y023593D01*
X027499Y023495D02*
X027608Y023495D01*
X027597Y023396D02*
X027707Y023396D01*
X027696Y023298D02*
X027805Y023298D01*
X027794Y023199D02*
X027904Y023199D01*
X027893Y023101D02*
X028002Y023101D01*
X027991Y023002D02*
X028101Y023002D01*
X028090Y022904D02*
X028199Y022904D01*
X028188Y022805D02*
X028298Y022805D01*
X028287Y022707D02*
X028396Y022707D01*
X028385Y022608D02*
X028495Y022608D01*
X028484Y022510D02*
X028593Y022510D01*
X028582Y022411D02*
X028692Y022411D01*
X028681Y022313D02*
X028790Y022313D01*
X028779Y022214D02*
X028889Y022214D01*
X028878Y022116D02*
X028987Y022116D01*
X028976Y022017D02*
X029086Y022017D01*
X029075Y021919D02*
X029184Y021919D01*
X029173Y021820D02*
X029283Y021820D01*
X029272Y021722D02*
X029381Y021722D01*
X029370Y021623D02*
X029480Y021623D01*
X029469Y021525D02*
X029578Y021525D01*
X029567Y021426D02*
X029677Y021426D01*
X029666Y021328D02*
X029775Y021328D01*
X029764Y021229D02*
X029874Y021229D01*
X029863Y021131D02*
X029972Y021131D01*
X029961Y021032D02*
X030071Y021032D01*
X030060Y020934D02*
X030169Y020934D01*
X030158Y020835D02*
X030168Y020835D01*
X030347Y020504D02*
X030386Y020504D01*
X029824Y020491D02*
X029770Y020436D01*
X026634Y023572D01*
X026744Y023572D01*
X029824Y020491D01*
X029776Y020540D02*
X029666Y020540D01*
X029677Y020638D02*
X029568Y020638D01*
X029579Y020737D02*
X029469Y020737D01*
X029480Y020835D02*
X029371Y020835D01*
X029382Y020934D02*
X029272Y020934D01*
X029283Y021032D02*
X029174Y021032D01*
X029185Y021131D02*
X029075Y021131D01*
X029086Y021229D02*
X028977Y021229D01*
X028988Y021328D02*
X028878Y021328D01*
X028889Y021426D02*
X028780Y021426D01*
X028791Y021525D02*
X028681Y021525D01*
X028692Y021623D02*
X028583Y021623D01*
X028594Y021722D02*
X028484Y021722D01*
X028495Y021820D02*
X028386Y021820D01*
X028397Y021919D02*
X028287Y021919D01*
X028298Y022017D02*
X028189Y022017D01*
X028200Y022116D02*
X028090Y022116D01*
X028101Y022214D02*
X027992Y022214D01*
X028003Y022313D02*
X027893Y022313D01*
X027904Y022411D02*
X027795Y022411D01*
X027806Y022510D02*
X027696Y022510D01*
X027707Y022608D02*
X027598Y022608D01*
X027609Y022707D02*
X027499Y022707D01*
X027510Y022805D02*
X027401Y022805D01*
X027412Y022904D02*
X027302Y022904D01*
X027313Y023002D02*
X027204Y023002D01*
X027215Y023101D02*
X027105Y023101D01*
X027116Y023199D02*
X027007Y023199D01*
X027018Y023298D02*
X026908Y023298D01*
X026919Y023396D02*
X026810Y023396D01*
X026821Y023495D02*
X026711Y023495D01*
X026252Y023615D02*
X029756Y020111D01*
X029993Y020111D01*
X029874Y020111D01*
X029705Y019850D02*
X017398Y019850D01*
X017425Y019949D02*
X029579Y019949D01*
X029481Y020047D02*
X017451Y020047D01*
X017461Y020146D02*
X029382Y020146D01*
X029284Y020244D02*
X017461Y020244D01*
X017461Y020343D02*
X029185Y020343D01*
X029087Y020441D02*
X017443Y020441D01*
X017417Y020540D02*
X028988Y020540D01*
X028890Y020638D02*
X017390Y020638D01*
X017338Y020737D02*
X028791Y020737D01*
X028693Y020835D02*
X017281Y020835D01*
X017212Y020934D02*
X028594Y020934D01*
X028496Y021032D02*
X017113Y021032D01*
X016999Y021131D02*
X028397Y021131D01*
X028299Y021229D02*
X016828Y021229D01*
X016510Y021328D02*
X028200Y021328D01*
X028102Y021426D02*
X015820Y021426D01*
X015722Y021328D02*
X016212Y021328D01*
X015894Y021229D02*
X015599Y021229D01*
X015723Y021131D02*
X013736Y021131D01*
X013736Y021032D02*
X015609Y021032D01*
X015510Y020934D02*
X013736Y020934D01*
X013736Y020835D02*
X015441Y020835D01*
X015384Y020737D02*
X013736Y020737D01*
X013736Y020638D02*
X015332Y020638D01*
X015306Y020540D02*
X013736Y020540D01*
X013736Y020441D02*
X015279Y020441D01*
X015261Y020343D02*
X013736Y020343D01*
X013736Y020244D02*
X015261Y020244D01*
X015261Y020146D02*
X013736Y020146D01*
X013736Y020047D02*
X015271Y020047D01*
X015297Y019949D02*
X013736Y019949D01*
X013736Y019850D02*
X015324Y019850D01*
X015366Y019752D02*
X013736Y019752D01*
X013736Y019653D02*
X015423Y019653D01*
X015480Y019555D02*
X013736Y019555D01*
X013736Y019456D02*
X015578Y019456D01*
X015677Y019358D02*
X013736Y019358D01*
X013693Y019259D02*
X015841Y019259D01*
X016097Y019161D02*
X013594Y019161D01*
X013496Y019402D02*
X013496Y021292D01*
X013654Y021449D01*
X015504Y021449D01*
X017670Y023615D01*
X026252Y023615D01*
X026230Y023298D02*
X017692Y023298D01*
X017593Y023199D02*
X026329Y023199D01*
X026427Y023101D02*
X017495Y023101D01*
X017396Y023002D02*
X026526Y023002D01*
X026624Y022904D02*
X017298Y022904D01*
X017199Y022805D02*
X026723Y022805D01*
X026821Y022707D02*
X017101Y022707D01*
X017002Y022608D02*
X026920Y022608D01*
X027018Y022510D02*
X016904Y022510D01*
X016805Y022411D02*
X027117Y022411D01*
X027215Y022313D02*
X016707Y022313D01*
X016608Y022214D02*
X027314Y022214D01*
X027412Y022116D02*
X016510Y022116D01*
X016411Y022017D02*
X027511Y022017D01*
X027609Y021919D02*
X016313Y021919D01*
X016214Y021820D02*
X027708Y021820D01*
X027806Y021722D02*
X016116Y021722D01*
X016017Y021623D02*
X027905Y021623D01*
X028003Y021525D02*
X015919Y021525D01*
X014946Y022608D02*
X008877Y022608D01*
X008830Y022655D02*
X008982Y022503D01*
X009064Y022305D01*
X009064Y022090D01*
X008982Y021891D01*
X008830Y021740D01*
X008764Y021712D01*
X008764Y021127D01*
X008908Y020983D01*
X008975Y020916D01*
X009012Y020828D01*
X009012Y020808D01*
X009592Y021388D01*
X009660Y021456D01*
X009738Y021488D01*
X009746Y021506D01*
X009884Y021644D01*
X010064Y021719D01*
X010858Y021719D01*
X011038Y021644D01*
X011176Y021506D01*
X011251Y021326D01*
X011251Y021131D01*
X011176Y020951D01*
X011038Y020814D01*
X010858Y020739D01*
X010064Y020739D01*
X009884Y020814D01*
X009790Y020907D01*
X009257Y020375D01*
X009257Y019870D01*
X009146Y019759D01*
X008398Y019759D01*
X008287Y019870D01*
X008287Y020627D01*
X008398Y020738D01*
X008475Y020738D01*
X008321Y020892D01*
X008284Y020980D01*
X008284Y021712D01*
X008218Y021740D01*
X008066Y021891D01*
X008024Y021994D01*
X008024Y021990D01*
X007731Y021697D01*
X007554Y021697D01*
X007554Y022167D01*
X007494Y022167D01*
X007494Y021697D01*
X007317Y021697D01*
X007024Y021990D01*
X007024Y022167D01*
X007494Y022167D01*
X007494Y022227D01*
X007024Y022227D01*
X007024Y022404D01*
X007317Y022697D01*
X007494Y022697D01*
X007494Y022227D01*
X007554Y022227D01*
X007554Y022697D01*
X007731Y022697D01*
X008024Y022404D01*
X008024Y022401D01*
X008066Y022503D01*
X008218Y022655D01*
X008417Y022737D01*
X008631Y022737D01*
X008830Y022655D01*
X008705Y022707D02*
X015045Y022707D01*
X015143Y022805D02*
X000650Y022805D01*
X000650Y022707D02*
X008343Y022707D01*
X008171Y022608D02*
X007820Y022608D01*
X007919Y022510D02*
X008073Y022510D01*
X008028Y022411D02*
X008017Y022411D01*
X007554Y022411D02*
X007494Y022411D01*
X007494Y022313D02*
X007554Y022313D01*
X007494Y022214D02*
X006419Y022214D01*
X006505Y022116D02*
X007024Y022116D01*
X007024Y022017D02*
X006561Y022017D01*
X006618Y021919D02*
X007096Y021919D01*
X007194Y021820D02*
X006654Y021820D01*
X006681Y021722D02*
X007293Y021722D01*
X007494Y021722D02*
X007554Y021722D01*
X007554Y021820D02*
X007494Y021820D01*
X007494Y021919D02*
X007554Y021919D01*
X007554Y022017D02*
X007494Y022017D01*
X007494Y022116D02*
X007554Y022116D01*
X007854Y021820D02*
X008138Y021820D01*
X008055Y021919D02*
X007952Y021919D01*
X007755Y021722D02*
X008262Y021722D01*
X008284Y021623D02*
X006707Y021623D01*
X006714Y021525D02*
X008284Y021525D01*
X008284Y021426D02*
X006714Y021426D01*
X006714Y021328D02*
X008284Y021328D01*
X008284Y021229D02*
X006695Y021229D01*
X006668Y021131D02*
X008284Y021131D01*
X008284Y021032D02*
X006642Y021032D01*
X006592Y020934D02*
X008304Y020934D01*
X008378Y020835D02*
X006535Y020835D01*
X006571Y020737D02*
X007019Y020737D01*
X007770Y020737D02*
X008397Y020737D01*
X008298Y020638D02*
X007868Y020638D01*
X007879Y020540D02*
X008287Y020540D01*
X008287Y020441D02*
X007879Y020441D01*
X007879Y020343D02*
X008287Y020343D01*
X008287Y020244D02*
X007879Y020244D01*
X007879Y020146D02*
X008287Y020146D01*
X008287Y020047D02*
X007879Y020047D01*
X007879Y019949D02*
X008287Y019949D01*
X008307Y019850D02*
X007859Y019850D01*
X008772Y020248D02*
X008792Y020248D01*
X009796Y021252D01*
X010437Y021252D01*
X010461Y021229D01*
X011060Y020835D02*
X012272Y020835D01*
X012272Y020737D02*
X009619Y020737D01*
X009717Y020835D02*
X009862Y020835D01*
X009973Y020638D02*
X009520Y020638D01*
X009422Y020540D02*
X009835Y020540D01*
X009764Y020441D02*
X009323Y020441D01*
X009257Y020343D02*
X009725Y020343D01*
X009719Y020146D02*
X009257Y020146D01*
X009257Y020244D02*
X010411Y020244D01*
X010411Y020146D02*
X010511Y020146D01*
X010511Y020244D02*
X012272Y020244D01*
X012272Y020146D02*
X011203Y020146D01*
X011173Y020047D02*
X012272Y020047D01*
X012272Y019949D02*
X011114Y019949D01*
X011209Y020279D02*
X010511Y020279D01*
X010511Y020679D01*
X010796Y020679D01*
X010866Y020668D01*
X010934Y020646D01*
X010997Y020614D01*
X011054Y020572D01*
X011104Y020522D01*
X011146Y020465D01*
X011178Y020401D01*
X011200Y020334D01*
X011209Y020279D01*
X011197Y020343D02*
X012272Y020343D01*
X012272Y020441D02*
X011158Y020441D01*
X011087Y020540D02*
X012272Y020540D01*
X012272Y020638D02*
X010949Y020638D01*
X011158Y020934D02*
X012272Y020934D01*
X012272Y021032D02*
X011210Y021032D01*
X011250Y021131D02*
X012272Y021131D01*
X012272Y021229D02*
X011251Y021229D01*
X011250Y021328D02*
X012272Y021328D01*
X012272Y021426D02*
X011209Y021426D01*
X011158Y021525D02*
X012272Y021525D01*
X012272Y021623D02*
X011059Y021623D01*
X009863Y021623D02*
X008764Y021623D01*
X008764Y021525D02*
X009764Y021525D01*
X009630Y021426D02*
X008764Y021426D01*
X008764Y021328D02*
X009532Y021328D01*
X009433Y021229D02*
X008764Y021229D01*
X008764Y021131D02*
X009335Y021131D01*
X009236Y021032D02*
X008859Y021032D01*
X008957Y020934D02*
X009138Y020934D01*
X009039Y020835D02*
X009009Y020835D01*
X008772Y020780D02*
X008524Y021028D01*
X008524Y022197D01*
X009020Y022411D02*
X012899Y022411D01*
X012997Y022510D02*
X008975Y022510D01*
X009060Y022313D02*
X012800Y022313D01*
X012702Y022214D02*
X009064Y022214D01*
X009064Y022116D02*
X012603Y022116D01*
X012505Y022017D02*
X009034Y022017D01*
X008993Y021919D02*
X012406Y021919D01*
X012308Y021820D02*
X008910Y021820D01*
X008786Y021722D02*
X012272Y021722D01*
X010511Y020638D02*
X010411Y020638D01*
X010411Y020540D02*
X010511Y020540D01*
X010511Y020441D02*
X010411Y020441D01*
X010411Y020343D02*
X010511Y020343D01*
X010511Y020047D02*
X010411Y020047D01*
X010411Y019949D02*
X010511Y019949D01*
X010511Y019850D02*
X010411Y019850D01*
X009917Y019850D02*
X009237Y019850D01*
X009257Y019949D02*
X009808Y019949D01*
X009749Y020047D02*
X009257Y020047D01*
X009906Y019653D02*
X005493Y019653D01*
X004448Y019752D02*
X004348Y019752D01*
X004348Y019850D02*
X004448Y019850D01*
X004448Y019949D02*
X004348Y019949D01*
X004348Y020047D02*
X004448Y020047D01*
X004448Y020146D02*
X004348Y020146D01*
X004348Y020244D02*
X004448Y020244D01*
X004448Y020343D02*
X004348Y020343D01*
X004348Y020441D02*
X004448Y020441D01*
X004448Y020540D02*
X004348Y020540D01*
X004348Y020638D02*
X004448Y020638D01*
X003698Y020441D02*
X003686Y020441D01*
X003306Y020441D02*
X003206Y020441D01*
X003206Y020540D02*
X003306Y020540D01*
X003306Y020638D02*
X003206Y020638D01*
X003206Y020737D02*
X003306Y020737D01*
X003306Y020835D02*
X003206Y020835D01*
X003206Y020934D02*
X003306Y020934D01*
X003306Y021032D02*
X003206Y021032D01*
X003206Y021131D02*
X003306Y021131D01*
X003306Y021229D02*
X003206Y021229D01*
X003206Y021499D02*
X002161Y021499D01*
X002161Y021511D01*
X002175Y021633D01*
X002203Y021753D01*
X002243Y021869D01*
X002297Y021980D01*
X002362Y022084D01*
X002439Y022180D01*
X002526Y022267D01*
X002622Y022344D01*
X002726Y022409D01*
X002837Y022462D01*
X002953Y022503D01*
X003073Y022530D01*
X003195Y022544D01*
X003206Y022544D01*
X003206Y021499D01*
X003206Y021525D02*
X003306Y021525D01*
X003306Y021499D02*
X003306Y022544D01*
X003318Y022544D01*
X003440Y022530D01*
X003560Y022503D01*
X003676Y022462D01*
X003787Y022409D01*
X003891Y022344D01*
X003987Y022267D01*
X004074Y022180D01*
X004151Y022084D01*
X004216Y021980D01*
X004269Y021869D01*
X004310Y021753D01*
X004337Y021633D01*
X004351Y021511D01*
X004351Y021499D01*
X003306Y021499D01*
X003306Y021623D02*
X003206Y021623D01*
X003206Y021722D02*
X003306Y021722D01*
X003306Y021820D02*
X003206Y021820D01*
X003206Y021919D02*
X003306Y021919D01*
X003306Y022017D02*
X003206Y022017D01*
X003206Y022116D02*
X003306Y022116D01*
X003306Y022214D02*
X003206Y022214D01*
X003206Y022313D02*
X003306Y022313D01*
X003306Y022411D02*
X003206Y022411D01*
X003206Y022510D02*
X003306Y022510D01*
X003531Y022510D02*
X005152Y022510D01*
X004976Y022411D02*
X003782Y022411D01*
X003930Y022313D02*
X004838Y022313D01*
X004739Y022214D02*
X004040Y022214D01*
X004125Y022116D02*
X004654Y022116D01*
X004597Y022017D02*
X004193Y022017D01*
X004246Y021919D02*
X004540Y021919D01*
X004504Y021820D02*
X004287Y021820D01*
X004317Y021722D02*
X004477Y021722D01*
X004451Y021623D02*
X004339Y021623D01*
X004350Y021525D02*
X004444Y021525D01*
X002982Y022510D02*
X000650Y022510D01*
X000650Y022608D02*
X007228Y022608D01*
X007129Y022510D02*
X006006Y022510D01*
X006182Y022411D02*
X007031Y022411D01*
X007024Y022313D02*
X006320Y022313D01*
X007494Y022510D02*
X007554Y022510D01*
X007554Y022608D02*
X007494Y022608D01*
X008772Y020780D02*
X008772Y020248D01*
X012314Y017880D02*
X015678Y017880D01*
X015776Y017979D02*
X012412Y017979D01*
X012511Y018077D02*
X016832Y018077D01*
X016734Y017979D02*
X016177Y017979D01*
X016276Y017880D02*
X016635Y017880D01*
X016537Y017782D02*
X016365Y017782D01*
X016365Y017683D02*
X016438Y017683D01*
X015977Y017630D02*
X012040Y017630D01*
X011685Y017276D01*
X010426Y017276D01*
X010071Y016922D01*
X010071Y016209D01*
X010075Y016205D01*
X009663Y015812D02*
X009487Y015812D01*
X009558Y015882D02*
X009575Y015923D01*
X009592Y015882D01*
X009752Y015722D01*
X009794Y015705D01*
X009356Y015705D01*
X009398Y015722D01*
X009558Y015882D01*
X009570Y015910D02*
X009581Y015910D01*
X009774Y015713D02*
X009376Y015713D01*
X009075Y016205D02*
X009075Y016713D01*
X009323Y016961D01*
X009796Y016961D01*
X010307Y017473D01*
X011567Y017473D01*
X013496Y019402D01*
X012708Y018274D02*
X017029Y018274D01*
X016931Y018176D02*
X012609Y018176D01*
X012139Y017391D02*
X015668Y017391D01*
X015816Y017242D01*
X015998Y017242D01*
X014460Y015705D01*
X014250Y015705D01*
X014279Y015714D01*
X014353Y015752D01*
X014420Y015801D01*
X014479Y015860D01*
X014528Y015927D01*
X014566Y016002D01*
X014592Y016081D01*
X014604Y016157D01*
X014124Y016157D01*
X014124Y016254D01*
X014027Y016254D01*
X014027Y016734D01*
X013951Y016722D01*
X013872Y016696D01*
X013797Y016658D01*
X013730Y016609D01*
X013671Y016550D01*
X013622Y016483D01*
X013584Y016409D01*
X013575Y016381D01*
X013566Y016409D01*
X013528Y016483D01*
X013479Y016550D01*
X013420Y016609D01*
X013353Y016658D01*
X013279Y016696D01*
X013199Y016722D01*
X013124Y016734D01*
X013124Y016254D01*
X013027Y016254D01*
X013027Y016734D01*
X012951Y016722D01*
X012872Y016696D01*
X012797Y016658D01*
X012730Y016609D01*
X012671Y016550D01*
X012622Y016483D01*
X012597Y016434D01*
X012558Y016528D01*
X012398Y016688D01*
X012189Y016775D01*
X011962Y016775D01*
X011752Y016688D01*
X011592Y016528D01*
X011575Y016487D01*
X011558Y016528D01*
X011398Y016688D01*
X011189Y016775D01*
X010962Y016775D01*
X010752Y016688D01*
X010592Y016528D01*
X010575Y016487D01*
X010558Y016528D01*
X010398Y016688D01*
X010311Y016724D01*
X010311Y016822D01*
X010525Y017036D01*
X011733Y017036D01*
X011821Y017073D01*
X011889Y017140D01*
X012139Y017391D01*
X012136Y017388D02*
X015671Y017388D01*
X015770Y017289D02*
X012038Y017289D01*
X011939Y017191D02*
X015946Y017191D01*
X015847Y017092D02*
X011841Y017092D01*
X011776Y016698D02*
X011374Y016698D01*
X011487Y016600D02*
X011664Y016600D01*
X011581Y016501D02*
X011569Y016501D01*
X011575Y015923D02*
X011592Y015882D01*
X011752Y015722D01*
X011794Y015705D01*
X011356Y015705D01*
X011398Y015722D01*
X011558Y015882D01*
X011575Y015923D01*
X011570Y015910D02*
X011581Y015910D01*
X011663Y015812D02*
X011487Y015812D01*
X011376Y015713D02*
X011774Y015713D01*
X012356Y015705D02*
X012398Y015722D01*
X012558Y015882D01*
X012597Y015976D01*
X012622Y015927D01*
X012671Y015860D01*
X012730Y015801D01*
X012797Y015752D01*
X012872Y015714D01*
X012900Y015705D01*
X012356Y015705D01*
X012376Y015713D02*
X012875Y015713D01*
X012719Y015812D02*
X012487Y015812D01*
X012570Y015910D02*
X012634Y015910D01*
X013027Y016304D02*
X013124Y016304D01*
X013124Y016254D02*
X013604Y016254D01*
X014027Y016254D01*
X014027Y016157D01*
X013124Y016157D01*
X013124Y016254D01*
X013124Y016206D02*
X014027Y016206D01*
X014124Y016206D02*
X014961Y016206D01*
X015059Y016304D02*
X014596Y016304D01*
X014592Y016329D02*
X014604Y016254D01*
X014124Y016254D01*
X014124Y016734D01*
X014199Y016722D01*
X014279Y016696D01*
X014353Y016658D01*
X014420Y016609D01*
X014479Y016550D01*
X014528Y016483D01*
X014566Y016409D01*
X014592Y016329D01*
X014568Y016403D02*
X015158Y016403D01*
X015256Y016501D02*
X014515Y016501D01*
X014430Y016600D02*
X015355Y016600D01*
X015453Y016698D02*
X014273Y016698D01*
X014124Y016698D02*
X014027Y016698D01*
X014027Y016600D02*
X014124Y016600D01*
X014124Y016501D02*
X014027Y016501D01*
X014027Y016403D02*
X014124Y016403D01*
X014124Y016304D02*
X014027Y016304D01*
X013635Y016501D02*
X013515Y016501D01*
X013568Y016403D02*
X013582Y016403D01*
X013720Y016600D02*
X013430Y016600D01*
X013273Y016698D02*
X013877Y016698D01*
X013124Y016698D02*
X013027Y016698D01*
X013027Y016600D02*
X013124Y016600D01*
X013124Y016501D02*
X013027Y016501D01*
X013027Y016403D02*
X013124Y016403D01*
X012877Y016698D02*
X012374Y016698D01*
X012487Y016600D02*
X012720Y016600D01*
X012635Y016501D02*
X012569Y016501D01*
X013353Y015752D02*
X013420Y015801D01*
X013479Y015860D01*
X013528Y015927D01*
X013566Y016002D01*
X013575Y016029D01*
X013584Y016002D01*
X013622Y015927D01*
X013671Y015860D01*
X013730Y015801D01*
X013797Y015752D01*
X013872Y015714D01*
X013900Y015705D01*
X013250Y015705D01*
X013279Y015714D01*
X013353Y015752D01*
X013276Y015713D02*
X013875Y015713D01*
X013719Y015812D02*
X013431Y015812D01*
X013516Y015910D02*
X013634Y015910D01*
X013582Y016009D02*
X013569Y016009D01*
X014276Y015713D02*
X014468Y015713D01*
X014431Y015812D02*
X014567Y015812D01*
X014516Y015910D02*
X014665Y015910D01*
X014569Y016009D02*
X014764Y016009D01*
X014862Y016107D02*
X014596Y016107D01*
X014559Y015465D02*
X003831Y015465D01*
X003342Y015615D02*
X000650Y015615D01*
X000650Y015713D02*
X002812Y015713D01*
X002679Y015812D02*
X000650Y015812D01*
X000650Y015910D02*
X002587Y015910D01*
X002761Y015221D02*
X004448Y015221D01*
X004350Y015122D02*
X002859Y015122D01*
X002938Y015024D02*
X004251Y015024D01*
X004153Y014925D02*
X002979Y014925D01*
X003020Y014827D02*
X004054Y014827D01*
X003956Y014728D02*
X003053Y014728D01*
X003053Y014630D02*
X003857Y014630D01*
X003759Y014531D02*
X003053Y014531D01*
X003053Y014433D02*
X003660Y014433D01*
X003562Y014334D02*
X003021Y014334D01*
X002980Y014236D02*
X003463Y014236D01*
X003365Y014137D02*
X002939Y014137D01*
X002862Y014039D02*
X003266Y014039D01*
X003168Y013940D02*
X002763Y013940D01*
X002633Y013842D02*
X003069Y013842D01*
X002971Y013743D02*
X002395Y013743D01*
X002426Y013645D02*
X002872Y013645D01*
X002774Y013546D02*
X002524Y013546D01*
X002585Y013448D02*
X002675Y013448D01*
X002756Y013189D02*
X002075Y013189D01*
X002756Y013189D02*
X004874Y015307D01*
X014638Y015307D01*
X017276Y017945D01*
X025426Y017945D01*
X035229Y008142D01*
X037221Y008142D01*
X037237Y008158D01*
X037607Y008523D02*
X037760Y008523D01*
X037760Y008621D02*
X037509Y008621D01*
X037533Y008720D02*
X037760Y008720D01*
X037760Y008818D02*
X037632Y008818D01*
X037730Y008917D02*
X037760Y008917D01*
X037756Y009015D02*
X037760Y009015D01*
X037756Y009114D02*
X037760Y009114D01*
X037756Y009212D02*
X037760Y009212D01*
X037756Y009311D02*
X037760Y009311D01*
X037760Y009409D02*
X037721Y009409D01*
X037760Y009508D02*
X037622Y009508D01*
X037524Y009606D02*
X037760Y009606D01*
X037760Y009705D02*
X034990Y009705D01*
X034891Y009803D02*
X037760Y009803D01*
X037760Y009902D02*
X034793Y009902D01*
X034694Y010000D02*
X037760Y010000D01*
X037760Y010099D02*
X034596Y010099D01*
X034213Y009803D02*
X033907Y009803D01*
X034005Y009705D02*
X034312Y009705D01*
X034410Y009606D02*
X034104Y009606D01*
X034202Y009508D02*
X034509Y009508D01*
X034607Y009409D02*
X034301Y009409D01*
X034399Y009311D02*
X034706Y009311D01*
X034804Y009212D02*
X034498Y009212D01*
X034596Y009114D02*
X034903Y009114D01*
X035001Y009015D02*
X034695Y009015D01*
X034793Y008917D02*
X036743Y008917D01*
X036741Y008918D02*
X037002Y008658D01*
X036726Y008382D01*
X035328Y008382D01*
X025847Y017863D01*
X026153Y017863D01*
X035061Y008955D01*
X035150Y008918D01*
X036741Y008918D01*
X036841Y008818D02*
X034892Y008818D01*
X034990Y008720D02*
X036940Y008720D01*
X036965Y008621D02*
X035089Y008621D01*
X035187Y008523D02*
X036866Y008523D01*
X036768Y008424D02*
X035286Y008424D01*
X034903Y008129D02*
X034676Y008129D01*
X034577Y008227D02*
X034805Y008227D01*
X034706Y008326D02*
X034479Y008326D01*
X034380Y008424D02*
X034608Y008424D01*
X034509Y008523D02*
X034282Y008523D01*
X034183Y008621D02*
X034411Y008621D01*
X034312Y008720D02*
X034085Y008720D01*
X033986Y008818D02*
X034214Y008818D01*
X034115Y008917D02*
X033888Y008917D01*
X033789Y009015D02*
X034017Y009015D01*
X033918Y009114D02*
X033691Y009114D01*
X033592Y009212D02*
X033820Y009212D01*
X033721Y009311D02*
X033494Y009311D01*
X033395Y009409D02*
X033623Y009409D01*
X033524Y009508D02*
X033297Y009508D01*
X033198Y009606D02*
X033426Y009606D01*
X033327Y009705D02*
X033100Y009705D01*
X033001Y009803D02*
X033229Y009803D01*
X033130Y009902D02*
X032903Y009902D01*
X032804Y010000D02*
X033032Y010000D01*
X032933Y010099D02*
X032706Y010099D01*
X032607Y010197D02*
X032835Y010197D01*
X032736Y010296D02*
X032509Y010296D01*
X032410Y010394D02*
X032638Y010394D01*
X032539Y010493D02*
X032312Y010493D01*
X032213Y010591D02*
X032441Y010591D01*
X032342Y010690D02*
X032115Y010690D01*
X032016Y010788D02*
X032244Y010788D01*
X032145Y010887D02*
X031918Y010887D01*
X031819Y010985D02*
X032047Y010985D01*
X031948Y011084D02*
X031721Y011084D01*
X031622Y011182D02*
X031850Y011182D01*
X031751Y011281D02*
X031524Y011281D01*
X031425Y011379D02*
X031653Y011379D01*
X031554Y011478D02*
X031327Y011478D01*
X031228Y011576D02*
X031456Y011576D01*
X031357Y011675D02*
X031130Y011675D01*
X031031Y011773D02*
X031259Y011773D01*
X031160Y011872D02*
X030933Y011872D01*
X030834Y011970D02*
X031062Y011970D01*
X030963Y012069D02*
X030736Y012069D01*
X030637Y012167D02*
X030865Y012167D01*
X030766Y012266D02*
X030539Y012266D01*
X030440Y012364D02*
X030668Y012364D01*
X030569Y012463D02*
X030342Y012463D01*
X030243Y012561D02*
X030471Y012561D01*
X030372Y012660D02*
X030145Y012660D01*
X030046Y012758D02*
X030274Y012758D01*
X030175Y012857D02*
X029948Y012857D01*
X029849Y012955D02*
X030077Y012955D01*
X029978Y013054D02*
X029751Y013054D01*
X029652Y013152D02*
X029880Y013152D01*
X029781Y013251D02*
X029554Y013251D01*
X029455Y013349D02*
X029683Y013349D01*
X029584Y013448D02*
X029357Y013448D01*
X029258Y013546D02*
X029486Y013546D01*
X029387Y013645D02*
X029160Y013645D01*
X029061Y013743D02*
X029289Y013743D01*
X029190Y013842D02*
X028963Y013842D01*
X028864Y013940D02*
X029092Y013940D01*
X028993Y014039D02*
X028766Y014039D01*
X028667Y014137D02*
X028895Y014137D01*
X028796Y014236D02*
X028569Y014236D01*
X028470Y014334D02*
X028698Y014334D01*
X028599Y014433D02*
X028372Y014433D01*
X028273Y014531D02*
X028501Y014531D01*
X028402Y014630D02*
X028175Y014630D01*
X028076Y014728D02*
X028304Y014728D01*
X028205Y014827D02*
X027978Y014827D01*
X027879Y014925D02*
X028107Y014925D01*
X028008Y015024D02*
X027781Y015024D01*
X027682Y015122D02*
X027910Y015122D01*
X027811Y015221D02*
X027584Y015221D01*
X027485Y015319D02*
X027713Y015319D01*
X027614Y015418D02*
X027387Y015418D01*
X027288Y015516D02*
X027516Y015516D01*
X027417Y015615D02*
X027190Y015615D01*
X027091Y015713D02*
X027319Y015713D01*
X027220Y015812D02*
X026993Y015812D01*
X026894Y015910D02*
X027122Y015910D01*
X027023Y016009D02*
X026796Y016009D01*
X026697Y016107D02*
X026925Y016107D01*
X026826Y016206D02*
X026599Y016206D01*
X026500Y016304D02*
X026728Y016304D01*
X026629Y016403D02*
X026402Y016403D01*
X026303Y016501D02*
X026531Y016501D01*
X026432Y016600D02*
X026205Y016600D01*
X026106Y016698D02*
X026334Y016698D01*
X026235Y016797D02*
X026008Y016797D01*
X025909Y016895D02*
X026137Y016895D01*
X026038Y016994D02*
X025811Y016994D01*
X025712Y017092D02*
X025940Y017092D01*
X025841Y017191D02*
X025614Y017191D01*
X025515Y017289D02*
X025743Y017289D01*
X025644Y017388D02*
X025417Y017388D01*
X025318Y017486D02*
X025546Y017486D01*
X025447Y017585D02*
X025220Y017585D01*
X025121Y017683D02*
X025349Y017683D01*
X025326Y017706D02*
X035025Y008006D01*
X035093Y007939D01*
X035181Y007902D01*
X036757Y007902D01*
X037002Y007658D01*
X036741Y007398D01*
X035407Y007398D01*
X025099Y017706D01*
X025326Y017706D01*
X024678Y017788D02*
X035307Y007158D01*
X037237Y007158D01*
X037563Y006750D02*
X037760Y006750D01*
X037760Y006848D02*
X037662Y006848D01*
X037756Y006947D02*
X037760Y006947D01*
X037756Y007045D02*
X037760Y007045D01*
X037756Y007144D02*
X037760Y007144D01*
X037756Y007242D02*
X037760Y007242D01*
X037756Y007341D02*
X037760Y007341D01*
X037760Y007439D02*
X037691Y007439D01*
X037760Y007538D02*
X037592Y007538D01*
X037494Y007636D02*
X037760Y007636D01*
X037760Y007735D02*
X037548Y007735D01*
X037647Y007833D02*
X037760Y007833D01*
X037760Y007932D02*
X037745Y007932D01*
X037756Y008030D02*
X037760Y008030D01*
X037756Y008129D02*
X037760Y008129D01*
X037756Y008227D02*
X037760Y008227D01*
X037756Y008326D02*
X037760Y008326D01*
X037760Y008424D02*
X037706Y008424D01*
X036826Y007833D02*
X034971Y007833D01*
X034873Y007932D02*
X035111Y007932D01*
X035002Y008030D02*
X034774Y008030D01*
X034293Y007833D02*
X034027Y007833D01*
X034125Y007735D02*
X034392Y007735D01*
X034490Y007636D02*
X034224Y007636D01*
X034322Y007538D02*
X034589Y007538D01*
X034687Y007439D02*
X034421Y007439D01*
X034519Y007341D02*
X034786Y007341D01*
X034884Y007242D02*
X034618Y007242D01*
X034716Y007144D02*
X034983Y007144D01*
X035081Y007045D02*
X034815Y007045D01*
X034913Y006947D02*
X035191Y006947D01*
X035172Y006955D02*
X035260Y006918D01*
X036741Y006918D01*
X037002Y006658D01*
X036718Y006374D01*
X035486Y006374D01*
X024312Y017548D01*
X024578Y017548D01*
X035104Y007022D01*
X035172Y006955D01*
X035104Y007022D02*
X035104Y007022D01*
X035012Y006848D02*
X036811Y006848D01*
X036910Y006750D02*
X035110Y006750D01*
X035209Y006651D02*
X036995Y006651D01*
X036896Y006553D02*
X035307Y006553D01*
X035406Y006454D02*
X036798Y006454D01*
X037213Y006134D02*
X037237Y006158D01*
X037213Y006134D02*
X035386Y006134D01*
X023890Y017630D01*
X017473Y017630D01*
X014756Y014914D01*
X005032Y014914D01*
X003142Y013024D01*
X003142Y011607D01*
X002725Y011189D01*
X002075Y011189D01*
X002480Y010788D02*
X002772Y010788D01*
X002870Y010887D02*
X002566Y010887D01*
X002558Y010867D02*
X002593Y010950D01*
X002772Y010950D01*
X002861Y010986D01*
X003178Y011303D01*
X003178Y011194D01*
X002527Y010543D01*
X002398Y010672D01*
X002357Y010689D01*
X002398Y010706D01*
X002558Y010867D01*
X002673Y010690D02*
X002357Y010690D01*
X002479Y010591D02*
X002575Y010591D01*
X002957Y010296D02*
X003421Y010296D01*
X003454Y010328D02*
X003454Y010792D01*
X002648Y009986D01*
X002599Y009966D01*
X002558Y009867D01*
X002398Y009706D01*
X002357Y009689D01*
X002398Y009672D01*
X002558Y009512D01*
X002581Y009456D01*
X003454Y010328D01*
X003454Y010394D02*
X003056Y010394D01*
X003154Y010493D02*
X003454Y010493D01*
X003454Y010591D02*
X003253Y010591D01*
X003351Y010690D02*
X003454Y010690D01*
X003450Y010788D02*
X003454Y010788D01*
X003418Y011095D02*
X003418Y013024D01*
X005111Y014717D01*
X014835Y014717D01*
X017473Y017394D01*
X023221Y017394D01*
X035465Y005150D01*
X037229Y005150D01*
X037237Y005158D01*
X037593Y004780D02*
X037760Y004780D01*
X037760Y004878D02*
X037692Y004878D01*
X037756Y004977D02*
X037760Y004977D01*
X037756Y005075D02*
X037760Y005075D01*
X037756Y005174D02*
X037760Y005174D01*
X037756Y005272D02*
X037760Y005272D01*
X037756Y005371D02*
X037760Y005371D01*
X037760Y005469D02*
X037661Y005469D01*
X037562Y005568D02*
X037760Y005568D01*
X037760Y005666D02*
X037480Y005666D01*
X037578Y005765D02*
X037760Y005765D01*
X037760Y005863D02*
X037677Y005863D01*
X037756Y005962D02*
X037760Y005962D01*
X037756Y006060D02*
X037760Y006060D01*
X037756Y006159D02*
X037760Y006159D01*
X037756Y006257D02*
X037760Y006257D01*
X037756Y006356D02*
X037760Y006356D01*
X037760Y006454D02*
X037676Y006454D01*
X037760Y006553D02*
X037577Y006553D01*
X037479Y006651D02*
X037760Y006651D01*
X036796Y005863D02*
X035091Y005863D01*
X034993Y005962D02*
X035220Y005962D01*
X035250Y005931D02*
X035339Y005894D01*
X036765Y005894D01*
X037002Y005658D01*
X036733Y005390D01*
X035564Y005390D01*
X023563Y017391D01*
X023791Y017391D01*
X035183Y005998D01*
X035250Y005931D01*
X035190Y005765D02*
X036895Y005765D01*
X036993Y005666D02*
X035288Y005666D01*
X035387Y005568D02*
X036911Y005568D01*
X036813Y005469D02*
X035485Y005469D01*
X035102Y005174D02*
X034841Y005174D01*
X034743Y005272D02*
X035004Y005272D01*
X034905Y005371D02*
X034645Y005371D01*
X034547Y005469D02*
X034807Y005469D01*
X034708Y005568D02*
X034449Y005568D01*
X034351Y005666D02*
X034610Y005666D01*
X034511Y005765D02*
X034253Y005765D01*
X034155Y005863D02*
X034413Y005863D01*
X034314Y005962D02*
X034057Y005962D01*
X033960Y006060D02*
X034216Y006060D01*
X034117Y006159D02*
X033862Y006159D01*
X033764Y006257D02*
X034019Y006257D01*
X033920Y006356D02*
X033666Y006356D01*
X033568Y006454D02*
X033822Y006454D01*
X033723Y006553D02*
X033470Y006553D01*
X033372Y006651D02*
X033625Y006651D01*
X033526Y006750D02*
X033274Y006750D01*
X033176Y006848D02*
X033428Y006848D01*
X033329Y006947D02*
X033078Y006947D01*
X032980Y007045D02*
X033231Y007045D01*
X033132Y007144D02*
X032883Y007144D01*
X032785Y007242D02*
X033034Y007242D01*
X032935Y007341D02*
X032687Y007341D01*
X032589Y007439D02*
X032837Y007439D01*
X032738Y007538D02*
X032491Y007538D01*
X032393Y007636D02*
X032640Y007636D01*
X032541Y007735D02*
X032295Y007735D01*
X032197Y007833D02*
X032443Y007833D01*
X032344Y007932D02*
X032099Y007932D01*
X032001Y008030D02*
X032246Y008030D01*
X032147Y008129D02*
X031903Y008129D01*
X031806Y008227D02*
X032049Y008227D01*
X031950Y008326D02*
X031708Y008326D01*
X031610Y008424D02*
X031852Y008424D01*
X031753Y008523D02*
X031512Y008523D01*
X031414Y008621D02*
X031655Y008621D01*
X031556Y008720D02*
X031316Y008720D01*
X031218Y008818D02*
X031458Y008818D01*
X031359Y008917D02*
X031120Y008917D01*
X031022Y009015D02*
X031261Y009015D01*
X031162Y009114D02*
X030924Y009114D01*
X030827Y009212D02*
X031064Y009212D01*
X030965Y009311D02*
X030729Y009311D01*
X030631Y009409D02*
X030867Y009409D01*
X030768Y009508D02*
X030533Y009508D01*
X030435Y009606D02*
X030670Y009606D01*
X030571Y009705D02*
X030337Y009705D01*
X030239Y009803D02*
X030473Y009803D01*
X030374Y009902D02*
X030141Y009902D01*
X030043Y010000D02*
X030276Y010000D01*
X030177Y010099D02*
X029945Y010099D01*
X029847Y010197D02*
X030079Y010197D01*
X029980Y010296D02*
X029750Y010296D01*
X029652Y010394D02*
X029882Y010394D01*
X029783Y010493D02*
X029554Y010493D01*
X029456Y010591D02*
X029685Y010591D01*
X029586Y010690D02*
X029358Y010690D01*
X029260Y010788D02*
X029488Y010788D01*
X029389Y010887D02*
X029162Y010887D01*
X029064Y010985D02*
X029291Y010985D01*
X029192Y011084D02*
X028966Y011084D01*
X028868Y011182D02*
X029094Y011182D01*
X028995Y011281D02*
X028770Y011281D01*
X028673Y011379D02*
X028897Y011379D01*
X028798Y011478D02*
X028575Y011478D01*
X028477Y011576D02*
X028700Y011576D01*
X028601Y011675D02*
X028379Y011675D01*
X028281Y011773D02*
X028503Y011773D01*
X028404Y011872D02*
X028183Y011872D01*
X028085Y011970D02*
X028306Y011970D01*
X028207Y012069D02*
X027987Y012069D01*
X027889Y012167D02*
X028109Y012167D01*
X028010Y012266D02*
X027791Y012266D01*
X027693Y012364D02*
X027912Y012364D01*
X027813Y012463D02*
X027596Y012463D01*
X027498Y012561D02*
X027715Y012561D01*
X027616Y012660D02*
X027400Y012660D01*
X027302Y012758D02*
X027518Y012758D01*
X027419Y012857D02*
X027204Y012857D01*
X027106Y012955D02*
X027321Y012955D01*
X027222Y013054D02*
X027008Y013054D01*
X026910Y013152D02*
X027124Y013152D01*
X027025Y013251D02*
X026812Y013251D01*
X026714Y013349D02*
X026927Y013349D01*
X026828Y013448D02*
X026617Y013448D01*
X026519Y013546D02*
X026730Y013546D01*
X026631Y013645D02*
X026421Y013645D01*
X026323Y013743D02*
X026533Y013743D01*
X026434Y013842D02*
X026225Y013842D01*
X026127Y013940D02*
X026336Y013940D01*
X026237Y014039D02*
X026029Y014039D01*
X025931Y014137D02*
X026139Y014137D01*
X026040Y014236D02*
X025833Y014236D01*
X025735Y014334D02*
X025942Y014334D01*
X025843Y014433D02*
X025637Y014433D01*
X025540Y014531D02*
X025745Y014531D01*
X025646Y014630D02*
X025442Y014630D01*
X025344Y014728D02*
X025548Y014728D01*
X025449Y014827D02*
X025246Y014827D01*
X025148Y014925D02*
X025351Y014925D01*
X025252Y015024D02*
X025050Y015024D01*
X024952Y015122D02*
X025154Y015122D01*
X025055Y015221D02*
X024854Y015221D01*
X024756Y015319D02*
X024957Y015319D01*
X024858Y015418D02*
X024658Y015418D01*
X024560Y015516D02*
X024760Y015516D01*
X024661Y015615D02*
X024463Y015615D01*
X024365Y015713D02*
X024563Y015713D01*
X024464Y015812D02*
X024267Y015812D01*
X024169Y015910D02*
X024366Y015910D01*
X024267Y016009D02*
X024071Y016009D01*
X023973Y016107D02*
X024169Y016107D01*
X024070Y016206D02*
X023875Y016206D01*
X023972Y016304D02*
X023777Y016304D01*
X023873Y016403D02*
X023679Y016403D01*
X023775Y016501D02*
X023581Y016501D01*
X023676Y016600D02*
X023483Y016600D01*
X023578Y016698D02*
X023386Y016698D01*
X023479Y016797D02*
X023288Y016797D01*
X023381Y016895D02*
X023190Y016895D01*
X023282Y016994D02*
X023092Y016994D01*
X023184Y017092D02*
X022994Y017092D01*
X022932Y017154D02*
X023122Y017154D01*
X035262Y005014D01*
X035329Y004947D01*
X035417Y004910D01*
X036749Y004910D01*
X037002Y004658D01*
X036749Y004406D01*
X035604Y004406D01*
X022932Y017154D01*
X022512Y017237D02*
X035504Y004166D01*
X037229Y004166D01*
X037237Y004158D01*
X037646Y004484D02*
X037760Y004484D01*
X037760Y004386D02*
X037744Y004386D01*
X037756Y004287D02*
X037760Y004287D01*
X037756Y004189D02*
X037760Y004189D01*
X037756Y004090D02*
X037760Y004090D01*
X037756Y003992D02*
X037760Y003992D01*
X037760Y003893D02*
X037707Y003893D01*
X037760Y003795D02*
X037608Y003795D01*
X037510Y003696D02*
X037760Y003696D01*
X037760Y003598D02*
X037532Y003598D01*
X037631Y003499D02*
X037760Y003499D01*
X037760Y003401D02*
X037729Y003401D01*
X037756Y003302D02*
X037760Y003302D01*
X037756Y003204D02*
X037760Y003204D01*
X037756Y003105D02*
X037760Y003105D01*
X037756Y003007D02*
X037760Y003007D01*
X037760Y002908D02*
X037722Y002908D01*
X037760Y002810D02*
X037623Y002810D01*
X037525Y002711D02*
X037760Y002711D01*
X037760Y002613D02*
X037517Y002613D01*
X037616Y002514D02*
X037760Y002514D01*
X037760Y002416D02*
X037714Y002416D01*
X037756Y002317D02*
X037760Y002317D01*
X037756Y002219D02*
X037760Y002219D01*
X037756Y002120D02*
X037760Y002120D01*
X037756Y002022D02*
X037760Y002022D01*
X037760Y001923D02*
X037737Y001923D01*
X037760Y001825D02*
X037638Y001825D01*
X037540Y001726D02*
X037760Y001726D01*
X037760Y001628D02*
X030469Y001628D01*
X030469Y001726D02*
X036933Y001726D01*
X036835Y001825D02*
X030469Y001825D01*
X030469Y001923D02*
X036736Y001923D01*
X037197Y002197D02*
X037237Y002158D01*
X037197Y002197D02*
X035544Y002197D01*
X020898Y016843D01*
X017709Y016843D01*
X015071Y014126D01*
X005347Y014126D01*
X004441Y013181D01*
X004441Y008496D01*
X003134Y007189D01*
X002075Y007189D01*
X001559Y006947D02*
X000650Y006947D01*
X000650Y007045D02*
X001518Y007045D01*
X001505Y007076D02*
X001592Y006867D01*
X001752Y006706D01*
X001962Y006620D01*
X002189Y006620D01*
X002398Y006706D01*
X002558Y006867D01*
X002593Y006950D01*
X003182Y006950D01*
X003270Y006986D01*
X004577Y008293D01*
X004645Y008361D01*
X004681Y008449D01*
X004681Y013085D01*
X005449Y013887D01*
X010779Y013887D01*
X010668Y013775D01*
X010668Y013454D01*
X010740Y013382D01*
X008372Y013382D01*
X008224Y013530D01*
X007903Y013530D01*
X007676Y013303D01*
X007676Y012981D01*
X007903Y012754D01*
X008224Y012754D01*
X008372Y012902D01*
X011770Y012902D01*
X011918Y012754D01*
X012240Y012754D01*
X012388Y012902D01*
X013379Y012902D01*
X013387Y012900D01*
X013426Y012902D01*
X013465Y012902D01*
X013474Y012906D01*
X013482Y012906D01*
X013517Y012924D01*
X013554Y012939D01*
X013560Y012945D01*
X013568Y012949D01*
X013593Y012979D01*
X013621Y013006D01*
X013624Y013014D01*
X014039Y013493D01*
X014584Y013493D01*
X014505Y013303D01*
X014505Y013076D01*
X014592Y012867D01*
X014752Y012706D01*
X014793Y012689D01*
X014752Y012672D01*
X014592Y012512D01*
X014505Y012303D01*
X014505Y012076D01*
X014592Y011867D01*
X014752Y011706D01*
X014793Y011689D01*
X014752Y011672D01*
X014592Y011512D01*
X014505Y011303D01*
X014505Y011076D01*
X014592Y010867D01*
X014752Y010706D01*
X014793Y010689D01*
X014793Y010690D02*
X004681Y010690D01*
X004681Y010788D02*
X014671Y010788D01*
X014584Y010887D02*
X004681Y010887D01*
X004681Y010985D02*
X014543Y010985D01*
X014505Y011084D02*
X004681Y011084D01*
X004681Y011182D02*
X014505Y011182D01*
X014505Y011281D02*
X004681Y011281D01*
X004681Y011379D02*
X014537Y011379D01*
X014578Y011478D02*
X004681Y011478D01*
X004681Y011576D02*
X014656Y011576D01*
X014758Y011675D02*
X004681Y011675D01*
X004681Y011773D02*
X014686Y011773D01*
X014590Y011872D02*
X004681Y011872D01*
X004681Y011970D02*
X014549Y011970D01*
X014509Y012069D02*
X004681Y012069D01*
X004681Y012167D02*
X014505Y012167D01*
X014505Y012266D02*
X004681Y012266D01*
X004681Y012364D02*
X014531Y012364D01*
X014572Y012463D02*
X004681Y012463D01*
X004681Y012561D02*
X014641Y012561D01*
X014740Y012660D02*
X004681Y012660D01*
X004681Y012758D02*
X007899Y012758D01*
X007800Y012857D02*
X004681Y012857D01*
X004681Y012955D02*
X007702Y012955D01*
X007676Y013054D02*
X004681Y013054D01*
X004745Y013152D02*
X007676Y013152D01*
X007676Y013251D02*
X004840Y013251D01*
X004934Y013349D02*
X007722Y013349D01*
X007820Y013448D02*
X005028Y013448D01*
X005123Y013546D02*
X010668Y013546D01*
X010668Y013645D02*
X005217Y013645D01*
X005312Y013743D02*
X010668Y013743D01*
X010734Y013842D02*
X005406Y013842D01*
X005268Y014323D02*
X014993Y014323D01*
X017630Y017040D01*
X021685Y017040D01*
X035544Y003142D01*
X037221Y003142D01*
X037237Y003158D01*
X036850Y002810D02*
X035271Y002810D01*
X035172Y002908D02*
X035482Y002908D01*
X035496Y002902D02*
X035496Y002902D01*
X035543Y002902D01*
X035591Y002902D01*
X035591Y002902D01*
X036757Y002902D01*
X037002Y002658D01*
X036781Y002437D01*
X035643Y002437D01*
X021280Y016800D01*
X021586Y016800D01*
X035340Y003006D01*
X035374Y002973D01*
X035408Y002939D01*
X035451Y002921D01*
X035496Y002902D01*
X035496Y002902D01*
X035408Y002939D02*
X035408Y002939D01*
X035408Y002939D01*
X035340Y003006D02*
X035340Y003006D01*
X035340Y003007D02*
X035074Y003007D01*
X034975Y003105D02*
X035242Y003105D01*
X035144Y003204D02*
X034877Y003204D01*
X034778Y003302D02*
X035046Y003302D01*
X034947Y003401D02*
X034680Y003401D01*
X034581Y003499D02*
X034849Y003499D01*
X034751Y003598D02*
X034483Y003598D01*
X034384Y003696D02*
X034653Y003696D01*
X034555Y003795D02*
X034286Y003795D01*
X034187Y003893D02*
X034456Y003893D01*
X034358Y003992D02*
X034089Y003992D01*
X033990Y004090D02*
X034260Y004090D01*
X034162Y004189D02*
X033892Y004189D01*
X033793Y004287D02*
X034063Y004287D01*
X033965Y004386D02*
X033695Y004386D01*
X033596Y004484D02*
X033867Y004484D01*
X033769Y004583D02*
X033498Y004583D01*
X033399Y004681D02*
X033671Y004681D01*
X033572Y004780D02*
X033301Y004780D01*
X033202Y004878D02*
X033474Y004878D01*
X033376Y004977D02*
X033104Y004977D01*
X033005Y005075D02*
X033278Y005075D01*
X033179Y005174D02*
X032907Y005174D01*
X032808Y005272D02*
X033081Y005272D01*
X032983Y005371D02*
X032710Y005371D01*
X032611Y005469D02*
X032885Y005469D01*
X032787Y005568D02*
X032513Y005568D01*
X032414Y005666D02*
X032688Y005666D01*
X032590Y005765D02*
X032316Y005765D01*
X032217Y005863D02*
X032492Y005863D01*
X032394Y005962D02*
X032119Y005962D01*
X032020Y006060D02*
X032295Y006060D01*
X032197Y006159D02*
X031922Y006159D01*
X031823Y006257D02*
X032099Y006257D01*
X032001Y006356D02*
X031725Y006356D01*
X031626Y006454D02*
X031903Y006454D01*
X031804Y006553D02*
X031528Y006553D01*
X031429Y006651D02*
X031706Y006651D01*
X031608Y006750D02*
X031331Y006750D01*
X031232Y006848D02*
X031510Y006848D01*
X031411Y006947D02*
X031134Y006947D01*
X031035Y007045D02*
X031313Y007045D01*
X031215Y007144D02*
X030937Y007144D01*
X030838Y007242D02*
X031117Y007242D01*
X031019Y007341D02*
X030740Y007341D01*
X030641Y007439D02*
X030920Y007439D01*
X030822Y007538D02*
X030543Y007538D01*
X030444Y007636D02*
X030724Y007636D01*
X030626Y007735D02*
X030346Y007735D01*
X030247Y007833D02*
X030527Y007833D01*
X030429Y007932D02*
X030149Y007932D01*
X030050Y008030D02*
X030331Y008030D01*
X030233Y008129D02*
X029951Y008129D01*
X029853Y008227D02*
X030135Y008227D01*
X030036Y008326D02*
X029754Y008326D01*
X029656Y008424D02*
X029938Y008424D01*
X029840Y008523D02*
X029557Y008523D01*
X029459Y008621D02*
X029742Y008621D01*
X029644Y008720D02*
X029360Y008720D01*
X029262Y008818D02*
X029545Y008818D01*
X029447Y008917D02*
X029163Y008917D01*
X029065Y009015D02*
X029349Y009015D01*
X029251Y009114D02*
X028966Y009114D01*
X028868Y009212D02*
X029152Y009212D01*
X029054Y009311D02*
X028769Y009311D01*
X028671Y009409D02*
X028956Y009409D01*
X028858Y009508D02*
X028572Y009508D01*
X028474Y009606D02*
X028760Y009606D01*
X028661Y009705D02*
X028375Y009705D01*
X028277Y009803D02*
X028563Y009803D01*
X028465Y009902D02*
X028178Y009902D01*
X028080Y010000D02*
X028367Y010000D01*
X028268Y010099D02*
X027981Y010099D01*
X027883Y010197D02*
X028170Y010197D01*
X028072Y010296D02*
X027784Y010296D01*
X027686Y010394D02*
X027974Y010394D01*
X027876Y010493D02*
X027587Y010493D01*
X027489Y010591D02*
X027777Y010591D01*
X027679Y010690D02*
X027390Y010690D01*
X027292Y010788D02*
X027581Y010788D01*
X027483Y010887D02*
X027193Y010887D01*
X027095Y010985D02*
X027384Y010985D01*
X027286Y011084D02*
X026996Y011084D01*
X026898Y011182D02*
X027188Y011182D01*
X027090Y011281D02*
X026799Y011281D01*
X026701Y011379D02*
X026992Y011379D01*
X026893Y011478D02*
X026602Y011478D01*
X026504Y011576D02*
X026795Y011576D01*
X026697Y011675D02*
X026405Y011675D01*
X026307Y011773D02*
X026599Y011773D01*
X026500Y011872D02*
X026208Y011872D01*
X026110Y011970D02*
X026402Y011970D01*
X026304Y012069D02*
X026011Y012069D01*
X025913Y012167D02*
X026206Y012167D01*
X026108Y012266D02*
X025814Y012266D01*
X025716Y012364D02*
X026009Y012364D01*
X025911Y012463D02*
X025617Y012463D01*
X025519Y012561D02*
X025813Y012561D01*
X025715Y012660D02*
X025420Y012660D01*
X025322Y012758D02*
X025616Y012758D01*
X025518Y012857D02*
X025223Y012857D01*
X025125Y012955D02*
X025420Y012955D01*
X025322Y013054D02*
X025026Y013054D01*
X024928Y013152D02*
X025224Y013152D01*
X025125Y013251D02*
X024829Y013251D01*
X024731Y013349D02*
X025027Y013349D01*
X024929Y013448D02*
X024632Y013448D01*
X024534Y013546D02*
X024831Y013546D01*
X024732Y013645D02*
X024435Y013645D01*
X024337Y013743D02*
X024634Y013743D01*
X024536Y013842D02*
X024238Y013842D01*
X024140Y013940D02*
X024438Y013940D01*
X024340Y014039D02*
X024041Y014039D01*
X023943Y014137D02*
X024241Y014137D01*
X024143Y014236D02*
X023844Y014236D01*
X023746Y014334D02*
X024045Y014334D01*
X023947Y014433D02*
X023647Y014433D01*
X023549Y014531D02*
X023848Y014531D01*
X023750Y014630D02*
X023450Y014630D01*
X023352Y014728D02*
X023652Y014728D01*
X023554Y014827D02*
X023253Y014827D01*
X023155Y014925D02*
X023456Y014925D01*
X023357Y015024D02*
X023056Y015024D01*
X022958Y015122D02*
X023259Y015122D01*
X023161Y015221D02*
X022859Y015221D01*
X022761Y015319D02*
X023063Y015319D01*
X022964Y015418D02*
X022662Y015418D01*
X022564Y015516D02*
X022866Y015516D01*
X022768Y015615D02*
X022465Y015615D01*
X022367Y015713D02*
X022670Y015713D01*
X022572Y015812D02*
X022268Y015812D01*
X022170Y015910D02*
X022473Y015910D01*
X022375Y016009D02*
X022071Y016009D01*
X021973Y016107D02*
X022277Y016107D01*
X022179Y016206D02*
X021874Y016206D01*
X021776Y016304D02*
X022080Y016304D01*
X021982Y016403D02*
X021677Y016403D01*
X021579Y016501D02*
X021884Y016501D01*
X021786Y016600D02*
X021480Y016600D01*
X021382Y016698D02*
X021688Y016698D01*
X021589Y016797D02*
X021283Y016797D01*
X020901Y016501D02*
X018629Y016501D01*
X018727Y016403D02*
X020999Y016403D01*
X021098Y016304D02*
X018756Y016304D01*
X018756Y016206D02*
X021196Y016206D01*
X021295Y016107D02*
X018756Y016107D01*
X018756Y016009D02*
X021393Y016009D01*
X021492Y015910D02*
X018724Y015910D01*
X018625Y015812D02*
X021590Y015812D01*
X021689Y015713D02*
X018527Y015713D01*
X018515Y015615D02*
X021787Y015615D01*
X021886Y015516D02*
X018614Y015516D01*
X018712Y015418D02*
X021984Y015418D01*
X022083Y015319D02*
X018756Y015319D01*
X018756Y015221D02*
X022181Y015221D01*
X022280Y015122D02*
X018756Y015122D01*
X018756Y015024D02*
X022378Y015024D01*
X022477Y014925D02*
X018739Y014925D01*
X018640Y014827D02*
X022575Y014827D01*
X022674Y014728D02*
X018542Y014728D01*
X018500Y014630D02*
X022772Y014630D01*
X022871Y014531D02*
X018599Y014531D01*
X018697Y014433D02*
X022969Y014433D01*
X023068Y014334D02*
X022644Y014334D01*
X022742Y014236D02*
X023166Y014236D01*
X023265Y014137D02*
X022841Y014137D01*
X022939Y014039D02*
X023363Y014039D01*
X023462Y013940D02*
X023038Y013940D01*
X023136Y013842D02*
X023560Y013842D01*
X023659Y013743D02*
X023235Y013743D01*
X023333Y013645D02*
X023757Y013645D01*
X023856Y013546D02*
X023432Y013546D01*
X023530Y013448D02*
X023954Y013448D01*
X024053Y013349D02*
X023629Y013349D01*
X023727Y013251D02*
X024151Y013251D01*
X024250Y013152D02*
X023826Y013152D01*
X023924Y013054D02*
X024348Y013054D01*
X024447Y012955D02*
X024023Y012955D01*
X024121Y012857D02*
X024545Y012857D01*
X024644Y012758D02*
X024220Y012758D01*
X024318Y012660D02*
X024742Y012660D01*
X024841Y012561D02*
X024417Y012561D01*
X024515Y012463D02*
X024939Y012463D01*
X025038Y012364D02*
X024614Y012364D01*
X024712Y012266D02*
X025136Y012266D01*
X025235Y012167D02*
X024811Y012167D01*
X024909Y012069D02*
X025333Y012069D01*
X025432Y011970D02*
X025008Y011970D01*
X025106Y011872D02*
X025530Y011872D01*
X025629Y011773D02*
X025205Y011773D01*
X025303Y011675D02*
X025727Y011675D01*
X025826Y011576D02*
X025402Y011576D01*
X025500Y011478D02*
X025924Y011478D01*
X026220Y011182D02*
X025547Y011182D01*
X025547Y011084D02*
X026318Y011084D01*
X026417Y010985D02*
X025547Y010985D01*
X025553Y010887D02*
X026515Y010887D01*
X026614Y010788D02*
X025651Y010788D01*
X025695Y010690D02*
X026712Y010690D01*
X026811Y010591D02*
X025695Y010591D01*
X025695Y010493D02*
X026909Y010493D01*
X027008Y010394D02*
X025667Y010394D01*
X025568Y010296D02*
X027106Y010296D01*
X027205Y010197D02*
X025470Y010197D01*
X025145Y010197D02*
X018285Y010197D01*
X018285Y010206D02*
X018717Y010206D01*
X018717Y010357D01*
X018435Y010638D01*
X018285Y010638D01*
X018285Y010206D01*
X018285Y010109D01*
X018285Y009678D01*
X018435Y009678D01*
X018717Y009959D01*
X018717Y010109D01*
X018285Y010109D01*
X018188Y010109D01*
X018188Y009678D01*
X018038Y009678D01*
X017757Y009959D01*
X017757Y010109D01*
X018188Y010109D01*
X018188Y010206D01*
X017757Y010206D01*
X017757Y010357D01*
X018038Y010638D01*
X018188Y010638D01*
X018188Y010206D01*
X018285Y010206D01*
X018285Y010296D02*
X018188Y010296D01*
X018188Y010394D02*
X018285Y010394D01*
X018285Y010493D02*
X018188Y010493D01*
X018188Y010591D02*
X018285Y010591D01*
X018285Y010678D02*
X018435Y010678D01*
X018717Y010959D01*
X018717Y011109D01*
X018285Y011109D01*
X018285Y010678D01*
X018285Y010690D02*
X018188Y010690D01*
X018188Y010678D02*
X018188Y011109D01*
X018285Y011109D01*
X018285Y011206D01*
X018717Y011206D01*
X018717Y011357D01*
X018435Y011638D01*
X018285Y011638D01*
X018285Y011206D01*
X018188Y011206D01*
X018188Y011109D01*
X017757Y011109D01*
X017757Y010959D01*
X018038Y010678D01*
X018188Y010678D01*
X018188Y010788D02*
X018285Y010788D01*
X018285Y010887D02*
X018188Y010887D01*
X018188Y010985D02*
X018285Y010985D01*
X018285Y011084D02*
X018188Y011084D01*
X018188Y011182D02*
X017161Y011182D01*
X017161Y011084D02*
X017757Y011084D01*
X017757Y010985D02*
X017161Y010985D01*
X017161Y010887D02*
X017829Y010887D01*
X017928Y010788D02*
X017161Y010788D01*
X017161Y010690D02*
X018026Y010690D01*
X017991Y010591D02*
X017161Y010591D01*
X017161Y010493D02*
X017892Y010493D01*
X017794Y010394D02*
X017161Y010394D01*
X017161Y010296D02*
X017757Y010296D01*
X017757Y010099D02*
X017161Y010099D01*
X017161Y010197D02*
X018188Y010197D01*
X018188Y010099D02*
X018285Y010099D01*
X018285Y010000D02*
X018188Y010000D01*
X018188Y009902D02*
X018285Y009902D01*
X018285Y009803D02*
X018188Y009803D01*
X018188Y009705D02*
X018285Y009705D01*
X018462Y009705D02*
X027697Y009705D01*
X027599Y009803D02*
X018561Y009803D01*
X018659Y009902D02*
X027500Y009902D01*
X027402Y010000D02*
X018717Y010000D01*
X018717Y010099D02*
X027303Y010099D01*
X027796Y009606D02*
X018524Y009606D01*
X018622Y009508D02*
X027894Y009508D01*
X027993Y009409D02*
X018721Y009409D01*
X018244Y009166D02*
X018237Y009158D01*
X018244Y009166D02*
X026882Y009166D01*
X030229Y005819D01*
X030229Y001370D01*
X029966Y001108D01*
X029237Y001108D01*
X029579Y001529D02*
X029989Y001529D01*
X029989Y001628D02*
X029725Y001628D01*
X029776Y001726D02*
X029989Y001726D01*
X029989Y001825D02*
X029776Y001825D01*
X029776Y001923D02*
X029989Y001923D01*
X029989Y002022D02*
X029776Y002022D01*
X029776Y002120D02*
X029989Y002120D01*
X029989Y002219D02*
X029776Y002219D01*
X029776Y002317D02*
X029989Y002317D01*
X029989Y002416D02*
X029776Y002416D01*
X029776Y002514D02*
X029989Y002514D01*
X029989Y002613D02*
X029700Y002613D01*
X029484Y002711D02*
X029989Y002711D01*
X029989Y002810D02*
X029484Y002810D01*
X029471Y002908D02*
X029989Y002908D01*
X029989Y003007D02*
X029404Y003007D01*
X029306Y003105D02*
X029989Y003105D01*
X029989Y003204D02*
X029207Y003204D01*
X029109Y003302D02*
X029989Y003302D01*
X029989Y003401D02*
X029010Y003401D01*
X028912Y003499D02*
X029989Y003499D01*
X029989Y003598D02*
X028813Y003598D01*
X028715Y003696D02*
X029989Y003696D01*
X029989Y003795D02*
X028616Y003795D01*
X028518Y003893D02*
X029989Y003893D01*
X029989Y003992D02*
X028419Y003992D01*
X028260Y003811D02*
X029244Y002827D01*
X029244Y002116D01*
X029237Y002108D01*
X028697Y002411D02*
X028500Y002608D01*
X028500Y002875D01*
X028463Y002963D01*
X028396Y003030D01*
X027855Y003572D01*
X028161Y003572D01*
X029005Y002728D01*
X029005Y002648D01*
X028808Y002648D01*
X028697Y002536D01*
X028697Y002411D01*
X028697Y002416D02*
X028692Y002416D01*
X028697Y002514D02*
X028594Y002514D01*
X028500Y002613D02*
X028773Y002613D01*
X028923Y002810D02*
X028500Y002810D01*
X028486Y002908D02*
X028825Y002908D01*
X028726Y003007D02*
X028420Y003007D01*
X028321Y003105D02*
X028628Y003105D01*
X028529Y003204D02*
X028223Y003204D01*
X028124Y003302D02*
X028431Y003302D01*
X028332Y003401D02*
X028026Y003401D01*
X027927Y003499D02*
X028234Y003499D01*
X028260Y003811D02*
X020898Y003811D01*
X018654Y001567D01*
X017867Y001567D01*
X016252Y003181D01*
X016252Y003654D01*
X013721Y006185D01*
X009075Y006185D01*
X008637Y006553D02*
X008514Y006553D01*
X008575Y006491D02*
X008311Y006755D01*
X007839Y006755D01*
X007505Y006421D01*
X007505Y005949D01*
X007769Y005685D01*
X007509Y005425D01*
X006762Y005425D01*
X006610Y005577D01*
X006289Y005577D01*
X006061Y005350D01*
X006061Y005029D01*
X006289Y004801D01*
X006610Y004801D01*
X006754Y004946D01*
X007509Y004946D01*
X007798Y004657D01*
X007545Y004405D01*
X007545Y004234D01*
X008027Y004234D01*
X008027Y004137D01*
X007545Y004137D01*
X007545Y003966D01*
X007711Y003800D01*
X000650Y003800D01*
X000650Y003893D02*
X007618Y003893D01*
X007545Y003992D02*
X000650Y003992D01*
X000650Y004090D02*
X007545Y004090D01*
X007545Y004287D02*
X000650Y004287D01*
X000650Y004189D02*
X008027Y004189D01*
X007723Y004583D02*
X000650Y004583D01*
X000650Y004681D02*
X007774Y004681D01*
X007675Y004780D02*
X000650Y004780D01*
X000650Y004878D02*
X006212Y004878D01*
X006114Y004977D02*
X000650Y004977D01*
X000650Y005075D02*
X006061Y005075D01*
X006061Y005174D02*
X000650Y005174D01*
X000650Y005272D02*
X006061Y005272D01*
X006082Y005371D02*
X000650Y005371D01*
X000650Y005469D02*
X006180Y005469D01*
X006279Y005568D02*
X000650Y005568D01*
X000650Y005666D02*
X007750Y005666D01*
X007690Y005765D02*
X000650Y005765D01*
X000650Y005863D02*
X007592Y005863D01*
X007505Y005962D02*
X000650Y005962D01*
X000650Y006060D02*
X007505Y006060D01*
X007505Y006159D02*
X000650Y006159D01*
X000650Y006257D02*
X007505Y006257D01*
X007505Y006356D02*
X000650Y006356D01*
X000650Y006454D02*
X007538Y006454D01*
X007637Y006553D02*
X000650Y006553D01*
X000650Y006651D02*
X001886Y006651D01*
X001709Y006750D02*
X000650Y006750D01*
X000650Y006848D02*
X001611Y006848D01*
X001505Y007076D02*
X001505Y007303D01*
X001592Y007512D01*
X001752Y007672D01*
X001793Y007689D01*
X001752Y007706D01*
X001592Y007867D01*
X001505Y008076D01*
X001505Y008303D01*
X001592Y008512D01*
X001752Y008672D01*
X001793Y008689D01*
X001752Y008706D01*
X001592Y008867D01*
X001505Y009076D01*
X001505Y009303D01*
X001592Y009512D01*
X001752Y009672D01*
X001793Y009689D01*
X001752Y009706D01*
X001592Y009867D01*
X001505Y010076D01*
X001505Y010303D01*
X001592Y010512D01*
X001752Y010672D01*
X001793Y010689D01*
X001671Y010591D02*
X000650Y010591D01*
X000650Y010493D02*
X001584Y010493D01*
X001543Y010394D02*
X000650Y010394D01*
X000650Y010296D02*
X001505Y010296D01*
X001505Y010197D02*
X000650Y010197D01*
X000650Y010099D02*
X001505Y010099D01*
X001537Y010000D02*
X000650Y010000D01*
X000650Y009902D02*
X001578Y009902D01*
X001656Y009803D02*
X000650Y009803D01*
X000650Y009705D02*
X001757Y009705D01*
X001686Y009606D02*
X000650Y009606D01*
X000650Y009508D02*
X001590Y009508D01*
X001549Y009409D02*
X000650Y009409D01*
X000650Y009311D02*
X001509Y009311D01*
X001505Y009212D02*
X000650Y009212D01*
X000650Y009114D02*
X001505Y009114D01*
X001531Y009015D02*
X000650Y009015D01*
X000650Y008917D02*
X001572Y008917D01*
X001641Y008818D02*
X000650Y008818D01*
X000650Y008720D02*
X001739Y008720D01*
X001701Y008621D02*
X000650Y008621D01*
X000650Y008523D02*
X001603Y008523D01*
X001556Y008424D02*
X000650Y008424D01*
X000650Y008326D02*
X001515Y008326D01*
X001505Y008227D02*
X000650Y008227D01*
X000650Y008129D02*
X001505Y008129D01*
X001524Y008030D02*
X000650Y008030D01*
X000650Y007932D02*
X001565Y007932D01*
X001626Y007833D02*
X000650Y007833D01*
X000650Y007735D02*
X001724Y007735D01*
X001716Y007636D02*
X000650Y007636D01*
X000650Y007538D02*
X001618Y007538D01*
X001562Y007439D02*
X000650Y007439D01*
X000650Y007341D02*
X001521Y007341D01*
X001505Y007242D02*
X000650Y007242D01*
X000650Y007144D02*
X001505Y007144D01*
X002264Y006651D02*
X007735Y006651D01*
X007834Y006750D02*
X002441Y006750D01*
X002540Y006848D02*
X014627Y006848D01*
X014592Y006882D02*
X014752Y006722D01*
X014962Y006635D01*
X015189Y006635D01*
X015398Y006722D01*
X015558Y006882D01*
X015581Y006939D01*
X015658Y006862D01*
X015658Y006311D01*
X015482Y006487D01*
X015172Y006616D01*
X014837Y006616D01*
X014526Y006487D01*
X014289Y006250D01*
X014203Y006042D01*
X013857Y006389D01*
X013769Y006425D01*
X009641Y006425D01*
X009311Y006755D01*
X008839Y006755D01*
X008575Y006491D01*
X008415Y006651D02*
X008735Y006651D01*
X008834Y006750D02*
X008317Y006750D01*
X008575Y005880D02*
X008769Y005685D01*
X008575Y005491D01*
X008381Y005685D01*
X008575Y005880D01*
X008559Y005863D02*
X008592Y005863D01*
X008690Y005765D02*
X008460Y005765D01*
X008400Y005666D02*
X008750Y005666D01*
X008652Y005568D02*
X008499Y005568D01*
X008075Y005185D02*
X006453Y005185D01*
X006449Y005189D01*
X006718Y005469D02*
X007553Y005469D01*
X007652Y005568D02*
X006620Y005568D01*
X006686Y004878D02*
X007577Y004878D01*
X007624Y004484D02*
X000650Y004484D01*
X000650Y004386D02*
X007545Y004386D01*
X008353Y004657D02*
X008575Y004880D01*
X008769Y004685D01*
X008547Y004463D01*
X008353Y004657D01*
X008377Y004681D02*
X008765Y004681D01*
X008675Y004780D02*
X008475Y004780D01*
X008574Y004878D02*
X008577Y004878D01*
X008667Y004583D02*
X008428Y004583D01*
X008526Y004484D02*
X008568Y004484D01*
X008547Y003908D02*
X008655Y003800D01*
X008439Y003800D01*
X008547Y003908D01*
X008532Y003893D02*
X008562Y003893D01*
X009495Y003800D02*
X009645Y003949D01*
X009645Y004421D01*
X009381Y004685D01*
X009641Y004946D01*
X011759Y004946D01*
X011652Y004838D01*
X011652Y004517D01*
X011879Y004290D01*
X012200Y004290D01*
X012349Y004438D01*
X014578Y004438D01*
X015619Y003397D01*
X015619Y002976D01*
X015655Y002888D01*
X017427Y001117D01*
X017494Y001049D01*
X017583Y001013D01*
X018898Y001013D01*
X018987Y001049D01*
X021155Y003217D01*
X021822Y003217D01*
X024390Y000650D01*
X017329Y000650D01*
X015155Y003549D01*
X015141Y003583D01*
X015096Y003628D01*
X015057Y003679D01*
X015026Y003698D01*
X015000Y003723D01*
X014941Y003748D01*
X014886Y003781D01*
X014850Y003786D01*
X014816Y003800D01*
X014752Y003800D01*
X014689Y003809D01*
X014654Y003800D01*
X009495Y003800D01*
X009589Y003893D02*
X015123Y003893D01*
X015025Y003992D02*
X009645Y003992D01*
X009645Y004090D02*
X014926Y004090D01*
X014828Y004189D02*
X009645Y004189D01*
X009645Y004287D02*
X014729Y004287D01*
X014631Y004386D02*
X012296Y004386D01*
X012040Y004678D02*
X014678Y004678D01*
X015859Y003496D01*
X015859Y003024D01*
X017630Y001252D01*
X018851Y001252D01*
X021056Y003457D01*
X021922Y003457D01*
X024914Y000465D01*
X027945Y000465D01*
X028221Y000741D01*
X028221Y001092D01*
X028237Y001108D01*
X028579Y001529D02*
X028894Y001529D01*
X028934Y001568D02*
X028737Y001371D01*
X028500Y001608D01*
X028697Y001805D01*
X028697Y001679D01*
X028808Y001568D01*
X028934Y001568D01*
X028749Y001628D02*
X028520Y001628D01*
X028618Y001726D02*
X028697Y001726D01*
X028677Y001431D02*
X028796Y001431D01*
X028737Y000845D02*
X028931Y000650D01*
X028542Y000650D01*
X028737Y000845D01*
X028732Y000840D02*
X028742Y000840D01*
X028840Y000741D02*
X028633Y000741D01*
X027861Y000720D02*
X027846Y000705D01*
X027541Y000705D01*
X027708Y000873D01*
X027861Y000720D01*
X027840Y000741D02*
X027577Y000741D01*
X027675Y000840D02*
X027742Y000840D01*
X027708Y001343D02*
X027472Y001580D01*
X027737Y001845D01*
X027973Y001608D01*
X027708Y001343D01*
X027621Y001431D02*
X027796Y001431D01*
X027894Y001529D02*
X027523Y001529D01*
X027520Y001628D02*
X027954Y001628D01*
X027855Y001726D02*
X027618Y001726D01*
X027717Y001825D02*
X027757Y001825D01*
X028237Y002108D02*
X028260Y002131D01*
X028260Y002827D01*
X027433Y003654D01*
X020977Y003654D01*
X018733Y001410D01*
X017748Y001410D01*
X016056Y003103D01*
X016056Y003575D01*
X014445Y005185D01*
X009075Y005185D01*
X009475Y004780D02*
X011652Y004780D01*
X011652Y004681D02*
X009385Y004681D01*
X009484Y004583D02*
X011652Y004583D01*
X011685Y004484D02*
X009582Y004484D01*
X009645Y004386D02*
X011783Y004386D01*
X011692Y004878D02*
X009574Y004878D01*
X009641Y005425D02*
X014142Y005425D01*
X013622Y005946D01*
X009641Y005946D01*
X009381Y005685D01*
X009641Y005425D01*
X009597Y005469D02*
X014098Y005469D01*
X014000Y005568D02*
X009499Y005568D01*
X009400Y005666D02*
X013901Y005666D01*
X013803Y005765D02*
X009460Y005765D01*
X009559Y005863D02*
X013704Y005863D01*
X014087Y006159D02*
X014251Y006159D01*
X014210Y006060D02*
X014185Y006060D01*
X014296Y006257D02*
X013988Y006257D01*
X013890Y006356D02*
X014395Y006356D01*
X014493Y006454D02*
X009612Y006454D01*
X009514Y006553D02*
X014684Y006553D01*
X014725Y006750D02*
X009317Y006750D01*
X009415Y006651D02*
X014924Y006651D01*
X015226Y006651D02*
X015658Y006651D01*
X015658Y006553D02*
X015325Y006553D01*
X015516Y006454D02*
X015658Y006454D01*
X015658Y006356D02*
X015614Y006356D01*
X015658Y006750D02*
X015425Y006750D01*
X015524Y006848D02*
X015658Y006848D01*
X015898Y006961D02*
X015898Y004496D01*
X018237Y002158D01*
X018756Y002120D02*
X018868Y002120D01*
X018966Y002219D02*
X018756Y002219D01*
X018756Y002317D02*
X019065Y002317D01*
X019163Y002416D02*
X018714Y002416D01*
X018616Y002514D02*
X019262Y002514D01*
X019360Y002613D02*
X018517Y002613D01*
X018525Y002711D02*
X019459Y002711D01*
X019557Y002810D02*
X018623Y002810D01*
X018722Y002908D02*
X019656Y002908D01*
X019754Y003007D02*
X018756Y003007D01*
X018756Y003105D02*
X019853Y003105D01*
X019951Y003204D02*
X018756Y003204D01*
X018756Y003302D02*
X020050Y003302D01*
X020148Y003401D02*
X018729Y003401D01*
X018631Y003499D02*
X020247Y003499D01*
X020345Y003598D02*
X018532Y003598D01*
X018510Y003696D02*
X020444Y003696D01*
X020542Y003795D02*
X018608Y003795D01*
X018707Y003893D02*
X020641Y003893D01*
X020739Y003992D02*
X018756Y003992D01*
X018756Y004090D02*
X029989Y004090D01*
X029989Y004189D02*
X018756Y004189D01*
X018756Y004287D02*
X029989Y004287D01*
X029989Y004386D02*
X018744Y004386D01*
X018646Y004484D02*
X029989Y004484D01*
X029989Y004583D02*
X018547Y004583D01*
X018495Y004681D02*
X029989Y004681D01*
X029989Y004780D02*
X018593Y004780D01*
X018692Y004878D02*
X029989Y004878D01*
X029989Y004977D02*
X018756Y004977D01*
X018756Y005075D02*
X029989Y005075D01*
X029989Y005174D02*
X018756Y005174D01*
X018756Y005272D02*
X029989Y005272D01*
X029989Y005371D02*
X018756Y005371D01*
X018661Y005469D02*
X029989Y005469D01*
X029989Y005568D02*
X018562Y005568D01*
X018480Y005666D02*
X029989Y005666D01*
X029944Y005765D02*
X018578Y005765D01*
X018677Y005863D02*
X029846Y005863D01*
X029747Y005962D02*
X018756Y005962D01*
X018756Y006060D02*
X029649Y006060D01*
X029550Y006159D02*
X018756Y006159D01*
X018756Y006257D02*
X029452Y006257D01*
X029353Y006356D02*
X018756Y006356D01*
X018676Y006454D02*
X029255Y006454D01*
X029156Y006553D02*
X018577Y006553D01*
X018479Y006651D02*
X029058Y006651D01*
X028959Y006750D02*
X018563Y006750D01*
X018662Y006848D02*
X028861Y006848D01*
X028762Y006947D02*
X018756Y006947D01*
X018756Y007045D02*
X028664Y007045D01*
X028565Y007144D02*
X018756Y007144D01*
X018756Y007242D02*
X028467Y007242D01*
X028368Y007341D02*
X018756Y007341D01*
X018691Y007439D02*
X028270Y007439D01*
X028171Y007538D02*
X018592Y007538D01*
X018494Y007636D02*
X028073Y007636D01*
X027974Y007735D02*
X017999Y007735D01*
X017901Y007833D02*
X027876Y007833D01*
X027777Y007932D02*
X017802Y007932D01*
X017704Y008030D02*
X027679Y008030D01*
X027580Y008129D02*
X017605Y008129D01*
X017507Y008227D02*
X027482Y008227D01*
X027383Y008326D02*
X017408Y008326D01*
X017310Y008424D02*
X027285Y008424D01*
X027186Y008523D02*
X017211Y008523D01*
X017161Y008621D02*
X027088Y008621D01*
X026989Y008720D02*
X018533Y008720D01*
X018632Y008818D02*
X026891Y008818D01*
X026792Y008917D02*
X018730Y008917D01*
X017940Y008720D02*
X017161Y008720D01*
X017161Y008818D02*
X017841Y008818D01*
X017743Y008917D02*
X017161Y008917D01*
X017161Y009015D02*
X017717Y009015D01*
X017717Y009114D02*
X017161Y009114D01*
X017161Y009212D02*
X017717Y009212D01*
X017717Y009311D02*
X017161Y009311D01*
X017161Y009409D02*
X017753Y009409D01*
X017851Y009508D02*
X017161Y009508D01*
X017161Y009606D02*
X017950Y009606D01*
X018011Y009705D02*
X017161Y009705D01*
X017161Y009803D02*
X017913Y009803D01*
X017814Y009902D02*
X017161Y009902D01*
X017161Y010000D02*
X017757Y010000D01*
X018482Y010591D02*
X024920Y010591D01*
X024920Y010493D02*
X018581Y010493D01*
X018679Y010394D02*
X024948Y010394D01*
X025046Y010296D02*
X018717Y010296D01*
X018447Y010690D02*
X024920Y010690D01*
X024964Y010788D02*
X018546Y010788D01*
X018644Y010887D02*
X025062Y010887D01*
X025068Y010985D02*
X018717Y010985D01*
X018717Y011084D02*
X025068Y011084D01*
X025068Y011182D02*
X018285Y011182D01*
X018285Y011281D02*
X018188Y011281D01*
X018188Y011206D02*
X018188Y011638D01*
X018038Y011638D01*
X017757Y011357D01*
X017757Y011206D01*
X018188Y011206D01*
X018188Y011379D02*
X018285Y011379D01*
X018285Y011478D02*
X018188Y011478D01*
X018188Y011576D02*
X018285Y011576D01*
X018497Y011576D02*
X024723Y011576D01*
X024625Y011675D02*
X018488Y011675D01*
X018587Y011773D02*
X024526Y011773D01*
X024428Y011872D02*
X018685Y011872D01*
X018756Y011970D02*
X024329Y011970D01*
X024231Y012069D02*
X018756Y012069D01*
X018756Y012167D02*
X024132Y012167D01*
X024034Y012266D02*
X018756Y012266D01*
X018756Y012364D02*
X023935Y012364D01*
X023837Y012463D02*
X018667Y012463D01*
X018569Y012561D02*
X023738Y012561D01*
X023640Y012660D02*
X018473Y012660D01*
X018572Y012758D02*
X023541Y012758D01*
X023443Y012857D02*
X018670Y012857D01*
X018756Y012955D02*
X023344Y012955D01*
X023246Y013054D02*
X018756Y013054D01*
X018756Y013152D02*
X023147Y013152D01*
X023049Y013251D02*
X018756Y013251D01*
X018756Y013349D02*
X022950Y013349D01*
X022852Y013448D02*
X018682Y013448D01*
X018584Y013546D02*
X022753Y013546D01*
X022655Y013645D02*
X018485Y013645D01*
X018557Y013743D02*
X022556Y013743D01*
X022458Y013842D02*
X018655Y013842D01*
X018244Y014166D02*
X018237Y014158D01*
X016615Y014158D01*
X016607Y014166D01*
X016888Y014433D02*
X017776Y014433D01*
X017741Y014398D02*
X016923Y014398D01*
X016767Y014554D01*
X016446Y014554D01*
X016226Y014334D01*
X016226Y014334D01*
X016034Y014526D01*
X015946Y014563D01*
X015829Y014563D01*
X017810Y016603D01*
X017947Y016603D01*
X017717Y016373D01*
X017717Y015943D01*
X018002Y015658D01*
X017717Y015373D01*
X017717Y014943D01*
X018002Y014658D01*
X017741Y014398D01*
X017875Y014531D02*
X016790Y014531D01*
X016423Y014531D02*
X016023Y014531D01*
X016128Y014433D02*
X016325Y014433D01*
X015898Y014323D02*
X016843Y013378D01*
X017473Y013378D01*
X017709Y013142D01*
X018221Y013142D01*
X018237Y013158D01*
X017890Y013546D02*
X017644Y013546D01*
X017609Y013582D02*
X017521Y013618D01*
X016942Y013618D01*
X016775Y013785D01*
X016908Y013918D01*
X017741Y013918D01*
X018002Y013658D01*
X017767Y013423D01*
X017609Y013582D01*
X017743Y013448D02*
X017791Y013448D01*
X017988Y013645D02*
X016916Y013645D01*
X016817Y013743D02*
X017916Y013743D01*
X017818Y013842D02*
X016831Y013842D01*
X016139Y013349D02*
X015626Y013349D01*
X015645Y013251D02*
X016238Y013251D01*
X016336Y013152D02*
X015645Y013152D01*
X015636Y013054D02*
X016435Y013054D01*
X016533Y012955D02*
X015595Y012955D01*
X015548Y012857D02*
X016632Y012857D01*
X016730Y012758D02*
X015450Y012758D01*
X015411Y012660D02*
X016829Y012660D01*
X016927Y012561D02*
X015509Y012561D01*
X015579Y012463D02*
X017026Y012463D01*
X017124Y012364D02*
X016346Y012364D01*
X016444Y012266D02*
X017223Y012266D01*
X017321Y012167D02*
X016543Y012167D01*
X016641Y012069D02*
X017420Y012069D01*
X017518Y011970D02*
X016740Y011970D01*
X016838Y011872D02*
X017788Y011872D01*
X017886Y011773D02*
X016937Y011773D01*
X017035Y011675D02*
X017985Y011675D01*
X017976Y011576D02*
X017129Y011576D01*
X017161Y011478D02*
X017877Y011478D01*
X017779Y011379D02*
X017161Y011379D01*
X017161Y011281D02*
X017757Y011281D01*
X018596Y011478D02*
X024822Y011478D01*
X024920Y011379D02*
X018694Y011379D01*
X018717Y011281D02*
X025019Y011281D01*
X025307Y011331D02*
X022473Y014166D01*
X018244Y014166D01*
X017973Y014630D02*
X015894Y014630D01*
X015990Y014728D02*
X017931Y014728D01*
X017833Y014827D02*
X016085Y014827D01*
X016181Y014925D02*
X017734Y014925D01*
X017717Y015024D02*
X016277Y015024D01*
X016372Y015122D02*
X017717Y015122D01*
X017717Y015221D02*
X016468Y015221D01*
X016564Y015319D02*
X017717Y015319D01*
X017761Y015418D02*
X016659Y015418D01*
X016755Y015516D02*
X017860Y015516D01*
X017958Y015615D02*
X016850Y015615D01*
X016946Y015713D02*
X017946Y015713D01*
X017848Y015812D02*
X017042Y015812D01*
X017137Y015910D02*
X017749Y015910D01*
X017717Y016009D02*
X017233Y016009D01*
X017329Y016107D02*
X017717Y016107D01*
X017717Y016206D02*
X017424Y016206D01*
X017520Y016304D02*
X017717Y016304D01*
X017746Y016403D02*
X017616Y016403D01*
X017711Y016501D02*
X017845Y016501D01*
X017807Y016600D02*
X017943Y016600D01*
X018530Y016600D02*
X020802Y016600D01*
X022067Y016997D02*
X022412Y016997D01*
X035301Y004030D01*
X035334Y003997D01*
X035368Y003963D01*
X035368Y003963D01*
X035369Y003962D01*
X035412Y003944D01*
X035456Y003926D01*
X035456Y003926D01*
X035457Y003926D01*
X035504Y003926D01*
X035551Y003926D01*
X035552Y003926D01*
X036733Y003926D01*
X037002Y003658D01*
X036726Y003382D01*
X035643Y003382D01*
X022067Y016997D01*
X022070Y016994D02*
X022416Y016994D01*
X022514Y016895D02*
X022168Y016895D01*
X022267Y016797D02*
X022612Y016797D01*
X022709Y016698D02*
X022365Y016698D01*
X022463Y016600D02*
X022807Y016600D01*
X022905Y016501D02*
X022561Y016501D01*
X022659Y016403D02*
X023003Y016403D01*
X023101Y016304D02*
X022758Y016304D01*
X022856Y016206D02*
X023199Y016206D01*
X023297Y016107D02*
X022954Y016107D01*
X023052Y016009D02*
X023395Y016009D01*
X023493Y015910D02*
X023151Y015910D01*
X023249Y015812D02*
X023591Y015812D01*
X023689Y015713D02*
X023347Y015713D01*
X023445Y015615D02*
X023786Y015615D01*
X023884Y015516D02*
X023543Y015516D01*
X023642Y015418D02*
X023982Y015418D01*
X024080Y015319D02*
X023740Y015319D01*
X023838Y015221D02*
X024178Y015221D01*
X024276Y015122D02*
X023936Y015122D01*
X024035Y015024D02*
X024374Y015024D01*
X024472Y014925D02*
X024133Y014925D01*
X024231Y014827D02*
X024570Y014827D01*
X024668Y014728D02*
X024329Y014728D01*
X024427Y014630D02*
X024766Y014630D01*
X024863Y014531D02*
X024526Y014531D01*
X024624Y014433D02*
X024961Y014433D01*
X025059Y014334D02*
X024722Y014334D01*
X024820Y014236D02*
X025157Y014236D01*
X025255Y014137D02*
X024919Y014137D01*
X025017Y014039D02*
X025353Y014039D01*
X025451Y013940D02*
X025115Y013940D01*
X025213Y013842D02*
X025549Y013842D01*
X025647Y013743D02*
X025311Y013743D01*
X025410Y013645D02*
X025745Y013645D01*
X025842Y013546D02*
X025508Y013546D01*
X025606Y013448D02*
X025940Y013448D01*
X026038Y013349D02*
X025704Y013349D01*
X025803Y013251D02*
X026136Y013251D01*
X026234Y013152D02*
X025901Y013152D01*
X025999Y013054D02*
X026332Y013054D01*
X026430Y012955D02*
X026097Y012955D01*
X026195Y012857D02*
X026528Y012857D01*
X026626Y012758D02*
X026294Y012758D01*
X026392Y012660D02*
X026724Y012660D01*
X026822Y012561D02*
X026490Y012561D01*
X026588Y012463D02*
X026919Y012463D01*
X027017Y012364D02*
X026687Y012364D01*
X026785Y012266D02*
X027115Y012266D01*
X027213Y012167D02*
X026883Y012167D01*
X026981Y012069D02*
X027311Y012069D01*
X027409Y011970D02*
X027079Y011970D01*
X027178Y011872D02*
X027507Y011872D01*
X027605Y011773D02*
X027276Y011773D01*
X027374Y011675D02*
X027703Y011675D01*
X027801Y011576D02*
X027472Y011576D01*
X027571Y011478D02*
X027899Y011478D01*
X027996Y011379D02*
X027669Y011379D01*
X027767Y011281D02*
X028094Y011281D01*
X028192Y011182D02*
X027865Y011182D01*
X027963Y011084D02*
X028290Y011084D01*
X028388Y010985D02*
X028062Y010985D01*
X028160Y010887D02*
X028486Y010887D01*
X028584Y010788D02*
X028258Y010788D01*
X028356Y010690D02*
X028682Y010690D01*
X028780Y010591D02*
X028454Y010591D01*
X028553Y010493D02*
X028878Y010493D01*
X028976Y010394D02*
X028651Y010394D01*
X028749Y010296D02*
X029073Y010296D01*
X029171Y010197D02*
X028847Y010197D01*
X028946Y010099D02*
X029269Y010099D01*
X029367Y010000D02*
X029044Y010000D01*
X029142Y009902D02*
X029465Y009902D01*
X029563Y009803D02*
X029240Y009803D01*
X029338Y009705D02*
X029661Y009705D01*
X029759Y009606D02*
X029437Y009606D01*
X029535Y009508D02*
X029857Y009508D01*
X029955Y009409D02*
X029633Y009409D01*
X029731Y009311D02*
X030052Y009311D01*
X030150Y009212D02*
X029830Y009212D01*
X029928Y009114D02*
X030248Y009114D01*
X030346Y009015D02*
X030026Y009015D01*
X030124Y008917D02*
X030444Y008917D01*
X030542Y008818D02*
X030222Y008818D01*
X030321Y008720D02*
X030640Y008720D01*
X030738Y008621D02*
X030419Y008621D01*
X030517Y008523D02*
X030836Y008523D01*
X030934Y008424D02*
X030615Y008424D01*
X030714Y008326D02*
X031032Y008326D01*
X031129Y008227D02*
X030812Y008227D01*
X030910Y008129D02*
X031227Y008129D01*
X031325Y008030D02*
X031008Y008030D01*
X031106Y007932D02*
X031423Y007932D01*
X031521Y007833D02*
X031205Y007833D01*
X031303Y007735D02*
X031619Y007735D01*
X031717Y007636D02*
X031401Y007636D01*
X031499Y007538D02*
X031815Y007538D01*
X031913Y007439D02*
X031598Y007439D01*
X031696Y007341D02*
X032011Y007341D01*
X032109Y007242D02*
X031794Y007242D01*
X031892Y007144D02*
X032206Y007144D01*
X032304Y007045D02*
X031990Y007045D01*
X032089Y006947D02*
X032402Y006947D01*
X032500Y006848D02*
X032187Y006848D01*
X032285Y006750D02*
X032598Y006750D01*
X032696Y006651D02*
X032383Y006651D01*
X032482Y006553D02*
X032794Y006553D01*
X032892Y006454D02*
X032580Y006454D01*
X032678Y006356D02*
X032990Y006356D01*
X033088Y006257D02*
X032776Y006257D01*
X032874Y006159D02*
X033186Y006159D01*
X033283Y006060D02*
X032973Y006060D01*
X033071Y005962D02*
X033381Y005962D01*
X033479Y005863D02*
X033169Y005863D01*
X033267Y005765D02*
X033577Y005765D01*
X033675Y005666D02*
X033366Y005666D01*
X033464Y005568D02*
X033773Y005568D01*
X033871Y005469D02*
X033562Y005469D01*
X033660Y005371D02*
X033969Y005371D01*
X034067Y005272D02*
X033758Y005272D01*
X033857Y005174D02*
X034165Y005174D01*
X034262Y005075D02*
X033955Y005075D01*
X034053Y004977D02*
X034360Y004977D01*
X034458Y004878D02*
X034151Y004878D01*
X034250Y004780D02*
X034556Y004780D01*
X034654Y004681D02*
X034348Y004681D01*
X034446Y004583D02*
X034752Y004583D01*
X034850Y004484D02*
X034544Y004484D01*
X034642Y004386D02*
X034948Y004386D01*
X035046Y004287D02*
X034741Y004287D01*
X034839Y004189D02*
X035144Y004189D01*
X035242Y004090D02*
X034937Y004090D01*
X035035Y003992D02*
X035339Y003992D01*
X035301Y004030D02*
X035301Y004030D01*
X035134Y003893D02*
X036766Y003893D01*
X036865Y003795D02*
X035232Y003795D01*
X035330Y003696D02*
X036963Y003696D01*
X036941Y003598D02*
X035428Y003598D01*
X035526Y003499D02*
X036843Y003499D01*
X036744Y003401D02*
X035625Y003401D01*
X035369Y002711D02*
X036948Y002711D01*
X036956Y002613D02*
X035468Y002613D01*
X035566Y002514D02*
X036858Y002514D01*
X037760Y001529D02*
X030469Y001529D01*
X030469Y001431D02*
X037760Y001431D01*
X037760Y001332D02*
X030469Y001332D01*
X030431Y001234D02*
X037760Y001234D01*
X037760Y001135D02*
X030332Y001135D01*
X030234Y001037D02*
X037760Y001037D01*
X037760Y000938D02*
X030135Y000938D01*
X029732Y000840D02*
X037760Y000840D01*
X037760Y000741D02*
X029633Y000741D01*
X029677Y001431D02*
X029950Y001431D01*
X030469Y002022D02*
X035380Y002022D01*
X035282Y002120D02*
X030469Y002120D01*
X030469Y002219D02*
X035183Y002219D01*
X035085Y002317D02*
X030469Y002317D01*
X030469Y002416D02*
X034986Y002416D01*
X034888Y002514D02*
X030469Y002514D01*
X030469Y002613D02*
X034789Y002613D01*
X034691Y002711D02*
X030469Y002711D01*
X030469Y002810D02*
X034592Y002810D01*
X034494Y002908D02*
X030469Y002908D01*
X030469Y003007D02*
X034395Y003007D01*
X034297Y003105D02*
X030469Y003105D01*
X030469Y003204D02*
X034198Y003204D01*
X034100Y003302D02*
X030469Y003302D01*
X030469Y003401D02*
X034001Y003401D01*
X033903Y003499D02*
X030469Y003499D01*
X030469Y003598D02*
X033804Y003598D01*
X033706Y003696D02*
X030469Y003696D01*
X030469Y003795D02*
X033607Y003795D01*
X033509Y003893D02*
X030469Y003893D01*
X030469Y003992D02*
X033410Y003992D01*
X033312Y004090D02*
X030469Y004090D01*
X030469Y004189D02*
X033213Y004189D01*
X033115Y004287D02*
X030469Y004287D01*
X030469Y004386D02*
X033016Y004386D01*
X032918Y004484D02*
X030469Y004484D01*
X030469Y004583D02*
X032819Y004583D01*
X032721Y004681D02*
X030469Y004681D01*
X030469Y004780D02*
X032622Y004780D01*
X032524Y004878D02*
X030469Y004878D01*
X030469Y004977D02*
X032425Y004977D01*
X032327Y005075D02*
X030469Y005075D01*
X030469Y005174D02*
X032228Y005174D01*
X032130Y005272D02*
X030469Y005272D01*
X030469Y005371D02*
X032031Y005371D01*
X031933Y005469D02*
X030469Y005469D01*
X030469Y005568D02*
X031834Y005568D01*
X031736Y005666D02*
X030469Y005666D01*
X030469Y005765D02*
X031637Y005765D01*
X031539Y005863D02*
X030469Y005863D01*
X030426Y005962D02*
X031440Y005962D01*
X031342Y006060D02*
X030327Y006060D01*
X030229Y006159D02*
X031243Y006159D01*
X031145Y006257D02*
X030130Y006257D01*
X030032Y006356D02*
X031046Y006356D01*
X030948Y006454D02*
X029933Y006454D01*
X029835Y006553D02*
X030849Y006553D01*
X030751Y006651D02*
X029736Y006651D01*
X029638Y006750D02*
X030652Y006750D01*
X030554Y006848D02*
X029539Y006848D01*
X029441Y006947D02*
X030455Y006947D01*
X030357Y007045D02*
X029342Y007045D01*
X029244Y007144D02*
X030258Y007144D01*
X030160Y007242D02*
X029145Y007242D01*
X029047Y007341D02*
X030061Y007341D01*
X029963Y007439D02*
X028948Y007439D01*
X028850Y007538D02*
X029864Y007538D01*
X029766Y007636D02*
X028751Y007636D01*
X028653Y007735D02*
X029667Y007735D01*
X029569Y007833D02*
X028554Y007833D01*
X028456Y007932D02*
X029470Y007932D01*
X029372Y008030D02*
X028357Y008030D01*
X028259Y008129D02*
X029273Y008129D01*
X029175Y008227D02*
X028160Y008227D01*
X028062Y008326D02*
X029076Y008326D01*
X028978Y008424D02*
X027963Y008424D01*
X027865Y008523D02*
X028879Y008523D01*
X028781Y008621D02*
X027766Y008621D01*
X027668Y008720D02*
X028682Y008720D01*
X028584Y008818D02*
X027569Y008818D01*
X027471Y008917D02*
X028485Y008917D01*
X028387Y009015D02*
X027372Y009015D01*
X027274Y009114D02*
X028288Y009114D01*
X028190Y009212D02*
X027175Y009212D01*
X027077Y009311D02*
X028091Y009311D01*
X029969Y010985D02*
X030196Y010985D01*
X030098Y011084D02*
X029871Y011084D01*
X029772Y011182D02*
X029999Y011182D01*
X029901Y011281D02*
X029674Y011281D01*
X029575Y011379D02*
X029802Y011379D01*
X029704Y011478D02*
X029477Y011478D01*
X029378Y011576D02*
X029605Y011576D01*
X029507Y011675D02*
X029280Y011675D01*
X029181Y011773D02*
X029408Y011773D01*
X029310Y011872D02*
X029083Y011872D01*
X028984Y011970D02*
X029211Y011970D01*
X029113Y012069D02*
X028886Y012069D01*
X028787Y012167D02*
X029014Y012167D01*
X028916Y012266D02*
X028689Y012266D01*
X028590Y012364D02*
X028817Y012364D01*
X028719Y012463D02*
X028492Y012463D01*
X028393Y012561D02*
X028620Y012561D01*
X028522Y012660D02*
X028295Y012660D01*
X028196Y012758D02*
X028423Y012758D01*
X028325Y012857D02*
X028098Y012857D01*
X027999Y012955D02*
X028226Y012955D01*
X028128Y013054D02*
X027901Y013054D01*
X027802Y013152D02*
X028029Y013152D01*
X027931Y013251D02*
X027704Y013251D01*
X027605Y013349D02*
X027832Y013349D01*
X027734Y013448D02*
X027507Y013448D01*
X027408Y013546D02*
X027635Y013546D01*
X027537Y013645D02*
X027310Y013645D01*
X027211Y013743D02*
X027438Y013743D01*
X027340Y013842D02*
X027113Y013842D01*
X027014Y013940D02*
X027241Y013940D01*
X027143Y014039D02*
X026916Y014039D01*
X026817Y014137D02*
X027044Y014137D01*
X026946Y014236D02*
X026719Y014236D01*
X026620Y014334D02*
X026847Y014334D01*
X026749Y014433D02*
X026521Y014433D01*
X026423Y014531D02*
X026650Y014531D01*
X026552Y014630D02*
X026324Y014630D01*
X026226Y014728D02*
X026453Y014728D01*
X026355Y014827D02*
X026127Y014827D01*
X026029Y014925D02*
X026256Y014925D01*
X026158Y015024D02*
X025930Y015024D01*
X025832Y015122D02*
X026059Y015122D01*
X025961Y015221D02*
X025733Y015221D01*
X025635Y015319D02*
X025862Y015319D01*
X025764Y015418D02*
X025536Y015418D01*
X025438Y015516D02*
X025665Y015516D01*
X025567Y015615D02*
X025339Y015615D01*
X025241Y015713D02*
X025468Y015713D01*
X025370Y015812D02*
X025142Y015812D01*
X025044Y015910D02*
X025271Y015910D01*
X025173Y016009D02*
X024945Y016009D01*
X024847Y016107D02*
X025074Y016107D01*
X024976Y016206D02*
X024748Y016206D01*
X024650Y016304D02*
X024877Y016304D01*
X024779Y016403D02*
X024551Y016403D01*
X024453Y016501D02*
X024680Y016501D01*
X024582Y016600D02*
X024354Y016600D01*
X024256Y016698D02*
X024483Y016698D01*
X024385Y016797D02*
X024157Y016797D01*
X024059Y016895D02*
X024286Y016895D01*
X024188Y016994D02*
X023960Y016994D01*
X023862Y017092D02*
X024089Y017092D01*
X023991Y017191D02*
X023763Y017191D01*
X023665Y017289D02*
X023892Y017289D01*
X023794Y017388D02*
X023566Y017388D01*
X024374Y017486D02*
X024640Y017486D01*
X024739Y017388D02*
X024472Y017388D01*
X024571Y017289D02*
X024837Y017289D01*
X024936Y017191D02*
X024669Y017191D01*
X024768Y017092D02*
X025034Y017092D01*
X025133Y016994D02*
X024866Y016994D01*
X024965Y016895D02*
X025231Y016895D01*
X025330Y016797D02*
X025063Y016797D01*
X025162Y016698D02*
X025428Y016698D01*
X025527Y016600D02*
X025260Y016600D01*
X025359Y016501D02*
X025625Y016501D01*
X025724Y016403D02*
X025457Y016403D01*
X025556Y016304D02*
X025822Y016304D01*
X025921Y016206D02*
X025654Y016206D01*
X025753Y016107D02*
X026019Y016107D01*
X026118Y016009D02*
X025851Y016009D01*
X025950Y015910D02*
X026216Y015910D01*
X026315Y015812D02*
X026048Y015812D01*
X026147Y015713D02*
X026413Y015713D01*
X026512Y015615D02*
X026245Y015615D01*
X026344Y015516D02*
X026610Y015516D01*
X026709Y015418D02*
X026442Y015418D01*
X026541Y015319D02*
X026807Y015319D01*
X026906Y015221D02*
X026639Y015221D01*
X026738Y015122D02*
X027004Y015122D01*
X027103Y015024D02*
X026836Y015024D01*
X026935Y014925D02*
X027201Y014925D01*
X027300Y014827D02*
X027033Y014827D01*
X027132Y014728D02*
X027398Y014728D01*
X027497Y014630D02*
X027230Y014630D01*
X027329Y014531D02*
X027595Y014531D01*
X027694Y014433D02*
X027427Y014433D01*
X027526Y014334D02*
X027792Y014334D01*
X027891Y014236D02*
X027624Y014236D01*
X027723Y014137D02*
X027989Y014137D01*
X028088Y014039D02*
X027821Y014039D01*
X027920Y013940D02*
X028186Y013940D01*
X028285Y013842D02*
X028018Y013842D01*
X028117Y013743D02*
X028383Y013743D01*
X028482Y013645D02*
X028215Y013645D01*
X028314Y013546D02*
X028580Y013546D01*
X028679Y013448D02*
X028412Y013448D01*
X028511Y013349D02*
X028777Y013349D01*
X028876Y013251D02*
X028609Y013251D01*
X028708Y013152D02*
X028974Y013152D01*
X029073Y013054D02*
X028806Y013054D01*
X028905Y012955D02*
X029171Y012955D01*
X029270Y012857D02*
X029003Y012857D01*
X029102Y012758D02*
X029368Y012758D01*
X029467Y012660D02*
X029200Y012660D01*
X029299Y012561D02*
X029565Y012561D01*
X029664Y012463D02*
X029397Y012463D01*
X029496Y012364D02*
X029762Y012364D01*
X029861Y012266D02*
X029594Y012266D01*
X029693Y012167D02*
X029959Y012167D01*
X030058Y012069D02*
X029791Y012069D01*
X029890Y011970D02*
X030156Y011970D01*
X030255Y011872D02*
X029988Y011872D01*
X030087Y011773D02*
X030353Y011773D01*
X030452Y011675D02*
X030185Y011675D01*
X030284Y011576D02*
X030550Y011576D01*
X030649Y011478D02*
X030382Y011478D01*
X030481Y011379D02*
X030747Y011379D01*
X030846Y011281D02*
X030579Y011281D01*
X030678Y011182D02*
X030944Y011182D01*
X031043Y011084D02*
X030776Y011084D01*
X030875Y010985D02*
X031141Y010985D01*
X031240Y010887D02*
X030973Y010887D01*
X031072Y010788D02*
X031338Y010788D01*
X031437Y010690D02*
X031170Y010690D01*
X031269Y010591D02*
X031535Y010591D01*
X031634Y010493D02*
X031367Y010493D01*
X031466Y010394D02*
X031732Y010394D01*
X031831Y010296D02*
X031564Y010296D01*
X031663Y010197D02*
X031929Y010197D01*
X032028Y010099D02*
X031761Y010099D01*
X031860Y010000D02*
X032126Y010000D01*
X032225Y009902D02*
X031958Y009902D01*
X032057Y009803D02*
X032323Y009803D01*
X032422Y009705D02*
X032155Y009705D01*
X032254Y009606D02*
X032520Y009606D01*
X032619Y009508D02*
X032352Y009508D01*
X032451Y009409D02*
X032717Y009409D01*
X032816Y009311D02*
X032549Y009311D01*
X032648Y009212D02*
X032914Y009212D01*
X033013Y009114D02*
X032746Y009114D01*
X032845Y009015D02*
X033111Y009015D01*
X033210Y008917D02*
X032943Y008917D01*
X033042Y008818D02*
X033308Y008818D01*
X033407Y008720D02*
X033140Y008720D01*
X033239Y008621D02*
X033505Y008621D01*
X033604Y008523D02*
X033337Y008523D01*
X033436Y008424D02*
X033702Y008424D01*
X033801Y008326D02*
X033534Y008326D01*
X033633Y008227D02*
X033899Y008227D01*
X033998Y008129D02*
X033731Y008129D01*
X033830Y008030D02*
X034096Y008030D01*
X034195Y007932D02*
X033928Y007932D01*
X033545Y007636D02*
X033318Y007636D01*
X033417Y007538D02*
X033644Y007538D01*
X033742Y007439D02*
X033515Y007439D01*
X033614Y007341D02*
X033841Y007341D01*
X033939Y007242D02*
X033712Y007242D01*
X033811Y007144D02*
X034038Y007144D01*
X034136Y007045D02*
X033909Y007045D01*
X034008Y006947D02*
X034235Y006947D01*
X034333Y006848D02*
X034106Y006848D01*
X034205Y006750D02*
X034432Y006750D01*
X034530Y006651D02*
X034303Y006651D01*
X034402Y006553D02*
X034629Y006553D01*
X034727Y006454D02*
X034500Y006454D01*
X034599Y006356D02*
X034826Y006356D01*
X034924Y006257D02*
X034697Y006257D01*
X034796Y006159D02*
X035023Y006159D01*
X035121Y006060D02*
X034894Y006060D01*
X034939Y005075D02*
X035201Y005075D01*
X035299Y004977D02*
X035037Y004977D01*
X035134Y004878D02*
X036781Y004878D01*
X036880Y004780D02*
X035232Y004780D01*
X035330Y004681D02*
X036978Y004681D01*
X036926Y004583D02*
X035428Y004583D01*
X035526Y004484D02*
X036828Y004484D01*
X037495Y004681D02*
X037760Y004681D01*
X037760Y004583D02*
X037547Y004583D01*
X036783Y007439D02*
X035365Y007439D01*
X035267Y007538D02*
X036881Y007538D01*
X036980Y007636D02*
X035168Y007636D01*
X035070Y007735D02*
X036925Y007735D01*
X037237Y009158D02*
X035197Y009158D01*
X026252Y018103D01*
X017197Y018103D01*
X014559Y015465D01*
X014717Y015111D02*
X017355Y017788D01*
X024678Y017788D01*
X025928Y017782D02*
X026234Y017782D01*
X026333Y017683D02*
X026027Y017683D01*
X026125Y017585D02*
X026431Y017585D01*
X026530Y017486D02*
X026224Y017486D01*
X026322Y017388D02*
X026628Y017388D01*
X026727Y017289D02*
X026421Y017289D01*
X026519Y017191D02*
X026825Y017191D01*
X026924Y017092D02*
X026618Y017092D01*
X026716Y016994D02*
X027022Y016994D01*
X027121Y016895D02*
X026815Y016895D01*
X026913Y016797D02*
X027219Y016797D01*
X027318Y016698D02*
X027012Y016698D01*
X027110Y016600D02*
X027416Y016600D01*
X027515Y016501D02*
X027209Y016501D01*
X027307Y016403D02*
X027614Y016403D01*
X027712Y016304D02*
X027406Y016304D01*
X027504Y016206D02*
X027811Y016206D01*
X027909Y016107D02*
X027603Y016107D01*
X027701Y016009D02*
X028008Y016009D01*
X028106Y015910D02*
X027800Y015910D01*
X027898Y015812D02*
X028205Y015812D01*
X028303Y015713D02*
X027997Y015713D01*
X028095Y015615D02*
X028402Y015615D01*
X028500Y015516D02*
X028194Y015516D01*
X028292Y015418D02*
X028599Y015418D01*
X028697Y015319D02*
X028391Y015319D01*
X028489Y015221D02*
X028796Y015221D01*
X028894Y015122D02*
X028588Y015122D01*
X028686Y015024D02*
X028993Y015024D01*
X029091Y014925D02*
X028785Y014925D01*
X028883Y014827D02*
X029190Y014827D01*
X029288Y014728D02*
X028982Y014728D01*
X029080Y014630D02*
X029387Y014630D01*
X029485Y014531D02*
X029179Y014531D01*
X029277Y014433D02*
X029584Y014433D01*
X029682Y014334D02*
X029376Y014334D01*
X029474Y014236D02*
X029781Y014236D01*
X029879Y014137D02*
X029573Y014137D01*
X029671Y014039D02*
X029978Y014039D01*
X030076Y013940D02*
X029770Y013940D01*
X029868Y013842D02*
X030175Y013842D01*
X030273Y013743D02*
X029967Y013743D01*
X030065Y013645D02*
X030372Y013645D01*
X030470Y013546D02*
X030164Y013546D01*
X030262Y013448D02*
X030569Y013448D01*
X030667Y013349D02*
X030361Y013349D01*
X030459Y013251D02*
X030766Y013251D01*
X030864Y013152D02*
X030558Y013152D01*
X030656Y013054D02*
X030963Y013054D01*
X031061Y012955D02*
X030755Y012955D01*
X030853Y012857D02*
X031160Y012857D01*
X031258Y012758D02*
X030952Y012758D01*
X031050Y012660D02*
X031357Y012660D01*
X031455Y012561D02*
X031149Y012561D01*
X031247Y012463D02*
X031554Y012463D01*
X031652Y012364D02*
X031346Y012364D01*
X031444Y012266D02*
X031751Y012266D01*
X031849Y012167D02*
X031543Y012167D01*
X031641Y012069D02*
X031948Y012069D01*
X032046Y011970D02*
X031740Y011970D01*
X031838Y011872D02*
X032145Y011872D01*
X032243Y011773D02*
X031937Y011773D01*
X032035Y011675D02*
X032342Y011675D01*
X032440Y011576D02*
X032134Y011576D01*
X032232Y011478D02*
X032539Y011478D01*
X032637Y011379D02*
X032331Y011379D01*
X032429Y011281D02*
X032736Y011281D01*
X032834Y011182D02*
X032528Y011182D01*
X032626Y011084D02*
X032933Y011084D01*
X033031Y010985D02*
X032725Y010985D01*
X032823Y010887D02*
X033130Y010887D01*
X033228Y010788D02*
X032922Y010788D01*
X033020Y010690D02*
X033327Y010690D01*
X033425Y010591D02*
X033119Y010591D01*
X033217Y010493D02*
X033524Y010493D01*
X033622Y010394D02*
X033316Y010394D01*
X033414Y010296D02*
X033721Y010296D01*
X033819Y010197D02*
X033513Y010197D01*
X033611Y010099D02*
X033918Y010099D01*
X034016Y010000D02*
X033710Y010000D01*
X033808Y009902D02*
X034115Y009902D01*
X034103Y010591D02*
X034212Y010591D01*
X034114Y010690D02*
X034005Y010690D01*
X035088Y009606D02*
X036950Y009606D01*
X036851Y009508D02*
X035187Y009508D01*
X035285Y009409D02*
X036753Y009409D01*
X036741Y011998D02*
X033760Y011998D01*
X033239Y012518D01*
X036741Y012518D01*
X037002Y012258D01*
X036741Y011998D01*
X036812Y012069D02*
X033689Y012069D01*
X033590Y012167D02*
X036911Y012167D01*
X036994Y012266D02*
X033492Y012266D01*
X033393Y012364D02*
X036895Y012364D01*
X036797Y012463D02*
X033295Y012463D01*
X033035Y012998D02*
X032634Y013399D01*
X032634Y013863D01*
X032942Y013555D01*
X033030Y013518D01*
X033125Y013518D01*
X036741Y013518D01*
X037002Y013258D01*
X036741Y012998D01*
X033035Y012998D01*
X032979Y013054D02*
X036797Y013054D01*
X036896Y013152D02*
X032881Y013152D01*
X032782Y013251D02*
X036994Y013251D01*
X036910Y013349D02*
X032684Y013349D01*
X032634Y013448D02*
X036812Y013448D01*
X036741Y013998D02*
X033177Y013998D01*
X032831Y014344D01*
X032831Y015044D01*
X033320Y014555D01*
X033408Y014518D01*
X033503Y014518D01*
X036741Y014518D01*
X037002Y014258D01*
X036741Y013998D01*
X036782Y014039D02*
X033136Y014039D01*
X033037Y014137D02*
X036881Y014137D01*
X036979Y014236D02*
X032939Y014236D01*
X032840Y014334D02*
X036925Y014334D01*
X036827Y014433D02*
X032831Y014433D01*
X032831Y014531D02*
X033377Y014531D01*
X033245Y014630D02*
X032831Y014630D01*
X032831Y014728D02*
X033146Y014728D01*
X033048Y014827D02*
X032831Y014827D01*
X032831Y014925D02*
X032949Y014925D01*
X032851Y015024D02*
X032831Y015024D01*
X033400Y015758D02*
X032985Y016174D01*
X033400Y015758D02*
X037237Y015758D01*
X037188Y016304D02*
X037285Y016304D01*
X037285Y016403D02*
X037188Y016403D01*
X037188Y016501D02*
X037285Y016501D01*
X037285Y016600D02*
X037188Y016600D01*
X037188Y016698D02*
X037285Y016698D01*
X037285Y016895D02*
X037188Y016895D01*
X037188Y016994D02*
X037285Y016994D01*
X037285Y017092D02*
X037188Y017092D01*
X037188Y017191D02*
X037285Y017191D01*
X037483Y017191D02*
X037760Y017191D01*
X037760Y017289D02*
X037503Y017289D01*
X037601Y017388D02*
X037760Y017388D01*
X037760Y017486D02*
X037700Y017486D01*
X037756Y017585D02*
X037760Y017585D01*
X037756Y017683D02*
X037760Y017683D01*
X037756Y017782D02*
X037760Y017782D01*
X037756Y017880D02*
X037760Y017880D01*
X037751Y017979D02*
X037760Y017979D01*
X037760Y018077D02*
X037652Y018077D01*
X037554Y018176D02*
X037760Y018176D01*
X037760Y018274D02*
X037488Y018274D01*
X037586Y018373D02*
X037760Y018373D01*
X037760Y018471D02*
X037685Y018471D01*
X037756Y018570D02*
X037760Y018570D01*
X037756Y018668D02*
X037760Y018668D01*
X037756Y018767D02*
X037760Y018767D01*
X037756Y018865D02*
X037760Y018865D01*
X037756Y018964D02*
X037760Y018964D01*
X037760Y019062D02*
X037667Y019062D01*
X037760Y019161D02*
X037569Y019161D01*
X037473Y019259D02*
X037760Y019259D01*
X037760Y019358D02*
X037571Y019358D01*
X037670Y019456D02*
X037760Y019456D01*
X037756Y019555D02*
X037760Y019555D01*
X037756Y019653D02*
X037760Y019653D01*
X037756Y019752D02*
X037760Y019752D01*
X037756Y019850D02*
X037760Y019850D01*
X037756Y019949D02*
X037760Y019949D01*
X037760Y020047D02*
X037682Y020047D01*
X037760Y020146D02*
X037584Y020146D01*
X037485Y020244D02*
X037760Y020244D01*
X037760Y017092D02*
X037581Y017092D01*
X037680Y016994D02*
X037760Y016994D01*
X037760Y016895D02*
X037717Y016895D01*
X032852Y013645D02*
X032634Y013645D01*
X032634Y013743D02*
X032753Y013743D01*
X032655Y013842D02*
X032634Y013842D01*
X032634Y013546D02*
X032962Y013546D01*
X030295Y010887D02*
X030068Y010887D01*
X030166Y010788D02*
X030393Y010788D01*
X030492Y010690D02*
X030265Y010690D01*
X030363Y010591D02*
X030590Y010591D01*
X030689Y010493D02*
X030462Y010493D01*
X030560Y010394D02*
X030787Y010394D01*
X030886Y010296D02*
X030659Y010296D01*
X030757Y010197D02*
X030984Y010197D01*
X031083Y010099D02*
X030856Y010099D01*
X030954Y010000D02*
X031181Y010000D01*
X031280Y009902D02*
X031053Y009902D01*
X031151Y009803D02*
X031378Y009803D01*
X031477Y009705D02*
X031250Y009705D01*
X031348Y009606D02*
X031575Y009606D01*
X031674Y009508D02*
X031447Y009508D01*
X031545Y009409D02*
X031772Y009409D01*
X031871Y009311D02*
X031644Y009311D01*
X031742Y009212D02*
X031969Y009212D01*
X032068Y009114D02*
X031841Y009114D01*
X031939Y009015D02*
X032166Y009015D01*
X032265Y008917D02*
X032038Y008917D01*
X032136Y008818D02*
X032363Y008818D01*
X032462Y008720D02*
X032235Y008720D01*
X032333Y008621D02*
X032560Y008621D01*
X032659Y008523D02*
X032432Y008523D01*
X032530Y008424D02*
X032757Y008424D01*
X032856Y008326D02*
X032629Y008326D01*
X032727Y008227D02*
X032954Y008227D01*
X033053Y008129D02*
X032826Y008129D01*
X032924Y008030D02*
X033151Y008030D01*
X033250Y007932D02*
X033023Y007932D01*
X033121Y007833D02*
X033348Y007833D01*
X033447Y007735D02*
X033220Y007735D01*
X028020Y002728D02*
X027334Y003414D01*
X022304Y003414D01*
X025013Y000705D01*
X026933Y000705D01*
X026737Y000901D01*
X026737Y001059D01*
X027188Y001059D01*
X027188Y001156D01*
X026737Y001156D01*
X026737Y001315D01*
X027001Y001580D01*
X026713Y001868D01*
X025606Y001868D01*
X025468Y001731D01*
X025147Y001731D01*
X024920Y001958D01*
X024920Y002279D01*
X025147Y002506D01*
X025468Y002506D01*
X025627Y002348D01*
X026713Y002348D01*
X027013Y002648D01*
X027460Y002648D01*
X027737Y002371D01*
X028013Y002648D01*
X028020Y002648D01*
X028020Y002728D01*
X028020Y002711D02*
X023007Y002711D01*
X023105Y002613D02*
X026978Y002613D01*
X026879Y002514D02*
X023204Y002514D01*
X023302Y002416D02*
X025056Y002416D01*
X024957Y002317D02*
X023401Y002317D01*
X023499Y002219D02*
X024920Y002219D01*
X024920Y002120D02*
X023598Y002120D01*
X023696Y002022D02*
X024920Y002022D01*
X024954Y001923D02*
X023795Y001923D01*
X023893Y001825D02*
X025053Y001825D01*
X025318Y002108D02*
X025307Y002119D01*
X025318Y002108D02*
X027237Y002108D01*
X026855Y001726D02*
X023992Y001726D01*
X024090Y001628D02*
X026954Y001628D01*
X026951Y001529D02*
X024189Y001529D01*
X024287Y001431D02*
X026852Y001431D01*
X026754Y001332D02*
X024386Y001332D01*
X024484Y001234D02*
X026737Y001234D01*
X026737Y001037D02*
X024681Y001037D01*
X024583Y001135D02*
X027188Y001135D01*
X026798Y000840D02*
X024878Y000840D01*
X024780Y000938D02*
X026737Y000938D01*
X026896Y000741D02*
X024977Y000741D01*
X024299Y000741D02*
X017261Y000741D01*
X017187Y000840D02*
X024200Y000840D01*
X024102Y000938D02*
X017113Y000938D01*
X017039Y001037D02*
X017525Y001037D01*
X017409Y001135D02*
X016965Y001135D01*
X016892Y001234D02*
X017310Y001234D01*
X017212Y001332D02*
X016818Y001332D01*
X016744Y001431D02*
X017113Y001431D01*
X017015Y001529D02*
X016670Y001529D01*
X016596Y001628D02*
X016916Y001628D01*
X016818Y001726D02*
X016522Y001726D01*
X016448Y001825D02*
X016719Y001825D01*
X016621Y001923D02*
X016374Y001923D01*
X016301Y002022D02*
X016522Y002022D01*
X016424Y002120D02*
X016227Y002120D01*
X016153Y002219D02*
X016325Y002219D01*
X016227Y002317D02*
X016079Y002317D01*
X016128Y002416D02*
X016005Y002416D01*
X016030Y002514D02*
X015931Y002514D01*
X015931Y002613D02*
X015857Y002613D01*
X015833Y002711D02*
X015783Y002711D01*
X015734Y002810D02*
X015710Y002810D01*
X015647Y002908D02*
X015636Y002908D01*
X015619Y003007D02*
X015562Y003007D01*
X015619Y003105D02*
X015488Y003105D01*
X015414Y003204D02*
X015619Y003204D01*
X015619Y003302D02*
X015340Y003302D01*
X015266Y003401D02*
X015616Y003401D01*
X015517Y003499D02*
X015192Y003499D01*
X015126Y003598D02*
X015419Y003598D01*
X015320Y003696D02*
X015029Y003696D01*
X015222Y003795D02*
X014829Y003795D01*
X015658Y004587D02*
X015275Y004971D01*
X015482Y005057D01*
X015658Y005233D01*
X015658Y004587D01*
X015658Y004681D02*
X015564Y004681D01*
X015658Y004780D02*
X015466Y004780D01*
X015367Y004878D02*
X015658Y004878D01*
X015658Y004977D02*
X015288Y004977D01*
X015500Y005075D02*
X015658Y005075D01*
X015658Y005174D02*
X015599Y005174D01*
X016095Y005300D02*
X018237Y003158D01*
X017717Y003204D02*
X017530Y003204D01*
X017432Y003302D02*
X017717Y003302D01*
X017717Y003339D02*
X017717Y003017D01*
X016138Y004596D01*
X016138Y004918D01*
X017717Y003339D01*
X017655Y003401D02*
X017333Y003401D01*
X017235Y003499D02*
X017556Y003499D01*
X017458Y003598D02*
X017136Y003598D01*
X017038Y003696D02*
X017359Y003696D01*
X017261Y003795D02*
X016939Y003795D01*
X016841Y003893D02*
X017162Y003893D01*
X017064Y003992D02*
X016742Y003992D01*
X016644Y004090D02*
X016965Y004090D01*
X016867Y004189D02*
X016545Y004189D01*
X016447Y004287D02*
X016768Y004287D01*
X016670Y004386D02*
X016348Y004386D01*
X016250Y004484D02*
X016571Y004484D01*
X016473Y004583D02*
X016151Y004583D01*
X016138Y004681D02*
X016374Y004681D01*
X016276Y004780D02*
X016138Y004780D01*
X016138Y004878D02*
X016177Y004878D01*
X016560Y005174D02*
X016882Y005174D01*
X016783Y005272D02*
X016462Y005272D01*
X016363Y005371D02*
X016685Y005371D01*
X016586Y005469D02*
X016335Y005469D01*
X016335Y005399D02*
X016335Y005721D01*
X017717Y004339D01*
X017717Y004017D01*
X016335Y005399D01*
X016335Y005568D02*
X016488Y005568D01*
X016389Y005666D02*
X016335Y005666D01*
X016331Y006063D02*
X018237Y004158D01*
X017717Y004189D02*
X017545Y004189D01*
X017447Y004287D02*
X017717Y004287D01*
X017670Y004386D02*
X017348Y004386D01*
X017250Y004484D02*
X017571Y004484D01*
X017473Y004583D02*
X017151Y004583D01*
X017053Y004681D02*
X017374Y004681D01*
X017276Y004780D02*
X016954Y004780D01*
X016856Y004878D02*
X017177Y004878D01*
X017079Y004977D02*
X016757Y004977D01*
X016659Y005075D02*
X016980Y005075D01*
X017363Y005371D02*
X017685Y005371D01*
X017717Y005339D02*
X017717Y005017D01*
X016571Y006163D01*
X016571Y006485D01*
X017717Y005339D01*
X017717Y005272D02*
X017462Y005272D01*
X017560Y005174D02*
X017717Y005174D01*
X017717Y005075D02*
X017659Y005075D01*
X017586Y005469D02*
X017265Y005469D01*
X017166Y005568D02*
X017488Y005568D01*
X017389Y005666D02*
X017068Y005666D01*
X016969Y005765D02*
X017291Y005765D01*
X017192Y005863D02*
X016871Y005863D01*
X016772Y005962D02*
X017094Y005962D01*
X016995Y006060D02*
X016674Y006060D01*
X016575Y006159D02*
X016897Y006159D01*
X016798Y006257D02*
X016571Y006257D01*
X016571Y006356D02*
X016700Y006356D01*
X016601Y006454D02*
X016571Y006454D01*
X016528Y006867D02*
X018237Y005158D01*
X017717Y006017D02*
X017717Y006339D01*
X016768Y007288D01*
X016768Y006966D01*
X017717Y006017D01*
X017717Y006060D02*
X017674Y006060D01*
X017717Y006159D02*
X017575Y006159D01*
X017477Y006257D02*
X017717Y006257D01*
X017700Y006356D02*
X017378Y006356D01*
X017280Y006454D02*
X017601Y006454D01*
X017503Y006553D02*
X017181Y006553D01*
X017083Y006651D02*
X017404Y006651D01*
X017306Y006750D02*
X016984Y006750D01*
X016886Y006848D02*
X017207Y006848D01*
X017109Y006947D02*
X016787Y006947D01*
X016768Y007045D02*
X017010Y007045D01*
X016912Y007144D02*
X016768Y007144D01*
X016768Y007242D02*
X016813Y007242D01*
X016725Y007670D02*
X018237Y006158D01*
X018237Y007158D02*
X016922Y008473D01*
X016922Y011449D01*
X016181Y012189D01*
X015075Y012189D01*
X015593Y011950D02*
X016082Y011950D01*
X016682Y011350D01*
X016682Y011280D01*
X016569Y011393D01*
X016481Y011429D01*
X015593Y011429D01*
X015558Y011512D01*
X015398Y011672D01*
X015357Y011689D01*
X015398Y011706D01*
X015558Y011867D01*
X015593Y011950D01*
X015560Y011872D02*
X016160Y011872D01*
X016259Y011773D02*
X015465Y011773D01*
X015393Y011675D02*
X016357Y011675D01*
X016456Y011576D02*
X015494Y011576D01*
X015573Y011478D02*
X016554Y011478D01*
X016583Y011379D02*
X016653Y011379D01*
X016681Y011281D02*
X016682Y011281D01*
X016433Y011189D02*
X016725Y010898D01*
X016725Y007670D01*
X016965Y007769D02*
X016965Y008091D01*
X017717Y007339D01*
X017717Y007017D01*
X016965Y007769D01*
X016999Y007735D02*
X017321Y007735D01*
X017222Y007833D02*
X016965Y007833D01*
X016965Y007932D02*
X017124Y007932D01*
X017025Y008030D02*
X016965Y008030D01*
X017098Y007636D02*
X017419Y007636D01*
X017518Y007538D02*
X017196Y007538D01*
X017295Y007439D02*
X017616Y007439D01*
X017715Y007341D02*
X017393Y007341D01*
X017492Y007242D02*
X017717Y007242D01*
X017717Y007144D02*
X017590Y007144D01*
X017689Y007045D02*
X017717Y007045D01*
X016528Y006867D02*
X016528Y009796D01*
X016134Y010189D01*
X015075Y010189D01*
X014656Y009803D02*
X004681Y009803D01*
X004681Y009705D02*
X014757Y009705D01*
X014752Y009706D02*
X014793Y009689D01*
X014752Y009672D01*
X014592Y009512D01*
X014505Y009303D01*
X014505Y009076D01*
X014592Y008867D01*
X014752Y008706D01*
X014793Y008689D01*
X014752Y008672D01*
X014592Y008512D01*
X014505Y008303D01*
X014505Y008076D01*
X014592Y007867D01*
X014752Y007706D01*
X014774Y007697D01*
X014752Y007688D01*
X014592Y007528D01*
X014505Y007318D01*
X014505Y007092D01*
X014592Y006882D01*
X014566Y006947D02*
X002591Y006947D01*
X002593Y007429D02*
X002558Y007512D01*
X002398Y007672D01*
X002357Y007689D01*
X002398Y007706D01*
X002558Y007867D01*
X002645Y008076D01*
X002645Y008093D01*
X004144Y009592D01*
X004202Y009650D01*
X004202Y008596D01*
X003035Y007429D01*
X002593Y007429D01*
X002588Y007439D02*
X003045Y007439D01*
X003143Y007538D02*
X002533Y007538D01*
X002434Y007636D02*
X003242Y007636D01*
X003340Y007735D02*
X002426Y007735D01*
X002525Y007833D02*
X003439Y007833D01*
X003537Y007932D02*
X002585Y007932D01*
X002626Y008030D02*
X003636Y008030D01*
X003734Y008129D02*
X002680Y008129D01*
X002779Y008227D02*
X003833Y008227D01*
X003931Y008326D02*
X002877Y008326D01*
X002976Y008424D02*
X004030Y008424D01*
X004128Y008523D02*
X003074Y008523D01*
X003173Y008621D02*
X004202Y008621D01*
X004202Y008720D02*
X003271Y008720D01*
X003370Y008818D02*
X004202Y008818D01*
X004202Y008917D02*
X003468Y008917D01*
X003567Y009015D02*
X004202Y009015D01*
X004202Y009114D02*
X003665Y009114D01*
X003764Y009212D02*
X004202Y009212D01*
X004202Y009311D02*
X003862Y009311D01*
X003961Y009409D02*
X004202Y009409D01*
X004202Y009508D02*
X004059Y009508D01*
X004158Y009606D02*
X004202Y009606D01*
X004008Y009796D02*
X004008Y013024D01*
X005268Y014323D01*
X005189Y014520D02*
X014914Y014520D01*
X017552Y017237D01*
X022512Y017237D01*
X017356Y019752D02*
X029803Y019752D01*
X029774Y020441D02*
X029765Y020441D01*
X037760Y024874D02*
X016168Y024874D01*
X016242Y024972D02*
X037760Y024972D01*
X037760Y025071D02*
X016316Y025071D01*
X016390Y025169D02*
X037760Y025169D01*
X037760Y025268D02*
X016464Y025268D01*
X016537Y025366D02*
X037760Y025366D01*
X037760Y025465D02*
X016611Y025465D01*
X016685Y025563D02*
X037760Y025563D01*
X037760Y025662D02*
X016759Y025662D01*
X016833Y025760D02*
X037760Y025760D01*
X037760Y025859D02*
X016907Y025859D01*
X016981Y025957D02*
X037760Y025957D01*
X037760Y026056D02*
X017055Y026056D01*
X017128Y026154D02*
X037760Y026154D01*
X037760Y026253D02*
X017202Y026253D01*
X017276Y026351D02*
X037760Y026351D01*
X018002Y012658D02*
X017755Y012411D01*
X017028Y013139D01*
X017374Y013139D01*
X017506Y013006D01*
X017573Y012939D01*
X017661Y012902D01*
X017757Y012902D01*
X018002Y012658D01*
X018000Y012660D02*
X017507Y012660D01*
X017409Y012758D02*
X017901Y012758D01*
X017803Y012857D02*
X017310Y012857D01*
X017212Y012955D02*
X017557Y012955D01*
X017459Y013054D02*
X017113Y013054D01*
X017606Y012561D02*
X017905Y012561D01*
X017806Y012463D02*
X017704Y012463D01*
X017670Y012158D02*
X018237Y012158D01*
X017670Y012158D02*
X015780Y014048D01*
X015544Y014048D01*
X015268Y013733D01*
X013930Y013733D01*
X013418Y013142D01*
X012079Y013142D01*
X008063Y013142D01*
X008326Y012857D02*
X011816Y012857D01*
X011915Y012758D02*
X008228Y012758D01*
X008307Y013448D02*
X010674Y013448D01*
X011056Y013615D02*
X011646Y013615D01*
X011882Y013890D01*
X015150Y013930D01*
X015504Y014323D01*
X015898Y014323D01*
X015745Y013743D02*
X015596Y013743D01*
X015510Y013645D02*
X015844Y013645D01*
X015942Y013546D02*
X015524Y013546D01*
X015585Y013448D02*
X016041Y013448D01*
X014701Y012758D02*
X012244Y012758D01*
X012342Y012857D02*
X014602Y012857D01*
X014556Y012955D02*
X013573Y012955D01*
X013658Y013054D02*
X014515Y013054D01*
X014505Y013152D02*
X013744Y013152D01*
X013829Y013251D02*
X014505Y013251D01*
X014525Y013349D02*
X013914Y013349D01*
X014000Y013448D02*
X014565Y013448D01*
X013558Y013671D02*
X013308Y013382D01*
X012388Y013382D01*
X012240Y013530D01*
X011918Y013530D01*
X011770Y013382D01*
X011717Y013382D01*
X011746Y013397D01*
X011782Y013411D01*
X011789Y013418D01*
X011797Y013422D01*
X011822Y013452D01*
X011849Y013479D01*
X011853Y013488D01*
X011994Y013652D01*
X013558Y013671D01*
X013536Y013645D02*
X011988Y013645D01*
X011903Y013546D02*
X013450Y013546D01*
X013365Y013448D02*
X012322Y013448D01*
X011836Y013448D02*
X011819Y013448D01*
X011536Y013854D02*
X011364Y013854D01*
X011332Y013887D01*
X011563Y013887D01*
X011536Y013854D01*
X010794Y015705D02*
X010356Y015705D01*
X010398Y015722D01*
X010558Y015882D01*
X010575Y015923D01*
X010592Y015882D01*
X010752Y015722D01*
X010794Y015705D01*
X010774Y015713D02*
X010376Y015713D01*
X010487Y015812D02*
X010663Y015812D01*
X010581Y015910D02*
X010570Y015910D01*
X010569Y016501D02*
X010581Y016501D01*
X010664Y016600D02*
X010487Y016600D01*
X010374Y016698D02*
X010776Y016698D01*
X010482Y016994D02*
X015749Y016994D01*
X015650Y016895D02*
X010384Y016895D01*
X010311Y016797D02*
X015552Y016797D01*
X014717Y015111D02*
X004953Y015111D01*
X002075Y012233D01*
X002075Y012189D01*
X002601Y011970D02*
X002902Y011970D01*
X002902Y011872D02*
X002560Y011872D01*
X002558Y011867D02*
X002645Y012076D01*
X002645Y012303D01*
X002598Y012416D01*
X002902Y012721D01*
X002902Y011706D01*
X002625Y011429D01*
X002593Y011429D01*
X002558Y011512D01*
X002398Y011672D01*
X002357Y011689D01*
X002398Y011706D01*
X002558Y011867D01*
X002465Y011773D02*
X002902Y011773D01*
X002871Y011675D02*
X002393Y011675D01*
X002494Y011576D02*
X002772Y011576D01*
X002674Y011478D02*
X002573Y011478D01*
X002958Y011084D02*
X003067Y011084D01*
X003057Y011182D02*
X003166Y011182D01*
X003155Y011281D02*
X003178Y011281D01*
X003418Y011095D02*
X002512Y010189D01*
X002075Y010189D01*
X002495Y009803D02*
X002929Y009803D01*
X003027Y009902D02*
X002573Y009902D01*
X002662Y010000D02*
X003126Y010000D01*
X003224Y010099D02*
X002760Y010099D01*
X002859Y010197D02*
X003323Y010197D01*
X003693Y010229D02*
X003693Y012985D01*
X005189Y014520D01*
X005318Y015705D02*
X005398Y015738D01*
X005558Y015898D01*
X005575Y015939D01*
X005592Y015898D01*
X005752Y015738D01*
X005832Y015705D01*
X005318Y015705D01*
X005338Y015713D02*
X005812Y015713D01*
X005679Y015812D02*
X005472Y015812D01*
X005563Y015910D02*
X005587Y015910D01*
X006075Y016221D02*
X006075Y016941D01*
X006567Y017433D01*
X009481Y017433D01*
X008902Y016879D02*
X008635Y016879D01*
X008429Y016673D01*
X008558Y016544D01*
X008578Y016495D01*
X008592Y016528D01*
X008752Y016688D01*
X008835Y016723D01*
X008835Y016761D01*
X008872Y016849D01*
X008902Y016879D01*
X008850Y016797D02*
X008553Y016797D01*
X008454Y016698D02*
X008776Y016698D01*
X008664Y016600D02*
X008502Y016600D01*
X008576Y016501D02*
X008581Y016501D01*
X008572Y015931D02*
X008592Y015882D01*
X008752Y015722D01*
X008794Y015705D01*
X008318Y015705D01*
X008398Y015738D01*
X008558Y015898D01*
X008572Y015931D01*
X008563Y015910D02*
X008581Y015910D01*
X008663Y015812D02*
X008472Y015812D01*
X008338Y015713D02*
X008774Y015713D01*
X009575Y016487D02*
X009558Y016528D01*
X009398Y016688D01*
X009392Y016691D01*
X009423Y016721D01*
X009831Y016721D01*
X009831Y016721D01*
X009752Y016688D01*
X009592Y016528D01*
X009575Y016487D01*
X009569Y016501D02*
X009581Y016501D01*
X009664Y016600D02*
X009487Y016600D01*
X009399Y016698D02*
X009776Y016698D01*
X008114Y017036D02*
X007872Y016794D01*
X007852Y016745D01*
X007752Y016704D01*
X007592Y016544D01*
X007575Y016503D01*
X007558Y016544D01*
X007398Y016704D01*
X007315Y016738D01*
X007315Y016779D01*
X007572Y017036D01*
X008114Y017036D01*
X008072Y016994D02*
X007529Y016994D01*
X007431Y016895D02*
X007973Y016895D01*
X007875Y016797D02*
X007332Y016797D01*
X007404Y016698D02*
X007747Y016698D01*
X007648Y016600D02*
X007502Y016600D01*
X006950Y017092D02*
X006565Y017092D01*
X006466Y016994D02*
X006863Y016994D01*
X006872Y017014D02*
X006835Y016926D01*
X006835Y016831D01*
X006835Y016738D01*
X006752Y016704D01*
X006592Y016544D01*
X006575Y016503D01*
X006558Y016544D01*
X006398Y016704D01*
X006315Y016738D01*
X006315Y016842D01*
X006667Y017194D01*
X007051Y017194D01*
X006872Y017014D01*
X006835Y016895D02*
X006368Y016895D01*
X006315Y016797D02*
X006835Y016797D01*
X006747Y016698D02*
X006404Y016698D01*
X006502Y016600D02*
X006648Y016600D01*
X006663Y017191D02*
X007048Y017191D01*
X006146Y017351D02*
X005872Y017077D01*
X005835Y016989D01*
X005835Y016894D01*
X005835Y016738D01*
X005752Y016704D01*
X005592Y016544D01*
X005575Y016503D01*
X005558Y016544D01*
X005398Y016704D01*
X005315Y016738D01*
X005315Y017141D01*
X005525Y017351D01*
X006146Y017351D01*
X006084Y017289D02*
X005463Y017289D01*
X005364Y017191D02*
X005985Y017191D01*
X005887Y017092D02*
X005315Y017092D01*
X005315Y016994D02*
X005837Y016994D01*
X005835Y016895D02*
X005315Y016895D01*
X005315Y016797D02*
X005835Y016797D01*
X005747Y016698D02*
X005404Y016698D01*
X005502Y016600D02*
X005648Y016600D01*
X004835Y016738D02*
X004835Y017193D01*
X004835Y017288D01*
X004872Y017376D01*
X005004Y017509D01*
X004856Y017509D01*
X004327Y016980D01*
X004327Y016733D01*
X004398Y016704D01*
X004558Y016544D01*
X004575Y016503D01*
X004592Y016544D01*
X004752Y016704D01*
X004835Y016738D01*
X004835Y016797D02*
X004327Y016797D01*
X004327Y016895D02*
X004835Y016895D01*
X004835Y016994D02*
X004340Y016994D01*
X004439Y017092D02*
X004835Y017092D01*
X004835Y017191D02*
X004537Y017191D01*
X004636Y017289D02*
X004836Y017289D01*
X004883Y017388D02*
X004734Y017388D01*
X004833Y017486D02*
X004982Y017486D01*
X004747Y016698D02*
X004404Y016698D01*
X004502Y016600D02*
X004648Y016600D01*
X006318Y015705D02*
X006398Y015738D01*
X006558Y015898D01*
X006575Y015939D01*
X006592Y015898D01*
X006752Y015738D01*
X006832Y015705D01*
X006318Y015705D01*
X006338Y015713D02*
X006812Y015713D01*
X006679Y015812D02*
X006472Y015812D01*
X006563Y015910D02*
X006587Y015910D01*
X004448Y018570D02*
X004348Y018570D01*
X004348Y018668D02*
X004448Y018668D01*
X004448Y018767D02*
X004348Y018767D01*
X004348Y018865D02*
X004448Y018865D01*
X004448Y018964D02*
X004348Y018964D01*
X004348Y019062D02*
X004448Y019062D01*
X004448Y019161D02*
X004348Y019161D01*
X004348Y019259D02*
X004448Y019259D01*
X004448Y019358D02*
X004348Y019358D01*
X004348Y019456D02*
X004448Y019456D01*
X003583Y018865D02*
X000650Y018865D01*
X000650Y018767D02*
X003686Y018767D01*
X003821Y018668D02*
X000650Y018668D01*
X000650Y018570D02*
X004025Y018570D01*
X003504Y018964D02*
X000650Y018964D01*
X000650Y019062D02*
X003442Y019062D01*
X003394Y019161D02*
X000650Y019161D01*
X000650Y019259D02*
X003357Y019259D01*
X003330Y019358D02*
X000650Y019358D01*
X000650Y019456D02*
X003312Y019456D01*
X002163Y021525D02*
X000650Y021525D01*
X000650Y021623D02*
X002174Y021623D01*
X002195Y021722D02*
X000650Y021722D01*
X000650Y021820D02*
X002226Y021820D01*
X002267Y021919D02*
X000650Y021919D01*
X000650Y022017D02*
X002320Y022017D01*
X002387Y022116D02*
X000650Y022116D01*
X000650Y022214D02*
X002473Y022214D01*
X002583Y022313D02*
X000650Y022313D01*
X000650Y022411D02*
X002730Y022411D01*
X000650Y022904D02*
X015242Y022904D01*
X015340Y023002D02*
X000650Y023002D01*
X000650Y023101D02*
X015439Y023101D01*
X015537Y023199D02*
X000650Y023199D01*
X014897Y023298D02*
X015636Y023298D01*
X015734Y023396D02*
X015060Y023396D01*
X015143Y023495D02*
X015833Y023495D01*
X015931Y023593D02*
X015208Y023593D01*
X015282Y023692D02*
X016030Y023692D01*
X016128Y023790D02*
X015355Y023790D01*
X015429Y023889D02*
X016227Y023889D01*
X016325Y023987D02*
X015503Y023987D01*
X015577Y024086D02*
X016424Y024086D01*
X016522Y024184D02*
X015651Y024184D01*
X015725Y024283D02*
X016621Y024283D01*
X016719Y024381D02*
X015799Y024381D01*
X015873Y024480D02*
X016818Y024480D01*
X016916Y024578D02*
X015946Y024578D01*
X016020Y024677D02*
X017015Y024677D01*
X017131Y024775D02*
X016094Y024775D01*
X002902Y012660D02*
X002841Y012660D01*
X002902Y012561D02*
X002743Y012561D01*
X002644Y012463D02*
X002902Y012463D01*
X002902Y012364D02*
X002620Y012364D01*
X002645Y012266D02*
X002902Y012266D01*
X002902Y012167D02*
X002645Y012167D01*
X002642Y012069D02*
X002902Y012069D01*
X002858Y010985D02*
X002969Y010985D01*
X003693Y010229D02*
X002654Y009189D01*
X002075Y009189D01*
X002593Y008950D02*
X002702Y008950D01*
X002790Y008986D01*
X003769Y009965D01*
X003769Y009895D01*
X002472Y008598D01*
X002398Y008672D01*
X002357Y008689D01*
X002398Y008706D01*
X002558Y008867D01*
X002593Y008950D01*
X002579Y008917D02*
X002790Y008917D01*
X002819Y009015D02*
X002889Y009015D01*
X002917Y009114D02*
X002987Y009114D01*
X003016Y009212D02*
X003086Y009212D01*
X003114Y009311D02*
X003184Y009311D01*
X003213Y009409D02*
X003283Y009409D01*
X003311Y009508D02*
X003381Y009508D01*
X003410Y009606D02*
X003480Y009606D01*
X003508Y009705D02*
X003578Y009705D01*
X003607Y009803D02*
X003677Y009803D01*
X003705Y009902D02*
X003769Y009902D01*
X004008Y009796D02*
X002402Y008189D01*
X002075Y008189D01*
X002449Y008621D02*
X002495Y008621D01*
X002411Y008720D02*
X002593Y008720D01*
X002510Y008818D02*
X002692Y008818D01*
X002633Y009508D02*
X002560Y009508D01*
X002464Y009606D02*
X002732Y009606D01*
X002830Y009705D02*
X002394Y009705D01*
X004609Y008326D02*
X014515Y008326D01*
X014505Y008227D02*
X004511Y008227D01*
X004412Y008129D02*
X014505Y008129D01*
X014524Y008030D02*
X004314Y008030D01*
X004215Y007932D02*
X014565Y007932D01*
X014626Y007833D02*
X004117Y007833D01*
X004018Y007735D02*
X006202Y007735D01*
X006289Y007821D02*
X006061Y007594D01*
X006061Y007273D01*
X006289Y007046D01*
X006610Y007046D01*
X006758Y007194D01*
X011731Y007194D01*
X011879Y007046D01*
X012200Y007046D01*
X012428Y007273D01*
X012428Y007594D01*
X012200Y007821D01*
X011879Y007821D01*
X011731Y007673D01*
X006758Y007673D01*
X006610Y007821D01*
X006289Y007821D01*
X006103Y007636D02*
X003920Y007636D01*
X003821Y007538D02*
X006061Y007538D01*
X006061Y007439D02*
X003723Y007439D01*
X003624Y007341D02*
X006061Y007341D01*
X006092Y007242D02*
X003526Y007242D01*
X003427Y007144D02*
X006191Y007144D01*
X006449Y007433D02*
X012040Y007433D01*
X012428Y007439D02*
X014555Y007439D01*
X014515Y007341D02*
X012428Y007341D01*
X012397Y007242D02*
X014505Y007242D01*
X014505Y007144D02*
X012298Y007144D01*
X011781Y007144D02*
X006708Y007144D01*
X006697Y007735D02*
X011792Y007735D01*
X012287Y007735D02*
X014724Y007735D01*
X014700Y007636D02*
X012386Y007636D01*
X012428Y007538D02*
X014602Y007538D01*
X014525Y007045D02*
X003329Y007045D01*
X004671Y008424D02*
X014556Y008424D01*
X014603Y008523D02*
X004681Y008523D01*
X004681Y008621D02*
X014701Y008621D01*
X014739Y008720D02*
X004681Y008720D01*
X004681Y008818D02*
X014641Y008818D01*
X014572Y008917D02*
X004681Y008917D01*
X004681Y009015D02*
X014531Y009015D01*
X014505Y009114D02*
X004681Y009114D01*
X004681Y009212D02*
X014505Y009212D01*
X014509Y009311D02*
X004681Y009311D01*
X004681Y009409D02*
X014549Y009409D01*
X014590Y009508D02*
X004681Y009508D01*
X004681Y009606D02*
X014686Y009606D01*
X014752Y009706D02*
X014592Y009867D01*
X014505Y010076D01*
X014505Y010303D01*
X014592Y010512D01*
X014752Y010672D01*
X014793Y010689D01*
X014671Y010591D02*
X004681Y010591D01*
X004681Y010493D02*
X014584Y010493D01*
X014543Y010394D02*
X004681Y010394D01*
X004681Y010296D02*
X014505Y010296D01*
X014505Y010197D02*
X004681Y010197D01*
X004681Y010099D02*
X014505Y010099D01*
X014537Y010000D02*
X004681Y010000D01*
X004681Y009902D02*
X014578Y009902D01*
X015357Y009689D02*
X015398Y009706D01*
X015558Y009867D01*
X015593Y009950D01*
X016035Y009950D01*
X016288Y009696D01*
X016288Y009233D01*
X016128Y009393D01*
X016040Y009429D01*
X015593Y009429D01*
X015558Y009512D01*
X015398Y009672D01*
X015357Y009689D01*
X015394Y009705D02*
X016280Y009705D01*
X016288Y009606D02*
X015464Y009606D01*
X015560Y009508D02*
X016288Y009508D01*
X016288Y009409D02*
X016089Y009409D01*
X016210Y009311D02*
X016288Y009311D01*
X015993Y009189D02*
X016331Y008851D01*
X016331Y006063D01*
X016095Y005300D02*
X016095Y007867D01*
X015772Y008189D01*
X015075Y008189D01*
X015593Y007950D02*
X015673Y007950D01*
X015855Y007767D01*
X015855Y007343D01*
X015790Y007408D01*
X015702Y007445D01*
X015593Y007445D01*
X015558Y007528D01*
X015398Y007688D01*
X015376Y007697D01*
X015398Y007706D01*
X015558Y007867D01*
X015593Y007950D01*
X015585Y007932D02*
X015691Y007932D01*
X015789Y007833D02*
X015525Y007833D01*
X015426Y007735D02*
X015855Y007735D01*
X015855Y007636D02*
X015450Y007636D01*
X015549Y007538D02*
X015855Y007538D01*
X015855Y007439D02*
X015716Y007439D01*
X015654Y007205D02*
X015898Y006961D01*
X015654Y007205D02*
X015075Y007205D01*
X016091Y008209D02*
X015908Y008393D01*
X015820Y008429D01*
X015593Y008429D01*
X015558Y008512D01*
X015398Y008672D01*
X015357Y008689D01*
X015398Y008706D01*
X015558Y008867D01*
X015593Y008950D01*
X015893Y008950D01*
X016091Y008751D01*
X016091Y008209D01*
X016091Y008227D02*
X016073Y008227D01*
X016091Y008326D02*
X015975Y008326D01*
X016091Y008424D02*
X015832Y008424D01*
X016091Y008523D02*
X015548Y008523D01*
X015449Y008621D02*
X016091Y008621D01*
X016091Y008720D02*
X015411Y008720D01*
X015510Y008818D02*
X016025Y008818D01*
X015926Y008917D02*
X015579Y008917D01*
X015993Y009189D02*
X015075Y009189D01*
X015495Y009803D02*
X016182Y009803D01*
X016083Y009902D02*
X015573Y009902D01*
X015593Y010429D02*
X015558Y010512D01*
X015398Y010672D01*
X015357Y010689D01*
X015398Y010706D01*
X015558Y010867D01*
X015593Y010950D01*
X016334Y010950D01*
X016485Y010799D01*
X016485Y010178D01*
X016270Y010393D01*
X016182Y010429D01*
X015593Y010429D01*
X015566Y010493D02*
X016485Y010493D01*
X016485Y010591D02*
X015479Y010591D01*
X015357Y010690D02*
X016485Y010690D01*
X016485Y010788D02*
X015480Y010788D01*
X015566Y010887D02*
X016397Y010887D01*
X016433Y011189D02*
X015075Y011189D01*
X016267Y010394D02*
X016485Y010394D01*
X016485Y010296D02*
X016367Y010296D01*
X016466Y010197D02*
X016485Y010197D01*
X014346Y004946D02*
X012320Y004946D01*
X012349Y004917D01*
X014374Y004917D01*
X014346Y004946D01*
X016492Y003563D02*
X017717Y002339D01*
X017717Y002056D01*
X016492Y003281D01*
X016492Y003563D01*
X016492Y003499D02*
X016556Y003499D01*
X016492Y003401D02*
X016655Y003401D01*
X016753Y003302D02*
X016492Y003302D01*
X016569Y003204D02*
X016852Y003204D01*
X016950Y003105D02*
X016668Y003105D01*
X016766Y003007D02*
X017049Y003007D01*
X017147Y002908D02*
X016865Y002908D01*
X016963Y002810D02*
X017246Y002810D01*
X017344Y002711D02*
X017062Y002711D01*
X017160Y002613D02*
X017443Y002613D01*
X017541Y002514D02*
X017259Y002514D01*
X017357Y002416D02*
X017640Y002416D01*
X017717Y002317D02*
X017456Y002317D01*
X017554Y002219D02*
X017717Y002219D01*
X017717Y002120D02*
X017653Y002120D01*
X018756Y002022D02*
X018769Y002022D01*
X019368Y001431D02*
X023609Y001431D01*
X023511Y001529D02*
X019467Y001529D01*
X019565Y001628D02*
X023412Y001628D01*
X023314Y001726D02*
X019664Y001726D01*
X019762Y001825D02*
X023215Y001825D01*
X023117Y001923D02*
X019861Y001923D01*
X019959Y002022D02*
X023018Y002022D01*
X022920Y002120D02*
X020058Y002120D01*
X020156Y002219D02*
X022821Y002219D01*
X022723Y002317D02*
X020255Y002317D01*
X020353Y002416D02*
X022624Y002416D01*
X022526Y002514D02*
X020452Y002514D01*
X020550Y002613D02*
X022427Y002613D01*
X022329Y002711D02*
X020649Y002711D01*
X020747Y002810D02*
X022230Y002810D01*
X022132Y002908D02*
X020846Y002908D01*
X020944Y003007D02*
X022033Y003007D01*
X021935Y003105D02*
X021043Y003105D01*
X021141Y003204D02*
X021836Y003204D01*
X022317Y003401D02*
X027348Y003401D01*
X027446Y003302D02*
X022416Y003302D01*
X022514Y003204D02*
X027545Y003204D01*
X027643Y003105D02*
X022613Y003105D01*
X022711Y003007D02*
X027742Y003007D01*
X027840Y002908D02*
X022810Y002908D01*
X022908Y002810D02*
X027939Y002810D01*
X027978Y002613D02*
X027495Y002613D01*
X027594Y002514D02*
X027879Y002514D01*
X027781Y002416D02*
X027692Y002416D01*
X026781Y002416D02*
X025559Y002416D01*
X025562Y001825D02*
X026757Y001825D01*
X028500Y002711D02*
X029005Y002711D01*
X024003Y001037D02*
X018956Y001037D01*
X019073Y001135D02*
X023905Y001135D01*
X023806Y001234D02*
X019171Y001234D01*
X019270Y001332D02*
X023708Y001332D01*
X017717Y003105D02*
X017629Y003105D01*
X017644Y004090D02*
X017717Y004090D01*
X025307Y010583D02*
X025307Y011331D01*
D20*
X025307Y010583D03*
X016607Y014166D03*
X015977Y017630D03*
X011056Y013615D03*
X012079Y013142D03*
X008063Y013142D03*
X006449Y007433D03*
X006449Y005189D03*
X012040Y004678D03*
X012040Y007433D03*
X025307Y002119D03*
X029993Y020111D03*
X030386Y020504D03*
X030780Y020898D03*
X031174Y021292D03*
X031607Y021725D03*
X032473Y021725D03*
X032906Y021292D03*
X033300Y020898D03*
X033693Y020504D03*
X034087Y020111D03*
D21*
X007394Y020248D02*
X007374Y020268D01*
X006489Y020268D01*
X005579Y021178D01*
X005579Y021449D01*
M02*
