G75*
%MOIN*%
%OFA0B0*%
%FSLAX24Y24*%
%IPPOS*%
%LPD*%
%AMOC8*
5,1,8,0,0,1.08239X$1,22.5*
%
%ADD10C,0.0030*%
%ADD11C,0.0760*%
%ADD12OC8,0.0760*%
%ADD13C,0.1890*%
%ADD14C,0.0600*%
%ADD15OC8,0.0700*%
%ADD16C,0.0700*%
%ADD17OC8,0.0660*%
%ADD18R,0.0700X0.0700*%
%ADD19C,0.0100*%
%ADD20OC8,0.0396*%
%ADD21OC8,0.0400*%
%ADD22C,0.0160*%
D10*
X034378Y000637D02*
X034624Y000637D01*
X034746Y000637D02*
X034993Y000637D01*
X035114Y000637D02*
X035361Y000884D01*
X035361Y000946D01*
X035299Y001008D01*
X035176Y001008D01*
X035114Y000946D01*
X034869Y001008D02*
X034869Y000637D01*
X035114Y000637D02*
X035361Y000637D01*
X035483Y000699D02*
X035729Y000946D01*
X035729Y000699D01*
X035668Y000637D01*
X035544Y000637D01*
X035483Y000699D01*
X035483Y000946D01*
X035544Y001008D01*
X035668Y001008D01*
X035729Y000946D01*
X035851Y000884D02*
X035974Y001008D01*
X035974Y000637D01*
X035851Y000637D02*
X036098Y000637D01*
X036219Y000823D02*
X036404Y001008D01*
X036404Y000637D01*
X036587Y000637D02*
X036834Y001008D01*
X036956Y000884D02*
X037079Y001008D01*
X037079Y000637D01*
X036956Y000637D02*
X037203Y000637D01*
X037324Y000637D02*
X037386Y000637D01*
X037386Y000699D01*
X037324Y000699D01*
X037324Y000637D01*
X037508Y000699D02*
X037508Y000946D01*
X037570Y001008D01*
X037693Y001008D01*
X037755Y000946D01*
X037508Y000699D01*
X037570Y000637D01*
X037693Y000637D01*
X037755Y000699D01*
X037755Y000946D01*
X036466Y000823D02*
X036219Y000823D01*
X034869Y001008D02*
X034746Y000884D01*
X034501Y001008D02*
X034501Y000637D01*
X034378Y000884D02*
X034501Y001008D01*
D11*
X015819Y004166D03*
X015819Y005150D03*
X015819Y006150D03*
X015819Y007150D03*
X015819Y008150D03*
X015819Y009150D03*
X015819Y010150D03*
X015819Y011166D03*
X015819Y012166D03*
X015819Y013166D03*
X015819Y014166D03*
X015819Y015166D03*
X015819Y016166D03*
X012189Y020347D03*
X008189Y020347D03*
X001646Y016197D03*
X001646Y015197D03*
X001646Y014197D03*
X001646Y013197D03*
X001646Y012197D03*
X001646Y011197D03*
X001646Y010166D03*
X001646Y009166D03*
X001646Y008166D03*
X001646Y007166D03*
X001646Y006166D03*
X001646Y005166D03*
X001646Y004166D03*
D12*
X007756Y003591D03*
X008756Y003591D03*
X008756Y002591D03*
X007756Y002591D03*
X009756Y002591D03*
X009756Y003591D03*
D13*
X004398Y019599D03*
X003256Y021449D03*
X005579Y021449D03*
D14*
X013862Y021268D02*
X014462Y021268D01*
X014462Y020268D02*
X013862Y020268D01*
X013862Y019268D02*
X014462Y019268D01*
D15*
X007524Y018260D03*
X007524Y022197D03*
X027237Y002108D03*
X028237Y002108D03*
X028237Y001108D03*
X029237Y001108D03*
X027237Y001108D03*
D16*
X008524Y018260D03*
X008524Y022197D03*
D17*
X018237Y016158D03*
X018237Y015158D03*
X018237Y014158D03*
X018237Y013158D03*
X018237Y012158D03*
X018237Y011158D03*
X018237Y010158D03*
X018237Y009158D03*
X018237Y007158D03*
X018237Y006158D03*
X018237Y005158D03*
X018237Y004158D03*
X018237Y003158D03*
X018237Y002158D03*
X037237Y002158D03*
X037237Y003158D03*
X037237Y004158D03*
X037237Y005158D03*
X037237Y006158D03*
X037237Y007158D03*
X037237Y008158D03*
X037237Y009158D03*
X037237Y010758D03*
X037237Y011758D03*
X037237Y012758D03*
X037237Y013758D03*
X037237Y014758D03*
X037237Y015758D03*
X037237Y016758D03*
X037237Y017758D03*
X037237Y018758D03*
X037237Y019758D03*
D18*
X029237Y002108D03*
D19*
X000650Y003248D02*
X000650Y023272D01*
X014654Y023272D01*
X014689Y023263D01*
X014752Y023272D01*
X014816Y023272D01*
X014850Y023286D01*
X014886Y023291D01*
X014941Y023324D01*
X015000Y023348D01*
X015026Y023374D01*
X015057Y023392D01*
X015096Y023444D01*
X015141Y023489D01*
X015155Y023522D01*
X017329Y026422D01*
X037760Y026422D01*
X037760Y001213D01*
X037655Y001213D01*
X037571Y001213D01*
X037485Y001213D01*
X037425Y001153D01*
X037365Y001093D01*
X037365Y001093D01*
X037363Y001091D01*
X037304Y001031D01*
X037304Y001031D01*
X037304Y001031D01*
X037304Y000945D01*
X037304Y000904D01*
X037284Y000904D01*
X037284Y001093D01*
X037164Y001213D01*
X036994Y001213D01*
X036955Y001173D01*
X036877Y001225D01*
X036711Y001192D01*
X036609Y001039D01*
X036609Y001093D01*
X036548Y001153D01*
X036489Y001213D01*
X036320Y001213D01*
X036216Y001109D01*
X036200Y001093D01*
X036200Y001093D01*
X036179Y001072D01*
X036179Y001093D01*
X036059Y001213D01*
X035889Y001213D01*
X035821Y001144D01*
X035814Y001151D01*
X035753Y001213D01*
X035629Y001213D01*
X035545Y001213D01*
X035459Y001213D01*
X035422Y001175D01*
X035384Y001213D01*
X035261Y001213D01*
X035175Y001213D01*
X035091Y001213D01*
X035091Y001213D01*
X035030Y001151D01*
X035023Y001144D01*
X034954Y001213D01*
X034785Y001213D01*
X034685Y001113D01*
X034586Y001213D01*
X034416Y001213D01*
X034296Y001093D01*
X034173Y000969D01*
X034173Y000800D01*
X034211Y000761D01*
X034173Y000722D01*
X034173Y000650D01*
X029542Y000650D01*
X029776Y000884D01*
X029776Y001331D01*
X029540Y001568D01*
X029665Y001568D01*
X029776Y001679D01*
X029776Y002536D01*
X029665Y002648D01*
X028808Y002648D01*
X028697Y002536D01*
X028697Y002411D01*
X028460Y002648D01*
X028013Y002648D01*
X027737Y002371D01*
X027460Y002648D01*
X027013Y002648D01*
X026697Y002331D01*
X026697Y001884D01*
X027001Y001580D01*
X026737Y001315D01*
X026737Y001156D01*
X027188Y001156D01*
X027188Y001059D01*
X026737Y001059D01*
X026737Y000901D01*
X026987Y000650D01*
X026603Y000650D01*
X026428Y000826D01*
X026339Y000862D01*
X023793Y000862D01*
X022476Y002178D01*
X022476Y002833D01*
X022624Y002981D01*
X022624Y003303D01*
X022523Y003404D01*
X034185Y003404D01*
X035624Y001964D01*
X035713Y001928D01*
X036731Y001928D01*
X037021Y001638D01*
X037452Y001638D01*
X037756Y001943D01*
X037756Y002373D01*
X037472Y002658D01*
X037756Y002943D01*
X037756Y003373D01*
X037472Y003658D01*
X037756Y003943D01*
X037756Y004373D01*
X037472Y004658D01*
X037756Y004943D01*
X037756Y005373D01*
X037472Y005658D01*
X037756Y005943D01*
X037756Y006373D01*
X037472Y006658D01*
X037756Y006943D01*
X037756Y007373D01*
X037472Y007658D01*
X037756Y007943D01*
X037756Y008373D01*
X037472Y008658D01*
X037756Y008943D01*
X037756Y009373D01*
X037452Y009678D01*
X037021Y009678D01*
X036789Y009445D01*
X026249Y009445D01*
X026099Y009595D01*
X025776Y009595D01*
X025548Y009367D01*
X025548Y009044D01*
X025776Y008815D01*
X026099Y008815D01*
X026249Y008965D01*
X036717Y008965D01*
X036717Y008943D01*
X037002Y008658D01*
X036717Y008373D01*
X036717Y007943D01*
X037002Y007658D01*
X036717Y007373D01*
X036717Y006943D01*
X037002Y006658D01*
X036717Y006373D01*
X036717Y005943D01*
X037002Y005658D01*
X036717Y005373D01*
X036717Y005360D01*
X021903Y005360D01*
X021815Y005324D01*
X018756Y002265D01*
X018756Y002373D01*
X018472Y002658D01*
X018756Y002943D01*
X018756Y003373D01*
X018472Y003658D01*
X018756Y003943D01*
X018756Y004373D01*
X018472Y004658D01*
X018756Y004943D01*
X018756Y005373D01*
X018472Y005658D01*
X018756Y005943D01*
X018756Y006373D01*
X018472Y006658D01*
X018756Y006943D01*
X018756Y007373D01*
X018452Y007678D01*
X018021Y007678D01*
X017819Y007475D01*
X016351Y008944D01*
X016389Y009037D01*
X016389Y009263D01*
X016302Y009473D01*
X016142Y009633D01*
X016101Y009650D01*
X016142Y009667D01*
X016302Y009827D01*
X016389Y010037D01*
X016389Y010263D01*
X016302Y010473D01*
X016142Y010633D01*
X016031Y010679D01*
X016097Y010712D01*
X016165Y010761D01*
X016224Y010820D01*
X016273Y010888D01*
X016310Y010962D01*
X016336Y011042D01*
X016348Y011117D01*
X015868Y011117D01*
X015868Y011214D01*
X016348Y011214D01*
X016336Y011290D01*
X016310Y011369D01*
X016273Y011444D01*
X016224Y011511D01*
X016165Y011570D01*
X016097Y011619D01*
X016023Y011657D01*
X015996Y011666D01*
X016023Y011675D01*
X016097Y011712D01*
X016165Y011761D01*
X016224Y011820D01*
X016273Y011888D01*
X016310Y011962D01*
X016336Y012042D01*
X016348Y012117D01*
X015868Y012117D01*
X015868Y011637D01*
X015868Y011214D01*
X015771Y011214D01*
X015771Y011117D01*
X015358Y011117D01*
X008805Y017671D01*
X008805Y017792D01*
X008830Y017803D01*
X008982Y017954D01*
X009064Y018153D01*
X009064Y018368D01*
X009062Y018371D01*
X009699Y018998D01*
X013443Y018998D01*
X013447Y018991D01*
X013584Y018853D01*
X013764Y018778D01*
X014559Y018778D01*
X014739Y018853D01*
X014877Y018991D01*
X014952Y019171D01*
X014952Y019366D01*
X014877Y019546D01*
X014739Y019683D01*
X014559Y019758D01*
X013764Y019758D01*
X013584Y019683D01*
X013447Y019546D01*
X013443Y019538D01*
X009590Y019538D01*
X009537Y019538D01*
X009536Y019538D01*
X009535Y019538D01*
X009487Y019518D01*
X009438Y019498D01*
X009437Y019497D01*
X009436Y019497D01*
X009399Y019460D01*
X008700Y018772D01*
X008631Y018800D01*
X008417Y018800D01*
X008218Y018718D01*
X008066Y018566D01*
X008024Y018464D01*
X008024Y018467D01*
X007731Y018760D01*
X007554Y018760D01*
X007554Y018290D01*
X007494Y018290D01*
X007494Y018230D01*
X007554Y018230D01*
X007554Y017760D01*
X007731Y017760D01*
X008024Y018053D01*
X008024Y018057D01*
X008066Y017954D01*
X008218Y017803D01*
X008326Y017758D01*
X008326Y017524D01*
X008362Y017435D01*
X008430Y017368D01*
X015333Y010465D01*
X015250Y010263D01*
X015250Y010037D01*
X015336Y009827D01*
X015497Y009667D01*
X015538Y009650D01*
X015497Y009633D01*
X015336Y009473D01*
X015250Y009263D01*
X015250Y009037D01*
X015336Y008827D01*
X015497Y008667D01*
X015538Y008650D01*
X015497Y008633D01*
X015336Y008473D01*
X015250Y008263D01*
X015250Y008037D01*
X015336Y007827D01*
X015497Y007667D01*
X015538Y007650D01*
X015497Y007633D01*
X015336Y007473D01*
X015250Y007263D01*
X015250Y007037D01*
X015336Y006827D01*
X015497Y006667D01*
X015538Y006650D01*
X015497Y006633D01*
X015336Y006473D01*
X015250Y006263D01*
X015250Y006037D01*
X015336Y005827D01*
X015497Y005667D01*
X015538Y005650D01*
X015497Y005633D01*
X015336Y005473D01*
X015250Y005263D01*
X015250Y005037D01*
X015336Y004827D01*
X015497Y004667D01*
X015519Y004658D01*
X015497Y004649D01*
X015336Y004488D01*
X015250Y004279D01*
X015250Y004052D01*
X015336Y003843D01*
X015497Y003683D01*
X015706Y003596D01*
X015933Y003596D01*
X016016Y003630D01*
X017682Y001964D01*
X017717Y001950D01*
X017717Y001943D01*
X017793Y001866D01*
X014689Y001866D01*
X009320Y007274D01*
X009287Y007307D01*
X009253Y007341D01*
X009253Y007341D01*
X009252Y007341D01*
X009209Y007359D01*
X009165Y007378D01*
X009165Y007378D01*
X009164Y007378D01*
X009117Y007378D01*
X009070Y007378D01*
X009069Y007378D01*
X002175Y007378D01*
X002129Y007488D01*
X001969Y007649D01*
X001928Y007666D01*
X001969Y007683D01*
X002129Y007843D01*
X002216Y008052D01*
X002216Y008279D01*
X002129Y008488D01*
X001969Y008649D01*
X001928Y008666D01*
X001969Y008683D01*
X002129Y008843D01*
X002216Y009052D01*
X002216Y009279D01*
X002129Y009488D01*
X001969Y009649D01*
X001928Y009666D01*
X001969Y009683D01*
X002129Y009843D01*
X002216Y010052D01*
X002216Y010279D01*
X002129Y010488D01*
X001969Y010649D01*
X001890Y010681D01*
X001969Y010714D01*
X002129Y010874D01*
X002174Y010983D01*
X005006Y010983D01*
X005156Y010833D01*
X005479Y010833D01*
X005707Y011061D01*
X005707Y011384D01*
X005479Y011613D01*
X005156Y011613D01*
X005006Y011463D01*
X002153Y011463D01*
X002129Y011520D01*
X001969Y011680D01*
X001928Y011697D01*
X001969Y011714D01*
X002129Y011874D01*
X002216Y012084D01*
X002216Y012311D01*
X002129Y012520D01*
X001969Y012680D01*
X001928Y012697D01*
X001969Y012714D01*
X002129Y012874D01*
X002216Y013084D01*
X002216Y013311D01*
X002129Y013520D01*
X001969Y013680D01*
X001928Y013697D01*
X001969Y013714D01*
X002129Y013874D01*
X002216Y014084D01*
X002216Y014311D01*
X002129Y014520D01*
X001969Y014680D01*
X001928Y014697D01*
X001969Y014714D01*
X002129Y014874D01*
X002216Y015084D01*
X002216Y015311D01*
X002129Y015520D01*
X001969Y015680D01*
X001928Y015697D01*
X001969Y015714D01*
X002129Y015874D01*
X002216Y016084D01*
X002216Y016311D01*
X002129Y016520D01*
X001969Y016680D01*
X001759Y016767D01*
X001533Y016767D01*
X001323Y016680D01*
X001163Y016520D01*
X001076Y016311D01*
X001076Y016084D01*
X001163Y015874D01*
X001323Y015714D01*
X001364Y015697D01*
X001323Y015680D01*
X001163Y015520D01*
X001076Y015311D01*
X001076Y015084D01*
X001163Y014874D01*
X001323Y014714D01*
X001364Y014697D01*
X001323Y014680D01*
X001163Y014520D01*
X001076Y014311D01*
X001076Y014084D01*
X001163Y013874D01*
X001323Y013714D01*
X001364Y013697D01*
X001323Y013680D01*
X001163Y013520D01*
X001076Y013311D01*
X001076Y013084D01*
X001163Y012874D01*
X001323Y012714D01*
X001364Y012697D01*
X001323Y012680D01*
X001163Y012520D01*
X001076Y012311D01*
X001076Y012084D01*
X001163Y011874D01*
X001323Y011714D01*
X001364Y011697D01*
X001323Y011680D01*
X001163Y011520D01*
X001076Y011311D01*
X001076Y011084D01*
X001163Y010874D01*
X001323Y010714D01*
X001402Y010681D01*
X001323Y010649D01*
X001163Y010488D01*
X001076Y010279D01*
X001076Y010052D01*
X001163Y009843D01*
X001323Y009683D01*
X001364Y009666D01*
X001323Y009649D01*
X001163Y009488D01*
X001076Y009279D01*
X001076Y009052D01*
X001163Y008843D01*
X001323Y008683D01*
X001364Y008666D01*
X001323Y008649D01*
X001163Y008488D01*
X001076Y008279D01*
X001076Y008052D01*
X001163Y007843D01*
X001323Y007683D01*
X001364Y007666D01*
X001323Y007649D01*
X001163Y007488D01*
X001076Y007279D01*
X001076Y007052D01*
X001163Y006843D01*
X001323Y006683D01*
X001364Y006666D01*
X001323Y006649D01*
X001163Y006488D01*
X001076Y006279D01*
X001076Y006052D01*
X001163Y005843D01*
X001323Y005683D01*
X001364Y005666D01*
X000650Y005666D01*
X000650Y005568D02*
X001242Y005568D01*
X001163Y005488D02*
X001323Y005649D01*
X001364Y005666D01*
X001242Y005765D02*
X000650Y005765D01*
X000650Y005863D02*
X001155Y005863D01*
X001114Y005962D02*
X000650Y005962D01*
X000650Y006060D02*
X001076Y006060D01*
X001076Y006159D02*
X000650Y006159D01*
X000650Y006257D02*
X001076Y006257D01*
X001108Y006356D02*
X000650Y006356D01*
X000650Y006454D02*
X001149Y006454D01*
X001227Y006553D02*
X000650Y006553D01*
X000650Y006651D02*
X001329Y006651D01*
X001257Y006750D02*
X000650Y006750D01*
X000650Y006848D02*
X001161Y006848D01*
X001120Y006947D02*
X000650Y006947D01*
X000650Y007045D02*
X001079Y007045D01*
X001076Y007144D02*
X000650Y007144D01*
X000650Y007242D02*
X001076Y007242D01*
X001102Y007341D02*
X000650Y007341D01*
X000650Y007439D02*
X001143Y007439D01*
X001212Y007538D02*
X000650Y007538D01*
X000650Y007636D02*
X001311Y007636D01*
X001272Y007735D02*
X000650Y007735D01*
X000650Y007833D02*
X001173Y007833D01*
X001126Y007932D02*
X000650Y007932D01*
X000650Y008030D02*
X001086Y008030D01*
X001076Y008129D02*
X000650Y008129D01*
X000650Y008227D02*
X001076Y008227D01*
X001096Y008326D02*
X000650Y008326D01*
X000650Y008424D02*
X001136Y008424D01*
X001197Y008523D02*
X000650Y008523D01*
X000650Y008621D02*
X001296Y008621D01*
X001287Y008720D02*
X000650Y008720D01*
X000650Y008818D02*
X001188Y008818D01*
X001133Y008917D02*
X000650Y008917D01*
X000650Y009015D02*
X001092Y009015D01*
X001076Y009114D02*
X000650Y009114D01*
X000650Y009212D02*
X001076Y009212D01*
X001089Y009311D02*
X000650Y009311D01*
X000650Y009409D02*
X001130Y009409D01*
X001182Y009508D02*
X000650Y009508D01*
X000650Y009606D02*
X001281Y009606D01*
X001302Y009705D02*
X000650Y009705D01*
X000650Y009803D02*
X001203Y009803D01*
X001139Y009902D02*
X000650Y009902D01*
X000650Y010000D02*
X001098Y010000D01*
X001076Y010099D02*
X000650Y010099D01*
X000650Y010197D02*
X001076Y010197D01*
X001083Y010296D02*
X000650Y010296D01*
X000650Y010394D02*
X001124Y010394D01*
X001167Y010493D02*
X000650Y010493D01*
X000650Y010591D02*
X001266Y010591D01*
X001383Y010690D02*
X000650Y010690D01*
X000650Y010788D02*
X001250Y010788D01*
X001158Y010887D02*
X000650Y010887D01*
X000650Y010985D02*
X001117Y010985D01*
X001076Y011084D02*
X000650Y011084D01*
X000650Y011182D02*
X001076Y011182D01*
X001076Y011281D02*
X000650Y011281D01*
X000650Y011379D02*
X001105Y011379D01*
X001145Y011478D02*
X000650Y011478D01*
X000650Y011576D02*
X001219Y011576D01*
X001318Y011675D02*
X000650Y011675D01*
X000650Y011773D02*
X001265Y011773D01*
X001166Y011872D02*
X000650Y011872D01*
X000650Y011970D02*
X001123Y011970D01*
X001083Y012069D02*
X000650Y012069D01*
X000650Y012167D02*
X001076Y012167D01*
X001076Y012266D02*
X000650Y012266D01*
X000650Y012364D02*
X001098Y012364D01*
X001139Y012463D02*
X000650Y012463D01*
X000650Y012561D02*
X001204Y012561D01*
X001303Y012660D02*
X000650Y012660D01*
X000650Y012758D02*
X001280Y012758D01*
X001181Y012857D02*
X000650Y012857D01*
X000650Y012955D02*
X001130Y012955D01*
X001089Y013054D02*
X000650Y013054D01*
X000650Y013152D02*
X001076Y013152D01*
X001076Y013251D02*
X000650Y013251D01*
X000650Y013349D02*
X001092Y013349D01*
X001133Y013448D02*
X000650Y013448D01*
X000650Y013546D02*
X001189Y013546D01*
X001288Y013645D02*
X000650Y013645D01*
X000650Y013743D02*
X001295Y013743D01*
X001196Y013842D02*
X000650Y013842D01*
X000650Y013940D02*
X001136Y013940D01*
X001095Y014039D02*
X000650Y014039D01*
X000650Y014137D02*
X001076Y014137D01*
X001076Y014236D02*
X000650Y014236D01*
X000650Y014334D02*
X001086Y014334D01*
X001127Y014433D02*
X000650Y014433D01*
X000650Y014531D02*
X001174Y014531D01*
X001273Y014630D02*
X000650Y014630D01*
X000650Y014728D02*
X001310Y014728D01*
X001211Y014827D02*
X000650Y014827D01*
X000650Y014925D02*
X001142Y014925D01*
X001101Y015024D02*
X000650Y015024D01*
X000650Y015122D02*
X001076Y015122D01*
X001076Y015221D02*
X000650Y015221D01*
X000650Y015319D02*
X001080Y015319D01*
X001121Y015418D02*
X000650Y015418D01*
X000650Y015516D02*
X001161Y015516D01*
X001258Y015615D02*
X000650Y015615D01*
X000650Y015713D02*
X001326Y015713D01*
X001226Y015812D02*
X000650Y015812D01*
X000650Y015910D02*
X001148Y015910D01*
X001108Y016009D02*
X000650Y016009D01*
X000650Y016107D02*
X001076Y016107D01*
X001076Y016206D02*
X000650Y016206D01*
X000650Y016304D02*
X001076Y016304D01*
X001114Y016403D02*
X000650Y016403D01*
X000650Y016501D02*
X001155Y016501D01*
X001243Y016600D02*
X000650Y016600D01*
X000650Y016698D02*
X001366Y016698D01*
X001926Y016698D02*
X009099Y016698D01*
X009001Y016797D02*
X000650Y016797D01*
X000650Y016895D02*
X008902Y016895D01*
X008804Y016994D02*
X000650Y016994D01*
X000650Y017092D02*
X008705Y017092D01*
X008607Y017191D02*
X000650Y017191D01*
X000650Y017289D02*
X008508Y017289D01*
X008410Y017388D02*
X000650Y017388D01*
X000650Y017486D02*
X008341Y017486D01*
X008326Y017585D02*
X000650Y017585D01*
X000650Y017683D02*
X008326Y017683D01*
X008269Y017782D02*
X007752Y017782D01*
X007851Y017880D02*
X008141Y017880D01*
X008056Y017979D02*
X007949Y017979D01*
X007554Y017979D02*
X007494Y017979D01*
X007494Y018077D02*
X007554Y018077D01*
X007554Y018176D02*
X007494Y018176D01*
X007494Y018230D02*
X007494Y017760D01*
X007317Y017760D01*
X007024Y018053D01*
X007024Y018230D01*
X007494Y018230D01*
X007494Y018274D02*
X000650Y018274D01*
X000650Y018176D02*
X007024Y018176D01*
X007024Y018077D02*
X000650Y018077D01*
X000650Y017979D02*
X007099Y017979D01*
X007197Y017880D02*
X000650Y017880D01*
X000650Y017782D02*
X007296Y017782D01*
X007494Y017782D02*
X007554Y017782D01*
X007554Y017880D02*
X007494Y017880D01*
X007494Y018290D02*
X007024Y018290D01*
X007024Y018467D01*
X007317Y018760D01*
X007494Y018760D01*
X007494Y018290D01*
X007494Y018373D02*
X007554Y018373D01*
X007554Y018471D02*
X007494Y018471D01*
X007494Y018570D02*
X007554Y018570D01*
X007554Y018668D02*
X007494Y018668D01*
X007225Y018668D02*
X004975Y018668D01*
X004928Y018639D02*
X005033Y018704D01*
X005129Y018781D01*
X005216Y018868D01*
X005292Y018964D01*
X005358Y019068D01*
X005411Y019179D01*
X005452Y019295D01*
X005479Y019415D01*
X005493Y019537D01*
X005493Y019549D01*
X004448Y019549D01*
X004448Y019649D01*
X004348Y019649D01*
X004348Y020694D01*
X004337Y020694D01*
X004214Y020680D01*
X004094Y020653D01*
X003978Y020612D01*
X003938Y020593D01*
X003987Y020632D01*
X004074Y020718D01*
X004151Y020815D01*
X004216Y020919D01*
X004269Y021030D01*
X004310Y021146D01*
X004337Y021266D01*
X004351Y021388D01*
X004351Y021399D01*
X003306Y021399D01*
X003306Y020354D01*
X003318Y020354D01*
X003440Y020368D01*
X003560Y020395D01*
X003676Y020436D01*
X003716Y020455D01*
X003667Y020416D01*
X003580Y020330D01*
X003504Y020233D01*
X003438Y020129D01*
X003385Y020018D01*
X003344Y019902D01*
X003317Y019783D01*
X003303Y019660D01*
X003303Y019649D01*
X004348Y019649D01*
X004348Y019549D01*
X003303Y019549D01*
X003303Y019537D01*
X003317Y019415D01*
X003344Y019295D01*
X003385Y019179D01*
X003438Y019068D01*
X003504Y018964D01*
X003580Y018868D01*
X003667Y018781D01*
X003763Y018704D01*
X003868Y018639D01*
X003978Y018586D01*
X004094Y018545D01*
X004214Y018518D01*
X004337Y018504D01*
X004348Y018504D01*
X004348Y019549D01*
X004448Y019549D01*
X004448Y018504D01*
X004460Y018504D01*
X004582Y018518D01*
X004702Y018545D01*
X004818Y018586D01*
X004928Y018639D01*
X004772Y018570D02*
X007126Y018570D01*
X007028Y018471D02*
X000650Y018471D01*
X000650Y018373D02*
X007024Y018373D01*
X007823Y018668D02*
X008168Y018668D01*
X008070Y018570D02*
X007922Y018570D01*
X008020Y018471D02*
X008027Y018471D01*
X008336Y018767D02*
X005110Y018767D01*
X005213Y018865D02*
X008795Y018865D01*
X008895Y018964D02*
X005292Y018964D01*
X005354Y019062D02*
X008995Y019062D01*
X009095Y019161D02*
X005402Y019161D01*
X005439Y019259D02*
X009195Y019259D01*
X009295Y019358D02*
X005466Y019358D01*
X005484Y019456D02*
X009395Y019456D01*
X009664Y018964D02*
X013474Y018964D01*
X013572Y018865D02*
X009564Y018865D01*
X009464Y018767D02*
X036717Y018767D01*
X036717Y018865D02*
X014751Y018865D01*
X014850Y018964D02*
X036717Y018964D01*
X036717Y018973D02*
X036717Y018543D01*
X037002Y018258D01*
X036717Y017973D01*
X036717Y017543D01*
X037021Y017238D01*
X037452Y017238D01*
X037756Y017543D01*
X037756Y017973D01*
X037472Y018258D01*
X037756Y018543D01*
X037756Y018973D01*
X037472Y019258D01*
X037756Y019543D01*
X037756Y019973D01*
X037452Y020278D01*
X037021Y020278D01*
X036717Y019973D01*
X036717Y019543D01*
X037002Y019258D01*
X036717Y018973D01*
X036806Y019062D02*
X014907Y019062D01*
X014947Y019161D02*
X036904Y019161D01*
X037000Y019259D02*
X020514Y019259D01*
X020486Y019243D02*
X020737Y019388D01*
X020942Y019593D01*
X021087Y019844D01*
X021162Y020123D01*
X021162Y020413D01*
X021087Y020693D01*
X020942Y020944D01*
X020737Y021148D01*
X020486Y021293D01*
X020207Y021368D01*
X019917Y021368D01*
X019637Y021293D01*
X019386Y021148D01*
X019182Y020944D01*
X019037Y020693D01*
X018962Y020413D01*
X018962Y020123D01*
X019037Y019844D01*
X019182Y019593D01*
X019386Y019388D01*
X019637Y019243D01*
X019917Y019168D01*
X020207Y019168D01*
X020486Y019243D01*
X020685Y019358D02*
X036902Y019358D01*
X036803Y019456D02*
X020805Y019456D01*
X020904Y019555D02*
X036717Y019555D01*
X036717Y019653D02*
X020977Y019653D01*
X021034Y019752D02*
X036717Y019752D01*
X036717Y019850D02*
X021089Y019850D01*
X021115Y019949D02*
X036717Y019949D01*
X036791Y020047D02*
X021141Y020047D01*
X021162Y020146D02*
X036889Y020146D01*
X036988Y020244D02*
X021162Y020244D01*
X021162Y020343D02*
X037760Y020343D01*
X037760Y020441D02*
X021154Y020441D01*
X021128Y020540D02*
X037760Y020540D01*
X037760Y020638D02*
X021101Y020638D01*
X021062Y020737D02*
X037760Y020737D01*
X037760Y020835D02*
X021005Y020835D01*
X020948Y020934D02*
X037760Y020934D01*
X037760Y021032D02*
X020854Y021032D01*
X020755Y021131D02*
X037760Y021131D01*
X037760Y021229D02*
X020597Y021229D01*
X020358Y021328D02*
X037760Y021328D01*
X037760Y021426D02*
X014927Y021426D01*
X014952Y021366D02*
X014877Y021546D01*
X014739Y021683D01*
X014559Y021758D01*
X013764Y021758D01*
X013584Y021683D01*
X013447Y021546D01*
X013443Y021538D01*
X011284Y021538D01*
X010419Y022389D01*
X010382Y022426D01*
X010380Y022426D01*
X010380Y022427D01*
X010331Y022447D01*
X010282Y022467D01*
X010281Y022467D01*
X010280Y022467D01*
X010228Y022467D01*
X008997Y022467D01*
X008982Y022503D01*
X008830Y022655D01*
X008631Y022737D01*
X008417Y022737D01*
X008218Y022655D01*
X008066Y022503D01*
X008024Y022401D01*
X008024Y022404D01*
X007731Y022697D01*
X007554Y022697D01*
X007554Y022227D01*
X007494Y022227D01*
X007494Y022167D01*
X007554Y022167D01*
X007554Y021697D01*
X007731Y021697D01*
X008024Y021990D01*
X008024Y021994D01*
X008066Y021891D01*
X008218Y021740D01*
X008417Y021657D01*
X008631Y021657D01*
X008830Y021740D01*
X008982Y021891D01*
X008997Y021927D01*
X010118Y021927D01*
X010984Y021077D01*
X011021Y021039D01*
X011022Y021039D01*
X011023Y021038D01*
X011071Y021018D01*
X011120Y020998D01*
X011121Y020998D01*
X011122Y020998D01*
X011175Y020998D01*
X012963Y020998D01*
X012653Y020689D01*
X012512Y020830D01*
X012303Y020917D01*
X012076Y020917D01*
X011867Y020830D01*
X011706Y020670D01*
X011620Y020460D01*
X011620Y020234D01*
X011706Y020024D01*
X011867Y019864D01*
X012076Y019777D01*
X012303Y019777D01*
X012512Y019864D01*
X012672Y020024D01*
X012694Y020077D01*
X012747Y020077D01*
X012846Y020118D01*
X013583Y020855D01*
X013584Y020853D01*
X013764Y020778D01*
X014559Y020778D01*
X014739Y020853D01*
X014877Y020991D01*
X014952Y021171D01*
X014952Y021366D01*
X014952Y021328D02*
X019766Y021328D01*
X019526Y021229D02*
X014952Y021229D01*
X014935Y021131D02*
X019369Y021131D01*
X019270Y021032D02*
X014894Y021032D01*
X014820Y020934D02*
X019176Y020934D01*
X019119Y020835D02*
X014696Y020835D01*
X014635Y020685D02*
X014567Y020707D01*
X014497Y020718D01*
X014212Y020718D01*
X014212Y020318D01*
X014909Y020318D01*
X014901Y020373D01*
X014879Y020441D01*
X014847Y020504D01*
X014805Y020561D01*
X014755Y020611D01*
X014698Y020653D01*
X014635Y020685D01*
X014718Y020638D02*
X019022Y020638D01*
X018996Y020540D02*
X014821Y020540D01*
X014879Y020441D02*
X018969Y020441D01*
X018962Y020343D02*
X014906Y020343D01*
X014909Y020218D02*
X014212Y020218D01*
X014212Y020318D01*
X014112Y020318D01*
X014112Y020718D01*
X013826Y020718D01*
X013756Y020707D01*
X013689Y020685D01*
X013626Y020653D01*
X013569Y020611D01*
X013519Y020561D01*
X013477Y020504D01*
X013445Y020441D01*
X013169Y020441D01*
X013071Y020343D02*
X013418Y020343D01*
X013414Y020318D02*
X014112Y020318D01*
X014112Y020218D01*
X014212Y020218D01*
X014212Y019818D01*
X014497Y019818D01*
X014567Y019829D01*
X014635Y019851D01*
X014698Y019883D01*
X014755Y019925D01*
X014805Y019975D01*
X014847Y020032D01*
X014879Y020095D01*
X014901Y020163D01*
X014909Y020218D01*
X014895Y020146D02*
X018962Y020146D01*
X018962Y020244D02*
X014212Y020244D01*
X014212Y020146D02*
X014112Y020146D01*
X014112Y020218D02*
X014112Y019818D01*
X013826Y019818D01*
X013756Y019829D01*
X013689Y019851D01*
X013626Y019883D01*
X013569Y019925D01*
X013519Y019975D01*
X013477Y020032D01*
X013445Y020095D01*
X013423Y020163D01*
X013414Y020218D01*
X014112Y020218D01*
X014112Y020244D02*
X012972Y020244D01*
X012874Y020146D02*
X013428Y020146D01*
X013469Y020047D02*
X012682Y020047D01*
X012597Y019949D02*
X013545Y019949D01*
X013692Y019850D02*
X012479Y019850D01*
X011900Y019850D02*
X008479Y019850D01*
X008512Y019864D02*
X008672Y020024D01*
X008759Y020234D01*
X008759Y020460D01*
X008672Y020670D01*
X008512Y020830D01*
X008303Y020917D01*
X008076Y020917D01*
X007867Y020830D01*
X007706Y020670D01*
X007684Y020617D01*
X006793Y020617D01*
X006549Y020860D01*
X006636Y021011D01*
X006714Y021300D01*
X006714Y021599D01*
X006636Y021887D01*
X006487Y022146D01*
X006276Y022357D01*
X006017Y022507D01*
X005729Y022584D01*
X005430Y022584D01*
X005141Y022507D01*
X004882Y022357D01*
X004671Y022146D01*
X004522Y021887D01*
X004444Y021599D01*
X004444Y021300D01*
X004522Y021011D01*
X004671Y020753D01*
X004809Y020615D01*
X004702Y020653D01*
X004582Y020680D01*
X004460Y020694D01*
X004448Y020694D01*
X004448Y019649D01*
X005493Y019649D01*
X005493Y019660D01*
X005479Y019783D01*
X005452Y019902D01*
X005411Y020018D01*
X005358Y020129D01*
X005292Y020233D01*
X005216Y020330D01*
X005158Y020387D01*
X005430Y020315D01*
X005729Y020315D01*
X006017Y020392D01*
X006168Y020479D01*
X006529Y020118D01*
X006628Y020077D01*
X007684Y020077D01*
X007706Y020024D01*
X007867Y019864D01*
X008076Y019777D01*
X008303Y019777D01*
X008512Y019864D01*
X008597Y019949D02*
X011782Y019949D01*
X011697Y020047D02*
X008682Y020047D01*
X008723Y020146D02*
X011656Y020146D01*
X011620Y020244D02*
X008759Y020244D01*
X008759Y020343D02*
X011620Y020343D01*
X011620Y020441D02*
X008759Y020441D01*
X008726Y020540D02*
X011652Y020540D01*
X011693Y020638D02*
X008685Y020638D01*
X008605Y020737D02*
X011773Y020737D01*
X011879Y020835D02*
X008500Y020835D01*
X007879Y020835D02*
X006575Y020835D01*
X006592Y020934D02*
X012899Y020934D01*
X012800Y020835D02*
X012500Y020835D01*
X012605Y020737D02*
X012702Y020737D01*
X013268Y020540D02*
X013503Y020540D01*
X013445Y020441D02*
X013423Y020373D01*
X013414Y020318D01*
X013366Y020638D02*
X013605Y020638D01*
X013465Y020737D02*
X019062Y020737D01*
X018982Y020047D02*
X014854Y020047D01*
X014779Y019949D02*
X019009Y019949D01*
X019035Y019850D02*
X014631Y019850D01*
X014574Y019752D02*
X019090Y019752D01*
X019147Y019653D02*
X014770Y019653D01*
X014868Y019555D02*
X019220Y019555D01*
X019318Y019456D02*
X014914Y019456D01*
X014952Y019358D02*
X019439Y019358D01*
X019610Y019259D02*
X014952Y019259D01*
X014212Y019850D02*
X014112Y019850D01*
X014112Y019949D02*
X014212Y019949D01*
X014212Y020047D02*
X014112Y020047D01*
X014112Y020343D02*
X014212Y020343D01*
X014212Y020441D02*
X014112Y020441D01*
X014112Y020540D02*
X014212Y020540D01*
X014212Y020638D02*
X014112Y020638D01*
X013627Y020835D02*
X013563Y020835D01*
X013524Y021623D02*
X011197Y021623D01*
X011097Y021722D02*
X013677Y021722D01*
X014647Y021722D02*
X037760Y021722D01*
X037760Y021820D02*
X010997Y021820D01*
X010897Y021919D02*
X037760Y021919D01*
X037760Y022017D02*
X010797Y022017D01*
X010697Y022116D02*
X037760Y022116D01*
X037760Y022214D02*
X010596Y022214D01*
X010496Y022313D02*
X037760Y022313D01*
X037760Y022411D02*
X010396Y022411D01*
X010127Y021919D02*
X008993Y021919D01*
X008910Y021820D02*
X010228Y021820D01*
X010328Y021722D02*
X008786Y021722D01*
X008262Y021722D02*
X007755Y021722D01*
X007854Y021820D02*
X008138Y021820D01*
X008055Y021919D02*
X007952Y021919D01*
X007554Y021919D02*
X007494Y021919D01*
X007494Y022017D02*
X007554Y022017D01*
X007554Y022116D02*
X007494Y022116D01*
X007494Y022167D02*
X007494Y021697D01*
X007317Y021697D01*
X007024Y021990D01*
X007024Y022167D01*
X007494Y022167D01*
X007494Y022214D02*
X006419Y022214D01*
X006505Y022116D02*
X007024Y022116D01*
X007024Y022017D02*
X006561Y022017D01*
X006618Y021919D02*
X007096Y021919D01*
X007194Y021820D02*
X006654Y021820D01*
X006681Y021722D02*
X007293Y021722D01*
X007494Y021722D02*
X007554Y021722D01*
X007554Y021820D02*
X007494Y021820D01*
X007494Y022227D02*
X007024Y022227D01*
X007024Y022404D01*
X007317Y022697D01*
X007494Y022697D01*
X007494Y022227D01*
X007494Y022313D02*
X007554Y022313D01*
X007554Y022411D02*
X007494Y022411D01*
X007494Y022510D02*
X007554Y022510D01*
X007554Y022608D02*
X007494Y022608D01*
X007228Y022608D02*
X000650Y022608D01*
X000650Y022510D02*
X002982Y022510D01*
X002953Y022503D02*
X002837Y022462D01*
X002726Y022409D01*
X002622Y022344D01*
X002526Y022267D01*
X002439Y022180D01*
X002362Y022084D01*
X002297Y021980D01*
X002243Y021869D01*
X002203Y021753D01*
X002175Y021633D01*
X002161Y021511D01*
X002161Y021499D01*
X003206Y021499D01*
X003206Y021399D01*
X002161Y021399D01*
X002161Y021388D01*
X002175Y021266D01*
X002203Y021146D01*
X002243Y021030D01*
X002297Y020919D01*
X002362Y020815D01*
X002439Y020718D01*
X002526Y020632D01*
X002622Y020555D01*
X002726Y020489D01*
X002837Y020436D01*
X002953Y020395D01*
X003073Y020368D01*
X003195Y020354D01*
X003206Y020354D01*
X003206Y021399D01*
X003306Y021399D01*
X003306Y021499D01*
X003206Y021499D01*
X003206Y022544D01*
X003195Y022544D01*
X003073Y022530D01*
X002953Y022503D01*
X002730Y022411D02*
X000650Y022411D01*
X000650Y022313D02*
X002583Y022313D01*
X002473Y022214D02*
X000650Y022214D01*
X000650Y022116D02*
X002387Y022116D01*
X002320Y022017D02*
X000650Y022017D01*
X000650Y021919D02*
X002267Y021919D01*
X002226Y021820D02*
X000650Y021820D01*
X000650Y021722D02*
X002195Y021722D01*
X002174Y021623D02*
X000650Y021623D01*
X000650Y021525D02*
X002163Y021525D01*
X002168Y021328D02*
X000650Y021328D01*
X000650Y021426D02*
X003206Y021426D01*
X003206Y021328D02*
X003306Y021328D01*
X003306Y021426D02*
X004444Y021426D01*
X004444Y021328D02*
X004344Y021328D01*
X004329Y021229D02*
X004463Y021229D01*
X004490Y021131D02*
X004305Y021131D01*
X004270Y021032D02*
X004516Y021032D01*
X004567Y020934D02*
X004223Y020934D01*
X004163Y020835D02*
X004624Y020835D01*
X004687Y020737D02*
X004088Y020737D01*
X004053Y020638D02*
X003994Y020638D01*
X004348Y020638D02*
X004448Y020638D01*
X004448Y020540D02*
X004348Y020540D01*
X004348Y020441D02*
X004448Y020441D01*
X004448Y020343D02*
X004348Y020343D01*
X004348Y020244D02*
X004448Y020244D01*
X004448Y020146D02*
X004348Y020146D01*
X004348Y020047D02*
X004448Y020047D01*
X004448Y019949D02*
X004348Y019949D01*
X004348Y019850D02*
X004448Y019850D01*
X004448Y019752D02*
X004348Y019752D01*
X004348Y019653D02*
X004448Y019653D01*
X004448Y019555D02*
X013456Y019555D01*
X013554Y019653D02*
X005493Y019653D01*
X005483Y019752D02*
X013749Y019752D01*
X014886Y021525D02*
X037760Y021525D01*
X037760Y021623D02*
X014799Y021623D01*
X014897Y023298D02*
X037760Y023298D01*
X037760Y023396D02*
X015060Y023396D01*
X015143Y023495D02*
X037760Y023495D01*
X037760Y023593D02*
X015208Y023593D01*
X015282Y023692D02*
X037760Y023692D01*
X037760Y023790D02*
X015355Y023790D01*
X015429Y023889D02*
X037760Y023889D01*
X037760Y023987D02*
X015503Y023987D01*
X015577Y024086D02*
X037760Y024086D01*
X037760Y024184D02*
X015651Y024184D01*
X015725Y024283D02*
X037760Y024283D01*
X037760Y024381D02*
X015799Y024381D01*
X015873Y024480D02*
X037760Y024480D01*
X037760Y024578D02*
X015946Y024578D01*
X016020Y024677D02*
X037760Y024677D01*
X037760Y024775D02*
X016094Y024775D01*
X016168Y024874D02*
X037760Y024874D01*
X037760Y024972D02*
X016242Y024972D01*
X016316Y025071D02*
X037760Y025071D01*
X037760Y025169D02*
X016390Y025169D01*
X016464Y025268D02*
X037760Y025268D01*
X037760Y025366D02*
X016537Y025366D01*
X016611Y025465D02*
X037760Y025465D01*
X037760Y025563D02*
X016685Y025563D01*
X016759Y025662D02*
X037760Y025662D01*
X037760Y025760D02*
X016833Y025760D01*
X016907Y025859D02*
X037760Y025859D01*
X037760Y025957D02*
X016981Y025957D01*
X017055Y026056D02*
X037760Y026056D01*
X037760Y026154D02*
X017128Y026154D01*
X017202Y026253D02*
X037760Y026253D01*
X037760Y026351D02*
X017276Y026351D01*
X010428Y021623D02*
X006707Y021623D01*
X006714Y021525D02*
X010528Y021525D01*
X010628Y021426D02*
X006714Y021426D01*
X006714Y021328D02*
X010728Y021328D01*
X010829Y021229D02*
X006695Y021229D01*
X006668Y021131D02*
X010929Y021131D01*
X011038Y021032D02*
X006642Y021032D01*
X006673Y020737D02*
X007773Y020737D01*
X007693Y020638D02*
X006772Y020638D01*
X006403Y020244D02*
X005284Y020244D01*
X005325Y020343D02*
X005203Y020343D01*
X005348Y020146D02*
X006501Y020146D01*
X006304Y020343D02*
X005833Y020343D01*
X006102Y020441D02*
X006206Y020441D01*
X005397Y020047D02*
X007697Y020047D01*
X007782Y019949D02*
X005436Y019949D01*
X005464Y019850D02*
X007900Y019850D01*
X009264Y018570D02*
X036717Y018570D01*
X036717Y018668D02*
X009364Y018668D01*
X009164Y018471D02*
X036788Y018471D01*
X036887Y018373D02*
X009064Y018373D01*
X009064Y018274D02*
X036985Y018274D01*
X036919Y018176D02*
X009064Y018176D01*
X009032Y018077D02*
X036821Y018077D01*
X036722Y017979D02*
X008992Y017979D01*
X008907Y017880D02*
X036717Y017880D01*
X036717Y017782D02*
X008805Y017782D01*
X008805Y017683D02*
X036717Y017683D01*
X036717Y017585D02*
X008891Y017585D01*
X008990Y017486D02*
X036773Y017486D01*
X036872Y017388D02*
X009088Y017388D01*
X009187Y017289D02*
X036970Y017289D01*
X037038Y017238D02*
X036757Y016957D01*
X036757Y016806D01*
X037188Y016806D01*
X037188Y016709D01*
X037285Y016709D01*
X037285Y016278D01*
X037435Y016278D01*
X037717Y016559D01*
X037717Y016709D01*
X037285Y016709D01*
X037285Y016806D01*
X037717Y016806D01*
X037717Y016957D01*
X037435Y017238D01*
X037285Y017238D01*
X037285Y016806D01*
X037188Y016806D01*
X037188Y017238D01*
X037038Y017238D01*
X036990Y017191D02*
X009285Y017191D01*
X009384Y017092D02*
X036892Y017092D01*
X036793Y016994D02*
X009482Y016994D01*
X009581Y016895D02*
X016220Y016895D01*
X016205Y016889D02*
X016017Y016701D01*
X015933Y016736D01*
X015706Y016736D01*
X015497Y016649D01*
X015336Y016488D01*
X015250Y016279D01*
X015250Y016052D01*
X015336Y015843D01*
X015497Y015683D01*
X015538Y015666D01*
X015497Y015649D01*
X015336Y015488D01*
X015250Y015279D01*
X015250Y015052D01*
X015336Y014843D01*
X015497Y014683D01*
X015538Y014666D01*
X015497Y014649D01*
X015336Y014488D01*
X015250Y014279D01*
X015250Y014052D01*
X015336Y013843D01*
X015497Y013683D01*
X015538Y013666D01*
X015497Y013649D01*
X015336Y013488D01*
X015250Y013279D01*
X015250Y013052D01*
X015336Y012843D01*
X015497Y012683D01*
X015590Y012644D01*
X015542Y012619D01*
X015474Y012570D01*
X015415Y012511D01*
X015366Y012444D01*
X015328Y012369D01*
X015302Y012290D01*
X015290Y012214D01*
X015771Y012214D01*
X015771Y012117D01*
X015868Y012117D01*
X015868Y012214D01*
X016348Y012214D01*
X016336Y012290D01*
X016310Y012369D01*
X016273Y012444D01*
X016224Y012511D01*
X016165Y012570D01*
X016097Y012619D01*
X016048Y012644D01*
X016142Y012683D01*
X016302Y012843D01*
X016327Y012902D01*
X017127Y012902D01*
X017717Y012313D01*
X017717Y011943D01*
X018021Y011638D01*
X018441Y011638D01*
X018562Y011517D01*
X018562Y011511D01*
X018435Y011638D01*
X018285Y011638D01*
X018285Y011206D01*
X018188Y011206D01*
X018188Y011109D01*
X018285Y011109D01*
X018285Y010678D01*
X018435Y010678D01*
X018562Y010804D01*
X018562Y010511D01*
X018435Y010638D01*
X018285Y010638D01*
X018285Y010206D01*
X018188Y010206D01*
X018188Y010109D01*
X018285Y010109D01*
X018285Y009766D01*
X018197Y009678D01*
X018021Y009678D01*
X017717Y009373D01*
X017717Y008943D01*
X018021Y008638D01*
X018452Y008638D01*
X018756Y008943D01*
X018756Y009373D01*
X018663Y009466D01*
X018937Y009740D01*
X019005Y009807D01*
X019041Y009896D01*
X019041Y011664D01*
X019005Y011752D01*
X018937Y011820D01*
X018756Y012001D01*
X018756Y012373D01*
X018472Y012658D01*
X018756Y012943D01*
X018756Y013373D01*
X018472Y013658D01*
X018756Y013943D01*
X018756Y014373D01*
X018472Y014658D01*
X018756Y014943D01*
X018756Y015373D01*
X018472Y015658D01*
X018756Y015943D01*
X018756Y016047D01*
X019207Y015596D01*
X019295Y015560D01*
X036717Y015560D01*
X036717Y015543D01*
X037002Y015258D01*
X036717Y014973D01*
X036717Y014543D01*
X037002Y014258D01*
X036717Y013973D01*
X036717Y013543D01*
X037002Y013258D01*
X036717Y012973D01*
X036717Y012543D01*
X037002Y012258D01*
X036717Y011973D01*
X036717Y011543D01*
X037002Y011258D01*
X036717Y010973D01*
X036717Y010543D01*
X037021Y010238D01*
X037452Y010238D01*
X037756Y010543D01*
X037756Y010973D01*
X037472Y011258D01*
X037756Y011543D01*
X037756Y011973D01*
X037472Y012258D01*
X037756Y012543D01*
X037756Y012973D01*
X037472Y013258D01*
X037756Y013543D01*
X037756Y013973D01*
X037472Y014258D01*
X037756Y014543D01*
X037756Y014973D01*
X037472Y015258D01*
X037756Y015543D01*
X037756Y015973D01*
X037452Y016278D01*
X037021Y016278D01*
X036783Y016039D01*
X019442Y016039D01*
X018660Y016821D01*
X018593Y016889D01*
X018505Y016925D01*
X016293Y016925D01*
X016205Y016889D01*
X016113Y016797D02*
X009679Y016797D01*
X009778Y016698D02*
X015615Y016698D01*
X015447Y016600D02*
X009876Y016600D01*
X009975Y016501D02*
X015349Y016501D01*
X015301Y016403D02*
X010073Y016403D01*
X010172Y016304D02*
X015260Y016304D01*
X015250Y016206D02*
X010270Y016206D01*
X010369Y016107D02*
X015250Y016107D01*
X015268Y016009D02*
X010467Y016009D01*
X010566Y015910D02*
X015309Y015910D01*
X015368Y015812D02*
X010664Y015812D01*
X010763Y015713D02*
X015466Y015713D01*
X015462Y015615D02*
X010861Y015615D01*
X010960Y015516D02*
X015364Y015516D01*
X015307Y015418D02*
X011058Y015418D01*
X011157Y015319D02*
X015266Y015319D01*
X015250Y015221D02*
X011255Y015221D01*
X011354Y015122D02*
X015250Y015122D01*
X015261Y015024D02*
X011452Y015024D01*
X011551Y014925D02*
X015302Y014925D01*
X015353Y014827D02*
X011649Y014827D01*
X011748Y014728D02*
X015451Y014728D01*
X015477Y014630D02*
X011846Y014630D01*
X011945Y014531D02*
X015379Y014531D01*
X015313Y014433D02*
X012043Y014433D01*
X012142Y014334D02*
X015272Y014334D01*
X015250Y014236D02*
X012240Y014236D01*
X012339Y014137D02*
X015250Y014137D01*
X015255Y014039D02*
X012437Y014039D01*
X012536Y013940D02*
X015296Y013940D01*
X015338Y013842D02*
X012634Y013842D01*
X012733Y013743D02*
X015436Y013743D01*
X015492Y013645D02*
X012831Y013645D01*
X012930Y013546D02*
X015394Y013546D01*
X015319Y013448D02*
X013028Y013448D01*
X013127Y013349D02*
X015279Y013349D01*
X015250Y013251D02*
X013225Y013251D01*
X013324Y013152D02*
X015250Y013152D01*
X015250Y013054D02*
X013422Y013054D01*
X013521Y012955D02*
X015290Y012955D01*
X015331Y012857D02*
X013619Y012857D01*
X013718Y012758D02*
X015421Y012758D01*
X015553Y012660D02*
X013816Y012660D01*
X013915Y012561D02*
X015465Y012561D01*
X015380Y012463D02*
X014013Y012463D01*
X014112Y012364D02*
X015326Y012364D01*
X015298Y012266D02*
X014210Y012266D01*
X014309Y012167D02*
X015771Y012167D01*
X015819Y012166D02*
X014961Y013024D01*
X014599Y013024D01*
X013532Y012266D02*
X002216Y012266D01*
X002216Y012167D02*
X013631Y012167D01*
X013729Y012069D02*
X002209Y012069D01*
X002169Y011970D02*
X013828Y011970D01*
X013926Y011872D02*
X002126Y011872D01*
X002028Y011773D02*
X014025Y011773D01*
X014123Y011675D02*
X001975Y011675D01*
X002073Y011576D02*
X005119Y011576D01*
X005021Y011478D02*
X002147Y011478D01*
X001676Y011223D02*
X001646Y011197D01*
X001676Y011223D02*
X005317Y011223D01*
X005614Y011478D02*
X014320Y011478D01*
X014222Y011576D02*
X005515Y011576D01*
X005707Y011379D02*
X014419Y011379D01*
X014517Y011281D02*
X005707Y011281D01*
X005707Y011182D02*
X014616Y011182D01*
X014714Y011084D02*
X005707Y011084D01*
X005631Y010985D02*
X014813Y010985D01*
X014911Y010887D02*
X005532Y010887D01*
X005102Y010887D02*
X002134Y010887D01*
X002043Y010788D02*
X015010Y010788D01*
X015108Y010690D02*
X001909Y010690D01*
X002027Y010591D02*
X015207Y010591D01*
X015305Y010493D02*
X002125Y010493D01*
X002168Y010394D02*
X015304Y010394D01*
X015263Y010296D02*
X002209Y010296D01*
X002216Y010197D02*
X015250Y010197D01*
X015250Y010099D02*
X002216Y010099D01*
X002194Y010000D02*
X015265Y010000D01*
X015306Y009902D02*
X002153Y009902D01*
X002089Y009803D02*
X015360Y009803D01*
X015459Y009705D02*
X001991Y009705D01*
X002012Y009606D02*
X015470Y009606D01*
X015371Y009508D02*
X002110Y009508D01*
X002162Y009409D02*
X015310Y009409D01*
X015269Y009311D02*
X002203Y009311D01*
X002216Y009212D02*
X015250Y009212D01*
X015250Y009114D02*
X002216Y009114D01*
X002200Y009015D02*
X015258Y009015D01*
X015299Y008917D02*
X002160Y008917D01*
X002104Y008818D02*
X015346Y008818D01*
X015444Y008720D02*
X002006Y008720D01*
X001997Y008621D02*
X015485Y008621D01*
X015386Y008523D02*
X002095Y008523D01*
X002156Y008424D02*
X015316Y008424D01*
X015275Y008326D02*
X002197Y008326D01*
X002216Y008227D02*
X015250Y008227D01*
X015250Y008129D02*
X002216Y008129D01*
X002207Y008030D02*
X015252Y008030D01*
X015293Y007932D02*
X002166Y007932D01*
X002119Y007833D02*
X015334Y007833D01*
X015429Y007735D02*
X002021Y007735D01*
X001982Y007636D02*
X015504Y007636D01*
X015401Y007538D02*
X002080Y007538D01*
X002150Y007439D02*
X015322Y007439D01*
X015281Y007341D02*
X009254Y007341D01*
X009320Y007274D02*
X009320Y007274D01*
X009351Y007242D02*
X015250Y007242D01*
X015250Y007144D02*
X009449Y007144D01*
X009547Y007045D02*
X015250Y007045D01*
X015287Y006947D02*
X009645Y006947D01*
X009743Y006848D02*
X015328Y006848D01*
X015414Y006750D02*
X009840Y006750D01*
X009938Y006651D02*
X015535Y006651D01*
X015416Y006553D02*
X010036Y006553D01*
X010134Y006454D02*
X015329Y006454D01*
X015288Y006356D02*
X010231Y006356D01*
X010329Y006257D02*
X015250Y006257D01*
X015250Y006159D02*
X010427Y006159D01*
X010525Y006060D02*
X015250Y006060D01*
X015281Y005962D02*
X010623Y005962D01*
X010720Y005863D02*
X015321Y005863D01*
X015399Y005765D02*
X010818Y005765D01*
X010916Y005666D02*
X015499Y005666D01*
X015431Y005568D02*
X011014Y005568D01*
X011112Y005469D02*
X015335Y005469D01*
X015294Y005371D02*
X011209Y005371D01*
X011307Y005272D02*
X015253Y005272D01*
X015250Y005174D02*
X011405Y005174D01*
X011503Y005075D02*
X015250Y005075D01*
X015274Y004977D02*
X011601Y004977D01*
X011698Y004878D02*
X015315Y004878D01*
X015384Y004780D02*
X011796Y004780D01*
X011894Y004681D02*
X015483Y004681D01*
X015430Y004583D02*
X011992Y004583D01*
X012090Y004484D02*
X015334Y004484D01*
X015294Y004386D02*
X012187Y004386D01*
X012285Y004287D02*
X015253Y004287D01*
X015250Y004189D02*
X012383Y004189D01*
X012481Y004090D02*
X015250Y004090D01*
X015275Y003992D02*
X012579Y003992D01*
X012676Y003893D02*
X015316Y003893D01*
X015385Y003795D02*
X012774Y003795D01*
X012872Y003696D02*
X015483Y003696D01*
X015702Y003598D02*
X012970Y003598D01*
X013068Y003499D02*
X016147Y003499D01*
X016245Y003401D02*
X013165Y003401D01*
X013263Y003302D02*
X016344Y003302D01*
X016442Y003204D02*
X013361Y003204D01*
X013459Y003105D02*
X016541Y003105D01*
X016639Y003007D02*
X013557Y003007D01*
X013654Y002908D02*
X016738Y002908D01*
X016836Y002810D02*
X013752Y002810D01*
X013850Y002711D02*
X016935Y002711D01*
X017033Y002613D02*
X013948Y002613D01*
X014046Y002514D02*
X017132Y002514D01*
X017230Y002416D02*
X014143Y002416D01*
X014241Y002317D02*
X017329Y002317D01*
X017427Y002219D02*
X014339Y002219D01*
X014437Y002120D02*
X017526Y002120D01*
X017624Y002022D02*
X014535Y002022D01*
X014632Y001923D02*
X017736Y001923D01*
X017817Y002168D02*
X015819Y004166D01*
X016389Y004189D02*
X016442Y004189D01*
X016389Y004241D02*
X017632Y002998D01*
X017717Y002963D01*
X017717Y002943D01*
X018002Y002658D01*
X017834Y002490D01*
X016355Y003969D01*
X016389Y004052D01*
X016389Y004241D01*
X016389Y004090D02*
X016540Y004090D01*
X016639Y003992D02*
X016364Y003992D01*
X016431Y003893D02*
X016737Y003893D01*
X016836Y003795D02*
X016530Y003795D01*
X016628Y003696D02*
X016934Y003696D01*
X017033Y003598D02*
X016727Y003598D01*
X016825Y003499D02*
X017131Y003499D01*
X017230Y003401D02*
X016924Y003401D01*
X017022Y003302D02*
X017328Y003302D01*
X017427Y003204D02*
X017121Y003204D01*
X017219Y003105D02*
X017525Y003105D01*
X017624Y003007D02*
X017318Y003007D01*
X017416Y002908D02*
X017751Y002908D01*
X017850Y002810D02*
X017515Y002810D01*
X017613Y002711D02*
X017948Y002711D01*
X017956Y002613D02*
X017712Y002613D01*
X017810Y002514D02*
X017858Y002514D01*
X017817Y002168D02*
X018211Y002168D01*
X018237Y002158D01*
X018714Y002416D02*
X018907Y002416D01*
X019006Y002514D02*
X018616Y002514D01*
X018517Y002613D02*
X019104Y002613D01*
X019203Y002711D02*
X018525Y002711D01*
X018623Y002810D02*
X019301Y002810D01*
X019400Y002908D02*
X018722Y002908D01*
X018756Y003007D02*
X019498Y003007D01*
X019597Y003105D02*
X018756Y003105D01*
X018756Y003204D02*
X019695Y003204D01*
X019794Y003302D02*
X018756Y003302D01*
X018729Y003401D02*
X019892Y003401D01*
X019991Y003499D02*
X018631Y003499D01*
X018532Y003598D02*
X020089Y003598D01*
X020188Y003696D02*
X018510Y003696D01*
X018608Y003795D02*
X020286Y003795D01*
X020385Y003893D02*
X018707Y003893D01*
X018756Y003992D02*
X020483Y003992D01*
X020582Y004090D02*
X018756Y004090D01*
X018756Y004189D02*
X020680Y004189D01*
X020779Y004287D02*
X018756Y004287D01*
X018744Y004386D02*
X020877Y004386D01*
X020976Y004484D02*
X018646Y004484D01*
X018547Y004583D02*
X021074Y004583D01*
X021173Y004681D02*
X018495Y004681D01*
X018593Y004780D02*
X021271Y004780D01*
X021370Y004878D02*
X018692Y004878D01*
X018756Y004977D02*
X021468Y004977D01*
X021567Y005075D02*
X018756Y005075D01*
X018756Y005174D02*
X021665Y005174D01*
X021764Y005272D02*
X018756Y005272D01*
X018756Y005371D02*
X036717Y005371D01*
X036813Y005469D02*
X018661Y005469D01*
X018562Y005568D02*
X036911Y005568D01*
X036993Y005666D02*
X018480Y005666D01*
X018578Y005765D02*
X036895Y005765D01*
X036796Y005863D02*
X018677Y005863D01*
X018756Y005962D02*
X036717Y005962D01*
X036717Y006060D02*
X018756Y006060D01*
X018756Y006159D02*
X036717Y006159D01*
X036717Y006257D02*
X018756Y006257D01*
X018756Y006356D02*
X036717Y006356D01*
X036798Y006454D02*
X018676Y006454D01*
X018577Y006553D02*
X036896Y006553D01*
X036995Y006651D02*
X018479Y006651D01*
X018563Y006750D02*
X036910Y006750D01*
X036811Y006848D02*
X018662Y006848D01*
X018756Y006947D02*
X036717Y006947D01*
X036717Y007045D02*
X018756Y007045D01*
X018756Y007144D02*
X036717Y007144D01*
X036717Y007242D02*
X018756Y007242D01*
X018756Y007341D02*
X036717Y007341D01*
X036783Y007439D02*
X018691Y007439D01*
X018592Y007538D02*
X036881Y007538D01*
X036980Y007636D02*
X018494Y007636D01*
X017980Y007636D02*
X017659Y007636D01*
X017757Y007538D02*
X017881Y007538D01*
X017560Y007735D02*
X036925Y007735D01*
X036826Y007833D02*
X017462Y007833D01*
X017363Y007932D02*
X036728Y007932D01*
X036717Y008030D02*
X017265Y008030D01*
X017166Y008129D02*
X036717Y008129D01*
X036717Y008227D02*
X017068Y008227D01*
X016969Y008326D02*
X036717Y008326D01*
X036768Y008424D02*
X016871Y008424D01*
X016772Y008523D02*
X036866Y008523D01*
X036965Y008621D02*
X016674Y008621D01*
X016575Y008720D02*
X017940Y008720D01*
X017841Y008818D02*
X016477Y008818D01*
X016378Y008917D02*
X017743Y008917D01*
X017717Y009015D02*
X016380Y009015D01*
X016389Y009114D02*
X017717Y009114D01*
X017717Y009212D02*
X016389Y009212D01*
X016370Y009311D02*
X017717Y009311D01*
X017753Y009409D02*
X016329Y009409D01*
X016268Y009508D02*
X017851Y009508D01*
X017950Y009606D02*
X016169Y009606D01*
X016180Y009705D02*
X018011Y009705D01*
X018038Y009678D02*
X018188Y009678D01*
X018188Y010109D01*
X017757Y010109D01*
X017757Y009959D01*
X018038Y009678D01*
X018188Y009705D02*
X018224Y009705D01*
X018188Y009803D02*
X018285Y009803D01*
X018285Y009902D02*
X018188Y009902D01*
X018188Y010000D02*
X018285Y010000D01*
X018285Y010099D02*
X018188Y010099D01*
X018244Y010150D02*
X018237Y010158D01*
X018244Y010150D02*
X020465Y010150D01*
X022079Y008536D01*
X019000Y009803D02*
X037760Y009803D01*
X037760Y009705D02*
X018902Y009705D01*
X018803Y009606D02*
X036950Y009606D01*
X036851Y009508D02*
X026186Y009508D01*
X025937Y009205D02*
X037207Y009205D01*
X037237Y009158D01*
X037622Y009508D02*
X037760Y009508D01*
X037760Y009606D02*
X037524Y009606D01*
X037721Y009409D02*
X037760Y009409D01*
X037756Y009311D02*
X037760Y009311D01*
X037756Y009212D02*
X037760Y009212D01*
X037756Y009114D02*
X037760Y009114D01*
X037756Y009015D02*
X037760Y009015D01*
X037760Y008917D02*
X037730Y008917D01*
X037760Y008818D02*
X037632Y008818D01*
X037533Y008720D02*
X037760Y008720D01*
X037760Y008621D02*
X037509Y008621D01*
X037607Y008523D02*
X037760Y008523D01*
X037760Y008424D02*
X037706Y008424D01*
X037756Y008326D02*
X037760Y008326D01*
X037756Y008227D02*
X037760Y008227D01*
X037756Y008129D02*
X037760Y008129D01*
X037756Y008030D02*
X037760Y008030D01*
X037760Y007932D02*
X037745Y007932D01*
X037760Y007833D02*
X037647Y007833D01*
X037548Y007735D02*
X037760Y007735D01*
X037760Y007636D02*
X037494Y007636D01*
X037592Y007538D02*
X037760Y007538D01*
X037760Y007439D02*
X037691Y007439D01*
X037756Y007341D02*
X037760Y007341D01*
X037756Y007242D02*
X037760Y007242D01*
X037756Y007144D02*
X037760Y007144D01*
X037756Y007045D02*
X037760Y007045D01*
X037756Y006947D02*
X037760Y006947D01*
X037760Y006848D02*
X037662Y006848D01*
X037760Y006750D02*
X037563Y006750D01*
X037479Y006651D02*
X037760Y006651D01*
X037760Y006553D02*
X037577Y006553D01*
X037676Y006454D02*
X037760Y006454D01*
X037756Y006356D02*
X037760Y006356D01*
X037756Y006257D02*
X037760Y006257D01*
X037756Y006159D02*
X037760Y006159D01*
X037756Y006060D02*
X037760Y006060D01*
X037756Y005962D02*
X037760Y005962D01*
X037760Y005863D02*
X037677Y005863D01*
X037760Y005765D02*
X037578Y005765D01*
X037480Y005666D02*
X037760Y005666D01*
X037760Y005568D02*
X037562Y005568D01*
X037661Y005469D02*
X037760Y005469D01*
X037756Y005371D02*
X037760Y005371D01*
X037756Y005272D02*
X037760Y005272D01*
X037756Y005174D02*
X037760Y005174D01*
X037756Y005075D02*
X037760Y005075D01*
X037756Y004977D02*
X037760Y004977D01*
X037760Y004878D02*
X037692Y004878D01*
X037760Y004780D02*
X037593Y004780D01*
X037495Y004681D02*
X037760Y004681D01*
X037760Y004583D02*
X037547Y004583D01*
X037646Y004484D02*
X037760Y004484D01*
X037760Y004386D02*
X037744Y004386D01*
X037756Y004287D02*
X037760Y004287D01*
X037756Y004189D02*
X037760Y004189D01*
X037756Y004090D02*
X037760Y004090D01*
X037756Y003992D02*
X037760Y003992D01*
X037760Y003893D02*
X037707Y003893D01*
X037760Y003795D02*
X037608Y003795D01*
X037510Y003696D02*
X037760Y003696D01*
X037760Y003598D02*
X037532Y003598D01*
X037631Y003499D02*
X037760Y003499D01*
X037760Y003401D02*
X037729Y003401D01*
X037756Y003302D02*
X037760Y003302D01*
X037756Y003204D02*
X037760Y003204D01*
X037756Y003105D02*
X037760Y003105D01*
X037756Y003007D02*
X037760Y003007D01*
X037760Y002908D02*
X037722Y002908D01*
X037760Y002810D02*
X037623Y002810D01*
X037525Y002711D02*
X037760Y002711D01*
X037760Y002613D02*
X037517Y002613D01*
X037616Y002514D02*
X037760Y002514D01*
X037760Y002416D02*
X037714Y002416D01*
X037756Y002317D02*
X037760Y002317D01*
X037756Y002219D02*
X037760Y002219D01*
X037756Y002120D02*
X037760Y002120D01*
X037756Y002022D02*
X037760Y002022D01*
X037760Y001923D02*
X037737Y001923D01*
X037760Y001825D02*
X037638Y001825D01*
X037540Y001726D02*
X037760Y001726D01*
X037760Y001628D02*
X029725Y001628D01*
X029776Y001726D02*
X036933Y001726D01*
X036835Y001825D02*
X029776Y001825D01*
X029776Y001923D02*
X036736Y001923D01*
X037207Y002168D02*
X037237Y002158D01*
X037207Y002168D02*
X035760Y002168D01*
X034284Y003644D01*
X021508Y003644D01*
X018752Y000888D01*
X008073Y000888D01*
X004825Y004136D01*
X001676Y004136D01*
X001646Y004166D01*
X002172Y004386D02*
X004581Y004386D01*
X004591Y004376D02*
X004086Y004881D01*
X002145Y004881D01*
X002129Y004843D01*
X001969Y004683D01*
X001928Y004666D01*
X001969Y004649D01*
X002129Y004488D01*
X002176Y004376D01*
X004591Y004376D01*
X004483Y004484D02*
X002131Y004484D01*
X002035Y004583D02*
X004384Y004583D01*
X004286Y004681D02*
X001965Y004681D01*
X002066Y004780D02*
X004187Y004780D01*
X004089Y004878D02*
X002144Y004878D01*
X001676Y005120D02*
X001646Y005166D01*
X001676Y005120D02*
X004185Y005120D01*
X008172Y001134D01*
X018654Y001134D01*
X021420Y003900D01*
X035583Y003890D01*
X036321Y003152D01*
X037207Y003152D01*
X037237Y003158D01*
X036850Y002810D02*
X035458Y002810D01*
X035359Y002908D02*
X036751Y002908D01*
X036747Y002912D02*
X037002Y002658D01*
X036751Y002407D01*
X035860Y002407D01*
X034616Y003651D01*
X035484Y003650D01*
X036118Y003016D01*
X036185Y002949D01*
X036274Y002912D01*
X036747Y002912D01*
X036948Y002711D02*
X035556Y002711D01*
X035655Y002613D02*
X036956Y002613D01*
X036858Y002514D02*
X035753Y002514D01*
X035852Y002416D02*
X036759Y002416D01*
X036128Y003007D02*
X035261Y003007D01*
X035162Y003105D02*
X036029Y003105D01*
X035931Y003204D02*
X035064Y003204D01*
X034965Y003302D02*
X035832Y003302D01*
X035734Y003401D02*
X034867Y003401D01*
X034768Y003499D02*
X035635Y003499D01*
X035537Y003598D02*
X034670Y003598D01*
X034287Y003302D02*
X022624Y003302D01*
X022624Y003204D02*
X034385Y003204D01*
X034484Y003105D02*
X022624Y003105D01*
X022624Y003007D02*
X034582Y003007D01*
X034681Y002908D02*
X022551Y002908D01*
X022476Y002810D02*
X034779Y002810D01*
X034878Y002711D02*
X022476Y002711D01*
X022476Y002613D02*
X026978Y002613D01*
X026879Y002514D02*
X022476Y002514D01*
X022476Y002416D02*
X026781Y002416D01*
X026697Y002317D02*
X022476Y002317D01*
X022476Y002219D02*
X026697Y002219D01*
X026697Y002120D02*
X022535Y002120D01*
X022633Y002022D02*
X026697Y002022D01*
X026697Y001923D02*
X022732Y001923D01*
X022830Y001825D02*
X026757Y001825D01*
X026855Y001726D02*
X022929Y001726D01*
X023027Y001628D02*
X026954Y001628D01*
X026951Y001529D02*
X023126Y001529D01*
X023224Y001431D02*
X026852Y001431D01*
X026754Y001332D02*
X023323Y001332D01*
X023421Y001234D02*
X026737Y001234D01*
X026737Y001037D02*
X023618Y001037D01*
X023520Y001135D02*
X027188Y001135D01*
X027237Y001108D02*
X026121Y001108D01*
X024048Y003181D01*
X022527Y003401D02*
X034188Y003401D01*
X034976Y002613D02*
X029700Y002613D01*
X029776Y002514D02*
X035075Y002514D01*
X035173Y002416D02*
X029776Y002416D01*
X029776Y002317D02*
X035272Y002317D01*
X035370Y002219D02*
X029776Y002219D01*
X029776Y002120D02*
X035469Y002120D01*
X035567Y002022D02*
X029776Y002022D01*
X029579Y001529D02*
X037760Y001529D01*
X037760Y001431D02*
X029677Y001431D01*
X029776Y001332D02*
X037760Y001332D01*
X037760Y001234D02*
X029776Y001234D01*
X029776Y001135D02*
X034339Y001135D01*
X034240Y001037D02*
X029776Y001037D01*
X029776Y000938D02*
X034173Y000938D01*
X034173Y000840D02*
X029732Y000840D01*
X029633Y000741D02*
X034192Y000741D01*
X034663Y001135D02*
X034707Y001135D01*
X035091Y001213D02*
X035091Y001213D01*
X035261Y001213D02*
X035261Y001213D01*
X035459Y001213D02*
X035459Y001213D01*
X035459Y001213D01*
X035629Y001213D02*
X035629Y001213D01*
X036137Y001135D02*
X036242Y001135D01*
X036567Y001135D02*
X036673Y001135D01*
X037242Y001135D02*
X037408Y001135D01*
X037485Y001213D02*
X037485Y001213D01*
X037485Y001213D01*
X037655Y001213D02*
X037655Y001213D01*
X037309Y001037D02*
X037284Y001037D01*
X037284Y000938D02*
X037304Y000938D01*
X036735Y003392D02*
X036421Y003392D01*
X035916Y003896D01*
X036763Y003896D01*
X037002Y003658D01*
X036735Y003392D01*
X036744Y003401D02*
X036412Y003401D01*
X036313Y003499D02*
X036843Y003499D01*
X036941Y003598D02*
X036215Y003598D01*
X036116Y003696D02*
X036963Y003696D01*
X036865Y003795D02*
X036018Y003795D01*
X035919Y003893D02*
X036766Y003893D01*
X036720Y004376D02*
X021546Y004376D01*
X022050Y004881D01*
X036779Y004881D01*
X037002Y004658D01*
X036720Y004376D01*
X036729Y004386D02*
X021555Y004386D01*
X021654Y004484D02*
X036828Y004484D01*
X036926Y004583D02*
X021752Y004583D01*
X021851Y004681D02*
X036978Y004681D01*
X036880Y004780D02*
X021949Y004780D01*
X022048Y004878D02*
X036781Y004878D01*
X037207Y005120D02*
X037237Y005158D01*
X037207Y005120D02*
X021951Y005120D01*
X018457Y001626D01*
X014589Y001626D01*
X009117Y007138D01*
X001676Y007138D01*
X001646Y007166D01*
X002036Y006750D02*
X009165Y006750D01*
X009067Y006848D02*
X002131Y006848D01*
X002129Y006843D02*
X002152Y006898D01*
X009017Y006898D01*
X009518Y006394D01*
X002168Y006394D01*
X002129Y006488D01*
X001969Y006649D01*
X001928Y006666D01*
X001969Y006683D01*
X002129Y006843D01*
X001963Y006651D02*
X009262Y006651D01*
X009360Y006553D02*
X002065Y006553D01*
X002143Y006454D02*
X009458Y006454D01*
X009559Y006154D02*
X001676Y006154D01*
X001646Y006166D01*
X002159Y005914D02*
X009460Y005914D01*
X014000Y001374D01*
X008271Y001374D01*
X007624Y002021D01*
X007992Y002021D01*
X008256Y002285D01*
X008520Y002021D01*
X008992Y002021D01*
X009256Y002285D01*
X009520Y002021D01*
X009992Y002021D01*
X010326Y002355D01*
X010326Y002827D01*
X010062Y003091D01*
X010326Y003355D01*
X010326Y003827D01*
X009992Y004161D01*
X009520Y004161D01*
X009256Y003897D01*
X008996Y004157D01*
X008996Y004169D01*
X009226Y004398D01*
X009814Y004398D01*
X010943Y003270D01*
X010943Y003060D01*
X011170Y002833D01*
X011492Y002833D01*
X011719Y003060D01*
X011719Y003382D01*
X011492Y003609D01*
X011282Y003609D01*
X010050Y004841D01*
X009961Y004878D01*
X009079Y004878D01*
X008991Y004841D01*
X008923Y004774D01*
X008553Y004404D01*
X008517Y004316D01*
X008517Y004157D01*
X008228Y003869D01*
X007976Y004121D01*
X007805Y004121D01*
X007805Y003639D01*
X007708Y003639D01*
X007708Y003543D01*
X007226Y003543D01*
X007226Y003371D01*
X007479Y003119D01*
X007187Y002827D01*
X007187Y002458D01*
X004389Y005256D01*
X004321Y005324D01*
X004233Y005360D01*
X002182Y005360D01*
X002129Y005488D01*
X001969Y005649D01*
X001928Y005666D01*
X001969Y005683D01*
X002129Y005843D01*
X002159Y005914D01*
X002137Y005863D02*
X009511Y005863D01*
X009610Y005765D02*
X002051Y005765D01*
X001928Y005666D02*
X009708Y005666D01*
X009807Y005568D02*
X002050Y005568D01*
X002137Y005469D02*
X009905Y005469D01*
X010004Y005371D02*
X002178Y005371D01*
X001163Y005488D02*
X001076Y005279D01*
X001076Y005052D01*
X001163Y004843D01*
X001323Y004683D01*
X001364Y004666D01*
X001323Y004649D01*
X001163Y004488D01*
X001076Y004279D01*
X001076Y004052D01*
X001163Y003843D01*
X001323Y003683D01*
X001533Y003596D01*
X001759Y003596D01*
X001969Y003683D01*
X002129Y003843D01*
X002151Y003896D01*
X004726Y003896D01*
X005374Y003248D01*
X000650Y003248D01*
X000650Y003302D02*
X005320Y003302D01*
X005222Y003401D02*
X000650Y003401D01*
X000650Y003499D02*
X005123Y003499D01*
X005025Y003598D02*
X001763Y003598D01*
X001529Y003598D02*
X000650Y003598D01*
X000650Y003696D02*
X001310Y003696D01*
X001212Y003795D02*
X000650Y003795D01*
X000650Y003893D02*
X001142Y003893D01*
X001102Y003992D02*
X000650Y003992D01*
X000650Y004090D02*
X001076Y004090D01*
X001076Y004189D02*
X000650Y004189D01*
X000650Y004287D02*
X001080Y004287D01*
X001120Y004386D02*
X000650Y004386D01*
X000650Y004484D02*
X001161Y004484D01*
X001257Y004583D02*
X000650Y004583D01*
X000650Y004681D02*
X001327Y004681D01*
X001227Y004780D02*
X000650Y004780D01*
X000650Y004878D02*
X001149Y004878D01*
X001108Y004977D02*
X000650Y004977D01*
X000650Y005075D02*
X001076Y005075D01*
X001076Y005174D02*
X000650Y005174D01*
X000650Y005272D02*
X001076Y005272D01*
X001114Y005371D02*
X000650Y005371D01*
X000650Y005469D02*
X001155Y005469D01*
X002150Y003893D02*
X004729Y003893D01*
X004828Y003795D02*
X002081Y003795D01*
X001982Y003696D02*
X004926Y003696D01*
X005456Y004189D02*
X008517Y004189D01*
X008517Y004287D02*
X005358Y004287D01*
X005259Y004386D02*
X008545Y004386D01*
X008633Y004484D02*
X005161Y004484D01*
X005062Y004583D02*
X008732Y004583D01*
X008830Y004681D02*
X004964Y004681D01*
X004865Y004780D02*
X008929Y004780D01*
X009126Y004638D02*
X009914Y004638D01*
X011331Y003221D01*
X011601Y003499D02*
X011875Y003499D01*
X011777Y003598D02*
X011503Y003598D01*
X011678Y003696D02*
X011195Y003696D01*
X011097Y003795D02*
X011580Y003795D01*
X011481Y003893D02*
X010998Y003893D01*
X010900Y003992D02*
X011383Y003992D01*
X011284Y004090D02*
X010801Y004090D01*
X010703Y004189D02*
X011186Y004189D01*
X011087Y004287D02*
X010604Y004287D01*
X010506Y004386D02*
X010989Y004386D01*
X010890Y004484D02*
X010407Y004484D01*
X010309Y004583D02*
X010792Y004583D01*
X010693Y004681D02*
X010210Y004681D01*
X010112Y004780D02*
X010595Y004780D01*
X010496Y004878D02*
X004767Y004878D01*
X004668Y004977D02*
X010398Y004977D01*
X010299Y005075D02*
X004570Y005075D01*
X004471Y005174D02*
X010201Y005174D01*
X010102Y005272D02*
X004373Y005272D01*
X005555Y004090D02*
X007506Y004090D01*
X007537Y004121D02*
X007226Y003810D01*
X007226Y003639D01*
X007708Y003639D01*
X007708Y004121D01*
X007537Y004121D01*
X007708Y004090D02*
X007805Y004090D01*
X007805Y003992D02*
X007708Y003992D01*
X007708Y003893D02*
X007805Y003893D01*
X007805Y003795D02*
X007708Y003795D01*
X007708Y003696D02*
X007805Y003696D01*
X007708Y003598D02*
X006047Y003598D01*
X005949Y003696D02*
X007226Y003696D01*
X007226Y003795D02*
X005850Y003795D01*
X005752Y003893D02*
X007309Y003893D01*
X007407Y003992D02*
X005653Y003992D01*
X006146Y003499D02*
X007226Y003499D01*
X007226Y003401D02*
X006244Y003401D01*
X006343Y003302D02*
X007296Y003302D01*
X007394Y003204D02*
X006441Y003204D01*
X006540Y003105D02*
X007465Y003105D01*
X007366Y003007D02*
X006638Y003007D01*
X006737Y002908D02*
X007268Y002908D01*
X007187Y002810D02*
X006835Y002810D01*
X006934Y002711D02*
X007187Y002711D01*
X007187Y002613D02*
X007032Y002613D01*
X007131Y002514D02*
X007187Y002514D01*
X007993Y002022D02*
X008520Y002022D01*
X008421Y002120D02*
X008091Y002120D01*
X008190Y002219D02*
X008323Y002219D01*
X007919Y001726D02*
X013648Y001726D01*
X013550Y001825D02*
X007820Y001825D01*
X007722Y001923D02*
X013451Y001923D01*
X013353Y002022D02*
X009993Y002022D01*
X010091Y002120D02*
X013254Y002120D01*
X013156Y002219D02*
X010190Y002219D01*
X010288Y002317D02*
X013057Y002317D01*
X012959Y002416D02*
X010326Y002416D01*
X010326Y002514D02*
X012860Y002514D01*
X012762Y002613D02*
X010326Y002613D01*
X010326Y002711D02*
X012663Y002711D01*
X012565Y002810D02*
X010326Y002810D01*
X010245Y002908D02*
X011095Y002908D01*
X010997Y003007D02*
X010147Y003007D01*
X010076Y003105D02*
X010943Y003105D01*
X010943Y003204D02*
X010175Y003204D01*
X010273Y003302D02*
X010911Y003302D01*
X010812Y003401D02*
X010326Y003401D01*
X010326Y003499D02*
X010714Y003499D01*
X010615Y003598D02*
X010326Y003598D01*
X010326Y003696D02*
X010517Y003696D01*
X010418Y003795D02*
X010326Y003795D01*
X010320Y003893D02*
X010260Y003893D01*
X010221Y003992D02*
X010161Y003992D01*
X010123Y004090D02*
X010063Y004090D01*
X010024Y004189D02*
X009016Y004189D01*
X009063Y004090D02*
X009450Y004090D01*
X009351Y003992D02*
X009161Y003992D01*
X009114Y004287D02*
X009926Y004287D01*
X009827Y004386D02*
X009213Y004386D01*
X009126Y004638D02*
X008756Y004268D01*
X008756Y003591D01*
X008338Y003204D02*
X008118Y003204D01*
X008034Y003119D02*
X008228Y003313D01*
X008451Y003091D01*
X008256Y002897D01*
X008034Y003119D01*
X008048Y003105D02*
X008436Y003105D01*
X008366Y003007D02*
X008147Y003007D01*
X008245Y002908D02*
X008268Y002908D01*
X008239Y003302D02*
X008217Y003302D01*
X009062Y003091D02*
X009256Y003285D01*
X009451Y003091D01*
X009256Y002897D01*
X009062Y003091D01*
X009076Y003105D02*
X009436Y003105D01*
X009366Y003007D02*
X009147Y003007D01*
X009245Y002908D02*
X009268Y002908D01*
X009338Y003204D02*
X009175Y003204D01*
X009190Y002219D02*
X009323Y002219D01*
X009421Y002120D02*
X009091Y002120D01*
X008993Y002022D02*
X009520Y002022D01*
X008214Y001431D02*
X013944Y001431D01*
X013845Y001529D02*
X008116Y001529D01*
X008017Y001628D02*
X013747Y001628D01*
X014333Y001380D02*
X009559Y006154D01*
X008450Y004090D02*
X008007Y004090D01*
X008105Y003992D02*
X008351Y003992D01*
X008253Y003893D02*
X008204Y003893D01*
X011567Y002908D02*
X012466Y002908D01*
X012368Y003007D02*
X011665Y003007D01*
X011719Y003105D02*
X012269Y003105D01*
X012171Y003204D02*
X011719Y003204D01*
X011719Y003302D02*
X012072Y003302D01*
X011974Y003401D02*
X011700Y003401D01*
X014333Y001380D02*
X018556Y001380D01*
X021311Y004136D01*
X037207Y004136D01*
X037237Y004158D01*
X036940Y008720D02*
X018533Y008720D01*
X018632Y008818D02*
X025773Y008818D01*
X025675Y008917D02*
X018730Y008917D01*
X018756Y009015D02*
X025576Y009015D01*
X025548Y009114D02*
X018756Y009114D01*
X018756Y009212D02*
X025548Y009212D01*
X025548Y009311D02*
X018756Y009311D01*
X018721Y009409D02*
X025590Y009409D01*
X025689Y009508D02*
X018705Y009508D01*
X018802Y009943D02*
X018260Y009402D01*
X018260Y009205D01*
X018237Y009158D01*
X017913Y009803D02*
X016278Y009803D01*
X016333Y009902D02*
X017814Y009902D01*
X017757Y010000D02*
X016374Y010000D01*
X016389Y010099D02*
X017757Y010099D01*
X017757Y010206D02*
X018188Y010206D01*
X018188Y010638D01*
X018038Y010638D01*
X017757Y010357D01*
X017757Y010206D01*
X017757Y010296D02*
X016376Y010296D01*
X016389Y010197D02*
X018188Y010197D01*
X018188Y010296D02*
X018285Y010296D01*
X018285Y010394D02*
X018188Y010394D01*
X018188Y010493D02*
X018285Y010493D01*
X018285Y010591D02*
X018188Y010591D01*
X018188Y010678D02*
X018188Y011109D01*
X017757Y011109D01*
X017757Y010959D01*
X018038Y010678D01*
X018188Y010678D01*
X018188Y010690D02*
X018285Y010690D01*
X018285Y010788D02*
X018188Y010788D01*
X018188Y010887D02*
X018285Y010887D01*
X018285Y010985D02*
X018188Y010985D01*
X018188Y011084D02*
X018285Y011084D01*
X018188Y011182D02*
X015868Y011182D01*
X015771Y011182D02*
X015294Y011182D01*
X015290Y011214D02*
X015771Y011214D01*
X015771Y012117D01*
X015290Y012117D01*
X015302Y012042D01*
X015328Y011962D01*
X015366Y011888D01*
X015415Y011820D01*
X015474Y011761D01*
X015542Y011712D01*
X015616Y011675D01*
X015643Y011666D01*
X015616Y011657D01*
X015542Y011619D01*
X015474Y011570D01*
X015415Y011511D01*
X015366Y011444D01*
X015328Y011369D01*
X015302Y011290D01*
X015290Y011214D01*
X015301Y011281D02*
X015195Y011281D01*
X015097Y011379D02*
X015333Y011379D01*
X015391Y011478D02*
X014998Y011478D01*
X014900Y011576D02*
X015482Y011576D01*
X015616Y011675D02*
X014801Y011675D01*
X014703Y011773D02*
X015462Y011773D01*
X015378Y011872D02*
X014604Y011872D01*
X014506Y011970D02*
X015326Y011970D01*
X015298Y012069D02*
X014407Y012069D01*
X013434Y012364D02*
X002194Y012364D01*
X002153Y012463D02*
X013335Y012463D01*
X013237Y012561D02*
X002088Y012561D01*
X001990Y012660D02*
X013138Y012660D01*
X013040Y012758D02*
X002013Y012758D01*
X002111Y012857D02*
X012941Y012857D01*
X012843Y012955D02*
X002162Y012955D01*
X002203Y013054D02*
X012744Y013054D01*
X012646Y013152D02*
X002216Y013152D01*
X002216Y013251D02*
X012547Y013251D01*
X012449Y013349D02*
X002200Y013349D01*
X002159Y013448D02*
X012350Y013448D01*
X012252Y013546D02*
X002103Y013546D01*
X002005Y013645D02*
X012153Y013645D01*
X012055Y013743D02*
X001998Y013743D01*
X002096Y013842D02*
X011956Y013842D01*
X011858Y013940D02*
X002156Y013940D01*
X002197Y014039D02*
X011759Y014039D01*
X011661Y014137D02*
X002216Y014137D01*
X002216Y014236D02*
X011562Y014236D01*
X011464Y014334D02*
X002206Y014334D01*
X002165Y014433D02*
X011365Y014433D01*
X011267Y014531D02*
X002118Y014531D01*
X002020Y014630D02*
X011168Y014630D01*
X011070Y014728D02*
X001983Y014728D01*
X002081Y014827D02*
X010971Y014827D01*
X010873Y014925D02*
X002150Y014925D01*
X002191Y015024D02*
X010774Y015024D01*
X010675Y015122D02*
X002216Y015122D01*
X002216Y015221D02*
X010577Y015221D01*
X010478Y015319D02*
X002212Y015319D01*
X002172Y015418D02*
X010380Y015418D01*
X010281Y015516D02*
X002131Y015516D01*
X002035Y015615D02*
X010183Y015615D01*
X010084Y015713D02*
X001966Y015713D01*
X002066Y015812D02*
X009986Y015812D01*
X009887Y015910D02*
X002144Y015910D01*
X002185Y016009D02*
X009789Y016009D01*
X009690Y016107D02*
X002216Y016107D01*
X002216Y016206D02*
X009592Y016206D01*
X009493Y016304D02*
X002216Y016304D01*
X002178Y016403D02*
X009395Y016403D01*
X009296Y016501D02*
X002137Y016501D01*
X002050Y016600D02*
X009198Y016600D01*
X008565Y017571D02*
X008565Y018211D01*
X008524Y018260D01*
X008565Y018260D01*
X008565Y017571D02*
X015800Y010337D01*
X015800Y010189D01*
X015819Y010150D01*
X016335Y010394D02*
X017794Y010394D01*
X017892Y010493D02*
X016283Y010493D01*
X016184Y010591D02*
X017991Y010591D01*
X018026Y010690D02*
X016052Y010690D01*
X016191Y010788D02*
X017928Y010788D01*
X017829Y010887D02*
X016272Y010887D01*
X016318Y010985D02*
X017757Y010985D01*
X017757Y011084D02*
X016343Y011084D01*
X016338Y011281D02*
X017757Y011281D01*
X017757Y011206D02*
X018188Y011206D01*
X018188Y011638D01*
X018038Y011638D01*
X017757Y011357D01*
X017757Y011206D01*
X017779Y011379D02*
X016305Y011379D01*
X016248Y011478D02*
X017877Y011478D01*
X017976Y011576D02*
X016156Y011576D01*
X016023Y011675D02*
X017985Y011675D01*
X017886Y011773D02*
X016176Y011773D01*
X016261Y011872D02*
X017788Y011872D01*
X017717Y011970D02*
X016313Y011970D01*
X016340Y012069D02*
X017717Y012069D01*
X017717Y012167D02*
X015868Y012167D01*
X015868Y012069D02*
X015771Y012069D01*
X015771Y011970D02*
X015868Y011970D01*
X015868Y011872D02*
X015771Y011872D01*
X015771Y011773D02*
X015868Y011773D01*
X015868Y011675D02*
X015771Y011675D01*
X015771Y011576D02*
X015868Y011576D01*
X015868Y011478D02*
X015771Y011478D01*
X015771Y011379D02*
X015868Y011379D01*
X015868Y011281D02*
X015771Y011281D01*
X016340Y012266D02*
X017717Y012266D01*
X017666Y012364D02*
X016312Y012364D01*
X016259Y012463D02*
X017567Y012463D01*
X017469Y012561D02*
X016174Y012561D01*
X016086Y012660D02*
X017370Y012660D01*
X017272Y012758D02*
X016217Y012758D01*
X016308Y012857D02*
X017173Y012857D01*
X017227Y013142D02*
X018211Y012158D01*
X018237Y012158D01*
X018260Y012158D01*
X018802Y011617D01*
X018802Y009943D01*
X019041Y009902D02*
X037760Y009902D01*
X037760Y010000D02*
X019041Y010000D01*
X019041Y010099D02*
X037760Y010099D01*
X037760Y010197D02*
X019041Y010197D01*
X019041Y010296D02*
X036964Y010296D01*
X036865Y010394D02*
X019041Y010394D01*
X019041Y010493D02*
X036767Y010493D01*
X036717Y010591D02*
X019041Y010591D01*
X019041Y010690D02*
X036717Y010690D01*
X036717Y010788D02*
X019041Y010788D01*
X019041Y010887D02*
X036717Y010887D01*
X036729Y010985D02*
X019041Y010985D01*
X019041Y011084D02*
X036827Y011084D01*
X036926Y011182D02*
X019041Y011182D01*
X019041Y011281D02*
X036979Y011281D01*
X036880Y011379D02*
X019041Y011379D01*
X019041Y011478D02*
X036782Y011478D01*
X036717Y011576D02*
X019041Y011576D01*
X019037Y011675D02*
X036717Y011675D01*
X036717Y011773D02*
X018984Y011773D01*
X018937Y011820D02*
X018937Y011820D01*
X018886Y011872D02*
X036717Y011872D01*
X036717Y011970D02*
X018787Y011970D01*
X018756Y012069D02*
X036812Y012069D01*
X036911Y012167D02*
X018756Y012167D01*
X018756Y012266D02*
X036994Y012266D01*
X036895Y012364D02*
X018756Y012364D01*
X018667Y012463D02*
X036797Y012463D01*
X036717Y012561D02*
X018569Y012561D01*
X018473Y012660D02*
X036717Y012660D01*
X036717Y012758D02*
X018572Y012758D01*
X018670Y012857D02*
X036717Y012857D01*
X036717Y012955D02*
X018756Y012955D01*
X018756Y013054D02*
X036797Y013054D01*
X036896Y013152D02*
X018756Y013152D01*
X018756Y013251D02*
X036994Y013251D01*
X036910Y013349D02*
X018756Y013349D01*
X018682Y013448D02*
X036812Y013448D01*
X036717Y013546D02*
X018584Y013546D01*
X018485Y013645D02*
X036717Y013645D01*
X036717Y013743D02*
X018557Y013743D01*
X018655Y013842D02*
X036717Y013842D01*
X036717Y013940D02*
X018754Y013940D01*
X018756Y014039D02*
X036782Y014039D01*
X036881Y014137D02*
X018756Y014137D01*
X018756Y014236D02*
X036979Y014236D01*
X036925Y014334D02*
X018756Y014334D01*
X018697Y014433D02*
X036827Y014433D01*
X036728Y014531D02*
X018599Y014531D01*
X018500Y014630D02*
X036717Y014630D01*
X036717Y014728D02*
X018542Y014728D01*
X018640Y014827D02*
X036717Y014827D01*
X036717Y014925D02*
X018739Y014925D01*
X018756Y015024D02*
X036767Y015024D01*
X036866Y015122D02*
X018756Y015122D01*
X018756Y015221D02*
X036964Y015221D01*
X036940Y015319D02*
X018756Y015319D01*
X018712Y015418D02*
X036842Y015418D01*
X036743Y015516D02*
X018614Y015516D01*
X018515Y015615D02*
X019189Y015615D01*
X019090Y015713D02*
X018527Y015713D01*
X018625Y015812D02*
X018992Y015812D01*
X018893Y015910D02*
X018724Y015910D01*
X018756Y016009D02*
X018795Y016009D01*
X019178Y016304D02*
X037012Y016304D01*
X037038Y016278D02*
X036757Y016559D01*
X036757Y016709D01*
X037188Y016709D01*
X037188Y016278D01*
X037038Y016278D01*
X036949Y016206D02*
X019276Y016206D01*
X019375Y016107D02*
X036851Y016107D01*
X036913Y016403D02*
X019079Y016403D01*
X018981Y016501D02*
X036815Y016501D01*
X036757Y016600D02*
X018882Y016600D01*
X018784Y016698D02*
X036757Y016698D01*
X036757Y016895D02*
X018578Y016895D01*
X018685Y016797D02*
X037188Y016797D01*
X037285Y016797D02*
X037760Y016797D01*
X037760Y016895D02*
X037717Y016895D01*
X037680Y016994D02*
X037760Y016994D01*
X037760Y017092D02*
X037581Y017092D01*
X037483Y017191D02*
X037760Y017191D01*
X037760Y017289D02*
X037503Y017289D01*
X037601Y017388D02*
X037760Y017388D01*
X037760Y017486D02*
X037700Y017486D01*
X037756Y017585D02*
X037760Y017585D01*
X037756Y017683D02*
X037760Y017683D01*
X037756Y017782D02*
X037760Y017782D01*
X037756Y017880D02*
X037760Y017880D01*
X037751Y017979D02*
X037760Y017979D01*
X037760Y018077D02*
X037652Y018077D01*
X037554Y018176D02*
X037760Y018176D01*
X037760Y018274D02*
X037488Y018274D01*
X037586Y018373D02*
X037760Y018373D01*
X037760Y018471D02*
X037685Y018471D01*
X037756Y018570D02*
X037760Y018570D01*
X037756Y018668D02*
X037760Y018668D01*
X037756Y018767D02*
X037760Y018767D01*
X037756Y018865D02*
X037760Y018865D01*
X037756Y018964D02*
X037760Y018964D01*
X037760Y019062D02*
X037667Y019062D01*
X037760Y019161D02*
X037569Y019161D01*
X037473Y019259D02*
X037760Y019259D01*
X037760Y019358D02*
X037571Y019358D01*
X037670Y019456D02*
X037760Y019456D01*
X037756Y019555D02*
X037760Y019555D01*
X037756Y019653D02*
X037760Y019653D01*
X037756Y019752D02*
X037760Y019752D01*
X037756Y019850D02*
X037760Y019850D01*
X037756Y019949D02*
X037760Y019949D01*
X037760Y020047D02*
X037682Y020047D01*
X037760Y020146D02*
X037584Y020146D01*
X037485Y020244D02*
X037760Y020244D01*
X037760Y022510D02*
X008975Y022510D01*
X008877Y022608D02*
X037760Y022608D01*
X037760Y022707D02*
X008705Y022707D01*
X008343Y022707D02*
X000650Y022707D01*
X000650Y022805D02*
X037760Y022805D01*
X037760Y022904D02*
X000650Y022904D01*
X000650Y023002D02*
X037760Y023002D01*
X037760Y023101D02*
X000650Y023101D01*
X000650Y023199D02*
X037760Y023199D01*
X037285Y017191D02*
X037188Y017191D01*
X037188Y017092D02*
X037285Y017092D01*
X037285Y016994D02*
X037188Y016994D01*
X037188Y016895D02*
X037285Y016895D01*
X037285Y016698D02*
X037188Y016698D01*
X037188Y016600D02*
X037285Y016600D01*
X037285Y016501D02*
X037188Y016501D01*
X037188Y016403D02*
X037285Y016403D01*
X037285Y016304D02*
X037188Y016304D01*
X037462Y016304D02*
X037760Y016304D01*
X037760Y016206D02*
X037524Y016206D01*
X037623Y016107D02*
X037760Y016107D01*
X037760Y016009D02*
X037721Y016009D01*
X037756Y015910D02*
X037760Y015910D01*
X037756Y015812D02*
X037760Y015812D01*
X037756Y015713D02*
X037760Y015713D01*
X037756Y015615D02*
X037760Y015615D01*
X037760Y015516D02*
X037730Y015516D01*
X037760Y015418D02*
X037631Y015418D01*
X037533Y015319D02*
X037760Y015319D01*
X037760Y015221D02*
X037509Y015221D01*
X037608Y015122D02*
X037760Y015122D01*
X037760Y015024D02*
X037706Y015024D01*
X037756Y014925D02*
X037760Y014925D01*
X037756Y014827D02*
X037760Y014827D01*
X037756Y014728D02*
X037760Y014728D01*
X037756Y014630D02*
X037760Y014630D01*
X037760Y014531D02*
X037745Y014531D01*
X037760Y014433D02*
X037646Y014433D01*
X037548Y014334D02*
X037760Y014334D01*
X037760Y014236D02*
X037494Y014236D01*
X037593Y014137D02*
X037760Y014137D01*
X037760Y014039D02*
X037691Y014039D01*
X037756Y013940D02*
X037760Y013940D01*
X037756Y013842D02*
X037760Y013842D01*
X037756Y013743D02*
X037760Y013743D01*
X037756Y013645D02*
X037760Y013645D01*
X037756Y013546D02*
X037760Y013546D01*
X037760Y013448D02*
X037661Y013448D01*
X037563Y013349D02*
X037760Y013349D01*
X037760Y013251D02*
X037479Y013251D01*
X037578Y013152D02*
X037760Y013152D01*
X037760Y013054D02*
X037676Y013054D01*
X037756Y012955D02*
X037760Y012955D01*
X037756Y012857D02*
X037760Y012857D01*
X037756Y012758D02*
X037760Y012758D01*
X037756Y012660D02*
X037760Y012660D01*
X037756Y012561D02*
X037760Y012561D01*
X037760Y012463D02*
X037676Y012463D01*
X037760Y012364D02*
X037578Y012364D01*
X037479Y012266D02*
X037760Y012266D01*
X037760Y012167D02*
X037563Y012167D01*
X037661Y012069D02*
X037760Y012069D01*
X037756Y011970D02*
X037760Y011970D01*
X037756Y011872D02*
X037760Y011872D01*
X037756Y011773D02*
X037760Y011773D01*
X037756Y011675D02*
X037760Y011675D01*
X037756Y011576D02*
X037760Y011576D01*
X037760Y011478D02*
X037691Y011478D01*
X037760Y011379D02*
X037593Y011379D01*
X037494Y011281D02*
X037760Y011281D01*
X037760Y011182D02*
X037548Y011182D01*
X037646Y011084D02*
X037760Y011084D01*
X037760Y010985D02*
X037745Y010985D01*
X037756Y010887D02*
X037760Y010887D01*
X037756Y010788D02*
X037760Y010788D01*
X037756Y010690D02*
X037760Y010690D01*
X037756Y010591D02*
X037760Y010591D01*
X037760Y010493D02*
X037706Y010493D01*
X037760Y010394D02*
X037608Y010394D01*
X037509Y010296D02*
X037760Y010296D01*
X036743Y008917D02*
X026200Y008917D01*
X026102Y008818D02*
X036841Y008818D01*
X028773Y002613D02*
X028495Y002613D01*
X028594Y002514D02*
X028697Y002514D01*
X028692Y002416D02*
X028697Y002416D01*
X028697Y001805D02*
X028697Y001679D01*
X028808Y001568D01*
X028934Y001568D01*
X028737Y001371D01*
X028500Y001608D01*
X028697Y001805D01*
X028697Y001726D02*
X028618Y001726D01*
X028520Y001628D02*
X028749Y001628D01*
X028894Y001529D02*
X028579Y001529D01*
X028677Y001431D02*
X028796Y001431D01*
X028237Y001108D02*
X027515Y000386D01*
X026528Y000386D01*
X026292Y000622D01*
X023693Y000622D01*
X022237Y002079D01*
X022237Y003142D01*
X021950Y003404D02*
X021608Y003404D01*
X018956Y000752D01*
X018888Y000685D01*
X018804Y000650D01*
X023327Y000650D01*
X022033Y001943D01*
X021997Y002031D01*
X021997Y002833D01*
X021849Y002981D01*
X021849Y003303D01*
X021950Y003404D01*
X021946Y003401D02*
X021604Y003401D01*
X021505Y003302D02*
X021849Y003302D01*
X021849Y003204D02*
X021407Y003204D01*
X021308Y003105D02*
X021849Y003105D01*
X021849Y003007D02*
X021210Y003007D01*
X021111Y002908D02*
X021922Y002908D01*
X021997Y002810D02*
X021013Y002810D01*
X020914Y002711D02*
X021997Y002711D01*
X021997Y002613D02*
X020816Y002613D01*
X020717Y002514D02*
X021997Y002514D01*
X021997Y002416D02*
X020619Y002416D01*
X020520Y002317D02*
X021997Y002317D01*
X021997Y002219D02*
X020422Y002219D01*
X020323Y002120D02*
X021997Y002120D01*
X022001Y002022D02*
X020225Y002022D01*
X020126Y001923D02*
X022054Y001923D01*
X022152Y001825D02*
X020028Y001825D01*
X019929Y001726D02*
X022251Y001726D01*
X022349Y001628D02*
X019831Y001628D01*
X019732Y001529D02*
X022448Y001529D01*
X022546Y001431D02*
X019634Y001431D01*
X019535Y001332D02*
X022645Y001332D01*
X022743Y001234D02*
X019437Y001234D01*
X019338Y001135D02*
X022842Y001135D01*
X022940Y001037D02*
X019240Y001037D01*
X019141Y000938D02*
X023039Y000938D01*
X023137Y000840D02*
X019043Y000840D01*
X018944Y000741D02*
X023236Y000741D01*
X023717Y000938D02*
X026737Y000938D01*
X026798Y000840D02*
X026394Y000840D01*
X026512Y000741D02*
X026896Y000741D01*
X027708Y001343D02*
X027472Y001580D01*
X027737Y001845D01*
X027973Y001608D01*
X027708Y001343D01*
X027621Y001431D02*
X027796Y001431D01*
X027894Y001529D02*
X027523Y001529D01*
X027520Y001628D02*
X027954Y001628D01*
X027855Y001726D02*
X027618Y001726D01*
X027717Y001825D02*
X027757Y001825D01*
X027781Y002416D02*
X027692Y002416D01*
X027594Y002514D02*
X027879Y002514D01*
X027978Y002613D02*
X027495Y002613D01*
X028737Y000845D02*
X028931Y000650D01*
X028542Y000650D01*
X028737Y000845D01*
X028732Y000840D02*
X028742Y000840D01*
X028840Y000741D02*
X028633Y000741D01*
X018809Y002317D02*
X018756Y002317D01*
X018237Y003158D02*
X018211Y003201D01*
X017768Y003201D01*
X015819Y005150D01*
X016355Y004954D02*
X016389Y005037D01*
X016389Y005225D01*
X017632Y003982D01*
X017717Y003947D01*
X017717Y003943D01*
X018002Y003658D01*
X017826Y003482D01*
X016355Y004954D01*
X016364Y004977D02*
X016638Y004977D01*
X016539Y005075D02*
X016389Y005075D01*
X016389Y005174D02*
X016441Y005174D01*
X016430Y004878D02*
X016736Y004878D01*
X016835Y004780D02*
X016529Y004780D01*
X016627Y004681D02*
X016933Y004681D01*
X017032Y004583D02*
X016726Y004583D01*
X016824Y004484D02*
X017130Y004484D01*
X017229Y004386D02*
X016923Y004386D01*
X017021Y004287D02*
X017327Y004287D01*
X017426Y004189D02*
X017120Y004189D01*
X017218Y004090D02*
X017524Y004090D01*
X017623Y003992D02*
X017317Y003992D01*
X017415Y003893D02*
X017766Y003893D01*
X017865Y003795D02*
X017514Y003795D01*
X017612Y003696D02*
X017963Y003696D01*
X017941Y003598D02*
X017711Y003598D01*
X017809Y003499D02*
X017843Y003499D01*
X017768Y004185D02*
X015849Y006105D01*
X015819Y006150D01*
X016389Y006159D02*
X016489Y006159D01*
X016391Y006257D02*
X016389Y006257D01*
X016389Y006259D02*
X017682Y004966D01*
X017717Y004952D01*
X017717Y004943D01*
X018002Y004658D01*
X017818Y004474D01*
X016350Y005943D01*
X016389Y006037D01*
X016389Y006259D01*
X016389Y006060D02*
X016588Y006060D01*
X016686Y005962D02*
X016358Y005962D01*
X016430Y005863D02*
X016785Y005863D01*
X016883Y005765D02*
X016528Y005765D01*
X016627Y005666D02*
X016982Y005666D01*
X017080Y005568D02*
X016725Y005568D01*
X016824Y005469D02*
X017179Y005469D01*
X017277Y005371D02*
X016922Y005371D01*
X017021Y005272D02*
X017376Y005272D01*
X017474Y005174D02*
X017119Y005174D01*
X017218Y005075D02*
X017573Y005075D01*
X017671Y004977D02*
X017316Y004977D01*
X017415Y004878D02*
X017781Y004878D01*
X017880Y004780D02*
X017513Y004780D01*
X017612Y004681D02*
X017978Y004681D01*
X017926Y004583D02*
X017710Y004583D01*
X017809Y004484D02*
X017828Y004484D01*
X017768Y004185D02*
X018211Y004185D01*
X018237Y004158D01*
X018237Y005158D02*
X018211Y005170D01*
X017817Y005170D01*
X015849Y007138D01*
X015819Y007150D01*
X016389Y007144D02*
X016489Y007144D01*
X016390Y007242D02*
X016389Y007242D01*
X016389Y007243D02*
X017632Y006000D01*
X017717Y005965D01*
X017717Y005943D01*
X018002Y005658D01*
X017835Y005491D01*
X016360Y006966D01*
X016389Y007037D01*
X016389Y007243D01*
X016389Y007045D02*
X016587Y007045D01*
X016686Y006947D02*
X016380Y006947D01*
X016478Y006848D02*
X016784Y006848D01*
X016883Y006750D02*
X016577Y006750D01*
X016675Y006651D02*
X016981Y006651D01*
X017080Y006553D02*
X016774Y006553D01*
X016872Y006454D02*
X017178Y006454D01*
X017277Y006356D02*
X016971Y006356D01*
X017069Y006257D02*
X017375Y006257D01*
X017474Y006159D02*
X017168Y006159D01*
X017266Y006060D02*
X017572Y006060D01*
X017717Y005962D02*
X017365Y005962D01*
X017463Y005863D02*
X017796Y005863D01*
X017895Y005765D02*
X017562Y005765D01*
X017660Y005666D02*
X017993Y005666D01*
X017911Y005568D02*
X017759Y005568D01*
X017768Y006203D02*
X015849Y008122D01*
X015819Y008150D01*
X016389Y008129D02*
X016488Y008129D01*
X016389Y008037D02*
X016389Y008227D01*
X016389Y008227D01*
X017632Y006984D01*
X017717Y006949D01*
X017717Y006943D01*
X018002Y006658D01*
X017827Y006483D01*
X016355Y007955D01*
X016389Y008037D01*
X016386Y008030D02*
X016586Y008030D01*
X016685Y007932D02*
X016379Y007932D01*
X016477Y007833D02*
X016783Y007833D01*
X016882Y007735D02*
X016576Y007735D01*
X016674Y007636D02*
X016980Y007636D01*
X017079Y007538D02*
X016773Y007538D01*
X016871Y007439D02*
X017177Y007439D01*
X017276Y007341D02*
X016970Y007341D01*
X017068Y007242D02*
X017374Y007242D01*
X017473Y007144D02*
X017167Y007144D01*
X017265Y007045D02*
X017571Y007045D01*
X017717Y006947D02*
X017364Y006947D01*
X017462Y006848D02*
X017811Y006848D01*
X017910Y006750D02*
X017561Y006750D01*
X017659Y006651D02*
X017995Y006651D01*
X017896Y006553D02*
X017758Y006553D01*
X017768Y006203D02*
X018211Y006203D01*
X018237Y006158D01*
X018237Y007158D02*
X018211Y007187D01*
X017768Y007187D01*
X015849Y009107D01*
X015819Y009150D01*
X018447Y010690D02*
X018562Y010690D01*
X018562Y010788D02*
X018546Y010788D01*
X018562Y010591D02*
X018482Y010591D01*
X018285Y011281D02*
X018188Y011281D01*
X018188Y011379D02*
X018285Y011379D01*
X018285Y011478D02*
X018188Y011478D01*
X018188Y011576D02*
X018285Y011576D01*
X018497Y011576D02*
X018503Y011576D01*
X017717Y012991D02*
X017363Y013345D01*
X017274Y013382D01*
X016346Y013382D01*
X016302Y013488D01*
X016142Y013649D01*
X016101Y013666D01*
X016142Y013683D01*
X016302Y013843D01*
X016389Y014052D01*
X016389Y014279D01*
X016388Y014282D01*
X016697Y013972D01*
X016785Y013936D01*
X016881Y013936D01*
X017724Y013936D01*
X018002Y013658D01*
X017717Y013373D01*
X017717Y012991D01*
X017717Y013054D02*
X017654Y013054D01*
X017717Y013152D02*
X017556Y013152D01*
X017457Y013251D02*
X017717Y013251D01*
X017717Y013349D02*
X017354Y013349D01*
X017227Y013142D02*
X015849Y013142D01*
X015819Y013166D01*
X016245Y013546D02*
X017890Y013546D01*
X017988Y013645D02*
X016146Y013645D01*
X016202Y013743D02*
X017916Y013743D01*
X017818Y013842D02*
X016301Y013842D01*
X016343Y013940D02*
X016775Y013940D01*
X016631Y014039D02*
X016383Y014039D01*
X016389Y014137D02*
X016533Y014137D01*
X016434Y014236D02*
X016389Y014236D01*
X016833Y014176D02*
X015849Y015160D01*
X015819Y015166D01*
X016332Y015418D02*
X017761Y015418D01*
X017717Y015373D02*
X017717Y014943D01*
X018002Y014658D01*
X017759Y014415D01*
X016932Y014415D01*
X016362Y014986D01*
X016389Y015052D01*
X016389Y015279D01*
X016302Y015488D01*
X016142Y015649D01*
X016101Y015666D01*
X016142Y015683D01*
X016302Y015843D01*
X016389Y016052D01*
X016389Y016279D01*
X016355Y016361D01*
X016440Y016446D01*
X017789Y016446D01*
X017717Y016373D01*
X017717Y015943D01*
X018002Y015658D01*
X017717Y015373D01*
X017717Y015319D02*
X016373Y015319D01*
X016389Y015221D02*
X017717Y015221D01*
X017717Y015122D02*
X016389Y015122D01*
X016377Y015024D02*
X017717Y015024D01*
X017734Y014925D02*
X016423Y014925D01*
X016521Y014827D02*
X017833Y014827D01*
X017931Y014728D02*
X016620Y014728D01*
X016718Y014630D02*
X017973Y014630D01*
X017875Y014531D02*
X016817Y014531D01*
X016915Y014433D02*
X017776Y014433D01*
X018211Y014176D02*
X018237Y014158D01*
X018211Y014176D02*
X016833Y014176D01*
X016319Y013448D02*
X017791Y013448D01*
X017860Y015516D02*
X016275Y015516D01*
X016176Y015615D02*
X017958Y015615D01*
X017946Y015713D02*
X016172Y015713D01*
X016271Y015812D02*
X017848Y015812D01*
X017749Y015910D02*
X016330Y015910D01*
X016371Y016009D02*
X017717Y016009D01*
X017717Y016107D02*
X016389Y016107D01*
X016389Y016206D02*
X017717Y016206D01*
X017717Y016304D02*
X016379Y016304D01*
X016397Y016403D02*
X017746Y016403D01*
X018457Y016685D02*
X016341Y016685D01*
X015849Y016193D01*
X015819Y016166D01*
X018457Y016685D02*
X019343Y015800D01*
X037207Y015800D01*
X037237Y015758D01*
X037560Y016403D02*
X037760Y016403D01*
X037760Y016501D02*
X037659Y016501D01*
X037717Y016600D02*
X037760Y016600D01*
X037760Y016698D02*
X037717Y016698D01*
X016048Y003598D02*
X015936Y003598D01*
X004448Y018570D02*
X004348Y018570D01*
X004348Y018668D02*
X004448Y018668D01*
X004448Y018767D02*
X004348Y018767D01*
X004348Y018865D02*
X004448Y018865D01*
X004448Y018964D02*
X004348Y018964D01*
X004348Y019062D02*
X004448Y019062D01*
X004448Y019161D02*
X004348Y019161D01*
X004348Y019259D02*
X004448Y019259D01*
X004448Y019358D02*
X004348Y019358D01*
X004348Y019456D02*
X004448Y019456D01*
X004348Y019555D02*
X000650Y019555D01*
X000650Y019653D02*
X003303Y019653D01*
X003313Y019752D02*
X000650Y019752D01*
X000650Y019850D02*
X003332Y019850D01*
X003360Y019949D02*
X000650Y019949D01*
X000650Y020047D02*
X003399Y020047D01*
X003448Y020146D02*
X000650Y020146D01*
X000650Y020244D02*
X003512Y020244D01*
X003593Y020343D02*
X000650Y020343D01*
X000650Y020441D02*
X002826Y020441D01*
X002646Y020540D02*
X000650Y020540D01*
X000650Y020638D02*
X002519Y020638D01*
X002424Y020737D02*
X000650Y020737D01*
X000650Y020835D02*
X002349Y020835D01*
X002289Y020934D02*
X000650Y020934D01*
X000650Y021032D02*
X002242Y021032D01*
X002208Y021131D02*
X000650Y021131D01*
X000650Y021229D02*
X002184Y021229D01*
X003206Y021229D02*
X003306Y021229D01*
X003306Y021131D02*
X003206Y021131D01*
X003206Y021032D02*
X003306Y021032D01*
X003306Y020934D02*
X003206Y020934D01*
X003206Y020835D02*
X003306Y020835D01*
X003306Y020737D02*
X003206Y020737D01*
X003206Y020638D02*
X003306Y020638D01*
X003306Y020540D02*
X003206Y020540D01*
X003206Y020441D02*
X003306Y020441D01*
X003686Y020441D02*
X003698Y020441D01*
X003312Y019456D02*
X000650Y019456D01*
X000650Y019358D02*
X003330Y019358D01*
X003357Y019259D02*
X000650Y019259D01*
X000650Y019161D02*
X003394Y019161D01*
X003442Y019062D02*
X000650Y019062D01*
X000650Y018964D02*
X003504Y018964D01*
X003583Y018865D02*
X000650Y018865D01*
X000650Y018767D02*
X003686Y018767D01*
X003821Y018668D02*
X000650Y018668D01*
X000650Y018570D02*
X004025Y018570D01*
X004743Y020638D02*
X004786Y020638D01*
X004444Y021525D02*
X004350Y021525D01*
X004351Y021511D02*
X004337Y021633D01*
X004310Y021753D01*
X004269Y021869D01*
X004216Y021980D01*
X004151Y022084D01*
X004074Y022180D01*
X003987Y022267D01*
X003891Y022344D01*
X003787Y022409D01*
X003676Y022462D01*
X003560Y022503D01*
X003440Y022530D01*
X003318Y022544D01*
X003306Y022544D01*
X003306Y021499D01*
X004351Y021499D01*
X004351Y021511D01*
X004339Y021623D02*
X004451Y021623D01*
X004477Y021722D02*
X004317Y021722D01*
X004287Y021820D02*
X004504Y021820D01*
X004540Y021919D02*
X004246Y021919D01*
X004193Y022017D02*
X004597Y022017D01*
X004654Y022116D02*
X004125Y022116D01*
X004040Y022214D02*
X004739Y022214D01*
X004838Y022313D02*
X003930Y022313D01*
X003782Y022411D02*
X004976Y022411D01*
X005152Y022510D02*
X003531Y022510D01*
X003306Y022510D02*
X003206Y022510D01*
X003206Y022411D02*
X003306Y022411D01*
X003306Y022313D02*
X003206Y022313D01*
X003206Y022214D02*
X003306Y022214D01*
X003306Y022116D02*
X003206Y022116D01*
X003206Y022017D02*
X003306Y022017D01*
X003306Y021919D02*
X003206Y021919D01*
X003206Y021820D02*
X003306Y021820D01*
X003306Y021722D02*
X003206Y021722D01*
X003206Y021623D02*
X003306Y021623D01*
X003306Y021525D02*
X003206Y021525D01*
X006006Y022510D02*
X007129Y022510D01*
X007031Y022411D02*
X006182Y022411D01*
X006320Y022313D02*
X007024Y022313D01*
X007820Y022608D02*
X008171Y022608D01*
X008073Y022510D02*
X007919Y022510D01*
X008017Y022411D02*
X008028Y022411D01*
D20*
X014599Y013024D03*
X022079Y008536D03*
X022237Y003142D03*
X024048Y003181D03*
X011331Y003221D03*
D21*
X005317Y011223D03*
X025937Y009205D03*
D22*
X014162Y019268D02*
X009589Y019268D01*
X008565Y018260D01*
X008189Y020347D02*
X006681Y020347D01*
X005579Y021449D01*
X008524Y022197D02*
X010229Y022197D01*
X011174Y021268D01*
X013615Y021268D01*
X012693Y020347D01*
X012189Y020347D01*
X013615Y021268D02*
X014162Y021268D01*
M02*
