G75*
%MOIN*%
%OFA0B0*%
%FSLAX24Y24*%
%IPPOS*%
%LPD*%
%AMOC8*
5,1,8,0,0,1.08239X$1,22.5*
%
%ADD10C,0.0840*%
%ADD11OC8,0.0840*%
%ADD12C,0.1970*%
%ADD13C,0.0680*%
%ADD14C,0.1380*%
%ADD15OC8,0.0780*%
%ADD16C,0.0780*%
%ADD17OC8,0.0740*%
%ADD18R,0.0780X0.0780*%
%ADD19OC8,0.0476*%
%ADD20OC8,0.0480*%
D10*
X001646Y004166D03*
X001646Y005166D03*
X001646Y006166D03*
X001646Y007166D03*
X001646Y008166D03*
X001646Y009166D03*
X001646Y010166D03*
X001646Y011197D03*
X001646Y012197D03*
X001646Y013197D03*
X001646Y014197D03*
X001646Y015197D03*
X001646Y016197D03*
X008189Y020347D03*
X012189Y020347D03*
X015819Y016166D03*
X015819Y015166D03*
X015819Y014166D03*
X015819Y013166D03*
X015819Y012166D03*
X015819Y011166D03*
X015819Y010150D03*
X015819Y009150D03*
X015819Y008150D03*
X015819Y007150D03*
X015819Y006150D03*
X015819Y005150D03*
X015819Y004166D03*
D11*
X009756Y003591D03*
X008756Y003591D03*
X007756Y003591D03*
X007756Y002591D03*
X008756Y002591D03*
X009756Y002591D03*
D12*
X004398Y019599D03*
X003256Y021449D03*
X005579Y021449D03*
D13*
X013862Y021268D02*
X014462Y021268D01*
X014462Y020268D02*
X013862Y020268D01*
X013862Y019268D02*
X014462Y019268D01*
D14*
X020062Y020268D03*
D15*
X007524Y022197D03*
X007524Y018260D03*
X027237Y002108D03*
X028237Y002108D03*
X028237Y001108D03*
X029237Y001108D03*
X027237Y001108D03*
D16*
X008524Y018260D03*
X008524Y022197D03*
D17*
X018237Y016158D03*
X018237Y015158D03*
X018237Y014158D03*
X018237Y013158D03*
X018237Y012158D03*
X018237Y011158D03*
X018237Y010158D03*
X018237Y009158D03*
X018237Y007158D03*
X018237Y006158D03*
X018237Y005158D03*
X018237Y004158D03*
X018237Y003158D03*
X018237Y002158D03*
X037237Y002158D03*
X037237Y003158D03*
X037237Y004158D03*
X037237Y005158D03*
X037237Y006158D03*
X037237Y007158D03*
X037237Y008158D03*
X037237Y009158D03*
X037237Y010758D03*
X037237Y011758D03*
X037237Y012758D03*
X037237Y013758D03*
X037237Y014758D03*
X037237Y015758D03*
X037237Y016758D03*
X037237Y017758D03*
X037237Y018758D03*
X037237Y019758D03*
D18*
X029237Y002108D03*
D19*
X028181Y005583D03*
X024048Y003181D03*
X022237Y003142D03*
X022079Y008536D03*
X014599Y013024D03*
X025741Y014638D03*
X029323Y016646D03*
X011331Y003221D03*
D20*
X005317Y011223D03*
X025937Y009205D03*
M02*
