G75*
%MOIN*%
%OFA0B0*%
%FSLAX24Y24*%
%IPPOS*%
%LPD*%
%AMOC8*
5,1,8,0,0,1.08239X$1,22.5*
%
%ADD10R,0.0198X0.0395*%
%ADD11R,0.0395X0.0198*%
%ADD12R,0.0710X0.0789*%
%ADD13R,0.0789X0.0710*%
%ADD14R,0.0789X0.0474*%
%ADD15R,0.0710X0.0790*%
%ADD16R,0.0552X0.0297*%
%ADD17R,0.0710X0.0631*%
%ADD18OC8,0.0820*%
%ADD19R,0.0552X0.0631*%
%ADD20R,0.0789X0.0434*%
%ADD21R,0.0394X0.0787*%
%ADD22R,0.0671X0.3033*%
%ADD23R,0.0474X0.2639*%
%ADD24C,0.0820*%
%ADD25C,0.0360*%
D10*
X007589Y011562D03*
X007786Y011562D03*
X007983Y011562D03*
X008180Y011562D03*
X008376Y011562D03*
X008573Y011562D03*
X008770Y011562D03*
X008967Y011562D03*
X009164Y011562D03*
X009361Y011562D03*
X009558Y011562D03*
X009558Y014240D03*
X009361Y014240D03*
X009164Y014240D03*
X008967Y014240D03*
X008770Y014240D03*
X008573Y014240D03*
X008376Y014240D03*
X008180Y014240D03*
X007983Y014240D03*
X007786Y014240D03*
X007589Y014240D03*
D11*
X007235Y013885D03*
X007235Y013688D03*
X007235Y013492D03*
X007235Y013295D03*
X007235Y013098D03*
X007235Y012901D03*
X007235Y012704D03*
X007235Y012507D03*
X007235Y012310D03*
X007235Y012114D03*
X007235Y011917D03*
X009912Y011917D03*
X009912Y012114D03*
X009912Y012310D03*
X009912Y012507D03*
X009912Y012704D03*
X009912Y012901D03*
X009912Y013098D03*
X009912Y013295D03*
X009912Y013492D03*
X009912Y013688D03*
X009912Y013885D03*
D12*
X012550Y013885D03*
X012550Y015263D03*
X013652Y015263D03*
X013652Y013885D03*
X013652Y011640D03*
X012550Y011640D03*
X012550Y019397D03*
X012550Y020775D03*
X013652Y020775D03*
X013652Y019397D03*
X004597Y019397D03*
X003495Y019397D03*
X003495Y018019D03*
X004597Y018019D03*
X004597Y016641D03*
X004597Y015263D03*
X003495Y015263D03*
X003495Y016641D03*
X003495Y013885D03*
X004597Y013885D03*
X004597Y020775D03*
X003495Y020775D03*
D13*
X005975Y010185D03*
X005975Y009082D03*
X007471Y007350D03*
X007471Y006248D03*
X008573Y006248D03*
X008573Y007350D03*
X009676Y007350D03*
X009676Y006248D03*
X011132Y009082D03*
X011132Y010185D03*
D14*
X011006Y007744D03*
X011006Y006641D03*
D15*
G36*
X004117Y009868D02*
X004793Y009652D01*
X004553Y008900D01*
X003877Y009116D01*
X004117Y009868D01*
G37*
G36*
X003050Y010209D02*
X003726Y009993D01*
X003486Y009241D01*
X002810Y009457D01*
X003050Y010209D01*
G37*
X003486Y022153D03*
X004606Y022153D03*
X012541Y022153D03*
X013661Y022153D03*
D16*
X004558Y012055D03*
X004558Y011307D03*
X003534Y011307D03*
X003534Y011681D03*
X003534Y012055D03*
D17*
X006282Y006641D03*
X006282Y007744D03*
D18*
X007550Y008728D03*
X007550Y009728D03*
X008550Y009728D03*
X008550Y008728D03*
X009550Y008728D03*
X009550Y009728D03*
D19*
X012786Y017457D03*
X013416Y017457D03*
X013416Y018323D03*
X012786Y018323D03*
D20*
X011085Y018413D03*
X011085Y019003D03*
X011085Y019594D03*
X011085Y020185D03*
X011085Y017822D03*
X011085Y017232D03*
X011085Y016641D03*
X011085Y016051D03*
X006054Y016051D03*
X006054Y016641D03*
X006054Y017232D03*
X006054Y017822D03*
X006054Y018413D03*
X006054Y019003D03*
X006054Y019594D03*
X006054Y020185D03*
D21*
G36*
X013713Y010162D02*
X014088Y010282D01*
X014327Y009534D01*
X013952Y009414D01*
X013713Y010162D01*
G37*
G36*
X011875Y009575D02*
X012250Y009695D01*
X012489Y008947D01*
X012114Y008827D01*
X011875Y009575D01*
G37*
D22*
X009951Y003055D03*
X007195Y003055D03*
D23*
X008180Y003251D03*
X008967Y003251D03*
D24*
X015660Y010303D03*
X015660Y011303D03*
X015660Y012303D03*
X015660Y013303D03*
X015660Y014303D03*
X015660Y015303D03*
X015660Y016303D03*
X015660Y017303D03*
X015660Y018303D03*
X015660Y019303D03*
X015660Y020303D03*
X015660Y021303D03*
X015660Y022303D03*
X001487Y022303D03*
X001487Y021303D03*
X001487Y020303D03*
X001487Y019303D03*
X001487Y018303D03*
X001487Y017303D03*
X001487Y016303D03*
X001487Y015303D03*
X001487Y014303D03*
X001487Y013303D03*
X001487Y012303D03*
X001487Y011303D03*
X001487Y010303D03*
D25*
X003101Y011011D03*
X003101Y012055D03*
X004046Y011681D03*
X004046Y013335D03*
X005386Y013807D03*
X005495Y013410D03*
X005817Y014358D03*
X005660Y015027D03*
X005227Y015263D03*
X006447Y014397D03*
X006762Y014045D03*
X006290Y012271D03*
X006841Y011917D03*
X006605Y011562D03*
X006920Y011129D03*
X007626Y010889D03*
X007983Y010733D03*
X008770Y012051D03*
X009036Y012531D03*
X009361Y012051D03*
X009958Y011569D03*
X010622Y011602D03*
X010938Y011369D03*
X010546Y011212D03*
X010227Y010338D03*
X010505Y010020D03*
X010822Y008408D03*
X010336Y007490D03*
X009951Y008136D03*
X009163Y010200D03*
X010542Y012390D03*
X011172Y012114D03*
X011487Y012783D03*
X011963Y013334D03*
X011723Y013845D03*
X011803Y014317D03*
X011841Y015106D03*
X011596Y015360D03*
X011723Y015972D03*
X011760Y016408D03*
X012235Y016877D03*
X012550Y015814D03*
X013256Y015814D03*
X013416Y016897D03*
X014164Y017310D03*
X014519Y016090D03*
X014756Y014831D03*
X015151Y014751D03*
X014286Y014237D03*
X014292Y013654D03*
X013812Y012418D03*
X013257Y012500D03*
X012865Y012950D03*
X011959Y011640D03*
X011014Y013340D03*
X011014Y013688D03*
X010817Y014161D03*
X010266Y014005D03*
X009426Y013492D03*
X007195Y016051D03*
X005306Y018728D03*
X004597Y017410D03*
X002786Y018022D03*
X002786Y019279D03*
X002392Y020618D03*
X002904Y020775D03*
X002510Y021641D03*
X002904Y021956D03*
X004794Y021523D03*
X005148Y020775D03*
X006841Y020185D03*
X009715Y018413D03*
X011959Y019279D03*
X012313Y017901D03*
X014759Y012120D03*
X014292Y011640D03*
X014805Y010935D03*
X008060Y007938D03*
X006796Y009397D03*
X006487Y008413D03*
X006822Y006161D03*
X002786Y015618D03*
X002392Y015973D03*
M02*
