%
M48
M72
T01C0.0120
T02C0.0400
%
T01
X6487Y8413
X6796Y9397
X7626Y10889
X7983Y10733
X6920Y11129
X6605Y11562
X6841Y11917
X6290Y12271
X5495Y13410
X5386Y13807
X5817Y14358
X5660Y15027
X5227Y15263
X6447Y14397
X6762Y14045
X7195Y16051
X5306Y18728
X4597Y17410
X2786Y18022
X2786Y19279
X2392Y20618
X2904Y20775
X2510Y21641
X2904Y21956
X4794Y21523
X5148Y20775
X6841Y20185
X9715Y18413
X11760Y16408
X11723Y15972
X11596Y15360
X11841Y15106
X11803Y14317
X11723Y13845
X11963Y13334
X11487Y12783
X11014Y13340
X11014Y13688
X10817Y14161
X10266Y14005
X9426Y13492
X9036Y12531
X8770Y12051
X9361Y12051
X9958Y11569
X10622Y11602
X10938Y11369
X10546Y11212
X10227Y10338
X10505Y10020
X10822Y8408
X10336Y7490
X9951Y8136
X9163Y10200
X10542Y12390
X11172Y12114
X11959Y11640
X12865Y12950
X13257Y12500
X13812Y12418
X14292Y11640
X14759Y12120
X14805Y10935
X14292Y13654
X14286Y14237
X14756Y14831
X15151Y14751
X14519Y16090
X14164Y17310
X13416Y16897
X13256Y15814
X12550Y15814
X12235Y16877
X12313Y17901
X11959Y19279
X4046Y13335
X3101Y12055
X4046Y11681
X3101Y11011
X2786Y15618
X2392Y15973
X8060Y7938
X6822Y6161
T02
X7550Y8728
X7550Y9728
X8550Y9728
X8550Y8728
X9550Y8728
X9550Y9728
X15660Y10303
X15660Y11303
X15660Y12303
X15660Y13303
X15660Y14303
X15660Y15303
X15660Y16303
X15660Y17303
X15660Y18303
X15660Y19303
X15660Y20303
X15660Y21303
X15660Y22303
X1487Y22303
X1487Y21303
X1487Y20303
X1487Y19303
X1487Y18303
X1487Y17303
X1487Y16303
X1487Y15303
X1487Y14303
X1487Y13303
X1487Y12303
X1487Y11303
X1487Y10303
M30
