G75*
%MOIN*%
%OFA0B0*%
%FSLAX24Y24*%
%IPPOS*%
%LPD*%
%AMOC8*
5,1,8,0,0,1.08239X$1,22.5*
%
%ADD10OC8,0.0820*%
%ADD11C,0.0820*%
%ADD12C,0.0360*%
D10*
X007550Y008728D03*
X007550Y009728D03*
X008550Y009728D03*
X008550Y008728D03*
X009550Y008728D03*
X009550Y009728D03*
D11*
X015660Y010303D03*
X015660Y011303D03*
X015660Y012303D03*
X015660Y013303D03*
X015660Y014303D03*
X015660Y015303D03*
X015660Y016303D03*
X015660Y017303D03*
X015660Y018303D03*
X015660Y019303D03*
X015660Y020303D03*
X015660Y021303D03*
X015660Y022303D03*
X001487Y022303D03*
X001487Y021303D03*
X001487Y020303D03*
X001487Y019303D03*
X001487Y018303D03*
X001487Y017303D03*
X001487Y016303D03*
X001487Y015303D03*
X001487Y014303D03*
X001487Y013303D03*
X001487Y012303D03*
X001487Y011303D03*
X001487Y010303D03*
D12*
X006487Y008413D03*
X006796Y009397D03*
X007626Y010889D03*
X007983Y010733D03*
X006920Y011129D03*
X006605Y011562D03*
X006841Y011917D03*
X006290Y012271D03*
X005495Y013410D03*
X005386Y013807D03*
X005817Y014358D03*
X005660Y015027D03*
X005227Y015263D03*
X006447Y014397D03*
X006762Y014045D03*
X007195Y016051D03*
X005306Y018728D03*
X004597Y017410D03*
X002786Y018022D03*
X002786Y019279D03*
X002392Y020618D03*
X002904Y020775D03*
X002510Y021641D03*
X002904Y021956D03*
X004794Y021523D03*
X005148Y020775D03*
X006841Y020185D03*
X009715Y018413D03*
X011760Y016408D03*
X011723Y015972D03*
X011596Y015360D03*
X011841Y015106D03*
X011803Y014317D03*
X011723Y013845D03*
X011963Y013334D03*
X011487Y012783D03*
X011014Y013340D03*
X011014Y013688D03*
X010817Y014161D03*
X010266Y014005D03*
X009426Y013492D03*
X009036Y012531D03*
X008770Y012051D03*
X009361Y012051D03*
X009958Y011569D03*
X010622Y011602D03*
X010938Y011369D03*
X010546Y011212D03*
X010227Y010338D03*
X010505Y010020D03*
X010822Y008408D03*
X010336Y007490D03*
X009951Y008136D03*
X009163Y010200D03*
X010542Y012390D03*
X011172Y012114D03*
X011959Y011640D03*
X012865Y012950D03*
X013257Y012500D03*
X013812Y012418D03*
X014292Y011640D03*
X014759Y012120D03*
X014805Y010935D03*
X014292Y013654D03*
X014286Y014237D03*
X014756Y014831D03*
X015151Y014751D03*
X014519Y016090D03*
X014164Y017310D03*
X013416Y016897D03*
X013256Y015814D03*
X012550Y015814D03*
X012235Y016877D03*
X012313Y017901D03*
X011959Y019279D03*
X004046Y013335D03*
X003101Y012055D03*
X004046Y011681D03*
X003101Y011011D03*
X002786Y015618D03*
X002392Y015973D03*
X008060Y007938D03*
X006822Y006161D03*
M02*
