G75*
%MOIN*%
%OFA0B0*%
%FSLAX24Y24*%
%IPPOS*%
%LPD*%
%AMOC8*
5,1,8,0,0,1.08239X$1,22.5*
%
%ADD10R,0.0118X0.0315*%
%ADD11R,0.0315X0.0118*%
%ADD12R,0.0630X0.0709*%
%ADD13R,0.0709X0.0630*%
%ADD14R,0.0709X0.0394*%
%ADD15R,0.0630X0.0710*%
%ADD16R,0.0472X0.0217*%
%ADD17R,0.0630X0.0551*%
%ADD18OC8,0.0740*%
%ADD19R,0.0472X0.0551*%
%ADD20R,0.0709X0.0354*%
%ADD21R,0.0394X0.0787*%
%ADD22R,0.0591X0.2953*%
%ADD23R,0.0394X0.2559*%
%ADD24C,0.0740*%
%ADD25C,0.0080*%
%ADD26C,0.0160*%
%ADD27C,0.0280*%
D10*
X007589Y011562D03*
X007786Y011562D03*
X007983Y011562D03*
X008180Y011562D03*
X008376Y011562D03*
X008573Y011562D03*
X008770Y011562D03*
X008967Y011562D03*
X009164Y011562D03*
X009361Y011562D03*
X009558Y011562D03*
X009558Y014240D03*
X009361Y014240D03*
X009164Y014240D03*
X008967Y014240D03*
X008770Y014240D03*
X008573Y014240D03*
X008376Y014240D03*
X008180Y014240D03*
X007983Y014240D03*
X007786Y014240D03*
X007589Y014240D03*
D11*
X007235Y013885D03*
X007235Y013688D03*
X007235Y013492D03*
X007235Y013295D03*
X007235Y013098D03*
X007235Y012901D03*
X007235Y012704D03*
X007235Y012507D03*
X007235Y012310D03*
X007235Y012114D03*
X007235Y011917D03*
X009912Y011917D03*
X009912Y012114D03*
X009912Y012310D03*
X009912Y012507D03*
X009912Y012704D03*
X009912Y012901D03*
X009912Y013098D03*
X009912Y013295D03*
X009912Y013492D03*
X009912Y013688D03*
X009912Y013885D03*
D12*
X012550Y013885D03*
X012550Y015263D03*
X013652Y015263D03*
X013652Y013885D03*
X013652Y011640D03*
X012550Y011640D03*
X012550Y019397D03*
X012550Y020775D03*
X013652Y020775D03*
X013652Y019397D03*
X004597Y019397D03*
X003495Y019397D03*
X003495Y018019D03*
X004597Y018019D03*
X004597Y016641D03*
X004597Y015263D03*
X003495Y015263D03*
X003495Y016641D03*
X003495Y013885D03*
X004597Y013885D03*
X004597Y020775D03*
X003495Y020775D03*
D13*
X005975Y010185D03*
X005975Y009082D03*
X007471Y007350D03*
X007471Y006248D03*
X008573Y006248D03*
X008573Y007350D03*
X009676Y007350D03*
X009676Y006248D03*
X011132Y009082D03*
X011132Y010185D03*
D14*
X011006Y007744D03*
X011006Y006641D03*
D15*
G36*
X004143Y009817D02*
X004743Y009626D01*
X004527Y008951D01*
X003927Y009142D01*
X004143Y009817D01*
G37*
G36*
X003076Y010158D02*
X003676Y009967D01*
X003460Y009292D01*
X002860Y009483D01*
X003076Y010158D01*
G37*
X003486Y022153D03*
X004606Y022153D03*
X012541Y022153D03*
X013661Y022153D03*
D16*
X004558Y012055D03*
X004558Y011307D03*
X003534Y011307D03*
X003534Y011681D03*
X003534Y012055D03*
D17*
X006282Y007744D03*
X006282Y006641D03*
D18*
X007550Y008728D03*
X007550Y009728D03*
X008550Y009728D03*
X008550Y008728D03*
X009550Y008728D03*
X009550Y009728D03*
D19*
X012786Y017457D03*
X013416Y017457D03*
X013416Y018323D03*
X012786Y018323D03*
D20*
X011085Y018413D03*
X011085Y019003D03*
X011085Y019594D03*
X011085Y020185D03*
X011085Y017822D03*
X011085Y017232D03*
X011085Y016641D03*
X011085Y016051D03*
X006054Y016051D03*
X006054Y016641D03*
X006054Y017232D03*
X006054Y017822D03*
X006054Y018413D03*
X006054Y019003D03*
X006054Y019594D03*
X006054Y020185D03*
D21*
G36*
X013713Y010162D02*
X014088Y010282D01*
X014327Y009534D01*
X013952Y009414D01*
X013713Y010162D01*
G37*
G36*
X011875Y009575D02*
X012250Y009695D01*
X012489Y008947D01*
X012114Y008827D01*
X011875Y009575D01*
G37*
D22*
X009951Y003055D03*
X007195Y003055D03*
D23*
X008180Y003251D03*
X008967Y003251D03*
D24*
X015660Y010303D03*
X015660Y011303D03*
X015660Y012303D03*
X015660Y013303D03*
X015660Y014303D03*
X015660Y015303D03*
X015660Y016303D03*
X015660Y017303D03*
X015660Y018303D03*
X015660Y019303D03*
X015660Y020303D03*
X015660Y021303D03*
X015660Y022303D03*
X001487Y022303D03*
X001487Y021303D03*
X001487Y020303D03*
X001487Y019303D03*
X001487Y018303D03*
X001487Y017303D03*
X001487Y016303D03*
X001487Y015303D03*
X001487Y014303D03*
X001487Y013303D03*
X001487Y012303D03*
X001487Y011303D03*
X001487Y010303D03*
D25*
X005903Y007288D02*
X005903Y007042D01*
X005913Y007047D01*
X005949Y007057D01*
X006242Y007057D01*
X006242Y006681D01*
X006322Y006681D01*
X006737Y006681D01*
X006737Y006809D01*
X006818Y006716D01*
X006818Y006708D01*
X006877Y006648D01*
X006932Y006585D01*
X006941Y006585D01*
X006947Y006579D01*
X006977Y006579D01*
X006977Y006288D01*
X007431Y006288D01*
X007431Y006208D01*
X006977Y006208D01*
X006977Y005914D01*
X006986Y005879D01*
X006404Y005879D01*
X006459Y005823D02*
X006057Y006226D01*
X006242Y006226D01*
X006242Y006601D01*
X006322Y006601D01*
X006322Y006226D01*
X006615Y006226D01*
X006651Y006235D01*
X006683Y006254D01*
X006709Y006280D01*
X006727Y006312D01*
X006737Y006347D01*
X006737Y006601D01*
X006322Y006601D01*
X006322Y006681D01*
X006322Y007007D01*
X006199Y007130D01*
X006070Y007259D01*
X006070Y007288D01*
X005903Y007288D01*
X005903Y007213D02*
X006116Y007213D01*
X006194Y007135D02*
X005903Y007135D01*
X005903Y007056D02*
X005946Y007056D01*
X006242Y007056D02*
X006273Y007056D01*
X006242Y006978D02*
X006322Y006978D01*
X006322Y006899D02*
X006242Y006899D01*
X006242Y006821D02*
X006322Y006821D01*
X006322Y006742D02*
X006242Y006742D01*
X006322Y006664D02*
X006862Y006664D01*
X006795Y006742D02*
X006737Y006742D01*
X006737Y006585D02*
X006939Y006585D01*
X006977Y006507D02*
X006737Y006507D01*
X006737Y006428D02*
X006977Y006428D01*
X006977Y006350D02*
X006737Y006350D01*
X006700Y006271D02*
X007431Y006271D01*
X007471Y006248D02*
X007471Y006161D01*
X006822Y006161D01*
X006977Y006193D02*
X006090Y006193D01*
X006168Y006114D02*
X006977Y006114D01*
X006977Y006036D02*
X006247Y006036D01*
X006325Y005957D02*
X006977Y005957D01*
X006986Y005879D02*
X007005Y005847D01*
X007031Y005821D01*
X007063Y005802D01*
X007098Y005793D01*
X007431Y005793D01*
X007431Y006208D01*
X007511Y006208D01*
X007511Y006288D01*
X007965Y006288D01*
X007965Y006581D01*
X007956Y006617D01*
X007938Y006647D01*
X008014Y006710D01*
X008066Y006664D01*
X008039Y006637D01*
X008039Y005858D01*
X008122Y005775D01*
X006507Y005775D01*
X006459Y005823D01*
X006482Y005800D02*
X007070Y005800D01*
X007431Y005800D02*
X007511Y005800D01*
X007511Y005793D02*
X007844Y005793D01*
X007879Y005802D01*
X007911Y005821D01*
X007937Y005847D01*
X007956Y005879D01*
X008039Y005879D01*
X008039Y005957D02*
X007965Y005957D01*
X007965Y005914D02*
X007965Y006208D01*
X007511Y006208D01*
X007511Y005793D01*
X007511Y005879D02*
X007431Y005879D01*
X007431Y005957D02*
X007511Y005957D01*
X007511Y006036D02*
X007431Y006036D01*
X007431Y006114D02*
X007511Y006114D01*
X007511Y006193D02*
X007431Y006193D01*
X007511Y006271D02*
X008039Y006271D01*
X008039Y006193D02*
X007965Y006193D01*
X007965Y006114D02*
X008039Y006114D01*
X008039Y006036D02*
X007965Y006036D01*
X007965Y005914D02*
X007956Y005879D01*
X007872Y005800D02*
X008097Y005800D01*
X008039Y006350D02*
X007965Y006350D01*
X007965Y006428D02*
X008039Y006428D01*
X008039Y006507D02*
X007965Y006507D01*
X007964Y006585D02*
X008039Y006585D01*
X008066Y006664D02*
X007958Y006664D01*
X007776Y006799D02*
X007936Y006930D01*
X008096Y006930D01*
X008336Y006719D01*
X010306Y006719D01*
X011006Y007460D01*
X011006Y007744D01*
X010860Y008370D02*
X010822Y008408D01*
X010502Y008728D01*
X009550Y008728D01*
X009958Y009097D02*
X011092Y009097D01*
X011092Y009122D02*
X011092Y009042D01*
X010638Y009042D01*
X010638Y008903D01*
X010593Y008948D01*
X010099Y008948D01*
X010099Y008956D01*
X009799Y009256D01*
X010060Y009517D01*
X010060Y009688D01*
X009590Y009688D01*
X009590Y009768D01*
X010060Y009768D01*
X010060Y009802D01*
X010061Y009802D01*
X010140Y009794D01*
X010150Y009802D01*
X010271Y009802D01*
X010324Y009749D01*
X010441Y009700D01*
X010569Y009700D01*
X010657Y009737D01*
X010704Y009690D01*
X011561Y009690D01*
X011666Y009795D01*
X011666Y010470D01*
X011748Y010376D01*
X011748Y010368D01*
X011807Y010309D01*
X011862Y010246D01*
X011871Y010245D01*
X011877Y010239D01*
X011961Y010239D01*
X012044Y010233D01*
X012050Y010239D01*
X013594Y010239D01*
X013580Y010211D01*
X013572Y010175D01*
X013574Y010138D01*
X013687Y009784D01*
X013969Y009874D01*
X013994Y009798D01*
X013711Y009707D01*
X013814Y009384D01*
X012656Y009016D01*
X012398Y009822D01*
X012266Y009890D01*
X011749Y009725D01*
X011596Y009725D01*
X011666Y009804D02*
X011995Y009804D01*
X011749Y009725D02*
X011681Y009593D01*
X011793Y009242D01*
X011627Y009037D01*
X011627Y009042D01*
X011172Y009042D01*
X011172Y008627D01*
X011467Y008627D01*
X011423Y008590D01*
X011093Y008590D01*
X011055Y008627D01*
X011092Y008627D01*
X011092Y009042D01*
X011172Y009042D01*
X011172Y009122D01*
X011092Y009122D01*
X010638Y009122D01*
X010638Y009416D01*
X010648Y009451D01*
X010666Y009483D01*
X010692Y009509D01*
X010724Y009528D01*
X010760Y009537D01*
X011092Y009537D01*
X011092Y009122D01*
X011092Y009176D02*
X011172Y009176D01*
X011172Y009122D02*
X011172Y009537D01*
X011505Y009537D01*
X011541Y009528D01*
X011573Y009509D01*
X011599Y009483D01*
X011617Y009451D01*
X011627Y009416D01*
X011627Y009122D01*
X011172Y009122D01*
X011172Y009097D02*
X011675Y009097D01*
X011627Y009176D02*
X011739Y009176D01*
X011789Y009254D02*
X011627Y009254D01*
X011627Y009333D02*
X011764Y009333D01*
X011739Y009411D02*
X011627Y009411D01*
X011592Y009490D02*
X011714Y009490D01*
X011689Y009568D02*
X010060Y009568D01*
X010060Y009647D02*
X011709Y009647D01*
X011666Y009882D02*
X012241Y009882D01*
X012282Y009882D02*
X013655Y009882D01*
X013630Y009961D02*
X011666Y009961D01*
X011666Y010039D02*
X013605Y010039D01*
X013580Y010118D02*
X011666Y010118D01*
X011666Y010196D02*
X013576Y010196D01*
X013680Y009804D02*
X012404Y009804D01*
X012429Y009725D02*
X013767Y009725D01*
X013749Y009804D02*
X013992Y009804D01*
X014070Y009822D02*
X014046Y009898D01*
X014328Y009988D01*
X014248Y010239D01*
X014737Y010239D01*
X014935Y010126D01*
X014978Y010083D01*
X015011Y010083D01*
X015040Y010067D01*
X015099Y010083D01*
X015156Y010083D01*
X015194Y009991D01*
X015321Y009864D01*
X014456Y009589D01*
X014353Y009912D01*
X014070Y009822D01*
X014051Y009882D02*
X014258Y009882D01*
X014241Y009961D02*
X015224Y009961D01*
X015174Y010039D02*
X014312Y010039D01*
X014287Y010118D02*
X014944Y010118D01*
X014812Y010196D02*
X014262Y010196D01*
X014362Y009882D02*
X015303Y009882D01*
X015131Y009804D02*
X014387Y009804D01*
X014413Y009725D02*
X014885Y009725D01*
X014638Y009647D02*
X014438Y009647D01*
X013806Y009411D02*
X012529Y009411D01*
X012504Y009490D02*
X013781Y009490D01*
X013755Y009568D02*
X012479Y009568D01*
X012454Y009647D02*
X013730Y009647D01*
X013651Y009333D02*
X012555Y009333D01*
X012580Y009254D02*
X013404Y009254D01*
X013158Y009176D02*
X012605Y009176D01*
X012630Y009097D02*
X012911Y009097D01*
X012664Y009019D02*
X012655Y009019D01*
X012182Y009261D02*
X012060Y009222D01*
X011723Y008807D01*
X011723Y008557D01*
X011536Y008370D01*
X010860Y008370D01*
X011056Y008626D02*
X011466Y008626D01*
X011172Y008705D02*
X011092Y008705D01*
X011092Y008783D02*
X011172Y008783D01*
X011172Y008862D02*
X011092Y008862D01*
X011092Y008940D02*
X011172Y008940D01*
X011172Y009019D02*
X011092Y009019D01*
X011092Y009254D02*
X011172Y009254D01*
X011172Y009333D02*
X011092Y009333D01*
X011092Y009411D02*
X011172Y009411D01*
X011172Y009490D02*
X011092Y009490D01*
X010672Y009490D02*
X010033Y009490D01*
X009954Y009411D02*
X010638Y009411D01*
X010638Y009333D02*
X009876Y009333D01*
X009801Y009254D02*
X010638Y009254D01*
X010638Y009176D02*
X009879Y009176D01*
X010036Y009019D02*
X010638Y009019D01*
X010638Y008940D02*
X010601Y008940D01*
X010628Y009725D02*
X010668Y009725D01*
X010381Y009725D02*
X009590Y009725D01*
X009590Y009768D02*
X009510Y009768D01*
X009510Y010238D01*
X009482Y010238D01*
X009482Y010240D01*
X009610Y010240D01*
X009612Y010238D01*
X009590Y010238D01*
X009590Y009768D01*
X009590Y009804D02*
X009510Y009804D01*
X009510Y009882D02*
X009590Y009882D01*
X009590Y009961D02*
X009510Y009961D01*
X009510Y010039D02*
X009590Y010039D01*
X009590Y010118D02*
X009510Y010118D01*
X009510Y010196D02*
X009590Y010196D01*
X009714Y010460D02*
X010072Y010022D01*
X010387Y010022D01*
X010505Y010020D01*
X010227Y010338D02*
X010227Y010516D01*
X010096Y010690D01*
X008716Y010690D01*
X008176Y011096D01*
X008176Y011090D01*
X008180Y011247D01*
X008180Y011562D01*
X008376Y011562D02*
X008376Y011990D01*
X008256Y012110D01*
X007696Y012110D01*
X007235Y012110D01*
X007235Y012114D01*
X007235Y012310D02*
X006329Y012310D01*
X006290Y012271D01*
X006132Y012507D02*
X007235Y012507D01*
X007235Y012704D02*
X006054Y012704D01*
X005896Y012547D01*
X002865Y012547D01*
X002628Y012310D01*
X001988Y011642D01*
X001649Y011303D01*
X001487Y011303D01*
X002226Y011552D02*
X002226Y010458D01*
X002077Y010303D01*
X001487Y010303D01*
X001844Y009882D02*
X002907Y009882D01*
X002847Y009901D02*
X003242Y009775D01*
X003218Y009699D01*
X002823Y009825D01*
X002742Y009572D01*
X001825Y009864D01*
X001953Y009991D01*
X001990Y010082D01*
X001991Y010081D01*
X002079Y010083D01*
X002168Y010083D01*
X002170Y010085D01*
X002173Y010085D01*
X002234Y010149D01*
X002297Y010212D01*
X002297Y010214D01*
X002383Y010304D01*
X002446Y010367D01*
X002446Y010369D01*
X002447Y010371D01*
X002446Y010460D01*
X002446Y011468D01*
X002824Y011886D01*
X002830Y011873D01*
X002920Y011784D01*
X003037Y011735D01*
X003158Y011735D01*
X003158Y011695D01*
X003520Y011695D01*
X003520Y011666D01*
X003158Y011666D01*
X003158Y011554D01*
X003163Y011534D01*
X003118Y011489D01*
X003118Y011331D01*
X003037Y011331D01*
X002920Y011282D01*
X002830Y011192D01*
X002781Y011075D01*
X002781Y010948D01*
X002830Y010830D01*
X002920Y010740D01*
X003037Y010692D01*
X003164Y010692D01*
X003282Y010740D01*
X003314Y010772D01*
X003314Y010605D01*
X003747Y010172D01*
X003876Y010043D01*
X005441Y010043D01*
X005441Y009795D01*
X005546Y009690D01*
X005755Y009690D01*
X005755Y009660D01*
X005839Y009577D01*
X005546Y009577D01*
X005441Y009472D01*
X005441Y009305D01*
X004878Y009459D01*
X004937Y009643D01*
X004869Y009775D01*
X004127Y010012D01*
X003994Y009944D01*
X003771Y009245D01*
X003609Y009296D01*
X003690Y009548D01*
X003294Y009675D01*
X003319Y009751D01*
X003242Y009775D01*
X003381Y010208D01*
X003101Y010298D01*
X003064Y010299D01*
X003028Y010292D01*
X002996Y010275D01*
X002968Y010250D01*
X002948Y010219D01*
X002847Y009901D01*
X002866Y009961D02*
X001922Y009961D01*
X001973Y010039D02*
X002891Y010039D01*
X002916Y010118D02*
X002204Y010118D01*
X002281Y010196D02*
X002941Y010196D01*
X002995Y010275D02*
X002355Y010275D01*
X002432Y010353D02*
X003566Y010353D01*
X003488Y010432D02*
X002446Y010432D01*
X002446Y010510D02*
X003409Y010510D01*
X003331Y010589D02*
X002446Y010589D01*
X002446Y010667D02*
X003314Y010667D01*
X003314Y010746D02*
X003287Y010746D01*
X003534Y010696D02*
X003967Y010263D01*
X005896Y010263D01*
X005975Y010185D01*
X005975Y009751D01*
X006093Y009633D01*
X006369Y009633D01*
X006487Y009515D01*
X006487Y008413D01*
X006282Y008208D01*
X006282Y007744D01*
X006290Y007736D01*
X006290Y007350D01*
X006526Y007114D01*
X006762Y007114D01*
X007038Y006799D01*
X007776Y006799D01*
X007471Y007350D02*
X007471Y007744D01*
X007473Y007901D01*
X007477Y007901D01*
X006796Y008655D01*
X006796Y009397D01*
X007000Y009646D02*
X006977Y009668D01*
X006860Y009717D01*
X006733Y009717D01*
X006636Y009677D01*
X006578Y009735D01*
X006509Y009804D01*
X006509Y010574D01*
X006404Y010679D01*
X005546Y010679D01*
X005441Y010574D01*
X005441Y010483D01*
X004058Y010483D01*
X003754Y010787D01*
X003754Y011019D01*
X003845Y011019D01*
X003950Y011124D01*
X003950Y011489D01*
X003905Y011534D01*
X003910Y011554D01*
X003910Y011666D01*
X003548Y011666D01*
X003548Y011695D01*
X003910Y011695D01*
X003910Y011807D01*
X003905Y011827D01*
X003950Y011872D01*
X003950Y012169D01*
X004142Y012169D01*
X004142Y011872D01*
X004247Y011767D01*
X004868Y011767D01*
X004937Y011835D01*
X005406Y011835D01*
X005904Y011402D01*
X005963Y011343D01*
X005971Y011343D01*
X005978Y011337D01*
X006061Y011343D01*
X006372Y011343D01*
X006424Y011291D01*
X006541Y011243D01*
X006621Y011243D01*
X006600Y011193D01*
X006600Y011066D01*
X006649Y010948D01*
X006739Y010858D01*
X006856Y010810D01*
X006983Y010810D01*
X007101Y010858D01*
X007156Y010914D01*
X007156Y010704D01*
X007151Y010620D01*
X007156Y010614D01*
X007156Y010607D01*
X007216Y010547D01*
X007367Y010377D01*
X007367Y010369D01*
X007426Y010309D01*
X007455Y010278D01*
X007322Y010278D01*
X007000Y009956D01*
X007000Y009646D01*
X006999Y009647D02*
X007000Y009647D01*
X007000Y009725D02*
X006588Y009725D01*
X006509Y009804D02*
X007000Y009804D01*
X007000Y009882D02*
X006509Y009882D01*
X006509Y009961D02*
X007005Y009961D01*
X007083Y010039D02*
X006509Y010039D01*
X006509Y010118D02*
X007162Y010118D01*
X007240Y010196D02*
X006509Y010196D01*
X006509Y010275D02*
X007319Y010275D01*
X007383Y010353D02*
X006509Y010353D01*
X006509Y010432D02*
X007318Y010432D01*
X007249Y010510D02*
X006509Y010510D01*
X006494Y010589D02*
X007174Y010589D01*
X007154Y010667D02*
X006416Y010667D01*
X006694Y010903D02*
X003754Y010903D01*
X003754Y010981D02*
X006635Y010981D01*
X006603Y011060D02*
X004909Y011060D01*
X004868Y011019D02*
X004974Y011124D01*
X004974Y011489D01*
X004868Y011595D01*
X004247Y011595D01*
X004142Y011489D01*
X004142Y011124D01*
X004247Y011019D01*
X004868Y011019D01*
X004974Y011138D02*
X006600Y011138D01*
X006610Y011217D02*
X004974Y011217D01*
X004974Y011295D02*
X006420Y011295D01*
X006605Y011562D02*
X006054Y011562D01*
X005488Y012055D01*
X004558Y012055D01*
X004142Y012080D02*
X003950Y012080D01*
X003950Y012002D02*
X004142Y012002D01*
X004142Y011923D02*
X003950Y011923D01*
X003923Y011845D02*
X004169Y011845D01*
X004046Y011681D02*
X003534Y011681D01*
X003548Y011688D02*
X005575Y011688D01*
X005485Y011766D02*
X003910Y011766D01*
X003910Y011609D02*
X005665Y011609D01*
X005755Y011531D02*
X004932Y011531D01*
X004974Y011452D02*
X005846Y011452D01*
X005932Y011374D02*
X004974Y011374D01*
X005455Y010589D02*
X003952Y010589D01*
X003874Y010667D02*
X005534Y010667D01*
X005441Y010510D02*
X004031Y010510D01*
X003795Y010746D02*
X007156Y010746D01*
X007156Y010824D02*
X007018Y010824D01*
X007145Y010903D02*
X007156Y010903D01*
X007376Y010698D02*
X007587Y010460D01*
X009714Y010460D01*
X009163Y010200D02*
X008691Y010200D01*
X008534Y010026D01*
X008534Y009744D01*
X008550Y009728D01*
X007983Y010733D02*
X007983Y011562D01*
X007786Y011562D02*
X007786Y011170D01*
X007626Y011020D01*
X007626Y010889D01*
X007376Y010698D02*
X007376Y011170D01*
X007589Y011383D01*
X007589Y011562D01*
X007572Y011900D02*
X007572Y012050D01*
X007532Y012090D01*
X007532Y012114D01*
X007532Y012137D01*
X007572Y012177D01*
X007572Y013625D01*
X007532Y013665D01*
X007532Y013688D01*
X007509Y013688D01*
X007509Y013688D01*
X007509Y013688D01*
X007532Y013688D01*
X007532Y013712D01*
X007572Y013752D01*
X007572Y013942D01*
X007589Y013942D01*
X007589Y013966D01*
X007589Y013966D01*
X007589Y013942D01*
X007613Y013942D01*
X007652Y013902D01*
X009494Y013902D01*
X009534Y013942D01*
X009558Y013942D01*
X009575Y013942D01*
X009575Y013776D01*
X009489Y013811D01*
X009362Y013811D01*
X009244Y013763D01*
X009154Y013673D01*
X009106Y013555D01*
X009106Y013428D01*
X009154Y013310D01*
X009244Y013221D01*
X009362Y013172D01*
X009489Y013172D01*
X009575Y013207D01*
X009575Y012571D01*
X009614Y012531D01*
X009614Y012507D01*
X009614Y012484D01*
X009575Y012444D01*
X009575Y012290D01*
X009542Y012322D01*
X009424Y012371D01*
X009316Y012371D01*
X009356Y012468D01*
X009356Y012595D01*
X009307Y012712D01*
X009217Y012802D01*
X009100Y012851D01*
X008973Y012851D01*
X008855Y012802D01*
X008765Y012712D01*
X008716Y012595D01*
X008716Y012468D01*
X008756Y012371D01*
X008707Y012371D01*
X008589Y012322D01*
X008499Y012232D01*
X008450Y012115D01*
X008450Y011988D01*
X008487Y011900D01*
X008440Y011900D01*
X008400Y011860D01*
X008376Y011860D01*
X008353Y011860D01*
X008313Y011900D01*
X007572Y011900D01*
X007572Y011923D02*
X008477Y011923D01*
X008450Y012002D02*
X007572Y012002D01*
X007542Y012080D02*
X008450Y012080D01*
X008468Y012159D02*
X007554Y012159D01*
X007532Y012114D02*
X007509Y012114D01*
X007509Y012114D01*
X007509Y012114D01*
X007532Y012114D01*
X007572Y012237D02*
X008504Y012237D01*
X008582Y012316D02*
X007572Y012316D01*
X007572Y012394D02*
X008747Y012394D01*
X008716Y012473D02*
X007572Y012473D01*
X007572Y012551D02*
X008716Y012551D01*
X008731Y012630D02*
X007572Y012630D01*
X007572Y012708D02*
X008763Y012708D01*
X008839Y012787D02*
X007572Y012787D01*
X007572Y012865D02*
X009575Y012865D01*
X009575Y012787D02*
X009233Y012787D01*
X009309Y012708D02*
X009575Y012708D01*
X009575Y012630D02*
X009342Y012630D01*
X009356Y012551D02*
X009594Y012551D01*
X009614Y012507D02*
X009638Y012507D01*
X009614Y012507D01*
X009638Y012507D02*
X009638Y012507D01*
X009638Y012507D01*
X009639Y012507D02*
X008816Y013330D01*
X008816Y013650D01*
X008778Y013688D01*
X007696Y013688D01*
X007696Y013890D01*
X007589Y013997D01*
X007589Y014240D01*
X007547Y014240D02*
X007390Y014240D01*
X007547Y014240D01*
X007547Y014240D01*
X007390Y014240D02*
X007390Y014416D01*
X007400Y014451D01*
X007418Y014483D01*
X007444Y014509D01*
X007476Y014528D01*
X007512Y014537D01*
X007566Y014537D01*
X007566Y014779D01*
X007537Y014807D01*
X006982Y014807D01*
X006982Y014278D01*
X007390Y014278D01*
X007390Y014240D02*
X007390Y014124D01*
X007076Y014124D01*
X007033Y014226D01*
X006982Y014278D01*
X006982Y014357D02*
X007390Y014357D01*
X007395Y014435D02*
X006982Y014435D01*
X006982Y014514D02*
X007452Y014514D01*
X007566Y014592D02*
X006982Y014592D01*
X006982Y014671D02*
X007566Y014671D01*
X007566Y014749D02*
X006982Y014749D01*
X006762Y014751D02*
X006762Y014045D01*
X006762Y014024D01*
X006896Y013885D01*
X007235Y013885D01*
X007235Y013688D02*
X007696Y013688D01*
X007696Y012110D01*
X007235Y011917D02*
X006841Y011917D01*
X006841Y011681D01*
X006920Y011602D01*
X006920Y011129D01*
X006821Y010824D02*
X003754Y010824D01*
X003534Y010696D02*
X003534Y011051D01*
X003495Y011011D01*
X003101Y011011D01*
X002807Y011138D02*
X002446Y011138D01*
X002446Y011060D02*
X002781Y011060D01*
X002781Y010981D02*
X002446Y010981D01*
X002446Y010903D02*
X002800Y010903D01*
X002836Y010824D02*
X002446Y010824D01*
X002446Y010746D02*
X002914Y010746D01*
X002854Y011217D02*
X002446Y011217D01*
X002446Y011295D02*
X002950Y011295D01*
X003118Y011374D02*
X002446Y011374D01*
X002446Y011452D02*
X003118Y011452D01*
X003159Y011531D02*
X002502Y011531D01*
X002573Y011609D02*
X003158Y011609D01*
X002962Y011766D02*
X002715Y011766D01*
X002644Y011688D02*
X003520Y011688D01*
X003534Y011307D02*
X003534Y011051D01*
X003886Y011060D02*
X004206Y011060D01*
X004142Y011138D02*
X003950Y011138D01*
X003950Y011217D02*
X004142Y011217D01*
X004142Y011295D02*
X003950Y011295D01*
X003950Y011374D02*
X004142Y011374D01*
X004142Y011452D02*
X003950Y011452D01*
X003909Y011531D02*
X004183Y011531D01*
X004142Y012159D02*
X003950Y012159D01*
X003534Y012055D02*
X003101Y012055D01*
X002983Y012389D02*
X006014Y012389D01*
X006132Y012507D01*
X005778Y012704D02*
X005975Y012901D01*
X007235Y012901D01*
X007235Y013098D02*
X005935Y013098D01*
X005699Y012862D01*
X003140Y012862D01*
X002707Y013295D01*
X001495Y013295D01*
X001487Y013303D01*
X001502Y014279D02*
X001487Y014303D01*
X001502Y014279D02*
X002707Y014279D01*
X002943Y014043D01*
X002943Y013492D01*
X003416Y013019D01*
X005621Y013019D01*
X005896Y013295D01*
X007235Y013295D01*
X007235Y013492D02*
X005574Y013492D01*
X005495Y013410D01*
X005175Y013415D02*
X005050Y013415D01*
X005092Y013457D02*
X005092Y013666D01*
X005121Y013666D01*
X005250Y013794D01*
X005318Y013862D01*
X006066Y013862D01*
X006195Y013991D01*
X006311Y014107D01*
X006384Y014077D01*
X006442Y014077D01*
X006442Y013982D01*
X006491Y013864D01*
X006581Y013774D01*
X006699Y013726D01*
X006745Y013726D01*
X006759Y013711D01*
X005663Y013711D01*
X005661Y013713D01*
X005603Y013712D01*
X005558Y013730D01*
X005431Y013730D01*
X005314Y013681D01*
X005224Y013591D01*
X005175Y013474D01*
X005175Y013347D01*
X005220Y013239D01*
X003507Y013239D01*
X003355Y013391D01*
X003455Y013391D01*
X003455Y013845D01*
X003535Y013845D01*
X003535Y013925D01*
X003949Y013925D01*
X003949Y014215D01*
X004102Y014215D01*
X004102Y013457D01*
X004207Y013351D01*
X004986Y013351D01*
X005092Y013457D01*
X005092Y013493D02*
X005183Y013493D01*
X005216Y013572D02*
X005092Y013572D01*
X005092Y013650D02*
X005282Y013650D01*
X005184Y013729D02*
X005428Y013729D01*
X005386Y013807D02*
X006093Y013807D01*
X006211Y013688D01*
X007235Y013688D01*
X007547Y013650D02*
X009145Y013650D01*
X009113Y013572D02*
X007572Y013572D01*
X007572Y013493D02*
X009106Y013493D01*
X009111Y013415D02*
X007572Y013415D01*
X007572Y013336D02*
X009144Y013336D01*
X009207Y013258D02*
X007572Y013258D01*
X007572Y013179D02*
X009345Y013179D01*
X009507Y013179D02*
X009575Y013179D01*
X009575Y013101D02*
X007572Y013101D01*
X007572Y013022D02*
X009575Y013022D01*
X009575Y012944D02*
X007572Y012944D01*
X007549Y013729D02*
X009210Y013729D01*
X009352Y013807D02*
X007572Y013807D01*
X007572Y013886D02*
X009575Y013886D01*
X009558Y013942D02*
X009558Y013966D01*
X009558Y013966D01*
X009558Y013942D01*
X009558Y013964D02*
X009558Y013964D01*
X009556Y013970D02*
X009556Y014218D01*
X009558Y014240D01*
X009556Y014240D01*
X009558Y014240D02*
X009798Y014236D01*
X010752Y014236D01*
X010817Y014161D01*
X010853Y014144D02*
X010725Y014144D01*
X010683Y014174D01*
X010632Y014224D01*
X010611Y014224D01*
X010602Y014230D01*
X010814Y014230D01*
X010873Y014178D01*
X010873Y014153D01*
X010853Y014144D01*
X010849Y014200D02*
X010657Y014200D01*
X010541Y014005D02*
X010656Y013925D01*
X010896Y013925D01*
X011091Y014005D01*
X011093Y014005D01*
X011489Y013590D01*
X011958Y013590D01*
X012195Y013885D01*
X012550Y013885D01*
X012006Y014081D02*
X012166Y014436D01*
X014046Y014436D01*
X014286Y014237D01*
X014437Y014515D02*
X014911Y014515D01*
X015151Y014751D01*
X015660Y014303D02*
X014447Y013090D01*
X013376Y013090D01*
X013132Y013334D01*
X011963Y013334D01*
X011770Y013177D02*
X011856Y013090D01*
X012576Y013090D01*
X012656Y013177D01*
X013050Y013177D01*
X013296Y012930D01*
X014626Y012930D01*
X014998Y013303D01*
X015660Y013303D01*
X015660Y012303D02*
X015078Y012303D01*
X014611Y012770D01*
X013056Y012770D01*
X012976Y012690D01*
X011776Y012690D01*
X011683Y012783D01*
X011487Y012783D01*
X011369Y013019D02*
X011250Y012901D01*
X009912Y012901D01*
X009912Y012704D02*
X011092Y012704D01*
X011329Y012506D01*
X013141Y012506D01*
X013141Y012500D01*
X013257Y012500D01*
X013584Y012258D02*
X011327Y012258D01*
X011172Y012114D01*
X009912Y012114D01*
X009912Y012310D02*
X010256Y012310D01*
X010357Y012390D01*
X010542Y012390D01*
X010896Y011917D02*
X009912Y011917D01*
X009958Y011569D02*
X009951Y011562D01*
X009558Y011562D01*
X009361Y011562D02*
X009361Y012051D01*
X009164Y011842D02*
X009036Y011970D01*
X009036Y012531D01*
X009325Y012394D02*
X009575Y012394D01*
X009575Y012316D02*
X009549Y012316D01*
X009603Y012473D02*
X009356Y012473D01*
X009639Y012507D02*
X009912Y012507D01*
X009912Y013098D02*
X011172Y013098D01*
X011250Y013177D01*
X011770Y013177D01*
X011685Y013019D02*
X011804Y012900D01*
X012816Y012900D01*
X012866Y012950D01*
X012865Y012950D01*
X013584Y012258D02*
X013812Y012418D01*
X013652Y011640D02*
X014292Y011640D01*
X014283Y011287D02*
X013890Y010813D01*
X012747Y010813D01*
X012550Y011010D01*
X012550Y011640D01*
X011959Y011640D01*
X011604Y012120D02*
X011289Y011837D01*
X011029Y011837D01*
X010896Y011917D01*
X010622Y011602D02*
X010528Y011602D01*
X010496Y011570D01*
X010074Y011134D01*
X009012Y011134D01*
X008770Y011330D01*
X008770Y011562D01*
X008770Y012051D01*
X008376Y011860D02*
X008376Y011836D01*
X008376Y011860D01*
X008376Y011845D02*
X008376Y011845D01*
X008376Y011836D02*
X008376Y011836D01*
X008376Y011836D01*
X008573Y011562D02*
X008573Y011214D01*
X009011Y010900D01*
X010896Y010900D01*
X011132Y010614D01*
X011132Y010185D01*
X011666Y010275D02*
X011837Y010275D01*
X011763Y010353D02*
X011666Y010353D01*
X011666Y010432D02*
X011700Y010432D01*
X011968Y010459D02*
X011413Y011094D01*
X010744Y011094D01*
X010546Y011212D01*
X010938Y011369D02*
X011526Y011369D01*
X012156Y010640D01*
X014536Y010640D01*
X014805Y010935D01*
X014795Y010459D02*
X011968Y010459D01*
X011604Y012120D02*
X014759Y012120D01*
X014283Y011287D02*
X015636Y011287D01*
X015660Y011303D01*
X015660Y010303D02*
X015069Y010303D01*
X014795Y010459D01*
X014292Y013654D02*
X014292Y013694D01*
X014096Y013890D01*
X013652Y013885D01*
X014358Y014594D02*
X014437Y014515D01*
X014358Y014594D02*
X011792Y014594D01*
X011296Y015090D01*
X010256Y015090D01*
X010124Y015223D01*
X008773Y015223D01*
X008573Y015023D01*
X008573Y014240D01*
X008376Y014240D02*
X008376Y015101D01*
X008656Y015380D01*
X010206Y015380D01*
X010336Y015250D01*
X011342Y015250D01*
X011841Y014751D01*
X014496Y014751D01*
X014558Y014831D01*
X014756Y014831D01*
X014674Y015303D02*
X015660Y015303D01*
X015660Y016303D02*
X015352Y016610D01*
X011936Y016610D01*
X011760Y016434D01*
X011760Y016408D01*
X012176Y016370D02*
X011778Y015972D01*
X011723Y015972D01*
X011880Y015618D02*
X012354Y016091D01*
X014005Y016091D01*
X014674Y015303D01*
X014519Y016090D02*
X014239Y016370D01*
X012176Y016370D01*
X012235Y016877D02*
X012766Y016877D01*
X012786Y017457D01*
X012746Y017418D02*
X011619Y017418D01*
X011619Y017483D02*
X011547Y017555D01*
X011551Y017559D01*
X011570Y017591D01*
X011579Y017627D01*
X011579Y017782D01*
X011329Y017782D01*
X011329Y017862D01*
X011579Y017862D01*
X011579Y018018D01*
X011570Y018054D01*
X011551Y018085D01*
X011547Y018089D01*
X011619Y018161D01*
X011619Y018664D01*
X011576Y018708D01*
X011619Y018752D01*
X011619Y019255D01*
X011576Y019299D01*
X011619Y019342D01*
X011619Y019374D01*
X011652Y019374D01*
X011639Y019343D01*
X011639Y019215D01*
X011688Y019098D01*
X011778Y019008D01*
X011896Y018959D01*
X012023Y018959D01*
X012055Y018973D01*
X012055Y018968D01*
X012160Y018863D01*
X012939Y018863D01*
X013044Y018968D01*
X013044Y019826D01*
X012939Y019931D01*
X012218Y019931D01*
X012218Y020241D01*
X012939Y020241D01*
X013044Y020346D01*
X013044Y021204D01*
X012939Y021309D01*
X012160Y021309D01*
X012055Y021204D01*
X012055Y020985D01*
X011907Y020837D01*
X011809Y020738D01*
X011809Y022422D01*
X012086Y022422D01*
X012086Y022193D01*
X012501Y022193D01*
X012501Y022113D01*
X012581Y022113D01*
X012581Y021658D01*
X012874Y021658D01*
X012910Y021668D01*
X012942Y021686D01*
X012968Y021712D01*
X012986Y021744D01*
X012996Y021780D01*
X012996Y022113D01*
X012581Y022113D01*
X012581Y022193D01*
X012996Y022193D01*
X012996Y022422D01*
X013166Y022422D01*
X013166Y021724D01*
X013271Y021618D01*
X013441Y021618D01*
X013441Y021309D01*
X013263Y021309D01*
X013157Y021204D01*
X013157Y020346D01*
X013263Y020241D01*
X014041Y020241D01*
X014147Y020346D01*
X014147Y021204D01*
X014041Y021309D01*
X013880Y021309D01*
X013880Y021618D01*
X014050Y021618D01*
X014155Y021724D01*
X014155Y022422D01*
X015114Y022422D01*
X015110Y022412D01*
X015110Y022193D01*
X015194Y021991D01*
X015348Y021837D01*
X015430Y021803D01*
X015348Y021769D01*
X015194Y021614D01*
X015110Y021412D01*
X015110Y021193D01*
X015194Y020991D01*
X015348Y020837D01*
X015430Y020803D01*
X015348Y020769D01*
X015194Y020614D01*
X015110Y020412D01*
X015110Y020193D01*
X015194Y019991D01*
X015348Y019837D01*
X015430Y019803D01*
X015348Y019769D01*
X015194Y019614D01*
X015110Y019412D01*
X015110Y019193D01*
X015194Y018991D01*
X015348Y018837D01*
X015430Y018803D01*
X015348Y018769D01*
X015194Y018614D01*
X015110Y018412D01*
X015110Y018193D01*
X015194Y017991D01*
X015348Y017837D01*
X015430Y017803D01*
X015348Y017769D01*
X015194Y017614D01*
X015156Y017522D01*
X014404Y017522D01*
X014345Y017582D01*
X014227Y017630D01*
X014100Y017630D01*
X013983Y017582D01*
X013893Y017492D01*
X013844Y017374D01*
X013844Y017247D01*
X013893Y017129D01*
X013983Y017039D01*
X014100Y016991D01*
X014227Y016991D01*
X014345Y017039D01*
X014388Y017083D01*
X015156Y017083D01*
X015194Y016991D01*
X015348Y016837D01*
X015365Y016830D01*
X013734Y016830D01*
X013736Y016834D01*
X013736Y016961D01*
X013719Y017002D01*
X013726Y017002D01*
X013832Y017107D01*
X013832Y017807D01*
X013726Y017912D01*
X013688Y017912D01*
X013706Y017917D01*
X013738Y017936D01*
X013764Y017962D01*
X013782Y017994D01*
X013792Y018029D01*
X013792Y018283D01*
X013456Y018283D01*
X013456Y018363D01*
X013792Y018363D01*
X013792Y018617D01*
X013782Y018653D01*
X013764Y018685D01*
X013738Y018711D01*
X013706Y018729D01*
X013670Y018739D01*
X013456Y018739D01*
X013456Y018363D01*
X013376Y018363D01*
X013376Y018739D01*
X013161Y018739D01*
X013142Y018734D01*
X013097Y018779D01*
X012475Y018779D01*
X012370Y018673D01*
X012370Y018543D01*
X012325Y018543D01*
X012313Y018531D01*
X012296Y018528D01*
X012250Y018468D01*
X012196Y018414D01*
X012196Y018397D01*
X012147Y018332D01*
X012094Y018278D01*
X012094Y018261D01*
X012083Y018247D01*
X012094Y018172D01*
X012094Y018133D01*
X012042Y018082D01*
X011994Y017965D01*
X011994Y017837D01*
X012042Y017720D01*
X012132Y017630D01*
X012250Y017581D01*
X012377Y017581D01*
X012410Y017595D01*
X012410Y017497D01*
X012746Y017497D01*
X012746Y017417D01*
X012826Y017417D01*
X012826Y017042D01*
X013041Y017042D01*
X013060Y017047D01*
X013105Y017002D01*
X013113Y017002D01*
X013096Y016961D01*
X013096Y016834D01*
X013098Y016830D01*
X011845Y016830D01*
X011743Y016727D01*
X011696Y016727D01*
X011619Y016695D01*
X011619Y016893D01*
X011576Y016936D01*
X011619Y016980D01*
X011619Y017483D01*
X011606Y017497D02*
X012746Y017497D01*
X012746Y017417D02*
X012410Y017417D01*
X012410Y017163D01*
X012419Y017127D01*
X012438Y017096D01*
X012464Y017069D01*
X012496Y017051D01*
X012531Y017042D01*
X012746Y017042D01*
X012746Y017417D01*
X012746Y017340D02*
X012826Y017340D01*
X012826Y017261D02*
X012746Y017261D01*
X012746Y017183D02*
X012826Y017183D01*
X012826Y017104D02*
X012746Y017104D01*
X012433Y017104D02*
X011619Y017104D01*
X011619Y017026D02*
X013081Y017026D01*
X013096Y016947D02*
X011586Y016947D01*
X011619Y016869D02*
X013096Y016869D01*
X013416Y016897D02*
X013416Y017457D01*
X013750Y017026D02*
X014016Y017026D01*
X013918Y017104D02*
X013829Y017104D01*
X013832Y017183D02*
X013871Y017183D01*
X013844Y017261D02*
X013832Y017261D01*
X013832Y017340D02*
X013844Y017340D01*
X013832Y017418D02*
X013862Y017418D01*
X013832Y017497D02*
X013898Y017497D01*
X013832Y017575D02*
X013976Y017575D01*
X013832Y017654D02*
X015233Y017654D01*
X015178Y017575D02*
X014351Y017575D01*
X014250Y017303D02*
X014164Y017310D01*
X014250Y017303D02*
X015660Y017303D01*
X015238Y016947D02*
X013736Y016947D01*
X013736Y016869D02*
X015316Y016869D01*
X015180Y017026D02*
X014312Y017026D01*
X013832Y017732D02*
X015312Y017732D01*
X015411Y017811D02*
X013828Y017811D01*
X013750Y017889D02*
X015296Y017889D01*
X015217Y017968D02*
X013767Y017968D01*
X013792Y018046D02*
X015171Y018046D01*
X015139Y018125D02*
X013792Y018125D01*
X013792Y018203D02*
X015110Y018203D01*
X015110Y018282D02*
X013792Y018282D01*
X013792Y018439D02*
X015121Y018439D01*
X015110Y018360D02*
X013456Y018360D01*
X013456Y018439D02*
X013376Y018439D01*
X013376Y018517D02*
X013456Y018517D01*
X013456Y018596D02*
X013376Y018596D01*
X013376Y018674D02*
X013456Y018674D01*
X013319Y018903D02*
X013612Y018903D01*
X013612Y019357D01*
X013692Y019357D01*
X013692Y018903D01*
X013985Y018903D01*
X014021Y018912D01*
X014053Y018931D01*
X014079Y018957D01*
X014097Y018989D01*
X014107Y019024D01*
X014107Y019357D01*
X013692Y019357D01*
X013692Y019437D01*
X014107Y019437D01*
X014107Y019770D01*
X014097Y019805D01*
X014079Y019837D01*
X014053Y019863D01*
X014021Y019882D01*
X013985Y019891D01*
X013692Y019891D01*
X013692Y019437D01*
X013612Y019437D01*
X013612Y019357D01*
X013197Y019357D01*
X013197Y019024D01*
X013207Y018989D01*
X013225Y018957D01*
X013251Y018931D01*
X013283Y018912D01*
X013319Y018903D01*
X013293Y018910D02*
X012986Y018910D01*
X013044Y018988D02*
X013207Y018988D01*
X013197Y019067D02*
X013044Y019067D01*
X013044Y019145D02*
X013197Y019145D01*
X013197Y019224D02*
X013044Y019224D01*
X013044Y019302D02*
X013197Y019302D01*
X013197Y019437D02*
X013612Y019437D01*
X013612Y019891D01*
X013319Y019891D01*
X013283Y019882D01*
X013251Y019863D01*
X013225Y019837D01*
X013207Y019805D01*
X013197Y019770D01*
X013197Y019437D01*
X013197Y019459D02*
X013044Y019459D01*
X013044Y019381D02*
X013612Y019381D01*
X013612Y019459D02*
X013692Y019459D01*
X013692Y019381D02*
X015110Y019381D01*
X015110Y019302D02*
X014107Y019302D01*
X014107Y019224D02*
X015110Y019224D01*
X015130Y019145D02*
X014107Y019145D01*
X014107Y019067D02*
X015163Y019067D01*
X015197Y018988D02*
X014097Y018988D01*
X014011Y018910D02*
X015275Y018910D01*
X015362Y018831D02*
X011619Y018831D01*
X011619Y018753D02*
X012449Y018753D01*
X012371Y018674D02*
X011610Y018674D01*
X011619Y018596D02*
X012370Y018596D01*
X012287Y018517D02*
X011619Y018517D01*
X011619Y018439D02*
X012221Y018439D01*
X012169Y018360D02*
X011619Y018360D01*
X011619Y018282D02*
X012097Y018282D01*
X012089Y018203D02*
X011619Y018203D01*
X011583Y018125D02*
X012085Y018125D01*
X012027Y018046D02*
X011572Y018046D01*
X011579Y017968D02*
X011995Y017968D01*
X011994Y017889D02*
X011579Y017889D01*
X011579Y017732D02*
X012037Y017732D01*
X012005Y017811D02*
X011329Y017811D01*
X011579Y017654D02*
X012109Y017654D01*
X012313Y017901D02*
X012313Y018187D01*
X012416Y018323D01*
X012786Y018323D01*
X013123Y018753D02*
X015332Y018753D01*
X015254Y018674D02*
X013770Y018674D01*
X013792Y018596D02*
X015186Y018596D01*
X015154Y018517D02*
X013792Y018517D01*
X013692Y018910D02*
X013612Y018910D01*
X013612Y018988D02*
X013692Y018988D01*
X013692Y019067D02*
X013612Y019067D01*
X013612Y019145D02*
X013692Y019145D01*
X013692Y019224D02*
X013612Y019224D01*
X013612Y019302D02*
X013692Y019302D01*
X013692Y019538D02*
X013612Y019538D01*
X013612Y019616D02*
X013692Y019616D01*
X013692Y019695D02*
X013612Y019695D01*
X013612Y019773D02*
X013692Y019773D01*
X013692Y019852D02*
X013612Y019852D01*
X014065Y019852D02*
X015333Y019852D01*
X015359Y019773D02*
X014106Y019773D01*
X014107Y019695D02*
X015274Y019695D01*
X015196Y019616D02*
X014107Y019616D01*
X014107Y019538D02*
X015162Y019538D01*
X015130Y019459D02*
X014107Y019459D01*
X014045Y020244D02*
X015110Y020244D01*
X015110Y020323D02*
X014123Y020323D01*
X014147Y020401D02*
X015110Y020401D01*
X015138Y020480D02*
X014147Y020480D01*
X014147Y020558D02*
X015171Y020558D01*
X015216Y020637D02*
X014147Y020637D01*
X014147Y020715D02*
X015295Y020715D01*
X015409Y020794D02*
X014147Y020794D01*
X014147Y020872D02*
X015313Y020872D01*
X015234Y020951D02*
X014147Y020951D01*
X014147Y021029D02*
X015178Y021029D01*
X015146Y021108D02*
X014147Y021108D01*
X014147Y021186D02*
X015113Y021186D01*
X015110Y021265D02*
X014086Y021265D01*
X013880Y021343D02*
X015110Y021343D01*
X015114Y021422D02*
X013880Y021422D01*
X013880Y021500D02*
X015147Y021500D01*
X015179Y021579D02*
X013880Y021579D01*
X014089Y021657D02*
X015237Y021657D01*
X015315Y021736D02*
X014155Y021736D01*
X014155Y021814D02*
X015403Y021814D01*
X015292Y021893D02*
X014155Y021893D01*
X014155Y021971D02*
X015214Y021971D01*
X015170Y022050D02*
X014155Y022050D01*
X014155Y022128D02*
X015137Y022128D01*
X015110Y022207D02*
X014155Y022207D01*
X014155Y022285D02*
X015110Y022285D01*
X015110Y022364D02*
X014155Y022364D01*
X013661Y022153D02*
X013661Y020784D01*
X013652Y020775D01*
X013259Y020244D02*
X012942Y020244D01*
X013021Y020323D02*
X013181Y020323D01*
X013157Y020401D02*
X013044Y020401D01*
X013044Y020480D02*
X013157Y020480D01*
X013157Y020558D02*
X013044Y020558D01*
X013044Y020637D02*
X013157Y020637D01*
X013157Y020715D02*
X013044Y020715D01*
X013044Y020794D02*
X013157Y020794D01*
X013157Y020872D02*
X013044Y020872D01*
X013044Y020951D02*
X013157Y020951D01*
X013157Y021029D02*
X013044Y021029D01*
X013044Y021108D02*
X013157Y021108D01*
X013157Y021186D02*
X013044Y021186D01*
X012984Y021265D02*
X013218Y021265D01*
X013441Y021343D02*
X011809Y021343D01*
X011809Y021265D02*
X012116Y021265D01*
X012055Y021186D02*
X011809Y021186D01*
X011809Y021108D02*
X012055Y021108D01*
X012055Y021029D02*
X011809Y021029D01*
X011809Y020951D02*
X012021Y020951D01*
X011942Y020872D02*
X011809Y020872D01*
X011809Y020794D02*
X011864Y020794D01*
X011998Y020618D02*
X011998Y019830D01*
X011762Y019594D01*
X011085Y019594D01*
X011579Y019302D02*
X011639Y019302D01*
X011639Y019224D02*
X011619Y019224D01*
X011619Y019145D02*
X011668Y019145D01*
X011619Y019067D02*
X011719Y019067D01*
X011619Y018988D02*
X011826Y018988D01*
X011619Y018910D02*
X012114Y018910D01*
X011959Y019279D02*
X012077Y019397D01*
X012550Y019397D01*
X013044Y019538D02*
X013197Y019538D01*
X013197Y019616D02*
X013044Y019616D01*
X013044Y019695D02*
X013197Y019695D01*
X013198Y019773D02*
X013044Y019773D01*
X013019Y019852D02*
X013239Y019852D01*
X012940Y019930D02*
X015255Y019930D01*
X015187Y020009D02*
X012218Y020009D01*
X012218Y020087D02*
X015154Y020087D01*
X015122Y020166D02*
X012218Y020166D01*
X011998Y020618D02*
X012156Y020775D01*
X012550Y020775D01*
X012501Y021658D02*
X012208Y021658D01*
X012172Y021668D01*
X012140Y021686D01*
X012114Y021712D01*
X012096Y021744D01*
X012086Y021780D01*
X012086Y022113D01*
X012501Y022113D01*
X012501Y021658D01*
X012501Y021736D02*
X012581Y021736D01*
X012581Y021814D02*
X012501Y021814D01*
X012501Y021893D02*
X012581Y021893D01*
X012581Y021971D02*
X012501Y021971D01*
X012501Y022050D02*
X012581Y022050D01*
X012581Y022128D02*
X013166Y022128D01*
X013166Y022050D02*
X012996Y022050D01*
X012996Y021971D02*
X013166Y021971D01*
X013166Y021893D02*
X012996Y021893D01*
X012996Y021814D02*
X013166Y021814D01*
X013166Y021736D02*
X012982Y021736D01*
X013233Y021657D02*
X011809Y021657D01*
X011809Y021579D02*
X013441Y021579D01*
X013441Y021500D02*
X011809Y021500D01*
X011809Y021422D02*
X013441Y021422D01*
X013166Y022207D02*
X012996Y022207D01*
X012996Y022285D02*
X013166Y022285D01*
X013166Y022364D02*
X012996Y022364D01*
X012501Y022128D02*
X011809Y022128D01*
X011809Y022050D02*
X012086Y022050D01*
X012086Y021971D02*
X011809Y021971D01*
X011809Y021893D02*
X012086Y021893D01*
X012086Y021814D02*
X011809Y021814D01*
X011809Y021736D02*
X012100Y021736D01*
X012086Y022207D02*
X011809Y022207D01*
X011809Y022285D02*
X012086Y022285D01*
X012086Y022364D02*
X011809Y022364D01*
X009715Y018413D02*
X006054Y018413D01*
X005520Y018439D02*
X005443Y018439D01*
X005487Y018457D02*
X005520Y018490D01*
X005520Y018161D01*
X005563Y018118D01*
X005520Y018074D01*
X005520Y017571D01*
X005563Y017527D01*
X005520Y017483D01*
X005520Y016980D01*
X005563Y016936D01*
X005520Y016893D01*
X005520Y016390D01*
X005563Y016346D01*
X005520Y016302D01*
X005520Y015829D01*
X005155Y016193D01*
X005016Y016193D01*
X005024Y016201D01*
X005042Y016233D01*
X005052Y016268D01*
X005052Y016601D01*
X004637Y016601D01*
X004637Y016681D01*
X005052Y016681D01*
X005052Y017014D01*
X005042Y017050D01*
X005024Y017081D01*
X004998Y017108D01*
X004966Y017126D01*
X004930Y017136D01*
X004637Y017136D01*
X004637Y016681D01*
X004557Y016681D01*
X004557Y016601D01*
X004142Y016601D01*
X004142Y016268D01*
X004151Y016233D01*
X004170Y016201D01*
X004178Y016193D01*
X003970Y016193D01*
X003989Y016212D01*
X003989Y017070D01*
X003884Y017175D01*
X003105Y017175D01*
X003000Y017070D01*
X003000Y016861D01*
X001743Y016861D01*
X001754Y016866D01*
X001819Y016914D01*
X001876Y016970D01*
X001923Y017035D01*
X001959Y017107D01*
X001984Y017183D01*
X001997Y017262D01*
X001997Y017263D01*
X001527Y017263D01*
X001527Y017343D01*
X001447Y017343D01*
X001447Y018263D01*
X001527Y018263D01*
X001527Y018343D01*
X001997Y018343D01*
X001984Y018422D01*
X001959Y018498D01*
X001923Y018570D01*
X001876Y018635D01*
X001819Y018692D01*
X001754Y018739D01*
X001682Y018775D01*
X001664Y018781D01*
X001798Y018837D01*
X001953Y018991D01*
X001991Y019083D01*
X002530Y019083D01*
X002605Y019008D01*
X002722Y018959D01*
X002849Y018959D01*
X002967Y019008D01*
X003000Y019041D01*
X003000Y018968D01*
X003105Y018863D01*
X003324Y018863D01*
X003432Y018755D01*
X003561Y018626D01*
X004703Y018626D01*
X004815Y018513D01*
X004637Y018513D01*
X004637Y018059D01*
X005052Y018059D01*
X005052Y018392D01*
X005042Y018428D01*
X005024Y018459D01*
X004998Y018486D01*
X004966Y018504D01*
X004951Y018508D01*
X005073Y018508D01*
X005124Y018457D01*
X005242Y018408D01*
X005369Y018408D01*
X005487Y018457D01*
X005520Y018360D02*
X005052Y018360D01*
X005052Y018282D02*
X005520Y018282D01*
X005520Y018203D02*
X005052Y018203D01*
X005052Y018125D02*
X005556Y018125D01*
X005520Y018046D02*
X004637Y018046D01*
X004637Y018059D02*
X004637Y017979D01*
X004637Y017525D01*
X004930Y017525D01*
X004966Y017534D01*
X004998Y017553D01*
X005024Y017579D01*
X005042Y017611D01*
X005052Y017646D01*
X005052Y017979D01*
X004637Y017979D01*
X004557Y017979D01*
X004557Y017525D01*
X004264Y017525D01*
X004228Y017534D01*
X004196Y017553D01*
X004170Y017579D01*
X004151Y017611D01*
X004142Y017646D01*
X004142Y017979D01*
X004557Y017979D01*
X004557Y018059D01*
X004142Y018059D01*
X004142Y018392D01*
X004151Y018428D01*
X004170Y018459D01*
X004196Y018486D01*
X004228Y018504D01*
X004264Y018513D01*
X004557Y018513D01*
X004557Y018059D01*
X004637Y018059D01*
X004597Y018019D02*
X004597Y017410D01*
X004557Y017575D02*
X004637Y017575D01*
X004637Y017654D02*
X004557Y017654D01*
X004557Y017732D02*
X004637Y017732D01*
X004637Y017811D02*
X004557Y017811D01*
X004557Y017889D02*
X004637Y017889D01*
X004637Y017968D02*
X004557Y017968D01*
X004557Y018046D02*
X003989Y018046D01*
X003989Y017968D02*
X004142Y017968D01*
X004142Y017889D02*
X003989Y017889D01*
X003989Y017811D02*
X004142Y017811D01*
X004142Y017732D02*
X003989Y017732D01*
X003989Y017654D02*
X004142Y017654D01*
X004174Y017575D02*
X003974Y017575D01*
X003989Y017590D02*
X003884Y017485D01*
X003105Y017485D01*
X003000Y017590D01*
X003000Y017783D01*
X002967Y017751D01*
X002849Y017702D01*
X002722Y017702D01*
X002605Y017751D01*
X002515Y017841D01*
X002466Y017958D01*
X002466Y018085D01*
X002515Y018203D01*
X001987Y018203D01*
X001984Y018183D02*
X001997Y018262D01*
X001997Y018263D01*
X001527Y018263D01*
X001527Y017813D01*
X001527Y017343D01*
X001997Y017343D01*
X001984Y017422D01*
X001959Y017498D01*
X001923Y017570D01*
X001876Y017635D01*
X001819Y017692D01*
X001754Y017739D01*
X001682Y017775D01*
X001606Y017800D01*
X001590Y017803D01*
X001606Y017805D01*
X001682Y017830D01*
X001754Y017866D01*
X001819Y017914D01*
X001876Y017970D01*
X001923Y018035D01*
X001959Y018107D01*
X001984Y018183D01*
X001965Y018125D02*
X002482Y018125D01*
X002466Y018046D02*
X001928Y018046D01*
X001873Y017968D02*
X002466Y017968D01*
X002495Y017889D02*
X001785Y017889D01*
X001763Y017732D02*
X002649Y017732D01*
X002545Y017811D02*
X001623Y017811D01*
X001527Y017811D02*
X001447Y017811D01*
X001447Y017889D02*
X001527Y017889D01*
X001527Y017968D02*
X001447Y017968D01*
X001447Y018046D02*
X001527Y018046D01*
X001527Y018125D02*
X001447Y018125D01*
X001447Y018203D02*
X001527Y018203D01*
X001527Y018282D02*
X002594Y018282D01*
X002605Y018293D02*
X002515Y018203D01*
X002605Y018293D02*
X002722Y018341D01*
X002849Y018341D01*
X002967Y018293D01*
X003000Y018260D01*
X003000Y018448D01*
X003105Y018553D01*
X003884Y018553D01*
X003989Y018448D01*
X003989Y017590D01*
X003895Y017497D02*
X005533Y017497D01*
X005520Y017575D02*
X005020Y017575D01*
X005052Y017654D02*
X005520Y017654D01*
X005520Y017732D02*
X005052Y017732D01*
X005052Y017811D02*
X005520Y017811D01*
X005520Y017889D02*
X005052Y017889D01*
X005052Y017968D02*
X005520Y017968D01*
X005520Y017418D02*
X001985Y017418D01*
X001997Y017343D02*
X001997Y017343D01*
X001996Y017261D02*
X005520Y017261D01*
X005520Y017183D02*
X001984Y017183D01*
X001958Y017104D02*
X003034Y017104D01*
X003000Y017026D02*
X001916Y017026D01*
X001852Y016947D02*
X003000Y016947D01*
X003000Y016869D02*
X001757Y016869D01*
X001825Y016641D02*
X001487Y016303D01*
X002172Y015618D01*
X002786Y015618D01*
X002786Y015539D01*
X003061Y015263D01*
X003495Y015263D01*
X003495Y014751D01*
X003613Y014633D01*
X005935Y014633D01*
X006054Y014751D01*
X006762Y014751D01*
X006447Y014397D02*
X006290Y014397D01*
X005975Y014082D01*
X005227Y014082D01*
X005030Y013885D01*
X004597Y013885D01*
X004144Y013415D02*
X003888Y013415D01*
X003895Y013419D02*
X003922Y013445D01*
X003940Y013477D01*
X003949Y013513D01*
X003949Y013845D01*
X003535Y013845D01*
X003535Y013391D01*
X003828Y013391D01*
X003864Y013401D01*
X003895Y013419D01*
X003944Y013493D02*
X004102Y013493D01*
X004102Y013572D02*
X003949Y013572D01*
X003949Y013650D02*
X004102Y013650D01*
X004102Y013729D02*
X003949Y013729D01*
X003949Y013807D02*
X004102Y013807D01*
X004102Y013886D02*
X003535Y013886D01*
X003495Y013885D02*
X003495Y013413D01*
X003572Y013335D01*
X004046Y013335D01*
X003535Y013415D02*
X003455Y013415D01*
X003455Y013493D02*
X003535Y013493D01*
X003535Y013572D02*
X003455Y013572D01*
X003455Y013650D02*
X003535Y013650D01*
X003535Y013729D02*
X003455Y013729D01*
X003455Y013807D02*
X003535Y013807D01*
X003949Y013964D02*
X004102Y013964D01*
X004102Y014043D02*
X003949Y014043D01*
X003949Y014121D02*
X004102Y014121D01*
X004102Y014200D02*
X003949Y014200D01*
X003989Y014853D02*
X003989Y015692D01*
X003928Y015753D01*
X004248Y015753D01*
X004228Y015748D01*
X004196Y015730D01*
X004170Y015704D01*
X004151Y015672D01*
X004142Y015636D01*
X004142Y015303D01*
X004557Y015303D01*
X004557Y015223D01*
X004142Y015223D01*
X004142Y014890D01*
X004151Y014855D01*
X004153Y014853D01*
X003989Y014853D01*
X003989Y014906D02*
X004142Y014906D01*
X004142Y014985D02*
X003989Y014985D01*
X003989Y015063D02*
X004142Y015063D01*
X004142Y015142D02*
X003989Y015142D01*
X003989Y015220D02*
X004142Y015220D01*
X004142Y015377D02*
X003989Y015377D01*
X003989Y015299D02*
X004557Y015299D01*
X004597Y015263D02*
X005227Y015263D01*
X005350Y015377D02*
X005052Y015377D01*
X005052Y015303D02*
X005052Y015636D01*
X005042Y015672D01*
X005025Y015702D01*
X005240Y015487D01*
X005368Y015358D01*
X006677Y015358D01*
X006681Y015355D01*
X006767Y015358D01*
X006853Y015358D01*
X006857Y015362D01*
X006863Y015363D01*
X006921Y015426D01*
X006982Y015487D01*
X006982Y015493D01*
X007024Y015539D01*
X007875Y015539D01*
X007763Y015427D01*
X007763Y015203D01*
X007719Y015247D01*
X005892Y015247D01*
X005841Y015298D01*
X005723Y015347D01*
X005596Y015347D01*
X005479Y015298D01*
X005389Y015208D01*
X005340Y015091D01*
X005340Y014963D01*
X005386Y014853D01*
X005041Y014853D01*
X005042Y014855D01*
X005052Y014890D01*
X005052Y015223D01*
X004637Y015223D01*
X004637Y015303D01*
X005052Y015303D01*
X005052Y015220D02*
X005401Y015220D01*
X005361Y015142D02*
X005052Y015142D01*
X005052Y015063D02*
X005340Y015063D01*
X005340Y014985D02*
X005052Y014985D01*
X005052Y014906D02*
X005364Y014906D01*
X005660Y015027D02*
X007628Y015027D01*
X007786Y014870D01*
X007786Y014240D01*
X007983Y014240D02*
X007983Y015336D01*
X008342Y015695D01*
X010467Y015695D01*
X010539Y015618D01*
X011880Y015618D01*
X012029Y015456D02*
X012095Y015456D01*
X012095Y015521D02*
X012095Y015303D01*
X012510Y015303D01*
X012510Y015758D01*
X012331Y015758D01*
X012445Y015872D01*
X012936Y015872D01*
X012936Y015751D01*
X012943Y015734D01*
X012919Y015748D01*
X012883Y015758D01*
X012590Y015758D01*
X012590Y015303D01*
X013005Y015303D01*
X013005Y015613D01*
X013075Y015543D01*
X013157Y015509D01*
X013157Y014971D01*
X013005Y014971D01*
X013005Y015223D01*
X012590Y015223D01*
X012590Y015303D01*
X012510Y015303D01*
X012510Y015223D01*
X012095Y015223D01*
X012095Y014971D01*
X011932Y014971D01*
X011796Y015107D01*
X011867Y015179D01*
X011916Y015296D01*
X011916Y015398D01*
X011971Y015398D01*
X012095Y015521D01*
X012095Y015377D02*
X011916Y015377D01*
X011916Y015299D02*
X012510Y015299D01*
X012550Y015263D02*
X011920Y015263D01*
X011841Y015185D01*
X011841Y015106D01*
X011830Y015142D02*
X012095Y015142D01*
X012095Y015220D02*
X011884Y015220D01*
X011840Y015063D02*
X012095Y015063D01*
X012095Y014985D02*
X011919Y014985D01*
X011596Y015360D02*
X011488Y015423D01*
X010416Y015423D01*
X010289Y015538D01*
X008459Y015538D01*
X008180Y015258D01*
X008180Y014240D01*
X008770Y014240D02*
X008770Y014866D01*
X008970Y015065D01*
X010041Y015065D01*
X010176Y014930D01*
X011176Y014930D01*
X011803Y014317D01*
X012006Y014081D02*
X011596Y014081D01*
X011408Y014279D01*
X011408Y014434D01*
X011056Y014770D01*
X010096Y014770D01*
X009958Y014908D01*
X009166Y014908D01*
X008967Y014708D01*
X008967Y014240D01*
X009164Y014240D02*
X009164Y014631D01*
X009283Y014750D01*
X009876Y014750D01*
X010016Y014610D01*
X010976Y014610D01*
X011250Y014350D01*
X011250Y014082D01*
X011488Y013845D01*
X011723Y013845D01*
X011093Y014005D02*
X011093Y014278D01*
X010896Y014450D01*
X009936Y014450D01*
X009793Y014593D01*
X009400Y014593D01*
X009361Y014553D01*
X009361Y014240D01*
X009599Y014240D02*
X009757Y014240D01*
X009757Y014319D01*
X009845Y014230D01*
X010040Y014230D01*
X009995Y014186D01*
X009970Y014124D01*
X009757Y014124D01*
X009757Y014240D01*
X009599Y014240D01*
X009599Y014240D01*
X009757Y014278D02*
X009797Y014278D01*
X009757Y014200D02*
X010009Y014200D01*
X010266Y014005D02*
X010541Y014005D01*
X010176Y013730D02*
X010135Y013688D01*
X009912Y013688D01*
X009912Y013492D02*
X009426Y013492D01*
X009376Y013810D02*
X009556Y013970D01*
X009575Y013807D02*
X009500Y013807D01*
X009376Y013810D02*
X008976Y013810D01*
X008816Y013650D01*
X009912Y013295D02*
X010131Y013295D01*
X010176Y013250D01*
X010656Y013250D01*
X010781Y013340D01*
X011014Y013340D01*
X011014Y013688D02*
X010976Y013730D01*
X010176Y013730D01*
X011369Y013019D02*
X011685Y013019D01*
X013005Y014985D02*
X013157Y014985D01*
X013157Y015063D02*
X013005Y015063D01*
X013005Y015142D02*
X013157Y015142D01*
X013157Y015220D02*
X013005Y015220D01*
X013005Y015377D02*
X013157Y015377D01*
X013157Y015299D02*
X012590Y015299D01*
X012550Y015263D02*
X012550Y015814D01*
X012510Y015691D02*
X012590Y015691D01*
X012590Y015613D02*
X012510Y015613D01*
X012510Y015534D02*
X012590Y015534D01*
X012590Y015456D02*
X012510Y015456D01*
X012510Y015377D02*
X012590Y015377D01*
X013005Y015456D02*
X013157Y015456D01*
X013097Y015534D02*
X013005Y015534D01*
X013005Y015613D02*
X013005Y015613D01*
X012936Y015770D02*
X012343Y015770D01*
X012422Y015848D02*
X012936Y015848D01*
X013256Y015814D02*
X013656Y015814D01*
X013652Y015263D01*
X012410Y017183D02*
X011619Y017183D01*
X011619Y017261D02*
X012410Y017261D01*
X012410Y017340D02*
X011619Y017340D01*
X011561Y017575D02*
X012410Y017575D01*
X011805Y016790D02*
X011619Y016790D01*
X011619Y016712D02*
X011658Y016712D01*
X011085Y016051D02*
X007195Y016051D01*
X006762Y015578D01*
X005459Y015578D01*
X005064Y015973D01*
X002392Y015973D01*
X002747Y015303D02*
X001487Y015303D01*
X001825Y016641D02*
X003495Y016641D01*
X003955Y017104D02*
X004192Y017104D01*
X004196Y017108D02*
X004170Y017081D01*
X004151Y017050D01*
X004142Y017014D01*
X004142Y016681D01*
X004557Y016681D01*
X004557Y017136D01*
X004264Y017136D01*
X004228Y017126D01*
X004196Y017108D01*
X004145Y017026D02*
X003989Y017026D01*
X003989Y016947D02*
X004142Y016947D01*
X004142Y016869D02*
X003989Y016869D01*
X003989Y016790D02*
X004142Y016790D01*
X004142Y016712D02*
X003989Y016712D01*
X003989Y016633D02*
X004557Y016633D01*
X004557Y016712D02*
X004637Y016712D01*
X004637Y016790D02*
X004557Y016790D01*
X004557Y016869D02*
X004637Y016869D01*
X004637Y016947D02*
X004557Y016947D01*
X004557Y017026D02*
X004637Y017026D01*
X004637Y017104D02*
X004557Y017104D01*
X004637Y016633D02*
X005520Y016633D01*
X005520Y016555D02*
X005052Y016555D01*
X005052Y016476D02*
X005520Y016476D01*
X005520Y016398D02*
X005052Y016398D01*
X005052Y016319D02*
X005536Y016319D01*
X005520Y016241D02*
X005044Y016241D01*
X005186Y016162D02*
X005520Y016162D01*
X005520Y016084D02*
X005265Y016084D01*
X005343Y016005D02*
X005520Y016005D01*
X005520Y015927D02*
X005422Y015927D01*
X005500Y015848D02*
X005520Y015848D01*
X005193Y015534D02*
X005052Y015534D01*
X005052Y015456D02*
X005271Y015456D01*
X005114Y015613D02*
X005052Y015613D01*
X005036Y015691D02*
X005031Y015691D01*
X004637Y015299D02*
X005480Y015299D01*
X005840Y015299D02*
X007763Y015299D01*
X007763Y015377D02*
X006876Y015377D01*
X006950Y015456D02*
X007792Y015456D01*
X007870Y015534D02*
X007020Y015534D01*
X007746Y015220D02*
X007763Y015220D01*
X007390Y014200D02*
X007044Y014200D01*
X006691Y013729D02*
X005562Y013729D01*
X005263Y013807D02*
X006548Y013807D01*
X006482Y013886D02*
X006089Y013886D01*
X006168Y013964D02*
X006450Y013964D01*
X006442Y014043D02*
X006246Y014043D01*
X005817Y014358D02*
X005740Y014435D01*
X003260Y014435D01*
X002983Y014712D01*
X002983Y015066D01*
X002747Y015303D01*
X003989Y015456D02*
X004142Y015456D01*
X004142Y015534D02*
X003989Y015534D01*
X003989Y015613D02*
X004142Y015613D01*
X004163Y015691D02*
X003989Y015691D01*
X003989Y016241D02*
X004149Y016241D01*
X004142Y016319D02*
X003989Y016319D01*
X003989Y016398D02*
X004142Y016398D01*
X004142Y016476D02*
X003989Y016476D01*
X003989Y016555D02*
X004142Y016555D01*
X005052Y016712D02*
X005520Y016712D01*
X005520Y016790D02*
X005052Y016790D01*
X005052Y016869D02*
X005520Y016869D01*
X005553Y016947D02*
X005052Y016947D01*
X005049Y017026D02*
X005520Y017026D01*
X005520Y017104D02*
X005001Y017104D01*
X005520Y017340D02*
X001527Y017340D01*
X001527Y017418D02*
X001447Y017418D01*
X001447Y017497D02*
X001527Y017497D01*
X001527Y017575D02*
X001447Y017575D01*
X001447Y017654D02*
X001527Y017654D01*
X001527Y017732D02*
X001447Y017732D01*
X001857Y017654D02*
X003000Y017654D01*
X003000Y017732D02*
X002922Y017732D01*
X003015Y017575D02*
X001919Y017575D01*
X001960Y017497D02*
X003094Y017497D01*
X002943Y018019D02*
X002786Y018022D01*
X002943Y018019D02*
X003495Y018019D01*
X003920Y018517D02*
X004812Y018517D01*
X004733Y018596D02*
X001904Y018596D01*
X001950Y018517D02*
X003069Y018517D01*
X003000Y018439D02*
X001979Y018439D01*
X001994Y018360D02*
X003000Y018360D01*
X003000Y018282D02*
X002978Y018282D01*
X003435Y018753D02*
X001727Y018753D01*
X001785Y018831D02*
X003356Y018831D01*
X003495Y019003D02*
X003652Y018846D01*
X004794Y018846D01*
X004912Y018728D01*
X005306Y018728D01*
X005168Y018439D02*
X005036Y018439D01*
X004637Y018439D02*
X004557Y018439D01*
X004557Y018360D02*
X004637Y018360D01*
X004637Y018282D02*
X004557Y018282D01*
X004557Y018203D02*
X004637Y018203D01*
X004637Y018125D02*
X004557Y018125D01*
X004142Y018125D02*
X003989Y018125D01*
X003989Y018203D02*
X004142Y018203D01*
X004142Y018282D02*
X003989Y018282D01*
X003989Y018360D02*
X004142Y018360D01*
X004158Y018439D02*
X003989Y018439D01*
X003513Y018674D02*
X001836Y018674D01*
X001871Y018910D02*
X003059Y018910D01*
X003000Y018988D02*
X002919Y018988D01*
X002653Y018988D02*
X001950Y018988D01*
X001984Y019067D02*
X002546Y019067D01*
X002762Y019303D02*
X002786Y019279D01*
X002762Y019303D02*
X001487Y019303D01*
X001997Y018343D02*
X001997Y018343D01*
X002747Y020185D02*
X006054Y020185D01*
X006841Y020185D01*
X006054Y019594D02*
X005345Y019594D01*
X005148Y019397D01*
X004597Y019397D01*
X003495Y019397D02*
X003495Y019003D01*
X002747Y020185D02*
X002392Y020539D01*
X002392Y020618D01*
X002904Y020775D02*
X003495Y020775D01*
X004203Y021641D02*
X004597Y021248D01*
X004597Y020775D01*
X005148Y020775D01*
X005338Y021037D02*
X005329Y021046D01*
X005212Y021095D01*
X005092Y021095D01*
X005092Y021204D01*
X004986Y021309D01*
X004817Y021309D01*
X004817Y021339D01*
X004688Y021467D01*
X004497Y021658D01*
X004566Y021658D01*
X004566Y022113D01*
X004646Y022113D01*
X004646Y022193D01*
X005061Y022193D01*
X005061Y022422D01*
X005338Y022422D01*
X005338Y021037D01*
X005338Y021108D02*
X005092Y021108D01*
X005092Y021186D02*
X005338Y021186D01*
X005338Y021265D02*
X005031Y021265D01*
X004812Y021343D02*
X005338Y021343D01*
X005338Y021422D02*
X004734Y021422D01*
X004655Y021500D02*
X005338Y021500D01*
X005338Y021579D02*
X004577Y021579D01*
X004646Y021658D02*
X004939Y021658D01*
X004975Y021668D01*
X005006Y021686D01*
X005033Y021712D01*
X005051Y021744D01*
X005061Y021780D01*
X005061Y022113D01*
X004646Y022113D01*
X004646Y021658D01*
X004606Y021711D02*
X004794Y021523D01*
X004646Y021736D02*
X004566Y021736D01*
X004606Y021711D02*
X004606Y022153D01*
X004646Y022128D02*
X005338Y022128D01*
X005338Y022050D02*
X005061Y022050D01*
X005061Y021971D02*
X005338Y021971D01*
X005338Y021893D02*
X005061Y021893D01*
X005061Y021814D02*
X005338Y021814D01*
X005338Y021736D02*
X005046Y021736D01*
X005338Y021657D02*
X004498Y021657D01*
X004566Y021814D02*
X004646Y021814D01*
X004646Y021893D02*
X004566Y021893D01*
X004566Y021971D02*
X004646Y021971D01*
X004646Y022050D02*
X004566Y022050D01*
X004566Y022113D02*
X004151Y022113D01*
X004151Y021861D01*
X003981Y021861D01*
X003981Y022422D01*
X004151Y022422D01*
X004151Y022193D01*
X004566Y022193D01*
X004566Y022113D01*
X004566Y022128D02*
X003981Y022128D01*
X003981Y022050D02*
X004151Y022050D01*
X004151Y021971D02*
X003981Y021971D01*
X003981Y021893D02*
X004151Y021893D01*
X004203Y021641D02*
X002510Y021641D01*
X002904Y021956D02*
X003101Y022153D01*
X003486Y022153D01*
X003981Y022207D02*
X004151Y022207D01*
X004151Y022285D02*
X003981Y022285D01*
X003981Y022364D02*
X004151Y022364D01*
X005061Y022364D02*
X005338Y022364D01*
X005338Y022285D02*
X005061Y022285D01*
X005061Y022207D02*
X005338Y022207D01*
X007589Y013964D02*
X007589Y013964D01*
X007235Y011917D02*
X007077Y011917D01*
X005778Y012704D02*
X002550Y012704D01*
X002148Y012303D01*
X001487Y012303D01*
X002226Y011552D02*
X002983Y012389D01*
X002859Y011845D02*
X002786Y011845D01*
X003488Y013258D02*
X005212Y013258D01*
X005180Y013336D02*
X003410Y013336D01*
X003174Y010275D02*
X003645Y010275D01*
X003723Y010196D02*
X003377Y010196D01*
X003457Y010184D02*
X003319Y009751D01*
X003714Y009625D01*
X003815Y009942D01*
X003817Y009979D01*
X003809Y010015D01*
X003792Y010048D01*
X003767Y010075D01*
X003736Y010095D01*
X003457Y010184D01*
X003436Y010118D02*
X003352Y010118D01*
X003327Y010039D02*
X003411Y010039D01*
X003386Y009961D02*
X003302Y009961D01*
X003276Y009882D02*
X003360Y009882D01*
X003335Y009804D02*
X003251Y009804D01*
X003226Y009725D02*
X003136Y009725D01*
X003153Y009804D02*
X002890Y009804D01*
X002816Y009804D02*
X002015Y009804D01*
X002262Y009725D02*
X002791Y009725D01*
X002766Y009647D02*
X002509Y009647D01*
X003310Y009725D02*
X003399Y009725D01*
X003382Y009647D02*
X003645Y009647D01*
X003721Y009647D02*
X003899Y009647D01*
X003924Y009725D02*
X003746Y009725D01*
X003771Y009804D02*
X003949Y009804D01*
X003974Y009882D02*
X003796Y009882D01*
X003816Y009961D02*
X004027Y009961D01*
X003797Y010039D02*
X005441Y010039D01*
X005441Y009961D02*
X004288Y009961D01*
X004534Y009882D02*
X005441Y009882D01*
X005441Y009804D02*
X004780Y009804D01*
X004894Y009725D02*
X005511Y009725D01*
X005537Y009568D02*
X004913Y009568D01*
X004935Y009647D02*
X005769Y009647D01*
X005459Y009490D02*
X004888Y009490D01*
X005053Y009411D02*
X005441Y009411D01*
X005441Y009333D02*
X005341Y009333D01*
X005424Y009082D02*
X005975Y009082D01*
X005424Y009082D02*
X004558Y009318D01*
X004335Y009384D01*
X003874Y009568D02*
X003628Y009568D01*
X003671Y009490D02*
X003849Y009490D01*
X003824Y009411D02*
X003646Y009411D01*
X003621Y009333D02*
X003799Y009333D01*
X003774Y009254D02*
X003742Y009254D01*
X003802Y010118D02*
X003665Y010118D01*
X006242Y006585D02*
X006322Y006585D01*
X006322Y006507D02*
X006242Y006507D01*
X006242Y006428D02*
X006322Y006428D01*
X006322Y006350D02*
X006242Y006350D01*
X006242Y006271D02*
X006322Y006271D01*
X007904Y008373D02*
X007550Y008728D01*
X007904Y008373D02*
X008100Y008373D01*
X008376Y008136D01*
X009951Y008136D01*
X009676Y007662D02*
X009676Y007350D01*
X009676Y007662D02*
X009400Y007938D01*
X008060Y007938D01*
X008573Y007350D02*
X008573Y006933D01*
X008656Y006850D01*
X010176Y006850D01*
X010336Y007010D01*
X010336Y007490D01*
X011006Y006641D02*
X011014Y006633D01*
X009164Y011562D02*
X009164Y011842D01*
D26*
X011014Y006633D02*
X011014Y006208D01*
X009951Y005145D01*
X009951Y003055D01*
X008967Y003251D02*
X008967Y004988D01*
X009676Y005696D01*
X009676Y006248D01*
X008573Y006248D02*
X008573Y005696D01*
X008180Y005303D01*
X008180Y003251D01*
X007195Y003055D02*
X007195Y005421D01*
X007471Y005696D01*
X007471Y006248D01*
D27*
X006822Y006161D03*
X008060Y007938D03*
X006796Y009397D03*
X006487Y008413D03*
X007983Y010733D03*
X007626Y010889D03*
X006920Y011129D03*
X006605Y011562D03*
X006841Y011917D03*
X006290Y012271D03*
X005495Y013410D03*
X005386Y013807D03*
X005817Y014358D03*
X005660Y015027D03*
X005227Y015263D03*
X006447Y014397D03*
X006762Y014045D03*
X007195Y016051D03*
X005306Y018728D03*
X004597Y017410D03*
X002786Y018022D03*
X002786Y019279D03*
X002392Y020618D03*
X002904Y020775D03*
X002510Y021641D03*
X002904Y021956D03*
X004794Y021523D03*
X005148Y020775D03*
X006841Y020185D03*
X009715Y018413D03*
X011760Y016408D03*
X011723Y015972D03*
X011596Y015360D03*
X011841Y015106D03*
X011803Y014317D03*
X011723Y013845D03*
X011963Y013334D03*
X011487Y012783D03*
X011014Y013340D03*
X011014Y013688D03*
X010817Y014161D03*
X010266Y014005D03*
X009426Y013492D03*
X009036Y012531D03*
X008770Y012051D03*
X009361Y012051D03*
X009958Y011569D03*
X010622Y011602D03*
X010938Y011369D03*
X010546Y011212D03*
X010227Y010338D03*
X010505Y010020D03*
X010822Y008408D03*
X010336Y007490D03*
X009951Y008136D03*
X009163Y010200D03*
X010542Y012390D03*
X011172Y012114D03*
X011959Y011640D03*
X012865Y012950D03*
X013257Y012500D03*
X013812Y012418D03*
X014292Y011640D03*
X014759Y012120D03*
X014805Y010935D03*
X014292Y013654D03*
X014286Y014237D03*
X014756Y014831D03*
X015151Y014751D03*
X014519Y016090D03*
X014164Y017310D03*
X013416Y016897D03*
X013256Y015814D03*
X012550Y015814D03*
X012235Y016877D03*
X012313Y017901D03*
X011959Y019279D03*
X004046Y013335D03*
X003101Y012055D03*
X004046Y011681D03*
X003101Y011011D03*
X002786Y015618D03*
X002392Y015973D03*
M02*
